<!-- Generator: Adobe Illustrator 25.0.0, SVG Export Plug-In  -->
<svg version="1.1" xmlns="http://www.w3.org/2000/svg" xmlns:xlink="http://www.w3.org/1999/xlink" x="0px" y="0px" width="137.9px"
	 height="17.6px" viewBox="0 0 137.9 17.6" style="overflow:visible;enable-background:new 0 0 137.9 17.6;" xml:space="preserve">
<style type="text/css">
	.st0{fill:#FFFFFF;}
</style>
<defs>
</defs>
<g>
	<path class="st0" d="M6.9,0.1v8.1H5.6V4.7H1.8v3.5H0.5V0.1h1.3v3.5h3.8V0.1H6.9z"/>
	<path class="st0" d="M10,0.1v8.1H8.7V0.1H10z"/>
	<path class="st0" d="M13.1,7.1h2.7v1.1h-4.1V0.1h1.3V7.1z"/>
	<path class="st0" d="M22.1,0.1v1.1H20v7h-1.3v-7h-2.2V0.1H22.1z"/>
	<path class="st0" d="M25.1,7.7c-0.6-0.4-1.1-0.8-1.5-1.5C23.2,5.6,23,4.9,23,4.1s0.2-1.5,0.6-2.1c0.4-0.6,0.9-1.1,1.5-1.5
		C25.7,0.2,26.4,0,27.2,0c0.8,0,1.5,0.2,2.1,0.5c0.6,0.4,1.1,0.8,1.5,1.5c0.4,0.6,0.5,1.3,0.5,2.1s-0.2,1.5-0.5,2.1
		c-0.4,0.6-0.9,1.1-1.5,1.5c-0.6,0.4-1.3,0.5-2.1,0.5C26.4,8.3,25.7,8.1,25.1,7.7z M28.6,6.8c0.4-0.2,0.7-0.6,1-1
		c0.2-0.5,0.4-1,0.4-1.6S29.8,3,29.6,2.6c-0.2-0.5-0.6-0.8-1-1s-0.9-0.4-1.4-0.4c-0.5,0-1,0.1-1.4,0.4c-0.4,0.2-0.7,0.6-1,1
		c-0.2,0.5-0.4,1-0.4,1.6s0.1,1.1,0.4,1.6c0.2,0.5,0.6,0.8,1,1c0.4,0.2,0.9,0.4,1.4,0.4C27.7,7.1,28.2,7,28.6,6.8z"/>
	<path class="st0" d="M39.3,8.2h-1.3l-4-6v6h-1.3V0.1h1.3l4,6v-6h1.3V8.2z"/>
	<path class="st0" d="M50.5,0.1v8.1h-1.3V4.7h-3.8v3.5H44V0.1h1.3v3.5h3.8V0.1H50.5z"/>
	<path class="st0" d="M53.6,1.2v2.4h2.8v1.1h-2.8v2.5h3.1v1.1h-4.5V0.1h4.5v1.1H53.6z"/>
	<path class="st0" d="M63.2,6.5h-3.4l-0.6,1.7h-1.4l2.9-8.1h1.5l2.9,8.1h-1.4L63.2,6.5z M62.8,5.5l-1.3-3.8l-1.3,3.8H62.8z"/>
	<path class="st0" d="M71.4,0.6C72,0.9,72.5,1.4,72.9,2c0.4,0.6,0.5,1.3,0.5,2.2c0,0.8-0.2,1.5-0.5,2.1c-0.4,0.6-0.9,1.1-1.5,1.4
		C70.7,8,70,8.2,69.1,8.2h-2.6V0.1h2.6C70,0.1,70.7,0.3,71.4,0.6z M71.3,6.3C71.8,5.8,72,5.1,72,4.2c0-0.9-0.3-1.7-0.8-2.2
		c-0.5-0.5-1.2-0.8-2.2-0.8h-1.3v5.9h1.3C70,7.1,70.8,6.9,71.3,6.3z"/>
	<path class="st0" d="M79.1,0.1v8.1h-1.3V0.1H79.1z"/>
	<path class="st0" d="M82,8c-0.4-0.2-0.8-0.5-1-0.8c-0.2-0.3-0.4-0.8-0.4-1.2H82c0,0.3,0.2,0.6,0.4,0.9c0.2,0.2,0.6,0.3,1,0.3
		c0.5,0,0.8-0.1,1.1-0.3c0.3-0.2,0.4-0.5,0.4-0.9c0-0.3-0.1-0.5-0.2-0.7S84.3,5,84.1,4.9c-0.2-0.1-0.6-0.2-1-0.3
		c-0.5-0.1-1-0.3-1.3-0.4S81.2,3.8,81,3.5c-0.2-0.3-0.3-0.7-0.3-1.2c0-0.5,0.1-0.9,0.3-1.2c0.2-0.3,0.6-0.6,1-0.8
		C82.4,0.1,82.9,0,83.4,0c0.8,0,1.4,0.2,1.9,0.6c0.5,0.4,0.8,0.9,0.8,1.6h-1.5c0-0.3-0.2-0.5-0.4-0.8c-0.3-0.2-0.6-0.3-1-0.3
		c-0.4,0-0.7,0.1-0.9,0.3C82.1,1.6,82,1.9,82,2.3c0,0.2,0.1,0.5,0.2,0.6s0.3,0.3,0.6,0.4c0.2,0.1,0.6,0.2,1,0.3
		c0.5,0.1,1,0.3,1.3,0.4c0.3,0.1,0.6,0.4,0.9,0.7c0.2,0.3,0.4,0.7,0.4,1.2c0,0.4-0.1,0.8-0.3,1.2c-0.2,0.4-0.5,0.7-1,0.9
		c-0.4,0.2-0.9,0.3-1.5,0.3C82.9,8.3,82.4,8.2,82,8z"/>
	<path class="st0" d="M89.2,7.1h2.7v1.1h-4.1V0.1h1.3V7.1z"/>
	<path class="st0" d="M97.9,6.5h-3.4l-0.6,1.7h-1.4l2.9-8.1H97l2.9,8.1h-1.4L97.9,6.5z M97.5,5.5l-1.3-3.8l-1.3,3.8H97.5z"/>
	<path class="st0" d="M107.8,8.2h-1.3l-4-6v6h-1.3V0.1h1.3l4,6v-6h1.3V8.2z"/>
	<path class="st0" d="M114.4,0.6c0.6,0.3,1.1,0.8,1.5,1.4c0.4,0.6,0.5,1.3,0.5,2.2c0,0.8-0.2,1.5-0.5,2.1c-0.4,0.6-0.9,1.1-1.5,1.4
		c-0.6,0.3-1.4,0.5-2.3,0.5h-2.6V0.1h2.6C113,0.1,113.8,0.3,114.4,0.6z M114.3,6.3c0.5-0.5,0.8-1.2,0.8-2.2c0-0.9-0.3-1.7-0.8-2.2
		c-0.5-0.5-1.2-0.8-2.2-0.8h-1.3v5.9h1.3C113.1,7.1,113.8,6.9,114.3,6.3z"/>
	<path class="st0" d="M119.2,6.6l-1.4,3.2h-0.9l0.8-3.2H119.2z"/>
	<path class="st0" d="M124.6,8c-0.4-0.2-0.8-0.5-1-0.8c-0.2-0.3-0.4-0.8-0.4-1.2h1.4c0,0.3,0.2,0.6,0.4,0.9c0.2,0.2,0.6,0.3,1,0.3
		c0.5,0,0.8-0.1,1.1-0.3c0.3-0.2,0.4-0.5,0.4-0.9c0-0.3-0.1-0.5-0.2-0.7s-0.4-0.3-0.6-0.4c-0.2-0.1-0.6-0.2-1-0.3
		c-0.5-0.1-1-0.3-1.3-0.4s-0.6-0.4-0.8-0.7c-0.2-0.3-0.3-0.7-0.3-1.2c0-0.5,0.1-0.9,0.3-1.2c0.2-0.3,0.6-0.6,1-0.8
		C125,0.1,125.5,0,126,0c0.8,0,1.4,0.2,1.9,0.6c0.5,0.4,0.8,0.9,0.8,1.6h-1.5c0-0.3-0.2-0.5-0.4-0.8c-0.3-0.2-0.6-0.3-1-0.3
		c-0.4,0-0.7,0.1-0.9,0.3c-0.2,0.2-0.4,0.5-0.4,0.8c0,0.2,0.1,0.5,0.2,0.6s0.3,0.3,0.6,0.4c0.2,0.1,0.6,0.2,1,0.3
		c0.5,0.1,1,0.3,1.3,0.4c0.3,0.1,0.6,0.4,0.9,0.7c0.2,0.3,0.4,0.7,0.4,1.2c0,0.4-0.1,0.8-0.3,1.2c-0.2,0.4-0.5,0.7-1,0.9
		c-0.4,0.2-0.9,0.3-1.5,0.3C125.5,8.3,125,8.2,124.6,8z"/>
	<path class="st0" d="M130.5,2c0.4-0.6,0.9-1.1,1.5-1.5c0.6-0.4,1.3-0.5,2.1-0.5c0.9,0,1.6,0.2,2.3,0.6c0.7,0.4,1.2,1,1.5,1.8h-1.6
		c-0.2-0.4-0.5-0.7-0.9-1c-0.4-0.2-0.8-0.3-1.3-0.3c-0.5,0-1,0.1-1.4,0.4c-0.4,0.2-0.7,0.6-1,1c-0.2,0.5-0.4,1-0.4,1.6
		s0.1,1.1,0.4,1.6c0.2,0.5,0.6,0.8,1,1c0.4,0.2,0.9,0.4,1.4,0.4c0.5,0,0.9-0.1,1.3-0.3c0.4-0.2,0.7-0.5,0.9-1h1.6
		c-0.3,0.8-0.8,1.4-1.5,1.8c-0.7,0.4-1.4,0.6-2.3,0.6c-0.8,0-1.5-0.2-2.1-0.5c-0.6-0.4-1.1-0.8-1.5-1.5c-0.4-0.6-0.6-1.3-0.6-2.1
		S130.2,2.6,130.5,2z"/>
	<path class="st0" d="M0.2,15.3C0.1,15.2,0,15.1,0,14.9s0.1-0.3,0.2-0.4c0.1-0.1,0.2-0.2,0.4-0.2c0.2,0,0.3,0.1,0.4,0.2
		c0.1,0.1,0.2,0.2,0.2,0.4S1.1,15.2,1,15.3c-0.1,0.1-0.2,0.2-0.4,0.2C0.4,15.5,0.3,15.4,0.2,15.3z"/>
	<path class="st0" d="M7.7,14.5c-0.1,0.2-0.3,0.4-0.6,0.6c-0.3,0.2-0.6,0.2-1.1,0.2H5v2.2H4.1v-5.4H6c0.4,0,0.8,0.1,1.1,0.2
		c0.3,0.1,0.5,0.3,0.6,0.6c0.1,0.2,0.2,0.5,0.2,0.8C7.9,14,7.8,14.3,7.7,14.5z M6.7,14.4C6.9,14.2,7,14,7,13.7c0-0.6-0.3-0.9-1-0.9
		H5v1.8h1C6.3,14.6,6.5,14.5,6.7,14.4z"/>
	<path class="st0" d="M12.6,15.7H9.3c0,0.3,0.2,0.6,0.4,0.8s0.5,0.3,0.8,0.3c0.5,0,0.8-0.2,1-0.6h1c-0.1,0.4-0.4,0.7-0.7,1
		c-0.3,0.3-0.8,0.4-1.3,0.4c-0.4,0-0.8-0.1-1.1-0.3c-0.3-0.2-0.6-0.4-0.8-0.8c-0.2-0.3-0.3-0.7-0.3-1.2s0.1-0.8,0.3-1.2
		c0.2-0.3,0.4-0.6,0.8-0.8c0.3-0.2,0.7-0.3,1.1-0.3c0.4,0,0.8,0.1,1.1,0.3s0.6,0.4,0.7,0.7s0.3,0.7,0.3,1.1
		C12.6,15.4,12.6,15.6,12.6,15.7z M11.7,15c0-0.3-0.1-0.6-0.3-0.8c-0.2-0.2-0.5-0.3-0.8-0.3c-0.3,0-0.6,0.1-0.8,0.3
		c-0.2,0.2-0.3,0.5-0.4,0.8H11.7z"/>
	<path class="st0" d="M13.5,14.2c0.2-0.3,0.4-0.6,0.7-0.8s0.7-0.3,1-0.3c0.3,0,0.6,0.1,0.8,0.2c0.3,0.1,0.5,0.3,0.6,0.5v-2.1h0.9
		v5.7h-0.9v-0.6c-0.1,0.2-0.3,0.4-0.6,0.5c-0.3,0.1-0.5,0.2-0.9,0.2c-0.4,0-0.7-0.1-1-0.3c-0.3-0.2-0.6-0.5-0.7-0.8
		s-0.3-0.7-0.3-1.2S13.3,14.5,13.5,14.2z M16.5,14.6c-0.1-0.2-0.3-0.4-0.5-0.5c-0.2-0.1-0.4-0.2-0.6-0.2S15,14,14.8,14.1
		c-0.2,0.1-0.4,0.3-0.5,0.5c-0.1,0.2-0.2,0.5-0.2,0.8s0.1,0.6,0.2,0.8c0.1,0.2,0.3,0.4,0.5,0.5s0.4,0.2,0.6,0.2
		c0.2,0,0.4-0.1,0.6-0.2c0.2-0.1,0.4-0.3,0.5-0.5c0.1-0.2,0.2-0.5,0.2-0.8S16.6,14.8,16.5,14.6z"/>
	<path class="st0" d="M18.8,12.5c-0.1-0.1-0.2-0.2-0.2-0.4c0-0.2,0.1-0.3,0.2-0.4c0.1-0.1,0.2-0.2,0.4-0.2c0.2,0,0.3,0.1,0.4,0.2
		s0.2,0.2,0.2,0.4c0,0.2-0.1,0.3-0.2,0.4c-0.1,0.1-0.2,0.2-0.4,0.2C19,12.7,18.9,12.6,18.8,12.5z M19.6,13.2v4.3h-0.9v-4.3H19.6z"/>
	<path class="st0" d="M20.8,14.2c0.2-0.3,0.4-0.6,0.7-0.8s0.6-0.3,1-0.3c0.3,0,0.6,0.1,0.9,0.2c0.3,0.1,0.5,0.3,0.6,0.5v-0.6h0.9
		v4.3H24v-0.6c-0.2,0.2-0.4,0.4-0.6,0.5c-0.3,0.1-0.6,0.2-0.9,0.2c-0.4,0-0.7-0.1-1-0.3c-0.3-0.2-0.5-0.5-0.7-0.8s-0.3-0.7-0.3-1.2
		S20.6,14.5,20.8,14.2z M23.8,14.6c-0.1-0.2-0.3-0.4-0.5-0.5c-0.2-0.1-0.4-0.2-0.6-0.2s-0.4,0.1-0.6,0.2c-0.2,0.1-0.4,0.3-0.5,0.5
		c-0.1,0.2-0.2,0.5-0.2,0.8s0.1,0.6,0.2,0.8c0.1,0.2,0.3,0.4,0.5,0.5s0.4,0.2,0.6,0.2c0.2,0,0.4-0.1,0.6-0.2
		c0.2-0.1,0.4-0.3,0.5-0.5c0.1-0.2,0.2-0.5,0.2-0.8S24,14.8,23.8,14.6z"/>
	<path class="st0" d="M27.1,14v2.4c0,0.2,0,0.3,0.1,0.3c0.1,0.1,0.2,0.1,0.4,0.1h0.5v0.7h-0.7c-0.4,0-0.7-0.1-0.9-0.3
		c-0.2-0.2-0.3-0.5-0.3-0.9V14h-0.5v-0.7h0.5v-1.1h0.9v1.1h1V14H27.1z"/>
	<path class="st0" d="M30.4,13.3c0.2-0.1,0.5-0.2,0.8-0.2v0.9h-0.2c-0.3,0-0.6,0.1-0.8,0.3s-0.3,0.5-0.3,0.9v2.3H29v-4.3h0.9v0.6
		C30,13.6,30.1,13.5,30.4,13.3z"/>
	<path class="st0" d="M32,12.5c-0.1-0.1-0.2-0.2-0.2-0.4c0-0.2,0.1-0.3,0.2-0.4c0.1-0.1,0.2-0.2,0.4-0.2c0.2,0,0.3,0.1,0.4,0.2
		s0.2,0.2,0.2,0.4c0,0.2-0.1,0.3-0.2,0.4c-0.1,0.1-0.2,0.2-0.4,0.2C32.2,12.7,32.1,12.6,32,12.5z M32.8,13.2v4.3h-0.9v-4.3H32.8z"/>
	<path class="st0" d="M34,14.2c0.2-0.3,0.4-0.6,0.7-0.8c0.3-0.2,0.7-0.3,1.1-0.3c0.5,0,0.9,0.1,1.3,0.4c0.3,0.2,0.6,0.6,0.7,1.1h-1
		c-0.1-0.2-0.2-0.4-0.4-0.5c-0.2-0.1-0.4-0.2-0.6-0.2c-0.4,0-0.7,0.1-0.9,0.4c-0.2,0.3-0.3,0.6-0.3,1.1c0,0.5,0.1,0.8,0.3,1.1
		c0.2,0.3,0.5,0.4,0.9,0.4c0.5,0,0.9-0.2,1-0.7h1c-0.1,0.4-0.4,0.8-0.7,1c-0.3,0.3-0.8,0.4-1.3,0.4c-0.4,0-0.8-0.1-1.1-0.3
		c-0.3-0.2-0.6-0.4-0.7-0.8c-0.2-0.3-0.3-0.7-0.3-1.2S33.8,14.5,34,14.2z"/>
	<path class="st0" d="M38.7,12.5c-0.1-0.1-0.2-0.2-0.2-0.4c0-0.2,0.1-0.3,0.2-0.4c0.1-0.1,0.2-0.2,0.4-0.2c0.2,0,0.3,0.1,0.4,0.2
		s0.2,0.2,0.2,0.4c0,0.2-0.1,0.3-0.2,0.4c-0.1,0.1-0.2,0.2-0.4,0.2C38.9,12.7,38.8,12.6,38.7,12.5z M39.5,13.2v4.3h-0.9v-4.3H39.5z"
		/>
	<path class="st0" d="M40.7,14.2c0.2-0.3,0.4-0.6,0.7-0.8s0.6-0.3,1-0.3c0.3,0,0.6,0.1,0.9,0.2c0.3,0.1,0.5,0.3,0.6,0.5v-0.6h0.9
		v4.3h-0.9v-0.6c-0.2,0.2-0.4,0.4-0.6,0.5c-0.3,0.1-0.6,0.2-0.9,0.2c-0.4,0-0.7-0.1-1-0.3c-0.3-0.2-0.5-0.5-0.7-0.8
		s-0.3-0.7-0.3-1.2S40.5,14.5,40.7,14.2z M43.7,14.6c-0.1-0.2-0.3-0.4-0.5-0.5c-0.2-0.1-0.4-0.2-0.6-0.2S42.2,14,42,14.1
		c-0.2,0.1-0.4,0.3-0.5,0.5c-0.1,0.2-0.2,0.5-0.2,0.8s0.1,0.6,0.2,0.8c0.1,0.2,0.3,0.4,0.5,0.5s0.4,0.2,0.6,0.2
		c0.2,0,0.4-0.1,0.6-0.2c0.2-0.1,0.4-0.3,0.5-0.5c0.1-0.2,0.2-0.5,0.2-0.8S43.8,14.8,43.7,14.6z"/>
	<path class="st0" d="M49,13.4c0.3,0.1,0.5,0.3,0.6,0.6c0.1,0.3,0.2,0.6,0.2,1v2.5H49v-2.4c0-0.4-0.1-0.7-0.3-0.9
		c-0.2-0.2-0.5-0.3-0.8-0.3s-0.6,0.1-0.8,0.3c-0.2,0.2-0.3,0.5-0.3,0.9v2.4h-0.9v-4.3h0.9v0.5c0.1-0.2,0.3-0.3,0.6-0.4
		c0.2-0.1,0.5-0.1,0.7-0.1C48.4,13.2,48.7,13.2,49,13.4z"/>
</g>
</svg>
