<!-- Generator: Adobe Illustrator 25.0.0, SVG Export Plug-In  -->
<svg version="1.1" xmlns="http://www.w3.org/2000/svg" xmlns:xlink="http://www.w3.org/1999/xlink" x="0px" y="0px" width="102.2px"
	 height="60.5px" viewBox="0 0 102.2 60.5" style="overflow:visible;enable-background:new 0 0 102.2 60.5;" xml:space="preserve">
<style type="text/css">
	.st0{fill:#0078FF;}
</style>
<defs>
</defs>
<g>
	<path class="st0" d="M6.2,3.9C6,4.3,5.7,4.6,5.2,4.9c-0.5,0.2-1,0.4-1.7,0.4H1.9v3.5H0.5V0.1h3c0.7,0,1.2,0.1,1.7,0.3
		C5.6,0.7,6,1,6.2,1.4c0.2,0.4,0.3,0.8,0.3,1.3C6.5,3.1,6.4,3.5,6.2,3.9z M4.7,3.7c0.3-0.2,0.4-0.6,0.4-1c0-0.9-0.5-1.4-1.6-1.4H1.9
		v2.8h1.6C4,4.1,4.4,4,4.7,3.7z"/>
	<path class="st0" d="M12.3,8.7l-2-3.4H9.3v3.4H7.9V0.1h3c0.7,0,1.2,0.1,1.7,0.3c0.5,0.2,0.8,0.5,1,0.9c0.2,0.4,0.3,0.8,0.3,1.3
		c0,0.6-0.2,1.1-0.5,1.5c-0.3,0.5-0.8,0.8-1.5,0.9L14,8.7H12.3z M9.3,4.2h1.6c0.5,0,0.9-0.1,1.2-0.4s0.4-0.6,0.4-1.1s-0.1-0.8-0.4-1
		c-0.3-0.3-0.7-0.4-1.2-0.4H9.3V4.2z"/>
	<path class="st0" d="M17.4,8.2c-0.7-0.4-1.2-0.9-1.6-1.6c-0.4-0.7-0.6-1.4-0.6-2.3c0-0.8,0.2-1.6,0.6-2.3s0.9-1.2,1.6-1.6
		C18.1,0.2,18.8,0,19.6,0c0.8,0,1.6,0.2,2.2,0.6s1.2,0.9,1.6,1.6C23.8,2.8,24,3.6,24,4.4c0,0.8-0.2,1.6-0.6,2.3
		c-0.4,0.7-0.9,1.2-1.6,1.6s-1.4,0.6-2.2,0.6C18.8,8.8,18.1,8.6,17.4,8.2z M21.2,7.2c0.4-0.3,0.8-0.6,1-1.1c0.3-0.5,0.4-1,0.4-1.7
		c0-0.6-0.1-1.2-0.4-1.7c-0.3-0.5-0.6-0.8-1-1.1c-0.4-0.3-1-0.4-1.5-0.4c-0.6,0-1.1,0.1-1.5,0.4c-0.4,0.3-0.8,0.6-1,1.1
		c-0.3,0.5-0.4,1-0.4,1.7c0,0.6,0.1,1.2,0.4,1.7c0.3,0.5,0.6,0.9,1,1.1c0.4,0.3,1,0.4,1.5,0.4C20.2,7.6,20.7,7.5,21.2,7.2z"/>
	<path class="st0" d="M32.8,0.1l-3.2,8.6H28l-3.2-8.6h1.5l2.6,7.2l2.6-7.2H32.8z"/>
	<path class="st0" d="M35.7,8.2c-0.7-0.4-1.2-0.9-1.6-1.6c-0.4-0.7-0.6-1.4-0.6-2.3c0-0.8,0.2-1.6,0.6-2.3s0.9-1.2,1.6-1.6
		C36.4,0.2,37.1,0,37.9,0c0.8,0,1.6,0.2,2.2,0.6s1.2,0.9,1.6,1.6c0.4,0.7,0.6,1.4,0.6,2.3c0,0.8-0.2,1.6-0.6,2.3
		c-0.4,0.7-0.9,1.2-1.6,1.6s-1.4,0.6-2.2,0.6C37.1,8.8,36.4,8.6,35.7,8.2z M39.5,7.2c0.4-0.3,0.8-0.6,1-1.1c0.3-0.5,0.4-1,0.4-1.7
		c0-0.6-0.1-1.2-0.4-1.7c-0.3-0.5-0.6-0.8-1-1.1c-0.4-0.3-1-0.4-1.5-0.4c-0.6,0-1.1,0.1-1.5,0.4c-0.4,0.3-0.8,0.6-1,1.1
		c-0.3,0.5-0.4,1-0.4,1.7c0,0.6,0.1,1.2,0.4,1.7c0.3,0.5,0.6,0.9,1,1.1c0.4,0.3,1,0.4,1.5,0.4C38.5,7.6,39,7.5,39.5,7.2z"/>
	<path class="st0" d="M45.3,7l-1.5,3.4h-0.9L43.7,7H45.3z"/>
	<path class="st0" d="M51.1,0.1v5.5c0,0.7,0.2,1.1,0.5,1.5s0.8,0.5,1.4,0.5c0.6,0,1.1-0.2,1.4-0.5C54.9,6.7,55,6.3,55,5.6V0.1h1.4
		v5.5c0,0.7-0.2,1.3-0.5,1.8s-0.7,0.9-1.2,1.1c-0.5,0.2-1.1,0.4-1.7,0.4s-1.2-0.1-1.7-0.4s-0.9-0.6-1.2-1.1
		c-0.3-0.5-0.4-1.1-0.4-1.8V0.1H51.1z"/>
	<path class="st0" d="M63.8,0.1v1.2h-2.3v7.5h-1.4V1.3h-2.3V0.1H63.8z"/>
	<path class="st0" d="M0.2,16.3C0.1,16.2,0,16,0,15.9s0.1-0.3,0.2-0.4c0.1-0.1,0.3-0.2,0.4-0.2c0.2,0,0.3,0.1,0.4,0.2
		c0.1,0.1,0.2,0.3,0.2,0.4S1.1,16.2,1,16.3c-0.1,0.1-0.3,0.2-0.4,0.2C0.4,16.5,0.3,16.4,0.2,16.3z"/>
	<path class="st0" d="M9.1,18.6H8.1l-2.8-4.3v4.3H4.4v-5.7h0.9l2.8,4.3v-4.3h0.9V18.6z"/>
	<path class="st0" d="M14.4,14.1v4.6h-0.9v-0.5c-0.1,0.2-0.3,0.3-0.6,0.4s-0.5,0.2-0.8,0.2c-0.4,0-0.7-0.1-1-0.2
		c-0.3-0.1-0.5-0.4-0.7-0.7c-0.2-0.3-0.2-0.6-0.2-1.1v-2.7h0.9v2.5c0,0.4,0.1,0.7,0.3,0.9c0.2,0.2,0.5,0.3,0.8,0.3s0.6-0.1,0.8-0.3
		c0.2-0.2,0.3-0.5,0.3-0.9v-2.5H14.4z"/>
	<path class="st0" d="M17.2,14.2c0.2-0.1,0.5-0.2,0.8-0.2v1h-0.2c-0.4,0-0.6,0.1-0.8,0.3c-0.2,0.2-0.3,0.5-0.3,1v2.4h-0.9v-4.6h0.9
		v0.7C16.7,14.5,16.9,14.3,17.2,14.2z"/>
	<path class="st0" d="M19.5,18.5c-0.3-0.1-0.5-0.3-0.7-0.5s-0.3-0.5-0.3-0.7h1c0,0.2,0.1,0.4,0.3,0.5c0.2,0.1,0.4,0.2,0.6,0.2
		c0.3,0,0.5-0.1,0.6-0.2c0.1-0.1,0.2-0.2,0.2-0.4c0-0.2-0.1-0.3-0.2-0.4c-0.2-0.1-0.4-0.2-0.8-0.3c-0.3-0.1-0.6-0.2-0.8-0.3
		c-0.2-0.1-0.4-0.2-0.6-0.4c-0.2-0.2-0.2-0.4-0.2-0.7c0-0.2,0.1-0.5,0.2-0.7c0.1-0.2,0.3-0.4,0.6-0.5c0.3-0.1,0.6-0.2,0.9-0.2
		c0.5,0,0.9,0.1,1.3,0.4s0.5,0.6,0.5,1.1h-0.9c0-0.2-0.1-0.4-0.2-0.5s-0.3-0.2-0.6-0.2c-0.2,0-0.4,0-0.6,0.1
		c-0.1,0.1-0.2,0.2-0.2,0.4c0,0.1,0,0.2,0.1,0.3c0.1,0.1,0.2,0.1,0.3,0.2c0.1,0,0.3,0.1,0.6,0.2c0.3,0.1,0.6,0.2,0.8,0.3
		c0.2,0.1,0.4,0.2,0.5,0.4c0.2,0.2,0.2,0.4,0.2,0.7c0,0.3-0.1,0.5-0.2,0.7c-0.1,0.2-0.3,0.4-0.6,0.5c-0.3,0.1-0.6,0.2-0.9,0.2
		C20.1,18.7,19.8,18.6,19.5,18.5z"/>
	<path class="st0" d="M27.4,16.7h-3.5c0,0.4,0.2,0.7,0.4,0.9c0.2,0.2,0.5,0.3,0.9,0.3c0.5,0,0.9-0.2,1.1-0.6h1
		c-0.1,0.4-0.4,0.8-0.7,1s-0.8,0.4-1.3,0.4c-0.4,0-0.8-0.1-1.2-0.3s-0.6-0.5-0.8-0.8s-0.3-0.8-0.3-1.2s0.1-0.9,0.3-1.2
		c0.2-0.4,0.5-0.6,0.8-0.8s0.7-0.3,1.2-0.3c0.4,0,0.8,0.1,1.1,0.3c0.3,0.2,0.6,0.5,0.8,0.8c0.2,0.3,0.3,0.7,0.3,1.2
		C27.4,16.4,27.4,16.6,27.4,16.7z M26.4,15.9c0-0.3-0.1-0.6-0.4-0.8c-0.2-0.2-0.5-0.3-0.9-0.3c-0.3,0-0.6,0.1-0.8,0.3
		s-0.4,0.5-0.4,0.8H26.4z"/>
	<path class="st0" d="M31.4,13.7v1.7h2v0.8h-2v1.8h2.2v0.8h-3.2v-5.7h3.2v0.8H31.4z"/>
	<path class="st0" d="M34.8,15.1c0.2-0.4,0.4-0.6,0.8-0.8c0.3-0.2,0.7-0.3,1.1-0.3c0.3,0,0.6,0.1,0.9,0.2c0.3,0.1,0.5,0.3,0.7,0.5
		v-2.2h1v6.1h-1v-0.7c-0.2,0.2-0.4,0.4-0.6,0.5c-0.3,0.1-0.6,0.2-0.9,0.2c-0.4,0-0.8-0.1-1.1-0.3c-0.3-0.2-0.6-0.5-0.8-0.8
		c-0.2-0.4-0.3-0.8-0.3-1.2S34.6,15.5,34.8,15.1z M38,15.5c-0.1-0.2-0.3-0.4-0.5-0.5s-0.4-0.2-0.7-0.2s-0.5,0.1-0.7,0.2
		s-0.4,0.3-0.5,0.5c-0.1,0.2-0.2,0.5-0.2,0.8s0.1,0.6,0.2,0.8c0.1,0.2,0.3,0.4,0.5,0.5c0.2,0.1,0.4,0.2,0.7,0.2
		c0.2,0,0.5-0.1,0.7-0.2s0.4-0.3,0.5-0.5c0.1-0.2,0.2-0.5,0.2-0.8C38.2,16,38.2,15.8,38,15.5z"/>
	<path class="st0" d="M44.5,14.1v4.6h-0.9v-0.5c-0.1,0.2-0.3,0.3-0.6,0.4s-0.5,0.2-0.8,0.2c-0.4,0-0.7-0.1-1-0.2
		c-0.3-0.1-0.5-0.4-0.7-0.7c-0.2-0.3-0.2-0.6-0.2-1.1v-2.7h0.9v2.5c0,0.4,0.1,0.7,0.3,0.9c0.2,0.2,0.5,0.3,0.8,0.3s0.6-0.1,0.8-0.3
		c0.2-0.2,0.3-0.5,0.3-0.9v-2.5H44.5z"/>
	<path class="st0" d="M45.8,15.1c0.2-0.4,0.5-0.6,0.8-0.8s0.7-0.3,1.2-0.3c0.6,0,1,0.1,1.4,0.4s0.6,0.6,0.7,1.1h-1
		c-0.1-0.2-0.2-0.4-0.4-0.5c-0.2-0.1-0.4-0.2-0.7-0.2c-0.4,0-0.7,0.1-0.9,0.4c-0.2,0.3-0.3,0.7-0.3,1.1s0.1,0.9,0.3,1.1
		s0.5,0.4,0.9,0.4c0.5,0,0.9-0.2,1.1-0.7h1c-0.1,0.5-0.4,0.8-0.7,1.1c-0.4,0.3-0.8,0.4-1.4,0.4c-0.4,0-0.8-0.1-1.2-0.3
		s-0.6-0.5-0.8-0.8c-0.2-0.4-0.3-0.8-0.3-1.2S45.6,15.5,45.8,15.1z"/>
	<path class="st0" d="M50.7,15.1c0.2-0.4,0.4-0.6,0.8-0.8c0.3-0.2,0.7-0.3,1.1-0.3c0.4,0,0.7,0.1,0.9,0.2c0.3,0.1,0.5,0.3,0.6,0.5
		v-0.7h1v4.6h-1V18c-0.2,0.2-0.4,0.4-0.7,0.5c-0.3,0.1-0.6,0.2-0.9,0.2c-0.4,0-0.7-0.1-1.1-0.3c-0.3-0.2-0.6-0.5-0.8-0.8
		c-0.2-0.4-0.3-0.8-0.3-1.2S50.5,15.5,50.7,15.1z M54,15.5c-0.1-0.2-0.3-0.4-0.5-0.5s-0.4-0.2-0.7-0.2s-0.5,0.1-0.7,0.2
		s-0.4,0.3-0.5,0.5c-0.1,0.2-0.2,0.5-0.2,0.8s0.1,0.6,0.2,0.8c0.1,0.2,0.3,0.4,0.5,0.5c0.2,0.1,0.4,0.2,0.7,0.2
		c0.2,0,0.5-0.1,0.7-0.2s0.4-0.3,0.5-0.5c0.1-0.2,0.2-0.5,0.2-0.8C54.1,16,54.1,15.8,54,15.5z"/>
	<path class="st0" d="M57.4,14.9v2.5c0,0.2,0,0.3,0.1,0.4c0.1,0.1,0.2,0.1,0.4,0.1h0.6v0.8h-0.7c-0.4,0-0.7-0.1-1-0.3
		s-0.3-0.5-0.3-1v-2.5h-0.5v-0.8h0.5V13h0.9v1.1h1.1v0.8H57.4z"/>
	<path class="st0" d="M60.2,18.4c-0.3-0.2-0.6-0.5-0.8-0.8s-0.3-0.8-0.3-1.2c0-0.5,0.1-0.9,0.3-1.2c0.2-0.4,0.5-0.6,0.8-0.8
		c0.4-0.2,0.7-0.3,1.2-0.3c0.4,0,0.8,0.1,1.2,0.3s0.6,0.5,0.8,0.8c0.2,0.4,0.3,0.8,0.3,1.2c0,0.5-0.1,0.9-0.3,1.2
		c-0.2,0.4-0.5,0.6-0.9,0.8c-0.4,0.2-0.8,0.3-1.2,0.3C61,18.7,60.6,18.6,60.2,18.4z M62.1,17.7c0.2-0.1,0.4-0.3,0.5-0.5
		c0.1-0.2,0.2-0.5,0.2-0.8s-0.1-0.6-0.2-0.8c-0.1-0.2-0.3-0.4-0.5-0.5c-0.2-0.1-0.4-0.2-0.7-0.2s-0.5,0.1-0.7,0.2
		c-0.2,0.1-0.4,0.3-0.5,0.5s-0.2,0.5-0.2,0.8c0,0.5,0.1,0.9,0.4,1.1c0.3,0.3,0.6,0.4,0.9,0.4C61.6,17.9,61.8,17.8,62.1,17.7z"/>
	<path class="st0" d="M66.2,14.2c0.2-0.1,0.5-0.2,0.8-0.2v1h-0.2c-0.4,0-0.6,0.1-0.8,0.3c-0.2,0.2-0.3,0.5-0.3,1v2.4h-0.9v-4.6h0.9
		v0.7C65.8,14.5,65.9,14.3,66.2,14.2z"/>
	<path class="st0" d="M0.2,26.2C0.1,26.1,0,25.9,0,25.8s0.1-0.3,0.2-0.4c0.1-0.1,0.3-0.2,0.4-0.2c0.2,0,0.3,0.1,0.4,0.2
		c0.1,0.1,0.2,0.3,0.2,0.4S1.1,26.1,1,26.2c-0.1,0.1-0.3,0.2-0.4,0.2C0.4,26.4,0.3,26.3,0.2,26.2z"/>
	<path class="st0" d="M9.1,28.5H8.1l-2.8-4.3v4.3H4.4v-5.7h0.9l2.8,4.3v-4.3h0.9V28.5z"/>
	<path class="st0" d="M14.4,24v4.6h-0.9V28c-0.1,0.2-0.3,0.3-0.6,0.4s-0.5,0.2-0.8,0.2c-0.4,0-0.7-0.1-1-0.2
		c-0.3-0.1-0.5-0.4-0.7-0.7c-0.2-0.3-0.2-0.6-0.2-1.1V24h0.9v2.5c0,0.4,0.1,0.7,0.3,0.9c0.2,0.2,0.5,0.3,0.8,0.3s0.6-0.1,0.8-0.3
		c0.2-0.2,0.3-0.5,0.3-0.9V24H14.4z"/>
	<path class="st0" d="M17.2,24.1c0.2-0.1,0.5-0.2,0.8-0.2v1h-0.2c-0.4,0-0.6,0.1-0.8,0.3c-0.2,0.2-0.3,0.5-0.3,1v2.4h-0.9V24h0.9
		v0.7C16.7,24.4,16.9,24.2,17.2,24.1z"/>
	<path class="st0" d="M19.5,28.4c-0.3-0.1-0.5-0.3-0.7-0.5s-0.3-0.5-0.3-0.7h1c0,0.2,0.1,0.4,0.3,0.5c0.2,0.1,0.4,0.2,0.6,0.2
		c0.3,0,0.5-0.1,0.6-0.2c0.1-0.1,0.2-0.2,0.2-0.4c0-0.2-0.1-0.3-0.2-0.4c-0.2-0.1-0.4-0.2-0.8-0.3c-0.3-0.1-0.6-0.2-0.8-0.3
		c-0.2-0.1-0.4-0.2-0.6-0.4c-0.2-0.2-0.2-0.4-0.2-0.7c0-0.2,0.1-0.5,0.2-0.7c0.1-0.2,0.3-0.4,0.6-0.5c0.3-0.1,0.6-0.2,0.9-0.2
		c0.5,0,0.9,0.1,1.3,0.4s0.5,0.6,0.5,1.1h-0.9c0-0.2-0.1-0.4-0.2-0.5s-0.3-0.2-0.6-0.2c-0.2,0-0.4,0-0.6,0.1
		c-0.1,0.1-0.2,0.2-0.2,0.4c0,0.1,0,0.2,0.1,0.3c0.1,0.1,0.2,0.1,0.3,0.2c0.1,0,0.3,0.1,0.6,0.2c0.3,0.1,0.6,0.2,0.8,0.3
		c0.2,0.1,0.4,0.2,0.5,0.4c0.2,0.2,0.2,0.4,0.2,0.7c0,0.3-0.1,0.5-0.2,0.7c-0.1,0.2-0.3,0.4-0.6,0.5c-0.3,0.1-0.6,0.2-0.9,0.2
		C20.1,28.6,19.8,28.6,19.5,28.4z"/>
	<path class="st0" d="M27.4,26.6h-3.5c0,0.4,0.2,0.7,0.4,0.9c0.2,0.2,0.5,0.3,0.9,0.3c0.5,0,0.9-0.2,1.1-0.6h1
		c-0.1,0.4-0.4,0.8-0.7,1s-0.8,0.4-1.3,0.4c-0.4,0-0.8-0.1-1.2-0.3s-0.6-0.5-0.8-0.8s-0.3-0.8-0.3-1.2s0.1-0.9,0.3-1.2
		c0.2-0.4,0.5-0.6,0.8-0.8s0.7-0.3,1.2-0.3c0.4,0,0.8,0.1,1.1,0.3c0.3,0.2,0.6,0.5,0.8,0.8c0.2,0.3,0.3,0.7,0.3,1.2
		C27.4,26.3,27.4,26.5,27.4,26.6z M26.4,25.9c0-0.3-0.1-0.6-0.4-0.8c-0.2-0.2-0.5-0.3-0.9-0.3c-0.3,0-0.6,0.1-0.8,0.3
		s-0.4,0.5-0.4,0.8H26.4z"/>
	<path class="st0" d="M34.3,25.3c-0.1,0.3-0.4,0.5-0.7,0.6c-0.3,0.2-0.7,0.2-1.2,0.2h-1v2.3h-0.9v-5.7h2c0.4,0,0.8,0.1,1.1,0.2
		s0.5,0.4,0.7,0.6s0.2,0.5,0.2,0.9C34.5,24.8,34.4,25.1,34.3,25.3z M33.3,25.2c0.2-0.2,0.3-0.4,0.3-0.7c0-0.6-0.4-0.9-1.1-0.9h-1
		v1.9h1C32.8,25.4,33.1,25.4,33.3,25.2z"/>
	<path class="st0" d="M36.9,24.1c0.2-0.1,0.5-0.2,0.8-0.2v1h-0.2c-0.4,0-0.6,0.1-0.8,0.3c-0.2,0.2-0.3,0.5-0.3,1v2.4h-0.9V24h0.9
		v0.7C36.5,24.4,36.7,24.2,36.9,24.1z"/>
	<path class="st0" d="M38.5,25c0.2-0.4,0.4-0.6,0.8-0.8c0.3-0.2,0.7-0.3,1.1-0.3c0.4,0,0.7,0.1,0.9,0.2c0.3,0.1,0.5,0.3,0.6,0.5V24
		h1v4.6h-1v-0.7c-0.2,0.2-0.4,0.4-0.7,0.5c-0.3,0.1-0.6,0.2-0.9,0.2c-0.4,0-0.7-0.1-1.1-0.3c-0.3-0.2-0.6-0.5-0.8-0.8
		c-0.2-0.4-0.3-0.8-0.3-1.2S38.4,25.4,38.5,25z M41.8,25.4c-0.1-0.2-0.3-0.4-0.5-0.5s-0.4-0.2-0.7-0.2s-0.5,0.1-0.7,0.2
		s-0.4,0.3-0.5,0.5c-0.1,0.2-0.2,0.5-0.2,0.8s0.1,0.6,0.2,0.8c0.1,0.2,0.3,0.4,0.5,0.5c0.2,0.1,0.4,0.2,0.7,0.2
		c0.2,0,0.5-0.1,0.7-0.2s0.4-0.3,0.5-0.5c0.1-0.2,0.2-0.5,0.2-0.8C42,26,41.9,25.7,41.8,25.4z"/>
	<path class="st0" d="M44.1,25c0.2-0.4,0.5-0.6,0.8-0.8s0.7-0.3,1.2-0.3c0.6,0,1,0.1,1.4,0.4s0.6,0.6,0.7,1.1h-1
		c-0.1-0.2-0.2-0.4-0.4-0.5c-0.2-0.1-0.4-0.2-0.7-0.2c-0.4,0-0.7,0.1-0.9,0.4c-0.2,0.3-0.3,0.7-0.3,1.1s0.1,0.9,0.3,1.1
		s0.5,0.4,0.9,0.4c0.5,0,0.9-0.2,1.1-0.7h1c-0.1,0.5-0.4,0.8-0.7,1.1c-0.4,0.3-0.8,0.4-1.4,0.4c-0.4,0-0.8-0.1-1.2-0.3
		s-0.6-0.5-0.8-0.8c-0.2-0.4-0.3-0.8-0.3-1.2S44,25.4,44.1,25z"/>
	<path class="st0" d="M50.2,24.8v2.5c0,0.2,0,0.3,0.1,0.4c0.1,0.1,0.2,0.1,0.4,0.1h0.6v0.8h-0.7c-0.4,0-0.7-0.1-1-0.3
		s-0.3-0.5-0.3-1v-2.5h-0.5V24h0.5v-1.1h0.9V24h1.1v0.8H50.2z"/>
	<path class="st0" d="M52.3,23.2c-0.1-0.1-0.2-0.3-0.2-0.4c0-0.2,0.1-0.3,0.2-0.4c0.1-0.1,0.3-0.2,0.4-0.2c0.2,0,0.3,0.1,0.4,0.2
		c0.1,0.1,0.2,0.3,0.2,0.4c0,0.2-0.1,0.3-0.2,0.4c-0.1,0.1-0.3,0.2-0.4,0.2C52.5,23.4,52.4,23.3,52.3,23.2z M53.1,24v4.6h-0.9V24
		H53.1z"/>
	<path class="st0" d="M55.5,24.8v2.5c0,0.2,0,0.3,0.1,0.4c0.1,0.1,0.2,0.1,0.4,0.1h0.6v0.8h-0.7c-0.4,0-0.7-0.1-1-0.3
		s-0.3-0.5-0.3-1v-2.5H54V24h0.5v-1.1h0.9V24h1.1v0.8H55.5z"/>
	<path class="st0" d="M57.5,23.2c-0.1-0.1-0.2-0.3-0.2-0.4c0-0.2,0.1-0.3,0.2-0.4c0.1-0.1,0.3-0.2,0.4-0.2c0.2,0,0.3,0.1,0.4,0.2
		c0.1,0.1,0.2,0.3,0.2,0.4c0,0.2-0.1,0.3-0.2,0.4c-0.1,0.1-0.3,0.2-0.4,0.2C57.8,23.4,57.6,23.3,57.5,23.2z M58.4,24v4.6h-0.9V24
		H58.4z"/>
	<path class="st0" d="M60.4,28.3c-0.3-0.2-0.6-0.5-0.8-0.8s-0.3-0.8-0.3-1.2c0-0.5,0.1-0.9,0.3-1.2c0.2-0.4,0.5-0.6,0.8-0.8
		c0.4-0.2,0.7-0.3,1.2-0.3c0.4,0,0.8,0.1,1.2,0.3s0.6,0.5,0.8,0.8c0.2,0.4,0.3,0.8,0.3,1.2c0,0.5-0.1,0.9-0.3,1.2
		c-0.2,0.4-0.5,0.6-0.9,0.8c-0.4,0.2-0.8,0.3-1.2,0.3C61.2,28.6,60.8,28.5,60.4,28.3z M62.3,27.6c0.2-0.1,0.4-0.3,0.5-0.5
		c0.1-0.2,0.2-0.5,0.2-0.8s-0.1-0.6-0.2-0.8c-0.1-0.2-0.3-0.4-0.5-0.5c-0.2-0.1-0.4-0.2-0.7-0.2s-0.5,0.1-0.7,0.2
		c-0.2,0.1-0.4,0.3-0.5,0.5s-0.2,0.5-0.2,0.8c0,0.5,0.1,0.9,0.4,1.1c0.3,0.3,0.6,0.4,0.9,0.4C61.9,27.8,62.1,27.7,62.3,27.6z"/>
	<path class="st0" d="M68.2,24.1c0.3,0.1,0.5,0.4,0.7,0.7c0.2,0.3,0.2,0.6,0.2,1.1v2.7h-0.9V26c0-0.4-0.1-0.7-0.3-0.9
		c-0.2-0.2-0.5-0.3-0.8-0.3s-0.6,0.1-0.8,0.3c-0.2,0.2-0.3,0.5-0.3,0.9v2.5h-0.9V24h0.9v0.5c0.2-0.2,0.4-0.3,0.6-0.4
		s0.5-0.2,0.8-0.2C67.6,23.9,67.9,24,68.2,24.1z"/>
	<path class="st0" d="M74.4,26.6h-3.5c0,0.4,0.2,0.7,0.4,0.9c0.2,0.2,0.5,0.3,0.9,0.3c0.5,0,0.9-0.2,1.1-0.6h1
		c-0.1,0.4-0.4,0.8-0.7,1s-0.8,0.4-1.3,0.4c-0.4,0-0.8-0.1-1.2-0.3s-0.6-0.5-0.8-0.8S70,26.7,70,26.3s0.1-0.9,0.3-1.2
		c0.2-0.4,0.5-0.6,0.8-0.8s0.7-0.3,1.2-0.3c0.4,0,0.8,0.1,1.1,0.3c0.3,0.2,0.6,0.5,0.8,0.8c0.2,0.3,0.3,0.7,0.3,1.2
		C74.4,26.3,74.4,26.5,74.4,26.6z M73.5,25.9c0-0.3-0.1-0.6-0.4-0.8c-0.2-0.2-0.5-0.3-0.9-0.3c-0.3,0-0.6,0.1-0.8,0.3
		s-0.4,0.5-0.4,0.8H73.5z"/>
	<path class="st0" d="M76.9,24.1c0.2-0.1,0.5-0.2,0.8-0.2v1h-0.2c-0.4,0-0.6,0.1-0.8,0.3c-0.2,0.2-0.3,0.5-0.3,1v2.4h-0.9V24h0.9
		v0.7C76.4,24.4,76.6,24.2,76.9,24.1z"/>
	<path class="st0" d="M0.2,36.1C0.1,36,0,35.9,0,35.7s0.1-0.3,0.2-0.4c0.1-0.1,0.3-0.2,0.4-0.2c0.2,0,0.3,0.1,0.4,0.2
		c0.1,0.1,0.2,0.3,0.2,0.4S1.1,36,1,36.1c-0.1,0.1-0.3,0.2-0.4,0.2C0.4,36.3,0.3,36.2,0.2,36.1z"/>
	<path class="st0" d="M8.2,35.3c-0.1,0.3-0.4,0.5-0.7,0.6c-0.3,0.2-0.7,0.2-1.2,0.2h-1v2.3H4.4v-5.7h2c0.4,0,0.8,0.1,1.1,0.2
		s0.5,0.4,0.7,0.6s0.2,0.5,0.2,0.9C8.4,34.7,8.3,35,8.2,35.3z M7.1,35.1c0.2-0.2,0.3-0.4,0.3-0.7c0-0.6-0.4-0.9-1.1-0.9h-1v1.9h1
		C6.7,35.4,7,35.3,7.1,35.1z"/>
	<path class="st0" d="M12.5,34.1c0.3,0.1,0.5,0.4,0.6,0.7c0.2,0.3,0.2,0.6,0.2,1.1v2.7h-0.9v-2.5c0-0.4-0.1-0.7-0.3-0.9
		c-0.2-0.2-0.5-0.3-0.8-0.3s-0.6,0.1-0.8,0.3c-0.2,0.2-0.3,0.5-0.3,0.9v2.5H9.3v-6.1h0.9v2.1c0.2-0.2,0.4-0.3,0.6-0.4
		s0.5-0.2,0.8-0.2C12,33.8,12.3,33.9,12.5,34.1z"/>
	<path class="st0" d="M14.6,34.9c0.2-0.4,0.4-0.6,0.8-0.8c0.3-0.2,0.7-0.3,1.1-0.3c0.4,0,0.7,0.1,0.9,0.2c0.3,0.1,0.5,0.3,0.6,0.5
		v-0.7h1v4.6h-1v-0.7c-0.2,0.2-0.4,0.4-0.7,0.5c-0.3,0.1-0.6,0.2-0.9,0.2c-0.4,0-0.7-0.1-1.1-0.3c-0.3-0.2-0.6-0.5-0.8-0.8
		c-0.2-0.4-0.3-0.8-0.3-1.2S14.4,35.3,14.6,34.9z M17.8,35.4c-0.1-0.2-0.3-0.4-0.5-0.5s-0.4-0.2-0.7-0.2s-0.5,0.1-0.7,0.2
		s-0.4,0.3-0.5,0.5c-0.1,0.2-0.2,0.5-0.2,0.8s0.1,0.6,0.2,0.8c0.1,0.2,0.3,0.4,0.5,0.5c0.2,0.1,0.4,0.2,0.7,0.2
		c0.2,0,0.5-0.1,0.7-0.2s0.4-0.3,0.5-0.5c0.1-0.2,0.2-0.5,0.2-0.8C18,35.9,18,35.6,17.8,35.4z"/>
	<path class="st0" d="M21.7,34c0.2-0.1,0.5-0.2,0.8-0.2v1h-0.2c-0.4,0-0.6,0.1-0.8,0.3c-0.2,0.2-0.3,0.5-0.3,1v2.4h-0.9v-4.6h0.9
		v0.7C21.3,34.3,21.5,34.2,21.7,34z"/>
	<path class="st0" d="M29.9,34.1c0.3,0.1,0.5,0.4,0.7,0.7c0.2,0.3,0.2,0.6,0.2,1.1v2.7h-0.9v-2.5c0-0.4-0.1-0.7-0.3-0.9
		c-0.2-0.2-0.5-0.3-0.8-0.3s-0.6,0.1-0.8,0.3c-0.2,0.2-0.3,0.5-0.3,0.9v2.5h-0.9v-2.5c0-0.4-0.1-0.7-0.3-0.9
		c-0.2-0.2-0.5-0.3-0.8-0.3s-0.6,0.1-0.8,0.3c-0.2,0.2-0.3,0.5-0.3,0.9v2.5h-0.9v-4.6h0.9v0.5c0.2-0.2,0.3-0.3,0.6-0.4
		c0.2-0.1,0.5-0.2,0.8-0.2c0.4,0,0.7,0.1,1,0.2s0.5,0.4,0.7,0.7c0.1-0.3,0.4-0.5,0.6-0.7c0.3-0.2,0.6-0.2,0.9-0.2
		C29.3,33.8,29.6,33.9,29.9,34.1z"/>
	<path class="st0" d="M31.9,34.9c0.2-0.4,0.4-0.6,0.8-0.8c0.3-0.2,0.7-0.3,1.1-0.3c0.4,0,0.7,0.1,0.9,0.2c0.3,0.1,0.5,0.3,0.6,0.5
		v-0.7h1v4.6h-1v-0.7c-0.2,0.2-0.4,0.4-0.7,0.5c-0.3,0.1-0.6,0.2-0.9,0.2c-0.4,0-0.7-0.1-1.1-0.3c-0.3-0.2-0.6-0.5-0.8-0.8
		c-0.2-0.4-0.3-0.8-0.3-1.2S31.8,35.3,31.9,34.9z M35.2,35.4c-0.1-0.2-0.3-0.4-0.5-0.5s-0.4-0.2-0.7-0.2s-0.5,0.1-0.7,0.2
		s-0.4,0.3-0.5,0.5c-0.1,0.2-0.2,0.5-0.2,0.8s0.1,0.6,0.2,0.8c0.1,0.2,0.3,0.4,0.5,0.5c0.2,0.1,0.4,0.2,0.7,0.2
		c0.2,0,0.5-0.1,0.7-0.2s0.4-0.3,0.5-0.5c0.1-0.2,0.2-0.5,0.2-0.8C35.4,35.9,35.3,35.6,35.2,35.4z"/>
	<path class="st0" d="M37.5,34.9c0.2-0.4,0.5-0.6,0.8-0.8s0.7-0.3,1.2-0.3c0.6,0,1,0.1,1.4,0.4s0.6,0.6,0.7,1.1h-1
		c-0.1-0.2-0.2-0.4-0.4-0.5c-0.2-0.1-0.4-0.2-0.7-0.2c-0.4,0-0.7,0.1-0.9,0.4c-0.2,0.3-0.3,0.7-0.3,1.1s0.1,0.9,0.3,1.1
		s0.5,0.4,0.9,0.4c0.5,0,0.9-0.2,1.1-0.7h1c-0.1,0.5-0.4,0.8-0.7,1.1c-0.4,0.3-0.8,0.4-1.4,0.4c-0.4,0-0.8-0.1-1.2-0.3
		s-0.6-0.5-0.8-0.8c-0.2-0.4-0.3-0.8-0.3-1.2S37.4,35.3,37.5,34.9z"/>
	<path class="st0" d="M42.6,33.1c-0.1-0.1-0.2-0.3-0.2-0.4c0-0.2,0.1-0.3,0.2-0.4c0.1-0.1,0.3-0.2,0.4-0.2c0.2,0,0.3,0.1,0.4,0.2
		c0.1,0.1,0.2,0.3,0.2,0.4c0,0.2-0.1,0.3-0.2,0.4c-0.1,0.1-0.3,0.2-0.4,0.2C42.8,33.3,42.7,33.2,42.6,33.1z M43.5,33.9v4.6h-0.9
		v-4.6H43.5z"/>
	<path class="st0" d="M45.4,38.3c-0.3-0.1-0.5-0.3-0.7-0.5s-0.3-0.5-0.3-0.7h1c0,0.2,0.1,0.4,0.3,0.5c0.2,0.1,0.4,0.2,0.6,0.2
		c0.3,0,0.5-0.1,0.6-0.2c0.1-0.1,0.2-0.2,0.2-0.4c0-0.2-0.1-0.3-0.2-0.4c-0.2-0.1-0.4-0.2-0.8-0.3c-0.3-0.1-0.6-0.2-0.8-0.3
		c-0.2-0.1-0.4-0.2-0.6-0.4c-0.2-0.2-0.2-0.4-0.2-0.7c0-0.2,0.1-0.5,0.2-0.7c0.1-0.2,0.3-0.4,0.6-0.5c0.3-0.1,0.6-0.2,0.9-0.2
		c0.5,0,0.9,0.1,1.3,0.4s0.5,0.6,0.5,1.1h-0.9c0-0.2-0.1-0.4-0.2-0.5s-0.3-0.2-0.6-0.2c-0.2,0-0.4,0-0.6,0.1
		c-0.1,0.1-0.2,0.2-0.2,0.4c0,0.1,0,0.2,0.1,0.3c0.1,0.1,0.2,0.1,0.3,0.2c0.1,0,0.3,0.1,0.6,0.2c0.3,0.1,0.6,0.2,0.8,0.3
		c0.2,0.1,0.4,0.2,0.5,0.4c0.2,0.2,0.2,0.4,0.2,0.7c0,0.3-0.1,0.5-0.2,0.7c-0.1,0.2-0.3,0.4-0.6,0.5c-0.3,0.1-0.6,0.2-0.9,0.2
		C46,38.5,45.7,38.5,45.4,38.3z"/>
	<path class="st0" d="M50.2,34.7v2.5c0,0.2,0,0.3,0.1,0.4c0.1,0.1,0.2,0.1,0.4,0.1h0.6v0.8h-0.7c-0.4,0-0.7-0.1-1-0.3
		s-0.3-0.5-0.3-1v-2.5h-0.5v-0.8h0.5v-1.1h0.9v1.1h1.1v0.8H50.2z"/>
	<path class="st0" d="M0.2,46C0.1,45.9,0,45.8,0,45.6s0.1-0.3,0.2-0.4C0.3,45.1,0.4,45,0.6,45c0.2,0,0.3,0.1,0.4,0.2
		c0.1,0.1,0.2,0.3,0.2,0.4S1.1,45.9,1,46c-0.1,0.1-0.3,0.2-0.4,0.2C0.4,46.2,0.3,46.1,0.2,46z"/>
	<path class="st0" d="M5.5,48c-0.4-0.2-0.8-0.6-1.1-1C4.2,46.5,4,46,4,45.5c0-0.6,0.1-1.1,0.4-1.5c0.3-0.4,0.6-0.8,1.1-1
		c0.4-0.3,0.9-0.4,1.5-0.4c0.5,0,1,0.1,1.5,0.4c0.4,0.3,0.8,0.6,1.1,1c0.3,0.4,0.4,0.9,0.4,1.5c0,0.6-0.1,1.1-0.4,1.5
		c-0.3,0.4-0.6,0.8-1.1,1C8,48.3,7.5,48.4,7,48.4C6.4,48.4,5.9,48.3,5.5,48z M8,47.3c0.3-0.2,0.5-0.4,0.7-0.7
		c0.2-0.3,0.3-0.7,0.3-1.1c0-0.4-0.1-0.8-0.3-1.1S8.3,43.8,8,43.6c-0.3-0.2-0.6-0.3-1-0.3s-0.7,0.1-1,0.3S5.4,44,5.3,44.4
		S5,45.1,5,45.5c0,0.4,0.1,0.8,0.3,1.1c0.2,0.3,0.4,0.6,0.7,0.7c0.3,0.2,0.6,0.3,1,0.3S7.7,47.5,8,47.3z"/>
	<path class="st0" d="M12.4,44c0.3-0.1,0.6-0.2,0.9-0.2c0.4,0,0.8,0.1,1.1,0.3c0.3,0.2,0.6,0.5,0.8,0.8s0.3,0.8,0.3,1.2
		s-0.1,0.9-0.3,1.2s-0.4,0.6-0.8,0.8c-0.3,0.2-0.7,0.3-1.1,0.3c-0.3,0-0.7-0.1-0.9-0.2c-0.3-0.1-0.5-0.3-0.7-0.5v2.8h-0.9v-6.7h0.9
		v0.7C11.9,44.3,12.1,44.1,12.4,44z M14.3,45.3c-0.1-0.2-0.3-0.4-0.5-0.5c-0.2-0.1-0.4-0.2-0.7-0.2c-0.2,0-0.5,0.1-0.7,0.2
		c-0.2,0.1-0.4,0.3-0.5,0.5c-0.1,0.2-0.2,0.5-0.2,0.8c0,0.3,0.1,0.6,0.2,0.8c0.1,0.2,0.3,0.4,0.5,0.5c0.2,0.1,0.4,0.2,0.7,0.2
		c0.2,0,0.5-0.1,0.7-0.2c0.2-0.1,0.4-0.3,0.5-0.5c0.1-0.2,0.2-0.5,0.2-0.8S14.5,45.5,14.3,45.3z"/>
	<path class="st0" d="M20.6,46.4h-3.5c0,0.4,0.2,0.7,0.4,0.9c0.2,0.2,0.5,0.3,0.9,0.3c0.5,0,0.9-0.2,1.1-0.6h1
		c-0.1,0.4-0.4,0.8-0.7,1s-0.8,0.4-1.3,0.4c-0.4,0-0.8-0.1-1.2-0.3s-0.6-0.5-0.8-0.8s-0.3-0.8-0.3-1.2s0.1-0.9,0.3-1.2
		c0.2-0.4,0.5-0.6,0.8-0.8s0.7-0.3,1.2-0.3c0.4,0,0.8,0.1,1.1,0.3c0.3,0.2,0.6,0.5,0.8,0.8c0.2,0.3,0.3,0.7,0.3,1.2
		C20.6,46.1,20.6,46.3,20.6,46.4z M19.6,45.7c0-0.3-0.1-0.6-0.4-0.8c-0.2-0.2-0.5-0.3-0.9-0.3c-0.3,0-0.6,0.1-0.8,0.3
		s-0.4,0.5-0.4,0.8H19.6z"/>
	<path class="st0" d="M23,43.9c0.2-0.1,0.5-0.2,0.8-0.2v1h-0.2c-0.4,0-0.6,0.1-0.8,0.3c-0.2,0.2-0.3,0.5-0.3,1v2.4h-0.9v-4.6h0.9
		v0.7C22.6,44.2,22.8,44.1,23,43.9z"/>
	<path class="st0" d="M24.7,44.9c0.2-0.4,0.4-0.6,0.8-0.8c0.3-0.2,0.7-0.3,1.1-0.3c0.4,0,0.7,0.1,0.9,0.2c0.3,0.1,0.5,0.3,0.6,0.5
		v-0.7h1v4.6h-1v-0.7c-0.2,0.2-0.4,0.4-0.7,0.5c-0.3,0.1-0.6,0.2-0.9,0.2c-0.4,0-0.7-0.1-1.1-0.3c-0.3-0.2-0.6-0.5-0.8-0.8
		c-0.2-0.4-0.3-0.8-0.3-1.2S24.5,45.2,24.7,44.9z M27.9,45.3c-0.1-0.2-0.3-0.4-0.5-0.5s-0.4-0.2-0.7-0.2s-0.5,0.1-0.7,0.2
		s-0.4,0.3-0.5,0.5c-0.1,0.2-0.2,0.5-0.2,0.8s0.1,0.6,0.2,0.8c0.1,0.2,0.3,0.4,0.5,0.5c0.2,0.1,0.4,0.2,0.7,0.2
		c0.2,0,0.5-0.1,0.7-0.2s0.4-0.3,0.5-0.5c0.1-0.2,0.2-0.5,0.2-0.8C28.1,45.8,28,45.5,27.9,45.3z"/>
	<path class="st0" d="M31.4,44.6v2.5c0,0.2,0,0.3,0.1,0.4c0.1,0.1,0.2,0.1,0.4,0.1h0.6v0.8h-0.7c-0.4,0-0.7-0.1-1-0.3
		s-0.3-0.5-0.3-1v-2.5h-0.5v-0.8h0.5v-1.1h0.9v1.1h1.1v0.8H31.4z"/>
	<path class="st0" d="M33.4,43c-0.1-0.1-0.2-0.3-0.2-0.4c0-0.2,0.1-0.3,0.2-0.4c0.1-0.1,0.3-0.2,0.4-0.2c0.2,0,0.3,0.1,0.4,0.2
		c0.1,0.1,0.2,0.3,0.2,0.4c0,0.2-0.1,0.3-0.2,0.4c-0.1,0.1-0.3,0.2-0.4,0.2C33.7,43.2,33.5,43.2,33.4,43z M34.3,43.8v4.6h-0.9v-4.6
		H34.3z"/>
	<path class="st0" d="M36.4,48.1c-0.3-0.2-0.6-0.5-0.8-0.8s-0.3-0.8-0.3-1.2c0-0.5,0.1-0.9,0.3-1.2c0.2-0.4,0.5-0.6,0.8-0.8
		c0.4-0.2,0.7-0.3,1.2-0.3c0.4,0,0.8,0.1,1.2,0.3s0.6,0.5,0.8,0.8c0.2,0.4,0.3,0.8,0.3,1.2c0,0.5-0.1,0.9-0.3,1.2
		c-0.2,0.4-0.5,0.6-0.9,0.8c-0.4,0.2-0.8,0.3-1.2,0.3C37.1,48.4,36.7,48.3,36.4,48.1z M38.2,47.4c0.2-0.1,0.4-0.3,0.5-0.5
		c0.1-0.2,0.2-0.5,0.2-0.8s-0.1-0.6-0.2-0.8c-0.1-0.2-0.3-0.4-0.5-0.5c-0.2-0.1-0.4-0.2-0.7-0.2s-0.5,0.1-0.7,0.2
		c-0.2,0.1-0.4,0.3-0.5,0.5s-0.2,0.5-0.2,0.8c0,0.5,0.1,0.9,0.4,1.1c0.3,0.3,0.6,0.4,0.9,0.4C37.8,47.6,38,47.6,38.2,47.4z"/>
	<path class="st0" d="M44.1,44c0.3,0.1,0.5,0.4,0.7,0.7c0.2,0.3,0.2,0.6,0.2,1.1v2.7H44v-2.5c0-0.4-0.1-0.7-0.3-0.9
		c-0.2-0.2-0.5-0.3-0.8-0.3s-0.6,0.1-0.8,0.3c-0.2,0.2-0.3,0.5-0.3,0.9v2.5h-0.9v-4.6h0.9v0.5c0.2-0.2,0.4-0.3,0.6-0.4
		s0.5-0.2,0.8-0.2C43.5,43.7,43.8,43.8,44.1,44z"/>
	<path class="st0" d="M46.9,48.2c-0.3-0.1-0.5-0.3-0.7-0.5s-0.3-0.5-0.3-0.7h1c0,0.2,0.1,0.4,0.3,0.5c0.2,0.1,0.4,0.2,0.6,0.2
		c0.3,0,0.5-0.1,0.6-0.2c0.1-0.1,0.2-0.2,0.2-0.4c0-0.2-0.1-0.3-0.2-0.4c-0.2-0.1-0.4-0.2-0.8-0.3c-0.3-0.1-0.6-0.2-0.8-0.3
		c-0.2-0.1-0.4-0.2-0.6-0.4c-0.2-0.2-0.2-0.4-0.2-0.7c0-0.2,0.1-0.5,0.2-0.7c0.1-0.2,0.3-0.4,0.6-0.5c0.3-0.1,0.6-0.2,0.9-0.2
		c0.5,0,0.9,0.1,1.3,0.4s0.5,0.6,0.5,1.1h-0.9c0-0.2-0.1-0.4-0.2-0.5s-0.3-0.2-0.6-0.2c-0.2,0-0.4,0-0.6,0.1C47,44.8,47,44.9,47,45
		c0,0.1,0,0.2,0.1,0.3c0.1,0.1,0.2,0.1,0.3,0.2c0.1,0,0.3,0.1,0.6,0.2c0.3,0.1,0.6,0.2,0.8,0.3c0.2,0.1,0.4,0.2,0.5,0.4
		c0.2,0.2,0.2,0.4,0.2,0.7c0,0.3-0.1,0.5-0.2,0.7c-0.1,0.2-0.3,0.4-0.6,0.5c-0.3,0.1-0.6,0.2-0.9,0.2C47.5,48.4,47.1,48.4,46.9,48.2
		z"/>
	<path class="st0" d="M52.8,44c0.3-0.4,0.6-0.8,1.1-1c0.4-0.3,0.9-0.4,1.5-0.4c0.6,0,1.2,0.2,1.6,0.5c0.5,0.3,0.8,0.7,1,1.3h-1.1
		c-0.1-0.3-0.4-0.5-0.6-0.7s-0.6-0.2-0.9-0.2c-0.4,0-0.7,0.1-1,0.3s-0.5,0.4-0.7,0.7s-0.3,0.7-0.3,1.1c0,0.4,0.1,0.8,0.3,1.1
		s0.4,0.6,0.7,0.7s0.6,0.3,1,0.3c0.3,0,0.7-0.1,0.9-0.2s0.5-0.4,0.6-0.7H58c-0.2,0.5-0.6,1-1,1.3c-0.5,0.3-1,0.4-1.6,0.4
		c-0.5,0-1-0.1-1.5-0.4c-0.4-0.3-0.8-0.6-1.1-1c-0.3-0.4-0.4-0.9-0.4-1.5C52.4,44.9,52.5,44.4,52.8,44z"/>
	<path class="st0" d="M59.9,48.1c-0.3-0.2-0.6-0.5-0.8-0.8s-0.3-0.8-0.3-1.2c0-0.5,0.1-0.9,0.3-1.2c0.2-0.4,0.5-0.6,0.8-0.8
		c0.4-0.2,0.7-0.3,1.2-0.3c0.4,0,0.8,0.1,1.2,0.3s0.6,0.5,0.8,0.8c0.2,0.4,0.3,0.8,0.3,1.2c0,0.5-0.1,0.9-0.3,1.2
		c-0.2,0.4-0.5,0.6-0.9,0.8c-0.4,0.2-0.8,0.3-1.2,0.3C60.7,48.4,60.3,48.3,59.9,48.1z M61.8,47.4c0.2-0.1,0.4-0.3,0.5-0.5
		c0.1-0.2,0.2-0.5,0.2-0.8s-0.1-0.6-0.2-0.8c-0.1-0.2-0.3-0.4-0.5-0.5c-0.2-0.1-0.4-0.2-0.7-0.2s-0.5,0.1-0.7,0.2
		c-0.2,0.1-0.4,0.3-0.5,0.5s-0.2,0.5-0.2,0.8c0,0.5,0.1,0.9,0.4,1.1c0.3,0.3,0.6,0.4,0.9,0.4C61.3,47.6,61.6,47.6,61.8,47.4z"/>
	<path class="st0" d="M65.2,48.1c-0.3-0.2-0.6-0.5-0.8-0.8s-0.3-0.8-0.3-1.2c0-0.5,0.1-0.9,0.3-1.2c0.2-0.4,0.5-0.6,0.8-0.8
		c0.4-0.2,0.7-0.3,1.2-0.3c0.4,0,0.8,0.1,1.2,0.3s0.6,0.5,0.8,0.8c0.2,0.4,0.3,0.8,0.3,1.2c0,0.5-0.1,0.9-0.3,1.2
		c-0.2,0.4-0.5,0.6-0.9,0.8c-0.4,0.2-0.8,0.3-1.2,0.3C65.9,48.4,65.5,48.3,65.2,48.1z M67,47.4c0.2-0.1,0.4-0.3,0.5-0.5
		c0.1-0.2,0.2-0.5,0.2-0.8s-0.1-0.6-0.2-0.8c-0.1-0.2-0.3-0.4-0.5-0.5c-0.2-0.1-0.4-0.2-0.7-0.2s-0.5,0.1-0.7,0.2
		c-0.2,0.1-0.4,0.3-0.5,0.5S65,45.8,65,46.1c0,0.5,0.1,0.9,0.4,1.1c0.3,0.3,0.6,0.4,0.9,0.4C66.6,47.6,66.8,47.6,67,47.4z"/>
	<path class="st0" d="M71.1,43.9c0.2-0.1,0.5-0.2,0.8-0.2v1h-0.2c-0.4,0-0.6,0.1-0.8,0.3c-0.2,0.2-0.3,0.5-0.3,1v2.4h-0.9v-4.6h0.9
		v0.7C70.7,44.2,70.9,44.1,71.1,43.9z"/>
	<path class="st0" d="M72.8,44.9c0.2-0.4,0.4-0.6,0.8-0.8c0.3-0.2,0.7-0.3,1.1-0.3c0.3,0,0.6,0.1,0.9,0.2c0.3,0.1,0.5,0.3,0.7,0.5
		v-2.2h1v6.1h-1v-0.7c-0.2,0.2-0.4,0.4-0.6,0.5c-0.3,0.1-0.6,0.2-0.9,0.2c-0.4,0-0.8-0.1-1.1-0.3c-0.3-0.2-0.6-0.5-0.8-0.8
		c-0.2-0.4-0.3-0.8-0.3-1.2S72.6,45.2,72.8,44.9z M76,45.3c-0.1-0.2-0.3-0.4-0.5-0.5s-0.4-0.2-0.7-0.2s-0.5,0.1-0.7,0.2
		s-0.4,0.3-0.5,0.5c-0.1,0.2-0.2,0.5-0.2,0.8s0.1,0.6,0.2,0.8c0.1,0.2,0.3,0.4,0.5,0.5c0.2,0.1,0.4,0.2,0.7,0.2
		c0.2,0,0.5-0.1,0.7-0.2s0.4-0.3,0.5-0.5c0.1-0.2,0.2-0.5,0.2-0.8C76.2,45.8,76.2,45.5,76,45.3z"/>
	<path class="st0" d="M78.5,43c-0.1-0.1-0.2-0.3-0.2-0.4c0-0.2,0.1-0.3,0.2-0.4c0.1-0.1,0.3-0.2,0.4-0.2c0.2,0,0.3,0.1,0.4,0.2
		c0.1,0.1,0.2,0.3,0.2,0.4c0,0.2-0.1,0.3-0.2,0.4c-0.1,0.1-0.3,0.2-0.4,0.2C78.7,43.2,78.6,43.2,78.5,43z M79.4,43.8v4.6h-0.9v-4.6
		H79.4z"/>
	<path class="st0" d="M83.9,44c0.3,0.1,0.5,0.4,0.7,0.7c0.2,0.3,0.2,0.6,0.2,1.1v2.7h-0.9v-2.5c0-0.4-0.1-0.7-0.3-0.9
		c-0.2-0.2-0.5-0.3-0.8-0.3s-0.6,0.1-0.8,0.3c-0.2,0.2-0.3,0.5-0.3,0.9v2.5h-0.9v-4.6h0.9v0.5c0.2-0.2,0.4-0.3,0.6-0.4
		s0.5-0.2,0.8-0.2C83.3,43.7,83.6,43.8,83.9,44z"/>
	<path class="st0" d="M85.9,44.9c0.2-0.4,0.4-0.6,0.8-0.8c0.3-0.2,0.7-0.3,1.1-0.3c0.4,0,0.7,0.1,0.9,0.2c0.3,0.1,0.5,0.3,0.6,0.5
		v-0.7h1v4.6h-1v-0.7c-0.2,0.2-0.4,0.4-0.7,0.5c-0.3,0.1-0.6,0.2-0.9,0.2c-0.4,0-0.7-0.1-1.1-0.3c-0.3-0.2-0.6-0.5-0.8-0.8
		c-0.2-0.4-0.3-0.8-0.3-1.2S85.7,45.2,85.9,44.9z M89.2,45.3c-0.1-0.2-0.3-0.4-0.5-0.5s-0.4-0.2-0.7-0.2s-0.5,0.1-0.7,0.2
		s-0.4,0.3-0.5,0.5c-0.1,0.2-0.2,0.5-0.2,0.8s0.1,0.6,0.2,0.8c0.1,0.2,0.3,0.4,0.5,0.5c0.2,0.1,0.4,0.2,0.7,0.2
		c0.2,0,0.5-0.1,0.7-0.2s0.4-0.3,0.5-0.5c0.1-0.2,0.2-0.5,0.2-0.8C89.4,45.8,89.3,45.5,89.2,45.3z"/>
	<path class="st0" d="M92.7,44.6v2.5c0,0.2,0,0.3,0.1,0.4c0.1,0.1,0.2,0.1,0.4,0.1h0.6v0.8H93c-0.4,0-0.7-0.1-1-0.3s-0.3-0.5-0.3-1
		v-2.5h-0.5v-0.8h0.5v-1.1h0.9v1.1h1.1v0.8H92.7z"/>
	<path class="st0" d="M95.4,48.1c-0.3-0.2-0.6-0.5-0.8-0.8s-0.3-0.8-0.3-1.2c0-0.5,0.1-0.9,0.3-1.2c0.2-0.4,0.5-0.6,0.8-0.8
		c0.4-0.2,0.7-0.3,1.2-0.3c0.4,0,0.8,0.1,1.2,0.3s0.6,0.5,0.8,0.8c0.2,0.4,0.3,0.8,0.3,1.2c0,0.5-0.1,0.9-0.3,1.2
		c-0.2,0.4-0.5,0.6-0.9,0.8c-0.4,0.2-0.8,0.3-1.2,0.3C96.2,48.4,95.8,48.3,95.4,48.1z M97.3,47.4c0.2-0.1,0.4-0.3,0.5-0.5
		c0.1-0.2,0.2-0.5,0.2-0.8s-0.1-0.6-0.2-0.8c-0.1-0.2-0.3-0.4-0.5-0.5c-0.2-0.1-0.4-0.2-0.7-0.2s-0.5,0.1-0.7,0.2
		c-0.2,0.1-0.4,0.3-0.5,0.5s-0.2,0.5-0.2,0.8c0,0.5,0.1,0.9,0.4,1.1c0.3,0.3,0.6,0.4,0.9,0.4C96.9,47.6,97.1,47.6,97.3,47.4z"/>
	<path class="st0" d="M101.4,43.9c0.2-0.1,0.5-0.2,0.8-0.2v1H102c-0.4,0-0.6,0.1-0.8,0.3c-0.2,0.2-0.3,0.5-0.3,1v2.4h-0.9v-4.6h0.9
		v0.7C101,44.2,101.2,44.1,101.4,43.9z"/>
	<path class="st0" d="M0.2,55.9C0.1,55.8,0,55.7,0,55.5s0.1-0.3,0.2-0.4c0.1-0.1,0.3-0.2,0.4-0.2c0.2,0,0.3,0.1,0.4,0.2
		c0.1,0.1,0.2,0.3,0.2,0.4S1.1,55.8,1,55.9c-0.1,0.1-0.3,0.2-0.4,0.2C0.4,56.1,0.3,56.1,0.2,55.9z"/>
	<path class="st0" d="M7.3,58.3L6,56H5.3v2.3H4.4v-5.7h2c0.4,0,0.8,0.1,1.1,0.2s0.5,0.4,0.7,0.6s0.2,0.5,0.2,0.9
		c0,0.4-0.1,0.7-0.3,1c-0.2,0.3-0.6,0.5-1,0.6l1.4,2.4H7.3z M5.3,55.2h1c0.4,0,0.6-0.1,0.8-0.3c0.2-0.2,0.3-0.4,0.3-0.7
		c0-0.3-0.1-0.5-0.3-0.7c-0.2-0.2-0.4-0.3-0.8-0.3h-1V55.2z"/>
	<path class="st0" d="M13.7,56.4h-3.5c0,0.4,0.2,0.7,0.4,0.9c0.2,0.2,0.5,0.3,0.9,0.3c0.5,0,0.9-0.2,1.1-0.6h1
		c-0.1,0.4-0.4,0.8-0.7,1s-0.8,0.4-1.3,0.4c-0.4,0-0.8-0.1-1.2-0.3s-0.6-0.5-0.8-0.8S9.3,56.5,9.3,56s0.1-0.9,0.3-1.2
		c0.2-0.4,0.5-0.6,0.8-0.8s0.7-0.3,1.2-0.3c0.4,0,0.8,0.1,1.1,0.3c0.3,0.2,0.6,0.5,0.8,0.8c0.2,0.3,0.3,0.7,0.3,1.2
		C13.7,56.1,13.7,56.2,13.7,56.4z M12.8,55.6c0-0.3-0.1-0.6-0.4-0.8c-0.2-0.2-0.5-0.3-0.9-0.3c-0.3,0-0.6,0.1-0.8,0.3
		s-0.4,0.5-0.4,0.8H12.8z"/>
	<path class="st0" d="M17.4,53.9c0.3,0.1,0.5,0.3,0.6,0.5v-0.7h1v4.6c0,0.4-0.1,0.8-0.3,1.1s-0.4,0.6-0.8,0.8
		c-0.3,0.2-0.7,0.3-1.2,0.3c-0.6,0-1.1-0.1-1.5-0.4c-0.4-0.3-0.6-0.7-0.7-1.2h0.9c0.1,0.2,0.2,0.4,0.5,0.6c0.2,0.1,0.5,0.2,0.8,0.2
		c0.4,0,0.7-0.1,0.9-0.3c0.2-0.2,0.4-0.6,0.4-1v-0.8c-0.2,0.2-0.4,0.4-0.6,0.5s-0.6,0.2-0.9,0.2c-0.4,0-0.8-0.1-1.1-0.3
		c-0.3-0.2-0.6-0.5-0.8-0.8c-0.2-0.4-0.3-0.8-0.3-1.2s0.1-0.9,0.3-1.2c0.2-0.4,0.4-0.6,0.8-0.8c0.3-0.2,0.7-0.3,1.1-0.3
		C16.9,53.7,17.2,53.7,17.4,53.9z M17.9,55.2c-0.1-0.2-0.3-0.4-0.5-0.5s-0.4-0.2-0.7-0.2s-0.5,0.1-0.7,0.2s-0.4,0.3-0.5,0.5
		c-0.1,0.2-0.2,0.5-0.2,0.8s0.1,0.6,0.2,0.8c0.1,0.2,0.3,0.4,0.5,0.5c0.2,0.1,0.4,0.2,0.7,0.2c0.2,0,0.5-0.1,0.7-0.2
		s0.4-0.3,0.5-0.5c0.1-0.2,0.2-0.5,0.2-0.8C18.1,55.7,18,55.4,17.9,55.2z"/>
	<path class="st0" d="M20.3,52.9c-0.1-0.1-0.2-0.3-0.2-0.4c0-0.2,0.1-0.3,0.2-0.4c0.1-0.1,0.3-0.2,0.4-0.2c0.2,0,0.3,0.1,0.4,0.2
		c0.1,0.1,0.2,0.3,0.2,0.4c0,0.2-0.1,0.3-0.2,0.4c-0.1,0.1-0.3,0.2-0.4,0.2C20.6,53.1,20.4,53.1,20.3,52.9z M21.2,53.7v4.6h-0.9
		v-4.6H21.2z"/>
	<path class="st0" d="M23.1,58.2c-0.3-0.1-0.5-0.3-0.7-0.5s-0.3-0.5-0.3-0.7h1c0,0.2,0.1,0.4,0.3,0.5c0.2,0.1,0.4,0.2,0.6,0.2
		c0.3,0,0.5-0.1,0.6-0.2c0.1-0.1,0.2-0.2,0.2-0.4c0-0.2-0.1-0.3-0.2-0.4c-0.2-0.1-0.4-0.2-0.8-0.3c-0.3-0.1-0.6-0.2-0.8-0.3
		c-0.2-0.1-0.4-0.2-0.6-0.4c-0.2-0.2-0.2-0.4-0.2-0.7c0-0.2,0.1-0.5,0.2-0.7c0.1-0.2,0.3-0.4,0.6-0.5c0.3-0.1,0.6-0.2,0.9-0.2
		c0.5,0,0.9,0.1,1.3,0.4s0.5,0.6,0.5,1.1h-0.9c0-0.2-0.1-0.4-0.2-0.5s-0.3-0.2-0.6-0.2c-0.2,0-0.4,0-0.6,0.1
		c-0.1,0.1-0.2,0.2-0.2,0.4c0,0.1,0,0.2,0.1,0.3c0.1,0.1,0.2,0.1,0.3,0.2c0.1,0,0.3,0.1,0.6,0.2c0.3,0.1,0.6,0.2,0.8,0.3
		c0.2,0.1,0.4,0.2,0.5,0.4c0.2,0.2,0.2,0.4,0.2,0.7c0,0.3-0.1,0.5-0.2,0.7c-0.1,0.2-0.3,0.4-0.6,0.5c-0.3,0.1-0.6,0.2-0.9,0.2
		C23.7,58.4,23.4,58.3,23.1,58.2z"/>
	<path class="st0" d="M28,54.5V57c0,0.2,0,0.3,0.1,0.4c0.1,0.1,0.2,0.1,0.4,0.1h0.6v0.8h-0.7c-0.4,0-0.7-0.1-1-0.3S27,57.5,27,57
		v-2.5h-0.5v-0.8H27v-1.1H28v1.1h1.1v0.8H28z"/>
	<path class="st0" d="M34.1,56.4h-3.5c0,0.4,0.2,0.7,0.4,0.9c0.2,0.2,0.5,0.3,0.9,0.3c0.5,0,0.9-0.2,1.1-0.6h1
		c-0.1,0.4-0.4,0.8-0.7,1s-0.8,0.4-1.3,0.4c-0.4,0-0.8-0.1-1.2-0.3s-0.6-0.5-0.8-0.8s-0.3-0.8-0.3-1.2s0.1-0.9,0.3-1.2
		c0.2-0.4,0.5-0.6,0.8-0.8s0.7-0.3,1.2-0.3c0.4,0,0.8,0.1,1.1,0.3c0.3,0.2,0.6,0.5,0.8,0.8c0.2,0.3,0.3,0.7,0.3,1.2
		C34.1,56.1,34.1,56.2,34.1,56.4z M33.1,55.6c0-0.3-0.1-0.6-0.4-0.8c-0.2-0.2-0.5-0.3-0.9-0.3c-0.3,0-0.6,0.1-0.8,0.3
		s-0.4,0.5-0.4,0.8H33.1z"/>
	<path class="st0" d="M36.5,53.8c0.2-0.1,0.5-0.2,0.8-0.2v1h-0.2c-0.4,0-0.6,0.1-0.8,0.3c-0.2,0.2-0.3,0.5-0.3,1v2.4H35v-4.6H36v0.7
		C36.1,54.2,36.3,54,36.5,53.8z"/>
	<path class="st0" d="M42.3,56.4h-3.5c0,0.4,0.2,0.7,0.4,0.9c0.2,0.2,0.5,0.3,0.9,0.3c0.5,0,0.9-0.2,1.1-0.6h1
		c-0.1,0.4-0.4,0.8-0.7,1s-0.8,0.4-1.3,0.4c-0.4,0-0.8-0.1-1.2-0.3s-0.6-0.5-0.8-0.8s-0.3-0.8-0.3-1.2s0.1-0.9,0.3-1.2
		c0.2-0.4,0.5-0.6,0.8-0.8s0.7-0.3,1.2-0.3c0.4,0,0.8,0.1,1.1,0.3c0.3,0.2,0.6,0.5,0.8,0.8c0.2,0.3,0.3,0.7,0.3,1.2
		C42.4,56.1,42.4,56.2,42.3,56.4z M41.4,55.6c0-0.3-0.1-0.6-0.4-0.8c-0.2-0.2-0.5-0.3-0.9-0.3c-0.3,0-0.6,0.1-0.8,0.3
		s-0.4,0.5-0.4,0.8H41.4z"/>
	<path class="st0" d="M43.3,54.8c0.2-0.4,0.4-0.6,0.8-0.8c0.3-0.2,0.7-0.3,1.1-0.3c0.3,0,0.6,0.1,0.9,0.2c0.3,0.1,0.5,0.3,0.7,0.5
		v-2.2h1v6.1h-1v-0.7c-0.2,0.2-0.4,0.4-0.6,0.5c-0.3,0.1-0.6,0.2-0.9,0.2c-0.4,0-0.8-0.1-1.1-0.3c-0.3-0.2-0.6-0.5-0.8-0.8
		C43.1,56.8,43,56.4,43,56S43.1,55.1,43.3,54.8z M46.5,55.2c-0.1-0.2-0.3-0.4-0.5-0.5s-0.4-0.2-0.7-0.2s-0.5,0.1-0.7,0.2
		s-0.4,0.3-0.5,0.5c-0.1,0.2-0.2,0.5-0.2,0.8s0.1,0.6,0.2,0.8c0.1,0.2,0.3,0.4,0.5,0.5c0.2,0.1,0.4,0.2,0.7,0.2
		c0.2,0,0.5-0.1,0.7-0.2s0.4-0.3,0.5-0.5c0.1-0.2,0.2-0.5,0.2-0.8C46.7,55.7,46.6,55.4,46.5,55.2z"/>
	<path class="st0" d="M55.8,58.3h-0.9L52,54v4.3H51v-5.7H52l2.8,4.3v-4.3h0.9V58.3z"/>
	<path class="st0" d="M61.1,53.7v4.6h-0.9v-0.5c-0.1,0.2-0.3,0.3-0.6,0.4s-0.5,0.2-0.8,0.2c-0.4,0-0.7-0.1-1-0.2
		c-0.3-0.1-0.5-0.4-0.7-0.7C57,57.2,57,56.8,57,56.4v-2.7h0.9v2.5c0,0.4,0.1,0.7,0.3,0.9c0.2,0.2,0.5,0.3,0.8,0.3s0.6-0.1,0.8-0.3
		c0.2-0.2,0.3-0.5,0.3-0.9v-2.5H61.1z"/>
	<path class="st0" d="M63.8,53.8c0.2-0.1,0.5-0.2,0.8-0.2v1h-0.2c-0.4,0-0.6,0.1-0.8,0.3c-0.2,0.2-0.3,0.5-0.3,1v2.4h-0.9v-4.6h0.9
		v0.7C63.4,54.2,63.6,54,63.8,53.8z"/>
	<path class="st0" d="M66.2,58.2c-0.3-0.1-0.5-0.3-0.7-0.5s-0.3-0.5-0.3-0.7h1c0,0.2,0.1,0.4,0.3,0.5c0.2,0.1,0.4,0.2,0.6,0.2
		c0.3,0,0.5-0.1,0.6-0.2c0.1-0.1,0.2-0.2,0.2-0.4c0-0.2-0.1-0.3-0.2-0.4c-0.2-0.1-0.4-0.2-0.8-0.3c-0.3-0.1-0.6-0.2-0.8-0.3
		c-0.2-0.1-0.4-0.2-0.6-0.4c-0.2-0.2-0.2-0.4-0.2-0.7c0-0.2,0.1-0.5,0.2-0.7c0.1-0.2,0.3-0.4,0.6-0.5c0.3-0.1,0.6-0.2,0.9-0.2
		c0.5,0,0.9,0.1,1.3,0.4s0.5,0.6,0.5,1.1h-0.9c0-0.2-0.1-0.4-0.2-0.5s-0.3-0.2-0.6-0.2c-0.2,0-0.4,0-0.6,0.1
		c-0.1,0.1-0.2,0.2-0.2,0.4c0,0.1,0,0.2,0.1,0.3c0.1,0.1,0.2,0.1,0.3,0.2c0.1,0,0.3,0.1,0.6,0.2c0.3,0.1,0.6,0.2,0.8,0.3
		c0.2,0.1,0.4,0.2,0.5,0.4c0.2,0.2,0.2,0.4,0.2,0.7c0,0.3-0.1,0.5-0.2,0.7c-0.1,0.2-0.3,0.4-0.6,0.5c-0.3,0.1-0.6,0.2-0.9,0.2
		C66.8,58.4,66.5,58.3,66.2,58.2z"/>
	<path class="st0" d="M74.1,56.4h-3.5c0,0.4,0.2,0.7,0.4,0.9c0.2,0.2,0.5,0.3,0.9,0.3c0.5,0,0.9-0.2,1.1-0.6h1
		c-0.1,0.4-0.4,0.8-0.7,1s-0.8,0.4-1.3,0.4c-0.4,0-0.8-0.1-1.2-0.3s-0.6-0.5-0.8-0.8s-0.3-0.8-0.3-1.2s0.1-0.9,0.3-1.2
		c0.2-0.4,0.5-0.6,0.8-0.8s0.7-0.3,1.2-0.3c0.4,0,0.8,0.1,1.1,0.3c0.3,0.2,0.6,0.5,0.8,0.8c0.2,0.3,0.3,0.7,0.3,1.2
		C74.1,56.1,74.1,56.2,74.1,56.4z M73.1,55.6c0-0.3-0.1-0.6-0.4-0.8c-0.2-0.2-0.5-0.3-0.9-0.3c-0.3,0-0.6,0.1-0.8,0.3
		s-0.4,0.5-0.4,0.8H73.1z"/>
	<path class="st0" d="M80.7,54.9v0.8h-3.4v-0.8H80.7z"/>
	<path class="st0" d="M84.6,52.5c0.4-0.3,0.8-0.4,1.4-0.4c0.4,0,0.7,0.1,1,0.2c0.3,0.1,0.5,0.3,0.6,0.6c0.1,0.2,0.2,0.5,0.2,0.8
		c0,0.3-0.1,0.6-0.3,0.9S87.2,55,86.9,55v0c0.3,0.1,0.6,0.3,0.8,0.5s0.3,0.6,0.3,1c0,0.3-0.1,0.6-0.2,0.9c-0.1,0.3-0.4,0.5-0.7,0.6
		c-0.3,0.1-0.6,0.2-1,0.2c-0.6,0-1.1-0.2-1.5-0.5c-0.4-0.3-0.6-0.7-0.6-1.3h0.9c0,0.3,0.1,0.5,0.3,0.7s0.5,0.3,0.8,0.3
		c0.3,0,0.6-0.1,0.8-0.3s0.3-0.4,0.3-0.7c0-0.4-0.1-0.7-0.4-0.8c-0.2-0.2-0.6-0.2-1.1-0.2h-0.2v-0.8h0.2c0.4,0,0.8-0.1,1-0.2
		c0.2-0.1,0.4-0.4,0.4-0.7c0-0.3-0.1-0.5-0.3-0.6c-0.2-0.2-0.4-0.2-0.7-0.2c-0.3,0-0.5,0.1-0.7,0.2c-0.2,0.2-0.3,0.4-0.3,0.6H84
		C84,53.2,84.2,52.8,84.6,52.5z"/>
</g>
</svg>
