<!-- Generator: Adobe Illustrator 25.0.0, SVG Export Plug-In  -->
<svg version="1.1" xmlns="http://www.w3.org/2000/svg" xmlns:xlink="http://www.w3.org/1999/xlink" x="0px" y="0px" width="446.7px"
	 height="284.8px" viewBox="0 0 446.7 284.8" style="overflow:visible;enable-background:new 0 0 446.7 284.8;"
	 xml:space="preserve">
<style type="text/css">
	.st0{fill:#FFFFFF;}
</style>
<defs>
</defs>
<g>
	<path class="st0" d="M156.9,1.6v14.6h-2.4V9.8h-6.9v6.4h-2.4V1.6h2.4v6.3h6.9V1.6H156.9z"/>
	<path class="st0" d="M162.1,15.7c-0.9-0.5-1.6-1.2-2.1-2.1c-0.5-0.9-0.8-1.9-0.8-3.1c0-1.2,0.3-2.2,0.8-3.1
		c0.5-0.9,1.2-1.6,2.1-2.1c0.9-0.5,1.9-0.7,3-0.7c1.1,0,2.1,0.2,3,0.7c0.9,0.5,1.6,1.2,2.1,2.1c0.5,0.9,0.8,2,0.8,3.1
		c0,1.2-0.3,2.2-0.8,3.1c-0.5,0.9-1.3,1.6-2.2,2.1c-0.9,0.5-1.9,0.7-3,0.7C163.9,16.4,163,16.2,162.1,15.7z M166.8,13.9
		c0.5-0.3,1-0.7,1.3-1.3c0.3-0.6,0.5-1.3,0.5-2.1c0-0.8-0.2-1.6-0.5-2.1c-0.3-0.6-0.7-1-1.3-1.3c-0.5-0.3-1.1-0.4-1.7-0.4
		c-0.6,0-1.2,0.1-1.7,0.4c-0.5,0.3-0.9,0.7-1.2,1.3c-0.3,0.6-0.5,1.3-0.5,2.1c0,1.2,0.3,2.2,1,2.9c0.6,0.7,1.4,1,2.4,1
		C165.6,14.3,166.2,14.2,166.8,13.9z"/>
	<path class="st0" d="M189,4.6l-3.6,11.6h-2.5l-2.3-8.5l-2.3,8.5h-2.5L172,4.6h2.4l2.4,9.3l2.5-9.3h2.5l2.4,9.3l2.4-9.3H189z"/>
	<path class="st0" d="M198.3,15.7c-0.9-0.5-1.6-1.2-2.1-2.1c-0.5-0.9-0.8-1.9-0.8-3.1c0-1.2,0.3-2.2,0.8-3.1
		c0.5-0.9,1.2-1.6,2.1-2.1c0.9-0.5,1.9-0.7,3-0.7c1.1,0,2.1,0.2,3,0.7c0.9,0.5,1.6,1.2,2.1,2.1c0.5,0.9,0.8,2,0.8,3.1
		c0,1.2-0.3,2.2-0.8,3.1c-0.5,0.9-1.3,1.6-2.2,2.1c-0.9,0.5-1.9,0.7-3,0.7C200.1,16.4,199.1,16.2,198.3,15.7z M202.9,13.9
		c0.5-0.3,1-0.7,1.3-1.3c0.3-0.6,0.5-1.3,0.5-2.1c0-0.8-0.2-1.6-0.5-2.1c-0.3-0.6-0.7-1-1.3-1.3c-0.5-0.3-1.1-0.4-1.7-0.4
		c-0.6,0-1.2,0.1-1.7,0.4c-0.5,0.3-0.9,0.7-1.2,1.3c-0.3,0.6-0.5,1.3-0.5,2.1c0,1.2,0.3,2.2,1,2.9c0.6,0.7,1.4,1,2.4,1
		C201.8,14.3,202.4,14.2,202.9,13.9z"/>
	<path class="st0" d="M214.4,6.6h-2.1v9.6h-2.4V6.6h-1.4v-2h1.4V3.8c0-1.3,0.4-2.3,1.1-2.9c0.7-0.6,1.8-0.9,3.3-0.9v2
		c-0.7,0-1.2,0.1-1.5,0.4s-0.4,0.7-0.4,1.4v0.8h2.1V6.6z"/>
	<path class="st0" d="M219.4,6.6V13c0,0.4,0.1,0.7,0.3,0.9c0.2,0.2,0.5,0.3,1,0.3h1.5v2h-1.9c-1.1,0-1.9-0.3-2.5-0.8
		c-0.6-0.5-0.9-1.3-0.9-2.5V6.6h-1.4v-2h1.4V1.8h2.4v2.9h2.8v2H219.4z"/>
	<path class="st0" d="M234.9,11.3h-8.8c0.1,0.9,0.4,1.7,1,2.2c0.6,0.6,1.4,0.8,2.3,0.8c1.3,0,2.2-0.5,2.7-1.6h2.6
		c-0.4,1.1-1,1.9-1.9,2.6c-0.9,0.7-2.1,1-3.4,1c-1.1,0-2.1-0.2-3-0.7c-0.9-0.5-1.6-1.2-2.1-2.1c-0.5-0.9-0.7-1.9-0.7-3.1
		s0.2-2.2,0.7-3.1c0.5-0.9,1.2-1.6,2-2.1c0.9-0.5,1.9-0.7,3-0.7c1.1,0,2.1,0.2,2.9,0.7c0.9,0.5,1.5,1.1,2,2s0.7,1.9,0.7,3
		C235,10.6,235,11,234.9,11.3z M232.5,9.4c0-0.9-0.3-1.6-0.9-2.1c-0.6-0.5-1.4-0.8-2.3-0.8c-0.8,0-1.5,0.3-2.1,0.8s-0.9,1.2-1,2.1
		H232.5z"/>
	<path class="st0" d="M245.6,5c0.7,0.4,1.3,0.9,1.7,1.7c0.4,0.7,0.6,1.6,0.6,2.7v6.8h-2.4V9.7c0-1-0.3-1.8-0.8-2.4
		c-0.5-0.6-1.2-0.8-2.1-0.8c-0.9,0-1.6,0.3-2.1,0.8c-0.5,0.6-0.8,1.3-0.8,2.4v6.5h-2.4V4.6h2.4V6c0.4-0.5,0.9-0.8,1.5-1.1
		c0.6-0.3,1.3-0.4,1.9-0.4C244.1,4.5,244.9,4.6,245.6,5z"/>
	<path class="st0" d="M256.3,7.3c0.5-0.9,1.1-1.6,2-2.1c0.8-0.5,1.8-0.7,2.8-0.7c0.8,0,1.5,0.2,2.2,0.5c0.7,0.3,1.3,0.8,1.8,1.3V0.7
		h2.4v15.5h-2.4v-1.7c-0.4,0.6-0.9,1-1.6,1.4c-0.7,0.4-1.5,0.5-2.4,0.5c-1,0-1.9-0.3-2.8-0.8c-0.8-0.5-1.5-1.2-2-2.1
		c-0.5-0.9-0.7-2-0.7-3.1S255.9,8.2,256.3,7.3z M264.6,8.3c-0.3-0.6-0.8-1-1.3-1.3c-0.5-0.3-1.1-0.5-1.7-0.5c-0.6,0-1.2,0.2-1.7,0.5
		c-0.5,0.3-1,0.7-1.3,1.3c-0.3,0.6-0.5,1.3-0.5,2.1c0,0.8,0.2,1.5,0.5,2.1s0.8,1.1,1.3,1.4c0.5,0.3,1.1,0.5,1.7,0.5
		c0.6,0,1.2-0.2,1.7-0.5c0.5-0.3,1-0.8,1.3-1.4c0.3-0.6,0.5-1.3,0.5-2.1C265.1,9.6,264.9,8.9,264.6,8.3z"/>
	<path class="st0" d="M272.7,15.7c-0.9-0.5-1.6-1.2-2.1-2.1c-0.5-0.9-0.8-1.9-0.8-3.1c0-1.2,0.3-2.2,0.8-3.1
		c0.5-0.9,1.2-1.6,2.1-2.1c0.9-0.5,1.9-0.7,3-0.7c1.1,0,2.1,0.2,3,0.7c0.9,0.5,1.6,1.2,2.1,2.1c0.5,0.9,0.8,2,0.8,3.1
		c0,1.2-0.3,2.2-0.8,3.1c-0.5,0.9-1.3,1.6-2.2,2.1c-0.9,0.5-1.9,0.7-3,0.7C274.6,16.4,273.6,16.2,272.7,15.7z M277.4,13.9
		c0.5-0.3,1-0.7,1.3-1.3c0.3-0.6,0.5-1.3,0.5-2.1c0-0.8-0.2-1.6-0.5-2.1c-0.3-0.6-0.7-1-1.3-1.3c-0.5-0.3-1.1-0.4-1.7-0.4
		c-0.6,0-1.2,0.1-1.7,0.4c-0.5,0.3-0.9,0.7-1.2,1.3c-0.3,0.6-0.5,1.3-0.5,2.1c0,1.2,0.3,2.2,1,2.9c0.6,0.7,1.4,1,2.4,1
		C276.3,14.3,276.9,14.2,277.4,13.9z"/>
	<path class="st0" d="M294.6,11.3h-8.8c0.1,0.9,0.4,1.7,1,2.2c0.6,0.6,1.4,0.8,2.3,0.8c1.3,0,2.2-0.5,2.7-1.6h2.6
		c-0.4,1.1-1,1.9-1.9,2.6c-0.9,0.7-2.1,1-3.4,1c-1.1,0-2.1-0.2-3-0.7c-0.9-0.5-1.6-1.2-2.1-2.1c-0.5-0.9-0.7-1.9-0.7-3.1
		s0.2-2.2,0.7-3.1c0.5-0.9,1.2-1.6,2-2.1c0.9-0.5,1.9-0.7,3-0.7c1.1,0,2.1,0.2,2.9,0.7c0.9,0.5,1.5,1.1,2,2s0.7,1.9,0.7,3
		C294.7,10.6,294.6,11,294.6,11.3z M292.2,9.4c0-0.9-0.3-1.6-0.9-2.1c-0.6-0.5-1.4-0.8-2.3-0.8c-0.8,0-1.5,0.3-2.1,0.8
		s-0.9,1.2-1,2.1H292.2z"/>
	<path class="st0" d="M298.8,15.9c-0.7-0.3-1.3-0.8-1.7-1.3s-0.6-1.2-0.7-1.9h2.5c0,0.5,0.3,0.9,0.7,1.2c0.4,0.3,1,0.5,1.6,0.5
		c0.7,0,1.2-0.1,1.6-0.4c0.4-0.3,0.6-0.6,0.6-1c0-0.4-0.2-0.8-0.6-1s-1.1-0.4-2-0.7c-0.9-0.2-1.6-0.5-2.1-0.7c-0.5-0.2-1-0.6-1.4-1
		c-0.4-0.5-0.6-1.1-0.6-1.8c0-0.6,0.2-1.2,0.5-1.7s0.9-0.9,1.6-1.2c0.7-0.3,1.5-0.4,2.3-0.4c1.3,0,2.4,0.3,3.2,1
		c0.8,0.7,1.2,1.6,1.3,2.7h-2.4c0-0.5-0.3-0.9-0.6-1.2c-0.4-0.3-0.9-0.5-1.5-0.5c-0.6,0-1.1,0.1-1.4,0.4c-0.3,0.2-0.5,0.6-0.5,0.9
		c0,0.3,0.1,0.6,0.3,0.8s0.5,0.4,0.8,0.5c0.3,0.1,0.8,0.3,1.4,0.5c0.8,0.2,1.5,0.5,2.1,0.7s1,0.6,1.4,1c0.4,0.4,0.6,1,0.6,1.8
		c0,0.7-0.2,1.2-0.5,1.8c-0.4,0.5-0.9,0.9-1.5,1.2s-1.4,0.4-2.3,0.4C300.3,16.4,299.5,16.2,298.8,15.9z"/>
	<path class="st0" d="M324.1,4.6l-7.1,17h-2.5l2.4-5.6l-4.6-11.4h2.7l3.3,8.8l3.4-8.8H324.1z"/>
	<path class="st0" d="M328,15.7c-0.9-0.5-1.6-1.2-2.1-2.1c-0.5-0.9-0.8-1.9-0.8-3.1c0-1.2,0.3-2.2,0.8-3.1c0.5-0.9,1.2-1.6,2.1-2.1
		c0.9-0.5,1.9-0.7,3-0.7c1.1,0,2.1,0.2,3,0.7c0.9,0.5,1.6,1.2,2.1,2.1c0.5,0.9,0.8,2,0.8,3.1c0,1.2-0.3,2.2-0.8,3.1
		c-0.5,0.9-1.3,1.6-2.2,2.1c-0.9,0.5-1.9,0.7-3,0.7C329.8,16.4,328.8,16.2,328,15.7z M332.7,13.9c0.5-0.3,1-0.7,1.3-1.3
		c0.3-0.6,0.5-1.3,0.5-2.1c0-0.8-0.2-1.6-0.5-2.1c-0.3-0.6-0.7-1-1.3-1.3c-0.5-0.3-1.1-0.4-1.7-0.4c-0.6,0-1.2,0.1-1.7,0.4
		c-0.5,0.3-0.9,0.7-1.2,1.3c-0.3,0.6-0.5,1.3-0.5,2.1c0,1.2,0.3,2.2,1,2.9c0.6,0.7,1.4,1,2.4,1C331.5,14.3,332.1,14.2,332.7,13.9z"
		/>
	<path class="st0" d="M349.8,4.6v11.6h-2.4v-1.4c-0.4,0.5-0.9,0.9-1.5,1.1c-0.6,0.3-1.3,0.4-1.9,0.4c-0.9,0-1.7-0.2-2.4-0.6
		c-0.7-0.4-1.3-0.9-1.7-1.7c-0.4-0.7-0.6-1.6-0.6-2.7V4.6h2.4v6.4c0,1,0.3,1.8,0.8,2.4c0.5,0.6,1.2,0.8,2.1,0.8
		c0.9,0,1.6-0.3,2.1-0.8c0.5-0.6,0.8-1.3,0.8-2.4V4.6H349.8z"/>
	<path class="st0" d="M356.7,4.9c0.6-0.3,1.3-0.5,2.1-0.5v2.5h-0.6c-0.9,0-1.6,0.2-2.1,0.7c-0.5,0.5-0.7,1.3-0.7,2.5v6.1h-2.4V4.6
		h2.4v1.7C355.7,5.7,356.1,5.3,356.7,4.9z"/>
	<path class="st0" d="M366.6,2.7c-0.3-0.3-0.4-0.7-0.4-1.1c0-0.4,0.1-0.8,0.4-1.1s0.7-0.4,1.1-0.4c0.4,0,0.8,0.1,1.1,0.4
		s0.4,0.7,0.4,1.1c0,0.4-0.1,0.8-0.4,1.1s-0.7,0.4-1.1,0.4C367.2,3.1,366.9,3,366.6,2.7z M368.9,4.6v11.6h-2.4V4.6H368.9z"/>
	<path class="st0" d="M380.3,5c0.7,0.4,1.3,0.9,1.7,1.7c0.4,0.7,0.6,1.6,0.6,2.7v6.8h-2.4V9.7c0-1-0.3-1.8-0.8-2.4
		c-0.5-0.6-1.2-0.8-2.1-0.8c-0.9,0-1.6,0.3-2.1,0.8c-0.5,0.6-0.8,1.3-0.8,2.4v6.5H372V4.6h2.4V6c0.4-0.5,0.9-0.8,1.5-1.1
		c0.6-0.3,1.3-0.4,1.9-0.4C378.8,4.5,379.6,4.6,380.3,5z"/>
	<path class="st0" d="M388.4,6.6V13c0,0.4,0.1,0.7,0.3,0.9c0.2,0.2,0.5,0.3,1,0.3h1.5v2h-1.9c-1.1,0-1.9-0.3-2.5-0.8
		c-0.6-0.5-0.9-1.3-0.9-2.5V6.6h-1.4v-2h1.4V1.8h2.4v2.9h2.8v2H388.4z"/>
	<path class="st0" d="M404,11.3h-8.8c0.1,0.9,0.4,1.7,1,2.2c0.6,0.6,1.4,0.8,2.3,0.8c1.3,0,2.2-0.5,2.7-1.6h2.6
		c-0.4,1.1-1,1.9-1.9,2.6c-0.9,0.7-2.1,1-3.4,1c-1.1,0-2.1-0.2-3-0.7c-0.9-0.5-1.6-1.2-2.1-2.1c-0.5-0.9-0.7-1.9-0.7-3.1
		s0.2-2.2,0.7-3.1c0.5-0.9,1.2-1.6,2-2.1c0.9-0.5,1.9-0.7,3-0.7c1.1,0,2.1,0.2,2.9,0.7c0.9,0.5,1.5,1.1,2,2s0.7,1.9,0.7,3
		C404,10.6,404,11,404,11.3z M401.5,9.4c0-0.9-0.3-1.6-0.9-2.1c-0.6-0.5-1.4-0.8-2.3-0.8c-0.8,0-1.5,0.3-2.1,0.8s-0.9,1.2-1,2.1
		H401.5z"/>
	<path class="st0" d="M410.2,4.9c0.6-0.3,1.3-0.5,2.1-0.5v2.5h-0.6c-0.9,0-1.6,0.2-2.1,0.7c-0.5,0.5-0.7,1.3-0.7,2.5v6.1h-2.4V4.6
		h2.4v1.7C409.1,5.7,409.6,5.3,410.2,4.9z"/>
	<path class="st0" d="M422.7,5c0.7,0.4,1.3,0.9,1.7,1.7c0.4,0.7,0.6,1.6,0.6,2.7v6.8h-2.4V9.7c0-1-0.3-1.8-0.8-2.4
		c-0.5-0.6-1.2-0.8-2.1-0.8c-0.9,0-1.6,0.3-2.1,0.8c-0.5,0.6-0.8,1.3-0.8,2.4v6.5h-2.4V4.6h2.4V6c0.4-0.5,0.9-0.8,1.5-1.1
		c0.6-0.3,1.3-0.4,1.9-0.4C421.2,4.5,422,4.6,422.7,5z"/>
	<path class="st0" d="M438.6,11.3h-8.8c0.1,0.9,0.4,1.7,1,2.2c0.6,0.6,1.4,0.8,2.3,0.8c1.3,0,2.2-0.5,2.7-1.6h2.6
		c-0.4,1.1-1,1.9-1.9,2.6c-0.9,0.7-2.1,1-3.4,1c-1.1,0-2.1-0.2-3-0.7c-0.9-0.5-1.6-1.2-2.1-2.1c-0.5-0.9-0.7-1.9-0.7-3.1
		s0.2-2.2,0.7-3.1c0.5-0.9,1.2-1.6,2-2.1c0.9-0.5,1.9-0.7,3-0.7c1.1,0,2.1,0.2,2.9,0.7c0.9,0.5,1.5,1.1,2,2s0.7,1.9,0.7,3
		C438.7,10.6,438.7,11,438.6,11.3z M436.2,9.4c0-0.9-0.3-1.6-0.9-2.1c-0.6-0.5-1.4-0.8-2.3-0.8c-0.8,0-1.5,0.3-2.1,0.8
		s-0.9,1.2-1,2.1H436.2z"/>
	<path class="st0" d="M443.8,6.6V13c0,0.4,0.1,0.7,0.3,0.9c0.2,0.2,0.5,0.3,1,0.3h1.5v2h-1.9c-1.1,0-1.9-0.3-2.5-0.8
		c-0.6-0.5-0.9-1.3-0.9-2.5V6.6h-1.4v-2h1.4V1.8h2.4v2.9h2.8v2H443.8z"/>
	<path class="st0" d="M159.7,40.9c-0.9-0.5-1.6-1.2-2.1-2.1c-0.5-0.9-0.8-1.9-0.8-3.1c0-1.2,0.3-2.2,0.8-3.1
		c0.5-0.9,1.2-1.6,2.1-2.1c0.9-0.5,1.9-0.7,3-0.7c1.1,0,2.1,0.2,3,0.7c0.9,0.5,1.6,1.2,2.1,2.1c0.5,0.9,0.8,2,0.8,3.1
		c0,1.2-0.3,2.2-0.8,3.1c-0.5,0.9-1.3,1.6-2.2,2.1c-0.9,0.5-1.9,0.7-3,0.7C161.6,41.6,160.6,41.4,159.7,40.9z M164.4,39.1
		c0.5-0.3,1-0.7,1.3-1.3c0.3-0.6,0.5-1.3,0.5-2.1c0-0.8-0.2-1.6-0.5-2.1c-0.3-0.6-0.7-1-1.3-1.3c-0.5-0.3-1.1-0.4-1.7-0.4
		c-0.6,0-1.2,0.1-1.7,0.4c-0.5,0.3-0.9,0.7-1.2,1.3c-0.3,0.6-0.5,1.3-0.5,2.1c0,1.2,0.3,2.2,1,2.9c0.6,0.7,1.4,1,2.4,1
		C163.3,39.5,163.9,39.4,164.4,39.1z"/>
	<path class="st0" d="M174.9,30.1c0.6-0.3,1.3-0.5,2.1-0.5v2.5h-0.6c-0.9,0-1.6,0.2-2.1,0.7c-0.5,0.5-0.7,1.3-0.7,2.5v6.1h-2.4V29.8
		h2.4v1.7C173.8,30.9,174.3,30.5,174.9,30.1z"/>
	<path class="st0" d="M184.5,32.5c0.5-0.9,1.1-1.6,2-2.1c0.8-0.5,1.8-0.7,2.8-0.7c0.8,0,1.5,0.2,2.2,0.5c0.7,0.3,1.3,0.8,1.8,1.3
		v-5.6h2.4v15.5h-2.4v-1.7c-0.4,0.6-0.9,1-1.6,1.4c-0.7,0.4-1.5,0.5-2.4,0.5c-1,0-1.9-0.3-2.8-0.8c-0.8-0.5-1.5-1.2-2-2.1
		c-0.5-0.9-0.7-2-0.7-3.1S184,33.4,184.5,32.5z M192.8,33.5c-0.3-0.6-0.8-1-1.3-1.3c-0.5-0.3-1.1-0.5-1.7-0.5
		c-0.6,0-1.2,0.2-1.7,0.5c-0.5,0.3-1,0.7-1.3,1.3c-0.3,0.6-0.5,1.3-0.5,2.1c0,0.8,0.2,1.5,0.5,2.1s0.8,1.1,1.3,1.4
		c0.5,0.3,1.1,0.5,1.7,0.5c0.6,0,1.2-0.2,1.7-0.5c0.5-0.3,1-0.8,1.3-1.4c0.3-0.6,0.5-1.3,0.5-2.1C193.3,34.8,193.1,34.1,192.8,33.5z
		"/>
	<path class="st0" d="M199,27.9c-0.3-0.3-0.4-0.7-0.4-1.1c0-0.4,0.1-0.8,0.4-1.1s0.7-0.4,1.1-0.4c0.4,0,0.8,0.1,1.1,0.4
		s0.4,0.7,0.4,1.1c0,0.4-0.1,0.8-0.4,1.1s-0.7,0.4-1.1,0.4C199.6,28.3,199.3,28.2,199,27.9z M201.2,29.8v11.6h-2.4V29.8H201.2z"/>
	<path class="st0" d="M211.4,30.2c0.7,0.4,1.2,0.8,1.6,1.3v-1.7h2.4v11.8c0,1.1-0.2,2-0.7,2.8c-0.4,0.8-1.1,1.5-1.9,2
		c-0.8,0.5-1.9,0.7-3,0.7c-1.6,0-2.9-0.4-3.9-1.1c-1-0.7-1.6-1.7-1.8-3h2.4c0.2,0.6,0.6,1.1,1.2,1.5c0.6,0.4,1.3,0.6,2.1,0.6
		c1,0,1.7-0.3,2.3-0.9s0.9-1.4,0.9-2.6v-1.9c-0.4,0.5-1,1-1.6,1.4c-0.7,0.4-1.5,0.6-2.4,0.6c-1,0-1.9-0.3-2.8-0.8
		c-0.8-0.5-1.5-1.2-2-2.1c-0.5-0.9-0.7-2-0.7-3.1s0.2-2.2,0.7-3.1c0.5-0.9,1.1-1.6,2-2.1c0.8-0.5,1.8-0.7,2.8-0.7
		C209.9,29.7,210.7,29.8,211.4,30.2z M212.6,33.5c-0.3-0.6-0.8-1-1.3-1.3c-0.5-0.3-1.1-0.5-1.7-0.5c-0.6,0-1.2,0.2-1.7,0.5
		c-0.5,0.3-1,0.7-1.3,1.3c-0.3,0.6-0.5,1.3-0.5,2.1c0,0.8,0.2,1.5,0.5,2.1s0.8,1.1,1.3,1.4c0.5,0.3,1.1,0.5,1.7,0.5
		c0.6,0,1.2-0.2,1.7-0.5c0.5-0.3,1-0.8,1.3-1.4c0.3-0.6,0.5-1.3,0.5-2.1C213.1,34.8,212.9,34.1,212.6,33.5z"/>
	<path class="st0" d="M218.7,27.9c-0.3-0.3-0.4-0.7-0.4-1.1c0-0.4,0.1-0.8,0.4-1.1s0.7-0.4,1.1-0.4c0.4,0,0.8,0.1,1.1,0.4
		s0.4,0.7,0.4,1.1c0,0.4-0.1,0.8-0.4,1.1s-0.7,0.4-1.1,0.4C219.4,28.3,219,28.2,218.7,27.9z M221,29.8v11.6h-2.4V29.8H221z"/>
	<path class="st0" d="M227,31.8v6.4c0,0.4,0.1,0.7,0.3,0.9c0.2,0.2,0.5,0.3,1,0.3h1.5v2h-1.9c-1.1,0-1.9-0.3-2.5-0.8
		c-0.6-0.5-0.9-1.3-0.9-2.5v-6.4h-1.4v-2h1.4V27h2.4v2.9h2.8v2H227z"/>
	<path class="st0" d="M231.9,32.5c0.5-0.9,1.1-1.6,2-2.1c0.8-0.5,1.8-0.7,2.8-0.7c0.9,0,1.7,0.2,2.4,0.5c0.7,0.4,1.2,0.8,1.6,1.3
		v-1.7h2.4v11.6h-2.4v-1.7c-0.4,0.5-1,1-1.7,1.4s-1.5,0.5-2.4,0.5c-1,0-1.9-0.3-2.7-0.8c-0.8-0.5-1.5-1.2-2-2.1
		c-0.5-0.9-0.7-2-0.7-3.1S231.4,33.4,231.9,32.5z M240.2,33.5c-0.3-0.6-0.8-1-1.3-1.3c-0.5-0.3-1.1-0.5-1.7-0.5
		c-0.6,0-1.2,0.2-1.7,0.5c-0.5,0.3-1,0.7-1.3,1.3c-0.3,0.6-0.5,1.3-0.5,2.1c0,0.8,0.2,1.5,0.5,2.1s0.8,1.1,1.3,1.4
		c0.5,0.3,1.1,0.5,1.7,0.5c0.6,0,1.2-0.2,1.7-0.5c0.5-0.3,1-0.8,1.3-1.4c0.3-0.6,0.5-1.3,0.5-2.1C240.7,34.8,240.5,34.1,240.2,33.5z
		"/>
	<path class="st0" d="M248.6,25.9v15.5h-2.4V25.9H248.6z"/>
	<path class="st0" d="M259,41.1c-0.7-0.3-1.3-0.8-1.7-1.3s-0.6-1.2-0.7-1.9h2.5c0,0.5,0.3,0.9,0.7,1.2c0.4,0.3,1,0.5,1.6,0.5
		c0.7,0,1.2-0.1,1.6-0.4c0.4-0.3,0.6-0.6,0.6-1c0-0.4-0.2-0.8-0.6-1s-1.1-0.4-2-0.7c-0.9-0.2-1.6-0.5-2.1-0.7c-0.5-0.2-1-0.6-1.4-1
		c-0.4-0.5-0.6-1.1-0.6-1.8c0-0.6,0.2-1.2,0.5-1.7s0.9-0.9,1.6-1.2c0.7-0.3,1.5-0.4,2.3-0.4c1.3,0,2.4,0.3,3.2,1
		c0.8,0.7,1.2,1.6,1.3,2.7h-2.4c0-0.5-0.3-0.9-0.6-1.2c-0.4-0.3-0.9-0.5-1.5-0.5c-0.6,0-1.1,0.1-1.4,0.4c-0.3,0.2-0.5,0.6-0.5,0.9
		c0,0.3,0.1,0.6,0.3,0.8s0.5,0.4,0.8,0.5c0.3,0.1,0.8,0.3,1.4,0.5c0.8,0.2,1.5,0.5,2.1,0.7s1,0.6,1.4,1c0.4,0.4,0.6,1,0.6,1.8
		c0,0.7-0.2,1.2-0.5,1.8c-0.4,0.5-0.9,0.9-1.5,1.2s-1.4,0.4-2.3,0.4C260.5,41.6,259.7,41.4,259,41.1z"/>
	<path class="st0" d="M270.5,40.9c-0.9-0.5-1.6-1.2-2.1-2.1c-0.5-0.9-0.8-1.9-0.8-3.1c0-1.2,0.3-2.2,0.8-3.1
		c0.5-0.9,1.2-1.6,2.1-2.1c0.9-0.5,1.9-0.7,3-0.7c1.1,0,2.1,0.2,3,0.7c0.9,0.5,1.6,1.2,2.1,2.1c0.5,0.9,0.8,2,0.8,3.1
		c0,1.2-0.3,2.2-0.8,3.1c-0.5,0.9-1.3,1.6-2.2,2.1c-0.9,0.5-1.9,0.7-3,0.7C272.4,41.6,271.4,41.4,270.5,40.9z M275.2,39.1
		c0.5-0.3,1-0.7,1.3-1.3c0.3-0.6,0.5-1.3,0.5-2.1c0-0.8-0.2-1.6-0.5-2.1c-0.3-0.6-0.7-1-1.3-1.3c-0.5-0.3-1.1-0.4-1.7-0.4
		c-0.6,0-1.2,0.1-1.7,0.4c-0.5,0.3-0.9,0.7-1.2,1.3c-0.3,0.6-0.5,1.3-0.5,2.1c0,1.2,0.3,2.2,1,2.9c0.6,0.7,1.4,1,2.4,1
		C274.1,39.5,274.6,39.4,275.2,39.1z"/>
	<path class="st0" d="M284.2,25.9v15.5h-2.4V25.9H284.2z"/>
	<path class="st0" d="M297.9,29.8v11.6h-2.4V40c-0.4,0.5-0.9,0.9-1.5,1.1c-0.6,0.3-1.3,0.4-1.9,0.4c-0.9,0-1.7-0.2-2.4-0.6
		c-0.7-0.4-1.3-0.9-1.7-1.7c-0.4-0.7-0.6-1.6-0.6-2.7v-6.8h2.4v6.4c0,1,0.3,1.8,0.8,2.4c0.5,0.6,1.2,0.8,2.1,0.8
		c0.9,0,1.6-0.3,2.1-0.8c0.5-0.6,0.8-1.3,0.8-2.4v-6.4H297.9z"/>
	<path class="st0" d="M303.8,31.8v6.4c0,0.4,0.1,0.7,0.3,0.9c0.2,0.2,0.5,0.3,1,0.3h1.5v2h-1.9c-1.1,0-1.9-0.3-2.5-0.8
		c-0.6-0.5-0.9-1.3-0.9-2.5v-6.4H300v-2h1.4V27h2.4v2.9h2.8v2H303.8z"/>
	<path class="st0" d="M308.9,27.9c-0.3-0.3-0.4-0.7-0.4-1.1c0-0.4,0.1-0.8,0.4-1.1s0.7-0.4,1.1-0.4c0.4,0,0.8,0.1,1.1,0.4
		s0.4,0.7,0.4,1.1c0,0.4-0.1,0.8-0.4,1.1s-0.7,0.4-1.1,0.4C309.6,28.3,309.2,28.2,308.9,27.9z M311.2,29.8v11.6h-2.4V29.8H311.2z"/>
	<path class="st0" d="M316.4,40.9c-0.9-0.5-1.6-1.2-2.1-2.1c-0.5-0.9-0.8-1.9-0.8-3.1c0-1.2,0.3-2.2,0.8-3.1
		c0.5-0.9,1.2-1.6,2.1-2.1c0.9-0.5,1.9-0.7,3-0.7c1.1,0,2.1,0.2,3,0.7c0.9,0.5,1.6,1.2,2.1,2.1c0.5,0.9,0.8,2,0.8,3.1
		c0,1.2-0.3,2.2-0.8,3.1c-0.5,0.9-1.3,1.6-2.2,2.1c-0.9,0.5-1.9,0.7-3,0.7C318.3,41.6,317.3,41.4,316.4,40.9z M321.1,39.1
		c0.5-0.3,1-0.7,1.3-1.3c0.3-0.6,0.5-1.3,0.5-2.1c0-0.8-0.2-1.6-0.5-2.1c-0.3-0.6-0.7-1-1.3-1.3c-0.5-0.3-1.1-0.4-1.7-0.4
		c-0.6,0-1.2,0.1-1.7,0.4c-0.5,0.3-0.9,0.7-1.2,1.3c-0.3,0.6-0.5,1.3-0.5,2.1c0,1.2,0.3,2.2,1,2.9c0.6,0.7,1.4,1,2.4,1
		C320,39.5,320.6,39.4,321.1,39.1z"/>
	<path class="st0" d="M336,30.2c0.7,0.4,1.3,0.9,1.7,1.7c0.4,0.7,0.6,1.6,0.6,2.7v6.8H336v-6.5c0-1-0.3-1.8-0.8-2.4
		c-0.5-0.6-1.2-0.8-2.1-0.8c-0.9,0-1.6,0.3-2.1,0.8c-0.5,0.6-0.8,1.3-0.8,2.4v6.5h-2.4V29.8h2.4v1.3c0.4-0.5,0.9-0.8,1.5-1.1
		c0.6-0.3,1.3-0.4,1.9-0.4C334.5,29.7,335.3,29.8,336,30.2z"/>
	<path class="st0" d="M355.1,30.2c0.7,0.4,1.3,0.9,1.7,1.7c0.4,0.7,0.6,1.6,0.6,2.7v6.8h-2.4v-6.5c0-1-0.3-1.8-0.8-2.4
		c-0.5-0.6-1.2-0.8-2.1-0.8c-0.9,0-1.6,0.3-2.1,0.8c-0.5,0.6-0.8,1.3-0.8,2.4v6.5h-2.4V29.8h2.4v1.3c0.4-0.5,0.9-0.8,1.5-1.1
		c0.6-0.3,1.3-0.4,1.9-0.4C353.6,29.7,354.4,29.8,355.1,30.2z"/>
	<path class="st0" d="M362.5,40.9c-0.9-0.5-1.6-1.2-2.1-2.1c-0.5-0.9-0.8-1.9-0.8-3.1c0-1.2,0.3-2.2,0.8-3.1
		c0.5-0.9,1.2-1.6,2.1-2.1c0.9-0.5,1.9-0.7,3-0.7c1.1,0,2.1,0.2,3,0.7c0.9,0.5,1.6,1.2,2.1,2.1c0.5,0.9,0.8,2,0.8,3.1
		c0,1.2-0.3,2.2-0.8,3.1c-0.5,0.9-1.3,1.6-2.2,2.1c-0.9,0.5-1.9,0.7-3,0.7C364.4,41.6,363.4,41.4,362.5,40.9z M367.2,39.1
		c0.5-0.3,1-0.7,1.3-1.3c0.3-0.6,0.5-1.3,0.5-2.1c0-0.8-0.2-1.6-0.5-2.1c-0.3-0.6-0.7-1-1.3-1.3c-0.5-0.3-1.1-0.4-1.7-0.4
		c-0.6,0-1.2,0.1-1.7,0.4c-0.5,0.3-0.9,0.7-1.2,1.3c-0.3,0.6-0.5,1.3-0.5,2.1c0,1.2,0.3,2.2,1,2.9c0.6,0.7,1.4,1,2.4,1
		C366.1,39.5,366.7,39.4,367.2,39.1z"/>
	<path class="st0" d="M376.7,31.8v6.4c0,0.4,0.1,0.7,0.3,0.9c0.2,0.2,0.5,0.3,1,0.3h1.5v2h-1.9c-1.1,0-1.9-0.3-2.5-0.8
		c-0.6-0.5-0.9-1.3-0.9-2.5v-6.4h-1.4v-2h1.4V27h2.4v2.9h2.8v2H376.7z"/>
	<path class="st0" d="M402.7,29.8l-3.6,11.6h-2.5l-2.3-8.5l-2.3,8.5h-2.5l-3.6-11.6h2.4l2.4,9.3l2.5-9.3h2.5l2.4,9.3l2.4-9.3H402.7z
		"/>
	<path class="st0" d="M406.5,40.9c-0.9-0.5-1.6-1.2-2.1-2.1c-0.5-0.9-0.8-1.9-0.8-3.1c0-1.2,0.3-2.2,0.8-3.1
		c0.5-0.9,1.2-1.6,2.1-2.1c0.9-0.5,1.9-0.7,3-0.7c1.1,0,2.1,0.2,3,0.7c0.9,0.5,1.6,1.2,2.1,2.1c0.5,0.9,0.8,2,0.8,3.1
		c0,1.2-0.3,2.2-0.8,3.1c-0.5,0.9-1.3,1.6-2.2,2.1c-0.9,0.5-1.9,0.7-3,0.7C408.4,41.6,407.4,41.4,406.5,40.9z M411.2,39.1
		c0.5-0.3,1-0.7,1.3-1.3c0.3-0.6,0.5-1.3,0.5-2.1c0-0.8-0.2-1.6-0.5-2.1c-0.3-0.6-0.7-1-1.3-1.3c-0.5-0.3-1.1-0.4-1.7-0.4
		c-0.6,0-1.2,0.1-1.7,0.4c-0.5,0.3-0.9,0.7-1.2,1.3c-0.3,0.6-0.5,1.3-0.5,2.1c0,1.2,0.3,2.2,1,2.9c0.6,0.7,1.4,1,2.4,1
		C410.1,39.5,410.7,39.4,411.2,39.1z"/>
	<path class="st0" d="M421.7,30.1c0.6-0.3,1.3-0.5,2.1-0.5v2.5h-0.6c-0.9,0-1.6,0.2-2.1,0.7c-0.5,0.5-0.7,1.3-0.7,2.5v6.1h-2.4V29.8
		h2.4v1.7C420.6,30.9,421.1,30.5,421.7,30.1z"/>
	<path class="st0" d="M430.5,35.6l5.3,5.8h-3.2l-4.3-5v5h-2.4V25.9h2.4v9l4.2-5.1h3.3L430.5,35.6z"/>
	<path class="st0" d="M444.9,27.8c0.9,0.8,1.3,1.9,1.3,3.2c0,1.4-0.4,2.5-1.3,3.2c-0.9,0.7-2.1,1.1-3.6,1.1l-0.1,1.7h-2.1l-0.1-3.3
		h0.7c1.4,0,2.4-0.2,3.1-0.5c0.7-0.4,1.1-1.1,1.1-2.1c0-0.7-0.2-1.3-0.6-1.7c-0.4-0.4-1-0.6-1.8-0.6c-0.8,0-1.4,0.2-1.8,0.6
		c-0.4,0.4-0.7,1-0.7,1.7h-2.2c0-0.8,0.2-1.6,0.6-2.2c0.4-0.7,0.9-1.2,1.6-1.5c0.7-0.4,1.5-0.5,2.5-0.5
		C442.9,26.6,444.1,27,444.9,27.8z M439.1,41.1c-0.3-0.3-0.4-0.7-0.4-1.1c0-0.4,0.1-0.8,0.4-1.1s0.7-0.4,1.1-0.4
		c0.4,0,0.8,0.1,1.1,0.4c0.3,0.3,0.4,0.7,0.4,1.1c0,0.4-0.1,0.8-0.4,1.1c-0.3,0.3-0.7,0.4-1.1,0.4C439.7,41.6,439.3,41.4,439.1,41.1
		z"/>
</g>
<g>
	<path class="st0" d="M8.4,162.3H7.3l-6.2-9.4v9.4H0v-11.2h1.1l6.2,9.4v-9.4h1.1V162.3z"/>
	<path class="st0" d="M18.8,158.3h-7.2c0,0.7,0.2,1.2,0.5,1.7c0.3,0.5,0.7,0.8,1.1,1.1c0.5,0.2,1,0.4,1.5,0.4c0.7,0,1.3-0.2,1.8-0.5
		c0.5-0.4,0.8-0.8,1-1.4h1.2c-0.2,0.9-0.7,1.5-1.4,2.1c-0.7,0.5-1.6,0.8-2.6,0.8c-0.8,0-1.6-0.2-2.2-0.6c-0.7-0.4-1.2-0.9-1.5-1.6
		c-0.4-0.7-0.6-1.5-0.6-2.4c0-0.9,0.2-1.7,0.5-2.4c0.4-0.7,0.9-1.2,1.5-1.6s1.4-0.5,2.2-0.5s1.6,0.2,2.2,0.5s1.1,0.9,1.4,1.5
		s0.5,1.3,0.5,2C18.9,157.8,18.9,158.1,18.8,158.3z M17.4,155.8c-0.3-0.5-0.6-0.8-1.1-1c-0.5-0.2-1-0.4-1.5-0.4
		c-0.8,0-1.5,0.3-2.1,0.8c-0.6,0.5-0.9,1.3-1,2.3h6.1C17.8,156.8,17.6,156.2,17.4,155.8z"/>
	<path class="st0" d="M24,161.2l2.9-7.6h1.2l-3.5,8.7h-1.3l-3.5-8.7h1.2L24,161.2z"/>
	<path class="st0" d="M37.6,158.3h-7.2c0,0.7,0.2,1.2,0.5,1.7c0.3,0.5,0.7,0.8,1.1,1.1c0.5,0.2,1,0.4,1.5,0.4c0.7,0,1.3-0.2,1.8-0.5
		c0.5-0.4,0.8-0.8,1-1.4h1.2c-0.2,0.9-0.7,1.5-1.4,2.1c-0.7,0.5-1.6,0.8-2.6,0.8c-0.8,0-1.6-0.2-2.2-0.6c-0.7-0.4-1.2-0.9-1.5-1.6
		c-0.4-0.7-0.6-1.5-0.6-2.4c0-0.9,0.2-1.7,0.5-2.4c0.4-0.7,0.9-1.2,1.5-1.6s1.4-0.5,2.2-0.5s1.6,0.2,2.2,0.5s1.1,0.9,1.4,1.5
		s0.5,1.3,0.5,2C37.6,157.8,37.6,158.1,37.6,158.3z M36.1,155.8c-0.3-0.5-0.6-0.8-1.1-1c-0.5-0.2-1-0.4-1.5-0.4
		c-0.8,0-1.5,0.3-2.1,0.8c-0.6,0.5-0.9,1.3-1,2.3h6.1C36.5,156.8,36.3,156.2,36.1,155.8z"/>
	<path class="st0" d="M41.9,153.8c0.5-0.3,1.1-0.4,1.9-0.4v1.2h-0.3c-0.8,0-1.5,0.2-2,0.7c-0.5,0.4-0.7,1.2-0.7,2.2v4.9h-1.1v-8.7
		h1.1v1.6C41,154.5,41.4,154.1,41.9,153.8z"/>
</g>
<g>
	<path class="st0" d="M108.7,162c-0.6-0.3-1-0.6-1.3-1.1c-0.3-0.5-0.5-1-0.5-1.5h1.2c0.1,0.5,0.3,1,0.7,1.4c0.4,0.4,1.1,0.6,1.9,0.6
		c0.8,0,1.4-0.2,1.8-0.6c0.4-0.4,0.7-0.9,0.7-1.5c0-0.5-0.1-0.9-0.4-1.2c-0.2-0.3-0.5-0.5-0.9-0.7c-0.4-0.1-0.9-0.3-1.5-0.5
		c-0.7-0.2-1.3-0.4-1.8-0.6s-0.8-0.5-1.1-0.9s-0.5-1-0.5-1.6c0-0.6,0.1-1.1,0.4-1.5c0.3-0.5,0.7-0.8,1.3-1.1
		c0.5-0.3,1.2-0.4,1.9-0.4c1,0,1.9,0.3,2.5,0.8c0.6,0.5,1,1.2,1.1,2H113c-0.1-0.5-0.3-0.9-0.8-1.2s-1-0.5-1.7-0.5
		c-0.7,0-1.2,0.2-1.7,0.5s-0.7,0.8-0.7,1.5c0,0.5,0.1,0.8,0.4,1.1c0.2,0.3,0.6,0.5,0.9,0.7s0.9,0.3,1.5,0.5c0.7,0.2,1.3,0.4,1.8,0.6
		s0.8,0.5,1.1,0.9c0.3,0.4,0.5,0.9,0.5,1.6c0,0.5-0.1,1-0.4,1.5c-0.3,0.5-0.7,0.8-1.2,1.1c-0.5,0.3-1.2,0.4-2,0.4
		C109.9,162.4,109.3,162.3,108.7,162z"/>
	<path class="st0" d="M124.3,158.3h-7.2c0,0.7,0.2,1.2,0.5,1.7c0.3,0.5,0.7,0.8,1.1,1.1c0.5,0.2,1,0.4,1.5,0.4
		c0.7,0,1.3-0.2,1.8-0.5c0.5-0.4,0.8-0.8,1-1.4h1.2c-0.2,0.9-0.7,1.5-1.4,2.1c-0.7,0.5-1.6,0.8-2.6,0.8c-0.8,0-1.6-0.2-2.2-0.6
		c-0.7-0.4-1.2-0.9-1.5-1.6c-0.4-0.7-0.6-1.5-0.6-2.4c0-0.9,0.2-1.7,0.5-2.4c0.4-0.7,0.9-1.2,1.5-1.6s1.4-0.5,2.2-0.5
		s1.6,0.2,2.2,0.5s1.1,0.9,1.4,1.5s0.5,1.3,0.5,2C124.3,157.8,124.3,158.1,124.3,158.3z M122.8,155.8c-0.3-0.5-0.6-0.8-1.1-1
		c-0.5-0.2-1-0.4-1.5-0.4c-0.8,0-1.5,0.3-2.1,0.8c-0.6,0.5-0.9,1.3-1,2.3h6.1C123.2,156.8,123.1,156.2,122.8,155.8z"/>
	<path class="st0" d="M129.5,161.2l2.9-7.6h1.2l-3.5,8.7h-1.3l-3.5-8.7h1.2L129.5,161.2z"/>
	<path class="st0" d="M143,158.3h-7.2c0,0.7,0.2,1.2,0.5,1.7c0.3,0.5,0.7,0.8,1.1,1.1c0.5,0.2,1,0.4,1.5,0.4c0.7,0,1.3-0.2,1.8-0.5
		c0.5-0.4,0.8-0.8,1-1.4h1.2c-0.2,0.9-0.7,1.5-1.4,2.1c-0.7,0.5-1.6,0.8-2.6,0.8c-0.8,0-1.6-0.2-2.2-0.6c-0.7-0.4-1.2-0.9-1.5-1.6
		c-0.4-0.7-0.6-1.5-0.6-2.4c0-0.9,0.2-1.7,0.5-2.4c0.4-0.7,0.9-1.2,1.5-1.6s1.4-0.5,2.2-0.5s1.6,0.2,2.2,0.5s1.1,0.9,1.4,1.5
		s0.5,1.3,0.5,2C143,157.8,143,158.1,143,158.3z M141.5,155.8c-0.3-0.5-0.6-0.8-1.1-1c-0.5-0.2-1-0.4-1.5-0.4
		c-0.8,0-1.5,0.3-2.1,0.8c-0.6,0.5-0.9,1.3-1,2.3h6.1C141.9,156.8,141.8,156.2,141.5,155.8z"/>
	<path class="st0" d="M147.3,153.8c0.5-0.3,1.1-0.4,1.9-0.4v1.2h-0.3c-0.8,0-1.5,0.2-2,0.7c-0.5,0.4-0.7,1.2-0.7,2.2v4.9h-1.1v-8.7
		h1.1v1.6C146.5,154.5,146.8,154.1,147.3,153.8z"/>
	<path class="st0" d="M150.9,155.5c0.4-0.7,0.9-1.2,1.5-1.6s1.4-0.6,2.2-0.6c0.8,0,1.5,0.2,2.2,0.6c0.6,0.4,1,0.9,1.3,1.5v-1.9h1.1
		v8.7H158v-1.9c-0.3,0.6-0.7,1.1-1.3,1.5c-0.6,0.4-1.3,0.6-2.2,0.6c-0.8,0-1.5-0.2-2.1-0.6c-0.6-0.4-1.1-0.9-1.5-1.6
		c-0.4-0.7-0.5-1.5-0.5-2.4S150.5,156.2,150.9,155.5z M157.6,156.1c-0.3-0.5-0.7-0.9-1.2-1.2s-1-0.4-1.6-0.4c-0.6,0-1.2,0.1-1.7,0.4
		c-0.5,0.3-0.9,0.7-1.2,1.2c-0.3,0.5-0.4,1.2-0.4,1.9c0,0.7,0.1,1.3,0.4,1.9c0.3,0.5,0.7,0.9,1.2,1.2c0.5,0.3,1,0.4,1.7,0.4
		c0.6,0,1.1-0.1,1.6-0.4c0.5-0.3,0.9-0.7,1.2-1.2c0.3-0.5,0.4-1.2,0.4-1.9C158,157.2,157.9,156.6,157.6,156.1z"/>
	<path class="st0" d="M162.8,150.4v11.8h-1.1v-11.8H162.8z"/>
	<path class="st0" d="M171.2,154.5v5.4c0,0.5,0.1,0.9,0.3,1.1c0.2,0.2,0.6,0.3,1.1,0.3h1v1h-1.2c-0.8,0-1.4-0.2-1.8-0.6
		c-0.4-0.4-0.6-1-0.6-1.8v-5.4h-1.2v-0.9h1.2v-2.2h1.1v2.2h2.4v0.9H171.2z"/>
	<path class="st0" d="M175.4,151.7c-0.2-0.2-0.2-0.4-0.2-0.6c0-0.2,0.1-0.4,0.2-0.6s0.4-0.2,0.6-0.2c0.2,0,0.4,0.1,0.6,0.2
		s0.2,0.3,0.2,0.6c0,0.2-0.1,0.4-0.2,0.6s-0.4,0.2-0.6,0.2C175.8,151.9,175.6,151.8,175.4,151.7z M176.5,153.5v8.7h-1.1v-8.7H176.5z
		"/>
	<path class="st0" d="M192,154.3c0.6,0.6,1,1.6,1,2.8v5.1h-1.1v-5c0-0.9-0.2-1.7-0.7-2.2c-0.5-0.5-1.1-0.8-1.9-0.8
		c-0.8,0-1.5,0.3-2,0.8c-0.5,0.5-0.7,1.3-0.7,2.4v4.7h-1.1v-5c0-0.9-0.2-1.7-0.7-2.2c-0.5-0.5-1.1-0.8-1.9-0.8c-0.8,0-1.5,0.3-2,0.8
		c-0.5,0.5-0.7,1.3-0.7,2.4v4.7h-1.1v-8.7h1.1v1.5c0.3-0.5,0.7-1,1.2-1.2c0.5-0.3,1.1-0.4,1.7-0.4c0.8,0,1.4,0.2,2,0.5
		c0.6,0.4,1,0.9,1.2,1.6c0.2-0.7,0.6-1.2,1.2-1.6c0.6-0.4,1.2-0.6,1.9-0.6C190.5,153.4,191.3,153.7,192,154.3z"/>
	<path class="st0" d="M203.3,158.3h-7.2c0,0.7,0.2,1.2,0.5,1.7c0.3,0.5,0.7,0.8,1.1,1.1c0.5,0.2,1,0.4,1.5,0.4
		c0.7,0,1.3-0.2,1.8-0.5c0.5-0.4,0.8-0.8,1-1.4h1.2c-0.2,0.9-0.7,1.5-1.4,2.1c-0.7,0.5-1.6,0.8-2.6,0.8c-0.8,0-1.6-0.2-2.2-0.6
		c-0.7-0.4-1.2-0.9-1.5-1.6c-0.4-0.7-0.6-1.5-0.6-2.4c0-0.9,0.2-1.7,0.5-2.4c0.4-0.7,0.9-1.2,1.5-1.6s1.4-0.5,2.2-0.5
		s1.6,0.2,2.2,0.5s1.1,0.9,1.4,1.5s0.5,1.3,0.5,2C203.3,157.8,203.3,158.1,203.3,158.3z M201.8,155.8c-0.3-0.5-0.6-0.8-1.1-1
		c-0.5-0.2-1-0.4-1.5-0.4c-0.8,0-1.5,0.3-2.1,0.8c-0.6,0.5-0.9,1.3-1,2.3h6.1C202.2,156.8,202.1,156.2,201.8,155.8z"/>
	<path class="st0" d="M205.9,161.7c-0.6-0.5-1-1.1-1.1-1.9h1.2c0.1,0.5,0.3,0.9,0.7,1.2c0.4,0.3,1,0.5,1.7,0.5
		c0.6,0,1.1-0.1,1.4-0.4s0.5-0.6,0.5-1.1c0-0.3-0.1-0.5-0.3-0.7c-0.2-0.2-0.4-0.3-0.7-0.5c-0.3-0.1-0.7-0.2-1.2-0.4
		c-0.7-0.2-1.2-0.3-1.6-0.5c-0.4-0.2-0.7-0.4-1-0.8c-0.3-0.3-0.4-0.8-0.4-1.4c0-0.4,0.1-0.8,0.4-1.2c0.3-0.4,0.6-0.7,1.1-0.9
		c0.5-0.2,1-0.3,1.6-0.3c0.9,0,1.7,0.2,2.3,0.7s0.9,1.1,0.9,2h-1.1c0-0.5-0.2-0.9-0.6-1.2c-0.4-0.3-0.9-0.5-1.5-0.5
		c-0.6,0-1,0.1-1.4,0.4c-0.4,0.3-0.5,0.6-0.5,1c0,0.3,0.1,0.6,0.3,0.8s0.5,0.4,0.8,0.5c0.3,0.1,0.7,0.3,1.2,0.4
		c0.6,0.2,1.1,0.3,1.5,0.5c0.4,0.2,0.7,0.4,1,0.7c0.3,0.3,0.4,0.7,0.4,1.2c0,0.5-0.1,0.9-0.4,1.3s-0.6,0.7-1.1,0.9
		c-0.5,0.2-1,0.3-1.6,0.3C207.4,162.4,206.6,162.2,205.9,161.7z"/>
	<path class="st0" d="M109.7,173.2c0.6-0.4,1.3-0.6,2.2-0.6c0.8,0,1.5,0.2,2.1,0.6s1.1,0.9,1.5,1.6c0.4,0.7,0.5,1.5,0.5,2.4
		s-0.2,1.7-0.5,2.4c-0.4,0.7-0.9,1.2-1.5,1.6c-0.6,0.4-1.3,0.6-2.1,0.6c-0.8,0-1.5-0.2-2.1-0.6c-0.6-0.4-1.1-0.9-1.3-1.5v6h-1.1
		v-12.9h1.1v1.9C108.7,174.1,109.1,173.6,109.7,173.2z M114.5,175.2c-0.3-0.5-0.7-0.9-1.2-1.2c-0.5-0.3-1-0.4-1.7-0.4
		c-0.6,0-1.1,0.1-1.6,0.4s-0.9,0.7-1.2,1.2c-0.3,0.5-0.4,1.2-0.4,1.9c0,0.7,0.1,1.3,0.4,1.9c0.3,0.5,0.7,0.9,1.2,1.2
		c0.5,0.3,1,0.4,1.6,0.4c0.6,0,1.2-0.1,1.7-0.4s0.9-0.7,1.2-1.2c0.3-0.5,0.4-1.2,0.4-1.9C114.9,176.4,114.7,175.7,114.5,175.2z"/>
	<path class="st0" d="M126,177.5h-7.2c0,0.7,0.2,1.2,0.5,1.7c0.3,0.5,0.7,0.8,1.1,1.1c0.5,0.2,1,0.4,1.5,0.4c0.7,0,1.3-0.2,1.8-0.5
		c0.5-0.4,0.8-0.8,1-1.4h1.2c-0.2,0.9-0.7,1.5-1.4,2.1c-0.7,0.5-1.6,0.8-2.6,0.8c-0.8,0-1.6-0.2-2.2-0.6c-0.7-0.4-1.2-0.9-1.5-1.6
		c-0.4-0.7-0.6-1.5-0.6-2.4c0-0.9,0.2-1.7,0.5-2.4c0.4-0.7,0.9-1.2,1.5-1.6s1.4-0.5,2.2-0.5s1.6,0.2,2.2,0.5s1.1,0.9,1.4,1.5
		s0.5,1.3,0.5,2C126,177,126,177.3,126,177.5z M124.5,175c-0.3-0.5-0.6-0.8-1.1-1c-0.5-0.2-1-0.4-1.5-0.4c-0.8,0-1.5,0.3-2.1,0.8
		c-0.6,0.5-0.9,1.3-1,2.3h6.1C124.9,176,124.7,175.4,124.5,175z"/>
	<path class="st0" d="M130.3,173c0.5-0.3,1.1-0.4,1.9-0.4v1.2h-0.3c-0.8,0-1.5,0.2-2,0.7c-0.5,0.4-0.7,1.2-0.7,2.2v4.9H128v-8.7h1.1
		v1.6C129.4,173.7,129.8,173.3,130.3,173z"/>
	<path class="st0" d="M151.1,173.5c0.6,0.6,1,1.6,1,2.8v5.1H151v-5c0-0.9-0.2-1.7-0.7-2.2c-0.5-0.5-1.1-0.8-1.9-0.8
		c-0.8,0-1.5,0.3-2,0.8c-0.5,0.5-0.7,1.3-0.7,2.4v4.7h-1.1v-5c0-0.9-0.2-1.7-0.7-2.2c-0.5-0.5-1.1-0.8-1.9-0.8c-0.8,0-1.5,0.3-2,0.8
		c-0.5,0.5-0.7,1.3-0.7,2.4v4.7h-1.1v-8.7h1.1v1.5c0.3-0.5,0.7-1,1.2-1.2c0.5-0.3,1.1-0.4,1.7-0.4c0.8,0,1.4,0.2,2,0.5
		c0.6,0.4,1,0.9,1.2,1.6c0.2-0.7,0.6-1.2,1.2-1.6c0.6-0.4,1.2-0.6,1.9-0.6C149.6,172.6,150.5,172.9,151.1,173.5z"/>
	<path class="st0" d="M156.2,181.1c-0.7-0.4-1.2-0.9-1.6-1.6c-0.4-0.7-0.6-1.5-0.6-2.4c0-0.9,0.2-1.7,0.6-2.4
		c0.4-0.7,0.9-1.2,1.6-1.6s1.4-0.6,2.2-0.6s1.6,0.2,2.2,0.6c0.7,0.4,1.2,0.9,1.6,1.6c0.4,0.7,0.6,1.5,0.6,2.4c0,0.9-0.2,1.7-0.6,2.4
		s-0.9,1.2-1.6,1.6c-0.7,0.4-1.4,0.6-2.2,0.6S156.8,181.4,156.2,181.1z M160,180.2c0.5-0.3,0.9-0.7,1.2-1.2c0.3-0.5,0.5-1.2,0.5-1.9
		s-0.1-1.4-0.4-1.9c-0.3-0.5-0.7-0.9-1.2-1.2c-0.5-0.3-1-0.4-1.6-0.4s-1.1,0.1-1.6,0.4c-0.5,0.3-0.9,0.7-1.2,1.2
		c-0.3,0.5-0.4,1.2-0.4,1.9s0.1,1.4,0.4,1.9c0.3,0.5,0.7,0.9,1.2,1.2c0.5,0.3,1,0.4,1.6,0.4C159,180.6,159.5,180.5,160,180.2z"/>
	<path class="st0" d="M171.5,173.5c0.7,0.6,1,1.6,1,2.8v5.1h-1.1v-5c0-0.9-0.2-1.7-0.7-2.2s-1.1-0.8-1.9-0.8c-0.8,0-1.5,0.3-2,0.8
		c-0.5,0.5-0.8,1.3-0.8,2.4v4.8h-1.1v-8.7h1.1v1.5c0.3-0.5,0.7-0.9,1.2-1.2c0.5-0.3,1.1-0.4,1.8-0.4
		C170,172.6,170.8,172.9,171.5,173.5z"/>
	<path class="st0" d="M176.4,173.7v5.4c0,0.5,0.1,0.9,0.3,1.1c0.2,0.2,0.6,0.3,1.1,0.3h1v1h-1.2c-0.8,0-1.4-0.2-1.8-0.6
		c-0.4-0.4-0.6-1-0.6-1.8v-5.4h-1.2v-0.9h1.2v-2.2h1.1v2.2h2.4v0.9H176.4z"/>
	<path class="st0" d="M186.6,173c0.5,0.3,0.9,0.7,1.2,1.3c0.3,0.6,0.5,1.3,0.5,2.1v5.1h-1.1v-5c0-0.9-0.2-1.7-0.7-2.2
		s-1.1-0.8-1.9-0.8c-0.8,0-1.5,0.3-2,0.8c-0.5,0.5-0.8,1.3-0.8,2.4v4.8h-1.1v-11.8h1.1v4.6c0.3-0.5,0.7-0.9,1.2-1.2
		c0.5-0.3,1.1-0.4,1.8-0.4C185.5,172.6,186.1,172.7,186.6,173z"/>
</g>
<g>
	<path class="st0" d="M217.8,240.7c-0.6-0.3-1-0.6-1.3-1.1c-0.3-0.5-0.5-1-0.5-1.5h1.2c0.1,0.5,0.3,1,0.7,1.4
		c0.4,0.4,1.1,0.6,1.9,0.6c0.8,0,1.4-0.2,1.8-0.6c0.4-0.4,0.7-0.9,0.7-1.5c0-0.5-0.1-0.9-0.4-1.2c-0.2-0.3-0.5-0.5-0.9-0.7
		c-0.4-0.1-0.9-0.3-1.5-0.5c-0.7-0.2-1.3-0.4-1.8-0.6c-0.4-0.2-0.8-0.5-1.1-0.9s-0.5-1-0.5-1.6c0-0.6,0.1-1.1,0.4-1.5
		c0.3-0.5,0.7-0.8,1.3-1.1s1.2-0.4,1.9-0.4c1,0,1.9,0.3,2.5,0.8s1,1.2,1.1,2h-1.2c-0.1-0.5-0.3-0.9-0.8-1.2s-1-0.5-1.7-0.5
		c-0.7,0-1.2,0.2-1.7,0.5s-0.7,0.8-0.7,1.5c0,0.5,0.1,0.8,0.4,1.1s0.6,0.5,0.9,0.7s0.9,0.3,1.5,0.5c0.7,0.2,1.3,0.4,1.8,0.6
		s0.8,0.5,1.1,0.9c0.3,0.4,0.5,1,0.5,1.6c0,0.5-0.1,1-0.4,1.5c-0.3,0.5-0.7,0.8-1.2,1.1c-0.5,0.3-1.2,0.4-2,0.4
		C219,241.1,218.4,240.9,217.8,240.7z"/>
	<path class="st0" d="M233.4,237h-7.2c0,0.7,0.2,1.2,0.5,1.7c0.3,0.5,0.7,0.8,1.1,1.1c0.5,0.2,1,0.4,1.5,0.4c0.7,0,1.3-0.2,1.8-0.5
		s0.8-0.8,1-1.4h1.2c-0.2,0.9-0.7,1.5-1.4,2.1c-0.7,0.5-1.6,0.8-2.6,0.8c-0.8,0-1.6-0.2-2.2-0.6s-1.2-0.9-1.5-1.6
		c-0.4-0.7-0.6-1.5-0.6-2.4c0-0.9,0.2-1.7,0.5-2.4c0.4-0.7,0.9-1.2,1.5-1.6c0.7-0.4,1.4-0.5,2.2-0.5s1.6,0.2,2.2,0.5
		c0.6,0.4,1.1,0.9,1.4,1.5s0.5,1.3,0.5,2C233.4,236.5,233.4,236.8,233.4,237z M231.9,234.4c-0.3-0.5-0.6-0.8-1.1-1s-1-0.4-1.5-0.4
		c-0.8,0-1.5,0.3-2.1,0.8s-0.9,1.3-1,2.3h6.1C232.3,235.4,232.2,234.9,231.9,234.4z"/>
	<path class="st0" d="M238.6,239.9l2.9-7.6h1.2l-3.5,8.7h-1.3l-3.5-8.7h1.2L238.6,239.9z"/>
	<path class="st0" d="M252.1,237h-7.2c0,0.7,0.2,1.2,0.5,1.7c0.3,0.5,0.7,0.8,1.1,1.1c0.5,0.2,1,0.4,1.5,0.4c0.7,0,1.3-0.2,1.8-0.5
		s0.8-0.8,1-1.4h1.2c-0.2,0.9-0.7,1.5-1.4,2.1c-0.7,0.5-1.6,0.8-2.6,0.8c-0.8,0-1.6-0.2-2.2-0.6s-1.2-0.9-1.5-1.6
		c-0.4-0.7-0.6-1.5-0.6-2.4c0-0.9,0.2-1.7,0.5-2.4c0.4-0.7,0.9-1.2,1.5-1.6c0.7-0.4,1.4-0.5,2.2-0.5s1.6,0.2,2.2,0.5
		c0.6,0.4,1.1,0.9,1.4,1.5s0.5,1.3,0.5,2C252.1,236.5,252.1,236.8,252.1,237z M250.6,234.4c-0.3-0.5-0.6-0.8-1.1-1s-1-0.4-1.5-0.4
		c-0.8,0-1.5,0.3-2.1,0.8s-0.9,1.3-1,2.3h6.1C251,235.4,250.9,234.9,250.6,234.4z"/>
	<path class="st0" d="M256.4,232.5c0.5-0.3,1.1-0.4,1.9-0.4v1.2H258c-0.8,0-1.5,0.2-2,0.7c-0.5,0.4-0.7,1.2-0.7,2.2v4.9h-1.1v-8.7
		h1.1v1.6C255.5,233.2,255.9,232.8,256.4,232.5z"/>
	<path class="st0" d="M260,234.2c0.4-0.7,0.9-1.2,1.5-1.6s1.4-0.6,2.2-0.6c0.8,0,1.5,0.2,2.2,0.6c0.6,0.4,1,0.9,1.3,1.5v-1.9h1.1
		v8.7h-1.1V239c-0.3,0.6-0.7,1.1-1.3,1.5c-0.6,0.4-1.3,0.6-2.2,0.6c-0.8,0-1.5-0.2-2.1-0.6s-1.1-0.9-1.5-1.6s-0.5-1.5-0.5-2.4
		C259.5,235.7,259.6,234.9,260,234.2z M266.7,234.7c-0.3-0.5-0.7-0.9-1.2-1.2s-1-0.4-1.6-0.4c-0.6,0-1.2,0.1-1.7,0.4
		c-0.5,0.3-0.9,0.7-1.2,1.2c-0.3,0.5-0.4,1.2-0.4,1.9c0,0.7,0.1,1.3,0.4,1.9c0.3,0.5,0.7,0.9,1.2,1.2c0.5,0.3,1,0.4,1.7,0.4
		c0.6,0,1.1-0.1,1.6-0.4c0.5-0.3,0.9-0.7,1.2-1.2s0.4-1.2,0.4-1.9C267.1,235.9,266.9,235.3,266.7,234.7z"/>
	<path class="st0" d="M271.9,229.1v11.8h-1.1v-11.8H271.9z"/>
	<path class="st0" d="M280.3,233.2v5.4c0,0.5,0.1,0.9,0.3,1.1c0.2,0.2,0.6,0.3,1.1,0.3h1v1h-1.2c-0.8,0-1.4-0.2-1.8-0.6
		s-0.6-1-0.6-1.8v-5.4h-1.2v-0.9h1.2V230h1.1v2.2h2.4v0.9H280.3z"/>
	<path class="st0" d="M284.5,230.3c-0.2-0.2-0.2-0.4-0.2-0.6s0.1-0.4,0.2-0.6c0.2-0.2,0.4-0.2,0.6-0.2c0.2,0,0.4,0.1,0.6,0.2
		c0.2,0.2,0.2,0.3,0.2,0.6s-0.1,0.4-0.2,0.6s-0.4,0.2-0.6,0.2C284.9,230.6,284.7,230.5,284.5,230.3z M285.6,232.2v8.7h-1.1v-8.7
		H285.6z"/>
	<path class="st0" d="M301.1,233c0.6,0.6,1,1.6,1,2.8v5.1h-1.1v-5c0-0.9-0.2-1.7-0.7-2.2c-0.5-0.5-1.1-0.8-1.9-0.8
		c-0.8,0-1.5,0.3-2,0.8c-0.5,0.5-0.7,1.3-0.7,2.4v4.7h-1.1v-5c0-0.9-0.2-1.7-0.7-2.2c-0.5-0.5-1.1-0.8-1.9-0.8c-0.8,0-1.5,0.3-2,0.8
		c-0.5,0.5-0.7,1.3-0.7,2.4v4.7h-1.1v-8.7h1.1v1.5c0.3-0.5,0.7-1,1.2-1.2s1.1-0.4,1.7-0.4c0.8,0,1.4,0.2,2,0.5
		c0.6,0.4,1,0.9,1.2,1.6c0.2-0.7,0.6-1.2,1.2-1.6c0.6-0.4,1.2-0.6,1.9-0.6C299.6,232,300.4,232.4,301.1,233z"/>
	<path class="st0" d="M312.4,237h-7.2c0,0.7,0.2,1.2,0.5,1.7c0.3,0.5,0.7,0.8,1.1,1.1c0.5,0.2,1,0.4,1.5,0.4c0.7,0,1.3-0.2,1.8-0.5
		s0.8-0.8,1-1.4h1.2c-0.2,0.9-0.7,1.5-1.4,2.1c-0.7,0.5-1.6,0.8-2.6,0.8c-0.8,0-1.6-0.2-2.2-0.6s-1.2-0.9-1.5-1.6
		c-0.4-0.7-0.6-1.5-0.6-2.4c0-0.9,0.2-1.7,0.5-2.4c0.4-0.7,0.9-1.2,1.5-1.6c0.7-0.4,1.4-0.5,2.2-0.5s1.6,0.2,2.2,0.5
		c0.6,0.4,1.1,0.9,1.4,1.5s0.5,1.3,0.5,2C312.4,236.5,312.4,236.8,312.4,237z M310.9,234.4c-0.3-0.5-0.6-0.8-1.1-1s-1-0.4-1.5-0.4
		c-0.8,0-1.5,0.3-2.1,0.8s-0.9,1.3-1,2.3h6.1C311.3,235.4,311.2,234.9,310.9,234.4z"/>
	<path class="st0" d="M315,240.4c-0.6-0.5-1-1.1-1.1-1.9h1.2c0.1,0.5,0.3,0.9,0.7,1.2c0.4,0.3,1,0.5,1.7,0.5c0.6,0,1.1-0.1,1.4-0.4
		s0.5-0.6,0.5-1.1c0-0.3-0.1-0.5-0.3-0.7c-0.2-0.2-0.4-0.3-0.7-0.5c-0.3-0.1-0.7-0.2-1.2-0.4c-0.7-0.2-1.2-0.3-1.6-0.5
		s-0.7-0.4-1-0.8c-0.3-0.3-0.4-0.8-0.4-1.4c0-0.4,0.1-0.8,0.4-1.2c0.3-0.4,0.6-0.7,1.1-0.9c0.5-0.2,1-0.3,1.6-0.3
		c0.9,0,1.7,0.2,2.3,0.7s0.9,1.1,0.9,2h-1.1c0-0.5-0.2-0.9-0.6-1.2s-0.9-0.5-1.5-0.5c-0.6,0-1,0.1-1.4,0.4c-0.4,0.3-0.5,0.6-0.5,1
		c0,0.3,0.1,0.6,0.3,0.8s0.5,0.4,0.8,0.5c0.3,0.1,0.7,0.3,1.2,0.4c0.6,0.2,1.1,0.3,1.5,0.5c0.4,0.2,0.7,0.4,1,0.7s0.4,0.7,0.4,1.2
		c0,0.5-0.1,0.9-0.4,1.3s-0.6,0.7-1.1,0.9c-0.5,0.2-1,0.3-1.6,0.3C316.5,241.1,315.7,240.8,315,240.4z"/>
	<path class="st0" d="M218.8,251.9c0.6-0.4,1.3-0.6,2.2-0.6c0.8,0,1.5,0.2,2.1,0.6s1.1,0.9,1.5,1.6c0.4,0.7,0.5,1.5,0.5,2.4
		c0,0.9-0.2,1.7-0.5,2.4c-0.4,0.7-0.9,1.2-1.5,1.6s-1.3,0.6-2.1,0.6c-0.8,0-1.5-0.2-2.1-0.6c-0.6-0.4-1.1-0.9-1.3-1.5v6h-1.1v-12.9
		h1.1v1.9C217.8,252.7,218.2,252.3,218.8,251.9z M223.5,253.9c-0.3-0.5-0.7-0.9-1.2-1.2s-1-0.4-1.7-0.4c-0.6,0-1.1,0.1-1.6,0.4
		s-0.9,0.7-1.2,1.2c-0.3,0.5-0.4,1.2-0.4,1.9c0,0.7,0.1,1.3,0.4,1.9c0.3,0.5,0.7,0.9,1.2,1.2c0.5,0.3,1,0.4,1.6,0.4
		c0.6,0,1.2-0.1,1.7-0.4c0.5-0.3,0.9-0.7,1.2-1.2c0.3-0.5,0.4-1.2,0.4-1.9C224,255,223.8,254.4,223.5,253.9z"/>
	<path class="st0" d="M235,256.2h-7.2c0,0.7,0.2,1.2,0.5,1.7c0.3,0.5,0.7,0.8,1.1,1.1c0.5,0.2,1,0.4,1.5,0.4c0.7,0,1.3-0.2,1.8-0.5
		s0.8-0.8,1-1.4h1.2c-0.2,0.9-0.7,1.5-1.4,2.1c-0.7,0.5-1.6,0.8-2.6,0.8c-0.8,0-1.6-0.2-2.2-0.6s-1.2-0.9-1.5-1.6
		c-0.4-0.7-0.6-1.5-0.6-2.4c0-0.9,0.2-1.7,0.5-2.4c0.4-0.7,0.9-1.2,1.5-1.6c0.7-0.4,1.4-0.5,2.2-0.5s1.6,0.2,2.2,0.5
		c0.6,0.4,1.1,0.9,1.4,1.5s0.5,1.3,0.5,2C235.1,255.7,235.1,256,235,256.2z M233.5,253.6c-0.3-0.5-0.6-0.8-1.1-1s-1-0.4-1.5-0.4
		c-0.8,0-1.5,0.3-2.1,0.8s-0.9,1.3-1,2.3h6.1C233.9,254.6,233.8,254.1,233.5,253.6z"/>
	<path class="st0" d="M239.4,251.7c0.5-0.3,1.1-0.4,1.9-0.4v1.2h-0.3c-0.8,0-1.5,0.2-2,0.7c-0.5,0.4-0.7,1.2-0.7,2.2v4.9h-1.1v-8.7
		h1.1v1.6C238.5,252.4,238.9,252,239.4,251.7z"/>
	<path class="st0" d="M258.8,251.4l-2.7,8.7H255l-2.4-7.3l-2.4,7.3H249l-2.7-8.7h1.1l2.2,7.6l2.4-7.6h1.1l2.4,7.6l2.2-7.6H258.8z"/>
	<path class="st0" d="M268.2,256.2H261c0,0.7,0.2,1.2,0.5,1.7c0.3,0.5,0.7,0.8,1.1,1.1c0.5,0.2,1,0.4,1.5,0.4c0.7,0,1.3-0.2,1.8-0.5
		s0.8-0.8,1-1.4h1.2c-0.2,0.9-0.7,1.5-1.4,2.1c-0.7,0.5-1.6,0.8-2.6,0.8c-0.8,0-1.6-0.2-2.2-0.6s-1.2-0.9-1.5-1.6
		c-0.4-0.7-0.6-1.5-0.6-2.4c0-0.9,0.2-1.7,0.5-2.4c0.4-0.7,0.9-1.2,1.5-1.6c0.7-0.4,1.4-0.5,2.2-0.5s1.6,0.2,2.2,0.5
		c0.6,0.4,1.1,0.9,1.4,1.5s0.5,1.3,0.5,2C268.2,255.7,268.2,256,268.2,256.2z M266.7,253.6c-0.3-0.5-0.6-0.8-1.1-1s-1-0.4-1.5-0.4
		c-0.8,0-1.5,0.3-2.1,0.8s-0.9,1.3-1,2.3h6.1C267.1,254.6,267,254.1,266.7,253.6z"/>
	<path class="st0" d="M278.2,256.2h-7.2c0,0.7,0.2,1.2,0.5,1.7c0.3,0.5,0.7,0.8,1.1,1.1c0.5,0.2,1,0.4,1.5,0.4
		c0.7,0,1.3-0.2,1.8-0.5s0.8-0.8,1-1.4h1.2c-0.2,0.9-0.7,1.5-1.4,2.1c-0.7,0.5-1.6,0.8-2.6,0.8c-0.8,0-1.6-0.2-2.2-0.6
		s-1.2-0.9-1.5-1.6c-0.4-0.7-0.6-1.5-0.6-2.4c0-0.9,0.2-1.7,0.5-2.4c0.4-0.7,0.9-1.2,1.5-1.6c0.7-0.4,1.4-0.5,2.2-0.5
		s1.6,0.2,2.2,0.5c0.6,0.4,1.1,0.9,1.4,1.5s0.5,1.3,0.5,2C278.2,255.7,278.2,256,278.2,256.2z M276.7,253.6c-0.3-0.5-0.6-0.8-1.1-1
		s-1-0.4-1.5-0.4c-0.8,0-1.5,0.3-2.1,0.8s-0.9,1.3-1,2.3h6.1C277.1,254.6,276.9,254.1,276.7,253.6z"/>
	<path class="st0" d="M285,260.1l-3.6-3.9v3.9h-1.1v-11.8h1.1v7l3.5-3.9h1.6l-4.1,4.4l4.2,4.4H285z"/>
</g>
<g>
	<path class="st0" d="M339.5,258.8h-5.1l-1,2.7h-1.2l4.1-11h1.3l4.1,11h-1.2L339.5,258.8z M339.2,257.8l-2.2-6l-2.2,6H339.2z"/>
	<path class="st0" d="M344.9,253.6v5.4c0,0.5,0.1,0.9,0.3,1.1c0.2,0.2,0.6,0.3,1.1,0.3h1v1h-1.2c-0.8,0-1.4-0.2-1.8-0.6
		c-0.4-0.4-0.6-1-0.6-1.8v-5.4h-1.2v-0.9h1.2v-2.2h1.1v2.2h2.4v0.9H344.9z"/>
	<path class="st0" d="M354.6,249.6v11.8h-1.1v-11.8H354.6z"/>
	<path class="st0" d="M365.1,257.5h-7.2c0,0.7,0.2,1.2,0.5,1.7c0.3,0.5,0.7,0.8,1.1,1.1c0.5,0.2,1,0.4,1.5,0.4
		c0.7,0,1.3-0.2,1.8-0.5c0.5-0.4,0.8-0.8,1-1.4h1.2c-0.2,0.9-0.7,1.5-1.4,2.1c-0.7,0.5-1.6,0.8-2.6,0.8c-0.8,0-1.6-0.2-2.2-0.6
		c-0.7-0.4-1.2-0.9-1.5-1.6c-0.4-0.7-0.6-1.5-0.6-2.4c0-0.9,0.2-1.7,0.5-2.4c0.4-0.7,0.9-1.2,1.5-1.6s1.4-0.5,2.2-0.5
		s1.6,0.2,2.2,0.5s1.1,0.9,1.4,1.5s0.5,1.3,0.5,2C365.1,257,365.1,257.3,365.1,257.5z M363.6,254.9c-0.3-0.5-0.6-0.8-1.1-1
		c-0.5-0.2-1-0.4-1.5-0.4c-0.8,0-1.5,0.3-2.1,0.8c-0.6,0.5-0.9,1.3-1,2.3h6.1C364,255.9,363.8,255.4,363.6,254.9z"/>
	<path class="st0" d="M367.2,254.7c0.4-0.7,0.9-1.2,1.5-1.6s1.4-0.6,2.2-0.6c0.8,0,1.5,0.2,2.2,0.6c0.6,0.4,1,0.9,1.3,1.5v-1.9h1.1
		v8.7h-1.1v-1.9c-0.3,0.6-0.7,1.1-1.3,1.5c-0.6,0.4-1.3,0.6-2.2,0.6c-0.8,0-1.5-0.2-2.1-0.6c-0.6-0.4-1.1-0.9-1.5-1.6
		c-0.4-0.7-0.5-1.5-0.5-2.4S366.8,255.4,367.2,254.7z M373.8,255.2c-0.3-0.5-0.7-0.9-1.2-1.2s-1-0.4-1.6-0.4c-0.6,0-1.2,0.1-1.7,0.4
		c-0.5,0.3-0.9,0.7-1.2,1.2c-0.3,0.5-0.4,1.2-0.4,1.9c0,0.7,0.1,1.3,0.4,1.9c0.3,0.5,0.7,0.9,1.2,1.2c0.5,0.3,1,0.4,1.7,0.4
		c0.6,0,1.1-0.1,1.6-0.4c0.5-0.3,0.9-0.7,1.2-1.2c0.3-0.5,0.4-1.2,0.4-1.9C374.3,256.4,374.1,255.7,373.8,255.2z"/>
	<path class="st0" d="M378.5,260.9c-0.6-0.5-1-1.1-1.1-1.9h1.2c0.1,0.5,0.3,0.9,0.7,1.2c0.4,0.3,1,0.5,1.7,0.5
		c0.6,0,1.1-0.1,1.4-0.4s0.5-0.6,0.5-1.1c0-0.3-0.1-0.5-0.3-0.7c-0.2-0.2-0.4-0.3-0.7-0.5c-0.3-0.1-0.7-0.2-1.2-0.4
		c-0.7-0.2-1.2-0.3-1.6-0.5c-0.4-0.2-0.7-0.4-1-0.8c-0.3-0.3-0.4-0.8-0.4-1.4c0-0.4,0.1-0.8,0.4-1.2c0.3-0.4,0.6-0.7,1.1-0.9
		c0.5-0.2,1-0.3,1.6-0.3c0.9,0,1.7,0.2,2.3,0.7s0.9,1.1,0.9,2h-1.1c0-0.5-0.2-0.9-0.6-1.2c-0.4-0.3-0.9-0.5-1.5-0.5
		c-0.6,0-1,0.1-1.4,0.4c-0.4,0.3-0.5,0.6-0.5,1c0,0.3,0.1,0.6,0.3,0.8s0.5,0.4,0.8,0.5c0.3,0.1,0.7,0.3,1.2,0.4
		c0.6,0.2,1.1,0.3,1.5,0.5c0.4,0.2,0.7,0.4,1,0.7c0.3,0.3,0.4,0.7,0.4,1.2c0,0.5-0.1,0.9-0.4,1.3s-0.6,0.7-1.1,0.9
		c-0.5,0.2-1,0.3-1.6,0.3C379.9,261.6,379.1,261.3,378.5,260.9z"/>
	<path class="st0" d="M387.6,253.6v5.4c0,0.5,0.1,0.9,0.3,1.1c0.2,0.2,0.6,0.3,1.1,0.3h1v1h-1.2c-0.8,0-1.4-0.2-1.8-0.6
		c-0.4-0.4-0.6-1-0.6-1.8v-5.4h-1.2v-0.9h1.2v-2.2h1.1v2.2h2.4v0.9H387.6z"/>
	<path class="st0" d="M397.8,261c-0.7-0.4-1.2-0.9-1.6-1.6c-0.4-0.7-0.6-1.5-0.6-2.4c0-0.9,0.2-1.7,0.6-2.4c0.4-0.7,0.9-1.2,1.6-1.6
		s1.4-0.6,2.2-0.6s1.6,0.2,2.2,0.6c0.7,0.4,1.2,0.9,1.6,1.6c0.4,0.7,0.6,1.5,0.6,2.4c0,0.9-0.2,1.7-0.6,2.4s-0.9,1.2-1.6,1.6
		c-0.7,0.4-1.4,0.6-2.2,0.6S398.4,261.4,397.8,261z M401.6,260.2c0.5-0.3,0.9-0.7,1.2-1.2c0.3-0.5,0.5-1.2,0.5-1.9s-0.1-1.4-0.4-1.9
		c-0.3-0.5-0.7-0.9-1.2-1.2c-0.5-0.3-1-0.4-1.6-0.4s-1.1,0.1-1.6,0.4c-0.5,0.3-0.9,0.7-1.2,1.2c-0.3,0.5-0.4,1.2-0.4,1.9
		s0.1,1.4,0.4,1.9c0.3,0.5,0.7,0.9,1.2,1.2c0.5,0.3,1,0.4,1.6,0.4C400.6,260.6,401.1,260.4,401.6,260.2z"/>
	<path class="st0" d="M413.1,253.5c0.7,0.6,1,1.6,1,2.8v5.1H413v-5c0-0.9-0.2-1.7-0.7-2.2s-1.1-0.8-1.9-0.8c-0.8,0-1.5,0.3-2,0.8
		c-0.5,0.5-0.8,1.3-0.8,2.4v4.8h-1.1v-8.7h1.1v1.5c0.3-0.5,0.7-0.9,1.2-1.2c0.5-0.3,1.1-0.4,1.8-0.4
		C411.6,252.5,412.4,252.9,413.1,253.5z"/>
	<path class="st0" d="M416.6,254.7c0.4-0.7,0.9-1.2,1.5-1.6c0.6-0.4,1.4-0.6,2.2-0.6c1.1,0,2,0.3,2.7,0.8c0.7,0.5,1.1,1.3,1.4,2.2
		h-1.2c-0.1-0.6-0.5-1.1-1-1.5c-0.5-0.4-1.1-0.5-1.8-0.5c-0.6,0-1.1,0.1-1.6,0.4s-0.8,0.7-1.1,1.2c-0.3,0.5-0.4,1.2-0.4,1.9
		s0.1,1.4,0.4,2c0.3,0.5,0.6,0.9,1.1,1.2s1,0.4,1.6,0.4c0.7,0,1.4-0.2,1.8-0.5c0.5-0.4,0.8-0.9,1-1.5h1.2c-0.2,0.9-0.7,1.6-1.4,2.2
		s-1.6,0.8-2.7,0.8c-0.8,0-1.6-0.2-2.2-0.6c-0.6-0.4-1.1-0.9-1.5-1.6c-0.4-0.7-0.5-1.5-0.5-2.4C416.1,256.1,416.2,255.4,416.6,254.7
		z"/>
	<path class="st0" d="M434.3,257.5H427c0,0.7,0.2,1.2,0.5,1.7c0.3,0.5,0.7,0.8,1.1,1.1c0.5,0.2,1,0.4,1.5,0.4c0.7,0,1.3-0.2,1.8-0.5
		c0.5-0.4,0.8-0.8,1-1.4h1.2c-0.2,0.9-0.7,1.5-1.4,2.1c-0.7,0.5-1.6,0.8-2.6,0.8c-0.8,0-1.6-0.2-2.2-0.6c-0.7-0.4-1.2-0.9-1.5-1.6
		c-0.4-0.7-0.6-1.5-0.6-2.4c0-0.9,0.2-1.7,0.5-2.4c0.4-0.7,0.9-1.2,1.5-1.6s1.4-0.5,2.2-0.5s1.6,0.2,2.2,0.5s1.1,0.9,1.4,1.5
		s0.5,1.3,0.5,2C434.3,257,434.3,257.3,434.3,257.5z M432.8,254.9c-0.3-0.5-0.6-0.8-1.1-1c-0.5-0.2-1-0.4-1.5-0.4
		c-0.8,0-1.5,0.3-2.1,0.8c-0.6,0.5-0.9,1.3-1,2.3h6.1C433.2,255.9,433,255.4,432.8,254.9z"/>
	<path class="st0" d="M335.4,272.3c0.6-0.4,1.3-0.6,2.2-0.6c0.8,0,1.5,0.2,2.1,0.6s1.1,0.9,1.5,1.6c0.4,0.7,0.5,1.5,0.5,2.4
		s-0.2,1.7-0.5,2.4c-0.4,0.7-0.9,1.2-1.5,1.6c-0.6,0.4-1.3,0.6-2.1,0.6c-0.8,0-1.5-0.2-2.1-0.6c-0.6-0.4-1.1-0.9-1.3-1.5v6H333
		v-12.9h1.1v1.9C334.4,273.2,334.8,272.7,335.4,272.3z M340.2,274.4c-0.3-0.5-0.7-0.9-1.2-1.2c-0.5-0.3-1-0.4-1.7-0.4
		c-0.6,0-1.1,0.1-1.6,0.4s-0.9,0.7-1.2,1.2c-0.3,0.5-0.4,1.2-0.4,1.9c0,0.7,0.1,1.3,0.4,1.9c0.3,0.5,0.7,0.9,1.2,1.2
		c0.5,0.3,1,0.4,1.6,0.4c0.6,0,1.2-0.1,1.7-0.4s0.9-0.7,1.2-1.2c0.3-0.5,0.4-1.2,0.4-1.9C340.6,275.5,340.5,274.9,340.2,274.4z"/>
	<path class="st0" d="M351.7,276.7h-7.2c0,0.7,0.2,1.2,0.5,1.7c0.3,0.5,0.7,0.8,1.1,1.1c0.5,0.2,1,0.4,1.5,0.4
		c0.7,0,1.3-0.2,1.8-0.5c0.5-0.4,0.8-0.8,1-1.4h1.2c-0.2,0.9-0.7,1.5-1.4,2.1c-0.7,0.5-1.6,0.8-2.6,0.8c-0.8,0-1.6-0.2-2.2-0.6
		c-0.7-0.4-1.2-0.9-1.5-1.6c-0.4-0.7-0.6-1.5-0.6-2.4c0-0.9,0.2-1.7,0.5-2.4c0.4-0.7,0.9-1.2,1.5-1.6s1.4-0.5,2.2-0.5
		s1.6,0.2,2.2,0.5s1.1,0.9,1.4,1.5s0.5,1.3,0.5,2C351.7,276.2,351.7,276.5,351.7,276.7z M350.2,274.1c-0.3-0.5-0.6-0.8-1.1-1
		c-0.5-0.2-1-0.4-1.5-0.4c-0.8,0-1.5,0.3-2.1,0.8c-0.6,0.5-0.9,1.3-1,2.3h6.1C350.6,275.1,350.5,274.6,350.2,274.1z"/>
	<path class="st0" d="M356,272.2c0.5-0.3,1.1-0.4,1.9-0.4v1.2h-0.3c-0.8,0-1.5,0.2-2,0.7c-0.5,0.4-0.7,1.2-0.7,2.2v4.9h-1.1v-8.7
		h1.1v1.6C355.1,272.9,355.5,272.5,356,272.2z"/>
	<path class="st0" d="M364,273.9c0.4-0.7,0.9-1.2,1.5-1.6s1.4-0.6,2.2-0.6c0.8,0,1.5,0.2,2.1,0.6c0.6,0.4,1.1,0.9,1.4,1.5v-5h1.1
		v11.8h-1.1v-2c-0.3,0.6-0.7,1.1-1.3,1.5c-0.6,0.4-1.3,0.6-2.1,0.6c-0.8,0-1.5-0.2-2.2-0.6c-0.6-0.4-1.1-0.9-1.5-1.6
		c-0.4-0.7-0.5-1.5-0.5-2.4S363.6,274.6,364,273.9z M370.6,274.4c-0.3-0.5-0.7-0.9-1.2-1.2s-1-0.4-1.6-0.4c-0.6,0-1.2,0.1-1.7,0.4
		c-0.5,0.3-0.9,0.7-1.2,1.2c-0.3,0.5-0.4,1.2-0.4,1.9c0,0.7,0.1,1.3,0.4,1.9c0.3,0.5,0.7,0.9,1.2,1.2c0.5,0.3,1,0.4,1.7,0.4
		c0.6,0,1.1-0.1,1.6-0.4c0.5-0.3,0.9-0.7,1.2-1.2c0.3-0.5,0.4-1.2,0.4-1.9C371.1,275.6,370.9,274.9,370.6,274.4z"/>
	<path class="st0" d="M374.8,273.9c0.4-0.7,0.9-1.2,1.5-1.6s1.4-0.6,2.2-0.6c0.8,0,1.5,0.2,2.2,0.6c0.6,0.4,1,0.9,1.3,1.5v-1.9h1.1
		v8.7h-1.1v-1.9c-0.3,0.6-0.7,1.1-1.3,1.5c-0.6,0.4-1.3,0.6-2.2,0.6c-0.8,0-1.5-0.2-2.1-0.6c-0.6-0.4-1.1-0.9-1.5-1.6
		c-0.4-0.7-0.5-1.5-0.5-2.4S374.4,274.6,374.8,273.9z M381.4,274.4c-0.3-0.5-0.7-0.9-1.2-1.2s-1-0.4-1.6-0.4c-0.6,0-1.2,0.1-1.7,0.4
		c-0.5,0.3-0.9,0.7-1.2,1.2c-0.3,0.5-0.4,1.2-0.4,1.9c0,0.7,0.1,1.3,0.4,1.9c0.3,0.5,0.7,0.9,1.2,1.2c0.5,0.3,1,0.4,1.7,0.4
		c0.6,0,1.1-0.1,1.6-0.4c0.5-0.3,0.9-0.7,1.2-1.2c0.3-0.5,0.4-1.2,0.4-1.9C381.9,275.6,381.7,274.9,381.4,274.4z"/>
	<path class="st0" d="M392.7,271.9l-5.2,12.8h-1.2l1.7-4.2l-3.6-8.7h1.2l3,7.5l2.9-7.5H392.7z"/>
</g>
</svg>
