<!-- Generator: Adobe Illustrator 25.0.0, SVG Export Plug-In  -->
<svg version="1.1" xmlns="http://www.w3.org/2000/svg" xmlns:xlink="http://www.w3.org/1999/xlink" x="0px" y="0px" width="129.4px"
	 height="146.3px" viewBox="0 0 129.4 146.3" style="overflow:visible;enable-background:new 0 0 129.4 146.3;"
	 xml:space="preserve">
<style type="text/css">
	.st0{opacity:0.7;}
	.st1{clip-path:url(#SVGID_2_);fill:#FFFFFF;}
	.st2{clip-path:url(#SVGID_4_);fill:#FFFFFF;}
</style>
<defs>
</defs>
<g class="st0">
	<defs>
		<polygon id="SVGID_1_" class="st0" points="61.5,11.2 61.1,85.1 129.4,59.3 123,24.8 86.3,0 		"/>
	</defs>
	<clipPath id="SVGID_2_">
		<use xlink:href="#SVGID_1_"  style="overflow:visible;"/>
	</clipPath>
	<path class="st1" d="M61.5,23.3C27.5,23.3,0,50.9,0,84.8c0,34,27.5,61.5,61.5,61.5S123,118.8,123,84.8
		C123,50.9,95.4,23.3,61.5,23.3z M61.5,126.7c-23.1,0-41.9-18.8-41.9-41.9c0-23.1,18.8-41.9,41.9-41.9c23.1,0,41.9,18.8,41.9,41.9
		C103.4,108,84.6,126.7,61.5,126.7z"/>
</g>
</svg>
