<!-- Generator: Adobe Illustrator 25.0.0, SVG Export Plug-In  -->
<svg version="1.1" xmlns="http://www.w3.org/2000/svg" xmlns:xlink="http://www.w3.org/1999/xlink" x="0px" y="0px" width="115.3px"
	 height="20.9px" viewBox="0 0 115.3 20.9" style="overflow:visible;enable-background:new 0 0 115.3 20.9;" xml:space="preserve">
<style type="text/css">
	.st0{fill:#0078FF;}
</style>
<defs>
</defs>
<g>
	<path class="st0" d="M9.6,0.1v8.6H8.2V2.8L5.5,8.7h-1L1.9,2.8v5.9H0.5V0.1H2l3,6.8l3-6.8H9.6z"/>
	<path class="st0" d="M12.8,0.1v5.5c0,0.7,0.2,1.1,0.5,1.5s0.8,0.5,1.4,0.5c0.6,0,1.1-0.2,1.4-0.5c0.3-0.3,0.5-0.8,0.5-1.5V0.1h1.4
		v5.5c0,0.7-0.2,1.3-0.5,1.8S17,8.2,16.5,8.4c-0.5,0.2-1.1,0.4-1.7,0.4s-1.2-0.1-1.7-0.4s-0.9-0.6-1.2-1.1c-0.3-0.5-0.4-1.1-0.4-1.8
		V0.1H12.8z"/>
	<path class="st0" d="M27,8.7h-1.4l-4.2-6.4v6.4H20V0.1h1.4l4.2,6.4V0.1H27V8.7z"/>
	<path class="st0" d="M30.3,0.1v8.6h-1.4V0.1H30.3z"/>
	<path class="st0" d="M32.3,2.1c0.4-0.7,0.9-1.2,1.6-1.6C34.6,0.2,35.3,0,36.1,0c0.9,0,1.7,0.2,2.4,0.7c0.7,0.5,1.2,1.1,1.6,1.9
		h-1.7c-0.2-0.5-0.5-0.8-0.9-1c-0.4-0.2-0.9-0.3-1.4-0.3c-0.6,0-1.1,0.1-1.5,0.4c-0.4,0.3-0.8,0.6-1,1.1c-0.3,0.5-0.4,1-0.4,1.7
		c0,0.6,0.1,1.2,0.4,1.7c0.3,0.5,0.6,0.8,1,1.1c0.4,0.3,1,0.4,1.5,0.4c0.5,0,1-0.1,1.4-0.3c0.4-0.2,0.7-0.6,0.9-1h1.7
		c-0.3,0.8-0.8,1.5-1.6,1.9c-0.7,0.4-1.5,0.7-2.4,0.7c-0.8,0-1.5-0.2-2.2-0.6s-1.2-0.9-1.6-1.6s-0.6-1.4-0.6-2.3
		C31.7,3.6,31.9,2.8,32.3,2.1z"/>
	<path class="st0" d="M48.6,0.1v8.6h-1.4V5h-4.1v3.8h-1.4V0.1h1.4v3.7h4.1V0.1H48.6z"/>
	<path class="st0" d="M52,7l-1.5,3.4h-0.9L50.5,7H52z"/>
	<path class="st0" d="M62.7,2.6c-0.2-0.4-0.5-0.8-0.9-1s-0.9-0.3-1.4-0.3c-0.6,0-1.1,0.1-1.5,0.4c-0.4,0.3-0.8,0.6-1,1.1
		c-0.3,0.5-0.4,1-0.4,1.6c0,0.6,0.1,1.2,0.4,1.6c0.3,0.5,0.6,0.8,1,1.1c0.4,0.3,1,0.4,1.5,0.4c0.8,0,1.4-0.2,1.9-0.6
		c0.5-0.4,0.8-1,0.9-1.7h-3.2V4h4.7v1.1C64.6,5.8,64.4,6.4,64,7c-0.4,0.6-0.9,1-1.5,1.3c-0.6,0.3-1.3,0.5-2,0.5
		c-0.8,0-1.5-0.2-2.2-0.6S57,7.3,56.6,6.7S56,5.2,56,4.4c0-0.8,0.2-1.6,0.6-2.3s0.9-1.2,1.6-1.6C58.9,0.2,59.6,0,60.4,0
		c0.9,0,1.7,0.2,2.4,0.7c0.7,0.5,1.2,1.1,1.6,1.9H62.7z"/>
	<path class="st0" d="M67.5,1.3v2.5h3v1.2h-3v2.6h3.3v1.2h-4.8V0.1h4.8v1.2H67.5z"/>
	<path class="st0" d="M77,8.7l-2-3.4H74v3.4h-1.4V0.1h3c0.7,0,1.2,0.1,1.7,0.3c0.5,0.2,0.8,0.5,1,0.9c0.2,0.4,0.3,0.8,0.3,1.3
		c0,0.6-0.2,1.1-0.5,1.5c-0.3,0.5-0.8,0.8-1.5,0.9l2.1,3.6H77z M74,4.2h1.6c0.5,0,0.9-0.1,1.2-0.4s0.4-0.6,0.4-1.1s-0.1-0.8-0.4-1
		c-0.3-0.3-0.7-0.4-1.2-0.4H74V4.2z"/>
	<path class="st0" d="M89.5,0.1v8.6H88V2.8l-2.6,5.9h-1l-2.6-5.9v5.9h-1.4V0.1h1.5l3,6.8l3-6.8H89.5z"/>
	<path class="st0" d="M96.5,7h-3.6l-0.6,1.8h-1.5l3.1-8.6h1.6l3.1,8.6h-1.5L96.5,7z M96.1,5.8l-1.4-4l-1.4,4H96.1z"/>
	<path class="st0" d="M107,8.7h-1.4l-4.2-6.4v6.4H100V0.1h1.4l4.2,6.4V0.1h1.4V8.7z"/>
	<path class="st0" d="M115.3,0.1l-2.8,5.5v3.1H111V5.6l-2.9-5.5h1.6l2,4.2l2-4.2H115.3z"/>
	<path class="st0" d="M0.2,16.3C0.1,16.2,0,16,0,15.9s0.1-0.3,0.2-0.4c0.1-0.1,0.3-0.2,0.4-0.2c0.2,0,0.3,0.1,0.4,0.2
		c0.1,0.1,0.2,0.3,0.2,0.4S1.1,16.2,1,16.3c-0.1,0.1-0.3,0.2-0.4,0.2C0.4,16.5,0.3,16.4,0.2,16.3z"/>
	<path class="st0" d="M8.2,15.4c-0.1,0.3-0.4,0.5-0.7,0.6c-0.3,0.2-0.7,0.2-1.2,0.2h-1v2.3H4.4v-5.7h2c0.4,0,0.8,0.1,1.1,0.2
		s0.5,0.4,0.7,0.6s0.2,0.5,0.2,0.9C8.4,14.9,8.3,15.2,8.2,15.4z M7.1,15.3c0.2-0.2,0.3-0.4,0.3-0.7c0-0.6-0.4-0.9-1.1-0.9h-1v1.9h1
		C6.7,15.5,7,15.5,7.1,15.3z"/>
	<path class="st0" d="M10,18.5c-0.3-0.1-0.5-0.3-0.7-0.5S9,17.5,9,17.2h1c0,0.2,0.1,0.4,0.3,0.5c0.2,0.1,0.4,0.2,0.6,0.2
		c0.3,0,0.5-0.1,0.6-0.2c0.1-0.1,0.2-0.2,0.2-0.4c0-0.2-0.1-0.3-0.2-0.4c-0.2-0.1-0.4-0.2-0.8-0.3c-0.3-0.1-0.6-0.2-0.8-0.3
		c-0.2-0.1-0.4-0.2-0.6-0.4c-0.2-0.2-0.2-0.4-0.2-0.7c0-0.2,0.1-0.5,0.2-0.7c0.1-0.2,0.3-0.4,0.6-0.5c0.3-0.1,0.6-0.2,0.9-0.2
		c0.5,0,0.9,0.1,1.3,0.4s0.5,0.6,0.5,1.1h-0.9c0-0.2-0.1-0.4-0.2-0.5s-0.3-0.2-0.6-0.2c-0.2,0-0.4,0-0.6,0.1
		C10.1,15,10,15.2,10,15.3c0,0.1,0,0.2,0.1,0.3c0.1,0.1,0.2,0.1,0.3,0.2c0.1,0,0.3,0.1,0.6,0.2c0.3,0.1,0.6,0.2,0.8,0.3
		c0.2,0.1,0.4,0.2,0.5,0.4c0.2,0.2,0.2,0.4,0.2,0.7c0,0.3-0.1,0.5-0.2,0.7c-0.1,0.2-0.3,0.4-0.6,0.5c-0.3,0.1-0.6,0.2-0.9,0.2
		C10.6,18.7,10.2,18.6,10,18.5z"/>
	<path class="st0" d="M17.8,14.1L15,20.8h-1l0.9-2.2l-1.8-4.5h1l1.3,3.5l1.3-3.5H17.8z"/>
	<path class="st0" d="M18.5,15.1c0.2-0.4,0.5-0.6,0.8-0.8S20,14,20.4,14c0.6,0,1,0.1,1.4,0.4s0.6,0.6,0.7,1.1h-1
		c-0.1-0.2-0.2-0.4-0.4-0.5c-0.2-0.1-0.4-0.2-0.7-0.2c-0.4,0-0.7,0.1-0.9,0.4c-0.2,0.3-0.3,0.7-0.3,1.1s0.1,0.9,0.3,1.1
		s0.5,0.4,0.9,0.4c0.5,0,0.9-0.2,1.1-0.7h1c-0.1,0.5-0.4,0.8-0.7,1.1c-0.4,0.3-0.8,0.4-1.4,0.4c-0.4,0-0.8-0.1-1.2-0.3
		s-0.6-0.5-0.8-0.8c-0.2-0.4-0.3-0.8-0.3-1.2S18.3,15.5,18.5,15.1z"/>
	<path class="st0" d="M26.7,14.2c0.3,0.1,0.5,0.4,0.6,0.7c0.2,0.3,0.2,0.6,0.2,1.1v2.7h-0.9v-2.5c0-0.4-0.1-0.7-0.3-0.9
		c-0.2-0.2-0.5-0.3-0.8-0.3s-0.6,0.1-0.8,0.3c-0.2,0.2-0.3,0.5-0.3,0.9v2.5h-0.9v-6.1h0.9v2.1c0.2-0.2,0.4-0.3,0.6-0.4
		s0.5-0.2,0.8-0.2C26.1,14,26.4,14.1,26.7,14.2z"/>
	<path class="st0" d="M29.6,18.4c-0.3-0.2-0.6-0.5-0.8-0.8s-0.3-0.8-0.3-1.2c0-0.5,0.1-0.9,0.3-1.2c0.2-0.4,0.5-0.6,0.8-0.8
		c0.4-0.2,0.7-0.3,1.2-0.3c0.4,0,0.8,0.1,1.2,0.3s0.6,0.5,0.8,0.8c0.2,0.4,0.3,0.8,0.3,1.2c0,0.5-0.1,0.9-0.3,1.2
		c-0.2,0.4-0.5,0.6-0.9,0.8c-0.4,0.2-0.8,0.3-1.2,0.3C30.3,18.7,30,18.6,29.6,18.4z M31.5,17.7c0.2-0.1,0.4-0.3,0.5-0.5
		c0.1-0.2,0.2-0.5,0.2-0.8s-0.1-0.6-0.2-0.8c-0.1-0.2-0.3-0.4-0.5-0.5c-0.2-0.1-0.4-0.2-0.7-0.2s-0.5,0.1-0.7,0.2
		c-0.2,0.1-0.4,0.3-0.5,0.5s-0.2,0.5-0.2,0.8c0,0.5,0.1,0.9,0.4,1.1c0.3,0.3,0.6,0.4,0.9,0.4C31,17.9,31.2,17.8,31.5,17.7z"/>
	<path class="st0" d="M35,12.5v6.1h-0.9v-6.1H35z"/>
	<path class="st0" d="M37.1,18.4c-0.3-0.2-0.6-0.5-0.8-0.8s-0.3-0.8-0.3-1.2c0-0.5,0.1-0.9,0.3-1.2c0.2-0.4,0.5-0.6,0.8-0.8
		c0.4-0.2,0.7-0.3,1.2-0.3c0.4,0,0.8,0.1,1.2,0.3s0.6,0.5,0.8,0.8c0.2,0.4,0.3,0.8,0.3,1.2c0,0.5-0.1,0.9-0.3,1.2
		c-0.2,0.4-0.5,0.6-0.9,0.8c-0.4,0.2-0.8,0.3-1.2,0.3C37.8,18.7,37.4,18.6,37.1,18.4z M38.9,17.7c0.2-0.1,0.4-0.3,0.5-0.5
		c0.1-0.2,0.2-0.5,0.2-0.8s-0.1-0.6-0.2-0.8c-0.1-0.2-0.3-0.4-0.5-0.5c-0.2-0.1-0.4-0.2-0.7-0.2s-0.5,0.1-0.7,0.2
		c-0.2,0.1-0.4,0.3-0.5,0.5s-0.2,0.5-0.2,0.8c0,0.5,0.1,0.9,0.4,1.1c0.3,0.3,0.6,0.4,0.9,0.4C38.5,17.9,38.7,17.8,38.9,17.7z"/>
	<path class="st0" d="M44.3,14.2c0.3,0.1,0.5,0.3,0.6,0.5v-0.7h1v4.6c0,0.4-0.1,0.8-0.3,1.1s-0.4,0.6-0.8,0.8
		c-0.3,0.2-0.7,0.3-1.2,0.3c-0.6,0-1.1-0.1-1.5-0.4c-0.4-0.3-0.6-0.7-0.7-1.2h0.9c0.1,0.2,0.2,0.4,0.5,0.6c0.2,0.1,0.5,0.2,0.8,0.2
		c0.4,0,0.7-0.1,0.9-0.3c0.2-0.2,0.4-0.6,0.4-1v-0.8c-0.2,0.2-0.4,0.4-0.6,0.5s-0.6,0.2-0.9,0.2c-0.4,0-0.8-0.1-1.1-0.3
		c-0.3-0.2-0.6-0.5-0.8-0.8c-0.2-0.4-0.3-0.8-0.3-1.2s0.1-0.9,0.3-1.2c0.2-0.4,0.4-0.6,0.8-0.8c0.3-0.2,0.7-0.3,1.1-0.3
		C43.7,14,44,14.1,44.3,14.2z M44.7,15.5c-0.1-0.2-0.3-0.4-0.5-0.5s-0.4-0.2-0.7-0.2s-0.5,0.1-0.7,0.2s-0.4,0.3-0.5,0.5
		c-0.1,0.2-0.2,0.5-0.2,0.8s0.1,0.6,0.2,0.8c0.1,0.2,0.3,0.4,0.5,0.5c0.2,0.1,0.4,0.2,0.7,0.2c0.2,0,0.5-0.1,0.7-0.2
		s0.4-0.3,0.5-0.5c0.1-0.2,0.2-0.5,0.2-0.8C44.9,16,44.9,15.8,44.7,15.5z"/>
	<path class="st0" d="M47.2,13.3C47.1,13.2,47,13,47,12.9c0-0.2,0.1-0.3,0.2-0.4c0.1-0.1,0.3-0.2,0.4-0.2c0.2,0,0.3,0.1,0.4,0.2
		c0.1,0.1,0.2,0.3,0.2,0.4c0,0.2-0.1,0.3-0.2,0.4c-0.1,0.1-0.3,0.2-0.4,0.2C47.4,13.5,47.3,13.4,47.2,13.3z M48.1,14.1v4.6h-0.9
		v-4.6H48.1z"/>
	<path class="st0" d="M50,18.5c-0.3-0.1-0.5-0.3-0.7-0.5s-0.3-0.5-0.3-0.7h1c0,0.2,0.1,0.4,0.3,0.5c0.2,0.1,0.4,0.2,0.6,0.2
		c0.3,0,0.5-0.1,0.6-0.2c0.1-0.1,0.2-0.2,0.2-0.4c0-0.2-0.1-0.3-0.2-0.4c-0.2-0.1-0.4-0.2-0.8-0.3c-0.3-0.1-0.6-0.2-0.8-0.3
		c-0.2-0.1-0.4-0.2-0.6-0.4c-0.2-0.2-0.2-0.4-0.2-0.7c0-0.2,0.1-0.5,0.2-0.7c0.1-0.2,0.3-0.4,0.6-0.5c0.3-0.1,0.6-0.2,0.9-0.2
		c0.5,0,0.9,0.1,1.3,0.4s0.5,0.6,0.5,1.1h-0.9c0-0.2-0.1-0.4-0.2-0.5s-0.3-0.2-0.6-0.2c-0.2,0-0.4,0-0.6,0.1
		c-0.1,0.1-0.2,0.2-0.2,0.4c0,0.1,0,0.2,0.1,0.3c0.1,0.1,0.2,0.1,0.3,0.2c0.1,0,0.3,0.1,0.6,0.2c0.3,0.1,0.6,0.2,0.8,0.3
		c0.2,0.1,0.4,0.2,0.5,0.4c0.2,0.2,0.2,0.4,0.2,0.7c0,0.3-0.1,0.5-0.2,0.7c-0.1,0.2-0.3,0.4-0.6,0.5c-0.3,0.1-0.6,0.2-0.9,0.2
		C50.6,18.7,50.3,18.6,50,18.5z"/>
	<path class="st0" d="M54.8,14.9v2.5c0,0.2,0,0.3,0.1,0.4c0.1,0.1,0.2,0.1,0.4,0.1h0.6v0.8h-0.7c-0.4,0-0.7-0.1-1-0.3
		s-0.3-0.5-0.3-1v-2.5h-0.5v-0.8h0.5V13h0.9v1.1h1.1v0.8H54.8z"/>
</g>
</svg>
