<!-- Generator: Adobe Illustrator 25.0.0, SVG Export Plug-In  -->
<svg version="1.1" xmlns="http://www.w3.org/2000/svg" xmlns:xlink="http://www.w3.org/1999/xlink" x="0px" y="0px" width="108.4px"
	 height="290.5px" viewBox="0 0 108.4 290.5" style="overflow:visible;enable-background:new 0 0 108.4 290.5;"
	 xml:space="preserve">
<style type="text/css">
	.st0{opacity:0.7;fill:#FFFFFF;}
	.st1{opacity:0.7;}
	.st2{fill:#FFFFFF;stroke:#FFFFFF;stroke-width:0.5;stroke-miterlimit:10;}
	.st3{fill:#FFFFFF;}
	.st4{fill:#FFC1BE;}
	.st5{fill:#FFE0DE;}
	.st6{opacity:0.8;fill:#FFFFFF;}
	.st7{opacity:0.65;fill:#FFFFFF;}
	.st8{opacity:0.35;fill:#FFFFFF;}
</style>
<defs>
</defs>
<path class="st0" d="M17.7,81.4l-3.9,0l0-4.1c0-0.5-0.4-0.9-0.8-0.9H9.8c-0.5,0-0.8,0.4-0.8,0.9l0,4.1H5.1c-0.5,0-0.8,0.4-0.8,0.9
	l0,3.2c0,0.5,0.4,0.9,0.8,0.9H9l0,4.1c0,0.5,0.4,0.9,0.8,0.9h3.1c0.5,0,0.8-0.4,0.8-0.9l0-4.1h3.9c0.5,0,0.8-0.4,0.8-0.9l0-3.2
	C18.6,81.8,18.2,81.4,17.7,81.4z"/>
<path class="st0" d="M11.4,53.3c3.6,0,6.9,0.8,9.7,2.1l1.6-8.3c0.1-0.6-0.1-1.3-0.6-1.7c-2.7-1.9-6.5-3.1-10.8-3.1
	c-4.2,0-8,1.2-10.8,3.1c-0.5,0.4-0.7,1-0.6,1.7l1.6,8.4C4.5,54,7.8,53.3,11.4,53.3z M8.7,46.9h1.7l0-1.8c0-0.1,0.1-0.2,0.2-0.2h1.4
	c0.1,0,0.2,0.1,0.2,0.2l0,1.8H14c0.1,0,0.2,0.1,0.2,0.2l0,1.5c0,0.1-0.1,0.2-0.2,0.2h-1.7v1.8c0,0.1-0.1,0.2-0.2,0.2l-1.4,0
	c-0.1,0-0.2-0.1-0.2-0.2l0-1.8l-1.7,0c-0.1,0-0.2-0.1-0.2-0.2l0-1.5C8.5,47,8.6,46.9,8.7,46.9z"/>
<g class="st1">
	<path class="st2" d="M1.5,0.3c-0.4,0-0.7,0.3-0.7,0.7l0,4.8c0,2.7,2.1,4.9,4.8,4.9h0.3l0,6.8c0,2.6,2.1,4.8,4.6,4.8l4.3,0
		c2.5,0,4.6-2.1,4.6-4.8l0-5.6h0c1.5-0.3,2.6-1.7,2.6-3.3c0-1.9-1.5-3.4-3.3-3.4c-1.8,0-3.3,1.5-3.3,3.4c0,1.6,1.1,3,2.6,3.3l0,5.6
		c0,1.9-1.4,3.4-3.3,3.4h-4.3c-1.8,0-3.3-1.5-3.3-3.4l0-6.8h0.3c2.6,0,4.8-2.2,4.8-4.9l0-4.8c0-0.4-0.3-0.7-0.7-0.7c0,0,0,0,0,0
		l-1.6,0c-0.4,0-0.7,0.3-0.7,0.7s0.3,0.7,0.6,0.7c0,0,0,0,0,0l1,0l0,4.2c0,2-1.5,3.6-3.4,3.6H5.6c-1.9,0-3.4-1.6-3.4-3.6l0-4.2l1,0
		c0.4,0,0.7-0.3,0.7-0.7S3.5,0.3,3.1,0.3c0,0,0,0,0,0L1.5,0.3z M18.7,6.5c1.1,0,2,0.9,2,2c0,1.1-0.9,2-2,2c0,0,0,0,0,0
		c-1.1,0-2-0.9-2-2C16.7,7.4,17.6,6.5,18.7,6.5z"/>
</g>
<g>
	<path class="st3" d="M46.7,12.5c-0.6,0.6-1.5,0.9-2.7,0.9h-2.1v4.7h-1.1v-11h3.2c1.2,0,2.1,0.3,2.7,0.9c0.6,0.6,0.9,1.3,0.9,2.3
		C47.6,11.2,47.3,12,46.7,12.5z M46.5,10.3c0-0.7-0.2-1.3-0.6-1.7S44.9,8,44.1,8h-2.1v4.4h2.1C45.7,12.5,46.5,11.7,46.5,10.3z"/>
	<path class="st3" d="M55,9.8c0.5,0.3,0.9,0.7,1.2,1.2c0.3,0.6,0.4,1.2,0.4,2v5h-1v-4.9c0-0.9-0.2-1.6-0.7-2.1
		c-0.4-0.5-1.1-0.7-1.8-0.7c-0.8,0-1.4,0.3-1.9,0.8c-0.5,0.5-0.7,1.3-0.7,2.3v4.7h-1.1V6.5h1.1V11c0.3-0.5,0.6-0.9,1.2-1.2
		c0.5-0.3,1.1-0.4,1.7-0.4C53.9,9.4,54.5,9.5,55,9.8z"/>
	<path class="st3" d="M65.7,9.5l-4.9,12.6h-1.1l1.6-4.1L58,9.5h1.2l2.8,7.3l2.7-7.3H65.7z"/>
	<path class="st3" d="M67.7,17.5c-0.6-0.5-0.9-1.1-1-1.9h1.1c0,0.5,0.3,0.9,0.7,1.2c0.4,0.3,0.9,0.4,1.6,0.4c0.6,0,1-0.1,1.4-0.4
		c0.3-0.3,0.5-0.6,0.5-1c0-0.3-0.1-0.5-0.3-0.7c-0.2-0.2-0.4-0.3-0.7-0.4c-0.3-0.1-0.7-0.2-1.1-0.4c-0.6-0.2-1.1-0.3-1.5-0.5
		s-0.7-0.4-1-0.7s-0.4-0.8-0.4-1.3c0-0.4,0.1-0.8,0.4-1.2c0.2-0.4,0.6-0.6,1-0.8c0.4-0.2,0.9-0.3,1.5-0.3c0.9,0,1.6,0.2,2.1,0.7
		c0.5,0.5,0.8,1.1,0.9,1.9h-1.1c0-0.5-0.2-0.9-0.6-1.2c-0.3-0.3-0.8-0.5-1.4-0.5c-0.5,0-1,0.1-1.3,0.4c-0.3,0.3-0.5,0.6-0.5,1
		c0,0.3,0.1,0.6,0.3,0.8c0.2,0.2,0.4,0.4,0.7,0.5s0.7,0.3,1.2,0.4c0.6,0.2,1.1,0.3,1.4,0.5c0.4,0.2,0.7,0.4,0.9,0.7
		c0.3,0.3,0.4,0.7,0.4,1.2c0,0.5-0.1,0.9-0.4,1.2c-0.2,0.4-0.6,0.6-1,0.9s-0.9,0.3-1.5,0.3C69.1,18.2,68.3,18,67.7,17.5z"/>
	<path class="st3" d="M74.9,7.7c-0.2-0.2-0.2-0.4-0.2-0.6c0-0.2,0.1-0.4,0.2-0.6c0.2-0.2,0.3-0.2,0.5-0.2c0.2,0,0.4,0.1,0.5,0.2
		c0.2,0.2,0.2,0.3,0.2,0.6c0,0.2-0.1,0.4-0.2,0.6c-0.2,0.2-0.3,0.2-0.5,0.2C75.2,7.9,75,7.8,74.9,7.7z M75.9,9.5v8.6h-1.1V9.5H75.9z
		"/>
	<path class="st3" d="M78.4,11.5c0.3-0.7,0.8-1.2,1.4-1.5s1.3-0.5,2.1-0.5c1,0,1.9,0.3,2.5,0.8c0.7,0.5,1.1,1.2,1.3,2.1h-1.1
		c-0.1-0.6-0.4-1.1-0.9-1.4c-0.5-0.3-1-0.5-1.7-0.5c-0.6,0-1.1,0.1-1.5,0.4c-0.4,0.3-0.8,0.7-1,1.2c-0.3,0.5-0.4,1.2-0.4,1.9
		s0.1,1.4,0.4,1.9c0.3,0.5,0.6,0.9,1,1.2c0.4,0.3,0.9,0.4,1.5,0.4c0.7,0,1.3-0.2,1.7-0.5s0.8-0.8,0.9-1.5h1.1
		c-0.2,0.9-0.6,1.6-1.3,2.1s-1.5,0.8-2.5,0.8c-0.8,0-1.5-0.2-2.1-0.5s-1.1-0.9-1.4-1.5c-0.3-0.7-0.5-1.4-0.5-2.3S78,12.1,78.4,11.5z
		"/>
	<path class="st3" d="M87.6,7.7c-0.2-0.2-0.2-0.4-0.2-0.6c0-0.2,0.1-0.4,0.2-0.6c0.2-0.2,0.3-0.2,0.5-0.2c0.2,0,0.4,0.1,0.5,0.2
		c0.2,0.2,0.2,0.3,0.2,0.6c0,0.2-0.1,0.4-0.2,0.6c-0.2,0.2-0.3,0.2-0.5,0.2C87.9,7.9,87.7,7.8,87.6,7.7z M88.6,9.5v8.6h-1.1V9.5
		H88.6z"/>
	<path class="st3" d="M91.1,11.5c0.3-0.7,0.8-1.2,1.4-1.5s1.3-0.5,2-0.5c0.8,0,1.5,0.2,2,0.6s1,0.9,1.2,1.4V9.5h1.1v8.6h-1.1v-1.9
		c-0.3,0.6-0.7,1.1-1.2,1.4c-0.6,0.4-1.2,0.6-2,0.6c-0.7,0-1.4-0.2-2-0.5s-1.1-0.9-1.4-1.6c-0.3-0.7-0.5-1.4-0.5-2.3
		S90.7,12.1,91.1,11.5z M97.3,12c-0.3-0.5-0.6-0.9-1.1-1.2c-0.5-0.3-1-0.4-1.5-0.4c-0.6,0-1.1,0.1-1.6,0.4c-0.5,0.3-0.8,0.7-1.1,1.2
		c-0.3,0.5-0.4,1.1-0.4,1.8c0,0.7,0.1,1.3,0.4,1.8c0.3,0.5,0.6,0.9,1.1,1.2c0.5,0.3,1,0.4,1.6,0.4c0.6,0,1.1-0.1,1.5-0.4
		c0.5-0.3,0.8-0.7,1.1-1.2c0.3-0.5,0.4-1.1,0.4-1.8S97.6,12.5,97.3,12z"/>
	<path class="st3" d="M107.5,10.3c0.6,0.6,0.9,1.5,0.9,2.7v5h-1v-4.9c0-0.9-0.2-1.6-0.7-2.1c-0.4-0.5-1.1-0.7-1.8-0.7
		c-0.8,0-1.4,0.3-1.9,0.8c-0.5,0.5-0.7,1.3-0.7,2.3v4.7h-1.1V9.5h1.1V11c0.3-0.5,0.6-0.9,1.1-1.2c0.5-0.3,1.1-0.4,1.7-0.4
		C106.1,9.4,106.9,9.7,107.5,10.3z"/>
</g>
<g>
	<path class="st3" d="M50,55.5H49l-5.8-9.2v9.2h-1.1v-11h1.1l5.8,9.2v-9.2H50V55.5z"/>
	<path class="st3" d="M59.6,46.9v8.6h-1.1V54c-0.2,0.5-0.6,0.9-1.1,1.2c-0.5,0.3-1.1,0.4-1.7,0.4c-1,0-1.8-0.3-2.4-0.9
		s-0.9-1.5-0.9-2.7v-5h1v4.9c0,0.9,0.2,1.6,0.7,2.1c0.4,0.5,1.1,0.7,1.8,0.7c0.8,0,1.4-0.3,1.9-0.8c0.5-0.5,0.7-1.3,0.7-2.3v-4.7
		H59.6z"/>
	<path class="st3" d="M64.1,47.2c0.5-0.3,1.1-0.4,1.8-0.4v1.1h-0.3c-0.8,0-1.4,0.2-1.8,0.6s-0.7,1.1-0.7,2.1v4.8H62v-8.6h1.1v1.5
		C63.3,47.9,63.6,47.5,64.1,47.2z"/>
	<path class="st3" d="M68,54.9c-0.6-0.5-0.9-1.1-1-1.9h1.1c0,0.5,0.3,0.9,0.7,1.2c0.4,0.3,0.9,0.4,1.6,0.4c0.6,0,1-0.1,1.4-0.4
		c0.3-0.3,0.5-0.6,0.5-1c0-0.3-0.1-0.5-0.3-0.7c-0.2-0.2-0.4-0.3-0.7-0.4c-0.3-0.1-0.7-0.2-1.1-0.4c-0.6-0.2-1.1-0.3-1.5-0.5
		s-0.7-0.4-1-0.7s-0.4-0.8-0.4-1.3c0-0.4,0.1-0.8,0.4-1.2c0.2-0.4,0.6-0.6,1-0.8c0.4-0.2,0.9-0.3,1.5-0.3c0.9,0,1.6,0.2,2.1,0.7
		c0.5,0.5,0.8,1.1,0.9,1.9H72c0-0.5-0.2-0.9-0.6-1.2c-0.3-0.3-0.8-0.5-1.4-0.5c-0.5,0-1,0.1-1.3,0.4c-0.3,0.3-0.5,0.6-0.5,1
		c0,0.3,0.1,0.6,0.3,0.8c0.2,0.2,0.4,0.4,0.7,0.5s0.7,0.3,1.2,0.4c0.6,0.2,1.1,0.3,1.4,0.5c0.4,0.2,0.7,0.4,0.9,0.7
		c0.3,0.3,0.4,0.7,0.4,1.2c0,0.5-0.1,0.9-0.4,1.2c-0.2,0.4-0.6,0.6-1,0.9s-0.9,0.3-1.5,0.3C69.4,55.6,68.6,55.4,68,54.9z"/>
	<path class="st3" d="M82.6,51.6h-6.8c0,0.6,0.2,1.2,0.5,1.7c0.3,0.5,0.6,0.8,1.1,1c0.4,0.2,0.9,0.4,1.4,0.4c0.7,0,1.3-0.2,1.7-0.5
		s0.8-0.8,0.9-1.4h1.1c-0.2,0.8-0.6,1.5-1.3,2c-0.7,0.5-1.5,0.8-2.5,0.8c-0.8,0-1.5-0.2-2.1-0.5c-0.6-0.4-1.1-0.9-1.4-1.5
		c-0.3-0.7-0.5-1.4-0.5-2.3s0.2-1.7,0.5-2.3c0.3-0.7,0.8-1.2,1.4-1.5c0.6-0.4,1.3-0.5,2.1-0.5c0.8,0,1.5,0.2,2.1,0.5s1,0.8,1.4,1.4
		c0.3,0.6,0.5,1.3,0.5,2C82.6,51.2,82.6,51.4,82.6,51.6z M81.2,49.1c-0.3-0.4-0.6-0.8-1-1c-0.4-0.2-0.9-0.3-1.4-0.3
		c-0.8,0-1.5,0.3-2,0.8c-0.6,0.5-0.9,1.3-0.9,2.2h5.8C81.6,50.1,81.4,49.6,81.2,49.1z"/>
</g>
<g>
	<path class="st3" d="M44.2,89.2c-0.8-0.5-1.4-1.1-1.9-2c-0.5-0.9-0.7-1.8-0.7-2.9c0-1.1,0.2-2,0.7-2.9s1.1-1.5,1.9-2
		s1.7-0.7,2.7-0.7c1,0,1.9,0.2,2.7,0.7c0.8,0.5,1.4,1.1,1.9,2c0.5,0.9,0.7,1.8,0.7,2.9c0,1.1-0.2,2-0.7,2.9c-0.5,0.9-1.1,1.5-1.9,2
		c-0.8,0.5-1.7,0.7-2.7,0.7C45.9,89.9,45,89.7,44.2,89.2z M48.9,88.4c0.6-0.4,1.1-0.9,1.5-1.6c0.4-0.7,0.5-1.5,0.5-2.5
		c0-0.9-0.2-1.7-0.5-2.4s-0.9-1.2-1.5-1.6c-0.6-0.4-1.3-0.6-2.1-0.6s-1.5,0.2-2.1,0.6s-1.1,0.9-1.5,1.6s-0.5,1.5-0.5,2.4
		c0,0.9,0.2,1.7,0.5,2.5c0.4,0.7,0.9,1.2,1.5,1.6S46,89,46.8,89S48.3,88.8,48.9,88.4z"/>
	<path class="st3" d="M55.4,82.2v5.3c0,0.5,0.1,0.9,0.3,1.1c0.2,0.2,0.5,0.3,1,0.3h1v0.9h-1.1c-0.7,0-1.3-0.2-1.7-0.5
		s-0.5-1-0.5-1.8v-5.3h-1.1v-0.9h1.1v-2.1h1.1v2.1h2.3v0.9H55.4z"/>
	<path class="st3" d="M65,81.5c0.5,0.3,0.9,0.7,1.2,1.2c0.3,0.6,0.4,1.2,0.4,2v5h-1v-4.9c0-0.9-0.2-1.6-0.7-2.1
		c-0.4-0.5-1.1-0.7-1.8-0.7c-0.8,0-1.4,0.3-1.9,0.8c-0.5,0.5-0.7,1.3-0.7,2.3v4.7h-1.1V78.2h1.1v4.5c0.3-0.5,0.6-0.9,1.2-1.2
		c0.5-0.3,1.1-0.4,1.7-0.4C63.9,81.1,64.5,81.2,65,81.5z"/>
	<path class="st3" d="M76.3,86h-6.8c0,0.6,0.2,1.2,0.5,1.7c0.3,0.5,0.6,0.8,1.1,1c0.4,0.2,0.9,0.4,1.4,0.4c0.7,0,1.3-0.2,1.7-0.5
		s0.8-0.8,0.9-1.4h1.1c-0.2,0.8-0.6,1.5-1.3,2c-0.7,0.5-1.5,0.8-2.5,0.8c-0.8,0-1.5-0.2-2.1-0.5c-0.6-0.4-1.1-0.9-1.4-1.5
		c-0.3-0.7-0.5-1.4-0.5-2.3s0.2-1.7,0.5-2.3c0.3-0.7,0.8-1.2,1.4-1.5c0.6-0.4,1.3-0.5,2.1-0.5c0.8,0,1.5,0.2,2.1,0.5s1,0.8,1.4,1.4
		c0.3,0.6,0.5,1.3,0.5,2C76.4,85.5,76.4,85.8,76.3,86z M74.9,83.4c-0.3-0.4-0.6-0.8-1-1c-0.4-0.2-0.9-0.3-1.4-0.3
		c-0.8,0-1.5,0.3-2,0.8c-0.6,0.5-0.9,1.3-0.9,2.2h5.8C75.3,84.4,75.2,83.9,74.9,83.4z"/>
	<path class="st3" d="M80.4,81.5c0.5-0.3,1.1-0.4,1.8-0.4v1.1h-0.3c-0.8,0-1.4,0.2-1.8,0.6S79.4,84,79.4,85v4.8h-1.1v-8.6h1.1v1.5
		C79.6,82.2,79.9,81.8,80.4,81.5z"/>
</g>
<g>
	<path class="st3" d="M40.6,117.8H42l3.8,3.6l-3.8,3.6h-1.3l3.8-3.6L40.6,117.8z"/>
	<path class="st3" d="M56.1,122.5c1-1.1,1.5-2.3,1.5-3.4c0-0.7-0.2-1.3-0.5-1.7s-0.9-0.7-1.7-0.7c-0.8,0-1.4,0.2-1.8,0.7
		c-0.4,0.5-0.7,1.2-0.7,2h-1c0.1-1.2,0.4-2.1,1-2.7c0.6-0.6,1.5-1,2.5-1c1,0,1.8,0.3,2.4,0.9s0.9,1.4,0.9,2.4c0,1.3-0.5,2.5-1.5,3.7
		c-1,1.2-2.3,2.3-3.7,3.5H59v0.9h-7.2v-0.8C53.6,124.9,55.1,123.6,56.1,122.5z"/>
	<path class="st3" d="M61.4,117.3c0.5-1,1.5-1.5,2.9-1.5c1.4,0,2.3,0.5,2.9,1.5c0.5,1,0.8,2.4,0.8,4.2c0,1.8-0.3,3.2-0.8,4.2
		s-1.5,1.5-2.9,1.5c-1.4,0-2.3-0.5-2.9-1.5s-0.8-2.4-0.8-4.2C60.6,119.7,60.9,118.3,61.4,117.3z M66.7,119c-0.1-0.7-0.4-1.2-0.8-1.6
		c-0.4-0.4-0.9-0.6-1.7-0.6s-1.3,0.2-1.7,0.6c-0.4,0.4-0.6,0.9-0.8,1.6s-0.2,1.5-0.2,2.5c0,1,0.1,1.8,0.2,2.5
		c0.1,0.7,0.4,1.2,0.8,1.6c0.4,0.4,0.9,0.6,1.7,0.6s1.3-0.2,1.7-0.6c0.4-0.4,0.6-0.9,0.8-1.6c0.1-0.7,0.2-1.5,0.2-2.5
		C66.9,120.5,66.8,119.7,66.7,119z"/>
	<path class="st3" d="M81.1,118.7l-4.9,12.6h-1.1l1.6-4.1l-3.4-8.5h1.2l2.8,7.3l2.7-7.3H81.1z"/>
</g>
<g>
	<path class="st3" d="M40.1,157.3v-1h2.6v11.2h-1.1v-10.2H40.1z"/>
	<path class="st3" d="M51.9,157.2h-5.5v4c0.3-0.4,0.6-0.7,1.1-0.9c0.5-0.2,1-0.4,1.6-0.4c0.8,0,1.5,0.2,2,0.5s0.9,0.8,1.1,1.4
		s0.3,1.2,0.3,1.8c0,0.7-0.1,1.4-0.4,2s-0.7,1.1-1.2,1.4s-1.2,0.5-2,0.5c-1,0-1.9-0.3-2.5-0.8s-1-1.3-1.2-2.3h1
		c0.1,0.7,0.4,1.2,0.9,1.6c0.5,0.4,1.1,0.6,1.8,0.6c0.9,0,1.5-0.3,2-0.8c0.4-0.5,0.7-1.2,0.7-2.1c0-0.9-0.2-1.5-0.7-2
		c-0.5-0.5-1.1-0.7-1.9-0.7c-0.6,0-1.1,0.1-1.5,0.4c-0.4,0.3-0.8,0.7-1,1.1h-1v-6.2h6.5V157.2z"/>
	<path class="st3" d="M63.9,161.2v0.9H58v-0.9H63.9z"/>
	<path class="st3" d="M74.6,162.8c1-1.1,1.5-2.3,1.5-3.4c0-0.7-0.2-1.3-0.5-1.7c-0.3-0.4-0.9-0.6-1.7-0.6c-0.8,0-1.4,0.2-1.8,0.7
		c-0.4,0.5-0.7,1.2-0.7,2h-1c0.1-1.2,0.4-2.1,1-2.7c0.6-0.6,1.5-1,2.5-1c1,0,1.8,0.3,2.4,0.9c0.6,0.6,0.9,1.4,0.9,2.4
		c0,1.3-0.5,2.5-1.5,3.7c-1,1.2-2.3,2.3-3.7,3.5h5.6v0.9h-7.2v-0.8C72.1,165.2,73.6,163.9,74.6,162.8z"/>
	<path class="st3" d="M79.9,157.6c0.5-1,1.5-1.5,2.9-1.5c1.4,0,2.3,0.5,2.9,1.5s0.8,2.4,0.8,4.2c0,1.8-0.3,3.2-0.8,4.2
		s-1.5,1.5-2.9,1.5c-1.4,0-2.3-0.5-2.9-1.5s-0.8-2.4-0.8-4.2C79.1,160,79.4,158.6,79.9,157.6z M85.2,159.3c-0.1-0.7-0.4-1.2-0.8-1.6
		c-0.4-0.4-0.9-0.6-1.7-0.6s-1.3,0.2-1.7,0.6c-0.4,0.4-0.6,0.9-0.8,1.6s-0.2,1.5-0.2,2.5c0,1,0.1,1.8,0.2,2.5
		c0.1,0.7,0.4,1.2,0.8,1.6c0.4,0.4,0.9,0.6,1.7,0.6s1.3-0.2,1.7-0.6c0.4-0.4,0.6-0.9,0.8-1.6c0.1-0.7,0.2-1.5,0.2-2.5
		C85.4,160.8,85.3,160,85.2,159.3z"/>
	<path class="st3" d="M99.6,159l-4.9,12.6h-1.1l1.6-4.1l-3.4-8.5H93l2.8,7.3l2.7-7.3H99.6z"/>
</g>
<ellipse class="st4" cx="11.4" cy="122.3" rx="10.8" ry="11.2"/>
<ellipse class="st5" cx="11.4" cy="161.3" rx="10.8" ry="11.2"/>
<g>
	<path class="st3" d="M40.3,197.2v-1h2.6v11.2h-1.1v-10.2H40.3z"/>
	<path class="st3" d="M46,197.6c0.5-1,1.5-1.5,2.9-1.5c1.4,0,2.3,0.5,2.9,1.5s0.8,2.4,0.8,4.2c0,1.8-0.3,3.2-0.8,4.2
		s-1.5,1.5-2.9,1.5c-1.4,0-2.3-0.5-2.9-1.5s-0.8-2.4-0.8-4.2C45.2,200,45.5,198.6,46,197.6z M51.3,199.3c-0.1-0.7-0.4-1.2-0.8-1.6
		c-0.4-0.4-0.9-0.6-1.7-0.6s-1.3,0.2-1.7,0.6c-0.4,0.4-0.6,0.9-0.8,1.6s-0.2,1.5-0.2,2.5c0,1,0.1,1.8,0.2,2.5
		c0.1,0.7,0.4,1.2,0.8,1.6c0.4,0.4,0.9,0.6,1.7,0.6s1.3-0.2,1.7-0.6c0.4-0.4,0.6-0.9,0.8-1.6c0.1-0.7,0.2-1.5,0.2-2.5
		C51.5,200.8,51.4,200,51.3,199.3z"/>
	<path class="st3" d="M64,201.2v0.9h-5.9v-0.9H64z"/>
	<path class="st3" d="M70.1,197.2v-1h2.6v11.2h-1.1v-10.2H70.1z"/>
	<path class="st3" d="M81.8,197.2h-5.5v4c0.3-0.4,0.6-0.7,1.1-0.9c0.5-0.2,1-0.4,1.6-0.4c0.8,0,1.5,0.2,2,0.5s0.9,0.8,1.1,1.4
		s0.3,1.2,0.3,1.8c0,0.7-0.1,1.4-0.4,2s-0.7,1.1-1.2,1.4s-1.2,0.5-2,0.5c-1,0-1.9-0.3-2.5-0.8s-1-1.3-1.2-2.3h1
		c0.1,0.7,0.4,1.2,0.9,1.6c0.5,0.4,1.1,0.6,1.8,0.6c0.9,0,1.5-0.3,2-0.8c0.4-0.5,0.7-1.2,0.7-2.1c0-0.9-0.2-1.5-0.7-2
		c-0.5-0.5-1.1-0.7-1.9-0.7c-0.6,0-1.1,0.1-1.5,0.4c-0.4,0.3-0.8,0.7-1,1.1h-1v-6.2h6.5V197.2z"/>
	<path class="st3" d="M95.5,198.9l-4.9,12.6h-1.1l1.6-4.1l-3.4-8.5h1.2l2.8,7.3l2.7-7.3H95.5z"/>
</g>
<ellipse class="st6" cx="11.6" cy="201.2" rx="10.8" ry="11.2"/>
<g>
	<path class="st3" d="M47.5,236.3H42v4c0.3-0.4,0.6-0.7,1.1-0.9c0.5-0.2,1-0.4,1.6-0.4c0.8,0,1.5,0.2,2,0.5s0.9,0.8,1.1,1.4
		s0.3,1.2,0.3,1.8c0,0.7-0.1,1.4-0.4,2s-0.7,1.1-1.2,1.4s-1.2,0.5-2,0.5c-1,0-1.9-0.3-2.5-0.8s-1-1.3-1.2-2.3h1
		c0.1,0.7,0.4,1.2,0.9,1.6c0.5,0.4,1.1,0.6,1.8,0.6c0.9,0,1.5-0.3,2-0.8c0.4-0.5,0.7-1.2,0.7-2.1c0-0.9-0.2-1.5-0.7-2
		c-0.5-0.5-1.1-0.7-1.9-0.7c-0.6,0-1.1,0.1-1.5,0.4c-0.4,0.3-0.8,0.7-1,1.1h-1v-6.2h6.5V236.3z"/>
	<path class="st3" d="M59.5,240.3v0.9h-5.9v-0.9H59.5z"/>
	<path class="st3" d="M65.6,236.4v-1h2.6v11.2h-1.1v-10.2H65.6z"/>
	<path class="st3" d="M71.3,236.7c0.5-1,1.5-1.5,2.9-1.5c1.4,0,2.3,0.5,2.9,1.5s0.8,2.4,0.8,4.2c0,1.8-0.3,3.2-0.8,4.2
		s-1.5,1.5-2.9,1.5c-1.4,0-2.3-0.5-2.9-1.5s-0.8-2.4-0.8-4.2C70.5,239.1,70.7,237.7,71.3,236.7z M76.6,238.4
		c-0.1-0.7-0.4-1.2-0.8-1.6c-0.4-0.4-0.9-0.6-1.7-0.6s-1.3,0.2-1.7,0.6c-0.4,0.4-0.6,0.9-0.8,1.6s-0.2,1.5-0.2,2.5
		c0,1,0.1,1.8,0.2,2.5c0.1,0.7,0.4,1.2,0.8,1.6c0.4,0.4,0.9,0.6,1.7,0.6s1.3-0.2,1.7-0.6c0.4-0.4,0.6-0.9,0.8-1.6
		c0.1-0.7,0.2-1.5,0.2-2.5C76.8,239.9,76.7,239.1,76.6,238.4z"/>
	<path class="st3" d="M90.9,238.1L86,250.6h-1.1l1.6-4.1l-3.4-8.5h1.2l2.8,7.3l2.7-7.3H90.9z"/>
</g>
<ellipse class="st7" cx="11.4" cy="240.4" rx="10.8" ry="11.2"/>
<g>
	<path class="st3" d="M41.6,275.7c0.5-1,1.5-1.5,2.9-1.5c1.4,0,2.3,0.5,2.9,1.5s0.8,2.4,0.8,4.2c0,1.8-0.3,3.2-0.8,4.2
		s-1.5,1.5-2.9,1.5c-1.4,0-2.3-0.5-2.9-1.5s-0.8-2.4-0.8-4.2C40.8,278.1,41.1,276.7,41.6,275.7z M46.9,277.4
		c-0.1-0.7-0.4-1.2-0.8-1.6c-0.4-0.4-0.9-0.6-1.7-0.6s-1.3,0.2-1.7,0.6c-0.4,0.4-0.6,0.9-0.8,1.6s-0.2,1.5-0.2,2.5
		c0,1,0.1,1.8,0.2,2.5c0.1,0.7,0.4,1.2,0.8,1.6c0.4,0.4,0.9,0.6,1.7,0.6s1.3-0.2,1.7-0.6c0.4-0.4,0.6-0.9,0.8-1.6
		c0.1-0.7,0.2-1.5,0.2-2.5C47.1,278.9,47,278.1,46.9,277.4z"/>
	<path class="st3" d="M59.6,279.3v0.9h-5.9v-0.9H59.6z"/>
	<path class="st3" d="M73,275.3h-5.5v4c0.3-0.4,0.6-0.7,1.1-0.9c0.5-0.2,1-0.4,1.6-0.4c0.8,0,1.5,0.2,2,0.5s0.9,0.8,1.1,1.4
		s0.3,1.2,0.3,1.8c0,0.7-0.1,1.4-0.4,2s-0.7,1.1-1.2,1.4s-1.2,0.5-2,0.5c-1,0-1.9-0.3-2.5-0.8s-1-1.3-1.2-2.3h1
		c0.1,0.7,0.4,1.2,0.9,1.6c0.5,0.4,1.1,0.6,1.8,0.6c0.9,0,1.5-0.3,2-0.8c0.4-0.5,0.7-1.2,0.7-2.1c0-0.9-0.2-1.5-0.7-2
		c-0.5-0.5-1.1-0.7-1.9-0.7c-0.6,0-1.1,0.1-1.5,0.4c-0.4,0.3-0.8,0.7-1,1.1h-1v-6.2H73V275.3z"/>
	<path class="st3" d="M86.7,277.1l-4.9,12.6h-1.1l1.6-4.1l-3.4-8.5h1.2l2.8,7.3l2.7-7.3H86.7z"/>
</g>
<ellipse class="st8" cx="11.6" cy="279.4" rx="10.8" ry="11.2"/>
</svg>
