<!-- Generator: Adobe Illustrator 25.0.0, SVG Export Plug-In  -->
<svg version="1.1" xmlns="http://www.w3.org/2000/svg" xmlns:xlink="http://www.w3.org/1999/xlink" x="0px" y="0px" width="119.8px"
	 height="19.6px" viewBox="0 0 119.8 19.6" style="overflow:visible;enable-background:new 0 0 119.8 19.6;" xml:space="preserve">
<style type="text/css">
	.st0{fill:#FFFFFF;}
</style>
<defs>
</defs>
<g>
	<path class="st0" d="M11.2,0.1L8.8,8.2H7.3L5.6,2.1L3.8,8.2l-1.5,0L0,0.1h1.4l1.7,6.6l1.8-6.6h1.5l1.7,6.6l1.7-6.6H11.2z"/>
	<path class="st0" d="M13.6,0.1v8.1h-1.3V0.1H13.6z"/>
	<path class="st0" d="M22,8.2h-1.3l-4-6v6h-1.3V0.1h1.3l4,6v-6H22V8.2z"/>
	<path class="st0" d="M24.9,8c-0.4-0.2-0.8-0.5-1-0.8c-0.2-0.3-0.4-0.8-0.4-1.2H25c0,0.3,0.2,0.6,0.4,0.9c0.2,0.2,0.6,0.3,1,0.3
		c0.5,0,0.8-0.1,1.1-0.3c0.3-0.2,0.4-0.5,0.4-0.9c0-0.3-0.1-0.5-0.2-0.7S27.3,5,27,4.9c-0.2-0.1-0.6-0.2-1-0.3
		c-0.5-0.1-1-0.3-1.3-0.4s-0.6-0.4-0.8-0.7c-0.2-0.3-0.3-0.7-0.3-1.2c0-0.5,0.1-0.9,0.3-1.2c0.2-0.3,0.6-0.6,1-0.8
		C25.3,0.1,25.8,0,26.4,0c0.8,0,1.4,0.2,1.9,0.6c0.5,0.4,0.8,0.9,0.8,1.6h-1.5c0-0.3-0.2-0.5-0.4-0.8c-0.3-0.2-0.6-0.3-1-0.3
		c-0.4,0-0.7,0.1-0.9,0.3c-0.2,0.2-0.4,0.5-0.4,0.8c0,0.2,0.1,0.5,0.2,0.6s0.3,0.3,0.6,0.4c0.2,0.1,0.6,0.2,1,0.3
		c0.5,0.1,1,0.3,1.3,0.4c0.3,0.1,0.6,0.4,0.9,0.7c0.2,0.3,0.4,0.7,0.4,1.2c0,0.4-0.1,0.8-0.3,1.2c-0.2,0.4-0.5,0.7-1,0.9
		c-0.4,0.2-0.9,0.3-1.5,0.3C25.9,8.3,25.4,8.2,24.9,8z"/>
	<path class="st0" d="M36,0.1v1.1h-2.2v7h-1.3v-7h-2.2V0.1H36z"/>
	<path class="st0" d="M39,7.7c-0.6-0.4-1.1-0.8-1.5-1.5c-0.4-0.6-0.6-1.3-0.6-2.1s0.2-1.5,0.6-2.1c0.4-0.6,0.9-1.1,1.5-1.5
		C39.6,0.2,40.3,0,41,0c0.8,0,1.5,0.2,2.1,0.5c0.6,0.4,1.1,0.8,1.5,1.5c0.4,0.6,0.5,1.3,0.5,2.1S45,5.6,44.6,6.3
		c-0.4,0.6-0.9,1.1-1.5,1.5c-0.6,0.4-1.3,0.5-2.1,0.5C40.3,8.3,39.6,8.1,39,7.7z M42.5,6.8c0.4-0.2,0.7-0.6,1-1
		c0.2-0.5,0.4-1,0.4-1.6S43.7,3,43.4,2.6c-0.2-0.5-0.6-0.8-1-1S41.6,1.2,41,1.2c-0.5,0-1,0.1-1.4,0.4c-0.4,0.2-0.7,0.6-1,1
		c-0.2,0.5-0.4,1-0.4,1.6s0.1,1.1,0.4,1.6c0.2,0.5,0.6,0.8,1,1C40,7,40.5,7.1,41,7.1C41.6,7.1,42,7,42.5,6.8z"/>
	<path class="st0" d="M53.1,8.2h-1.3l-4-6v6h-1.3V0.1h1.3l4,6v-6h1.3V8.2z"/>
	<path class="st0" d="M59.8,3.4v1.1H55V3.4H59.8z"/>
	<path class="st0" d="M62.9,8c-0.4-0.2-0.8-0.5-1-0.8c-0.2-0.3-0.4-0.8-0.4-1.2h1.4c0,0.3,0.2,0.6,0.4,0.9c0.2,0.2,0.6,0.3,1,0.3
		c0.5,0,0.8-0.1,1.1-0.3c0.3-0.2,0.4-0.5,0.4-0.9c0-0.3-0.1-0.5-0.2-0.7S65.2,5,65,4.9c-0.2-0.1-0.6-0.2-1-0.3
		c-0.5-0.1-1-0.3-1.3-0.4s-0.6-0.4-0.8-0.7c-0.2-0.3-0.3-0.7-0.3-1.2c0-0.5,0.1-0.9,0.3-1.2c0.2-0.3,0.6-0.6,1-0.8
		C63.2,0.1,63.7,0,64.3,0c0.8,0,1.4,0.2,1.9,0.6C66.7,1,67,1.5,67,2.2h-1.5c0-0.3-0.2-0.5-0.4-0.8c-0.3-0.2-0.6-0.3-1-0.3
		c-0.4,0-0.7,0.1-0.9,0.3c-0.2,0.2-0.4,0.5-0.4,0.8c0,0.2,0.1,0.5,0.2,0.6s0.3,0.3,0.6,0.4c0.2,0.1,0.6,0.2,1,0.3
		c0.5,0.1,1,0.3,1.3,0.4c0.3,0.1,0.6,0.4,0.9,0.7C67,5,67.1,5.4,67.1,5.9c0,0.4-0.1,0.8-0.3,1.2c-0.2,0.4-0.5,0.7-1,0.9
		c-0.4,0.2-0.9,0.3-1.5,0.3C63.8,8.3,63.3,8.2,62.9,8z"/>
	<path class="st0" d="M73.6,6.5h-3.4l-0.6,1.7h-1.4l2.9-8.1h1.5l2.9,8.1h-1.4L73.6,6.5z M73.2,5.5l-1.3-3.8l-1.3,3.8H73.2z"/>
	<path class="st0" d="M78.1,7.1h2.7v1.1h-4.1V0.1h1.3V7.1z"/>
	<path class="st0" d="M83.3,1.2v2.4h2.8v1.1h-2.8v2.5h3.1v1.1H82V0.1h4.5v1.1H83.3z"/>
	<path class="st0" d="M96.6,0.1v8.1h-1.3V2.7l-2.5,5.5h-0.9l-2.5-5.5v5.5h-1.3V0.1h1.4l2.8,6.3l2.8-6.3H96.6z"/>
	<path class="st0" d="M99.8,6.6l-1.4,3.2h-0.9l0.8-3.2H99.8z"/>
	<path class="st0" d="M110.6,8.2h-1.3l-4-6v6H104V0.1h1.3l4,6v-6h1.3V8.2z"/>
	<path class="st0" d="M112.5,2c0.4-0.6,0.9-1.1,1.5-1.5c0.6-0.4,1.3-0.5,2.1-0.5c0.9,0,1.6,0.2,2.3,0.6c0.7,0.4,1.2,1,1.5,1.8h-1.6
		c-0.2-0.4-0.5-0.7-0.9-1c-0.4-0.2-0.8-0.3-1.3-0.3c-0.5,0-1,0.1-1.4,0.4c-0.4,0.2-0.7,0.6-1,1c-0.2,0.5-0.4,1-0.4,1.6
		s0.1,1.1,0.4,1.6c0.2,0.5,0.6,0.8,1,1c0.4,0.2,0.9,0.4,1.4,0.4c0.5,0,0.9-0.1,1.3-0.3c0.4-0.2,0.7-0.5,0.9-1h1.6
		c-0.3,0.8-0.8,1.4-1.5,1.8c-0.7,0.4-1.4,0.6-2.3,0.6c-0.8,0-1.5-0.2-2.1-0.5c-0.6-0.4-1.1-0.8-1.5-1.5c-0.4-0.6-0.6-1.3-0.6-2.1
		S112.1,2.6,112.5,2z"/>
	<path class="st0" d="M0.3,15.3c-0.1-0.1-0.2-0.2-0.2-0.4s0.1-0.3,0.2-0.4c0.1-0.1,0.2-0.2,0.4-0.2c0.2,0,0.3,0.1,0.4,0.2
		c0.1,0.1,0.2,0.2,0.2,0.4s-0.1,0.3-0.2,0.4c-0.1,0.1-0.2,0.2-0.4,0.2C0.6,15.5,0.5,15.4,0.3,15.3z"/>
	<path class="st0" d="M7.1,17.5l-1.2-2.2H5.2v2.2H4.3v-5.4h1.9c0.4,0,0.8,0.1,1.1,0.2c0.3,0.1,0.5,0.3,0.6,0.6C8,13.2,8,13.4,8,13.7
		c0,0.4-0.1,0.7-0.3,1s-0.5,0.5-0.9,0.6l1.3,2.2H7.1z M5.2,14.6h1c0.3,0,0.6-0.1,0.7-0.2c0.2-0.2,0.3-0.4,0.3-0.7s-0.1-0.5-0.2-0.7
		c-0.2-0.2-0.4-0.2-0.8-0.2h-1V14.6z"/>
	<path class="st0" d="M13.1,15.7H9.8c0,0.3,0.2,0.6,0.4,0.8s0.5,0.3,0.8,0.3c0.5,0,0.8-0.2,1-0.6h1c-0.1,0.4-0.4,0.7-0.7,1
		s-0.8,0.4-1.3,0.4c-0.4,0-0.8-0.1-1.1-0.3c-0.3-0.2-0.6-0.4-0.8-0.8c-0.2-0.3-0.3-0.7-0.3-1.2s0.1-0.8,0.3-1.2
		c0.2-0.3,0.4-0.6,0.8-0.8c0.3-0.2,0.7-0.3,1.1-0.3c0.4,0,0.8,0.1,1.1,0.3s0.6,0.4,0.7,0.7s0.3,0.7,0.3,1.1
		C13.1,15.4,13.1,15.6,13.1,15.7z M12.2,15c0-0.3-0.1-0.6-0.3-0.8c-0.2-0.2-0.5-0.3-0.8-0.3c-0.3,0-0.6,0.1-0.8,0.3
		C10,14.4,9.8,14.7,9.8,15H12.2z"/>
	<path class="st0" d="M16.6,13.4c0.3,0.1,0.5,0.3,0.6,0.5v-0.6h0.9v4.3c0,0.4-0.1,0.7-0.2,1.1c-0.2,0.3-0.4,0.5-0.7,0.7
		c-0.3,0.2-0.7,0.3-1.1,0.3c-0.6,0-1.1-0.1-1.4-0.4s-0.6-0.6-0.7-1.1h0.9c0.1,0.2,0.2,0.4,0.4,0.5c0.2,0.1,0.5,0.2,0.8,0.2
		c0.4,0,0.6-0.1,0.9-0.3s0.3-0.5,0.3-0.9v-0.7c-0.2,0.2-0.4,0.4-0.6,0.5s-0.5,0.2-0.9,0.2c-0.4,0-0.7-0.1-1-0.3
		c-0.3-0.2-0.6-0.5-0.7-0.8s-0.3-0.7-0.3-1.2s0.1-0.8,0.3-1.1s0.4-0.6,0.7-0.8s0.6-0.3,1-0.3C16,13.2,16.3,13.2,16.6,13.4z M17,14.6
		c-0.1-0.2-0.3-0.4-0.5-0.5c-0.2-0.1-0.4-0.2-0.6-0.2s-0.4,0.1-0.6,0.2c-0.2,0.1-0.4,0.3-0.5,0.5c-0.1,0.2-0.2,0.5-0.2,0.8
		s0.1,0.6,0.2,0.8c0.1,0.2,0.3,0.4,0.5,0.5s0.4,0.2,0.6,0.2c0.2,0,0.4-0.1,0.6-0.2c0.2-0.1,0.4-0.3,0.5-0.5c0.1-0.2,0.2-0.5,0.2-0.8
		S17.1,14.8,17,14.6z"/>
	<path class="st0" d="M19.3,12.5c-0.1-0.1-0.2-0.2-0.2-0.4c0-0.2,0.1-0.3,0.2-0.4c0.1-0.1,0.2-0.2,0.4-0.2c0.2,0,0.3,0.1,0.4,0.2
		s0.2,0.2,0.2,0.4c0,0.2-0.1,0.3-0.2,0.4c-0.1,0.1-0.2,0.2-0.4,0.2C19.5,12.7,19.4,12.6,19.3,12.5z M20.1,13.2v4.3h-0.9v-4.3H20.1z"
		/>
	<path class="st0" d="M21.9,17.4c-0.3-0.1-0.5-0.3-0.6-0.5c-0.2-0.2-0.2-0.4-0.2-0.7H22c0,0.2,0.1,0.3,0.3,0.5
		c0.2,0.1,0.4,0.2,0.6,0.2c0.2,0,0.4,0,0.6-0.1c0.1-0.1,0.2-0.2,0.2-0.4c0-0.2-0.1-0.3-0.2-0.4c-0.2-0.1-0.4-0.2-0.7-0.3
		c-0.3-0.1-0.6-0.2-0.8-0.3s-0.4-0.2-0.5-0.4s-0.2-0.4-0.2-0.7c0-0.2,0.1-0.4,0.2-0.6c0.1-0.2,0.3-0.3,0.6-0.4s0.5-0.2,0.9-0.2
		c0.5,0,0.9,0.1,1.2,0.4c0.3,0.2,0.5,0.6,0.5,1h-0.9c0-0.2-0.1-0.3-0.2-0.5c-0.1-0.1-0.3-0.2-0.6-0.2c-0.2,0-0.4,0-0.5,0.1
		S22,14.2,22,14.4c0,0.1,0,0.2,0.1,0.3c0.1,0.1,0.2,0.1,0.3,0.2S22.7,15,23,15c0.3,0.1,0.6,0.2,0.8,0.3c0.2,0.1,0.4,0.2,0.5,0.4
		c0.1,0.2,0.2,0.4,0.2,0.7c0,0.2-0.1,0.5-0.2,0.7c-0.1,0.2-0.3,0.3-0.6,0.5c-0.2,0.1-0.5,0.2-0.9,0.2C22.5,17.6,22.2,17.5,21.9,17.4
		z"/>
	<path class="st0" d="M26.5,14v2.4c0,0.2,0,0.3,0.1,0.3c0.1,0.1,0.2,0.1,0.4,0.1h0.5v0.7h-0.7c-0.4,0-0.7-0.1-0.9-0.3
		s-0.3-0.5-0.3-0.9V14h-0.5v-0.7h0.5v-1.1h0.9v1.1h1V14H26.5z"/>
	<path class="st0" d="M32.2,15.7h-3.3c0,0.3,0.2,0.6,0.4,0.8s0.5,0.3,0.8,0.3c0.5,0,0.8-0.2,1-0.6h1c-0.1,0.4-0.4,0.7-0.7,1
		s-0.8,0.4-1.3,0.4c-0.4,0-0.8-0.1-1.1-0.3c-0.3-0.2-0.6-0.4-0.8-0.8c-0.2-0.3-0.3-0.7-0.3-1.2s0.1-0.8,0.3-1.2
		c0.2-0.3,0.4-0.6,0.8-0.8c0.3-0.2,0.7-0.3,1.1-0.3c0.4,0,0.8,0.1,1.1,0.3s0.6,0.4,0.7,0.7s0.3,0.7,0.3,1.1
		C32.2,15.4,32.2,15.6,32.2,15.7z M31.3,15c0-0.3-0.1-0.6-0.3-0.8c-0.2-0.2-0.5-0.3-0.8-0.3c-0.3,0-0.6,0.1-0.8,0.3
		c-0.2,0.2-0.3,0.5-0.4,0.8H31.3z"/>
	<path class="st0" d="M34.5,13.3c0.2-0.1,0.5-0.2,0.8-0.2v0.9H35c-0.3,0-0.6,0.1-0.8,0.3S34,14.8,34,15.3v2.3h-0.9v-4.3H34v0.6
		C34.1,13.6,34.3,13.5,34.5,13.3z"/>
	<path class="st0" d="M40,15.7h-3.3c0,0.3,0.2,0.6,0.4,0.8s0.5,0.3,0.8,0.3c0.5,0,0.8-0.2,1-0.6h1c-0.1,0.4-0.4,0.7-0.7,1
		s-0.8,0.4-1.3,0.4c-0.4,0-0.8-0.1-1.1-0.3c-0.3-0.2-0.6-0.4-0.8-0.8c-0.2-0.3-0.3-0.7-0.3-1.2s0.1-0.8,0.3-1.2
		c0.2-0.3,0.4-0.6,0.8-0.8c0.3-0.2,0.7-0.3,1.1-0.3c0.4,0,0.8,0.1,1.1,0.3s0.6,0.4,0.7,0.7s0.3,0.7,0.3,1.1C40,15.4,40,15.6,40,15.7
		z M39.1,15c0-0.3-0.1-0.6-0.3-0.8c-0.2-0.2-0.5-0.3-0.8-0.3c-0.3,0-0.6,0.1-0.8,0.3c-0.2,0.2-0.3,0.5-0.4,0.8H39.1z"/>
	<path class="st0" d="M40.8,14.2c0.2-0.3,0.4-0.6,0.7-0.8s0.7-0.3,1-0.3c0.3,0,0.6,0.1,0.8,0.2c0.3,0.1,0.5,0.3,0.6,0.5v-2.1H45v5.7
		h-0.9v-0.6c-0.1,0.2-0.3,0.4-0.6,0.5s-0.5,0.2-0.9,0.2c-0.4,0-0.7-0.1-1-0.3c-0.3-0.2-0.6-0.5-0.7-0.8s-0.3-0.7-0.3-1.2
		S40.7,14.5,40.8,14.2z M43.9,14.6c-0.1-0.2-0.3-0.4-0.5-0.5c-0.2-0.1-0.4-0.2-0.6-0.2s-0.4,0.1-0.6,0.2c-0.2,0.1-0.4,0.3-0.5,0.5
		c-0.1,0.2-0.2,0.5-0.2,0.8s0.1,0.6,0.2,0.8c0.1,0.2,0.3,0.4,0.5,0.5s0.4,0.2,0.6,0.2c0.2,0,0.4-0.1,0.6-0.2
		c0.2-0.1,0.4-0.3,0.5-0.5c0.1-0.2,0.2-0.5,0.2-0.8S44,14.8,43.9,14.6z"/>
	<path class="st0" d="M51.4,12.4c0.4,0.2,0.8,0.5,1,0.9c0.2,0.4,0.4,0.9,0.4,1.4c0,0.5-0.1,1-0.4,1.4c-0.2,0.4-0.6,0.7-1,0.9
		c-0.4,0.2-0.9,0.3-1.5,0.3h-1.8v-5.4h1.8C50.5,12.1,51,12.2,51.4,12.4z M51.4,16.3c0.3-0.3,0.5-0.8,0.5-1.4c0-0.6-0.2-1.1-0.5-1.5
		c-0.3-0.4-0.8-0.5-1.5-0.5H49v4h0.9C50.5,16.8,51,16.6,51.4,16.3z"/>
	<path class="st0" d="M53.7,12.5c-0.1-0.1-0.2-0.2-0.2-0.4c0-0.2,0.1-0.3,0.2-0.4c0.1-0.1,0.2-0.2,0.4-0.2c0.2,0,0.3,0.1,0.4,0.2
		s0.2,0.2,0.2,0.4c0,0.2-0.1,0.3-0.2,0.4c-0.1,0.1-0.2,0.2-0.4,0.2C53.9,12.7,53.8,12.6,53.7,12.5z M54.5,13.2v4.3h-0.9v-4.3H54.5z"
		/>
	<path class="st0" d="M59.6,15.7h-3.3c0,0.3,0.2,0.6,0.4,0.8s0.5,0.3,0.8,0.3c0.5,0,0.8-0.2,1-0.6h1c-0.1,0.4-0.4,0.7-0.7,1
		s-0.8,0.4-1.3,0.4c-0.4,0-0.8-0.1-1.1-0.3c-0.3-0.2-0.6-0.4-0.8-0.8c-0.2-0.3-0.3-0.7-0.3-1.2s0.1-0.8,0.3-1.2
		c0.2-0.3,0.4-0.6,0.8-0.8c0.3-0.2,0.7-0.3,1.1-0.3c0.4,0,0.8,0.1,1.1,0.3s0.6,0.4,0.7,0.7s0.3,0.7,0.3,1.1
		C59.6,15.4,59.6,15.6,59.6,15.7z M58.7,15c0-0.3-0.1-0.6-0.3-0.8c-0.2-0.2-0.5-0.3-0.8-0.3c-0.3,0-0.6,0.1-0.8,0.3
		c-0.2,0.2-0.3,0.5-0.4,0.8H58.7z"/>
	<path class="st0" d="M61.5,14v2.4c0,0.2,0,0.3,0.1,0.3c0.1,0.1,0.2,0.1,0.4,0.1h0.5v0.7h-0.7c-0.4,0-0.7-0.1-0.9-0.3
		s-0.3-0.5-0.3-0.9V14h-0.5v-0.7h0.5v-1.1h0.9v1.1h1V14H61.5z"/>
	<path class="st0" d="M63.4,12.5c-0.1-0.1-0.2-0.2-0.2-0.4c0-0.2,0.1-0.3,0.2-0.4c0.1-0.1,0.2-0.2,0.4-0.2c0.2,0,0.3,0.1,0.4,0.2
		s0.2,0.2,0.2,0.4c0,0.2-0.1,0.3-0.2,0.4c-0.1,0.1-0.2,0.2-0.4,0.2C63.7,12.7,63.5,12.6,63.4,12.5z M64.3,13.2v4.3h-0.9v-4.3H64.3z"
		/>
	<path class="st0" d="M66.4,14v2.4c0,0.2,0,0.3,0.1,0.3c0.1,0.1,0.2,0.1,0.4,0.1h0.5v0.7h-0.7c-0.4,0-0.7-0.1-0.9-0.3
		s-0.3-0.5-0.3-0.9V14h-0.5v-0.7h0.5v-1.1h0.9v1.1h1V14H66.4z"/>
	<path class="st0" d="M68.3,12.5c-0.1-0.1-0.2-0.2-0.2-0.4c0-0.2,0.1-0.3,0.2-0.4c0.1-0.1,0.2-0.2,0.4-0.2c0.2,0,0.3,0.1,0.4,0.2
		s0.2,0.2,0.2,0.4c0,0.2-0.1,0.3-0.2,0.4c-0.1,0.1-0.2,0.2-0.4,0.2C68.6,12.7,68.5,12.6,68.3,12.5z M69.2,13.2v4.3h-0.9v-4.3H69.2z"
		/>
	<path class="st0" d="M70.3,14.2c0.2-0.3,0.4-0.6,0.7-0.8s0.6-0.3,1-0.3c0.3,0,0.6,0.1,0.9,0.2c0.3,0.1,0.5,0.3,0.6,0.5v-0.6h0.9
		v4.3h-0.9v-0.6c-0.2,0.2-0.4,0.4-0.6,0.5s-0.6,0.2-0.9,0.2c-0.4,0-0.7-0.1-1-0.3c-0.3-0.2-0.5-0.5-0.7-0.8s-0.3-0.7-0.3-1.2
		S70.1,14.5,70.3,14.2z M73.4,14.6c-0.1-0.2-0.3-0.4-0.5-0.5c-0.2-0.1-0.4-0.2-0.6-0.2s-0.4,0.1-0.6,0.2c-0.2,0.1-0.4,0.3-0.5,0.5
		C71,14.8,71,15.1,71,15.3s0.1,0.6,0.2,0.8c0.1,0.2,0.3,0.4,0.5,0.5s0.4,0.2,0.6,0.2c0.2,0,0.4-0.1,0.6-0.2c0.2-0.1,0.4-0.3,0.5-0.5
		c0.1-0.2,0.2-0.5,0.2-0.8S73.5,14.8,73.4,14.6z"/>
	<path class="st0" d="M78.7,13.4c0.3,0.1,0.5,0.3,0.6,0.6c0.1,0.3,0.2,0.6,0.2,1v2.5h-0.9v-2.4c0-0.4-0.1-0.7-0.3-0.9
		c-0.2-0.2-0.5-0.3-0.8-0.3S77,14,76.8,14.2c-0.2,0.2-0.3,0.5-0.3,0.9v2.4h-0.9v-4.3h0.9v0.5c0.1-0.2,0.3-0.3,0.6-0.4
		c0.2-0.1,0.5-0.1,0.7-0.1C78.1,13.2,78.4,13.2,78.7,13.4z"/>
</g>
</svg>
