<!-- Generator: Adobe Illustrator 25.0.0, SVG Export Plug-In  -->
<svg version="1.1" xmlns="http://www.w3.org/2000/svg" xmlns:xlink="http://www.w3.org/1999/xlink" x="0px" y="0px" width="155.7px"
	 height="131.4px" viewBox="0 0 155.7 131.4" style="overflow:visible;enable-background:new 0 0 155.7 131.4;"
	 xml:space="preserve">
<style type="text/css">
	.st0{opacity:0.7;}
	.st1{clip-path:url(#SVGID_2_);fill:#FFFFFF;}
	.st2{clip-path:url(#SVGID_4_);fill:#FFFFFF;}
</style>
<defs>
</defs>
<g class="st0">
	<defs>
		<polygon id="SVGID_1_" class="st0" points="60.7,0 60.7,70.7 111.3,128 155.7,82 132,12.6 		"/>
	</defs>
	<clipPath id="SVGID_2_">
		<use xlink:href="#SVGID_1_"  style="overflow:visible;"/>
	</clipPath>
	<path class="st1" d="M60.7,10C27.2,10,0,37.2,0,70.7c0,33.5,27.2,60.7,60.7,60.7c33.5,0,60.7-27.2,60.7-60.7
		C121.4,37.2,94.2,10,60.7,10z M60.7,112.1c-22.8,0-41.3-18.5-41.3-41.3s18.5-41.3,41.3-41.3C83.5,29.5,102,48,102,70.8
		S83.5,112.1,60.7,112.1z"/>
</g>
</svg>
