<!-- Generator: Adobe Illustrator 25.0.0, SVG Export Plug-In  -->
<svg version="1.1" xmlns="http://www.w3.org/2000/svg" xmlns:xlink="http://www.w3.org/1999/xlink" x="0px" y="0px" width="92.5px"
	 height="20.8px" viewBox="0 0 92.5 20.8" style="overflow:visible;enable-background:new 0 0 92.5 20.8;" xml:space="preserve">
<style type="text/css">
	.st0{fill:#FFFFFF;}
</style>
<defs>
</defs>
<g>
	<path class="st0" d="M0.6,2.1C1,1.5,1.5,0.9,2.2,0.6C2.9,0.2,3.6,0,4.4,0c0.9,0,1.7,0.2,2.4,0.7c0.7,0.5,1.2,1.1,1.6,1.9H6.7
		c-0.2-0.5-0.5-0.8-0.9-1C5.4,1.4,4.9,1.2,4.4,1.2c-0.6,0-1.1,0.1-1.5,0.4c-0.4,0.3-0.8,0.6-1,1.1c-0.3,0.5-0.4,1-0.4,1.7
		c0,0.6,0.1,1.2,0.4,1.7c0.3,0.5,0.6,0.8,1,1.1c0.4,0.3,1,0.4,1.5,0.4c0.5,0,1-0.1,1.4-0.3c0.4-0.2,0.7-0.6,0.9-1h1.7
		C8.1,7,7.6,7.7,6.9,8.1C6.2,8.6,5.3,8.8,4.4,8.8c-0.8,0-1.5-0.2-2.2-0.6S1,7.3,0.6,6.7S0,5.2,0,4.4C0,3.6,0.2,2.8,0.6,2.1z"/>
	<path class="st0" d="M11.5,1.3v2.5h3v1.2h-3v2.6h3.3v1.2h-4.8V0.1h4.8v1.2H11.5z"/>
	<path class="st0" d="M21.8,0.6C22.5,1,23,1.5,23.4,2.1S24,3.6,24,4.4c0,0.9-0.2,1.6-0.6,2.3c-0.4,0.6-0.9,1.1-1.6,1.5
		c-0.7,0.3-1.5,0.5-2.4,0.5h-2.8V0.1h2.8C20.3,0.1,21.1,0.3,21.8,0.6z M21.7,6.8c0.5-0.5,0.8-1.3,0.8-2.3c0-1-0.3-1.8-0.8-2.3
		c-0.5-0.6-1.3-0.8-2.3-0.8H18v6.3h1.4C20.4,7.6,21.2,7.3,21.7,6.8z"/>
	<path class="st0" d="M30.5,7h-3.6l-0.6,1.8h-1.5l3.1-8.6h1.6l3.1,8.6h-1.5L30.5,7z M30.1,5.8l-1.4-4l-1.4,4H30.1z"/>
	<path class="st0" d="M38.5,8.7l-2-3.4h-1.1v3.4H34V0.1h3c0.7,0,1.2,0.1,1.7,0.3c0.5,0.2,0.8,0.5,1,0.9C39.9,1.8,40,2.2,40,2.7
		c0,0.6-0.2,1.1-0.5,1.5C39.2,4.7,38.7,5,38,5.2l2.1,3.6H38.5z M35.4,4.2H37c0.5,0,0.9-0.1,1.2-0.4s0.4-0.6,0.4-1.1s-0.1-0.8-0.4-1
		c-0.3-0.3-0.7-0.4-1.2-0.4h-1.6V4.2z"/>
	<path class="st0" d="M45.2,2.1c0.4-0.7,0.9-1.2,1.6-1.6C47.4,0.2,48.2,0,49,0c0.9,0,1.7,0.2,2.4,0.7c0.7,0.5,1.2,1.1,1.6,1.9h-1.7
		c-0.2-0.5-0.5-0.8-0.9-1c-0.4-0.2-0.9-0.3-1.4-0.3c-0.6,0-1.1,0.1-1.5,0.4c-0.4,0.3-0.8,0.6-1,1.1c-0.3,0.5-0.4,1-0.4,1.7
		c0,0.6,0.1,1.2,0.4,1.7c0.3,0.5,0.6,0.8,1,1.1c0.4,0.3,1,0.4,1.5,0.4c0.5,0,1-0.1,1.4-0.3c0.4-0.2,0.7-0.6,0.9-1H53
		c-0.3,0.8-0.8,1.5-1.6,1.9c-0.7,0.4-1.5,0.7-2.4,0.7c-0.8,0-1.5-0.2-2.2-0.6s-1.2-0.9-1.6-1.6s-0.6-1.4-0.6-2.3
		C44.6,3.6,44.8,2.8,45.2,2.1z"/>
	<path class="st0" d="M56,0.1v8.6h-1.4V0.1H56z"/>
	<path class="st0" d="M63.4,0.1v1.2h-2.3v7.5h-1.4V1.3h-2.3V0.1H63.4z"/>
	<path class="st0" d="M71.2,0.1l-2.8,5.5v3.1H67V5.6l-2.9-5.5h1.6l2,4.2l2-4.2H71.2z"/>
	<path class="st0" d="M73.9,7l-1.5,3.4h-0.9L72.4,7H73.9z"/>
	<path class="st0" d="M79.8,0.1v5.5c0,0.7,0.2,1.1,0.5,1.5s0.8,0.5,1.4,0.5c0.6,0,1.1-0.2,1.4-0.5c0.3-0.3,0.5-0.8,0.5-1.5V0.1h1.4
		v5.5c0,0.7-0.2,1.3-0.5,1.8s-0.7,0.9-1.2,1.1c-0.5,0.2-1.1,0.4-1.7,0.4S80.5,8.7,80,8.4s-0.9-0.6-1.2-1.1c-0.3-0.5-0.4-1.1-0.4-1.8
		V0.1H79.8z"/>
	<path class="st0" d="M92.5,0.1v1.2h-2.3v7.5h-1.4V1.3h-2.3V0.1H92.5z"/>
	<path class="st0" d="M0.2,16.3C0.1,16.2,0,16,0,15.9s0.1-0.3,0.2-0.4c0.1-0.1,0.3-0.2,0.4-0.2c0.2,0,0.3,0.1,0.4,0.2
		c0.1,0.1,0.2,0.3,0.2,0.4S1.1,16.2,1,16.3c-0.1,0.1-0.3,0.2-0.4,0.2C0.4,16.5,0.3,16.4,0.2,16.3z"/>
	<path class="st0" d="M8.2,15.4c-0.1,0.3-0.4,0.5-0.7,0.6c-0.3,0.2-0.7,0.2-1.2,0.2h-1v2.3H4.4v-5.7h2c0.4,0,0.8,0.1,1.1,0.2
		s0.5,0.4,0.7,0.6s0.2,0.5,0.2,0.9C8.4,14.9,8.3,15.2,8.2,15.4z M7.1,15.3c0.2-0.2,0.3-0.4,0.3-0.7c0-0.6-0.4-0.9-1.1-0.9h-1v1.9h1
		C6.7,15.5,7,15.5,7.1,15.3z"/>
	<path class="st0" d="M12.5,14.2c0.3,0.1,0.5,0.4,0.6,0.7c0.2,0.3,0.2,0.6,0.2,1.1v2.7h-0.9v-2.5c0-0.4-0.1-0.7-0.3-0.9
		c-0.2-0.2-0.5-0.3-0.8-0.3s-0.6,0.1-0.8,0.3c-0.2,0.2-0.3,0.5-0.3,0.9v2.5H9.3v-6.1h0.9v2.1c0.2-0.2,0.4-0.3,0.6-0.4
		s0.5-0.2,0.8-0.2C12,14,12.3,14.1,12.5,14.2z"/>
	<path class="st0" d="M18.7,14.1l-2.8,6.7h-1l0.9-2.2l-1.8-4.5h1l1.3,3.5l1.3-3.5H18.7z"/>
	<path class="st0" d="M20.1,18.5c-0.3-0.1-0.5-0.3-0.7-0.5s-0.3-0.5-0.3-0.7h1c0,0.2,0.1,0.4,0.3,0.5c0.2,0.1,0.4,0.2,0.6,0.2
		c0.3,0,0.5-0.1,0.6-0.2c0.1-0.1,0.2-0.2,0.2-0.4c0-0.2-0.1-0.3-0.2-0.4c-0.2-0.1-0.4-0.2-0.8-0.3c-0.3-0.1-0.6-0.2-0.8-0.3
		c-0.2-0.1-0.4-0.2-0.6-0.4c-0.2-0.2-0.2-0.4-0.2-0.7c0-0.2,0.1-0.5,0.2-0.7c0.1-0.2,0.3-0.4,0.6-0.5c0.3-0.1,0.6-0.2,0.9-0.2
		c0.5,0,0.9,0.1,1.3,0.4s0.5,0.6,0.5,1.1h-0.9c0-0.2-0.1-0.4-0.2-0.5s-0.3-0.2-0.6-0.2c-0.2,0-0.4,0-0.6,0.1
		c-0.1,0.1-0.2,0.2-0.2,0.4c0,0.1,0,0.2,0.1,0.3c0.1,0.1,0.2,0.1,0.3,0.2c0.1,0,0.3,0.1,0.6,0.2c0.3,0.1,0.6,0.2,0.8,0.3
		c0.2,0.1,0.4,0.2,0.5,0.4c0.2,0.2,0.2,0.4,0.2,0.7c0,0.3-0.1,0.5-0.2,0.7c-0.1,0.2-0.3,0.4-0.6,0.5c-0.3,0.1-0.6,0.2-0.9,0.2
		C20.7,18.7,20.4,18.6,20.1,18.5z"/>
	<path class="st0" d="M23.9,13.3c-0.1-0.1-0.2-0.3-0.2-0.4c0-0.2,0.1-0.3,0.2-0.4c0.1-0.1,0.3-0.2,0.4-0.2c0.2,0,0.3,0.1,0.4,0.2
		c0.1,0.1,0.2,0.3,0.2,0.4c0,0.2-0.1,0.3-0.2,0.4c-0.1,0.1-0.3,0.2-0.4,0.2C24.2,13.5,24,13.4,23.9,13.3z M24.8,14.1v4.6h-0.9v-4.6
		H24.8z"/>
	<path class="st0" d="M26,15.1c0.2-0.4,0.5-0.6,0.8-0.8s0.7-0.3,1.2-0.3c0.6,0,1,0.1,1.4,0.4s0.6,0.6,0.7,1.1h-1
		c-0.1-0.2-0.2-0.4-0.4-0.5c-0.2-0.1-0.4-0.2-0.7-0.2c-0.4,0-0.7,0.1-0.9,0.4c-0.2,0.3-0.3,0.7-0.3,1.1s0.1,0.9,0.3,1.1
		s0.5,0.4,0.9,0.4c0.5,0,0.9-0.2,1.1-0.7h1c-0.1,0.5-0.4,0.8-0.7,1.1c-0.4,0.3-0.8,0.4-1.4,0.4c-0.4,0-0.8-0.1-1.2-0.3
		s-0.6-0.5-0.8-0.8c-0.2-0.4-0.3-0.8-0.3-1.2S25.8,15.5,26,15.1z"/>
	<path class="st0" d="M31,13.3c-0.1-0.1-0.2-0.3-0.2-0.4c0-0.2,0.1-0.3,0.2-0.4c0.1-0.1,0.3-0.2,0.4-0.2c0.2,0,0.3,0.1,0.4,0.2
		c0.1,0.1,0.2,0.3,0.2,0.4c0,0.2-0.1,0.3-0.2,0.4c-0.1,0.1-0.3,0.2-0.4,0.2C31.3,13.5,31.1,13.4,31,13.3z M31.9,14.1v4.6H31v-4.6
		H31.9z"/>
	<path class="st0" d="M33.1,15.1c0.2-0.4,0.4-0.6,0.8-0.8c0.3-0.2,0.7-0.3,1.1-0.3c0.4,0,0.7,0.1,0.9,0.2c0.3,0.1,0.5,0.3,0.6,0.5
		v-0.7h1v4.6h-1V18c-0.2,0.2-0.4,0.4-0.7,0.5c-0.3,0.1-0.6,0.2-0.9,0.2c-0.4,0-0.7-0.1-1.1-0.3c-0.3-0.2-0.6-0.5-0.8-0.8
		c-0.2-0.4-0.3-0.8-0.3-1.2S32.9,15.5,33.1,15.1z M36.4,15.5c-0.1-0.2-0.3-0.4-0.5-0.5s-0.4-0.2-0.7-0.2s-0.5,0.1-0.7,0.2
		s-0.4,0.3-0.5,0.5c-0.1,0.2-0.2,0.5-0.2,0.8s0.1,0.6,0.2,0.8c0.1,0.2,0.3,0.4,0.5,0.5c0.2,0.1,0.4,0.2,0.7,0.2
		c0.2,0,0.5-0.1,0.7-0.2s0.4-0.3,0.5-0.5c0.1-0.2,0.2-0.5,0.2-0.8C36.6,16,36.5,15.8,36.4,15.5z"/>
	<path class="st0" d="M42,14.2c0.3,0.1,0.5,0.4,0.7,0.7c0.2,0.3,0.2,0.6,0.2,1.1v2.7H42v-2.5c0-0.4-0.1-0.7-0.3-0.9
		c-0.2-0.2-0.5-0.3-0.8-0.3s-0.6,0.1-0.8,0.3c-0.2,0.2-0.3,0.5-0.3,0.9v2.5h-0.9v-4.6h0.9v0.5c0.2-0.2,0.4-0.3,0.6-0.4
		s0.5-0.2,0.8-0.2C41.4,14,41.7,14.1,42,14.2z"/>
	<path class="st0" d="M49.7,17.5h-2.4l-0.4,1.2h-1l2.1-5.7h1.1l2.1,5.7h-1L49.7,17.5z M49.5,16.7L48.5,14l-0.9,2.7H49.5z"/>
	<path class="st0" d="M52.7,18.5c-0.3-0.1-0.5-0.3-0.7-0.5s-0.3-0.5-0.3-0.7h1c0,0.2,0.1,0.4,0.3,0.5c0.2,0.1,0.4,0.2,0.6,0.2
		c0.3,0,0.5-0.1,0.6-0.2c0.1-0.1,0.2-0.2,0.2-0.4c0-0.2-0.1-0.3-0.2-0.4c-0.2-0.1-0.4-0.2-0.8-0.3c-0.3-0.1-0.6-0.2-0.8-0.3
		c-0.2-0.1-0.4-0.2-0.6-0.4c-0.2-0.2-0.2-0.4-0.2-0.7c0-0.2,0.1-0.5,0.2-0.7c0.1-0.2,0.3-0.4,0.6-0.5c0.3-0.1,0.6-0.2,0.9-0.2
		c0.5,0,0.9,0.1,1.3,0.4s0.5,0.6,0.5,1.1h-0.9c0-0.2-0.1-0.4-0.2-0.5s-0.3-0.2-0.6-0.2c-0.2,0-0.4,0-0.6,0.1
		c-0.1,0.1-0.2,0.2-0.2,0.4c0,0.1,0,0.2,0.1,0.3c0.1,0.1,0.2,0.1,0.3,0.2c0.1,0,0.3,0.1,0.6,0.2c0.3,0.1,0.6,0.2,0.8,0.3
		c0.2,0.1,0.4,0.2,0.5,0.4c0.2,0.2,0.2,0.4,0.2,0.7c0,0.3-0.1,0.5-0.2,0.7c-0.1,0.2-0.3,0.4-0.6,0.5c-0.3,0.1-0.6,0.2-0.9,0.2
		C53.3,18.7,53,18.6,52.7,18.5z"/>
	<path class="st0" d="M57.1,18.5c-0.3-0.1-0.5-0.3-0.7-0.5s-0.3-0.5-0.3-0.7h1c0,0.2,0.1,0.4,0.3,0.5c0.2,0.1,0.4,0.2,0.6,0.2
		c0.3,0,0.5-0.1,0.6-0.2c0.1-0.1,0.2-0.2,0.2-0.4c0-0.2-0.1-0.3-0.2-0.4c-0.2-0.1-0.4-0.2-0.8-0.3c-0.3-0.1-0.6-0.2-0.8-0.3
		c-0.2-0.1-0.4-0.2-0.6-0.4c-0.2-0.2-0.2-0.4-0.2-0.7c0-0.2,0.1-0.5,0.2-0.7c0.1-0.2,0.3-0.4,0.6-0.5c0.3-0.1,0.6-0.2,0.9-0.2
		c0.5,0,0.9,0.1,1.3,0.4s0.5,0.6,0.5,1.1h-0.9c0-0.2-0.1-0.4-0.2-0.5s-0.3-0.2-0.6-0.2c-0.2,0-0.4,0-0.6,0.1
		c-0.1,0.1-0.2,0.2-0.2,0.4c0,0.1,0,0.2,0.1,0.3c0.1,0.1,0.2,0.1,0.3,0.2c0.1,0,0.3,0.1,0.6,0.2c0.3,0.1,0.6,0.2,0.8,0.3
		c0.2,0.1,0.4,0.2,0.5,0.4c0.2,0.2,0.2,0.4,0.2,0.7c0,0.3-0.1,0.5-0.2,0.7c-0.1,0.2-0.3,0.4-0.6,0.5c-0.3,0.1-0.6,0.2-0.9,0.2
		C57.7,18.7,57.4,18.6,57.1,18.5z"/>
	<path class="st0" d="M60.9,13.3c-0.1-0.1-0.2-0.3-0.2-0.4c0-0.2,0.1-0.3,0.2-0.4c0.1-0.1,0.3-0.2,0.4-0.2c0.2,0,0.3,0.1,0.4,0.2
		c0.1,0.1,0.2,0.3,0.2,0.4c0,0.2-0.1,0.3-0.2,0.4c-0.1,0.1-0.3,0.2-0.4,0.2C61.2,13.5,61,13.4,60.9,13.3z M61.8,14.1v4.6h-0.9v-4.6
		H61.8z"/>
	<path class="st0" d="M63.7,18.5c-0.3-0.1-0.5-0.3-0.7-0.5s-0.3-0.5-0.3-0.7h1c0,0.2,0.1,0.4,0.3,0.5c0.2,0.1,0.4,0.2,0.6,0.2
		c0.3,0,0.5-0.1,0.6-0.2c0.1-0.1,0.2-0.2,0.2-0.4c0-0.2-0.1-0.3-0.2-0.4c-0.2-0.1-0.4-0.2-0.8-0.3c-0.3-0.1-0.6-0.2-0.8-0.3
		c-0.2-0.1-0.4-0.2-0.6-0.4c-0.2-0.2-0.2-0.4-0.2-0.7c0-0.2,0.1-0.5,0.2-0.7c0.1-0.2,0.3-0.4,0.6-0.5c0.3-0.1,0.6-0.2,0.9-0.2
		c0.5,0,0.9,0.1,1.3,0.4s0.5,0.6,0.5,1.1h-0.9c0-0.2-0.1-0.4-0.2-0.5s-0.3-0.2-0.6-0.2c-0.2,0-0.4,0-0.6,0.1
		c-0.1,0.1-0.2,0.2-0.2,0.4c0,0.1,0,0.2,0.1,0.3c0.1,0.1,0.2,0.1,0.3,0.2c0.1,0,0.3,0.1,0.6,0.2c0.3,0.1,0.6,0.2,0.8,0.3
		c0.2,0.1,0.4,0.2,0.5,0.4c0.2,0.2,0.2,0.4,0.2,0.7c0,0.3-0.1,0.5-0.2,0.7c-0.1,0.2-0.3,0.4-0.6,0.5c-0.3,0.1-0.6,0.2-0.9,0.2
		C64.3,18.7,64,18.6,63.7,18.5z"/>
	<path class="st0" d="M68.5,14.9v2.5c0,0.2,0,0.3,0.1,0.4c0.1,0.1,0.2,0.1,0.4,0.1h0.6v0.8h-0.7c-0.4,0-0.7-0.1-1-0.3
		s-0.3-0.5-0.3-1v-2.5H67v-0.8h0.5V13h0.9v1.1h1.1v0.8H68.5z"/>
	<path class="st0" d="M70.5,15.1c0.2-0.4,0.4-0.6,0.8-0.8c0.3-0.2,0.7-0.3,1.1-0.3c0.4,0,0.7,0.1,0.9,0.2c0.3,0.1,0.5,0.3,0.6,0.5
		v-0.7h1v4.6h-1V18c-0.2,0.2-0.4,0.4-0.7,0.5c-0.3,0.1-0.6,0.2-0.9,0.2c-0.4,0-0.7-0.1-1.1-0.3c-0.3-0.2-0.6-0.5-0.8-0.8
		c-0.2-0.4-0.3-0.8-0.3-1.2S70.3,15.5,70.5,15.1z M73.7,15.5c-0.1-0.2-0.3-0.4-0.5-0.5s-0.4-0.2-0.7-0.2s-0.5,0.1-0.7,0.2
		s-0.4,0.3-0.5,0.5c-0.1,0.2-0.2,0.5-0.2,0.8s0.1,0.6,0.2,0.8c0.1,0.2,0.3,0.4,0.5,0.5c0.2,0.1,0.4,0.2,0.7,0.2
		c0.2,0,0.5-0.1,0.7-0.2s0.4-0.3,0.5-0.5c0.1-0.2,0.2-0.5,0.2-0.8C73.9,16,73.9,15.8,73.7,15.5z"/>
	<path class="st0" d="M79.4,14.2c0.3,0.1,0.5,0.4,0.7,0.7c0.2,0.3,0.2,0.6,0.2,1.1v2.7h-0.9v-2.5c0-0.4-0.1-0.7-0.3-0.9
		c-0.2-0.2-0.5-0.3-0.8-0.3s-0.6,0.1-0.8,0.3c-0.2,0.2-0.3,0.5-0.3,0.9v2.5h-0.9v-4.6H77v0.5c0.2-0.2,0.4-0.3,0.6-0.4
		s0.5-0.2,0.8-0.2C78.8,14,79.1,14.1,79.4,14.2z"/>
	<path class="st0" d="M82.6,14.9v2.5c0,0.2,0,0.3,0.1,0.4c0.1,0.1,0.2,0.1,0.4,0.1h0.6v0.8h-0.7c-0.4,0-0.7-0.1-1-0.3
		s-0.3-0.5-0.3-1v-2.5h-0.5v-0.8h0.5V13h0.9v1.1h1.1v0.8H82.6z"/>
</g>
</svg>
