<!-- Generator: Adobe Illustrator 25.0.0, SVG Export Plug-In  -->
<svg version="1.1" xmlns="http://www.w3.org/2000/svg" xmlns:xlink="http://www.w3.org/1999/xlink" x="0px" y="0px" width="117.8px"
	 height="18.7px" viewBox="0 0 117.8 18.7" style="overflow:visible;enable-background:new 0 0 117.8 18.7;" xml:space="preserve">
<style type="text/css">
	.st0{fill:#0078FF;}
</style>
<defs>
</defs>
<g>
	<path class="st0" d="M1.9,0.1v8.6H0.5V0.1H1.9z"/>
	<path class="st0" d="M8.2,8.7l-2-3.4H5.2v3.4H3.8V0.1h3c0.7,0,1.2,0.1,1.7,0.3c0.5,0.2,0.8,0.5,1,0.9c0.2,0.4,0.3,0.8,0.3,1.3
		c0,0.6-0.2,1.1-0.5,1.5C9,4.7,8.5,5,7.8,5.2l2.1,3.6H8.2z M5.2,4.2h1.6c0.5,0,0.9-0.1,1.2-0.4s0.4-0.6,0.4-1.1s-0.1-0.8-0.4-1
		C7.7,1.4,7.3,1.3,6.7,1.3H5.2V4.2z"/>
	<path class="st0" d="M13.3,8.2c-0.7-0.4-1.2-0.9-1.6-1.6c-0.4-0.7-0.6-1.4-0.6-2.3c0-0.8,0.2-1.6,0.6-2.3s0.9-1.2,1.6-1.6
		C14,0.2,14.7,0,15.5,0c0.8,0,1.6,0.2,2.2,0.6c0.7,0.4,1.2,0.9,1.6,1.6c0.4,0.7,0.6,1.4,0.6,2.3c0,0.8-0.2,1.6-0.6,2.3
		c-0.4,0.7-0.9,1.2-1.6,1.6s-1.4,0.6-2.2,0.6C14.7,8.8,14,8.6,13.3,8.2z M17,7.2c0.4-0.3,0.8-0.6,1-1.1c0.3-0.5,0.4-1,0.4-1.7
		c0-0.6-0.1-1.2-0.4-1.7c-0.3-0.5-0.6-0.8-1-1.1c-0.4-0.3-1-0.4-1.5-0.4c-0.6,0-1.1,0.1-1.5,0.4c-0.4,0.3-0.8,0.6-1,1.1
		c-0.3,0.5-0.4,1-0.4,1.7c0,0.6,0.1,1.2,0.4,1.7c0.3,0.5,0.6,0.9,1,1.1c0.4,0.3,1,0.4,1.5,0.4C16.1,7.6,16.6,7.5,17,7.2z"/>
	<path class="st0" d="M28.4,8.7H27l-4.2-6.4v6.4h-1.4V0.1h1.4L27,6.5V0.1h1.4V8.7z"/>
	<path class="st0" d="M42.5,0.1v8.6h-1.4V2.8l-2.6,5.9h-1l-2.6-5.9v5.9h-1.4V0.1H35l3,6.8l3-6.8H42.5z"/>
	<path class="st0" d="M46.1,8.2c-0.7-0.4-1.2-0.9-1.6-1.6c-0.4-0.7-0.6-1.4-0.6-2.3c0-0.8,0.2-1.6,0.6-2.3s0.9-1.2,1.6-1.6
		C46.8,0.2,47.5,0,48.3,0c0.8,0,1.6,0.2,2.2,0.6c0.7,0.4,1.2,0.9,1.6,1.6c0.4,0.7,0.6,1.4,0.6,2.3c0,0.8-0.2,1.6-0.6,2.3
		c-0.4,0.7-0.9,1.2-1.6,1.6s-1.4,0.6-2.2,0.6C47.5,8.8,46.8,8.6,46.1,8.2z M49.8,7.2c0.4-0.3,0.8-0.6,1-1.1c0.3-0.5,0.4-1,0.4-1.7
		c0-0.6-0.1-1.2-0.4-1.7c-0.3-0.5-0.6-0.8-1-1.1c-0.4-0.3-1-0.4-1.5-0.4c-0.6,0-1.1,0.1-1.5,0.4c-0.4,0.3-0.8,0.6-1,1.1
		c-0.3,0.5-0.4,1-0.4,1.7c0,0.6,0.1,1.2,0.4,1.7c0.3,0.5,0.6,0.9,1,1.1c0.4,0.3,1,0.4,1.5,0.4C48.9,7.6,49.4,7.5,49.8,7.2z"/>
	<path class="st0" d="M55.5,0.1v5.5c0,0.7,0.2,1.1,0.5,1.5s0.8,0.5,1.4,0.5c0.6,0,1.1-0.2,1.4-0.5c0.3-0.3,0.5-0.8,0.5-1.5V0.1h1.4
		v5.5c0,0.7-0.2,1.3-0.5,1.8s-0.7,0.9-1.2,1.1c-0.5,0.2-1.1,0.4-1.7,0.4s-1.2-0.1-1.7-0.4s-0.9-0.6-1.2-1.1
		c-0.3-0.5-0.4-1.1-0.4-1.8V0.1H55.5z"/>
	<path class="st0" d="M69.7,8.7h-1.4l-4.2-6.4v6.4h-1.4V0.1h1.4l4.2,6.4V0.1h1.4V8.7z"/>
	<path class="st0" d="M77.1,0.1v1.2h-2.3v7.5h-1.4V1.3h-2.3V0.1H77.1z"/>
	<path class="st0" d="M83.8,7h-3.6l-0.6,1.8h-1.5l3.1-8.6h1.6l3.1,8.6h-1.5L83.8,7z M83.4,5.8l-1.4-4l-1.4,4H83.4z"/>
	<path class="st0" d="M88.6,0.1v8.6h-1.4V0.1H88.6z"/>
	<path class="st0" d="M97.5,8.7h-1.4l-4.2-6.4v6.4h-1.4V0.1h1.4l4.2,6.4V0.1h1.4V8.7z"/>
	<path class="st0" d="M101,7l-1.5,3.4h-0.9L99.4,7H101z"/>
	<path class="st0" d="M114.5,0.1v8.6h-1.4V2.8l-2.6,5.9h-1l-2.6-5.9v5.9h-1.4V0.1h1.5l3,6.8l3-6.8H114.5z"/>
	<path class="st0" d="M117.8,0.1v8.6h-1.4V0.1H117.8z"/>
	<path class="st0" d="M0.2,16.3C0.1,16.2,0,16,0,15.9s0.1-0.3,0.2-0.4c0.1-0.1,0.3-0.2,0.4-0.2c0.2,0,0.3,0.1,0.4,0.2
		c0.1,0.1,0.2,0.3,0.2,0.4S1.1,16.2,1,16.3c-0.1,0.1-0.3,0.2-0.4,0.2C0.4,16.5,0.3,16.4,0.2,16.3z"/>
	<path class="st0" d="M8.2,15.4c-0.1,0.3-0.4,0.5-0.7,0.6c-0.3,0.2-0.7,0.2-1.2,0.2h-1v2.3H4.4v-5.7h2c0.4,0,0.8,0.1,1.1,0.2
		s0.5,0.4,0.7,0.6s0.2,0.5,0.2,0.9C8.4,14.9,8.3,15.2,8.2,15.4z M7.1,15.3c0.2-0.2,0.3-0.4,0.3-0.7c0-0.6-0.4-0.9-1.1-0.9h-1v1.9h1
		C6.7,15.5,7,15.5,7.1,15.3z"/>
	<path class="st0" d="M13.4,16.7H9.9c0,0.4,0.2,0.7,0.4,0.9c0.2,0.2,0.5,0.3,0.9,0.3c0.5,0,0.9-0.2,1.1-0.6h1
		c-0.1,0.4-0.4,0.8-0.7,1s-0.8,0.4-1.3,0.4c-0.4,0-0.8-0.1-1.2-0.3s-0.6-0.5-0.8-0.8S9,16.8,9,16.4s0.1-0.9,0.3-1.2
		c0.2-0.4,0.5-0.6,0.8-0.8s0.7-0.3,1.2-0.3c0.4,0,0.8,0.1,1.1,0.3c0.3,0.2,0.6,0.5,0.8,0.8c0.2,0.3,0.3,0.7,0.3,1.2
		C13.4,16.4,13.4,16.6,13.4,16.7z M12.5,15.9c0-0.3-0.1-0.6-0.4-0.8c-0.2-0.2-0.5-0.3-0.9-0.3c-0.3,0-0.6,0.1-0.8,0.3
		s-0.4,0.5-0.4,0.8H12.5z"/>
	<path class="st0" d="M14.3,15.1c0.2-0.4,0.4-0.6,0.8-0.8c0.3-0.2,0.7-0.3,1.1-0.3c0.3,0,0.6,0.1,0.9,0.2c0.3,0.1,0.5,0.3,0.7,0.5
		v-2.2h1v6.1h-1v-0.7c-0.2,0.2-0.4,0.4-0.6,0.5c-0.3,0.1-0.6,0.2-0.9,0.2c-0.4,0-0.8-0.1-1.1-0.3c-0.3-0.2-0.6-0.5-0.8-0.8
		c-0.2-0.4-0.3-0.8-0.3-1.2S14.1,15.5,14.3,15.1z M17.6,15.5c-0.1-0.2-0.3-0.4-0.5-0.5s-0.4-0.2-0.7-0.2s-0.5,0.1-0.7,0.2
		s-0.4,0.3-0.5,0.5C15.1,15.8,15,16,15,16.3s0.1,0.6,0.2,0.8c0.1,0.2,0.3,0.4,0.5,0.5c0.2,0.1,0.4,0.2,0.7,0.2
		c0.2,0,0.5-0.1,0.7-0.2s0.4-0.3,0.5-0.5c0.1-0.2,0.2-0.5,0.2-0.8C17.8,16,17.7,15.8,17.6,15.5z"/>
	<path class="st0" d="M20,13.3c-0.1-0.1-0.2-0.3-0.2-0.4c0-0.2,0.1-0.3,0.2-0.4c0.1-0.1,0.3-0.2,0.4-0.2c0.2,0,0.3,0.1,0.4,0.2
		c0.1,0.1,0.2,0.3,0.2,0.4c0,0.2-0.1,0.3-0.2,0.4c-0.1,0.1-0.3,0.2-0.4,0.2C20.3,13.5,20.1,13.4,20,13.3z M20.9,14.1v4.6H20v-4.6
		H20.9z"/>
	<path class="st0" d="M22.1,15.1c0.2-0.4,0.4-0.6,0.8-0.8c0.3-0.2,0.7-0.3,1.1-0.3c0.4,0,0.7,0.1,0.9,0.2c0.3,0.1,0.5,0.3,0.6,0.5
		v-0.7h1v4.6h-1V18c-0.2,0.2-0.4,0.4-0.7,0.5c-0.3,0.1-0.6,0.2-0.9,0.2c-0.4,0-0.7-0.1-1.1-0.3c-0.3-0.2-0.6-0.5-0.8-0.8
		c-0.2-0.4-0.3-0.8-0.3-1.2S21.9,15.5,22.1,15.1z M25.4,15.5c-0.1-0.2-0.3-0.4-0.5-0.5s-0.4-0.2-0.7-0.2s-0.5,0.1-0.7,0.2
		s-0.4,0.3-0.5,0.5c-0.1,0.2-0.2,0.5-0.2,0.8s0.1,0.6,0.2,0.8c0.1,0.2,0.3,0.4,0.5,0.5c0.2,0.1,0.4,0.2,0.7,0.2
		c0.2,0,0.5-0.1,0.7-0.2s0.4-0.3,0.5-0.5c0.1-0.2,0.2-0.5,0.2-0.8C25.6,16,25.5,15.8,25.4,15.5z"/>
	<path class="st0" d="M28.8,14.9v2.5c0,0.2,0,0.3,0.1,0.4c0.1,0.1,0.2,0.1,0.4,0.1h0.6v0.8h-0.7c-0.4,0-0.7-0.1-1-0.3
		s-0.3-0.5-0.3-1v-2.5h-0.5v-0.8h0.5V13h0.9v1.1h1.1v0.8H28.8z"/>
	<path class="st0" d="M32.3,14.2c0.2-0.1,0.5-0.2,0.8-0.2v1h-0.2c-0.4,0-0.6,0.1-0.8,0.3c-0.2,0.2-0.3,0.5-0.3,1v2.4h-0.9v-4.6h0.9
		v0.7C31.9,14.5,32.1,14.3,32.3,14.2z"/>
	<path class="st0" d="M34,13.3c-0.1-0.1-0.2-0.3-0.2-0.4c0-0.2,0.1-0.3,0.2-0.4c0.1-0.1,0.3-0.2,0.4-0.2c0.2,0,0.3,0.1,0.4,0.2
		c0.1,0.1,0.2,0.3,0.2,0.4c0,0.2-0.1,0.3-0.2,0.4c-0.1,0.1-0.3,0.2-0.4,0.2C34.3,13.5,34.1,13.4,34,13.3z M34.9,14.1v4.6H34v-4.6
		H34.9z"/>
	<path class="st0" d="M36.1,15.1c0.2-0.4,0.5-0.6,0.8-0.8s0.7-0.3,1.2-0.3c0.6,0,1,0.1,1.4,0.4s0.6,0.6,0.7,1.1h-1
		c-0.1-0.2-0.2-0.4-0.4-0.5c-0.2-0.1-0.4-0.2-0.7-0.2c-0.4,0-0.7,0.1-0.9,0.4c-0.2,0.3-0.3,0.7-0.3,1.1s0.1,0.9,0.3,1.1
		s0.5,0.4,0.9,0.4c0.5,0,0.9-0.2,1.1-0.7h1c-0.1,0.5-0.4,0.8-0.7,1.1c-0.4,0.3-0.8,0.4-1.4,0.4c-0.4,0-0.8-0.1-1.2-0.3
		s-0.6-0.5-0.8-0.8c-0.2-0.4-0.3-0.8-0.3-1.2S35.9,15.5,36.1,15.1z"/>
	<path class="st0" d="M41.2,13.3C41.1,13.2,41,13,41,12.9c0-0.2,0.1-0.3,0.2-0.4c0.1-0.1,0.3-0.2,0.4-0.2c0.2,0,0.3,0.1,0.4,0.2
		c0.1,0.1,0.2,0.3,0.2,0.4c0,0.2-0.1,0.3-0.2,0.4c-0.1,0.1-0.3,0.2-0.4,0.2C41.4,13.5,41.3,13.4,41.2,13.3z M42.1,14.1v4.6h-0.9
		v-4.6H42.1z"/>
	<path class="st0" d="M43.3,15.1c0.2-0.4,0.4-0.6,0.8-0.8c0.3-0.2,0.7-0.3,1.1-0.3c0.4,0,0.7,0.1,0.9,0.2c0.3,0.1,0.5,0.3,0.6,0.5
		v-0.7h1v4.6h-1V18c-0.2,0.2-0.4,0.4-0.7,0.5c-0.3,0.1-0.6,0.2-0.9,0.2c-0.4,0-0.7-0.1-1.1-0.3c-0.3-0.2-0.6-0.5-0.8-0.8
		c-0.2-0.4-0.3-0.8-0.3-1.2S43.1,15.5,43.3,15.1z M46.5,15.5c-0.1-0.2-0.3-0.4-0.5-0.5s-0.4-0.2-0.7-0.2s-0.5,0.1-0.7,0.2
		s-0.4,0.3-0.5,0.5C44,15.8,44,16,44,16.3s0.1,0.6,0.2,0.8c0.1,0.2,0.3,0.4,0.5,0.5c0.2,0.1,0.4,0.2,0.7,0.2c0.2,0,0.5-0.1,0.7-0.2
		s0.4-0.3,0.5-0.5c0.1-0.2,0.2-0.5,0.2-0.8C46.7,16,46.6,15.8,46.5,15.5z"/>
	<path class="st0" d="M52.2,14.2c0.3,0.1,0.5,0.4,0.7,0.7c0.2,0.3,0.2,0.6,0.2,1.1v2.7h-0.9v-2.5c0-0.4-0.1-0.7-0.3-0.9
		c-0.2-0.2-0.5-0.3-0.8-0.3s-0.6,0.1-0.8,0.3c-0.2,0.2-0.3,0.5-0.3,0.9v2.5h-0.9v-4.6h0.9v0.5c0.2-0.2,0.4-0.3,0.6-0.4
		s0.5-0.2,0.8-0.2C51.6,14,51.9,14.1,52.2,14.2z"/>
</g>
</svg>
