<!-- Generator: Adobe Illustrator 25.0.0, SVG Export Plug-In  -->
<svg version="1.1" xmlns="http://www.w3.org/2000/svg" xmlns:xlink="http://www.w3.org/1999/xlink" x="0px" y="0px" width="99.9px"
	 height="30.7px" viewBox="0 0 99.9 30.7" style="overflow:visible;enable-background:new 0 0 99.9 30.7;" xml:space="preserve">
<style type="text/css">
	.st0{fill:#0078FF;}
</style>
<defs>
</defs>
<g>
	<path class="st0" d="M5.7,7H2.1L1.5,8.7H0l3.1-8.6h1.6l3.1,8.6H6.3L5.7,7z M5.3,5.8l-1.4-4l-1.4,4H5.3z"/>
	<path class="st0" d="M16.2,8.7h-1.4l-4.2-6.4v6.4H9.1V0.1h1.4l4.2,6.4V0.1h1.4V8.7z"/>
	<path class="st0" d="M18.2,2.1c0.4-0.7,0.9-1.2,1.6-1.6C20.5,0.2,21.2,0,22,0c0.9,0,1.7,0.2,2.4,0.7c0.7,0.5,1.2,1.1,1.6,1.9h-1.7
		c-0.2-0.5-0.5-0.8-0.9-1C23,1.4,22.5,1.2,22,1.2c-0.6,0-1.1,0.1-1.5,0.4c-0.4,0.3-0.8,0.6-1,1.1c-0.3,0.5-0.4,1-0.4,1.7
		c0,0.6,0.1,1.2,0.4,1.7c0.3,0.5,0.6,0.8,1,1.1c0.4,0.3,1,0.4,1.5,0.4c0.5,0,1-0.1,1.4-0.3c0.4-0.2,0.7-0.6,0.9-1H26
		c-0.3,0.8-0.8,1.5-1.6,1.9c-0.7,0.4-1.5,0.7-2.4,0.7c-0.8,0-1.5-0.2-2.2-0.6s-1.2-0.9-1.6-1.6s-0.6-1.4-0.6-2.3
		C17.6,3.6,17.8,2.8,18.2,2.1z"/>
	<path class="st0" d="M34.5,0.1v8.6h-1.4V5h-4.1v3.8h-1.4V0.1h1.4v3.7h4.1V0.1H34.5z"/>
	<path class="st0" d="M38.1,8.2c-0.7-0.4-1.2-0.9-1.6-1.6c-0.4-0.7-0.6-1.4-0.6-2.3c0-0.8,0.2-1.6,0.6-2.3s0.9-1.2,1.6-1.6
		C38.8,0.2,39.5,0,40.3,0c0.8,0,1.6,0.2,2.2,0.6s1.2,0.9,1.6,1.6c0.4,0.7,0.6,1.4,0.6,2.3c0,0.8-0.2,1.6-0.6,2.3
		c-0.4,0.7-0.9,1.2-1.6,1.6c-0.7,0.4-1.4,0.6-2.2,0.6C39.5,8.8,38.8,8.6,38.1,8.2z M41.8,7.2c0.4-0.3,0.8-0.6,1-1.1
		c0.3-0.5,0.4-1,0.4-1.7c0-0.6-0.1-1.2-0.4-1.7s-0.6-0.8-1-1.1c-0.4-0.3-1-0.4-1.5-0.4c-0.6,0-1.1,0.1-1.5,0.4
		c-0.4,0.3-0.8,0.6-1,1.1c-0.3,0.5-0.4,1-0.4,1.7c0,0.6,0.1,1.2,0.4,1.7c0.3,0.5,0.6,0.9,1,1.1c0.4,0.3,1,0.4,1.5,0.4
		C40.9,7.6,41.4,7.5,41.8,7.2z"/>
	<path class="st0" d="M50.6,8.7l-2-3.4h-1.1v3.4h-1.4V0.1h3c0.7,0,1.2,0.1,1.7,0.3c0.5,0.2,0.8,0.5,1,0.9c0.2,0.4,0.3,0.8,0.3,1.3
		c0,0.6-0.2,1.1-0.5,1.5c-0.3,0.5-0.8,0.8-1.5,0.9l2.1,3.6H50.6z M47.5,4.2h1.6c0.5,0,0.9-0.1,1.2-0.4s0.4-0.6,0.4-1.1
		s-0.1-0.8-0.4-1c-0.3-0.3-0.7-0.4-1.2-0.4h-1.6V4.2z"/>
	<path class="st0" d="M59.1,7h-3.6l-0.6,1.8h-1.5l3.1-8.6h1.6l3.1,8.6h-1.5L59.1,7z M58.7,5.8l-1.4-4l-1.4,4H58.7z"/>
	<path class="st0" d="M68.8,2.6c-0.2-0.4-0.5-0.8-0.9-1c-0.4-0.2-0.9-0.3-1.4-0.3c-0.6,0-1.1,0.1-1.5,0.4c-0.4,0.3-0.8,0.6-1,1.1
		c-0.3,0.5-0.4,1-0.4,1.6c0,0.6,0.1,1.2,0.4,1.6c0.3,0.5,0.6,0.8,1,1.1c0.4,0.3,1,0.4,1.5,0.4c0.8,0,1.4-0.2,1.9-0.6
		c0.5-0.4,0.8-1,0.9-1.7H66V4h4.7v1.1C70.7,5.8,70.4,6.4,70,7c-0.4,0.6-0.9,1-1.5,1.3s-1.3,0.5-2,0.5c-0.8,0-1.5-0.2-2.2-0.6
		s-1.2-0.9-1.6-1.6s-0.6-1.4-0.6-2.3c0-0.8,0.2-1.6,0.6-2.3s0.9-1.2,1.6-1.6C65,0.2,65.7,0,66.5,0c0.9,0,1.7,0.2,2.4,0.7
		c0.7,0.5,1.2,1.1,1.6,1.9H68.8z"/>
	<path class="st0" d="M73.5,1.3v2.5h3v1.2h-3v2.6h3.3v1.2h-4.8V0.1h4.8v1.2H73.5z"/>
	<path class="st0" d="M80.2,7l-1.5,3.4h-0.9L78.6,7H80.2z"/>
	<path class="st0" d="M89.8,7h-3.6l-0.6,1.8h-1.5l3.1-8.6h1.6l3.1,8.6h-1.5L89.8,7z M89.4,5.8l-1.4-4l-1.4,4H89.4z"/>
	<path class="st0" d="M98,8.7l-3.3-3.9v3.9h-1.4V0.1h1.4V4L98,0.1h1.8l-3.7,4.3l3.8,4.3H98z"/>
	<path class="st0" d="M0.2,16.3C0.1,16.2,0,16,0,15.9c0-0.2,0.1-0.3,0.2-0.4c0.1-0.1,0.3-0.2,0.4-0.2c0.2,0,0.3,0.1,0.4,0.2
		c0.1,0.1,0.2,0.3,0.2,0.4c0,0.2-0.1,0.3-0.2,0.4c-0.1,0.1-0.3,0.2-0.4,0.2C0.4,16.5,0.3,16.4,0.2,16.3z"/>
	<path class="st0" d="M7.3,18.6L6,16.3H5.3v2.3H4.4v-5.7h2c0.4,0,0.8,0.1,1.1,0.2s0.5,0.4,0.7,0.6s0.2,0.5,0.2,0.9
		c0,0.4-0.1,0.7-0.3,1c-0.2,0.3-0.6,0.5-1,0.6l1.4,2.4H7.3z M5.3,15.6h1c0.4,0,0.6-0.1,0.8-0.3c0.2-0.2,0.3-0.4,0.3-0.7
		s-0.1-0.5-0.3-0.7c-0.2-0.2-0.4-0.3-0.8-0.3h-1V15.6z"/>
	<path class="st0" d="M13.7,16.7h-3.5c0,0.4,0.2,0.7,0.4,0.9s0.5,0.3,0.9,0.3c0.5,0,0.9-0.2,1.1-0.6h1c-0.1,0.4-0.4,0.8-0.7,1
		s-0.8,0.4-1.3,0.4c-0.4,0-0.8-0.1-1.2-0.3s-0.6-0.5-0.8-0.8c-0.2-0.4-0.3-0.8-0.3-1.2c0-0.5,0.1-0.9,0.3-1.2
		c0.2-0.4,0.5-0.6,0.8-0.8s0.7-0.3,1.2-0.3c0.4,0,0.8,0.1,1.1,0.3s0.6,0.5,0.8,0.8c0.2,0.3,0.3,0.7,0.3,1.2
		C13.8,16.4,13.7,16.6,13.7,16.7z M12.8,15.9c0-0.3-0.1-0.6-0.4-0.8c-0.2-0.2-0.5-0.3-0.9-0.3c-0.3,0-0.6,0.1-0.8,0.3
		s-0.4,0.5-0.4,0.8H12.8z"/>
	<path class="st0" d="M15.4,18.5c-0.3-0.1-0.5-0.3-0.7-0.5c-0.2-0.2-0.3-0.5-0.3-0.7h1c0,0.2,0.1,0.4,0.3,0.5s0.4,0.2,0.6,0.2
		c0.3,0,0.5-0.1,0.6-0.2c0.1-0.1,0.2-0.2,0.2-0.4c0-0.2-0.1-0.3-0.2-0.4c-0.2-0.1-0.4-0.2-0.8-0.3c-0.3-0.1-0.6-0.2-0.8-0.3
		c-0.2-0.1-0.4-0.2-0.6-0.4c-0.2-0.2-0.2-0.4-0.2-0.7c0-0.2,0.1-0.5,0.2-0.7c0.1-0.2,0.3-0.4,0.6-0.5c0.3-0.1,0.6-0.2,0.9-0.2
		c0.5,0,0.9,0.1,1.3,0.4c0.3,0.3,0.5,0.6,0.5,1.1h-0.9c0-0.2-0.1-0.4-0.2-0.5s-0.3-0.2-0.6-0.2c-0.2,0-0.4,0-0.6,0.1
		c-0.1,0.1-0.2,0.2-0.2,0.4c0,0.1,0,0.2,0.1,0.3c0.1,0.1,0.2,0.1,0.3,0.2c0.1,0,0.3,0.1,0.6,0.2c0.3,0.1,0.6,0.2,0.8,0.3
		c0.2,0.1,0.4,0.2,0.5,0.4c0.2,0.2,0.2,0.4,0.2,0.7c0,0.3-0.1,0.5-0.2,0.7c-0.1,0.2-0.3,0.4-0.6,0.5c-0.3,0.1-0.6,0.2-0.9,0.2
		C16,18.7,15.6,18.6,15.4,18.5z"/>
	<path class="st0" d="M20.7,14.2c0.3-0.1,0.6-0.2,0.9-0.2c0.4,0,0.8,0.1,1.1,0.3c0.3,0.2,0.6,0.5,0.8,0.8c0.2,0.4,0.3,0.8,0.3,1.2
		s-0.1,0.9-0.3,1.2c-0.2,0.4-0.4,0.6-0.8,0.8c-0.3,0.2-0.7,0.3-1.1,0.3c-0.3,0-0.7-0.1-0.9-0.2c-0.3-0.1-0.5-0.3-0.7-0.5v2.8h-0.9
		v-6.7H20v0.7C20.2,14.5,20.4,14.4,20.7,14.2z M22.6,15.5c-0.1-0.2-0.3-0.4-0.5-0.5c-0.2-0.1-0.4-0.2-0.7-0.2
		c-0.2,0-0.5,0.1-0.7,0.2c-0.2,0.1-0.4,0.3-0.5,0.5C20.1,15.8,20,16,20,16.4c0,0.3,0.1,0.6,0.2,0.8c0.1,0.2,0.3,0.4,0.5,0.5
		c0.2,0.1,0.4,0.2,0.7,0.2c0.2,0,0.5-0.1,0.7-0.2c0.2-0.1,0.4-0.3,0.5-0.5c0.1-0.2,0.2-0.5,0.2-0.8S22.7,15.8,22.6,15.5z"/>
	<path class="st0" d="M24.7,13.3c-0.1-0.1-0.2-0.3-0.2-0.4c0-0.2,0.1-0.3,0.2-0.4s0.3-0.2,0.4-0.2c0.2,0,0.3,0.1,0.4,0.2
		c0.1,0.1,0.2,0.3,0.2,0.4c0,0.2-0.1,0.3-0.2,0.4c-0.1,0.1-0.3,0.2-0.4,0.2C25,13.5,24.9,13.4,24.7,13.3z M25.6,14.1v4.6h-0.9v-4.6
		H25.6z"/>
	<path class="st0" d="M28.4,14.2c0.2-0.1,0.5-0.2,0.8-0.2v1h-0.2c-0.4,0-0.6,0.1-0.8,0.3c-0.2,0.2-0.3,0.5-0.3,1v2.4h-0.9v-4.6h0.9
		v0.7C27.9,14.5,28.1,14.3,28.4,14.2z"/>
	<path class="st0" d="M30,15.1c0.2-0.4,0.4-0.6,0.8-0.8c0.3-0.2,0.7-0.3,1.1-0.3c0.4,0,0.7,0.1,0.9,0.2c0.3,0.1,0.5,0.3,0.6,0.5
		v-0.7h1v4.6h-1V18c-0.2,0.2-0.4,0.4-0.7,0.5c-0.3,0.1-0.6,0.2-0.9,0.2c-0.4,0-0.7-0.1-1.1-0.3c-0.3-0.2-0.6-0.5-0.8-0.8
		c-0.2-0.4-0.3-0.8-0.3-1.2S29.8,15.5,30,15.1z M33.3,15.5c-0.1-0.2-0.3-0.4-0.5-0.5s-0.4-0.2-0.7-0.2s-0.5,0.1-0.7,0.2
		c-0.2,0.1-0.4,0.3-0.5,0.5c-0.1,0.2-0.2,0.5-0.2,0.8s0.1,0.6,0.2,0.8c0.1,0.2,0.3,0.4,0.5,0.5c0.2,0.1,0.4,0.2,0.7,0.2
		c0.2,0,0.5-0.1,0.7-0.2s0.4-0.3,0.5-0.5c0.1-0.2,0.2-0.5,0.2-0.8C33.4,16,33.4,15.8,33.3,15.5z"/>
	<path class="st0" d="M36.7,14.8v2.5c0,0.2,0,0.3,0.1,0.4c0.1,0.1,0.2,0.1,0.4,0.1h0.6v0.8h-0.7c-0.4,0-0.7-0.1-1-0.3
		s-0.3-0.5-0.3-1v-2.5h-0.5v-0.8h0.5V13h0.9v1.1h1.1v0.8H36.7z"/>
	<path class="st0" d="M39.5,18.4c-0.3-0.2-0.6-0.5-0.8-0.8c-0.2-0.4-0.3-0.8-0.3-1.2c0-0.5,0.1-0.9,0.3-1.2c0.2-0.4,0.5-0.6,0.8-0.8
		c0.4-0.2,0.7-0.3,1.2-0.3c0.4,0,0.8,0.1,1.2,0.3s0.6,0.5,0.8,0.8c0.2,0.4,0.3,0.8,0.3,1.2c0,0.5-0.1,0.9-0.3,1.2s-0.5,0.6-0.9,0.8
		c-0.4,0.2-0.8,0.3-1.2,0.3C40.3,18.7,39.9,18.6,39.5,18.4z M41.4,17.7c0.2-0.1,0.4-0.3,0.5-0.5c0.1-0.2,0.2-0.5,0.2-0.8
		c0-0.3-0.1-0.6-0.2-0.8c-0.1-0.2-0.3-0.4-0.5-0.5c-0.2-0.1-0.4-0.2-0.7-0.2S40.2,14.9,40,15c-0.2,0.1-0.4,0.3-0.5,0.5
		s-0.2,0.5-0.2,0.8c0,0.5,0.1,0.9,0.4,1.1c0.3,0.3,0.6,0.4,0.9,0.4C40.9,17.9,41.2,17.8,41.4,17.7z"/>
	<path class="st0" d="M45.5,14.2c0.2-0.1,0.5-0.2,0.8-0.2v1H46c-0.4,0-0.6,0.1-0.8,0.3c-0.2,0.2-0.3,0.5-0.3,1v2.4H44v-4.6h0.9v0.7
		C45.1,14.5,45.2,14.3,45.5,14.2z"/>
	<path class="st0" d="M51.2,14.1l-2.8,6.7h-1l0.9-2.2l-1.8-4.5h1l1.3,3.5l1.3-3.5H51.2z"/>
	<path class="st0" d="M57.8,12.9v0.8h-1.5v5h-0.9v-5h-1.5v-0.8H57.8z"/>
	<path class="st0" d="M62,14.2c0.3,0.1,0.5,0.4,0.6,0.7c0.2,0.3,0.2,0.6,0.2,1.1v2.7H62v-2.5c0-0.4-0.1-0.7-0.3-0.9
		c-0.2-0.2-0.5-0.3-0.8-0.3s-0.6,0.1-0.8,0.3c-0.2,0.2-0.3,0.5-0.3,0.9v2.5h-0.9v-6.1h0.9v2.1c0.2-0.2,0.4-0.3,0.6-0.4
		c0.2-0.1,0.5-0.2,0.8-0.2C61.5,14,61.8,14.1,62,14.2z"/>
	<path class="st0" d="M68.3,16.7h-3.5c0,0.4,0.2,0.7,0.4,0.9s0.5,0.3,0.9,0.3c0.5,0,0.9-0.2,1.1-0.6h1c-0.1,0.4-0.4,0.8-0.7,1
		s-0.8,0.4-1.3,0.4c-0.4,0-0.8-0.1-1.2-0.3s-0.6-0.5-0.8-0.8c-0.2-0.4-0.3-0.8-0.3-1.2c0-0.5,0.1-0.9,0.3-1.2
		c0.2-0.4,0.5-0.6,0.8-0.8s0.7-0.3,1.2-0.3c0.4,0,0.8,0.1,1.1,0.3s0.6,0.5,0.8,0.8c0.2,0.3,0.3,0.7,0.3,1.2
		C68.3,16.4,68.3,16.6,68.3,16.7z M67.3,15.9c0-0.3-0.1-0.6-0.4-0.8c-0.2-0.2-0.5-0.3-0.9-0.3c-0.3,0-0.6,0.1-0.8,0.3
		s-0.4,0.5-0.4,0.8H67.3z"/>
	<path class="st0" d="M70.7,14.2c0.2-0.1,0.5-0.2,0.8-0.2v1h-0.2c-0.4,0-0.6,0.1-0.8,0.3c-0.2,0.2-0.3,0.5-0.3,1v2.4h-0.9v-4.6h0.9
		v0.7C70.3,14.5,70.5,14.3,70.7,14.2z"/>
	<path class="st0" d="M72.4,15.1c0.2-0.4,0.4-0.6,0.8-0.8c0.3-0.2,0.7-0.3,1.1-0.3c0.4,0,0.7,0.1,0.9,0.2c0.3,0.1,0.5,0.3,0.6,0.5
		v-0.7h1v4.6h-1V18c-0.2,0.2-0.4,0.4-0.7,0.5c-0.3,0.1-0.6,0.2-0.9,0.2c-0.4,0-0.7-0.1-1.1-0.3c-0.3-0.2-0.6-0.5-0.8-0.8
		c-0.2-0.4-0.3-0.8-0.3-1.2S72.2,15.5,72.4,15.1z M75.6,15.5c-0.1-0.2-0.3-0.4-0.5-0.5s-0.4-0.2-0.7-0.2S74,14.9,73.7,15
		c-0.2,0.1-0.4,0.3-0.5,0.5C73.1,15.8,73,16,73,16.3s0.1,0.6,0.2,0.8c0.1,0.2,0.3,0.4,0.5,0.5c0.2,0.1,0.4,0.2,0.7,0.2
		c0.2,0,0.5-0.1,0.7-0.2s0.4-0.3,0.5-0.5c0.1-0.2,0.2-0.5,0.2-0.8C75.8,16,75.7,15.8,75.6,15.5z"/>
	<path class="st0" d="M79.6,14.2c0.3-0.1,0.6-0.2,0.9-0.2c0.4,0,0.8,0.1,1.1,0.3c0.3,0.2,0.6,0.5,0.8,0.8c0.2,0.4,0.3,0.8,0.3,1.2
		s-0.1,0.9-0.3,1.2c-0.2,0.4-0.4,0.6-0.8,0.8c-0.3,0.2-0.7,0.3-1.1,0.3c-0.3,0-0.7-0.1-0.9-0.2c-0.3-0.1-0.5-0.3-0.7-0.5v2.8H78
		v-6.7h0.9v0.7C79.1,14.5,79.3,14.4,79.6,14.2z M81.5,15.5c-0.1-0.2-0.3-0.4-0.5-0.5c-0.2-0.1-0.4-0.2-0.7-0.2
		c-0.2,0-0.5,0.1-0.7,0.2c-0.2,0.1-0.4,0.3-0.5,0.5c-0.1,0.2-0.2,0.5-0.2,0.8c0,0.3,0.1,0.6,0.2,0.8c0.1,0.2,0.3,0.4,0.5,0.5
		c0.2,0.1,0.4,0.2,0.7,0.2c0.2,0,0.5-0.1,0.7-0.2c0.2-0.1,0.4-0.3,0.5-0.5c0.1-0.2,0.2-0.5,0.2-0.8S81.6,15.8,81.5,15.5z"/>
	<path class="st0" d="M83.6,13.3c-0.1-0.1-0.2-0.3-0.2-0.4c0-0.2,0.1-0.3,0.2-0.4s0.3-0.2,0.4-0.2c0.2,0,0.3,0.1,0.4,0.2
		c0.1,0.1,0.2,0.3,0.2,0.4c0,0.2-0.1,0.3-0.2,0.4c-0.1,0.1-0.3,0.2-0.4,0.2C83.9,13.5,83.8,13.4,83.6,13.3z M84.5,14.1v4.6h-0.9
		v-4.6H84.5z"/>
	<path class="st0" d="M86.5,18.5c-0.3-0.1-0.5-0.3-0.7-0.5c-0.2-0.2-0.3-0.5-0.3-0.7h1c0,0.2,0.1,0.4,0.3,0.5s0.4,0.2,0.6,0.2
		c0.3,0,0.5-0.1,0.6-0.2c0.1-0.1,0.2-0.2,0.2-0.4c0-0.2-0.1-0.3-0.2-0.4c-0.2-0.1-0.4-0.2-0.8-0.3c-0.3-0.1-0.6-0.2-0.8-0.3
		c-0.2-0.1-0.4-0.2-0.6-0.4c-0.2-0.2-0.2-0.4-0.2-0.7c0-0.2,0.1-0.5,0.2-0.7c0.1-0.2,0.3-0.4,0.6-0.5c0.3-0.1,0.6-0.2,0.9-0.2
		c0.5,0,0.9,0.1,1.3,0.4c0.3,0.3,0.5,0.6,0.5,1.1h-0.9c0-0.2-0.1-0.4-0.2-0.5s-0.3-0.2-0.6-0.2c-0.2,0-0.4,0-0.6,0.1
		c-0.1,0.1-0.2,0.2-0.2,0.4c0,0.1,0,0.2,0.1,0.3c0.1,0.1,0.2,0.1,0.3,0.2c0.1,0,0.3,0.1,0.6,0.2c0.3,0.1,0.6,0.2,0.8,0.3
		c0.2,0.1,0.4,0.2,0.5,0.4c0.2,0.2,0.2,0.4,0.2,0.7c0,0.3-0.1,0.5-0.2,0.7c-0.1,0.2-0.3,0.4-0.6,0.5c-0.3,0.1-0.6,0.2-0.9,0.2
		C87.1,18.7,86.7,18.6,86.5,18.5z"/>
	<path class="st0" d="M91.3,14.8v2.5c0,0.2,0,0.3,0.1,0.4c0.1,0.1,0.2,0.1,0.4,0.1h0.6v0.8h-0.7c-0.4,0-0.7-0.1-1-0.3
		s-0.3-0.5-0.3-1v-2.5h-0.5v-0.8h0.5V13h0.9v1.1h1.1v0.8H91.3z"/>
	<path class="st0" d="M0.2,26.2C0.1,26.1,0,25.9,0,25.8c0-0.2,0.1-0.3,0.2-0.4c0.1-0.1,0.3-0.2,0.4-0.2c0.2,0,0.3,0.1,0.4,0.2
		c0.1,0.1,0.2,0.3,0.2,0.4c0,0.2-0.1,0.3-0.2,0.4c-0.1,0.1-0.3,0.2-0.4,0.2C0.4,26.4,0.3,26.3,0.2,26.2z"/>
	<path class="st0" d="M5.5,28.2c-0.4-0.3-0.8-0.6-1.1-1c-0.3-0.4-0.4-1-0.4-1.5s0.1-1.1,0.4-1.5c0.3-0.4,0.6-0.8,1.1-1
		C6,22.9,6.4,22.7,7,22.7c0.5,0,1,0.1,1.5,0.4c0.4,0.3,0.8,0.6,1.1,1c0.3,0.4,0.4,1,0.4,1.5s-0.1,1.1-0.4,1.5s-0.6,0.8-1.1,1
		C8,28.5,7.5,28.6,7,28.6C6.4,28.6,6,28.5,5.5,28.2z M8,27.5c0.3-0.2,0.5-0.4,0.7-0.7c0.2-0.3,0.3-0.7,0.3-1.1s-0.1-0.8-0.3-1.1
		C8.5,24.2,8.3,24,8,23.8c-0.3-0.2-0.6-0.3-1-0.3s-0.7,0.1-1,0.3c-0.3,0.2-0.5,0.4-0.7,0.7C5.1,24.9,5,25.2,5,25.7s0.1,0.8,0.3,1.1
		c0.2,0.3,0.4,0.6,0.7,0.7s0.6,0.3,1,0.3S7.7,27.7,8,27.5z"/>
	<path class="st0" d="M12.4,24.1c0.3-0.1,0.6-0.2,0.9-0.2c0.4,0,0.8,0.1,1.1,0.3c0.3,0.2,0.6,0.5,0.8,0.8c0.2,0.4,0.3,0.8,0.3,1.2
		s-0.1,0.9-0.3,1.2c-0.2,0.4-0.4,0.6-0.8,0.8c-0.3,0.2-0.7,0.3-1.1,0.3c-0.3,0-0.7-0.1-0.9-0.2c-0.3-0.1-0.5-0.3-0.7-0.5v2.8h-0.9
		V24h0.9v0.7C11.9,24.5,12.2,24.3,12.4,24.1z M14.3,25.4c-0.1-0.2-0.3-0.4-0.5-0.5c-0.2-0.1-0.4-0.2-0.7-0.2c-0.2,0-0.5,0.1-0.7,0.2
		c-0.2,0.1-0.4,0.3-0.5,0.5c-0.1,0.2-0.2,0.5-0.2,0.8c0,0.3,0.1,0.6,0.2,0.8c0.1,0.2,0.3,0.4,0.5,0.5c0.2,0.1,0.4,0.2,0.7,0.2
		c0.2,0,0.5-0.1,0.7-0.2c0.2-0.1,0.4-0.3,0.5-0.5c0.1-0.2,0.2-0.5,0.2-0.8S14.5,25.7,14.3,25.4z"/>
	<path class="st0" d="M17.5,24.8v2.5c0,0.2,0,0.3,0.1,0.4c0.1,0.1,0.2,0.1,0.4,0.1h0.6v0.8h-0.7c-0.4,0-0.7-0.1-1-0.3
		s-0.3-0.5-0.3-1v-2.5H16V24h0.5v-1.1h0.9V24h1.1v0.8H17.5z"/>
	<path class="st0" d="M20.3,28.3c-0.3-0.2-0.6-0.5-0.8-0.8c-0.2-0.4-0.3-0.8-0.3-1.2c0-0.5,0.1-0.9,0.3-1.2c0.2-0.4,0.5-0.6,0.8-0.8
		c0.4-0.2,0.7-0.3,1.2-0.3c0.4,0,0.8,0.1,1.2,0.3s0.6,0.5,0.8,0.8c0.2,0.4,0.3,0.8,0.3,1.2c0,0.5-0.1,0.9-0.3,1.2s-0.5,0.6-0.9,0.8
		c-0.4,0.2-0.8,0.3-1.2,0.3C21.1,28.6,20.7,28.5,20.3,28.3z M22.2,27.6c0.2-0.1,0.4-0.3,0.5-0.5c0.1-0.2,0.2-0.5,0.2-0.8
		c0-0.3-0.1-0.6-0.2-0.8c-0.1-0.2-0.3-0.4-0.5-0.5c-0.2-0.1-0.4-0.2-0.7-0.2s-0.5,0.1-0.7,0.2c-0.2,0.1-0.4,0.3-0.5,0.5
		s-0.2,0.5-0.2,0.8c0,0.5,0.1,0.9,0.4,1.1c0.3,0.3,0.6,0.4,0.9,0.4C21.7,27.8,22,27.7,22.2,27.6z"/>
	<path class="st0" d="M31.2,24.1c0.3,0.1,0.5,0.4,0.7,0.7c0.2,0.3,0.2,0.6,0.2,1.1v2.7h-0.9V26c0-0.4-0.1-0.7-0.3-0.9
		c-0.2-0.2-0.5-0.3-0.8-0.3s-0.6,0.1-0.8,0.3c-0.2,0.2-0.3,0.5-0.3,0.9v2.5H28V26c0-0.4-0.1-0.7-0.3-0.9c-0.2-0.2-0.5-0.3-0.8-0.3
		s-0.6,0.1-0.8,0.3c-0.2,0.2-0.3,0.5-0.3,0.9v2.5h-0.9V24h0.9v0.5c0.2-0.2,0.3-0.3,0.6-0.4c0.2-0.1,0.5-0.2,0.8-0.2
		c0.4,0,0.7,0.1,1,0.2c0.3,0.2,0.5,0.4,0.7,0.7c0.1-0.3,0.4-0.5,0.6-0.7s0.6-0.2,0.9-0.2C30.6,23.9,31,24,31.2,24.1z"/>
	<path class="st0" d="M37.5,26.6H34c0,0.4,0.2,0.7,0.4,0.9s0.5,0.3,0.9,0.3c0.5,0,0.9-0.2,1.1-0.6h1c-0.1,0.4-0.4,0.8-0.7,1
		s-0.8,0.4-1.3,0.4c-0.4,0-0.8-0.1-1.2-0.3s-0.6-0.5-0.8-0.8c-0.2-0.4-0.3-0.8-0.3-1.2c0-0.5,0.1-0.9,0.3-1.2
		c0.2-0.4,0.5-0.6,0.8-0.8s0.7-0.3,1.2-0.3c0.4,0,0.8,0.1,1.1,0.3s0.6,0.5,0.8,0.8c0.2,0.3,0.3,0.7,0.3,1.2
		C37.5,26.3,37.5,26.5,37.5,26.6z M36.5,25.9c0-0.3-0.1-0.6-0.4-0.8c-0.2-0.2-0.5-0.3-0.9-0.3c-0.3,0-0.6,0.1-0.8,0.3
		s-0.4,0.5-0.4,0.8H36.5z"/>
	<path class="st0" d="M39.6,24.8v2.5c0,0.2,0,0.3,0.1,0.4c0.1,0.1,0.2,0.1,0.4,0.1h0.6v0.8h-0.7c-0.4,0-0.7-0.1-1-0.3
		s-0.3-0.5-0.3-1v-2.5h-0.5V24h0.5v-1.1h0.9V24h1.1v0.8H39.6z"/>
	<path class="st0" d="M43,24.1c0.2-0.1,0.5-0.2,0.8-0.2v1h-0.2c-0.4,0-0.6,0.1-0.8,0.3c-0.2,0.2-0.3,0.5-0.3,1v2.4h-0.9V24h0.9v0.7
		C42.6,24.4,42.8,24.2,43,24.1z"/>
	<path class="st0" d="M44.7,23.2c-0.1-0.1-0.2-0.3-0.2-0.4c0-0.2,0.1-0.3,0.2-0.4s0.3-0.2,0.4-0.2c0.2,0,0.3,0.1,0.4,0.2
		c0.1,0.1,0.2,0.3,0.2,0.4c0,0.2-0.1,0.3-0.2,0.4c-0.1,0.1-0.3,0.2-0.4,0.2C45,23.4,44.9,23.3,44.7,23.2z M45.6,24v4.6h-0.9V24H45.6
		z"/>
	<path class="st0" d="M47.6,28.4c-0.3-0.1-0.5-0.3-0.7-0.5c-0.2-0.2-0.3-0.5-0.3-0.7h1c0,0.2,0.1,0.4,0.3,0.5s0.4,0.2,0.6,0.2
		c0.3,0,0.5-0.1,0.6-0.2c0.1-0.1,0.2-0.2,0.2-0.4c0-0.2-0.1-0.3-0.2-0.4c-0.2-0.1-0.4-0.2-0.8-0.3c-0.3-0.1-0.6-0.2-0.8-0.3
		c-0.2-0.1-0.4-0.2-0.6-0.4c-0.2-0.2-0.2-0.4-0.2-0.7c0-0.2,0.1-0.5,0.2-0.7c0.1-0.2,0.3-0.4,0.6-0.5c0.3-0.1,0.6-0.2,0.9-0.2
		c0.5,0,0.9,0.1,1.3,0.4c0.3,0.3,0.5,0.6,0.5,1.1h-0.9c0-0.2-0.1-0.4-0.2-0.5s-0.3-0.2-0.6-0.2c-0.2,0-0.4,0-0.6,0.1
		c-0.1,0.1-0.2,0.2-0.2,0.4c0,0.1,0,0.2,0.1,0.3c0.1,0.1,0.2,0.1,0.3,0.2c0.1,0,0.3,0.1,0.6,0.2c0.3,0.1,0.6,0.2,0.8,0.3
		c0.2,0.1,0.4,0.2,0.5,0.4c0.2,0.2,0.2,0.4,0.2,0.7c0,0.3-0.1,0.5-0.2,0.7c-0.1,0.2-0.3,0.4-0.6,0.5c-0.3,0.1-0.6,0.2-0.9,0.2
		C48.2,28.6,47.9,28.6,47.6,28.4z"/>
	<path class="st0" d="M52.4,24.8v2.5c0,0.2,0,0.3,0.1,0.4c0.1,0.1,0.2,0.1,0.4,0.1h0.6v0.8h-0.7c-0.4,0-0.7-0.1-1-0.3
		s-0.3-0.5-0.3-1v-2.5h-0.5V24h0.5v-1.1h0.9V24h1.1v0.8H52.4z"/>
</g>
</svg>
