<!-- Generator: Adobe Illustrator 25.0.0, SVG Export Plug-In  -->
<svg version="1.1" xmlns="http://www.w3.org/2000/svg" xmlns:xlink="http://www.w3.org/1999/xlink" x="0px" y="0px" width="68.8px"
	 height="19.5px" viewBox="0 0 68.8 19.5" style="overflow:visible;enable-background:new 0 0 68.8 19.5;" xml:space="preserve">
<style type="text/css">
	.st0{fill:#0078FF;}
</style>
<defs>
</defs>
<g>
	<path class="st0" d="M11.2,0.1L8.8,8.2H7.3L5.6,2.1L3.8,8.2l-1.5,0L0,0.1h1.4l1.7,6.6l1.8-6.6h1.5l1.7,6.6l1.7-6.6H11.2z"/>
	<path class="st0" d="M13.6,0.1v8.1h-1.3V0.1H13.6z"/>
	<path class="st0" d="M15.5,2c0.4-0.6,0.9-1.1,1.5-1.5C17.6,0.2,18.3,0,19,0c0.9,0,1.6,0.2,2.3,0.6c0.7,0.4,1.2,1,1.5,1.8h-1.6
		c-0.2-0.4-0.5-0.7-0.9-1C20,1.3,19.5,1.2,19,1.2c-0.5,0-1,0.1-1.4,0.4c-0.4,0.2-0.7,0.6-1,1c-0.2,0.5-0.4,1-0.4,1.6
		s0.1,1.1,0.4,1.6c0.2,0.5,0.6,0.8,1,1C18,7,18.5,7.1,19,7.1c0.5,0,0.9-0.1,1.3-0.3c0.4-0.2,0.7-0.5,0.9-1h1.6
		c-0.3,0.8-0.8,1.4-1.5,1.8c-0.7,0.4-1.4,0.6-2.3,0.6c-0.8,0-1.5-0.2-2.1-0.5c-0.6-0.4-1.1-0.8-1.5-1.5c-0.4-0.6-0.6-1.3-0.6-2.1
		S15.1,2.6,15.5,2z"/>
	<path class="st0" d="M30.8,0.1v8.1h-1.3V4.7h-3.8v3.5h-1.3V0.1h1.3v3.5h3.8V0.1H30.8z"/>
	<path class="st0" d="M33.9,0.1v8.1h-1.3V0.1H33.9z"/>
	<path class="st0" d="M40.9,0.1v1.1h-2.2v7h-1.3v-7h-2.2V0.1H40.9z"/>
	<path class="st0" d="M47.1,6.5h-3.4l-0.6,1.7h-1.4l2.9-8.1h1.5l2.9,8.1h-1.4L47.1,6.5z M46.7,5.5l-1.3-3.8l-1.3,3.8H46.7z"/>
	<path class="st0" d="M51.8,6.6l-1.4,3.2h-0.9l0.8-3.2H51.8z"/>
	<path class="st0" d="M60.4,8.2l-3.1-3.6v3.6H56V0.1h1.3v3.7l3.1-3.7h1.7l-3.5,4.1l3.6,4H60.4z"/>
	<path class="st0" d="M64.5,8c-0.4-0.2-0.8-0.5-1-0.8c-0.2-0.3-0.4-0.8-0.4-1.2h1.4c0,0.3,0.2,0.6,0.4,0.9c0.2,0.2,0.6,0.3,1,0.3
		c0.5,0,0.8-0.1,1.1-0.3c0.3-0.2,0.4-0.5,0.4-0.9c0-0.3-0.1-0.5-0.2-0.7S66.8,5,66.6,4.9c-0.2-0.1-0.6-0.2-1-0.3
		c-0.5-0.1-1-0.3-1.3-0.4s-0.6-0.4-0.8-0.7c-0.2-0.3-0.3-0.7-0.3-1.2c0-0.5,0.1-0.9,0.3-1.2c0.2-0.3,0.6-0.6,1-0.8
		C64.9,0.1,65.4,0,65.9,0c0.8,0,1.4,0.2,1.9,0.6c0.5,0.4,0.8,0.9,0.8,1.6h-1.5c0-0.3-0.2-0.5-0.4-0.8c-0.3-0.2-0.6-0.3-1-0.3
		c-0.4,0-0.7,0.1-0.9,0.3c-0.2,0.2-0.4,0.5-0.4,0.8c0,0.2,0.1,0.5,0.2,0.6s0.3,0.3,0.6,0.4c0.2,0.1,0.6,0.2,1,0.3
		c0.5,0.1,1,0.3,1.3,0.4c0.3,0.1,0.6,0.4,0.9,0.7c0.2,0.3,0.4,0.7,0.4,1.2c0,0.4-0.1,0.8-0.3,1.2c-0.2,0.4-0.5,0.7-1,0.9
		c-0.4,0.2-0.9,0.3-1.5,0.3C65.4,8.3,65,8.2,64.5,8z"/>
	<path class="st0" d="M0.3,15.3c-0.1-0.1-0.2-0.2-0.2-0.4s0.1-0.3,0.2-0.4c0.1-0.1,0.2-0.2,0.4-0.2c0.2,0,0.3,0.1,0.4,0.2
		c0.1,0.1,0.2,0.2,0.2,0.4s-0.1,0.3-0.2,0.4c-0.1,0.1-0.2,0.2-0.4,0.2C0.6,15.5,0.5,15.4,0.3,15.3z"/>
	<path class="st0" d="M5.3,17.2c-0.4-0.2-0.8-0.6-1-1C4.1,15.8,4,15.3,4,14.8c0-0.5,0.1-1,0.4-1.4c0.2-0.4,0.6-0.7,1-1
		C5.8,12.2,6.2,12,6.7,12c0.5,0,1,0.1,1.4,0.4c0.4,0.2,0.8,0.6,1,1c0.2,0.4,0.4,0.9,0.4,1.4c0,0.5-0.1,1-0.4,1.4s-0.6,0.8-1,1
		c-0.4,0.2-0.9,0.4-1.4,0.4C6.2,17.6,5.8,17.4,5.3,17.2z M7.7,16.5c0.3-0.2,0.5-0.4,0.7-0.7s0.2-0.7,0.2-1.1s-0.1-0.7-0.2-1
		S8,13.2,7.7,13.1c-0.3-0.2-0.6-0.2-1-0.2c-0.4,0-0.7,0.1-1,0.2c-0.3,0.2-0.5,0.4-0.7,0.7s-0.2,0.6-0.2,1s0.1,0.7,0.2,1.1
		s0.4,0.5,0.7,0.7c0.3,0.2,0.6,0.2,1,0.2C7.1,16.8,7.4,16.7,7.7,16.5z"/>
	<path class="st0" d="M11.9,13.4c0.3-0.1,0.6-0.2,0.9-0.2c0.4,0,0.7,0.1,1,0.3c0.3,0.2,0.5,0.4,0.7,0.8c0.2,0.3,0.3,0.7,0.3,1.1
		s-0.1,0.8-0.3,1.2c-0.2,0.3-0.4,0.6-0.7,0.8c-0.3,0.2-0.6,0.3-1,0.3c-0.3,0-0.6-0.1-0.9-0.2c-0.3-0.1-0.5-0.3-0.6-0.5v2.7h-0.9
		v-6.3h0.9v0.6C11.4,13.7,11.6,13.5,11.9,13.4z M13.7,14.6c-0.1-0.2-0.3-0.4-0.5-0.5c-0.2-0.1-0.4-0.2-0.6-0.2
		c-0.2,0-0.4,0.1-0.6,0.2c-0.2,0.1-0.4,0.3-0.5,0.5c-0.1,0.2-0.2,0.5-0.2,0.8s0.1,0.6,0.2,0.8c0.1,0.2,0.3,0.4,0.5,0.5
		c0.2,0.1,0.4,0.2,0.6,0.2c0.2,0,0.4-0.1,0.6-0.2c0.2-0.1,0.4-0.3,0.5-0.5c0.1-0.2,0.2-0.5,0.2-0.8S13.8,14.8,13.7,14.6z"/>
	<path class="st0" d="M16.7,14v2.4c0,0.2,0,0.3,0.1,0.3c0.1,0.1,0.2,0.1,0.4,0.1h0.5v0.7H17c-0.4,0-0.7-0.1-0.9-0.3
		s-0.3-0.5-0.3-0.9V14h-0.5v-0.7h0.5v-1.1h0.9v1.1h1V14H16.7z"/>
	<path class="st0" d="M19.3,17.3c-0.3-0.2-0.6-0.4-0.8-0.8c-0.2-0.3-0.3-0.7-0.3-1.2c0-0.4,0.1-0.8,0.3-1.2c0.2-0.3,0.5-0.6,0.8-0.8
		c0.3-0.2,0.7-0.3,1.1-0.3c0.4,0,0.8,0.1,1.1,0.3c0.3,0.2,0.6,0.4,0.8,0.8c0.2,0.3,0.3,0.7,0.3,1.2s-0.1,0.8-0.3,1.2
		c-0.2,0.3-0.5,0.6-0.8,0.8c-0.3,0.2-0.7,0.3-1.1,0.3C20,17.6,19.6,17.5,19.3,17.3z M21,16.6c0.2-0.1,0.4-0.3,0.5-0.5
		c0.1-0.2,0.2-0.5,0.2-0.8s-0.1-0.6-0.2-0.8s-0.3-0.4-0.5-0.5c-0.2-0.1-0.4-0.2-0.6-0.2s-0.4,0.1-0.6,0.2c-0.2,0.1-0.3,0.3-0.5,0.5
		c-0.1,0.2-0.2,0.5-0.2,0.8c0,0.5,0.1,0.8,0.4,1.1c0.2,0.3,0.5,0.4,0.9,0.4C20.6,16.8,20.8,16.8,21,16.6z"/>
	<path class="st0" d="M29.5,13.4c0.3,0.1,0.5,0.3,0.6,0.6c0.2,0.3,0.2,0.6,0.2,1v2.5h-0.9v-2.4c0-0.4-0.1-0.7-0.3-0.9
		c-0.2-0.2-0.5-0.3-0.8-0.3s-0.6,0.1-0.8,0.3c-0.2,0.2-0.3,0.5-0.3,0.9v2.4h-0.9v-2.4c0-0.4-0.1-0.7-0.3-0.9
		c-0.2-0.2-0.5-0.3-0.8-0.3s-0.6,0.1-0.8,0.3c-0.2,0.2-0.3,0.5-0.3,0.9v2.4h-0.9v-4.3h0.9v0.5c0.1-0.2,0.3-0.3,0.6-0.4
		s0.5-0.1,0.7-0.1c0.3,0,0.6,0.1,0.9,0.2c0.3,0.1,0.5,0.4,0.6,0.6c0.1-0.3,0.3-0.5,0.6-0.6c0.3-0.2,0.6-0.2,0.9-0.2
		C29,13.2,29.3,13.2,29.5,13.4z"/>
	<path class="st0" d="M35.4,15.7h-3.3c0,0.3,0.2,0.6,0.4,0.8s0.5,0.3,0.8,0.3c0.5,0,0.8-0.2,1-0.6h1c-0.1,0.4-0.4,0.7-0.7,1
		s-0.8,0.4-1.3,0.4c-0.4,0-0.8-0.1-1.1-0.3c-0.3-0.2-0.6-0.4-0.8-0.8c-0.2-0.3-0.3-0.7-0.3-1.2s0.1-0.8,0.3-1.2
		c0.2-0.3,0.4-0.6,0.8-0.8c0.3-0.2,0.7-0.3,1.1-0.3c0.4,0,0.8,0.1,1.1,0.3s0.6,0.4,0.7,0.7s0.3,0.7,0.3,1.1
		C35.4,15.4,35.4,15.6,35.4,15.7z M34.5,15c0-0.3-0.1-0.6-0.3-0.8c-0.2-0.2-0.5-0.3-0.8-0.3c-0.3,0-0.6,0.1-0.8,0.3
		c-0.2,0.2-0.3,0.5-0.4,0.8H34.5z"/>
	<path class="st0" d="M37.3,14v2.4c0,0.2,0,0.3,0.1,0.3c0.1,0.1,0.2,0.1,0.4,0.1h0.5v0.7h-0.7c-0.4,0-0.7-0.1-0.9-0.3
		s-0.3-0.5-0.3-0.9V14h-0.5v-0.7h0.5v-1.1h0.9v1.1h1V14H37.3z"/>
	<path class="st0" d="M40.6,13.3c0.2-0.1,0.5-0.2,0.8-0.2v0.9h-0.2c-0.3,0-0.6,0.1-0.8,0.3s-0.3,0.5-0.3,0.9v2.3h-0.9v-4.3h0.9v0.6
		C40.2,13.6,40.4,13.5,40.6,13.3z"/>
	<path class="st0" d="M42.2,12.5c-0.1-0.1-0.2-0.2-0.2-0.4c0-0.2,0.1-0.3,0.2-0.4c0.1-0.1,0.2-0.2,0.4-0.2c0.2,0,0.3,0.1,0.4,0.2
		s0.2,0.2,0.2,0.4c0,0.2-0.1,0.3-0.2,0.4c-0.1,0.1-0.2,0.2-0.4,0.2C42.5,12.7,42.3,12.6,42.2,12.5z M43.1,13.2v4.3h-0.9v-4.3H43.1z"
		/>
	<path class="st0" d="M44.9,17.4c-0.3-0.1-0.5-0.3-0.6-0.5c-0.2-0.2-0.2-0.4-0.2-0.7h0.9c0,0.2,0.1,0.3,0.3,0.5
		c0.2,0.1,0.4,0.2,0.6,0.2c0.2,0,0.4,0,0.6-0.1c0.1-0.1,0.2-0.2,0.2-0.4c0-0.2-0.1-0.3-0.2-0.4c-0.2-0.1-0.4-0.2-0.7-0.3
		c-0.3-0.1-0.6-0.2-0.8-0.3s-0.4-0.2-0.5-0.4s-0.2-0.4-0.2-0.7c0-0.2,0.1-0.4,0.2-0.6c0.1-0.2,0.3-0.3,0.6-0.4s0.5-0.2,0.9-0.2
		c0.5,0,0.9,0.1,1.2,0.4c0.3,0.2,0.5,0.6,0.5,1h-0.9c0-0.2-0.1-0.3-0.2-0.5c-0.1-0.1-0.3-0.2-0.6-0.2c-0.2,0-0.4,0-0.5,0.1
		S45,14.2,45,14.4c0,0.1,0,0.2,0.1,0.3c0.1,0.1,0.2,0.1,0.3,0.2s0.3,0.1,0.5,0.2c0.3,0.1,0.6,0.2,0.8,0.3c0.2,0.1,0.4,0.2,0.5,0.4
		c0.1,0.2,0.2,0.4,0.2,0.7c0,0.2-0.1,0.5-0.2,0.7c-0.1,0.2-0.3,0.3-0.6,0.5c-0.2,0.1-0.5,0.2-0.9,0.2C45.4,17.6,45.1,17.5,44.9,17.4
		z"/>
	<path class="st0" d="M49.4,14v2.4c0,0.2,0,0.3,0.1,0.3c0.1,0.1,0.2,0.1,0.4,0.1h0.5v0.7h-0.7c-0.4,0-0.7-0.1-0.9-0.3
		s-0.3-0.5-0.3-0.9V14H48v-0.7h0.5v-1.1h0.9v1.1h1V14H49.4z"/>
</g>
</svg>
