<!-- Generator: Adobe Illustrator 25.0.0, SVG Export Plug-In  -->
<svg version="1.1" xmlns="http://www.w3.org/2000/svg" xmlns:xlink="http://www.w3.org/1999/xlink" x="0px" y="0px" width="557.3px"
	 height="122.8px" viewBox="0 0 557.3 122.8" style="overflow:visible;enable-background:new 0 0 557.3 122.8;"
	 xml:space="preserve">
<style type="text/css">
	.st0{fill:#FFFFFF;}
	.st1{fill:#FF645C;}
</style>
<defs>
</defs>
<g>
	<path class="st0" d="M12.6,1.6v14.6h-2.4V9.8H3.3v6.4H0.9V1.6h2.4v6.3h6.9V1.6H12.6z"/>
	<path class="st0" d="M17.8,15.7c-0.9-0.5-1.6-1.2-2.1-2.1c-0.5-0.9-0.8-1.9-0.8-3.1c0-1.2,0.3-2.2,0.8-3.1c0.5-0.9,1.2-1.6,2.1-2.1
		c0.9-0.5,1.9-0.7,3-0.7c1.1,0,2.1,0.2,3,0.7c0.9,0.5,1.6,1.2,2.1,2.1c0.5,0.9,0.8,2,0.8,3.1c0,1.2-0.3,2.2-0.8,3.1
		c-0.5,0.9-1.3,1.6-2.2,2.1c-0.9,0.5-1.9,0.7-3,0.7C19.6,16.4,18.7,16.2,17.8,15.7z M22.5,13.9c0.5-0.3,1-0.7,1.3-1.3
		c0.3-0.6,0.5-1.3,0.5-2.1c0-0.8-0.2-1.6-0.5-2.1c-0.3-0.6-0.7-1-1.3-1.3c-0.5-0.3-1.1-0.4-1.7-0.4c-0.6,0-1.2,0.1-1.7,0.4
		c-0.5,0.3-0.9,0.7-1.2,1.3c-0.3,0.6-0.5,1.3-0.5,2.1c0,1.2,0.3,2.2,1,2.9c0.6,0.7,1.4,1,2.4,1C21.4,14.3,21.9,14.2,22.5,13.9z"/>
	<path class="st0" d="M44.7,4.6l-3.6,11.6h-2.5l-2.3-8.5l-2.3,8.5h-2.5L27.7,4.6h2.4l2.4,9.3l2.5-9.3h2.5l2.4,9.3l2.4-9.3H44.7z"/>
	<path class="st0" d="M56.7,6.6h-2.1v9.6h-2.4V6.6h-1.4v-2h1.4V3.8c0-1.3,0.4-2.3,1.1-2.9C54,0.3,55.1,0,56.6,0v2
		c-0.7,0-1.2,0.1-1.5,0.4s-0.4,0.7-0.4,1.4v0.8h2.1V6.6z"/>
	<path class="st0" d="M62.7,4.9c0.6-0.3,1.3-0.5,2.1-0.5v2.5h-0.6c-0.9,0-1.6,0.2-2.1,0.7c-0.5,0.5-0.7,1.3-0.7,2.5v6.1h-2.4V4.6
		h2.4v1.7C61.6,5.7,62.1,5.3,62.7,4.9z"/>
	<path class="st0" d="M77.5,11.3h-8.8c0.1,0.9,0.4,1.7,1,2.2c0.6,0.6,1.4,0.8,2.3,0.8c1.3,0,2.2-0.5,2.7-1.6h2.6
		c-0.4,1.1-1,1.9-1.9,2.6c-0.9,0.7-2.1,1-3.4,1c-1.1,0-2.1-0.2-3-0.7c-0.9-0.5-1.6-1.2-2.1-2.1c-0.5-0.9-0.7-1.9-0.7-3.1
		s0.2-2.2,0.7-3.1c0.5-0.9,1.2-1.6,2-2.1c0.9-0.5,1.9-0.7,3-0.7c1.1,0,2.1,0.2,2.9,0.7c0.9,0.5,1.5,1.1,2,2s0.7,1.9,0.7,3
		C77.5,10.6,77.5,11,77.5,11.3z M75,9.4c0-0.9-0.3-1.6-0.9-2.1c-0.6-0.5-1.4-0.8-2.3-0.8c-0.8,0-1.5,0.3-2.1,0.8s-0.9,1.2-1,2.1H75z
		"/>
	<path class="st0" d="M79.8,7.3c0.5-0.9,1.1-1.6,2-2.1c0.8-0.5,1.8-0.7,2.8-0.7c0.9,0,1.7,0.2,2.4,0.5s1.2,0.8,1.6,1.3V4.6H91v17.1
		h-2.4v-7.2c-0.4,0.5-0.9,1-1.6,1.3s-1.5,0.5-2.4,0.5c-1,0-1.9-0.3-2.7-0.8c-0.8-0.5-1.5-1.2-2-2.1c-0.5-0.9-0.7-2-0.7-3.1
		S79.3,8.2,79.8,7.3z M88.1,8.3c-0.3-0.6-0.8-1-1.3-1.3c-0.5-0.3-1.1-0.5-1.7-0.5c-0.6,0-1.2,0.2-1.7,0.5c-0.5,0.3-1,0.7-1.3,1.3
		c-0.3,0.6-0.5,1.3-0.5,2.1c0,0.8,0.2,1.5,0.5,2.1s0.8,1.1,1.3,1.4c0.5,0.3,1.1,0.5,1.7,0.5c0.6,0,1.2-0.2,1.7-0.5
		c0.5-0.3,1-0.8,1.3-1.4c0.3-0.6,0.5-1.3,0.5-2.1C88.6,9.6,88.4,8.9,88.1,8.3z"/>
	<path class="st0" d="M104.6,4.6v11.6h-2.4v-1.4c-0.4,0.5-0.9,0.9-1.5,1.1c-0.6,0.3-1.3,0.4-1.9,0.4c-0.9,0-1.7-0.2-2.4-0.6
		c-0.7-0.4-1.3-0.9-1.7-1.7c-0.4-0.7-0.6-1.6-0.6-2.7V4.6h2.4v6.4c0,1,0.3,1.8,0.8,2.4c0.5,0.6,1.2,0.8,2.1,0.8
		c0.9,0,1.6-0.3,2.1-0.8c0.5-0.6,0.8-1.3,0.8-2.4V4.6H104.6z"/>
	<path class="st0" d="M118.3,11.3h-8.8c0.1,0.9,0.4,1.7,1,2.2c0.6,0.6,1.4,0.8,2.3,0.8c1.3,0,2.2-0.5,2.7-1.6h2.6
		c-0.4,1.1-1,1.9-1.9,2.6c-0.9,0.7-2.1,1-3.4,1c-1.1,0-2.1-0.2-3-0.7c-0.9-0.5-1.6-1.2-2.1-2.1c-0.5-0.9-0.7-1.9-0.7-3.1
		s0.2-2.2,0.7-3.1c0.5-0.9,1.2-1.6,2-2.1c0.9-0.5,1.9-0.7,3-0.7c1.1,0,2.1,0.2,2.9,0.7c0.9,0.5,1.5,1.1,2,2s0.7,1.9,0.7,3
		C118.4,10.6,118.3,11,118.3,11.3z M115.9,9.4c0-0.9-0.3-1.6-0.9-2.1c-0.6-0.5-1.4-0.8-2.3-0.8c-0.8,0-1.5,0.3-2.1,0.8
		s-0.9,1.2-1,2.1H115.9z"/>
	<path class="st0" d="M129,5c0.7,0.4,1.3,0.9,1.7,1.7c0.4,0.7,0.6,1.6,0.6,2.7v6.8h-2.4V9.7c0-1-0.3-1.8-0.8-2.4
		c-0.5-0.6-1.2-0.8-2.1-0.8c-0.9,0-1.6,0.3-2.1,0.8c-0.5,0.6-0.8,1.3-0.8,2.4v6.5h-2.4V4.6h2.4V6c0.4-0.5,0.9-0.8,1.5-1.1
		c0.6-0.3,1.3-0.4,1.9-0.4C127.5,4.5,128.3,4.6,129,5z"/>
	<path class="st0" d="M137.1,6.6V13c0,0.4,0.1,0.7,0.3,0.9c0.2,0.2,0.5,0.3,1,0.3h1.5v2h-1.9c-1.1,0-1.9-0.3-2.5-0.8
		c-0.6-0.5-0.9-1.3-0.9-2.5V6.6h-1.4v-2h1.4V1.8h2.4v2.9h2.8v2H137.1z"/>
	<path class="st0" d="M144.5,0.7v15.5h-2.4V0.7H144.5z"/>
	<path class="st0" d="M158.1,4.6l-7.1,17h-2.5l2.4-5.6l-4.6-11.4h2.7l3.3,8.8l3.4-8.8H158.1z"/>
	<path class="st0" d="M165.3,7.3c0.5-0.9,1.1-1.6,2-2.1c0.8-0.5,1.8-0.7,2.8-0.7c0.8,0,1.5,0.2,2.2,0.5c0.7,0.3,1.3,0.8,1.8,1.3V0.7
		h2.4v15.5h-2.4v-1.7c-0.4,0.6-0.9,1-1.6,1.4c-0.7,0.4-1.5,0.5-2.4,0.5c-1,0-1.9-0.3-2.8-0.8c-0.8-0.5-1.5-1.2-2-2.1
		c-0.5-0.9-0.7-2-0.7-3.1S164.8,8.2,165.3,7.3z M173.6,8.3c-0.3-0.6-0.8-1-1.3-1.3c-0.5-0.3-1.1-0.5-1.7-0.5c-0.6,0-1.2,0.2-1.7,0.5
		c-0.5,0.3-1,0.7-1.3,1.3c-0.3,0.6-0.5,1.3-0.5,2.1c0,0.8,0.2,1.5,0.5,2.1s0.8,1.1,1.3,1.4c0.5,0.3,1.1,0.5,1.7,0.5
		c0.6,0,1.2-0.2,1.7-0.5c0.5-0.3,1-0.8,1.3-1.4c0.3-0.6,0.5-1.3,0.5-2.1C174.1,9.6,173.9,8.9,173.6,8.3z"/>
	<path class="st0" d="M181.7,15.7c-0.9-0.5-1.6-1.2-2.1-2.1c-0.5-0.9-0.8-1.9-0.8-3.1c0-1.2,0.3-2.2,0.8-3.1
		c0.5-0.9,1.2-1.6,2.1-2.1c0.9-0.5,1.9-0.7,3-0.7c1.1,0,2.1,0.2,3,0.7c0.9,0.5,1.6,1.2,2.1,2.1c0.5,0.9,0.8,2,0.8,3.1
		c0,1.2-0.3,2.2-0.8,3.1c-0.5,0.9-1.3,1.6-2.2,2.1c-0.9,0.5-1.9,0.7-3,0.7C183.5,16.4,182.6,16.2,181.7,15.7z M186.4,13.9
		c0.5-0.3,1-0.7,1.3-1.3c0.3-0.6,0.5-1.3,0.5-2.1c0-0.8-0.2-1.6-0.5-2.1c-0.3-0.6-0.7-1-1.3-1.3c-0.5-0.3-1.1-0.4-1.7-0.4
		c-0.6,0-1.2,0.1-1.7,0.4c-0.5,0.3-0.9,0.7-1.2,1.3c-0.3,0.6-0.5,1.3-0.5,2.1c0,1.2,0.3,2.2,1,2.9c0.6,0.7,1.4,1,2.4,1
		C185.3,14.3,185.8,14.2,186.4,13.9z"/>
	<path class="st0" d="M208.9,4.6l-7.1,17h-2.5l2.4-5.6l-4.6-11.4h2.7l3.3,8.8l3.4-8.8H208.9z"/>
	<path class="st0" d="M212.8,15.7c-0.9-0.5-1.6-1.2-2.1-2.1c-0.5-0.9-0.8-1.9-0.8-3.1c0-1.2,0.3-2.2,0.8-3.1
		c0.5-0.9,1.2-1.6,2.1-2.1c0.9-0.5,1.9-0.7,3-0.7c1.1,0,2.1,0.2,3,0.7c0.9,0.5,1.6,1.2,2.1,2.1c0.5,0.9,0.8,2,0.8,3.1
		c0,1.2-0.3,2.2-0.8,3.1c-0.5,0.9-1.3,1.6-2.2,2.1c-0.9,0.5-1.9,0.7-3,0.7C214.6,16.4,213.6,16.2,212.8,15.7z M217.4,13.9
		c0.5-0.3,1-0.7,1.3-1.3c0.3-0.6,0.5-1.3,0.5-2.1c0-0.8-0.2-1.6-0.5-2.1c-0.3-0.6-0.7-1-1.3-1.3c-0.5-0.3-1.1-0.4-1.7-0.4
		c-0.6,0-1.2,0.1-1.7,0.4c-0.5,0.3-0.9,0.7-1.2,1.3c-0.3,0.6-0.5,1.3-0.5,2.1c0,1.2,0.3,2.2,1,2.9c0.6,0.7,1.4,1,2.4,1
		C216.3,14.3,216.9,14.2,217.4,13.9z"/>
	<path class="st0" d="M234.6,4.6v11.6h-2.4v-1.4c-0.4,0.5-0.9,0.9-1.5,1.1c-0.6,0.3-1.3,0.4-1.9,0.4c-0.9,0-1.7-0.2-2.4-0.6
		c-0.7-0.4-1.3-0.9-1.7-1.7c-0.4-0.7-0.6-1.6-0.6-2.7V4.6h2.4v6.4c0,1,0.3,1.8,0.8,2.4c0.5,0.6,1.2,0.8,2.1,0.8
		c0.9,0,1.6-0.3,2.1-0.8c0.5-0.6,0.8-1.3,0.8-2.4V4.6H234.6z"/>
	<path class="st0" d="M247,4.9c0.6-0.3,1.3-0.5,2.1-0.5v2.5h-0.6c-0.9,0-1.6,0.2-2.1,0.7c-0.5,0.5-0.7,1.3-0.7,2.5v6.1h-2.4V4.6h2.4
		v1.7C245.9,5.7,246.4,5.3,247,4.9z"/>
	<path class="st0" d="M261.8,11.3h-8.8c0.1,0.9,0.4,1.7,1,2.2c0.6,0.6,1.4,0.8,2.3,0.8c1.3,0,2.2-0.5,2.7-1.6h2.6
		c-0.4,1.1-1,1.9-1.9,2.6c-0.9,0.7-2.1,1-3.4,1c-1.1,0-2.1-0.2-3-0.7c-0.9-0.5-1.6-1.2-2.1-2.1c-0.5-0.9-0.7-1.9-0.7-3.1
		s0.2-2.2,0.7-3.1c0.5-0.9,1.2-1.6,2-2.1c0.9-0.5,1.9-0.7,3-0.7c1.1,0,2.1,0.2,2.9,0.7c0.9,0.5,1.5,1.1,2,2s0.7,1.9,0.7,3
		C261.9,10.6,261.8,11,261.8,11.3z M259.4,9.4c0-0.9-0.3-1.6-0.9-2.1c-0.6-0.5-1.4-0.8-2.3-0.8c-0.8,0-1.5,0.3-2.1,0.8
		s-0.9,1.2-1,2.1H259.4z"/>
	<path class="st0" d="M266.6,0.7v15.5h-2.4V0.7H266.6z"/>
	<path class="st0" d="M280.2,4.6l-7.1,17h-2.5l2.4-5.6l-4.6-11.4h2.7l3.3,8.8l3.4-8.8H280.2z"/>
	<path class="st0" d="M289.5,15.7c-0.9-0.5-1.6-1.2-2.1-2.1c-0.5-0.9-0.8-1.9-0.8-3.1c0-1.2,0.3-2.2,0.8-3.1
		c0.5-0.9,1.2-1.6,2.1-2.1c0.9-0.5,1.9-0.7,3-0.7c1.1,0,2.1,0.2,3,0.7c0.9,0.5,1.6,1.2,2.1,2.1c0.5,0.9,0.8,2,0.8,3.1
		c0,1.2-0.3,2.2-0.8,3.1c-0.5,0.9-1.3,1.6-2.2,2.1c-0.9,0.5-1.9,0.7-3,0.7C291.4,16.4,290.4,16.2,289.5,15.7z M294.2,13.9
		c0.5-0.3,1-0.7,1.3-1.3c0.3-0.6,0.5-1.3,0.5-2.1c0-0.8-0.2-1.6-0.5-2.1c-0.3-0.6-0.7-1-1.3-1.3c-0.5-0.3-1.1-0.4-1.7-0.4
		c-0.6,0-1.2,0.1-1.7,0.4c-0.5,0.3-0.9,0.7-1.2,1.3c-0.3,0.6-0.5,1.3-0.5,2.1c0,1.2,0.3,2.2,1,2.9c0.6,0.7,1.4,1,2.4,1
		C293.1,14.3,293.6,14.2,294.2,13.9z"/>
	<path class="st0" d="M309.1,5c0.7,0.4,1.3,0.9,1.7,1.7c0.4,0.7,0.6,1.6,0.6,2.7v6.8H309V9.7c0-1-0.3-1.8-0.8-2.4
		c-0.5-0.6-1.2-0.8-2.1-0.8c-0.9,0-1.6,0.3-2.1,0.8c-0.5,0.6-0.8,1.3-0.8,2.4v6.5h-2.4V4.6h2.4V6c0.4-0.5,0.9-0.8,1.5-1.1
		c0.6-0.3,1.3-0.4,1.9-0.4C307.6,4.5,308.4,4.6,309.1,5z"/>
	<path class="st0" d="M319.8,7.3c0.5-0.9,1.1-1.6,2-2.1c0.8-0.5,1.8-0.7,2.8-0.7c0.8,0,1.5,0.2,2.2,0.5c0.7,0.3,1.3,0.8,1.8,1.3V0.7
		h2.4v15.5h-2.4v-1.7c-0.4,0.6-0.9,1-1.6,1.4c-0.7,0.4-1.5,0.5-2.4,0.5c-1,0-1.9-0.3-2.8-0.8c-0.8-0.5-1.5-1.2-2-2.1
		c-0.5-0.9-0.7-2-0.7-3.1S319.4,8.2,319.8,7.3z M328.1,8.3c-0.3-0.6-0.8-1-1.3-1.3c-0.5-0.3-1.1-0.5-1.7-0.5c-0.6,0-1.2,0.2-1.7,0.5
		c-0.5,0.3-1,0.7-1.3,1.3c-0.3,0.6-0.5,1.3-0.5,2.1c0,0.8,0.2,1.5,0.5,2.1s0.8,1.1,1.3,1.4c0.5,0.3,1.1,0.5,1.7,0.5
		c0.6,0,1.2-0.2,1.7-0.5c0.5-0.3,1-0.8,1.3-1.4c0.3-0.6,0.5-1.3,0.5-2.1C328.6,9.6,328.4,8.9,328.1,8.3z"/>
	<path class="st0" d="M334.3,2.7c-0.3-0.3-0.4-0.7-0.4-1.1c0-0.4,0.1-0.8,0.4-1.1s0.7-0.4,1.1-0.4c0.4,0,0.8,0.1,1.1,0.4
		s0.4,0.7,0.4,1.1c0,0.4-0.1,0.8-0.4,1.1s-0.7,0.4-1.1,0.4C334.9,3.1,334.6,3,334.3,2.7z M336.5,4.6v11.6h-2.4V4.6H336.5z"/>
	<path class="st0" d="M346.7,5c0.7,0.4,1.2,0.8,1.6,1.3V4.6h2.4v11.8c0,1.1-0.2,2-0.7,2.8c-0.4,0.8-1.1,1.5-1.9,2
		c-0.8,0.5-1.9,0.7-3,0.7c-1.6,0-2.9-0.4-3.9-1.1c-1-0.7-1.6-1.7-1.8-3h2.4c0.2,0.6,0.6,1.1,1.2,1.5c0.6,0.4,1.3,0.6,2.1,0.6
		c1,0,1.7-0.3,2.3-0.9s0.9-1.4,0.9-2.6v-1.9c-0.4,0.5-1,1-1.6,1.4c-0.7,0.4-1.5,0.6-2.4,0.6c-1,0-1.9-0.3-2.8-0.8
		c-0.8-0.5-1.5-1.2-2-2.1c-0.5-0.9-0.7-2-0.7-3.1s0.2-2.2,0.7-3.1c0.5-0.9,1.1-1.6,2-2.1c0.8-0.5,1.8-0.7,2.8-0.7
		C345.3,4.5,346.1,4.6,346.7,5z M347.9,8.3c-0.3-0.6-0.8-1-1.3-1.3c-0.5-0.3-1.1-0.5-1.7-0.5c-0.6,0-1.2,0.2-1.7,0.5
		c-0.5,0.3-1,0.7-1.3,1.3c-0.3,0.6-0.5,1.3-0.5,2.1c0,0.8,0.2,1.5,0.5,2.1s0.8,1.1,1.3,1.4c0.5,0.3,1.1,0.5,1.7,0.5
		c0.6,0,1.2-0.2,1.7-0.5c0.5-0.3,1-0.8,1.3-1.4c0.3-0.6,0.5-1.3,0.5-2.1C348.4,9.6,348.2,8.9,347.9,8.3z"/>
	<path class="st0" d="M354.1,2.7c-0.3-0.3-0.4-0.7-0.4-1.1c0-0.4,0.1-0.8,0.4-1.1s0.7-0.4,1.1-0.4c0.4,0,0.8,0.1,1.1,0.4
		s0.4,0.7,0.4,1.1c0,0.4-0.1,0.8-0.4,1.1s-0.7,0.4-1.1,0.4C354.7,3.1,354.4,3,354.1,2.7z M356.3,4.6v11.6h-2.4V4.6H356.3z"/>
	<path class="st0" d="M362.3,6.6V13c0,0.4,0.1,0.7,0.3,0.9c0.2,0.2,0.5,0.3,1,0.3h1.5v2h-1.9c-1.1,0-1.9-0.3-2.5-0.8
		c-0.6-0.5-0.9-1.3-0.9-2.5V6.6h-1.4v-2h1.4V1.8h2.4v2.9h2.8v2H362.3z"/>
	<path class="st0" d="M367.2,7.3c0.5-0.9,1.1-1.6,2-2.1c0.8-0.5,1.8-0.7,2.8-0.7c0.9,0,1.7,0.2,2.4,0.5c0.7,0.4,1.2,0.8,1.6,1.3V4.6
		h2.4v11.6H376v-1.7c-0.4,0.5-1,1-1.7,1.4s-1.5,0.5-2.4,0.5c-1,0-1.9-0.3-2.7-0.8c-0.8-0.5-1.5-1.2-2-2.1c-0.5-0.9-0.7-2-0.7-3.1
		S366.7,8.2,367.2,7.3z M375.5,8.3c-0.3-0.6-0.8-1-1.3-1.3c-0.5-0.3-1.1-0.5-1.7-0.5c-0.6,0-1.2,0.2-1.7,0.5c-0.5,0.3-1,0.7-1.3,1.3
		c-0.3,0.6-0.5,1.3-0.5,2.1c0,0.8,0.2,1.5,0.5,2.1s0.8,1.1,1.3,1.4c0.5,0.3,1.1,0.5,1.7,0.5c0.6,0,1.2-0.2,1.7-0.5
		c0.5-0.3,1-0.8,1.3-1.4c0.3-0.6,0.5-1.3,0.5-2.1C376,9.6,375.8,8.9,375.5,8.3z"/>
	<path class="st0" d="M383.9,0.7v15.5h-2.4V0.7H383.9z"/>
	<path class="st0" d="M394.3,15.9c-0.7-0.3-1.3-0.8-1.7-1.3s-0.6-1.2-0.7-1.9h2.5c0,0.5,0.3,0.9,0.7,1.2c0.4,0.3,1,0.5,1.6,0.5
		c0.7,0,1.2-0.1,1.6-0.4c0.4-0.3,0.6-0.6,0.6-1c0-0.4-0.2-0.8-0.6-1s-1.1-0.4-2-0.7c-0.9-0.2-1.6-0.5-2.1-0.7c-0.5-0.2-1-0.6-1.4-1
		c-0.4-0.5-0.6-1.1-0.6-1.8c0-0.6,0.2-1.2,0.5-1.7s0.9-0.9,1.6-1.2c0.7-0.3,1.5-0.4,2.3-0.4c1.3,0,2.4,0.3,3.2,1
		c0.8,0.7,1.2,1.6,1.3,2.7h-2.4c0-0.5-0.3-0.9-0.6-1.2c-0.4-0.3-0.9-0.5-1.5-0.5c-0.6,0-1.1,0.1-1.4,0.4c-0.3,0.2-0.5,0.6-0.5,0.9
		c0,0.3,0.1,0.6,0.3,0.8s0.5,0.4,0.8,0.5c0.3,0.1,0.8,0.3,1.4,0.5c0.8,0.2,1.5,0.5,2.1,0.7s1,0.6,1.4,1c0.4,0.4,0.6,1,0.6,1.8
		c0,0.7-0.2,1.2-0.5,1.8c-0.4,0.5-0.9,0.9-1.5,1.2s-1.4,0.4-2.3,0.4C395.8,16.4,395,16.2,394.3,15.9z"/>
	<path class="st0" d="M405.8,15.7c-0.9-0.5-1.6-1.2-2.1-2.1c-0.5-0.9-0.8-1.9-0.8-3.1c0-1.2,0.3-2.2,0.8-3.1
		c0.5-0.9,1.2-1.6,2.1-2.1c0.9-0.5,1.9-0.7,3-0.7c1.1,0,2.1,0.2,3,0.7c0.9,0.5,1.6,1.2,2.1,2.1c0.5,0.9,0.8,2,0.8,3.1
		c0,1.2-0.3,2.2-0.8,3.1c-0.5,0.9-1.3,1.6-2.2,2.1c-0.9,0.5-1.9,0.7-3,0.7C407.7,16.4,406.7,16.2,405.8,15.7z M410.5,13.9
		c0.5-0.3,1-0.7,1.3-1.3c0.3-0.6,0.5-1.3,0.5-2.1c0-0.8-0.2-1.6-0.5-2.1c-0.3-0.6-0.7-1-1.3-1.3c-0.5-0.3-1.1-0.4-1.7-0.4
		c-0.6,0-1.2,0.1-1.7,0.4c-0.5,0.3-0.9,0.7-1.2,1.3c-0.3,0.6-0.5,1.3-0.5,2.1c0,1.2,0.3,2.2,1,2.9c0.6,0.7,1.4,1,2.4,1
		C409.4,14.3,410,14.2,410.5,13.9z"/>
	<path class="st0" d="M419.5,0.7v15.5h-2.4V0.7H419.5z"/>
	<path class="st0" d="M433.2,4.6v11.6h-2.4v-1.4c-0.4,0.5-0.9,0.9-1.5,1.1c-0.6,0.3-1.3,0.4-1.9,0.4c-0.9,0-1.7-0.2-2.4-0.6
		c-0.7-0.4-1.3-0.9-1.7-1.7c-0.4-0.7-0.6-1.6-0.6-2.7V4.6h2.4v6.4c0,1,0.3,1.8,0.8,2.4c0.5,0.6,1.2,0.8,2.1,0.8
		c0.9,0,1.6-0.3,2.1-0.8c0.5-0.6,0.8-1.3,0.8-2.4V4.6H433.2z"/>
	<path class="st0" d="M439.1,6.6V13c0,0.4,0.1,0.7,0.3,0.9c0.2,0.2,0.5,0.3,1,0.3h1.5v2H440c-1.1,0-1.9-0.3-2.5-0.8
		c-0.6-0.5-0.9-1.3-0.9-2.5V6.6h-1.4v-2h1.4V1.8h2.4v2.9h2.8v2H439.1z"/>
	<path class="st0" d="M444.3,2.7c-0.3-0.3-0.4-0.7-0.4-1.1c0-0.4,0.1-0.8,0.4-1.1s0.7-0.4,1.1-0.4c0.4,0,0.8,0.1,1.1,0.4
		s0.4,0.7,0.4,1.1c0,0.4-0.1,0.8-0.4,1.1s-0.7,0.4-1.1,0.4C444.9,3.1,444.6,3,444.3,2.7z M446.5,4.6v11.6h-2.4V4.6H446.5z"/>
	<path class="st0" d="M451.7,15.7c-0.9-0.5-1.6-1.2-2.1-2.1c-0.5-0.9-0.8-1.9-0.8-3.1c0-1.2,0.3-2.2,0.8-3.1
		c0.5-0.9,1.2-1.6,2.1-2.1c0.9-0.5,1.9-0.7,3-0.7c1.1,0,2.1,0.2,3,0.7c0.9,0.5,1.6,1.2,2.1,2.1c0.5,0.9,0.8,2,0.8,3.1
		c0,1.2-0.3,2.2-0.8,3.1c-0.5,0.9-1.3,1.6-2.2,2.1c-0.9,0.5-1.9,0.7-3,0.7C453.6,16.4,452.6,16.2,451.7,15.7z M456.4,13.9
		c0.5-0.3,1-0.7,1.3-1.3c0.3-0.6,0.5-1.3,0.5-2.1c0-0.8-0.2-1.6-0.5-2.1c-0.3-0.6-0.7-1-1.3-1.3c-0.5-0.3-1.1-0.4-1.7-0.4
		c-0.6,0-1.2,0.1-1.7,0.4c-0.5,0.3-0.9,0.7-1.2,1.3c-0.3,0.6-0.5,1.3-0.5,2.1c0,1.2,0.3,2.2,1,2.9c0.6,0.7,1.4,1,2.4,1
		C455.3,14.3,455.9,14.2,456.4,13.9z"/>
	<path class="st0" d="M471.4,5c0.7,0.4,1.3,0.9,1.7,1.7c0.4,0.7,0.6,1.6,0.6,2.7v6.8h-2.4V9.7c0-1-0.3-1.8-0.8-2.4
		c-0.5-0.6-1.2-0.8-2.1-0.8c-0.9,0-1.6,0.3-2.1,0.8c-0.5,0.6-0.8,1.3-0.8,2.4v6.5h-2.4V4.6h2.4V6c0.4-0.5,0.9-0.8,1.5-1.1
		c0.6-0.3,1.3-0.4,1.9-0.4C469.8,4.5,470.6,4.6,471.4,5z"/>
	<path class="st0" d="M478.5,15.9c-0.7-0.3-1.3-0.8-1.7-1.3s-0.6-1.2-0.7-1.9h2.5c0,0.5,0.3,0.9,0.7,1.2c0.4,0.3,1,0.5,1.6,0.5
		c0.7,0,1.2-0.1,1.6-0.4c0.4-0.3,0.6-0.6,0.6-1c0-0.4-0.2-0.8-0.6-1s-1.1-0.4-2-0.7c-0.9-0.2-1.6-0.5-2.1-0.7c-0.5-0.2-1-0.6-1.4-1
		c-0.4-0.5-0.6-1.1-0.6-1.8c0-0.6,0.2-1.2,0.5-1.7s0.9-0.9,1.6-1.2c0.7-0.3,1.5-0.4,2.3-0.4c1.3,0,2.4,0.3,3.2,1
		c0.8,0.7,1.2,1.6,1.3,2.7h-2.4c0-0.5-0.3-0.9-0.6-1.2c-0.4-0.3-0.9-0.5-1.5-0.5c-0.6,0-1.1,0.1-1.4,0.4c-0.3,0.2-0.5,0.6-0.5,0.9
		c0,0.3,0.1,0.6,0.3,0.8s0.5,0.4,0.8,0.5c0.3,0.1,0.8,0.3,1.4,0.5c0.8,0.2,1.5,0.5,2.1,0.7s1,0.6,1.4,1c0.4,0.4,0.6,1,0.6,1.8
		c0,0.7-0.2,1.2-0.5,1.8c-0.4,0.5-0.9,0.9-1.5,1.2s-1.4,0.4-2.3,0.4C480,16.4,479.2,16.2,478.5,15.9z"/>
	<path class="st0" d="M496.2,6.6V13c0,0.4,0.1,0.7,0.3,0.9c0.2,0.2,0.5,0.3,1,0.3h1.5v2h-1.9c-1.1,0-1.9-0.3-2.5-0.8
		c-0.6-0.5-0.9-1.3-0.9-2.5V6.6h-1.4v-2h1.4V1.8h2.4v2.9h2.8v2H496.2z"/>
	<path class="st0" d="M503.2,15.7c-0.9-0.5-1.6-1.2-2.1-2.1c-0.5-0.9-0.8-1.9-0.8-3.1c0-1.2,0.3-2.2,0.8-3.1
		c0.5-0.9,1.2-1.6,2.1-2.1c0.9-0.5,1.9-0.7,3-0.7c1.1,0,2.1,0.2,3,0.7c0.9,0.5,1.6,1.2,2.1,2.1c0.5,0.9,0.8,2,0.8,3.1
		c0,1.2-0.3,2.2-0.8,3.1c-0.5,0.9-1.3,1.6-2.2,2.1c-0.9,0.5-1.9,0.7-3,0.7C505.1,16.4,504.1,16.2,503.2,15.7z M507.9,13.9
		c0.5-0.3,1-0.7,1.3-1.3c0.3-0.6,0.5-1.3,0.5-2.1c0-0.8-0.2-1.6-0.5-2.1c-0.3-0.6-0.7-1-1.3-1.3c-0.5-0.3-1.1-0.4-1.7-0.4
		c-0.6,0-1.2,0.1-1.7,0.4c-0.5,0.3-0.9,0.7-1.2,1.3c-0.3,0.6-0.5,1.3-0.5,2.1c0,1.2,0.3,2.2,1,2.9c0.6,0.7,1.4,1,2.4,1
		C506.8,14.3,507.4,14.2,507.9,13.9z"/>
	<path class="st0" d="M524.9,6.6h-2.1v9.6h-2.4V6.6H519v-2h1.4V3.8c0-1.3,0.4-2.3,1.1-2.9c0.7-0.6,1.8-0.9,3.3-0.9v2
		c-0.7,0-1.2,0.1-1.5,0.4s-0.4,0.7-0.4,1.4v0.8h2.1V6.6z"/>
	<path class="st0" d="M527.1,2.7c-0.3-0.3-0.4-0.7-0.4-1.1c0-0.4,0.1-0.8,0.4-1.1s0.7-0.4,1.1-0.4c0.4,0,0.8,0.1,1.1,0.4
		s0.4,0.7,0.4,1.1c0,0.4-0.1,0.8-0.4,1.1s-0.7,0.4-1.1,0.4C527.8,3.1,527.4,3,527.1,2.7z M529.4,4.6v11.6H527V4.6H529.4z"/>
	<path class="st0" d="M540.8,5c0.7,0.4,1.3,0.9,1.7,1.7c0.4,0.7,0.6,1.6,0.6,2.7v6.8h-2.4V9.7c0-1-0.3-1.8-0.8-2.4
		c-0.5-0.6-1.2-0.8-2.1-0.8c-0.9,0-1.6,0.3-2.1,0.8c-0.5,0.6-0.8,1.3-0.8,2.4v6.5h-2.4V4.6h2.4V6c0.4-0.5,0.9-0.8,1.5-1.1
		c0.6-0.3,1.3-0.4,1.9-0.4C539.3,4.5,540.1,4.6,540.8,5z"/>
	<path class="st0" d="M546.1,7.3c0.5-0.9,1.1-1.6,2-2.1c0.8-0.5,1.8-0.7,2.8-0.7c0.8,0,1.5,0.2,2.2,0.5c0.7,0.3,1.3,0.8,1.8,1.3V0.7
		h2.4v15.5h-2.4v-1.7c-0.4,0.6-0.9,1-1.6,1.4c-0.7,0.4-1.5,0.5-2.4,0.5c-1,0-1.9-0.3-2.8-0.8c-0.8-0.5-1.5-1.2-2-2.1
		c-0.5-0.9-0.7-2-0.7-3.1S545.6,8.2,546.1,7.3z M554.4,8.3c-0.3-0.6-0.8-1-1.3-1.3c-0.5-0.3-1.1-0.5-1.7-0.5c-0.6,0-1.2,0.2-1.7,0.5
		c-0.5,0.3-1,0.7-1.3,1.3c-0.3,0.6-0.5,1.3-0.5,2.1c0,0.8,0.2,1.5,0.5,2.1s0.8,1.1,1.3,1.4c0.5,0.3,1.1,0.5,1.7,0.5
		c0.6,0,1.2-0.2,1.7-0.5c0.5-0.3,1-0.8,1.3-1.4c0.3-0.6,0.5-1.3,0.5-2.1C554.9,9.6,554.7,8.9,554.4,8.3z"/>
	<path class="st0" d="M0.8,32.5c0.5-0.9,1.1-1.6,2-2.1c0.8-0.5,1.8-0.7,2.8-0.7c0.9,0,1.7,0.2,2.4,0.5c0.7,0.4,1.2,0.8,1.6,1.3v-1.7
		H12v11.6H9.6v-1.7c-0.4,0.5-1,1-1.7,1.4s-1.5,0.5-2.4,0.5c-1,0-1.9-0.3-2.7-0.8c-0.8-0.5-1.5-1.2-2-2.1c-0.5-0.9-0.7-2-0.7-3.1
		S0.4,33.4,0.8,32.5z M9.1,33.5c-0.3-0.6-0.8-1-1.3-1.3c-0.5-0.3-1.1-0.5-1.7-0.5c-0.6,0-1.2,0.2-1.7,0.5c-0.5,0.3-1,0.7-1.3,1.3
		c-0.3,0.6-0.5,1.3-0.5,2.1c0,0.8,0.2,1.5,0.5,2.1s0.8,1.1,1.3,1.4c0.5,0.3,1.1,0.5,1.7,0.5c0.6,0,1.2-0.2,1.7-0.5
		c0.5-0.3,1-0.8,1.3-1.4c0.3-0.6,0.5-1.3,0.5-2.1C9.6,34.8,9.4,34.1,9.1,33.5z"/>
	<path class="st0" d="M15.1,32.5c0.5-0.9,1.1-1.6,2-2.1c0.8-0.5,1.8-0.7,2.8-0.7c0.8,0,1.5,0.2,2.2,0.5c0.7,0.3,1.3,0.8,1.8,1.3
		v-5.6h2.4v15.5h-2.4v-1.7c-0.4,0.6-0.9,1-1.6,1.4c-0.7,0.4-1.5,0.5-2.4,0.5c-1,0-1.9-0.3-2.8-0.8c-0.8-0.5-1.5-1.2-2-2.1
		c-0.5-0.9-0.7-2-0.7-3.1S14.6,33.4,15.1,32.5z M23.3,33.5c-0.3-0.6-0.8-1-1.3-1.3c-0.5-0.3-1.1-0.5-1.7-0.5c-0.6,0-1.2,0.2-1.7,0.5
		c-0.5,0.3-1,0.7-1.3,1.3c-0.3,0.6-0.5,1.3-0.5,2.1c0,0.8,0.2,1.5,0.5,2.1s0.8,1.1,1.3,1.4c0.5,0.3,1.1,0.5,1.7,0.5
		c0.6,0,1.2-0.2,1.7-0.5c0.5-0.3,1-0.8,1.3-1.4c0.3-0.6,0.5-1.3,0.5-2.1C23.8,34.8,23.7,34.1,23.3,33.5z"/>
	<path class="st0" d="M29.3,32.5c0.5-0.9,1.1-1.6,2-2.1c0.8-0.5,1.8-0.7,2.8-0.7c0.8,0,1.5,0.2,2.2,0.5c0.7,0.3,1.3,0.8,1.8,1.3
		v-5.6h2.4v15.5h-2.4v-1.7c-0.4,0.6-0.9,1-1.6,1.4c-0.7,0.4-1.5,0.5-2.4,0.5c-1,0-1.9-0.3-2.8-0.8c-0.8-0.5-1.5-1.2-2-2.1
		c-0.5-0.9-0.7-2-0.7-3.1S28.8,33.4,29.3,32.5z M37.6,33.5c-0.3-0.6-0.8-1-1.3-1.3c-0.5-0.3-1.1-0.5-1.7-0.5c-0.6,0-1.2,0.2-1.7,0.5
		c-0.5,0.3-1,0.7-1.3,1.3c-0.3,0.6-0.5,1.3-0.5,2.1c0,0.8,0.2,1.5,0.5,2.1s0.8,1.1,1.3,1.4c0.5,0.3,1.1,0.5,1.7,0.5
		c0.6,0,1.2-0.2,1.7-0.5c0.5-0.3,1-0.8,1.3-1.4c0.3-0.6,0.5-1.3,0.5-2.1C38.1,34.8,37.9,34.1,37.6,33.5z"/>
	<path class="st0" d="M43.8,27.9c-0.3-0.3-0.4-0.7-0.4-1.1c0-0.4,0.1-0.8,0.4-1.1s0.7-0.4,1.1-0.4c0.4,0,0.8,0.1,1.1,0.4
		s0.4,0.7,0.4,1.1c0,0.4-0.1,0.8-0.4,1.1s-0.7,0.4-1.1,0.4C44.4,28.3,44,28.2,43.8,27.9z M46,29.8v11.6h-2.4V29.8H46z"/>
	<path class="st0" d="M52,31.8v6.4c0,0.4,0.1,0.7,0.3,0.9c0.2,0.2,0.5,0.3,1,0.3h1.5v2h-1.9c-1.1,0-1.9-0.3-2.5-0.8
		c-0.6-0.5-0.9-1.3-0.9-2.5v-6.4h-1.4v-2h1.4V27H52v2.9h2.8v2H52z"/>
	<path class="st0" d="M57.1,27.9c-0.3-0.3-0.4-0.7-0.4-1.1c0-0.4,0.1-0.8,0.4-1.1s0.7-0.4,1.1-0.4c0.4,0,0.8,0.1,1.1,0.4
		s0.4,0.7,0.4,1.1c0,0.4-0.1,0.8-0.4,1.1s-0.7,0.4-1.1,0.4C57.8,28.3,57.4,28.2,57.1,27.9z M59.4,29.8v11.6H57V29.8H59.4z"/>
	<path class="st0" d="M64.6,40.9c-0.9-0.5-1.6-1.2-2.1-2.1c-0.5-0.9-0.8-1.9-0.8-3.1c0-1.2,0.3-2.2,0.8-3.1c0.5-0.9,1.2-1.6,2.1-2.1
		c0.9-0.5,1.9-0.7,3-0.7c1.1,0,2.1,0.2,3,0.7c0.9,0.5,1.6,1.2,2.1,2.1c0.5,0.9,0.8,2,0.8,3.1c0,1.2-0.3,2.2-0.8,3.1
		c-0.5,0.9-1.3,1.6-2.2,2.1c-0.9,0.5-1.9,0.7-3,0.7C66.5,41.6,65.5,41.4,64.6,40.9z M69.3,39.1c0.5-0.3,1-0.7,1.3-1.3
		c0.3-0.6,0.5-1.3,0.5-2.1c0-0.8-0.2-1.6-0.5-2.1c-0.3-0.6-0.7-1-1.3-1.3c-0.5-0.3-1.1-0.4-1.7-0.4c-0.6,0-1.2,0.1-1.7,0.4
		c-0.5,0.3-0.9,0.7-1.2,1.3c-0.3,0.6-0.5,1.3-0.5,2.1c0,1.2,0.3,2.2,1,2.9c0.6,0.7,1.4,1,2.4,1C68.2,39.5,68.7,39.4,69.3,39.1z"/>
	<path class="st0" d="M84.2,30.2c0.7,0.4,1.3,0.9,1.7,1.7c0.4,0.7,0.6,1.6,0.6,2.7v6.8h-2.4v-6.5c0-1-0.3-1.8-0.8-2.4
		c-0.5-0.6-1.2-0.8-2.1-0.8c-0.9,0-1.6,0.3-2.1,0.8c-0.5,0.6-0.8,1.3-0.8,2.4v6.5h-2.4V29.8h2.4v1.3c0.4-0.5,0.9-0.8,1.5-1.1
		c0.6-0.3,1.3-0.4,1.9-0.4C82.7,29.7,83.5,29.8,84.2,30.2z"/>
	<path class="st0" d="M89.5,32.5c0.5-0.9,1.1-1.6,2-2.1c0.8-0.5,1.8-0.7,2.8-0.7c0.9,0,1.7,0.2,2.4,0.5c0.7,0.4,1.2,0.8,1.6,1.3
		v-1.7h2.4v11.6h-2.4v-1.7c-0.4,0.5-1,1-1.7,1.4s-1.5,0.5-2.4,0.5c-1,0-1.9-0.3-2.7-0.8c-0.8-0.5-1.5-1.2-2-2.1
		c-0.5-0.9-0.7-2-0.7-3.1S89,33.4,89.5,32.5z M97.7,33.5c-0.3-0.6-0.8-1-1.3-1.3c-0.5-0.3-1.1-0.5-1.7-0.5c-0.6,0-1.2,0.2-1.7,0.5
		c-0.5,0.3-1,0.7-1.3,1.3c-0.3,0.6-0.5,1.3-0.5,2.1c0,0.8,0.2,1.5,0.5,2.1s0.8,1.1,1.3,1.4c0.5,0.3,1.1,0.5,1.7,0.5
		c0.6,0,1.2-0.2,1.7-0.5c0.5-0.3,1-0.8,1.3-1.4c0.3-0.6,0.5-1.3,0.5-2.1C98.2,34.8,98.1,34.1,97.7,33.5z"/>
	<path class="st0" d="M106.2,25.9v15.5h-2.4V25.9H106.2z"/>
	<path class="st0" d="M119.4,35.6l5.3,5.8h-3.2l-4.3-5v5h-2.4V25.9h2.4v9l4.2-5.1h3.3L119.4,35.6z"/>
	<path class="st0" d="M134.7,30.2c0.7,0.4,1.3,0.9,1.7,1.7c0.4,0.7,0.6,1.6,0.6,2.7v6.8h-2.4v-6.5c0-1-0.3-1.8-0.8-2.4
		c-0.5-0.6-1.2-0.8-2.1-0.8c-0.9,0-1.6,0.3-2.1,0.8c-0.5,0.6-0.8,1.3-0.8,2.4v6.5h-2.4V29.8h2.4v1.3c0.4-0.5,0.9-0.8,1.5-1.1
		c0.6-0.3,1.3-0.4,1.9-0.4C133.2,29.7,134,29.8,134.7,30.2z"/>
	<path class="st0" d="M142.1,40.9c-0.9-0.5-1.6-1.2-2.1-2.1c-0.5-0.9-0.8-1.9-0.8-3.1c0-1.2,0.3-2.2,0.8-3.1
		c0.5-0.9,1.2-1.6,2.1-2.1c0.9-0.5,1.9-0.7,3-0.7c1.1,0,2.1,0.2,3,0.7c0.9,0.5,1.6,1.2,2.1,2.1c0.5,0.9,0.8,2,0.8,3.1
		c0,1.2-0.3,2.2-0.8,3.1c-0.5,0.9-1.3,1.6-2.2,2.1c-0.9,0.5-1.9,0.7-3,0.7C144,41.6,143,41.4,142.1,40.9z M146.8,39.1
		c0.5-0.3,1-0.7,1.3-1.3c0.3-0.6,0.5-1.3,0.5-2.1c0-0.8-0.2-1.6-0.5-2.1c-0.3-0.6-0.7-1-1.3-1.3c-0.5-0.3-1.1-0.4-1.7-0.4
		c-0.6,0-1.2,0.1-1.7,0.4c-0.5,0.3-0.9,0.7-1.2,1.3c-0.3,0.6-0.5,1.3-0.5,2.1c0,1.2,0.3,2.2,1,2.9c0.6,0.7,1.4,1,2.4,1
		C145.7,39.5,146.3,39.4,146.8,39.1z"/>
	<path class="st0" d="M169,29.8l-3.6,11.6h-2.5l-2.3-8.5l-2.3,8.5h-2.5l-3.6-11.6h2.4l2.4,9.3l2.5-9.3h2.5l2.4,9.3l2.4-9.3H169z"/>
	<path class="st0" d="M173.2,25.9v15.5h-2.4V25.9H173.2z"/>
	<path class="st0" d="M186.8,36.5H178c0.1,0.9,0.4,1.7,1,2.2c0.6,0.6,1.4,0.8,2.3,0.8c1.3,0,2.2-0.5,2.7-1.6h2.6
		c-0.4,1.1-1,1.9-1.9,2.6c-0.9,0.7-2.1,1-3.4,1c-1.1,0-2.1-0.2-3-0.7c-0.9-0.5-1.6-1.2-2.1-2.1c-0.5-0.9-0.7-1.9-0.7-3.1
		s0.2-2.2,0.7-3.1c0.5-0.9,1.2-1.6,2-2.1c0.9-0.5,1.9-0.7,3-0.7c1.1,0,2.1,0.2,2.9,0.7c0.9,0.5,1.5,1.1,2,2s0.7,1.9,0.7,3
		C186.9,35.8,186.9,36.2,186.8,36.5z M184.4,34.6c0-0.9-0.3-1.6-0.9-2.1c-0.6-0.5-1.4-0.8-2.3-0.8c-0.8,0-1.5,0.3-2.1,0.8
		s-0.9,1.2-1,2.1H184.4z"/>
	<path class="st0" d="M189.2,32.5c0.5-0.9,1.1-1.6,2-2.1c0.8-0.5,1.8-0.7,2.8-0.7c0.8,0,1.5,0.2,2.2,0.5c0.7,0.3,1.3,0.8,1.8,1.3
		v-5.6h2.4v15.5H198v-1.7c-0.4,0.6-0.9,1-1.6,1.4c-0.7,0.4-1.5,0.5-2.4,0.5c-1,0-1.9-0.3-2.8-0.8c-0.8-0.5-1.5-1.2-2-2.1
		c-0.5-0.9-0.7-2-0.7-3.1S188.7,33.4,189.2,32.5z M197.5,33.5c-0.3-0.6-0.8-1-1.3-1.3c-0.5-0.3-1.1-0.5-1.7-0.5
		c-0.6,0-1.2,0.2-1.7,0.5c-0.5,0.3-1,0.7-1.3,1.3c-0.3,0.6-0.5,1.3-0.5,2.1c0,0.8,0.2,1.5,0.5,2.1s0.8,1.1,1.3,1.4
		c0.5,0.3,1.1,0.5,1.7,0.5c0.6,0,1.2-0.2,1.7-0.5c0.5-0.3,1-0.8,1.3-1.4c0.3-0.6,0.5-1.3,0.5-2.1C198,34.8,197.8,34.1,197.5,33.5z"
		/>
	<path class="st0" d="M210.6,30.2c0.7,0.4,1.2,0.8,1.6,1.3v-1.7h2.4v11.8c0,1.1-0.2,2-0.7,2.8c-0.4,0.8-1.1,1.5-1.9,2
		c-0.8,0.5-1.9,0.7-3,0.7c-1.6,0-2.9-0.4-3.9-1.1c-1-0.7-1.6-1.7-1.8-3h2.4c0.2,0.6,0.6,1.1,1.2,1.5c0.6,0.4,1.3,0.6,2.1,0.6
		c1,0,1.7-0.3,2.3-0.9s0.9-1.4,0.9-2.6v-1.9c-0.4,0.5-1,1-1.6,1.4c-0.7,0.4-1.5,0.6-2.4,0.6c-1,0-1.9-0.3-2.8-0.8
		c-0.8-0.5-1.5-1.2-2-2.1c-0.5-0.9-0.7-2-0.7-3.1s0.2-2.2,0.7-3.1c0.5-0.9,1.1-1.6,2-2.1c0.8-0.5,1.8-0.7,2.8-0.7
		C209.1,29.7,209.9,29.8,210.6,30.2z M211.7,33.5c-0.3-0.6-0.8-1-1.3-1.3c-0.5-0.3-1.1-0.5-1.7-0.5c-0.6,0-1.2,0.2-1.7,0.5
		c-0.5,0.3-1,0.7-1.3,1.3c-0.3,0.6-0.5,1.3-0.5,2.1c0,0.8,0.2,1.5,0.5,2.1s0.8,1.1,1.3,1.4c0.5,0.3,1.1,0.5,1.7,0.5
		c0.6,0,1.2-0.2,1.7-0.5c0.5-0.3,1-0.8,1.3-1.4c0.3-0.6,0.5-1.3,0.5-2.1C212.2,34.8,212,34.1,211.7,33.5z"/>
	<path class="st0" d="M228.3,36.5h-8.8c0.1,0.9,0.4,1.7,1,2.2c0.6,0.6,1.4,0.8,2.3,0.8c1.3,0,2.2-0.5,2.7-1.6h2.6
		c-0.4,1.1-1,1.9-1.9,2.6c-0.9,0.7-2.1,1-3.4,1c-1.1,0-2.1-0.2-3-0.7c-0.9-0.5-1.6-1.2-2.1-2.1c-0.5-0.9-0.7-1.9-0.7-3.1
		s0.2-2.2,0.7-3.1c0.5-0.9,1.2-1.6,2-2.1c0.9-0.5,1.9-0.7,3-0.7c1.1,0,2.1,0.2,2.9,0.7c0.9,0.5,1.5,1.1,2,2s0.7,1.9,0.7,3
		C228.4,35.8,228.3,36.2,228.3,36.5z M225.9,34.6c0-0.9-0.3-1.6-0.9-2.1c-0.6-0.5-1.4-0.8-2.3-0.8c-0.8,0-1.5,0.3-2.1,0.8
		s-0.9,1.2-1,2.1H225.9z"/>
	<path class="st0" d="M240,30.1c0.6-0.3,1.3-0.5,2.1-0.5v2.5h-0.6c-0.9,0-1.6,0.2-2.1,0.7c-0.5,0.5-0.7,1.3-0.7,2.5v6.1h-2.4V29.8
		h2.4v1.7C238.9,30.9,239.4,30.5,240,30.1z"/>
	<path class="st0" d="M254.8,36.5h-8.8c0.1,0.9,0.4,1.7,1,2.2c0.6,0.6,1.4,0.8,2.3,0.8c1.3,0,2.2-0.5,2.7-1.6h2.6
		c-0.4,1.1-1,1.9-1.9,2.6c-0.9,0.7-2.1,1-3.4,1c-1.1,0-2.1-0.2-3-0.7c-0.9-0.5-1.6-1.2-2.1-2.1c-0.5-0.9-0.7-1.9-0.7-3.1
		s0.2-2.2,0.7-3.1c0.5-0.9,1.2-1.6,2-2.1c0.9-0.5,1.9-0.7,3-0.7c1.1,0,2.1,0.2,2.9,0.7c0.9,0.5,1.5,1.1,2,2s0.7,1.9,0.7,3
		C254.8,35.8,254.8,36.2,254.8,36.5z M252.3,34.6c0-0.9-0.3-1.6-0.9-2.1c-0.6-0.5-1.4-0.8-2.3-0.8c-0.8,0-1.5,0.3-2.1,0.8
		s-0.9,1.2-1,2.1H252.3z"/>
	<path class="st0" d="M264.2,30.2c0.7,0.4,1.2,0.8,1.6,1.3v-1.7h2.4v11.8c0,1.1-0.2,2-0.7,2.8c-0.4,0.8-1.1,1.5-1.9,2
		c-0.8,0.5-1.9,0.7-3,0.7c-1.6,0-2.9-0.4-3.9-1.1c-1-0.7-1.6-1.7-1.8-3h2.4c0.2,0.6,0.6,1.1,1.2,1.5c0.6,0.4,1.3,0.6,2.1,0.6
		c1,0,1.7-0.3,2.3-0.9s0.9-1.4,0.9-2.6v-1.9c-0.4,0.5-1,1-1.6,1.4c-0.7,0.4-1.5,0.6-2.4,0.6c-1,0-1.9-0.3-2.8-0.8
		c-0.8-0.5-1.5-1.2-2-2.1c-0.5-0.9-0.7-2-0.7-3.1s0.2-2.2,0.7-3.1c0.5-0.9,1.1-1.6,2-2.1c0.8-0.5,1.8-0.7,2.8-0.7
		C262.8,29.7,263.5,29.8,264.2,30.2z M265.4,33.5c-0.3-0.6-0.8-1-1.3-1.3c-0.5-0.3-1.1-0.5-1.7-0.5c-0.6,0-1.2,0.2-1.7,0.5
		c-0.5,0.3-1,0.7-1.3,1.3c-0.3,0.6-0.5,1.3-0.5,2.1c0,0.8,0.2,1.5,0.5,2.1s0.8,1.1,1.3,1.4c0.5,0.3,1.1,0.5,1.7,0.5
		c0.6,0,1.2-0.2,1.7-0.5c0.5-0.3,1-0.8,1.3-1.4c0.3-0.6,0.5-1.3,0.5-2.1C265.9,34.8,265.7,34.1,265.4,33.5z"/>
	<path class="st0" d="M271.4,32.5c0.5-0.9,1.1-1.6,2-2.1c0.8-0.5,1.8-0.7,2.8-0.7c0.9,0,1.7,0.2,2.4,0.5c0.7,0.4,1.2,0.8,1.6,1.3
		v-1.7h2.4v11.6h-2.4v-1.7c-0.4,0.5-1,1-1.7,1.4s-1.5,0.5-2.4,0.5c-1,0-1.9-0.3-2.7-0.8c-0.8-0.5-1.5-1.2-2-2.1
		c-0.5-0.9-0.7-2-0.7-3.1S270.9,33.4,271.4,32.5z M279.6,33.5c-0.3-0.6-0.8-1-1.3-1.3c-0.5-0.3-1.1-0.5-1.7-0.5
		c-0.6,0-1.2,0.2-1.7,0.5c-0.5,0.3-1,0.7-1.3,1.3c-0.3,0.6-0.5,1.3-0.5,2.1c0,0.8,0.2,1.5,0.5,2.1s0.8,1.1,1.3,1.4
		c0.5,0.3,1.1,0.5,1.7,0.5c0.6,0,1.2-0.2,1.7-0.5c0.5-0.3,1-0.8,1.3-1.4c0.3-0.6,0.5-1.3,0.5-2.1C280.1,34.8,279.9,34.1,279.6,33.5z
		"/>
	<path class="st0" d="M289.5,30.1c0.6-0.3,1.3-0.5,2.1-0.5v2.5h-0.6c-0.9,0-1.6,0.2-2.1,0.7c-0.5,0.5-0.7,1.3-0.7,2.5v6.1h-2.4V29.8
		h2.4v1.7C288.4,30.9,288.9,30.5,289.5,30.1z"/>
	<path class="st0" d="M293.7,32.5c0.5-0.9,1.1-1.6,2-2.1c0.8-0.5,1.8-0.7,2.8-0.7c0.8,0,1.5,0.2,2.2,0.5c0.7,0.3,1.3,0.8,1.8,1.3
		v-5.6h2.4v15.5h-2.4v-1.7c-0.4,0.6-0.9,1-1.6,1.4c-0.7,0.4-1.5,0.5-2.4,0.5c-1,0-1.9-0.3-2.8-0.8c-0.8-0.5-1.5-1.2-2-2.1
		c-0.5-0.9-0.7-2-0.7-3.1S293.2,33.4,293.7,32.5z M301.9,33.5c-0.3-0.6-0.8-1-1.3-1.3c-0.5-0.3-1.1-0.5-1.7-0.5
		c-0.6,0-1.2,0.2-1.7,0.5c-0.5,0.3-1,0.7-1.3,1.3c-0.3,0.6-0.5,1.3-0.5,2.1c0,0.8,0.2,1.5,0.5,2.1s0.8,1.1,1.3,1.4
		c0.5,0.3,1.1,0.5,1.7,0.5c0.6,0,1.2-0.2,1.7-0.5c0.5-0.3,1-0.8,1.3-1.4c0.3-0.6,0.5-1.3,0.5-2.1C302.4,34.8,302.2,34.1,301.9,33.5z
		"/>
	<path class="st0" d="M308.1,27.9c-0.3-0.3-0.4-0.7-0.4-1.1c0-0.4,0.1-0.8,0.4-1.1s0.7-0.4,1.1-0.4c0.4,0,0.8,0.1,1.1,0.4
		s0.4,0.7,0.4,1.1c0,0.4-0.1,0.8-0.4,1.1s-0.7,0.4-1.1,0.4C308.8,28.3,308.4,28.2,308.1,27.9z M310.4,29.8v11.6H308V29.8H310.4z"/>
	<path class="st0" d="M321.8,30.2c0.7,0.4,1.3,0.9,1.7,1.7c0.4,0.7,0.6,1.6,0.6,2.7v6.8h-2.4v-6.5c0-1-0.3-1.8-0.8-2.4
		c-0.5-0.6-1.2-0.8-2.1-0.8c-0.9,0-1.6,0.3-2.1,0.8c-0.5,0.6-0.8,1.3-0.8,2.4v6.5h-2.4V29.8h2.4v1.3c0.4-0.5,0.9-0.8,1.5-1.1
		c0.6-0.3,1.3-0.4,1.9-0.4C320.3,29.7,321.1,29.8,321.8,30.2z"/>
	<path class="st0" d="M334.2,30.2c0.7,0.4,1.2,0.8,1.6,1.3v-1.7h2.4v11.8c0,1.1-0.2,2-0.7,2.8c-0.4,0.8-1.1,1.5-1.9,2
		c-0.8,0.5-1.9,0.7-3,0.7c-1.6,0-2.9-0.4-3.9-1.1c-1-0.7-1.6-1.7-1.8-3h2.4c0.2,0.6,0.6,1.1,1.2,1.5c0.6,0.4,1.3,0.6,2.1,0.6
		c1,0,1.7-0.3,2.3-0.9s0.9-1.4,0.9-2.6v-1.9c-0.4,0.5-1,1-1.6,1.4c-0.7,0.4-1.5,0.6-2.4,0.6c-1,0-1.9-0.3-2.8-0.8
		c-0.8-0.5-1.5-1.2-2-2.1c-0.5-0.9-0.7-2-0.7-3.1s0.2-2.2,0.7-3.1c0.5-0.9,1.1-1.6,2-2.1c0.8-0.5,1.8-0.7,2.8-0.7
		C332.7,29.7,333.5,29.8,334.2,30.2z M335.3,33.5c-0.3-0.6-0.8-1-1.3-1.3c-0.5-0.3-1.1-0.5-1.7-0.5c-0.6,0-1.2,0.2-1.7,0.5
		c-0.5,0.3-1,0.7-1.3,1.3c-0.3,0.6-0.5,1.3-0.5,2.1c0,0.8,0.2,1.5,0.5,2.1s0.8,1.1,1.3,1.4c0.5,0.3,1.1,0.5,1.7,0.5
		c0.6,0,1.2-0.2,1.7-0.5c0.5-0.3,1-0.8,1.3-1.4c0.3-0.6,0.5-1.3,0.5-2.1C335.8,34.8,335.7,34.1,335.3,33.5z"/>
	<path class="st0" d="M350.9,30.2c0.7-0.4,1.5-0.5,2.4-0.5c1,0,1.9,0.2,2.8,0.7c0.8,0.5,1.5,1.2,2,2.1c0.5,0.9,0.7,1.9,0.7,3.1
		s-0.2,2.2-0.7,3.1c-0.5,0.9-1.1,1.6-2,2.1c-0.8,0.5-1.8,0.8-2.8,0.8c-0.9,0-1.7-0.2-2.4-0.5c-0.7-0.3-1.2-0.8-1.6-1.3v1.7h-2.4
		V25.9h2.4v5.7C349.6,31,350.2,30.5,350.9,30.2z M355.8,33.5c-0.3-0.6-0.8-1-1.3-1.3c-0.5-0.3-1.1-0.5-1.7-0.5
		c-0.6,0-1.2,0.2-1.7,0.5c-0.5,0.3-1,0.8-1.3,1.3c-0.3,0.6-0.5,1.3-0.5,2.1c0,0.8,0.2,1.5,0.5,2.1c0.3,0.6,0.8,1,1.3,1.4
		c0.5,0.3,1.1,0.5,1.7,0.5c0.6,0,1.2-0.2,1.7-0.5c0.5-0.3,1-0.8,1.3-1.4c0.3-0.6,0.5-1.3,0.5-2.1C356.3,34.8,356.1,34.1,355.8,33.5z
		"/>
	<path class="st0" d="M371.6,36.5h-8.8c0.1,0.9,0.4,1.7,1,2.2c0.6,0.6,1.4,0.8,2.3,0.8c1.3,0,2.2-0.5,2.7-1.6h2.6
		c-0.4,1.1-1,1.9-1.9,2.6c-0.9,0.7-2.1,1-3.4,1c-1.1,0-2.1-0.2-3-0.7c-0.9-0.5-1.6-1.2-2.1-2.1c-0.5-0.9-0.7-1.9-0.7-3.1
		s0.2-2.2,0.7-3.1c0.5-0.9,1.2-1.6,2-2.1c0.9-0.5,1.9-0.7,3-0.7c1.1,0,2.1,0.2,2.9,0.7c0.9,0.5,1.5,1.1,2,2s0.7,1.9,0.7,3
		C371.7,35.8,371.7,36.2,371.6,36.5z M369.2,34.6c0-0.9-0.3-1.6-0.9-2.1c-0.6-0.5-1.4-0.8-2.3-0.8c-0.8,0-1.5,0.3-2.1,0.8
		s-0.9,1.2-1,2.1H369.2z"/>
	<path class="st0" d="M375.8,41.1c-0.7-0.3-1.3-0.8-1.7-1.3s-0.6-1.2-0.7-1.9h2.5c0,0.5,0.3,0.9,0.7,1.2c0.4,0.3,1,0.5,1.6,0.5
		c0.7,0,1.2-0.1,1.6-0.4c0.4-0.3,0.6-0.6,0.6-1c0-0.4-0.2-0.8-0.6-1s-1.1-0.4-2-0.7c-0.9-0.2-1.6-0.5-2.1-0.7c-0.5-0.2-1-0.6-1.4-1
		c-0.4-0.5-0.6-1.1-0.6-1.8c0-0.6,0.2-1.2,0.5-1.7s0.9-0.9,1.6-1.2c0.7-0.3,1.5-0.4,2.3-0.4c1.3,0,2.4,0.3,3.2,1
		c0.8,0.7,1.2,1.6,1.3,2.7h-2.4c0-0.5-0.3-0.9-0.6-1.2c-0.4-0.3-0.9-0.5-1.5-0.5c-0.6,0-1.1,0.1-1.4,0.4c-0.3,0.2-0.5,0.6-0.5,0.9
		c0,0.3,0.1,0.6,0.3,0.8s0.5,0.4,0.8,0.5c0.3,0.1,0.8,0.3,1.4,0.5c0.8,0.2,1.5,0.5,2.1,0.7s1,0.6,1.4,1c0.4,0.4,0.6,1,0.6,1.8
		c0,0.7-0.2,1.2-0.5,1.8c-0.4,0.5-0.9,0.9-1.5,1.2s-1.4,0.4-2.3,0.4C377.3,41.6,376.5,41.4,375.8,41.1z"/>
	<path class="st0" d="M388,31.8v6.4c0,0.4,0.1,0.7,0.3,0.9c0.2,0.2,0.5,0.3,1,0.3h1.5v2H389c-1.1,0-1.9-0.3-2.5-0.8
		c-0.6-0.5-0.9-1.3-0.9-2.5v-6.4h-1.4v-2h1.4V27h2.4v2.9h2.8v2H388z"/>
	<path class="st0" d="M402.6,30.2c0.7-0.4,1.5-0.5,2.4-0.5c1,0,1.9,0.2,2.8,0.7c0.8,0.5,1.5,1.2,2,2.1c0.5,0.9,0.7,1.9,0.7,3.1
		s-0.2,2.2-0.7,3.1c-0.5,0.9-1.1,1.6-2,2.1c-0.8,0.5-1.8,0.8-2.8,0.8c-0.9,0-1.7-0.2-2.4-0.5c-0.7-0.4-1.2-0.8-1.7-1.3v7.2h-2.4
		V29.8h2.4v1.7C401.3,31,401.9,30.6,402.6,30.2z M407.5,33.5c-0.3-0.6-0.8-1-1.3-1.3c-0.5-0.3-1.1-0.5-1.7-0.5
		c-0.6,0-1.2,0.2-1.7,0.5c-0.5,0.3-1,0.8-1.3,1.3c-0.3,0.6-0.5,1.3-0.5,2.1c0,0.8,0.2,1.5,0.5,2.1c0.3,0.6,0.8,1,1.3,1.4
		c0.5,0.3,1.1,0.5,1.7,0.5c0.6,0,1.2-0.2,1.7-0.5c0.5-0.3,1-0.8,1.3-1.4c0.3-0.6,0.5-1.3,0.5-2.1C408,34.8,407.8,34.1,407.5,33.5z"
		/>
	<path class="st0" d="M416.6,30.1c0.6-0.3,1.3-0.5,2.1-0.5v2.5H418c-0.9,0-1.6,0.2-2.1,0.7c-0.5,0.5-0.7,1.3-0.7,2.5v6.1h-2.4V29.8
		h2.4v1.7C415.5,30.9,416,30.5,416.6,30.1z"/>
	<path class="st0" d="M420.8,32.5c0.5-0.9,1.1-1.6,2-2.1c0.8-0.5,1.8-0.7,2.8-0.7c0.9,0,1.7,0.2,2.4,0.5c0.7,0.4,1.2,0.8,1.6,1.3
		v-1.7h2.4v11.6h-2.4v-1.7c-0.4,0.5-1,1-1.7,1.4s-1.5,0.5-2.4,0.5c-1,0-1.9-0.3-2.7-0.8c-0.8-0.5-1.5-1.2-2-2.1
		c-0.5-0.9-0.7-2-0.7-3.1S420.3,33.4,420.8,32.5z M429,33.5c-0.3-0.6-0.8-1-1.3-1.3c-0.5-0.3-1.1-0.5-1.7-0.5
		c-0.6,0-1.2,0.2-1.7,0.5c-0.5,0.3-1,0.7-1.3,1.3c-0.3,0.6-0.5,1.3-0.5,2.1c0,0.8,0.2,1.5,0.5,2.1s0.8,1.1,1.3,1.4
		c0.5,0.3,1.1,0.5,1.7,0.5c0.6,0,1.2-0.2,1.7-0.5c0.5-0.3,1-0.8,1.3-1.4c0.3-0.6,0.5-1.3,0.5-2.1C429.5,34.8,429.3,34.1,429,33.5z"
		/>
	<path class="st0" d="M435,32.5c0.5-0.9,1.2-1.6,2-2.1c0.9-0.5,1.8-0.7,2.9-0.7c1.4,0,2.6,0.3,3.5,1c0.9,0.7,1.5,1.6,1.9,2.8h-2.6
		c-0.2-0.6-0.5-1-1-1.3c-0.5-0.3-1-0.5-1.7-0.5c-1,0-1.8,0.3-2.3,1s-0.9,1.7-0.9,2.9s0.3,2.2,0.9,2.9c0.6,0.7,1.4,1,2.3,1
		c1.4,0,2.3-0.6,2.8-1.8h2.6c-0.3,1.2-1,2.1-1.9,2.8c-0.9,0.7-2.1,1-3.4,1c-1.1,0-2.1-0.2-2.9-0.7c-0.9-0.5-1.5-1.2-2-2.1
		c-0.5-0.9-0.7-1.9-0.7-3.1S434.5,33.4,435,32.5z"/>
	<path class="st0" d="M450.5,31.8v6.4c0,0.4,0.1,0.7,0.3,0.9c0.2,0.2,0.5,0.3,1,0.3h1.5v2h-1.9c-1.1,0-1.9-0.3-2.5-0.8
		c-0.6-0.5-0.9-1.3-0.9-2.5v-6.4h-1.4v-2h1.4V27h2.4v2.9h2.8v2H450.5z"/>
	<path class="st0" d="M455.6,27.9c-0.3-0.3-0.4-0.7-0.4-1.1c0-0.4,0.1-0.8,0.4-1.1s0.7-0.4,1.1-0.4c0.4,0,0.8,0.1,1.1,0.4
		s0.4,0.7,0.4,1.1c0,0.4-0.1,0.8-0.4,1.1s-0.7,0.4-1.1,0.4C456.3,28.3,455.9,28.2,455.6,27.9z M457.9,29.8v11.6h-2.4V29.8H457.9z"/>
	<path class="st0" d="M460.9,32.5c0.5-0.9,1.2-1.6,2-2.1c0.9-0.5,1.8-0.7,2.9-0.7c1.4,0,2.6,0.3,3.5,1c0.9,0.7,1.5,1.6,1.9,2.8h-2.6
		c-0.2-0.6-0.5-1-1-1.3c-0.5-0.3-1-0.5-1.7-0.5c-1,0-1.8,0.3-2.3,1s-0.9,1.7-0.9,2.9s0.3,2.2,0.9,2.9c0.6,0.7,1.4,1,2.3,1
		c1.4,0,2.3-0.6,2.8-1.8h2.6c-0.3,1.2-1,2.1-1.9,2.8c-0.9,0.7-2.1,1-3.4,1c-1.1,0-2.1-0.2-2.9-0.7c-0.9-0.5-1.5-1.2-2-2.1
		c-0.5-0.9-0.7-1.9-0.7-3.1S460.5,33.4,460.9,32.5z"/>
	<path class="st0" d="M484.1,36.5h-8.8c0.1,0.9,0.4,1.7,1,2.2c0.6,0.6,1.4,0.8,2.3,0.8c1.3,0,2.2-0.5,2.7-1.6h2.6
		c-0.4,1.1-1,1.9-1.9,2.6c-0.9,0.7-2.1,1-3.4,1c-1.1,0-2.1-0.2-3-0.7c-0.9-0.5-1.6-1.2-2.1-2.1c-0.5-0.9-0.7-1.9-0.7-3.1
		s0.2-2.2,0.7-3.1c0.5-0.9,1.2-1.6,2-2.1c0.9-0.5,1.9-0.7,3-0.7c1.1,0,2.1,0.2,2.9,0.7c0.9,0.5,1.5,1.1,2,2s0.7,1.9,0.7,3
		C484.2,35.8,484.2,36.2,484.1,36.5z M481.7,34.6c0-0.9-0.3-1.6-0.9-2.1c-0.6-0.5-1.4-0.8-2.3-0.8c-0.8,0-1.5,0.3-2.1,0.8
		s-0.9,1.2-1,2.1H481.7z"/>
	<path class="st0" d="M488.3,41.1c-0.7-0.3-1.3-0.8-1.7-1.3s-0.6-1.2-0.7-1.9h2.5c0,0.5,0.3,0.9,0.7,1.2c0.4,0.3,1,0.5,1.6,0.5
		c0.7,0,1.2-0.1,1.6-0.4c0.4-0.3,0.6-0.6,0.6-1c0-0.4-0.2-0.8-0.6-1s-1.1-0.4-2-0.7c-0.9-0.2-1.6-0.5-2.1-0.7c-0.5-0.2-1-0.6-1.4-1
		c-0.4-0.5-0.6-1.1-0.6-1.8c0-0.6,0.2-1.2,0.5-1.7s0.9-0.9,1.6-1.2c0.7-0.3,1.5-0.4,2.3-0.4c1.3,0,2.4,0.3,3.2,1
		c0.8,0.7,1.2,1.6,1.3,2.7h-2.4c0-0.5-0.3-0.9-0.6-1.2c-0.4-0.3-0.9-0.5-1.5-0.5c-0.6,0-1.1,0.1-1.4,0.4c-0.3,0.2-0.5,0.6-0.5,0.9
		c0,0.3,0.1,0.6,0.3,0.8s0.5,0.4,0.8,0.5c0.3,0.1,0.8,0.3,1.4,0.5c0.8,0.2,1.5,0.5,2.1,0.7s1,0.6,1.4,1c0.4,0.4,0.6,1,0.6,1.8
		c0,0.7-0.2,1.2-0.5,1.8c-0.4,0.5-0.9,0.9-1.5,1.2s-1.4,0.4-2.3,0.4C489.9,41.6,489.1,41.4,488.3,41.1z"/>
	<path class="st0" d="M505.2,27.8c0.9,0.8,1.3,1.9,1.3,3.2c0,1.4-0.4,2.5-1.3,3.2c-0.9,0.7-2.1,1.1-3.6,1.1l-0.1,1.7h-2.1l-0.1-3.3
		h0.7c1.4,0,2.4-0.2,3.1-0.5c0.7-0.4,1.1-1.1,1.1-2.1c0-0.7-0.2-1.3-0.6-1.7c-0.4-0.4-1-0.6-1.8-0.6c-0.8,0-1.4,0.2-1.8,0.6
		c-0.4,0.4-0.7,1-0.7,1.7h-2.2c0-0.8,0.2-1.6,0.6-2.2c0.4-0.7,0.9-1.2,1.6-1.5c0.7-0.4,1.5-0.5,2.5-0.5
		C503.1,26.6,504.3,27,505.2,27.8z M499.3,41.1c-0.3-0.3-0.4-0.7-0.4-1.1c0-0.4,0.1-0.8,0.4-1.1s0.7-0.4,1.1-0.4
		c0.4,0,0.8,0.1,1.1,0.4c0.3,0.3,0.4,0.7,0.4,1.1c0,0.4-0.1,0.8-0.4,1.1c-0.3,0.3-0.7,0.4-1.1,0.4C499.9,41.6,499.6,41.4,499.3,41.1
		z"/>
</g>
<g>
	<path class="st0" d="M42.4,99c-0.7-0.4-1.2-0.9-1.6-1.6c-0.4-0.7-0.6-1.5-0.6-2.4c0-0.9,0.2-1.7,0.6-2.4c0.4-0.7,0.9-1.2,1.6-1.6
		s1.4-0.6,2.2-0.6s1.6,0.2,2.2,0.6c0.7,0.4,1.2,0.9,1.6,1.6c0.4,0.7,0.6,1.5,0.6,2.4c0,0.9-0.2,1.7-0.6,2.4s-0.9,1.2-1.6,1.6
		s-1.4,0.6-2.2,0.6S43.1,99.4,42.4,99z M46.2,98.2c0.5-0.3,0.9-0.7,1.2-1.2c0.3-0.5,0.5-1.2,0.5-1.9c0-0.8-0.1-1.4-0.4-1.9
		c-0.3-0.5-0.7-0.9-1.2-1.2c-0.5-0.3-1-0.4-1.6-0.4s-1.1,0.1-1.6,0.4c-0.5,0.3-0.9,0.7-1.2,1.2c-0.3,0.5-0.4,1.2-0.4,1.9
		c0,0.8,0.1,1.4,0.4,1.9c0.3,0.5,0.7,0.9,1.2,1.2c0.5,0.3,1,0.4,1.6,0.4C45.2,98.6,45.8,98.5,46.2,98.2z"/>
	<path class="st0" d="M54.5,91.7h-2v7.8h-1.1v-7.8h-1.2v-0.9h1.2v-0.6c0-0.9,0.2-1.6,0.7-2.1c0.5-0.4,1.3-0.7,2.4-0.7v1
		c-0.7,0-1.2,0.1-1.5,0.4s-0.4,0.7-0.4,1.4v0.6h2V91.7z"/>
	<path class="st0" d="M62.9,91c0.5-0.3,1.1-0.4,1.9-0.4v1.2h-0.3c-0.8,0-1.5,0.2-2,0.7c-0.5,0.4-0.7,1.2-0.7,2.2v4.9h-1.1v-8.7h1.1
		v1.6C62,91.7,62.4,91.3,62.9,91z"/>
	<path class="st0" d="M74.3,95.5h-7.2c0,0.7,0.2,1.2,0.5,1.7c0.3,0.5,0.7,0.8,1.1,1.1c0.5,0.2,1,0.4,1.5,0.4c0.7,0,1.3-0.2,1.8-0.5
		s0.8-0.8,1-1.4h1.2c-0.2,0.9-0.7,1.5-1.4,2.1c-0.7,0.5-1.6,0.8-2.6,0.8c-0.8,0-1.6-0.2-2.2-0.6s-1.2-0.9-1.5-1.6
		C66.1,96.8,66,96,66,95.1c0-0.9,0.2-1.7,0.5-2.4c0.4-0.7,0.9-1.2,1.5-1.6c0.7-0.4,1.4-0.5,2.2-0.5s1.6,0.2,2.2,0.5
		c0.6,0.4,1.1,0.9,1.4,1.5s0.5,1.3,0.5,2C74.4,95,74.4,95.3,74.3,95.5z M72.8,92.9c-0.3-0.5-0.6-0.8-1.1-1s-1-0.4-1.5-0.4
		c-0.8,0-1.5,0.3-2.1,0.8s-0.9,1.3-1,2.3h6.1C73.2,94,73.1,93.4,72.8,92.9z"/>
	<path class="st0" d="M77,98.9c-0.6-0.5-1-1.1-1.1-1.9h1.2c0.1,0.5,0.3,0.9,0.7,1.2c0.4,0.3,1,0.5,1.7,0.5c0.6,0,1.1-0.1,1.4-0.4
		s0.5-0.6,0.5-1.1c0-0.3-0.1-0.5-0.3-0.7c-0.2-0.2-0.4-0.3-0.7-0.5c-0.3-0.1-0.7-0.2-1.2-0.4c-0.7-0.2-1.2-0.3-1.6-0.5
		s-0.7-0.4-1-0.8c-0.3-0.3-0.4-0.8-0.4-1.4c0-0.4,0.1-0.8,0.4-1.2c0.3-0.4,0.6-0.7,1.1-0.9c0.5-0.2,1-0.3,1.6-0.3
		c0.9,0,1.7,0.2,2.3,0.7s0.9,1.1,0.9,2h-1.1c0-0.5-0.2-0.9-0.6-1.2s-0.9-0.5-1.5-0.5c-0.6,0-1,0.1-1.4,0.4c-0.4,0.3-0.5,0.6-0.5,1
		c0,0.3,0.1,0.6,0.3,0.8s0.5,0.4,0.8,0.5c0.3,0.1,0.7,0.3,1.2,0.4c0.6,0.2,1.1,0.3,1.5,0.5c0.4,0.2,0.7,0.4,1,0.7s0.4,0.7,0.4,1.2
		c0,0.5-0.1,0.9-0.4,1.3s-0.6,0.7-1.1,0.9c-0.5,0.2-1,0.3-1.6,0.3C78.4,99.6,77.6,99.4,77,98.9z"/>
	<path class="st0" d="M87,91.2c0.6-0.4,1.3-0.6,2.2-0.6c0.8,0,1.5,0.2,2.1,0.6s1.1,0.9,1.5,1.6c0.4,0.7,0.5,1.5,0.5,2.4
		c0,0.9-0.2,1.7-0.5,2.4c-0.4,0.7-0.9,1.2-1.5,1.6s-1.3,0.6-2.1,0.6c-0.8,0-1.5-0.2-2.1-0.6c-0.6-0.4-1.1-0.9-1.3-1.5v6h-1.1V90.7
		h1.1v1.9C86,92.1,86.4,91.6,87,91.2z M91.8,93.2c-0.3-0.5-0.7-0.9-1.2-1.2s-1-0.4-1.7-0.4c-0.6,0-1.1,0.1-1.6,0.4s-0.9,0.7-1.2,1.2
		c-0.3,0.5-0.4,1.2-0.4,1.9c0,0.7,0.1,1.3,0.4,1.9c0.3,0.5,0.7,0.9,1.2,1.2c0.5,0.3,1,0.4,1.6,0.4c0.6,0,1.2-0.1,1.7-0.4
		c0.5-0.3,0.9-0.7,1.2-1.2c0.3-0.5,0.4-1.2,0.4-1.9C92.2,94.3,92,93.7,91.8,93.2z"/>
	<path class="st0" d="M97,99c-0.7-0.4-1.2-0.9-1.6-1.6c-0.4-0.7-0.6-1.5-0.6-2.4c0-0.9,0.2-1.7,0.6-2.4c0.4-0.7,0.9-1.2,1.6-1.6
		s1.4-0.6,2.2-0.6s1.6,0.2,2.2,0.6c0.7,0.4,1.2,0.9,1.6,1.6c0.4,0.7,0.6,1.5,0.6,2.4c0,0.9-0.2,1.7-0.6,2.4s-0.9,1.2-1.6,1.6
		s-1.4,0.6-2.2,0.6S97.6,99.4,97,99z M100.8,98.2c0.5-0.3,0.9-0.7,1.2-1.2c0.3-0.5,0.5-1.2,0.5-1.9c0-0.8-0.1-1.4-0.4-1.9
		c-0.3-0.5-0.7-0.9-1.2-1.2c-0.5-0.3-1-0.4-1.6-0.4s-1.1,0.1-1.6,0.4c-0.5,0.3-0.9,0.7-1.2,1.2c-0.3,0.5-0.4,1.2-0.4,1.9
		c0,0.8,0.1,1.4,0.4,1.9c0.3,0.5,0.7,0.9,1.2,1.2c0.5,0.3,1,0.4,1.6,0.4C99.8,98.6,100.3,98.5,100.8,98.2z"/>
	<path class="st0" d="M112.3,91.5c0.7,0.6,1,1.6,1,2.8v5.1h-1.1v-5c0-0.9-0.2-1.7-0.7-2.2c-0.5-0.5-1.1-0.8-1.9-0.8
		c-0.8,0-1.5,0.3-2,0.8c-0.5,0.5-0.8,1.3-0.8,2.4v4.8h-1.1v-8.7h1.1v1.5c0.3-0.5,0.7-0.9,1.2-1.2s1.1-0.4,1.8-0.4
		C110.8,90.6,111.6,90.9,112.3,91.5z"/>
	<path class="st0" d="M115.8,92.7c0.4-0.7,0.9-1.2,1.5-1.6s1.4-0.6,2.2-0.6c0.8,0,1.5,0.2,2.1,0.6c0.6,0.4,1.1,0.9,1.4,1.5v-5h1.1
		v11.8h-1.1v-2c-0.3,0.6-0.7,1.1-1.3,1.5c-0.6,0.4-1.3,0.6-2.1,0.6c-0.8,0-1.5-0.2-2.2-0.6s-1.1-0.9-1.5-1.6s-0.5-1.5-0.5-2.4
		C115.3,94.2,115.5,93.4,115.8,92.7z M122.5,93.2c-0.3-0.5-0.7-0.9-1.2-1.2s-1-0.4-1.6-0.4c-0.6,0-1.2,0.1-1.7,0.4
		c-0.5,0.3-0.9,0.7-1.2,1.2c-0.3,0.5-0.4,1.2-0.4,1.9c0,0.7,0.1,1.3,0.4,1.9c0.3,0.5,0.7,0.9,1.2,1.2c0.5,0.3,1,0.4,1.7,0.4
		c0.6,0,1.1-0.1,1.6-0.4c0.5-0.3,0.9-0.7,1.2-1.2s0.4-1.2,0.4-1.9C122.9,94.4,122.8,93.8,122.5,93.2z"/>
	<path class="st0" d="M134.5,95.5h-7.2c0,0.7,0.2,1.2,0.5,1.7c0.3,0.5,0.7,0.8,1.1,1.1c0.5,0.2,1,0.4,1.5,0.4c0.7,0,1.3-0.2,1.8-0.5
		s0.8-0.8,1-1.4h1.2c-0.2,0.9-0.7,1.5-1.4,2.1c-0.7,0.5-1.6,0.8-2.6,0.8c-0.8,0-1.6-0.2-2.2-0.6s-1.2-0.9-1.5-1.6
		c-0.4-0.7-0.6-1.5-0.6-2.4c0-0.9,0.2-1.7,0.5-2.4c0.4-0.7,0.9-1.2,1.5-1.6c0.7-0.4,1.4-0.5,2.2-0.5s1.6,0.2,2.2,0.5
		c0.6,0.4,1.1,0.9,1.4,1.5s0.5,1.3,0.5,2C134.5,95,134.5,95.3,134.5,95.5z M133,92.9c-0.3-0.5-0.6-0.8-1.1-1s-1-0.4-1.5-0.4
		c-0.8,0-1.5,0.3-2.1,0.8s-0.9,1.3-1,2.3h6.1C133.4,94,133.2,93.4,133,92.9z"/>
	<path class="st0" d="M143.2,91.5c0.7,0.6,1,1.6,1,2.8v5.1h-1.1v-5c0-0.9-0.2-1.7-0.7-2.2c-0.5-0.5-1.1-0.8-1.9-0.8
		c-0.8,0-1.5,0.3-2,0.8c-0.5,0.5-0.8,1.3-0.8,2.4v4.8h-1.1v-8.7h1.1v1.5c0.3-0.5,0.7-0.9,1.2-1.2s1.1-0.4,1.8-0.4
		C141.7,90.6,142.5,90.9,143.2,91.5z"/>
	<path class="st0" d="M148.1,91.7v5.4c0,0.5,0.1,0.9,0.3,1.1c0.2,0.2,0.6,0.3,1.1,0.3h1v1h-1.2c-0.8,0-1.4-0.2-1.8-0.6
		s-0.6-1-0.6-1.8v-5.4h-1.2v-0.9h1.2v-2.2h1.1v2.2h2.4v0.9H148.1z"/>
	<path class="st0" d="M152.9,98.9c-0.6-0.5-1-1.1-1.1-1.9h1.2c0.1,0.5,0.3,0.9,0.7,1.2c0.4,0.3,1,0.5,1.7,0.5c0.6,0,1.1-0.1,1.4-0.4
		s0.5-0.6,0.5-1.1c0-0.3-0.1-0.5-0.3-0.7c-0.2-0.2-0.4-0.3-0.7-0.5c-0.3-0.1-0.7-0.2-1.2-0.4c-0.7-0.2-1.2-0.3-1.6-0.5
		s-0.7-0.4-1-0.8c-0.3-0.3-0.4-0.8-0.4-1.4c0-0.4,0.1-0.8,0.4-1.2c0.3-0.4,0.6-0.7,1.1-0.9c0.5-0.2,1-0.3,1.6-0.3
		c0.9,0,1.7,0.2,2.3,0.7s0.9,1.1,0.9,2h-1.1c0-0.5-0.2-0.9-0.6-1.2s-0.9-0.5-1.5-0.5c-0.6,0-1,0.1-1.4,0.4c-0.4,0.3-0.5,0.6-0.5,1
		c0,0.3,0.1,0.6,0.3,0.8s0.5,0.4,0.8,0.5c0.3,0.1,0.7,0.3,1.2,0.4c0.6,0.2,1.1,0.3,1.5,0.5c0.4,0.2,0.7,0.4,1,0.7s0.4,0.7,0.4,1.2
		c0,0.5-0.1,0.9-0.4,1.3s-0.6,0.7-1.1,0.9c-0.5,0.2-1,0.3-1.6,0.3C154.4,99.6,153.5,99.4,152.9,98.9z"/>
	<path class="st0" d="M165.5,98.9c-0.6-0.5-1-1.1-1.1-1.9h1.2c0.1,0.5,0.3,0.9,0.7,1.2c0.4,0.3,1,0.5,1.7,0.5c0.6,0,1.1-0.1,1.4-0.4
		s0.5-0.6,0.5-1.1c0-0.3-0.1-0.5-0.3-0.7c-0.2-0.2-0.4-0.3-0.7-0.5c-0.3-0.1-0.7-0.2-1.2-0.4c-0.7-0.2-1.2-0.3-1.6-0.5
		s-0.7-0.4-1-0.8c-0.3-0.3-0.4-0.8-0.4-1.4c0-0.4,0.1-0.8,0.4-1.2c0.3-0.4,0.6-0.7,1.1-0.9c0.5-0.2,1-0.3,1.6-0.3
		c0.9,0,1.7,0.2,2.3,0.7s0.9,1.1,0.9,2h-1.1c0-0.5-0.2-0.9-0.6-1.2s-0.9-0.5-1.5-0.5c-0.6,0-1,0.1-1.4,0.4c-0.4,0.3-0.5,0.6-0.5,1
		c0,0.3,0.1,0.6,0.3,0.8s0.5,0.4,0.8,0.5c0.3,0.1,0.7,0.3,1.2,0.4c0.6,0.2,1.1,0.3,1.5,0.5c0.4,0.2,0.7,0.4,1,0.7s0.4,0.7,0.4,1.2
		c0,0.5-0.1,0.9-0.4,1.3s-0.6,0.7-1.1,0.9c-0.5,0.2-1,0.3-1.6,0.3C166.9,99.6,166.1,99.4,165.5,98.9z"/>
	<path class="st0" d="M173.1,92.7c0.4-0.7,0.9-1.2,1.5-1.6s1.4-0.6,2.2-0.6c0.8,0,1.5,0.2,2.2,0.6c0.6,0.4,1,0.9,1.3,1.5v-1.9h1.1
		v8.7h-1.1v-1.9c-0.3,0.6-0.7,1.1-1.3,1.5c-0.6,0.4-1.3,0.6-2.2,0.6c-0.8,0-1.5-0.2-2.1-0.6s-1.1-0.9-1.5-1.6s-0.5-1.5-0.5-2.4
		C172.5,94.2,172.7,93.4,173.1,92.7z M179.7,93.2c-0.3-0.5-0.7-0.9-1.2-1.2s-1-0.4-1.6-0.4c-0.6,0-1.2,0.1-1.7,0.4
		c-0.5,0.3-0.9,0.7-1.2,1.2c-0.3,0.5-0.4,1.2-0.4,1.9c0,0.7,0.1,1.3,0.4,1.9c0.3,0.5,0.7,0.9,1.2,1.2c0.5,0.3,1,0.4,1.7,0.4
		c0.6,0,1.1-0.1,1.6-0.4c0.5-0.3,0.9-0.7,1.2-1.2s0.4-1.2,0.4-1.9C180.2,94.4,180,93.8,179.7,93.2z"/>
	<path class="st0" d="M183.8,88.8c-0.2-0.2-0.2-0.4-0.2-0.6s0.1-0.4,0.2-0.6c0.2-0.2,0.4-0.2,0.6-0.2c0.2,0,0.4,0.1,0.6,0.2
		c0.2,0.2,0.2,0.3,0.2,0.6s-0.1,0.4-0.2,0.6s-0.4,0.2-0.6,0.2C184.2,89.1,184,89,183.8,88.8z M185,90.7v8.7h-1.1v-8.7H185z"/>
	<path class="st0" d="M187.6,92.7c0.4-0.7,0.9-1.2,1.5-1.6s1.4-0.6,2.2-0.6c0.8,0,1.5,0.2,2.1,0.6c0.6,0.4,1.1,0.9,1.4,1.5v-5h1.1
		v11.8h-1.1v-2c-0.3,0.6-0.7,1.1-1.3,1.5c-0.6,0.4-1.3,0.6-2.1,0.6c-0.8,0-1.5-0.2-2.2-0.6s-1.1-0.9-1.5-1.6S187,96,187,95.1
		C187,94.2,187.2,93.4,187.6,92.7z M194.2,93.2c-0.3-0.5-0.7-0.9-1.2-1.2s-1-0.4-1.6-0.4c-0.6,0-1.2,0.1-1.7,0.4
		c-0.5,0.3-0.9,0.7-1.2,1.2c-0.3,0.5-0.4,1.2-0.4,1.9c0,0.7,0.1,1.3,0.4,1.9c0.3,0.5,0.7,0.9,1.2,1.2c0.5,0.3,1,0.4,1.7,0.4
		c0.6,0,1.1-0.1,1.6-0.4c0.5-0.3,0.9-0.7,1.2-1.2s0.4-1.2,0.4-1.9C194.6,94.4,194.5,93.8,194.2,93.2z"/>
	<path class="st0" d="M204.2,91.7v5.4c0,0.5,0.1,0.9,0.3,1.1c0.2,0.2,0.6,0.3,1.1,0.3h1v1h-1.2c-0.8,0-1.4-0.2-1.8-0.6
		s-0.6-1-0.6-1.8v-5.4h-1.2v-0.9h1.2v-2.2h1.1v2.2h2.4v0.9H204.2z"/>
	<path class="st0" d="M214.3,91c0.5,0.3,0.9,0.7,1.2,1.3c0.3,0.6,0.5,1.3,0.5,2.1v5.1h-1.1v-5c0-0.9-0.2-1.7-0.7-2.2
		c-0.5-0.5-1.1-0.8-1.9-0.8c-0.8,0-1.5,0.3-2,0.8c-0.5,0.5-0.8,1.3-0.8,2.4v4.8h-1.1V87.6h1.1v4.6c0.3-0.5,0.7-0.9,1.2-1.2
		c0.5-0.3,1.1-0.4,1.8-0.4C213.2,90.6,213.8,90.7,214.3,91z"/>
	<path class="st0" d="M218.6,92.7c0.4-0.7,0.9-1.2,1.5-1.6s1.4-0.6,2.2-0.6c0.8,0,1.5,0.2,2.2,0.6c0.6,0.4,1,0.9,1.3,1.5v-1.9h1.1
		v8.7h-1.1v-1.9c-0.3,0.6-0.7,1.1-1.3,1.5c-0.6,0.4-1.3,0.6-2.2,0.6c-0.8,0-1.5-0.2-2.1-0.6s-1.1-0.9-1.5-1.6S218,96,218,95.1
		C218,94.2,218.2,93.4,218.6,92.7z M225.2,93.2c-0.3-0.5-0.7-0.9-1.2-1.2s-1-0.4-1.6-0.4c-0.6,0-1.2,0.1-1.7,0.4
		c-0.5,0.3-0.9,0.7-1.2,1.2c-0.3,0.5-0.4,1.2-0.4,1.9c0,0.7,0.1,1.3,0.4,1.9c0.3,0.5,0.7,0.9,1.2,1.2c0.5,0.3,1,0.4,1.7,0.4
		c0.6,0,1.1-0.1,1.6-0.4c0.5-0.3,0.9-0.7,1.2-1.2s0.4-1.2,0.4-1.9C225.7,94.4,225.5,93.8,225.2,93.2z"/>
	<path class="st0" d="M230.8,91.7v5.4c0,0.5,0.1,0.9,0.3,1.1c0.2,0.2,0.6,0.3,1.1,0.3h1v1H232c-0.8,0-1.4-0.2-1.8-0.6
		s-0.6-1-0.6-1.8v-5.4h-1.2v-0.9h1.2v-2.2h1.1v2.2h2.4v0.9H230.8z"/>
	<path class="st0" d="M240.9,91.7v5.4c0,0.5,0.1,0.9,0.3,1.1c0.2,0.2,0.6,0.3,1.1,0.3h1v1h-1.2c-0.8,0-1.4-0.2-1.8-0.6
		s-0.6-1-0.6-1.8v-5.4h-1.2v-0.9h1.2v-2.2h1.1v2.2h2.4v0.9H240.9z"/>
	<path class="st0" d="M251,91c0.5,0.3,0.9,0.7,1.2,1.3c0.3,0.6,0.5,1.3,0.5,2.1v5.1h-1.1v-5c0-0.9-0.2-1.7-0.7-2.2
		c-0.5-0.5-1.1-0.8-1.9-0.8c-0.8,0-1.5,0.3-2,0.8c-0.5,0.5-0.8,1.3-0.8,2.4v4.8h-1.1V87.6h1.1v4.6c0.3-0.5,0.7-0.9,1.2-1.2
		c0.5-0.3,1.1-0.4,1.8-0.4C249.9,90.6,250.5,90.7,251,91z"/>
	<path class="st0" d="M263.1,95.5h-7.2c0,0.7,0.2,1.2,0.5,1.7c0.3,0.5,0.7,0.8,1.1,1.1c0.5,0.2,1,0.4,1.5,0.4c0.7,0,1.3-0.2,1.8-0.5
		s0.8-0.8,1-1.4h1.2c-0.2,0.9-0.7,1.5-1.4,2.1c-0.7,0.5-1.6,0.8-2.6,0.8c-0.8,0-1.6-0.2-2.2-0.6s-1.2-0.9-1.5-1.6
		c-0.4-0.7-0.6-1.5-0.6-2.4c0-0.9,0.2-1.7,0.5-2.4c0.4-0.7,0.9-1.2,1.5-1.6c0.7-0.4,1.4-0.5,2.2-0.5s1.6,0.2,2.2,0.5
		c0.6,0.4,1.1,0.9,1.4,1.5s0.5,1.3,0.5,2C263.1,95,263.1,95.3,263.1,95.5z M261.6,92.9c-0.3-0.5-0.6-0.8-1.1-1s-1-0.4-1.5-0.4
		c-0.8,0-1.5,0.3-2.1,0.8s-0.9,1.3-1,2.3h6.1C262,94,261.9,93.4,261.6,92.9z"/>
	<path class="st0" d="M272.4,90.7l-5.2,12.8H266l1.7-4.2l-3.6-8.7h1.2l3,7.5l2.9-7.5H272.4z"/>
	<path class="st0" d="M286.7,99.5h-1.1l-6.2-9.4v9.4h-1.1V88.3h1.1l6.2,9.4v-9.4h1.1V99.5z"/>
	<path class="st0" d="M290.4,89.2v4.2h4.2v0.9h-4.2v4.2h4.7v0.9h-5.8V88.3h5.8v0.9H290.4z"/>
	<path class="st0" d="M306.2,88.3l-4.2,11.2h-1.3l-4.2-11.2h1.2l3.7,10l3.7-10H306.2z"/>
	<path class="st0" d="M309,89.2v4.2h4.2v0.9H309v4.2h4.7v0.9h-5.8V88.3h5.8v0.9H309z"/>
	<path class="st0" d="M321.9,99.5l-2.8-4.7H317v4.7h-1.1V88.3h3.4c1.2,0,2.2,0.3,2.8,0.9c0.6,0.6,1,1.4,1,2.4c0,0.8-0.2,1.5-0.7,2.1
		c-0.5,0.6-1.1,0.9-2.1,1.1l2.9,4.8H321.9z M317,93.9h2.3c0.9,0,1.5-0.2,2-0.6s0.7-1,0.7-1.7c0-0.7-0.2-1.3-0.6-1.7
		c-0.4-0.4-1.1-0.6-2-0.6H317V93.9z"/>
	<path class="st0" d="M337.2,90.7v8.7h-1.1v-1.5c-0.3,0.5-0.7,1-1.2,1.2s-1.1,0.4-1.8,0.4c-1,0-1.9-0.3-2.6-1c-0.7-0.6-1-1.6-1-2.8
		v-5.1h1.1v5c0,0.9,0.2,1.7,0.7,2.2c0.5,0.5,1.1,0.8,1.9,0.8c0.8,0,1.5-0.3,2-0.8c0.5-0.5,0.8-1.3,0.8-2.4v-4.8H337.2z"/>
	<path class="st0" d="M340.4,98.9c-0.6-0.5-1-1.1-1.1-1.9h1.2c0.1,0.5,0.3,0.9,0.7,1.2c0.4,0.3,1,0.5,1.7,0.5c0.6,0,1.1-0.1,1.4-0.4
		s0.5-0.6,0.5-1.1c0-0.3-0.1-0.5-0.3-0.7c-0.2-0.2-0.4-0.3-0.7-0.5c-0.3-0.1-0.7-0.2-1.2-0.4c-0.7-0.2-1.2-0.3-1.6-0.5
		s-0.7-0.4-1-0.8c-0.3-0.3-0.4-0.8-0.4-1.4c0-0.4,0.1-0.8,0.4-1.2c0.3-0.4,0.6-0.7,1.1-0.9c0.5-0.2,1-0.3,1.6-0.3
		c0.9,0,1.7,0.2,2.3,0.7s0.9,1.1,0.9,2h-1.1c0-0.5-0.2-0.9-0.6-1.2s-0.9-0.5-1.5-0.5c-0.6,0-1,0.1-1.4,0.4c-0.4,0.3-0.5,0.6-0.5,1
		c0,0.3,0.1,0.6,0.3,0.8s0.5,0.4,0.8,0.5c0.3,0.1,0.7,0.3,1.2,0.4c0.6,0.2,1.1,0.3,1.5,0.5c0.4,0.2,0.7,0.4,1,0.7s0.4,0.7,0.4,1.2
		c0,0.5-0.1,0.9-0.4,1.3s-0.6,0.7-1.1,0.9c-0.5,0.2-1,0.3-1.6,0.3C341.8,99.6,341,99.4,340.4,98.9z"/>
	<path class="st0" d="M355.8,95.5h-7.2c0,0.7,0.2,1.2,0.5,1.7c0.3,0.5,0.7,0.8,1.1,1.1c0.5,0.2,1,0.4,1.5,0.4c0.7,0,1.3-0.2,1.8-0.5
		s0.8-0.8,1-1.4h1.2c-0.2,0.9-0.7,1.5-1.4,2.1c-0.7,0.5-1.6,0.8-2.6,0.8c-0.8,0-1.6-0.2-2.2-0.6s-1.2-0.9-1.5-1.6
		c-0.4-0.7-0.6-1.5-0.6-2.4c0-0.9,0.2-1.7,0.5-2.4c0.4-0.7,0.9-1.2,1.5-1.6c0.7-0.4,1.4-0.5,2.2-0.5s1.6,0.2,2.2,0.5
		c0.6,0.4,1.1,0.9,1.4,1.5s0.5,1.3,0.5,2C355.9,95,355.9,95.3,355.8,95.5z M354.3,92.9c-0.3-0.5-0.6-0.8-1.1-1s-1-0.4-1.5-0.4
		c-0.8,0-1.5,0.3-2.1,0.8s-0.9,1.3-1,2.3h6.1C354.7,94,354.6,93.4,354.3,92.9z"/>
	<path class="st0" d="M362.3,92.7c0.4-0.7,0.9-1.2,1.5-1.6s1.4-0.6,2.2-0.6c0.8,0,1.5,0.2,2.1,0.6c0.6,0.4,1.1,0.9,1.4,1.5v-5h1.1
		v11.8h-1.1v-2c-0.3,0.6-0.7,1.1-1.3,1.5c-0.6,0.4-1.3,0.6-2.1,0.6c-0.8,0-1.5-0.2-2.2-0.6s-1.1-0.9-1.5-1.6s-0.5-1.5-0.5-2.4
		C361.8,94.2,362,93.4,362.3,92.7z M369,93.2c-0.3-0.5-0.7-0.9-1.2-1.2s-1-0.4-1.6-0.4c-0.6,0-1.2,0.1-1.7,0.4
		c-0.5,0.3-0.9,0.7-1.2,1.2c-0.3,0.5-0.4,1.2-0.4,1.9c0,0.7,0.1,1.3,0.4,1.9c0.3,0.5,0.7,0.9,1.2,1.2c0.5,0.3,1,0.4,1.7,0.4
		c0.6,0,1.1-0.1,1.6-0.4c0.5-0.3,0.9-0.7,1.2-1.2s0.4-1.2,0.4-1.9C369.4,94.4,369.3,93.8,369,93.2z"/>
	<path class="st0" d="M373.1,88.8c-0.2-0.2-0.2-0.4-0.2-0.6s0.1-0.4,0.2-0.6c0.2-0.2,0.4-0.2,0.6-0.2c0.2,0,0.4,0.1,0.6,0.2
		c0.2,0.2,0.2,0.3,0.2,0.6s-0.1,0.4-0.2,0.6s-0.4,0.2-0.6,0.2C373.4,89.1,373.2,89,373.1,88.8z M374.2,90.7v8.7h-1.1v-8.7H374.2z"/>
	<path class="st0" d="M382.6,91.2c0.6,0.4,1,0.9,1.3,1.5v-1.9h1.1v9c0,0.8-0.2,1.5-0.5,2.1c-0.3,0.6-0.8,1.1-1.4,1.4
		c-0.6,0.3-1.3,0.5-2.1,0.5c-1.1,0-2.1-0.3-2.8-0.8c-0.7-0.5-1.2-1.3-1.4-2.2h1.1c0.2,0.6,0.6,1.1,1.1,1.5c0.5,0.4,1.2,0.5,2,0.5
		c0.6,0,1.1-0.1,1.5-0.4s0.8-0.6,1.1-1.1c0.3-0.5,0.4-1,0.4-1.7v-2.2c-0.3,0.6-0.7,1.1-1.3,1.5c-0.6,0.4-1.3,0.6-2.1,0.6
		c-0.8,0-1.5-0.2-2.2-0.6s-1.1-0.9-1.5-1.6s-0.5-1.5-0.5-2.4c0-0.9,0.2-1.7,0.5-2.4c0.4-0.7,0.9-1.2,1.5-1.6s1.4-0.6,2.2-0.6
		C381.3,90.6,382,90.8,382.6,91.2z M383.5,93.2c-0.3-0.5-0.7-0.9-1.2-1.2s-1-0.4-1.6-0.4c-0.6,0-1.2,0.1-1.7,0.4
		c-0.5,0.3-0.9,0.7-1.2,1.2c-0.3,0.5-0.4,1.2-0.4,1.9c0,0.7,0.1,1.3,0.4,1.9c0.3,0.5,0.7,0.9,1.2,1.2c0.5,0.3,1,0.4,1.7,0.4
		c0.6,0,1.1-0.1,1.6-0.4c0.5-0.3,0.9-0.7,1.2-1.2s0.4-1.2,0.4-1.9C383.9,94.4,383.7,93.8,383.5,93.2z"/>
	<path class="st0" d="M387.6,88.8c-0.2-0.2-0.2-0.4-0.2-0.6s0.1-0.4,0.2-0.6c0.2-0.2,0.4-0.2,0.6-0.2c0.2,0,0.4,0.1,0.6,0.2
		c0.2,0.2,0.2,0.3,0.2,0.6s-0.1,0.4-0.2,0.6s-0.4,0.2-0.6,0.2C387.9,89.1,387.7,89,387.6,88.8z M388.7,90.7v8.7h-1.1v-8.7H388.7z"/>
	<path class="st0" d="M392.7,91.7v5.4c0,0.5,0.1,0.9,0.3,1.1c0.2,0.2,0.6,0.3,1.1,0.3h1v1h-1.2c-0.8,0-1.4-0.2-1.8-0.6
		s-0.6-1-0.6-1.8v-5.4h-1.2v-0.9h1.2v-2.2h1.1v2.2h2.4v0.9H392.7z"/>
	<path class="st0" d="M397,92.7c0.4-0.7,0.9-1.2,1.5-1.6s1.4-0.6,2.2-0.6c0.8,0,1.5,0.2,2.2,0.6c0.6,0.4,1,0.9,1.3,1.5v-1.9h1.1v8.7
		H404v-1.9c-0.3,0.6-0.7,1.1-1.3,1.5c-0.6,0.4-1.3,0.6-2.2,0.6c-0.8,0-1.5-0.2-2.1-0.6s-1.1-0.9-1.5-1.6s-0.5-1.5-0.5-2.4
		C396.4,94.2,396.6,93.4,397,92.7z M403.6,93.2c-0.3-0.5-0.7-0.9-1.2-1.2s-1-0.4-1.6-0.4c-0.6,0-1.2,0.1-1.7,0.4
		c-0.5,0.3-0.9,0.7-1.2,1.2c-0.3,0.5-0.4,1.2-0.4,1.9c0,0.7,0.1,1.3,0.4,1.9c0.3,0.5,0.7,0.9,1.2,1.2c0.5,0.3,1,0.4,1.7,0.4
		c0.6,0,1.1-0.1,1.6-0.4c0.5-0.3,0.9-0.7,1.2-1.2s0.4-1.2,0.4-1.9C404,94.4,403.9,93.8,403.6,93.2z"/>
	<path class="st0" d="M408.8,87.6v11.8h-1.1V87.6H408.8z"/>
	<path class="st0" d="M416.3,98.9c-0.6-0.5-1-1.1-1.1-1.9h1.2c0.1,0.5,0.3,0.9,0.7,1.2c0.4,0.3,1,0.5,1.7,0.5c0.6,0,1.1-0.1,1.4-0.4
		s0.5-0.6,0.5-1.1c0-0.3-0.1-0.5-0.3-0.7c-0.2-0.2-0.4-0.3-0.7-0.5c-0.3-0.1-0.7-0.2-1.2-0.4c-0.7-0.2-1.2-0.3-1.6-0.5
		s-0.7-0.4-1-0.8c-0.3-0.3-0.4-0.8-0.4-1.4c0-0.4,0.1-0.8,0.4-1.2c0.3-0.4,0.6-0.7,1.1-0.9c0.5-0.2,1-0.3,1.6-0.3
		c0.9,0,1.7,0.2,2.3,0.7s0.9,1.1,0.9,2h-1.1c0-0.5-0.2-0.9-0.6-1.2s-0.9-0.5-1.5-0.5c-0.6,0-1,0.1-1.4,0.4c-0.4,0.3-0.5,0.6-0.5,1
		c0,0.3,0.1,0.6,0.3,0.8s0.5,0.4,0.8,0.5c0.3,0.1,0.7,0.3,1.2,0.4c0.6,0.2,1.1,0.3,1.5,0.5c0.4,0.2,0.7,0.4,1,0.7s0.4,0.7,0.4,1.2
		c0,0.5-0.1,0.9-0.4,1.3s-0.6,0.7-1.1,0.9c-0.5,0.2-1,0.3-1.6,0.3C417.8,99.6,417,99.4,416.3,98.9z"/>
	<path class="st0" d="M425.5,99c-0.7-0.4-1.2-0.9-1.6-1.6c-0.4-0.7-0.6-1.5-0.6-2.4c0-0.9,0.2-1.7,0.6-2.4c0.4-0.7,0.9-1.2,1.6-1.6
		s1.4-0.6,2.2-0.6s1.6,0.2,2.2,0.6c0.7,0.4,1.2,0.9,1.6,1.6c0.4,0.7,0.6,1.5,0.6,2.4c0,0.9-0.2,1.7-0.6,2.4s-0.9,1.2-1.6,1.6
		s-1.4,0.6-2.2,0.6S426.2,99.4,425.5,99z M429.4,98.2c0.5-0.3,0.9-0.7,1.2-1.2c0.3-0.5,0.5-1.2,0.5-1.9c0-0.8-0.1-1.4-0.4-1.9
		c-0.3-0.5-0.7-0.9-1.2-1.2c-0.5-0.3-1-0.4-1.6-0.4s-1.1,0.1-1.6,0.4c-0.5,0.3-0.9,0.7-1.2,1.2c-0.3,0.5-0.4,1.2-0.4,1.9
		c0,0.8,0.1,1.4,0.4,1.9c0.3,0.5,0.7,0.9,1.2,1.2c0.5,0.3,1,0.4,1.6,0.4C428.3,98.6,428.9,98.5,429.4,98.2z"/>
	<path class="st0" d="M435.3,87.6v11.8h-1.1V87.6H435.3z"/>
	<path class="st0" d="M445.4,90.7v8.7h-1.1v-1.5c-0.3,0.5-0.7,1-1.2,1.2s-1.1,0.4-1.8,0.4c-1,0-1.9-0.3-2.6-1c-0.7-0.6-1-1.6-1-2.8
		v-5.1h1.1v5c0,0.9,0.2,1.7,0.7,2.2c0.5,0.5,1.1,0.8,1.9,0.8c0.8,0,1.5-0.3,2-0.8c0.5-0.5,0.8-1.3,0.8-2.4v-4.8H445.4z"/>
	<path class="st0" d="M449.5,91.7v5.4c0,0.5,0.1,0.9,0.3,1.1c0.2,0.2,0.6,0.3,1.1,0.3h1v1h-1.2c-0.8,0-1.4-0.2-1.8-0.6
		s-0.6-1-0.6-1.8v-5.4h-1.2v-0.9h1.2v-2.2h1.1v2.2h2.4v0.9H449.5z"/>
	<path class="st0" d="M453.7,88.8c-0.2-0.2-0.2-0.4-0.2-0.6s0.1-0.4,0.2-0.6c0.2-0.2,0.4-0.2,0.6-0.2c0.2,0,0.4,0.1,0.6,0.2
		c0.2,0.2,0.2,0.3,0.2,0.6s-0.1,0.4-0.2,0.6s-0.4,0.2-0.6,0.2C454,89.1,453.8,89,453.7,88.8z M454.8,90.7v8.7h-1.1v-8.7H454.8z"/>
	<path class="st0" d="M459,99c-0.7-0.4-1.2-0.9-1.6-1.6c-0.4-0.7-0.6-1.5-0.6-2.4c0-0.9,0.2-1.7,0.6-2.4c0.4-0.7,0.9-1.2,1.6-1.6
		s1.4-0.6,2.2-0.6s1.6,0.2,2.2,0.6c0.7,0.4,1.2,0.9,1.6,1.6c0.4,0.7,0.6,1.5,0.6,2.4c0,0.9-0.2,1.7-0.6,2.4s-0.9,1.2-1.6,1.6
		s-1.4,0.6-2.2,0.6S459.6,99.4,459,99z M462.8,98.2c0.5-0.3,0.9-0.7,1.2-1.2c0.3-0.5,0.5-1.2,0.5-1.9c0-0.8-0.1-1.4-0.4-1.9
		c-0.3-0.5-0.7-0.9-1.2-1.2c-0.5-0.3-1-0.4-1.6-0.4s-1.1,0.1-1.6,0.4c-0.5,0.3-0.9,0.7-1.2,1.2c-0.3,0.5-0.4,1.2-0.4,1.9
		c0,0.8,0.1,1.4,0.4,1.9c0.3,0.5,0.7,0.9,1.2,1.2c0.5,0.3,1,0.4,1.6,0.4C461.8,98.6,462.3,98.5,462.8,98.2z"/>
	<path class="st0" d="M474.3,91.5c0.7,0.6,1,1.6,1,2.8v5.1h-1.1v-5c0-0.9-0.2-1.7-0.7-2.2c-0.5-0.5-1.1-0.8-1.9-0.8
		c-0.8,0-1.5,0.3-2,0.8c-0.5,0.5-0.8,1.3-0.8,2.4v4.8h-1.1v-8.7h1.1v1.5c0.3-0.5,0.7-0.9,1.2-1.2s1.1-0.4,1.8-0.4
		C472.8,90.6,473.6,90.9,474.3,91.5z"/>
	<path class="st0" d="M478.3,98.9c-0.6-0.5-1-1.1-1.1-1.9h1.2c0.1,0.5,0.3,0.9,0.7,1.2c0.4,0.3,1,0.5,1.7,0.5c0.6,0,1.1-0.1,1.4-0.4
		s0.5-0.6,0.5-1.1c0-0.3-0.1-0.5-0.3-0.7c-0.2-0.2-0.4-0.3-0.7-0.5c-0.3-0.1-0.7-0.2-1.2-0.4c-0.7-0.2-1.2-0.3-1.6-0.5
		s-0.7-0.4-1-0.8c-0.3-0.3-0.4-0.8-0.4-1.4c0-0.4,0.1-0.8,0.4-1.2c0.3-0.4,0.6-0.7,1.1-0.9c0.5-0.2,1-0.3,1.6-0.3
		c0.9,0,1.7,0.2,2.3,0.7s0.9,1.1,0.9,2h-1.1c0-0.5-0.2-0.9-0.6-1.2s-0.9-0.5-1.5-0.5c-0.6,0-1,0.1-1.4,0.4c-0.4,0.3-0.5,0.6-0.5,1
		c0,0.3,0.1,0.6,0.3,0.8s0.5,0.4,0.8,0.5c0.3,0.1,0.7,0.3,1.2,0.4c0.6,0.2,1.1,0.3,1.5,0.5c0.4,0.2,0.7,0.4,1,0.7s0.4,0.7,0.4,1.2
		c0,0.5-0.1,0.9-0.4,1.3s-0.6,0.7-1.1,0.9c-0.5,0.2-1,0.3-1.6,0.3C479.8,99.6,478.9,99.4,478.3,98.9z"/>
	<path class="st0" d="M490.3,88.8c-0.2-0.2-0.2-0.4-0.2-0.6s0.1-0.4,0.2-0.6c0.2-0.2,0.4-0.2,0.6-0.2c0.2,0,0.4,0.1,0.6,0.2
		c0.2,0.2,0.2,0.3,0.2,0.6s-0.1,0.4-0.2,0.6s-0.4,0.2-0.6,0.2C490.6,89.1,490.4,89,490.3,88.8z M491.4,90.7v8.7h-1.1v-8.7H491.4z"/>
	<path class="st0" d="M500.6,91.5c0.7,0.6,1,1.6,1,2.8v5.1h-1.1v-5c0-0.9-0.2-1.7-0.7-2.2c-0.5-0.5-1.1-0.8-1.9-0.8
		c-0.8,0-1.5,0.3-2,0.8c-0.5,0.5-0.8,1.3-0.8,2.4v4.8H494v-8.7h1.1v1.5c0.3-0.5,0.7-0.9,1.2-1.2s1.1-0.4,1.8-0.4
		C499.1,90.6,500,90.9,500.6,91.5z"/>
	<path class="st0" d="M509.9,91.7v5.4c0,0.5,0.1,0.9,0.3,1.1c0.2,0.2,0.6,0.3,1.1,0.3h1v1h-1.2c-0.8,0-1.4-0.2-1.8-0.6
		s-0.6-1-0.6-1.8v-5.4h-1.2v-0.9h1.2v-2.2h1.1v2.2h2.4v0.9H509.9z"/>
	<path class="st0" d="M520.1,91c0.5,0.3,0.9,0.7,1.2,1.3c0.3,0.6,0.5,1.3,0.5,2.1v5.1h-1.1v-5c0-0.9-0.2-1.7-0.7-2.2
		c-0.5-0.5-1.1-0.8-1.9-0.8c-0.8,0-1.5,0.3-2,0.8c-0.5,0.5-0.8,1.3-0.8,2.4v4.8h-1.1V87.6h1.1v4.6c0.3-0.5,0.7-0.9,1.2-1.2
		c0.5-0.3,1.1-0.4,1.8-0.4C519,90.6,519.6,90.7,520.1,91z"/>
	<path class="st0" d="M524.3,88.8c-0.2-0.2-0.2-0.4-0.2-0.6s0.1-0.4,0.2-0.6c0.2-0.2,0.4-0.2,0.6-0.2c0.2,0,0.4,0.1,0.6,0.2
		c0.2,0.2,0.2,0.3,0.2,0.6s-0.1,0.4-0.2,0.6s-0.4,0.2-0.6,0.2C524.6,89.1,524.4,89,524.3,88.8z M525.4,90.7v8.7h-1.1v-8.7H525.4z"/>
	<path class="st0" d="M528.5,98.9c-0.6-0.5-1-1.1-1.1-1.9h1.2c0.1,0.5,0.3,0.9,0.7,1.2c0.4,0.3,1,0.5,1.7,0.5c0.6,0,1.1-0.1,1.4-0.4
		s0.5-0.6,0.5-1.1c0-0.3-0.1-0.5-0.3-0.7c-0.2-0.2-0.4-0.3-0.7-0.5c-0.3-0.1-0.7-0.2-1.2-0.4c-0.7-0.2-1.2-0.3-1.6-0.5
		s-0.7-0.4-1-0.8c-0.3-0.3-0.4-0.8-0.4-1.4c0-0.4,0.1-0.8,0.4-1.2c0.3-0.4,0.6-0.7,1.1-0.9c0.5-0.2,1-0.3,1.6-0.3
		c0.9,0,1.7,0.2,2.3,0.7s0.9,1.1,0.9,2h-1.1c0-0.5-0.2-0.9-0.6-1.2s-0.9-0.5-1.5-0.5c-0.6,0-1,0.1-1.4,0.4c-0.4,0.3-0.5,0.6-0.5,1
		c0,0.3,0.1,0.6,0.3,0.8s0.5,0.4,0.8,0.5c0.3,0.1,0.7,0.3,1.2,0.4c0.6,0.2,1.1,0.3,1.5,0.5c0.4,0.2,0.7,0.4,1,0.7s0.4,0.7,0.4,1.2
		c0,0.5-0.1,0.9-0.4,1.3s-0.6,0.7-1.1,0.9c-0.5,0.2-1,0.3-1.6,0.3C530,99.6,529.2,99.4,528.5,98.9z"/>
	<path class="st0" d="M40.9,111.9c0.4-0.7,0.9-1.2,1.5-1.6c0.6-0.4,1.4-0.6,2.2-0.6c1.1,0,2,0.3,2.7,0.8s1.1,1.3,1.4,2.2h-1.2
		c-0.1-0.6-0.5-1.1-1-1.5c-0.5-0.4-1.1-0.5-1.8-0.5c-0.6,0-1.1,0.1-1.6,0.4s-0.8,0.7-1.1,1.2c-0.3,0.5-0.4,1.2-0.4,1.9
		c0,0.8,0.1,1.4,0.4,2c0.3,0.5,0.6,0.9,1.1,1.2s1,0.4,1.6,0.4c0.7,0,1.4-0.2,1.8-0.5c0.5-0.4,0.8-0.9,1-1.5h1.2
		c-0.2,0.9-0.7,1.6-1.4,2.2s-1.6,0.8-2.7,0.8c-0.8,0-1.6-0.2-2.2-0.6c-0.6-0.4-1.1-0.9-1.5-1.6c-0.4-0.7-0.5-1.5-0.5-2.4
		C40.3,113.4,40.5,112.6,40.9,111.9z"/>
	<path class="st0" d="M50.7,111.9c0.4-0.7,0.9-1.2,1.5-1.6s1.4-0.6,2.2-0.6c0.8,0,1.5,0.2,2.2,0.6c0.6,0.4,1,0.9,1.3,1.5v-1.9h1.1
		v8.7h-1.1v-1.9c-0.3,0.6-0.7,1.1-1.3,1.5c-0.6,0.4-1.3,0.6-2.2,0.6c-0.8,0-1.5-0.2-2.1-0.6s-1.1-0.9-1.5-1.6s-0.5-1.5-0.5-2.4
		C50.1,113.4,50.3,112.6,50.7,111.9z M57.3,112.4c-0.3-0.5-0.7-0.9-1.2-1.2s-1-0.4-1.6-0.4c-0.6,0-1.2,0.1-1.7,0.4
		c-0.5,0.3-0.9,0.7-1.2,1.2c-0.3,0.5-0.4,1.2-0.4,1.9c0,0.7,0.1,1.3,0.4,1.9c0.3,0.5,0.7,0.9,1.2,1.2c0.5,0.3,1,0.4,1.7,0.4
		c0.6,0,1.1-0.1,1.6-0.4c0.5-0.3,0.9-0.7,1.2-1.2s0.4-1.2,0.4-1.9C57.7,113.6,57.6,113,57.3,112.4z"/>
	<path class="st0" d="M63.9,110.4c0.6-0.4,1.3-0.6,2.2-0.6c0.8,0,1.5,0.2,2.1,0.6s1.1,0.9,1.5,1.6c0.4,0.7,0.5,1.5,0.5,2.4
		c0,0.9-0.2,1.7-0.5,2.4c-0.4,0.7-0.9,1.2-1.5,1.6s-1.3,0.6-2.1,0.6c-0.8,0-1.5-0.2-2.1-0.6c-0.6-0.4-1.1-0.9-1.3-1.5v6h-1.1v-12.9
		h1.1v1.9C62.8,111.3,63.2,110.8,63.9,110.4z M68.6,112.4c-0.3-0.5-0.7-0.9-1.2-1.2s-1-0.4-1.7-0.4c-0.6,0-1.1,0.1-1.6,0.4
		s-0.9,0.7-1.2,1.2c-0.3,0.5-0.4,1.2-0.4,1.9c0,0.7,0.1,1.3,0.4,1.9c0.3,0.5,0.7,0.9,1.2,1.2c0.5,0.3,1,0.4,1.6,0.4
		c0.6,0,1.2-0.1,1.7-0.4c0.5-0.3,0.9-0.7,1.2-1.2c0.3-0.5,0.4-1.2,0.4-1.9C69,113.5,68.9,112.9,68.6,112.4z"/>
	<path class="st0" d="M72.3,111.9c0.4-0.7,0.9-1.2,1.5-1.6s1.4-0.6,2.2-0.6c0.8,0,1.5,0.2,2.2,0.6c0.6,0.4,1,0.9,1.3,1.5v-1.9h1.1
		v8.7h-1.1v-1.9c-0.3,0.6-0.7,1.1-1.3,1.5c-0.6,0.4-1.3,0.6-2.2,0.6c-0.8,0-1.5-0.2-2.1-0.6s-1.1-0.9-1.5-1.6s-0.5-1.5-0.5-2.4
		C71.7,113.4,71.9,112.6,72.3,111.9z M78.9,112.4c-0.3-0.5-0.7-0.9-1.2-1.2s-1-0.4-1.6-0.4c-0.6,0-1.2,0.1-1.7,0.4
		c-0.5,0.3-0.9,0.7-1.2,1.2c-0.3,0.5-0.4,1.2-0.4,1.9c0,0.7,0.1,1.3,0.4,1.9c0.3,0.5,0.7,0.9,1.2,1.2c0.5,0.3,1,0.4,1.7,0.4
		c0.6,0,1.1-0.1,1.6-0.4c0.5-0.3,0.9-0.7,1.2-1.2s0.4-1.2,0.4-1.9C79.3,113.6,79.2,113,78.9,112.4z"/>
	<path class="st0" d="M83.1,111.9c0.4-0.7,0.9-1.2,1.5-1.6c0.6-0.4,1.4-0.6,2.2-0.6c1.1,0,2,0.3,2.7,0.8s1.1,1.3,1.4,2.2h-1.2
		c-0.1-0.6-0.5-1.1-1-1.5c-0.5-0.4-1.1-0.5-1.8-0.5c-0.6,0-1.1,0.1-1.6,0.4s-0.8,0.7-1.1,1.2c-0.3,0.5-0.4,1.2-0.4,1.9
		c0,0.8,0.1,1.4,0.4,2c0.3,0.5,0.6,0.9,1.1,1.2s1,0.4,1.6,0.4c0.7,0,1.4-0.2,1.8-0.5c0.5-0.4,0.8-0.9,1-1.5h1.2
		c-0.2,0.9-0.7,1.6-1.4,2.2s-1.6,0.8-2.7,0.8c-0.8,0-1.6-0.2-2.2-0.6c-0.6-0.4-1.1-0.9-1.5-1.6c-0.4-0.7-0.5-1.5-0.5-2.4
		C82.5,113.4,82.7,112.6,83.1,111.9z"/>
	<path class="st0" d="M92.8,108c-0.2-0.2-0.2-0.4-0.2-0.6s0.1-0.4,0.2-0.6c0.2-0.2,0.4-0.2,0.6-0.2c0.2,0,0.4,0.1,0.6,0.2
		c0.2,0.2,0.2,0.3,0.2,0.6s-0.1,0.4-0.2,0.6s-0.4,0.2-0.6,0.2C93.2,108.3,93,108.2,92.8,108z M94,109.9v8.7h-1.1v-8.7H94z"/>
	<path class="st0" d="M98,110.9v5.4c0,0.5,0.1,0.9,0.3,1.1c0.2,0.2,0.6,0.3,1.1,0.3h1v1h-1.2c-0.8,0-1.4-0.2-1.8-0.6s-0.6-1-0.6-1.8
		v-5.4h-1.2v-0.9h1.2v-2.2H98v2.2h2.4v0.9H98z"/>
	<path class="st0" d="M109.4,109.9l-5.2,12.8H103l1.7-4.2l-3.6-8.7h1.2l3,7.5l2.9-7.5H109.4z"/>
</g>
<g>
	<g>
		<path class="st1" d="M1.2,85.8c0.8-1.4,2.3-2.1,4.3-2.1s3.4,0.7,4.3,2.1c0.8,1.4,1.2,3.3,1.2,5.7c0,2.5-0.4,4.4-1.2,5.8
			c-0.8,1.4-2.3,2.1-4.3,2.1s-3.4-0.7-4.3-2.1C0.4,96,0,94,0,91.5C0,89.1,0.4,87.2,1.2,85.8z M8.4,88.6c-0.1-0.8-0.4-1.4-0.9-1.9
			c-0.5-0.5-1.1-0.8-2-0.8s-1.6,0.3-2,0.8c-0.5,0.5-0.8,1.1-0.9,1.9s-0.2,1.8-0.2,2.9c0,1.2,0.1,2.2,0.2,3c0.1,0.8,0.4,1.5,0.9,2
			c0.5,0.5,1.1,0.7,2,0.7s1.6-0.2,2-0.7c0.5-0.5,0.8-1.1,0.9-2c0.1-0.8,0.2-1.8,0.2-3C8.7,90.4,8.6,89.4,8.4,88.6z"/>
		<path class="st1" d="M14.1,85.3c0.6-0.6,1.4-0.9,2.3-0.9s1.7,0.3,2.3,0.9c0.6,0.6,0.9,1.4,0.9,2.4s-0.3,1.8-0.9,2.4
			s-1.4,0.9-2.3,0.9s-1.7-0.3-2.3-0.9c-0.6-0.6-0.9-1.4-0.9-2.4S13.5,85.9,14.1,85.3z M15.1,87.8c0,1.2,0.4,1.9,1.3,1.9
			c0.4,0,0.8-0.2,1-0.5c0.2-0.3,0.3-0.8,0.3-1.4c0-1.2-0.4-1.8-1.3-1.8S15.1,86.5,15.1,87.8z M26.2,84.7l-8.5,14.8h-2.4l8.5-14.8
			H26.2z M22.8,94c0.6-0.6,1.4-0.9,2.3-0.9c0.9,0,1.7,0.3,2.3,0.9c0.6,0.6,0.9,1.4,0.9,2.4s-0.3,1.8-0.9,2.4s-1.4,0.9-2.3,0.9
			c-0.9,0-1.7-0.3-2.3-0.9c-0.6-0.6-0.9-1.4-0.9-2.4S22.2,94.6,22.8,94z M23.7,96.4c0,1.2,0.4,1.8,1.3,1.8s1.3-0.6,1.3-1.8
			s-0.4-1.8-1.3-1.8S23.7,95.2,23.7,96.4z"/>
	</g>
</g>
</svg>
