<!-- Generator: Adobe Illustrator 25.0.0, SVG Export Plug-In  -->
<svg version="1.1" xmlns="http://www.w3.org/2000/svg" xmlns:xlink="http://www.w3.org/1999/xlink" x="0px" y="0px" width="204.5px"
	 height="244.6px" viewBox="0 0 204.5 244.6" style="overflow:visible;enable-background:new 0 0 204.5 244.6;"
	 xml:space="preserve">
<style type="text/css">
	.st0{fill:#FFFFFF;}
	.st1{fill:#FF645C;}
</style>
<defs>
</defs>
<g>
	<path class="st0" d="M20.2,1.6l-4.3,14.6h-2.7l-3.1-11l-3.3,11l-2.7,0L0,1.6h2.5l3,11.9L8.8,1.6h2.7l3,11.8l3-11.8H20.2z"/>
	<path class="st0" d="M30.5,5c0.7,0.4,1.2,0.9,1.6,1.7c0.4,0.7,0.6,1.6,0.6,2.7v6.8h-2.4V9.7c0-1-0.3-1.8-0.8-2.4
		c-0.5-0.6-1.2-0.8-2.1-0.8c-0.9,0-1.6,0.3-2.1,0.8c-0.5,0.6-0.8,1.3-0.8,2.4v6.5h-2.4V0.6h2.4v5.3c0.4-0.5,0.9-0.9,1.5-1.1
		s1.3-0.4,2-0.4C29,4.4,29.8,4.6,30.5,5z"/>
	<path class="st0" d="M46.3,11.3h-8.8c0.1,0.9,0.4,1.7,1,2.2c0.6,0.6,1.4,0.8,2.3,0.8c1.3,0,2.2-0.5,2.7-1.6h2.6
		c-0.4,1.1-1,1.9-1.9,2.6c-0.9,0.7-2.1,1-3.4,1c-1.1,0-2.1-0.2-3-0.7c-0.9-0.5-1.6-1.2-2.1-2.1c-0.5-0.9-0.7-1.9-0.7-3.1
		s0.2-2.2,0.7-3.1c0.5-0.9,1.2-1.6,2-2.1c0.9-0.5,1.9-0.7,3-0.7c1.1,0,2.1,0.2,2.9,0.7c0.9,0.5,1.5,1.1,2,2s0.7,1.9,0.7,3
		C46.4,10.5,46.4,10.9,46.3,11.3z M43.9,9.3c0-0.9-0.3-1.6-0.9-2.1c-0.6-0.5-1.4-0.8-2.3-0.8c-0.8,0-1.5,0.3-2.1,0.8s-0.9,1.2-1,2.1
		H43.9z"/>
	<path class="st0" d="M57,5c0.7,0.4,1.3,0.9,1.7,1.7c0.4,0.7,0.6,1.6,0.6,2.7v6.8H57V9.7c0-1-0.3-1.8-0.8-2.4
		c-0.5-0.6-1.2-0.8-2.1-0.8c-0.9,0-1.6,0.3-2.1,0.8c-0.5,0.6-0.8,1.3-0.8,2.4v6.5h-2.4V4.6h2.4v1.3c0.4-0.5,0.9-0.8,1.5-1.1
		c0.6-0.3,1.3-0.4,1.9-0.4C55.5,4.4,56.3,4.6,57,5z"/>
	<path class="st0" d="M78.2,4.6l-7.1,17h-2.5L71,16L66.5,4.6h2.7l3.3,8.8l3.4-8.8H78.2z"/>
	<path class="st0" d="M82.1,15.6c-0.9-0.5-1.6-1.2-2.1-2.1c-0.5-0.9-0.8-1.9-0.8-3.1c0-1.2,0.3-2.2,0.8-3.1c0.5-0.9,1.2-1.6,2.1-2.1
		c0.9-0.5,1.9-0.7,3-0.7c1.1,0,2.1,0.2,3,0.7c0.9,0.5,1.6,1.2,2.1,2.1c0.5,0.9,0.8,2,0.8,3.1c0,1.2-0.3,2.2-0.8,3.1
		c-0.5,0.9-1.3,1.6-2.2,2.1c-0.9,0.5-1.9,0.7-3,0.7C84,16.4,83,16.1,82.1,15.6z M86.8,13.8c0.5-0.3,1-0.7,1.3-1.3
		c0.3-0.6,0.5-1.3,0.5-2.1c0-0.8-0.2-1.6-0.5-2.1c-0.3-0.6-0.7-1-1.3-1.3c-0.5-0.3-1.1-0.4-1.7-0.4c-0.6,0-1.2,0.1-1.7,0.4
		c-0.5,0.3-0.9,0.7-1.2,1.3c-0.3,0.6-0.5,1.3-0.5,2.1c0,1.2,0.3,2.2,1,2.9c0.6,0.7,1.4,1,2.4,1C85.7,14.3,86.3,14.1,86.8,13.8z"/>
	<path class="st0" d="M103.9,4.6v11.6h-2.4v-1.4c-0.4,0.5-0.9,0.9-1.5,1.1c-0.6,0.3-1.3,0.4-1.9,0.4c-0.9,0-1.7-0.2-2.4-0.6
		c-0.7-0.4-1.3-0.9-1.7-1.7c-0.4-0.7-0.6-1.6-0.6-2.7V4.6h2.4V11c0,1,0.3,1.8,0.8,2.4c0.5,0.6,1.2,0.8,2.1,0.8
		c0.9,0,1.6-0.3,2.1-0.8c0.5-0.6,0.8-1.3,0.8-2.4V4.6H103.9z"/>
	<path class="st0" d="M110.9,4.9c0.6-0.3,1.3-0.5,2.1-0.5v2.5h-0.6c-0.9,0-1.6,0.2-2.1,0.7c-0.5,0.5-0.7,1.3-0.7,2.5v6.1h-2.4V4.6
		h2.4v1.7C109.8,5.7,110.3,5.2,110.9,4.9z"/>
	<path class="st0" d="M120.7,2.6c-0.3-0.3-0.4-0.7-0.4-1.1c0-0.4,0.1-0.8,0.4-1.1s0.7-0.4,1.1-0.4c0.4,0,0.8,0.1,1.1,0.4
		s0.4,0.7,0.4,1.1c0,0.4-0.1,0.8-0.4,1.1s-0.7,0.4-1.1,0.4C121.4,3.1,121,2.9,120.7,2.6z M123,4.6v11.6h-2.4V4.6H123z"/>
	<path class="st0" d="M134.4,5c0.7,0.4,1.3,0.9,1.7,1.7c0.4,0.7,0.6,1.6,0.6,2.7v6.8h-2.4V9.7c0-1-0.3-1.8-0.8-2.4
		c-0.5-0.6-1.2-0.8-2.1-0.8c-0.9,0-1.6,0.3-2.1,0.8c-0.5,0.6-0.8,1.3-0.8,2.4v6.5h-2.4V4.6h2.4v1.3c0.4-0.5,0.9-0.8,1.5-1.1
		c0.6-0.3,1.3-0.4,1.9-0.4C132.9,4.4,133.7,4.6,134.4,5z"/>
	<path class="st0" d="M142.6,6.6V13c0,0.4,0.1,0.7,0.3,0.9c0.2,0.2,0.5,0.3,1,0.3h1.5v2h-1.9c-1.1,0-1.9-0.3-2.5-0.8
		c-0.6-0.5-0.9-1.3-0.9-2.5V6.6h-1.4v-2h1.4V1.7h2.4v2.9h2.8v2H142.6z"/>
	<path class="st0" d="M158.1,11.3h-8.8c0.1,0.9,0.4,1.7,1,2.2c0.6,0.6,1.4,0.8,2.3,0.8c1.3,0,2.2-0.5,2.7-1.6h2.6
		c-0.4,1.1-1,1.9-1.9,2.6c-0.9,0.7-2.1,1-3.4,1c-1.1,0-2.1-0.2-3-0.7c-0.9-0.5-1.6-1.2-2.1-2.1c-0.5-0.9-0.7-1.9-0.7-3.1
		s0.2-2.2,0.7-3.1c0.5-0.9,1.2-1.6,2-2.1c0.9-0.5,1.9-0.7,3-0.7c1.1,0,2.1,0.2,2.9,0.7c0.9,0.5,1.5,1.1,2,2s0.7,1.9,0.7,3
		C158.2,10.5,158.2,10.9,158.1,11.3z M155.7,9.3c0-0.9-0.3-1.6-0.9-2.1c-0.6-0.5-1.4-0.8-2.3-0.8c-0.8,0-1.5,0.3-2.1,0.8
		s-0.9,1.2-1,2.1H155.7z"/>
	<path class="st0" d="M164.3,4.9c0.6-0.3,1.3-0.5,2.1-0.5v2.5h-0.6c-0.9,0-1.6,0.2-2.1,0.7c-0.5,0.5-0.7,1.3-0.7,2.5v6.1h-2.4V4.6
		h2.4v1.7C163.3,5.7,163.8,5.2,164.3,4.9z"/>
	<path class="st0" d="M176.9,5c0.7,0.4,1.3,0.9,1.7,1.7c0.4,0.7,0.6,1.6,0.6,2.7v6.8h-2.4V9.7c0-1-0.3-1.8-0.8-2.4
		c-0.5-0.6-1.2-0.8-2.1-0.8c-0.9,0-1.6,0.3-2.1,0.8c-0.5,0.6-0.8,1.3-0.8,2.4v6.5h-2.4V4.6h2.4v1.3c0.4-0.5,0.9-0.8,1.5-1.1
		c0.6-0.3,1.3-0.4,1.9-0.4C175.4,4.4,176.2,4.6,176.9,5z"/>
	<path class="st0" d="M192.8,11.3h-8.8c0.1,0.9,0.4,1.7,1,2.2c0.6,0.6,1.4,0.8,2.3,0.8c1.3,0,2.2-0.5,2.7-1.6h2.6
		c-0.4,1.1-1,1.9-1.9,2.6c-0.9,0.7-2.1,1-3.4,1c-1.1,0-2.1-0.2-3-0.7c-0.9-0.5-1.6-1.2-2.1-2.1c-0.5-0.9-0.7-1.9-0.7-3.1
		s0.2-2.2,0.7-3.1c0.5-0.9,1.2-1.6,2-2.1c0.9-0.5,1.9-0.7,3-0.7c1.1,0,2.1,0.2,2.9,0.7c0.9,0.5,1.5,1.1,2,2s0.7,1.9,0.7,3
		C192.8,10.5,192.8,10.9,192.8,11.3z M190.3,9.3c0-0.9-0.3-1.6-0.9-2.1c-0.6-0.5-1.4-0.8-2.3-0.8c-0.8,0-1.5,0.3-2.1,0.8
		s-0.9,1.2-1,2.1H190.3z"/>
	<path class="st0" d="M198,6.6V13c0,0.4,0.1,0.7,0.3,0.9c0.2,0.2,0.5,0.3,1,0.3h1.5v2h-1.9c-1.1,0-1.9-0.3-2.5-0.8
		c-0.6-0.5-0.9-1.3-0.9-2.5V6.6h-1.4v-2h1.4V1.7h2.4v2.9h2.8v2H198z"/>
	<path class="st0" d="M3.2,40.8c-0.9-0.5-1.6-1.2-2.1-2.1c-0.5-0.9-0.8-1.9-0.8-3.1c0-1.2,0.3-2.2,0.8-3.1c0.5-0.9,1.2-1.6,2.1-2.1
		c0.9-0.5,1.9-0.7,3-0.7c1.1,0,2.1,0.2,3,0.7c0.9,0.5,1.6,1.2,2.1,2.1c0.5,0.9,0.8,2,0.8,3.1c0,1.2-0.3,2.2-0.8,3.1
		c-0.5,0.9-1.3,1.6-2.2,2.1c-0.9,0.5-1.9,0.7-3,0.7C5.1,41.6,4.1,41.3,3.2,40.8z M7.9,39c0.5-0.3,1-0.7,1.3-1.3
		c0.3-0.6,0.5-1.3,0.5-2.1c0-0.8-0.2-1.6-0.5-2.1c-0.3-0.6-0.7-1-1.3-1.3c-0.5-0.3-1.1-0.4-1.7-0.4c-0.6,0-1.2,0.1-1.7,0.4
		c-0.5,0.3-0.9,0.7-1.2,1.3C3,34,2.8,34.7,2.8,35.6c0,1.2,0.3,2.2,1,2.9c0.6,0.7,1.4,1,2.4,1C6.8,39.5,7.4,39.3,7.9,39z"/>
	<path class="st0" d="M18.4,30.1c0.6-0.3,1.3-0.5,2.1-0.5v2.5h-0.6c-0.9,0-1.6,0.2-2.1,0.7c-0.5,0.5-0.7,1.3-0.7,2.5v6.1h-2.4V29.8
		H17v1.7C17.3,30.9,17.8,30.4,18.4,30.1z"/>
	<path class="st0" d="M28,32.4c0.5-0.9,1.1-1.6,2-2.1c0.8-0.5,1.8-0.7,2.8-0.7c0.8,0,1.5,0.2,2.2,0.5c0.7,0.3,1.3,0.8,1.8,1.3v-5.6
		h2.4v15.5h-2.4v-1.7c-0.4,0.6-0.9,1-1.6,1.4c-0.7,0.4-1.5,0.5-2.4,0.5c-1,0-1.9-0.3-2.8-0.8c-0.8-0.5-1.5-1.2-2-2.1
		c-0.5-0.9-0.7-2-0.7-3.1S27.5,33.3,28,32.4z M36.3,33.5c-0.3-0.6-0.8-1-1.3-1.3c-0.5-0.3-1.1-0.5-1.7-0.5c-0.6,0-1.2,0.2-1.7,0.5
		c-0.5,0.3-1,0.7-1.3,1.3c-0.3,0.6-0.5,1.3-0.5,2.1c0,0.8,0.2,1.5,0.5,2.1s0.8,1.1,1.3,1.4c0.5,0.3,1.1,0.5,1.7,0.5
		c0.6,0,1.2-0.2,1.7-0.5c0.5-0.3,1-0.8,1.3-1.4c0.3-0.6,0.5-1.3,0.5-2.1C36.8,34.8,36.6,34.1,36.3,33.5z"/>
	<path class="st0" d="M42.5,27.8c-0.3-0.3-0.4-0.7-0.4-1.1c0-0.4,0.1-0.8,0.4-1.1s0.7-0.4,1.1-0.4c0.4,0,0.8,0.1,1.1,0.4
		s0.4,0.7,0.4,1.1c0,0.4-0.1,0.8-0.4,1.1s-0.7,0.4-1.1,0.4C43.1,28.3,42.8,28.1,42.5,27.8z M44.7,29.8v11.6h-2.4V29.8H44.7z"/>
	<path class="st0" d="M54.9,30.1c0.7,0.4,1.2,0.8,1.6,1.3v-1.7H59v11.8c0,1.1-0.2,2-0.7,2.8c-0.4,0.8-1.1,1.5-1.9,2
		c-0.8,0.5-1.9,0.7-3,0.7c-1.6,0-2.9-0.4-3.9-1.1c-1-0.7-1.6-1.7-1.8-3H50c0.2,0.6,0.6,1.1,1.2,1.5c0.6,0.4,1.3,0.6,2.1,0.6
		c1,0,1.7-0.3,2.3-0.9s0.9-1.4,0.9-2.6v-1.9c-0.4,0.5-1,1-1.6,1.4c-0.7,0.4-1.5,0.6-2.4,0.6c-1,0-1.9-0.3-2.8-0.8
		c-0.8-0.5-1.5-1.2-2-2.1c-0.5-0.9-0.7-2-0.7-3.1s0.2-2.2,0.7-3.1c0.5-0.9,1.1-1.6,2-2.1c0.8-0.5,1.8-0.7,2.8-0.7
		C53.4,29.6,54.2,29.8,54.9,30.1z M56.1,33.5c-0.3-0.6-0.8-1-1.3-1.3c-0.5-0.3-1.1-0.5-1.7-0.5c-0.6,0-1.2,0.2-1.7,0.5
		c-0.5,0.3-1,0.7-1.3,1.3c-0.3,0.6-0.5,1.3-0.5,2.1c0,0.8,0.2,1.5,0.5,2.1s0.8,1.1,1.3,1.4c0.5,0.3,1.1,0.5,1.7,0.5
		c0.6,0,1.2-0.2,1.7-0.5c0.5-0.3,1-0.8,1.3-1.4c0.3-0.6,0.5-1.3,0.5-2.1C56.6,34.8,56.4,34.1,56.1,33.5z"/>
	<path class="st0" d="M62.2,27.8c-0.3-0.3-0.4-0.7-0.4-1.1c0-0.4,0.1-0.8,0.4-1.1s0.7-0.4,1.1-0.4c0.4,0,0.8,0.1,1.1,0.4
		s0.4,0.7,0.4,1.1c0,0.4-0.1,0.8-0.4,1.1s-0.7,0.4-1.1,0.4C62.9,28.3,62.5,28.1,62.2,27.8z M64.5,29.8v11.6h-2.4V29.8H64.5z"/>
	<path class="st0" d="M70.5,31.8v6.4c0,0.4,0.1,0.7,0.3,0.9c0.2,0.2,0.5,0.3,1,0.3h1.5v2h-1.9c-1.1,0-1.9-0.3-2.5-0.8
		c-0.6-0.5-0.9-1.3-0.9-2.5v-6.4h-1.4v-2H68v-2.9h2.4v2.9h2.8v2H70.5z"/>
	<path class="st0" d="M75.4,32.4c0.5-0.9,1.1-1.6,2-2.1c0.8-0.5,1.8-0.7,2.8-0.7c0.9,0,1.7,0.2,2.4,0.5c0.7,0.4,1.2,0.8,1.6,1.3
		v-1.7h2.4v11.6h-2.4v-1.7c-0.4,0.5-1,1-1.7,1.4s-1.5,0.5-2.4,0.5c-1,0-1.9-0.3-2.7-0.8c-0.8-0.5-1.5-1.2-2-2.1
		c-0.5-0.9-0.7-2-0.7-3.1S74.9,33.3,75.4,32.4z M83.7,33.5c-0.3-0.6-0.8-1-1.3-1.3c-0.5-0.3-1.1-0.5-1.7-0.5c-0.6,0-1.2,0.2-1.7,0.5
		c-0.5,0.3-1,0.7-1.3,1.3c-0.3,0.6-0.5,1.3-0.5,2.1c0,0.8,0.2,1.5,0.5,2.1s0.8,1.1,1.3,1.4c0.5,0.3,1.1,0.5,1.7,0.5
		c0.6,0,1.2-0.2,1.7-0.5c0.5-0.3,1-0.8,1.3-1.4c0.3-0.6,0.5-1.3,0.5-2.1C84.1,34.8,84,34.1,83.7,33.5z"/>
	<path class="st0" d="M92.1,25.8v15.5h-2.4V25.8H92.1z"/>
	<path class="st0" d="M102.5,41.1c-0.7-0.3-1.3-0.8-1.7-1.3s-0.6-1.2-0.7-1.9h2.5c0,0.5,0.3,0.9,0.7,1.2c0.4,0.3,1,0.5,1.6,0.5
		c0.7,0,1.2-0.1,1.6-0.4c0.4-0.3,0.6-0.6,0.6-1c0-0.4-0.2-0.8-0.6-1s-1.1-0.4-2-0.7c-0.9-0.2-1.6-0.5-2.1-0.7c-0.5-0.2-1-0.6-1.4-1
		c-0.4-0.5-0.6-1.1-0.6-1.8c0-0.6,0.2-1.2,0.5-1.7s0.9-0.9,1.6-1.2c0.7-0.3,1.5-0.4,2.3-0.4c1.3,0,2.4,0.3,3.2,1
		c0.8,0.7,1.2,1.6,1.3,2.7h-2.4c0-0.5-0.3-0.9-0.6-1.2c-0.4-0.3-0.9-0.5-1.5-0.5c-0.6,0-1.1,0.1-1.4,0.4c-0.3,0.2-0.5,0.6-0.5,0.9
		c0,0.3,0.1,0.6,0.3,0.8s0.5,0.4,0.8,0.5c0.3,0.1,0.8,0.3,1.4,0.5c0.8,0.2,1.5,0.5,2.1,0.7s1,0.6,1.4,1c0.4,0.4,0.6,1,0.6,1.8
		c0,0.7-0.2,1.2-0.5,1.8c-0.4,0.5-0.9,0.9-1.5,1.2s-1.4,0.4-2.3,0.4C104,41.6,103.2,41.4,102.5,41.1z"/>
	<path class="st0" d="M114,40.8c-0.9-0.5-1.6-1.2-2.1-2.1c-0.5-0.9-0.8-1.9-0.8-3.1c0-1.2,0.3-2.2,0.8-3.1c0.5-0.9,1.2-1.6,2.1-2.1
		c0.9-0.5,1.9-0.7,3-0.7c1.1,0,2.1,0.2,3,0.7c0.9,0.5,1.6,1.2,2.1,2.1c0.5,0.9,0.8,2,0.8,3.1c0,1.2-0.3,2.2-0.8,3.1
		c-0.5,0.9-1.3,1.6-2.2,2.1c-0.9,0.5-1.9,0.7-3,0.7C115.9,41.6,114.9,41.3,114,40.8z M118.7,39c0.5-0.3,1-0.7,1.3-1.3
		c0.3-0.6,0.5-1.3,0.5-2.1c0-0.8-0.2-1.6-0.5-2.1c-0.3-0.6-0.7-1-1.3-1.3c-0.5-0.3-1.1-0.4-1.7-0.4c-0.6,0-1.2,0.1-1.7,0.4
		c-0.5,0.3-0.9,0.7-1.2,1.3c-0.3,0.6-0.5,1.3-0.5,2.1c0,1.2,0.3,2.2,1,2.9c0.6,0.7,1.4,1,2.4,1C117.6,39.5,118.1,39.3,118.7,39z"/>
	<path class="st0" d="M127.7,25.8v15.5h-2.4V25.8H127.7z"/>
	<path class="st0" d="M141.3,29.8v11.6H139V40c-0.4,0.5-0.9,0.9-1.5,1.1c-0.6,0.3-1.3,0.4-1.9,0.4c-0.9,0-1.7-0.2-2.4-0.6
		c-0.7-0.4-1.3-0.9-1.7-1.7c-0.4-0.7-0.6-1.6-0.6-2.7v-6.8h2.4v6.4c0,1,0.3,1.8,0.8,2.4c0.5,0.6,1.2,0.8,2.1,0.8
		c0.9,0,1.6-0.3,2.1-0.8c0.5-0.6,0.8-1.3,0.8-2.4v-6.4H141.3z"/>
	<path class="st0" d="M147.3,31.8v6.4c0,0.4,0.1,0.7,0.3,0.9c0.2,0.2,0.5,0.3,1,0.3h1.5v2h-1.9c-1.1,0-1.9-0.3-2.5-0.8
		c-0.6-0.5-0.9-1.3-0.9-2.5v-6.4h-1.4v-2h1.4v-2.9h2.4v2.9h2.8v2H147.3z"/>
	<path class="st0" d="M152.4,27.8c-0.3-0.3-0.4-0.7-0.4-1.1c0-0.4,0.1-0.8,0.4-1.1s0.7-0.4,1.1-0.4c0.4,0,0.8,0.1,1.1,0.4
		s0.4,0.7,0.4,1.1c0,0.4-0.1,0.8-0.4,1.1s-0.7,0.4-1.1,0.4C153.1,28.3,152.7,28.1,152.4,27.8z M154.7,29.8v11.6h-2.4V29.8H154.7z"/>
	<path class="st0" d="M159.9,40.8c-0.9-0.5-1.6-1.2-2.1-2.1c-0.5-0.9-0.8-1.9-0.8-3.1c0-1.2,0.3-2.2,0.8-3.1
		c0.5-0.9,1.2-1.6,2.1-2.1c0.9-0.5,1.9-0.7,3-0.7c1.1,0,2.1,0.2,3,0.7c0.9,0.5,1.6,1.2,2.1,2.1c0.5,0.9,0.8,2,0.8,3.1
		c0,1.2-0.3,2.2-0.8,3.1c-0.5,0.9-1.3,1.6-2.2,2.1c-0.9,0.5-1.9,0.7-3,0.7C161.8,41.6,160.8,41.3,159.9,40.8z M164.6,39
		c0.5-0.3,1-0.7,1.3-1.3c0.3-0.6,0.5-1.3,0.5-2.1c0-0.8-0.2-1.6-0.5-2.1c-0.3-0.6-0.7-1-1.3-1.3c-0.5-0.3-1.1-0.4-1.7-0.4
		c-0.6,0-1.2,0.1-1.7,0.4c-0.5,0.3-0.9,0.7-1.2,1.3c-0.3,0.6-0.5,1.3-0.5,2.1c0,1.2,0.3,2.2,1,2.9c0.6,0.7,1.4,1,2.4,1
		C163.5,39.5,164.1,39.3,164.6,39z"/>
	<path class="st0" d="M179.5,30.2c0.7,0.4,1.3,0.9,1.7,1.7c0.4,0.7,0.6,1.6,0.6,2.7v6.8h-2.4v-6.5c0-1-0.3-1.8-0.8-2.4
		c-0.5-0.6-1.2-0.8-2.1-0.8c-0.9,0-1.6,0.3-2.1,0.8c-0.5,0.6-0.8,1.3-0.8,2.4v6.5h-2.4V29.8h2.4v1.3c0.4-0.5,0.9-0.8,1.5-1.1
		c0.6-0.3,1.3-0.4,1.9-0.4C178,29.6,178.8,29.8,179.5,30.2z"/>
	<path class="st0" d="M190.5,27.8c-0.3-0.3-0.4-0.7-0.4-1.1c0-0.4,0.1-0.8,0.4-1.1s0.7-0.4,1.1-0.4c0.4,0,0.8,0.1,1.1,0.4
		s0.4,0.7,0.4,1.1c0,0.4-0.1,0.8-0.4,1.1s-0.7,0.4-1.1,0.4C191.1,28.3,190.8,28.1,190.5,27.8z M192.7,29.8v11.6h-2.4V29.8H192.7z"/>
	<path class="st0" d="M197.6,41.1c-0.7-0.3-1.3-0.8-1.7-1.3s-0.6-1.2-0.7-1.9h2.5c0,0.5,0.3,0.9,0.7,1.2c0.4,0.3,1,0.5,1.6,0.5
		c0.7,0,1.2-0.1,1.6-0.4c0.4-0.3,0.6-0.6,0.6-1c0-0.4-0.2-0.8-0.6-1s-1.1-0.4-2-0.7c-0.9-0.2-1.6-0.5-2.1-0.7c-0.5-0.2-1-0.6-1.4-1
		c-0.4-0.5-0.6-1.1-0.6-1.8c0-0.6,0.2-1.2,0.5-1.7s0.9-0.9,1.6-1.2c0.7-0.3,1.5-0.4,2.3-0.4c1.3,0,2.4,0.3,3.2,1
		c0.8,0.7,1.2,1.6,1.3,2.7H202c0-0.5-0.3-0.9-0.6-1.2c-0.4-0.3-0.9-0.5-1.5-0.5c-0.6,0-1.1,0.1-1.4,0.4c-0.3,0.2-0.5,0.6-0.5,0.9
		c0,0.3,0.1,0.6,0.3,0.8s0.5,0.4,0.8,0.5c0.3,0.1,0.8,0.3,1.4,0.5c0.8,0.2,1.5,0.5,2.1,0.7s1,0.6,1.4,1c0.4,0.4,0.6,1,0.6,1.8
		c0,0.7-0.2,1.2-0.5,1.8c-0.4,0.5-0.9,0.9-1.5,1.2s-1.4,0.4-2.3,0.4C199.2,41.6,198.4,41.4,197.6,41.1z"/>
	<path class="st0" d="M9.5,55.4c0.7,0.4,1.3,0.9,1.7,1.7c0.4,0.7,0.6,1.6,0.6,2.7v6.8H9.4v-6.5c0-1-0.3-1.8-0.8-2.4
		c-0.5-0.6-1.2-0.8-2.1-0.8c-0.9,0-1.6,0.3-2.1,0.8c-0.5,0.6-0.8,1.3-0.8,2.4v6.5H1.2V55h2.4v1.3c0.4-0.5,0.9-0.8,1.5-1.1
		c0.6-0.3,1.3-0.4,1.9-0.4C7.9,54.8,8.7,55,9.5,55.4z"/>
	<path class="st0" d="M16.9,66c-0.9-0.5-1.6-1.2-2.1-2.1C14.3,63,14,62,14,60.8c0-1.2,0.3-2.2,0.8-3.1c0.5-0.9,1.2-1.6,2.1-2.1
		c0.9-0.5,1.9-0.7,3-0.7c1.1,0,2.1,0.2,3,0.7c0.9,0.5,1.6,1.2,2.1,2.1c0.5,0.9,0.8,2,0.8,3.1c0,1.2-0.3,2.2-0.8,3.1
		c-0.5,0.9-1.3,1.6-2.2,2.1c-0.9,0.5-1.9,0.7-3,0.7C18.7,66.8,17.7,66.5,16.9,66z M21.6,64.2c0.5-0.3,1-0.7,1.3-1.3
		c0.3-0.6,0.5-1.3,0.5-2.1c0-0.8-0.2-1.6-0.5-2.1c-0.3-0.6-0.7-1-1.3-1.3c-0.5-0.3-1.1-0.4-1.7-0.4c-0.6,0-1.2,0.1-1.7,0.4
		c-0.5,0.3-0.9,0.7-1.2,1.3c-0.3,0.6-0.5,1.3-0.5,2.1c0,1.2,0.3,2.2,1,2.9c0.6,0.7,1.4,1,2.4,1C20.4,64.7,21,64.5,21.6,64.2z"/>
	<path class="st0" d="M31,57v6.4c0,0.4,0.1,0.7,0.3,0.9c0.2,0.2,0.5,0.3,1,0.3h1.5v2h-1.9c-1.1,0-1.9-0.3-2.5-0.8
		c-0.6-0.5-0.9-1.3-0.9-2.5V57h-1.4v-2h1.4v-2.9H31V55h2.8v2H31z"/>
	<path class="st0" d="M57,55l-3.6,11.6h-2.5L48.6,58l-2.3,8.5h-2.5L40.1,55h2.4l2.4,9.3l2.5-9.3h2.5l2.4,9.3l2.4-9.3H57z"/>
	<path class="st0" d="M60.9,66c-0.9-0.5-1.6-1.2-2.1-2.1C58.3,63,58,62,58,60.8c0-1.2,0.3-2.2,0.8-3.1c0.5-0.9,1.2-1.6,2.1-2.1
		c0.9-0.5,1.9-0.7,3-0.7c1.1,0,2.1,0.2,3,0.7c0.9,0.5,1.6,1.2,2.1,2.1c0.5,0.9,0.8,2,0.8,3.1c0,1.2-0.3,2.2-0.8,3.1
		c-0.5,0.9-1.3,1.6-2.2,2.1c-0.9,0.5-1.9,0.7-3,0.7C62.7,66.8,61.7,66.5,60.9,66z M65.5,64.2c0.5-0.3,1-0.7,1.3-1.3
		c0.3-0.6,0.5-1.3,0.5-2.1c0-0.8-0.2-1.6-0.5-2.1c-0.3-0.6-0.7-1-1.3-1.3c-0.5-0.3-1.1-0.4-1.7-0.4c-0.6,0-1.2,0.1-1.7,0.4
		c-0.5,0.3-0.9,0.7-1.2,1.3c-0.3,0.6-0.5,1.3-0.5,2.1c0,1.2,0.3,2.2,1,2.9c0.6,0.7,1.4,1,2.4,1C64.4,64.7,65,64.5,65.5,64.2z"/>
	<path class="st0" d="M76,55.3c0.6-0.3,1.3-0.5,2.1-0.5v2.5h-0.6c-0.9,0-1.6,0.2-2.1,0.7c-0.5,0.5-0.7,1.3-0.7,2.5v6.1h-2.4V55h2.4
		v1.7C74.9,56.1,75.4,55.6,76,55.3z"/>
	<path class="st0" d="M84.8,60.8l5.3,5.8h-3.2l-4.3-5v5h-2.4V51h2.4v9l4.2-5.1h3.3L84.8,60.8z"/>
	<path class="st0" d="M92,53c-0.3-0.3-0.4-0.7-0.4-1.1c0-0.4,0.1-0.8,0.4-1.1s0.7-0.4,1.1-0.4c0.4,0,0.8,0.1,1.1,0.4
		s0.4,0.7,0.4,1.1c0,0.4-0.1,0.8-0.4,1.1s-0.7,0.4-1.1,0.4C92.7,53.5,92.3,53.3,92,53z M94.3,55v11.6h-2.4V55H94.3z"/>
	<path class="st0" d="M105.7,55.4c0.7,0.4,1.3,0.9,1.7,1.7c0.4,0.7,0.6,1.6,0.6,2.7v6.8h-2.4v-6.5c0-1-0.3-1.8-0.8-2.4
		c-0.5-0.6-1.2-0.8-2.1-0.8c-0.9,0-1.6,0.3-2.1,0.8c-0.5,0.6-0.8,1.3-0.8,2.4v6.5h-2.4V55h2.4v1.3c0.4-0.5,0.9-0.8,1.5-1.1
		c0.6-0.3,1.3-0.4,1.9-0.4C104.2,54.8,105,55,105.7,55.4z"/>
	<path class="st0" d="M118.1,55.3c0.7,0.4,1.2,0.8,1.6,1.3V55h2.4v11.8c0,1.1-0.2,2-0.7,2.8c-0.4,0.8-1.1,1.5-1.9,2
		c-0.8,0.5-1.9,0.7-3,0.7c-1.6,0-2.9-0.4-3.9-1.1c-1-0.7-1.6-1.7-1.8-3h2.4c0.2,0.6,0.6,1.1,1.2,1.5c0.6,0.4,1.3,0.6,2.1,0.6
		c1,0,1.7-0.3,2.3-0.9s0.9-1.4,0.9-2.6v-1.9c-0.4,0.5-1,1-1.6,1.4c-0.7,0.4-1.5,0.6-2.4,0.6c-1,0-1.9-0.3-2.8-0.8
		c-0.8-0.5-1.5-1.2-2-2.1c-0.5-0.9-0.7-2-0.7-3.1s0.2-2.2,0.7-3.1c0.5-0.9,1.1-1.6,2-2.1c0.8-0.5,1.8-0.7,2.8-0.7
		C116.6,54.8,117.4,55,118.1,55.3z M119.2,58.7c-0.3-0.6-0.8-1-1.3-1.3c-0.5-0.3-1.1-0.5-1.7-0.5c-0.6,0-1.2,0.2-1.7,0.5
		c-0.5,0.3-1,0.7-1.3,1.3c-0.3,0.6-0.5,1.3-0.5,2.1c0,0.8,0.2,1.5,0.5,2.1s0.8,1.1,1.3,1.4c0.5,0.3,1.1,0.5,1.7,0.5
		c0.6,0,1.2-0.2,1.7-0.5c0.5-0.3,1-0.8,1.3-1.4c0.3-0.6,0.5-1.3,0.5-2.1C119.7,60,119.6,59.3,119.2,58.7z"/>
	<path class="st0" d="M127.9,63.7l-2.5,5.8h-1.6l1.5-5.8H127.9z"/>
	<path class="st0" d="M135.4,57.6c0.5-0.9,1.1-1.6,2-2.1c0.8-0.5,1.8-0.7,2.8-0.7c0.8,0,1.5,0.2,2.2,0.5c0.7,0.3,1.3,0.8,1.8,1.3V51
		h2.4v15.5h-2.4v-1.7c-0.4,0.6-0.9,1-1.6,1.4c-0.7,0.4-1.5,0.5-2.4,0.5c-1,0-1.9-0.3-2.8-0.8c-0.8-0.5-1.5-1.2-2-2.1
		c-0.5-0.9-0.7-2-0.7-3.1S134.9,58.5,135.4,57.6z M143.7,58.7c-0.3-0.6-0.8-1-1.3-1.3c-0.5-0.3-1.1-0.5-1.7-0.5
		c-0.6,0-1.2,0.2-1.7,0.5c-0.5,0.3-1,0.7-1.3,1.3c-0.3,0.6-0.5,1.3-0.5,2.1c0,0.8,0.2,1.5,0.5,2.1s0.8,1.1,1.3,1.4
		c0.5,0.3,1.1,0.5,1.7,0.5c0.6,0,1.2-0.2,1.7-0.5c0.5-0.3,1-0.8,1.3-1.4c0.3-0.6,0.5-1.3,0.5-2.1C144.2,60,144,59.3,143.7,58.7z"/>
	<path class="st0" d="M151.8,66c-0.9-0.5-1.6-1.2-2.1-2.1c-0.5-0.9-0.8-1.9-0.8-3.1c0-1.2,0.3-2.2,0.8-3.1c0.5-0.9,1.2-1.6,2.1-2.1
		c0.9-0.5,1.9-0.7,3-0.7c1.1,0,2.1,0.2,3,0.7c0.9,0.5,1.6,1.2,2.1,2.1c0.5,0.9,0.8,2,0.8,3.1c0,1.2-0.3,2.2-0.8,3.1
		c-0.5,0.9-1.3,1.6-2.2,2.1c-0.9,0.5-1.9,0.7-3,0.7C153.7,66.8,152.7,66.5,151.8,66z M156.5,64.2c0.5-0.3,1-0.7,1.3-1.3
		c0.3-0.6,0.5-1.3,0.5-2.1c0-0.8-0.2-1.6-0.5-2.1c-0.3-0.6-0.7-1-1.3-1.3c-0.5-0.3-1.1-0.4-1.7-0.4c-0.6,0-1.2,0.1-1.7,0.4
		c-0.5,0.3-0.9,0.7-1.2,1.3c-0.3,0.6-0.5,1.3-0.5,2.1c0,1.2,0.3,2.2,1,2.9c0.6,0.7,1.4,1,2.4,1C155.4,64.7,155.9,64.5,156.5,64.2z"
		/>
	<path class="st0" d="M173.6,61.7h-8.8c0.1,0.9,0.4,1.7,1,2.2c0.6,0.6,1.4,0.8,2.3,0.8c1.3,0,2.2-0.5,2.7-1.6h2.6
		c-0.4,1.1-1,1.9-1.9,2.6c-0.9,0.7-2.1,1-3.4,1c-1.1,0-2.1-0.2-3-0.7c-0.9-0.5-1.6-1.2-2.1-2.1c-0.5-0.9-0.7-1.9-0.7-3.1
		s0.2-2.2,0.7-3.1c0.5-0.9,1.2-1.6,2-2.1c0.9-0.5,1.9-0.7,3-0.7c1.1,0,2.1,0.2,2.9,0.7c0.9,0.5,1.5,1.1,2,2s0.7,1.9,0.7,3
		C173.7,60.9,173.7,61.3,173.6,61.7z M171.2,59.7c0-0.9-0.3-1.6-0.9-2.1c-0.6-0.5-1.4-0.8-2.3-0.8c-0.8,0-1.5,0.3-2.1,0.8
		s-0.9,1.2-1,2.1H171.2z"/>
	<path class="st0" d="M177.8,66.3c-0.7-0.3-1.3-0.8-1.7-1.3s-0.6-1.2-0.7-1.9h2.5c0,0.5,0.3,0.9,0.7,1.2c0.4,0.3,1,0.5,1.6,0.5
		c0.7,0,1.2-0.1,1.6-0.4c0.4-0.3,0.6-0.6,0.6-1c0-0.4-0.2-0.8-0.6-1s-1.1-0.4-2-0.7c-0.9-0.2-1.6-0.5-2.1-0.7c-0.5-0.2-1-0.6-1.4-1
		c-0.4-0.5-0.6-1.1-0.6-1.8c0-0.6,0.2-1.2,0.5-1.7s0.9-0.9,1.6-1.2c0.7-0.3,1.5-0.4,2.3-0.4c1.3,0,2.4,0.3,3.2,1
		c0.8,0.7,1.2,1.6,1.3,2.7h-2.4c0-0.5-0.3-0.9-0.6-1.2c-0.4-0.3-0.9-0.5-1.5-0.5c-0.6,0-1.1,0.1-1.4,0.4c-0.3,0.2-0.5,0.6-0.5,0.9
		c0,0.3,0.1,0.6,0.3,0.8s0.5,0.4,0.8,0.5c0.3,0.1,0.8,0.3,1.4,0.5c0.8,0.2,1.5,0.5,2.1,0.7s1,0.6,1.4,1c0.4,0.4,0.6,1,0.6,1.8
		c0,0.7-0.2,1.2-0.5,1.8c-0.4,0.5-0.9,0.9-1.5,1.2s-1.4,0.4-2.3,0.4C179.4,66.8,178.6,66.6,177.8,66.3z"/>
	<path class="st0" d="M192.9,53c-0.3-0.3-0.4-0.7-0.4-1.1c0-0.4,0.1-0.8,0.4-1.1s0.7-0.4,1.1-0.4c0.4,0,0.8,0.1,1.1,0.4
		s0.4,0.7,0.4,1.1c0,0.4-0.1,0.8-0.4,1.1s-0.7,0.4-1.1,0.4C193.5,53.5,193.2,53.3,192.9,53z M195.1,55v11.6h-2.4V55H195.1z"/>
	<path class="st0" d="M201.1,57v6.4c0,0.4,0.1,0.7,0.3,0.9c0.2,0.2,0.5,0.3,1,0.3h1.5v2H202c-1.1,0-1.9-0.3-2.5-0.8
		c-0.6-0.5-0.9-1.3-0.9-2.5V57h-1.4v-2h1.4v-2.9h2.4V55h2.8v2H201.1z"/>
	<path class="st0" d="M1.3,78.2c-0.3-0.3-0.4-0.7-0.4-1.1c0-0.4,0.1-0.8,0.4-1.1s0.7-0.4,1.1-0.4c0.4,0,0.8,0.1,1.1,0.4
		s0.4,0.7,0.4,1.1c0,0.4-0.1,0.8-0.4,1.1s-0.7,0.4-1.1,0.4C2,78.7,1.6,78.5,1.3,78.2z M3.6,80.2v11.6H1.2V80.2H3.6z"/>
	<path class="st0" d="M23.2,80.6c0.7,0.4,1.3,0.9,1.7,1.7c0.4,0.7,0.6,1.6,0.6,2.7v6.8h-2.4v-6.5c0-1-0.3-1.8-0.8-2.4
		c-0.5-0.6-1.2-0.8-2.1-0.8c-0.9,0-1.6,0.3-2.1,0.8c-0.5,0.6-0.8,1.3-0.8,2.4v6.5h-2.4v-6.5c0-1-0.3-1.8-0.8-2.4
		c-0.5-0.6-1.2-0.8-2.1-0.8c-0.9,0-1.6,0.3-2.1,0.8c-0.5,0.6-0.8,1.3-0.8,2.4v6.5H6.7V80.2h2.4v1.3c0.4-0.5,0.9-0.8,1.5-1.1
		c0.6-0.3,1.2-0.4,1.9-0.4c0.9,0,1.8,0.2,2.5,0.6c0.7,0.4,1.3,1,1.7,1.7c0.3-0.7,0.9-1.3,1.6-1.7c0.7-0.4,1.5-0.6,2.4-0.6
		C21.6,80,22.5,80.2,23.2,80.6z"/>
	<path class="st0" d="M32.6,80.6c0.7-0.4,1.5-0.5,2.4-0.5c1,0,1.9,0.2,2.8,0.7c0.8,0.5,1.5,1.2,2,2.1c0.5,0.9,0.7,1.9,0.7,3.1
		s-0.2,2.2-0.7,3.1c-0.5,0.9-1.1,1.6-2,2.1C36.9,91.7,36,92,35,92c-0.9,0-1.7-0.2-2.4-0.5c-0.7-0.4-1.2-0.8-1.7-1.3v7.2h-2.4V80.2
		h2.4v1.7C31.3,81.4,31.9,80.9,32.6,80.6z M37.5,83.9c-0.3-0.6-0.8-1-1.3-1.3c-0.5-0.3-1.1-0.5-1.7-0.5c-0.6,0-1.2,0.2-1.7,0.5
		c-0.5,0.3-1,0.8-1.3,1.3c-0.3,0.6-0.5,1.3-0.5,2.1c0,0.8,0.2,1.5,0.5,2.1c0.3,0.6,0.8,1,1.3,1.4c0.5,0.3,1.1,0.5,1.7,0.5
		c0.6,0,1.2-0.2,1.7-0.5c0.5-0.3,1-0.8,1.3-1.4c0.3-0.6,0.5-1.3,0.5-2.1C38,85.1,37.8,84.4,37.5,83.9z"/>
	<path class="st0" d="M42.7,82.8c0.5-0.9,1.1-1.6,2-2.1c0.8-0.5,1.8-0.7,2.8-0.7c0.9,0,1.7,0.2,2.4,0.5c0.7,0.4,1.2,0.8,1.6,1.3
		v-1.7h2.4v11.6h-2.4V90c-0.4,0.5-1,1-1.7,1.4S48.3,92,47.4,92c-1,0-1.9-0.3-2.7-0.8c-0.8-0.5-1.5-1.2-2-2.1c-0.5-0.9-0.7-2-0.7-3.1
		S42.2,83.7,42.7,82.8z M51,83.9c-0.3-0.6-0.8-1-1.3-1.3c-0.5-0.3-1.1-0.5-1.7-0.5c-0.6,0-1.2,0.2-1.7,0.5c-0.5,0.3-1,0.7-1.3,1.3
		c-0.3,0.6-0.5,1.3-0.5,2.1c0,0.8,0.2,1.5,0.5,2.1s0.8,1.1,1.3,1.4c0.5,0.3,1.1,0.5,1.7,0.5c0.6,0,1.2-0.2,1.7-0.5
		c0.5-0.3,1-0.8,1.3-1.4c0.3-0.6,0.5-1.3,0.5-2.1C51.4,85.2,51.3,84.5,51,83.9z"/>
	<path class="st0" d="M56.9,82.8c0.5-0.9,1.2-1.6,2-2.1c0.9-0.5,1.8-0.7,2.9-0.7c1.4,0,2.6,0.3,3.5,1c0.9,0.7,1.5,1.6,1.9,2.8h-2.6
		c-0.2-0.6-0.5-1-1-1.3c-0.5-0.3-1-0.5-1.7-0.5c-1,0-1.8,0.3-2.3,1s-0.9,1.7-0.9,2.9s0.3,2.2,0.9,2.9c0.6,0.7,1.4,1,2.3,1
		c1.4,0,2.3-0.6,2.8-1.8h2.6c-0.3,1.2-1,2.1-1.9,2.8c-0.9,0.7-2.1,1-3.4,1c-1.1,0-2.1-0.2-2.9-0.7c-0.9-0.5-1.5-1.2-2-2.1
		c-0.5-0.9-0.7-1.9-0.7-3.1S56.5,83.7,56.9,82.8z"/>
	<path class="st0" d="M72.4,82.2v6.4c0,0.4,0.1,0.7,0.3,0.9c0.2,0.2,0.5,0.3,1,0.3h1.5v2h-1.9c-1.1,0-1.9-0.3-2.5-0.8
		c-0.6-0.5-0.9-1.3-0.9-2.5v-6.4h-1.4v-2H70v-2.9h2.4v2.9h2.8v2H72.4z"/>
	<path class="st0" d="M93.3,80.2l-7.1,17h-2.5l2.4-5.6l-4.6-11.4h2.7l3.3,8.8l3.4-8.8H93.3z"/>
	<path class="st0" d="M97.2,91.2c-0.9-0.5-1.6-1.2-2.1-2.1c-0.5-0.9-0.8-1.9-0.8-3.1c0-1.2,0.3-2.2,0.8-3.1c0.5-0.9,1.2-1.6,2.1-2.1
		c0.9-0.5,1.9-0.7,3-0.7c1.1,0,2.1,0.2,3,0.7c0.9,0.5,1.6,1.2,2.1,2.1c0.5,0.9,0.8,2,0.8,3.1c0,1.2-0.3,2.2-0.8,3.1
		c-0.5,0.9-1.3,1.6-2.2,2.1c-0.9,0.5-1.9,0.7-3,0.7C99,92,98,91.7,97.2,91.2z M101.9,89.4c0.5-0.3,1-0.7,1.3-1.3
		c0.3-0.6,0.5-1.3,0.5-2.1c0-0.8-0.2-1.6-0.5-2.1c-0.3-0.6-0.7-1-1.3-1.3c-0.5-0.3-1.1-0.4-1.7-0.4c-0.6,0-1.2,0.1-1.7,0.4
		c-0.5,0.3-0.9,0.7-1.2,1.3c-0.3,0.6-0.5,1.3-0.5,2.1c0,1.2,0.3,2.2,1,2.9c0.6,0.7,1.4,1,2.4,1C100.7,89.9,101.3,89.7,101.9,89.4z"
		/>
	<path class="st0" d="M119,80.2v11.6h-2.4v-1.4c-0.4,0.5-0.9,0.9-1.5,1.1c-0.6,0.3-1.3,0.4-1.9,0.4c-0.9,0-1.7-0.2-2.4-0.6
		c-0.7-0.4-1.3-0.9-1.7-1.7c-0.4-0.7-0.6-1.6-0.6-2.7v-6.8h2.4v6.4c0,1,0.3,1.8,0.8,2.4c0.5,0.6,1.2,0.8,2.1,0.8
		c0.9,0,1.6-0.3,2.1-0.8c0.5-0.6,0.8-1.3,0.8-2.4v-6.4H119z"/>
	<path class="st0" d="M125.9,80.5c0.6-0.3,1.3-0.5,2.1-0.5v2.5h-0.6c-0.9,0-1.6,0.2-2.1,0.7c-0.5,0.5-0.7,1.3-0.7,2.5v6.1h-2.4V80.2
		h2.4v1.7C124.9,81.3,125.3,80.8,125.9,80.5z"/>
	<path class="st0" d="M135.6,82.8c0.5-0.9,1.1-1.6,2-2.1c0.8-0.5,1.8-0.7,2.8-0.7c0.9,0,1.7,0.2,2.4,0.5c0.7,0.4,1.2,0.8,1.6,1.3
		v-1.7h2.4v11.6h-2.4V90c-0.4,0.5-1,1-1.7,1.4s-1.5,0.5-2.4,0.5c-1,0-1.9-0.3-2.7-0.8c-0.8-0.5-1.5-1.2-2-2.1
		c-0.5-0.9-0.7-2-0.7-3.1S135.1,83.7,135.6,82.8z M143.8,83.9c-0.3-0.6-0.8-1-1.3-1.3c-0.5-0.3-1.1-0.5-1.7-0.5
		c-0.6,0-1.2,0.2-1.7,0.5c-0.5,0.3-1,0.7-1.3,1.3c-0.3,0.6-0.5,1.3-0.5,2.1c0,0.8,0.2,1.5,0.5,2.1s0.8,1.1,1.3,1.4
		c0.5,0.3,1.1,0.5,1.7,0.5c0.6,0,1.2-0.2,1.7-0.5c0.5-0.3,1-0.8,1.3-1.4c0.3-0.6,0.5-1.3,0.5-2.1C144.3,85.2,144.2,84.5,143.8,83.9z
		"/>
	<path class="st0" d="M154,80.5c0.7-0.4,1.5-0.5,2.4-0.5c1,0,1.9,0.2,2.8,0.7c0.8,0.5,1.5,1.2,2,2.1c0.5,0.9,0.7,1.9,0.7,3.1
		s-0.2,2.2-0.7,3.1c-0.5,0.9-1.1,1.6-2,2.1c-0.8,0.5-1.8,0.8-2.8,0.8c-0.9,0-1.7-0.2-2.4-0.5c-0.7-0.3-1.2-0.8-1.6-1.3v1.7h-2.4
		V76.2h2.4v5.7C152.7,81.4,153.3,80.9,154,80.5z M158.8,83.9c-0.3-0.6-0.8-1-1.3-1.3c-0.5-0.3-1.1-0.5-1.7-0.5
		c-0.6,0-1.2,0.2-1.7,0.5c-0.5,0.3-1,0.8-1.3,1.3c-0.3,0.6-0.5,1.3-0.5,2.1c0,0.8,0.2,1.5,0.5,2.1c0.3,0.6,0.8,1,1.3,1.4
		c0.5,0.3,1.1,0.5,1.7,0.5c0.6,0,1.2-0.2,1.7-0.5c0.5-0.3,1-0.8,1.3-1.4c0.3-0.6,0.5-1.3,0.5-2.1C159.3,85.1,159.2,84.4,158.8,83.9z
		"/>
	<path class="st0" d="M164.3,78.2c-0.3-0.3-0.4-0.7-0.4-1.1c0-0.4,0.1-0.8,0.4-1.1s0.7-0.4,1.1-0.4c0.4,0,0.8,0.1,1.1,0.4
		s0.4,0.7,0.4,1.1c0,0.4-0.1,0.8-0.4,1.1s-0.7,0.4-1.1,0.4C164.9,78.7,164.6,78.5,164.3,78.2z M166.5,80.2v11.6h-2.4V80.2H166.5z"/>
	<path class="st0" d="M172.1,76.2v15.5h-2.4V76.2H172.1z"/>
	<path class="st0" d="M175.3,78.2c-0.3-0.3-0.4-0.7-0.4-1.1c0-0.4,0.1-0.8,0.4-1.1s0.7-0.4,1.1-0.4c0.4,0,0.8,0.1,1.1,0.4
		s0.4,0.7,0.4,1.1c0,0.4-0.1,0.8-0.4,1.1s-0.7,0.4-1.1,0.4C176,78.7,175.6,78.5,175.3,78.2z M177.6,80.2v11.6h-2.4V80.2H177.6z"/>
	<path class="st0" d="M183.6,82.2v6.4c0,0.4,0.1,0.7,0.3,0.9c0.2,0.2,0.5,0.3,1,0.3h1.5v2h-1.9c-1.1,0-1.9-0.3-2.5-0.8
		c-0.6-0.5-0.9-1.3-0.9-2.5v-6.4h-1.4v-2h1.4v-2.9h2.4v2.9h2.8v2H183.6z"/>
	<path class="st0" d="M199,80.2l-7.1,17h-2.5l2.4-5.6l-4.6-11.4h2.7l3.3,8.8l3.4-8.8H199z"/>
	<path class="st0" d="M4,107.4v6.4c0,0.4,0.1,0.7,0.3,0.9c0.2,0.2,0.5,0.3,1,0.3h1.5v2H4.9c-1.1,0-1.9-0.3-2.5-0.8
		c-0.6-0.5-0.9-1.3-0.9-2.5v-6.4H0.2v-2h1.4v-2.9H4v2.9h2.8v2H4z"/>
	<path class="st0" d="M11,116.4c-0.9-0.5-1.6-1.2-2.1-2.1c-0.5-0.9-0.8-1.9-0.8-3.1c0-1.2,0.3-2.2,0.8-3.1c0.5-0.9,1.2-1.6,2.1-2.1
		c0.9-0.5,1.9-0.7,3-0.7c1.1,0,2.1,0.2,3,0.7c0.9,0.5,1.6,1.2,2.1,2.1c0.5,0.9,0.8,2,0.8,3.1c0,1.2-0.3,2.2-0.8,3.1
		c-0.5,0.9-1.3,1.6-2.2,2.1c-0.9,0.5-1.9,0.7-3,0.7C12.9,117.2,11.9,116.9,11,116.4z M15.7,114.6c0.5-0.3,1-0.7,1.3-1.3
		c0.3-0.6,0.5-1.3,0.5-2.1c0-0.8-0.2-1.6-0.5-2.1c-0.3-0.6-0.7-1-1.3-1.3c-0.5-0.3-1.1-0.4-1.7-0.4c-0.6,0-1.2,0.1-1.7,0.4
		c-0.5,0.3-0.9,0.7-1.2,1.3c-0.3,0.6-0.5,1.3-0.5,2.1c0,1.2,0.3,2.2,1,2.9c0.6,0.7,1.4,1,2.4,1C14.6,115.1,15.2,114.9,15.7,114.6z"
		/>
	<path class="st0" d="M31.9,105.8c0.7-0.4,1.5-0.5,2.4-0.5c1,0,1.9,0.2,2.8,0.7c0.8,0.5,1.5,1.2,2,2.1c0.5,0.9,0.7,1.9,0.7,3.1
		s-0.2,2.2-0.7,3.1c-0.5,0.9-1.1,1.6-2,2.1c-0.8,0.5-1.8,0.8-2.8,0.8c-0.9,0-1.7-0.2-2.4-0.5c-0.7-0.4-1.2-0.8-1.7-1.3v7.2h-2.4
		v-17.1h2.4v1.7C30.6,106.6,31.2,106.1,31.9,105.8z M36.8,109.1c-0.3-0.6-0.8-1-1.3-1.3c-0.5-0.3-1.1-0.5-1.7-0.5
		c-0.6,0-1.2,0.2-1.7,0.5c-0.5,0.3-1,0.8-1.3,1.3c-0.3,0.6-0.5,1.3-0.5,2.1c0,0.8,0.2,1.5,0.5,2.1c0.3,0.6,0.8,1,1.3,1.4
		c0.5,0.3,1.1,0.5,1.7,0.5c0.6,0,1.2-0.2,1.7-0.5c0.5-0.3,1-0.8,1.3-1.4c0.3-0.6,0.5-1.3,0.5-2.1C37.3,110.3,37.1,109.6,36.8,109.1z
		"/>
	<path class="st0" d="M45.9,105.7c0.6-0.3,1.3-0.5,2.1-0.5v2.5h-0.6c-0.9,0-1.6,0.2-2.1,0.7c-0.5,0.5-0.7,1.3-0.7,2.5v6.1h-2.4
		v-11.6h2.4v1.7C44.8,106.5,45.3,106,45.9,105.7z"/>
	<path class="st0" d="M52.2,116.4c-0.9-0.5-1.6-1.2-2.1-2.1c-0.5-0.9-0.8-1.9-0.8-3.1c0-1.2,0.3-2.2,0.8-3.1
		c0.5-0.9,1.2-1.6,2.1-2.1c0.9-0.5,1.9-0.7,3-0.7c1.1,0,2.1,0.2,3,0.7c0.9,0.5,1.6,1.2,2.1,2.1c0.5,0.9,0.8,2,0.8,3.1
		c0,1.2-0.3,2.2-0.8,3.1c-0.5,0.9-1.3,1.6-2.2,2.1c-0.9,0.5-1.9,0.7-3,0.7C54.1,117.2,53.1,116.9,52.2,116.4z M56.9,114.6
		c0.5-0.3,1-0.7,1.3-1.3c0.3-0.6,0.5-1.3,0.5-2.1c0-0.8-0.2-1.6-0.5-2.1c-0.3-0.6-0.7-1-1.3-1.3c-0.5-0.3-1.1-0.4-1.7-0.4
		c-0.6,0-1.2,0.1-1.7,0.4c-0.5,0.3-0.9,0.7-1.2,1.3c-0.3,0.6-0.5,1.3-0.5,2.1c0,1.2,0.3,2.2,1,2.9c0.6,0.7,1.4,1,2.4,1
		C55.8,115.1,56.4,114.9,56.9,114.6z"/>
	<path class="st0" d="M68,114.8l3.3-9.4h2.5L69.4,117h-2.9l-4.4-11.6h2.6L68,114.8z"/>
	<path class="st0" d="M75.8,103.4c-0.3-0.3-0.4-0.7-0.4-1.1c0-0.4,0.1-0.8,0.4-1.1s0.7-0.4,1.1-0.4c0.4,0,0.8,0.1,1.1,0.4
		s0.4,0.7,0.4,1.1c0,0.4-0.1,0.8-0.4,1.1s-0.7,0.4-1.1,0.4C76.4,103.9,76.1,103.7,75.8,103.4z M78,105.4V117h-2.4v-11.6H78z"/>
	<path class="st0" d="M81.1,108c0.5-0.9,1.1-1.6,2-2.1c0.8-0.5,1.8-0.7,2.8-0.7c0.8,0,1.5,0.2,2.2,0.5c0.7,0.3,1.3,0.8,1.8,1.3v-5.6
		h2.4V117h-2.4v-1.7c-0.4,0.6-0.9,1-1.6,1.4c-0.7,0.4-1.5,0.5-2.4,0.5c-1,0-1.9-0.3-2.8-0.8c-0.8-0.5-1.5-1.2-2-2.1
		c-0.5-0.9-0.7-2-0.7-3.1S80.6,108.9,81.1,108z M89.4,109.1c-0.3-0.6-0.8-1-1.3-1.3c-0.5-0.3-1.1-0.5-1.7-0.5
		c-0.6,0-1.2,0.2-1.7,0.5c-0.5,0.3-1,0.7-1.3,1.3c-0.3,0.6-0.5,1.3-0.5,2.1c0,0.8,0.2,1.5,0.5,2.1s0.8,1.1,1.3,1.4
		c0.5,0.3,1.1,0.5,1.7,0.5c0.6,0,1.2-0.2,1.7-0.5c0.5-0.3,1-0.8,1.3-1.4c0.3-0.6,0.5-1.3,0.5-2.1C89.9,110.4,89.7,109.7,89.4,109.1z
		"/>
	<path class="st0" d="M105.9,112.1h-8.8c0.1,0.9,0.4,1.7,1,2.2c0.6,0.6,1.4,0.8,2.3,0.8c1.3,0,2.2-0.5,2.7-1.6h2.6
		c-0.4,1.1-1,1.9-1.9,2.6c-0.9,0.7-2.1,1-3.4,1c-1.1,0-2.1-0.2-3-0.7c-0.9-0.5-1.6-1.2-2.1-2.1c-0.5-0.9-0.7-1.9-0.7-3.1
		s0.2-2.2,0.7-3.1c0.5-0.9,1.2-1.6,2-2.1c0.9-0.5,1.9-0.7,3-0.7c1.1,0,2.1,0.2,2.9,0.7c0.9,0.5,1.5,1.1,2,2s0.7,1.9,0.7,3
		C106,111.3,106,111.7,105.9,112.1z M103.5,110.1c0-0.9-0.3-1.6-0.9-2.1c-0.6-0.5-1.4-0.8-2.3-0.8c-0.8,0-1.5,0.3-2.1,0.8
		s-0.9,1.2-1,2.1H103.5z"/>
	<path class="st0" d="M113.8,108c0.5-0.9,1.2-1.6,2-2.1c0.9-0.5,1.8-0.7,2.9-0.7c1.4,0,2.6,0.3,3.5,1c0.9,0.7,1.5,1.6,1.9,2.8h-2.6
		c-0.2-0.6-0.5-1-1-1.3c-0.5-0.3-1-0.5-1.7-0.5c-1,0-1.8,0.3-2.3,1s-0.9,1.7-0.9,2.9s0.3,2.2,0.9,2.9c0.6,0.7,1.4,1,2.3,1
		c1.4,0,2.3-0.6,2.8-1.8h2.6c-0.3,1.2-1,2.1-1.9,2.8c-0.9,0.7-2.1,1-3.4,1c-1.1,0-2.1-0.2-2.9-0.7c-0.9-0.5-1.5-1.2-2-2.1
		c-0.5-0.9-0.7-1.9-0.7-3.1S113.3,108.9,113.8,108z"/>
	<path class="st0" d="M126.4,108c0.5-0.9,1.1-1.6,2-2.1c0.8-0.5,1.8-0.7,2.8-0.7c0.9,0,1.7,0.2,2.4,0.5c0.7,0.4,1.2,0.8,1.6,1.3
		v-1.7h2.4V117h-2.4v-1.7c-0.4,0.5-1,1-1.7,1.4s-1.5,0.5-2.4,0.5c-1,0-1.9-0.3-2.7-0.8c-0.8-0.5-1.5-1.2-2-2.1
		c-0.5-0.9-0.7-2-0.7-3.1S125.9,108.9,126.4,108z M134.6,109.1c-0.3-0.6-0.8-1-1.3-1.3c-0.5-0.3-1.1-0.5-1.7-0.5
		c-0.6,0-1.2,0.2-1.7,0.5c-0.5,0.3-1,0.7-1.3,1.3c-0.3,0.6-0.5,1.3-0.5,2.1c0,0.8,0.2,1.5,0.5,2.1s0.8,1.1,1.3,1.4
		c0.5,0.3,1.1,0.5,1.7,0.5c0.6,0,1.2-0.2,1.7-0.5c0.5-0.3,1-0.8,1.3-1.4c0.3-0.6,0.5-1.3,0.5-2.1
		C135.1,110.4,134.9,109.7,134.6,109.1z"/>
	<path class="st0" d="M144.5,105.7c0.6-0.3,1.3-0.5,2.1-0.5v2.5h-0.6c-0.9,0-1.6,0.2-2.1,0.7c-0.5,0.5-0.7,1.3-0.7,2.5v6.1h-2.4
		v-11.6h2.4v1.7C143.4,106.5,143.9,106,144.5,105.7z"/>
	<path class="st0" d="M159.3,112.1h-8.8c0.1,0.9,0.4,1.7,1,2.2c0.6,0.6,1.4,0.8,2.3,0.8c1.3,0,2.2-0.5,2.7-1.6h2.6
		c-0.4,1.1-1,1.9-1.9,2.6c-0.9,0.7-2.1,1-3.4,1c-1.1,0-2.1-0.2-3-0.7c-0.9-0.5-1.6-1.2-2.1-2.1c-0.5-0.9-0.7-1.9-0.7-3.1
		s0.2-2.2,0.7-3.1c0.5-0.9,1.2-1.6,2-2.1c0.9-0.5,1.9-0.7,3-0.7c1.1,0,2.1,0.2,2.9,0.7c0.9,0.5,1.5,1.1,2,2s0.7,1.9,0.7,3
		C159.3,111.3,159.3,111.7,159.3,112.1z M156.8,110.1c0-0.9-0.3-1.6-0.9-2.1c-0.6-0.5-1.4-0.8-2.3-0.8c-0.8,0-1.5,0.3-2.1,0.8
		s-0.9,1.2-1,2.1H156.8z"/>
	<path class="st0" d="M169.1,103.3c0.9,0.8,1.3,1.9,1.3,3.2c0,1.4-0.4,2.5-1.3,3.2c-0.9,0.7-2.1,1.1-3.6,1.1l-0.1,1.7h-2.1l-0.1-3.3
		h0.7c1.4,0,2.4-0.2,3.1-0.5c0.7-0.4,1.1-1.1,1.1-2.1c0-0.7-0.2-1.3-0.6-1.7c-0.4-0.4-1-0.6-1.8-0.6c-0.8,0-1.4,0.2-1.8,0.6
		c-0.4,0.4-0.7,1-0.7,1.7H161c0-0.8,0.2-1.6,0.6-2.2c0.4-0.7,0.9-1.2,1.6-1.5c0.7-0.4,1.5-0.5,2.5-0.5
		C167.1,102.2,168.2,102.6,169.1,103.3z M163.2,116.7c-0.3-0.3-0.4-0.7-0.4-1.1c0-0.4,0.1-0.8,0.4-1.1s0.7-0.4,1.1-0.4
		c0.4,0,0.8,0.1,1.1,0.4c0.3,0.3,0.4,0.7,0.4,1.1c0,0.4-0.1,0.8-0.4,1.1c-0.3,0.3-0.7,0.4-1.1,0.4
		C163.8,117.1,163.5,117,163.2,116.7z"/>
</g>
<g>
	<path class="st0" d="M88.3,172.6l-3.6,6.8v4.4h-1.1v-4.4l-3.6-6.8h1.3l2.9,5.8l2.9-5.8H88.3z"/>
	<path class="st0" d="M97.8,179.9h-7.2c0,0.7,0.2,1.2,0.5,1.7c0.3,0.5,0.7,0.8,1.1,1.1c0.5,0.2,1,0.4,1.5,0.4c0.7,0,1.3-0.2,1.8-0.5
		c0.5-0.4,0.8-0.8,1-1.4h1.2c-0.2,0.9-0.7,1.5-1.4,2.1c-0.7,0.5-1.6,0.8-2.6,0.8c-0.8,0-1.6-0.2-2.2-0.6c-0.7-0.4-1.2-0.9-1.5-1.6
		c-0.4-0.7-0.6-1.5-0.6-2.4c0-0.9,0.2-1.7,0.5-2.4c0.4-0.7,0.9-1.2,1.5-1.6s1.4-0.5,2.2-0.5s1.6,0.2,2.2,0.5
		c0.6,0.4,1.1,0.9,1.4,1.5s0.5,1.3,0.5,2C97.8,179.4,97.8,179.7,97.8,179.9z M96.3,177.3c-0.3-0.5-0.6-0.8-1.1-1
		c-0.5-0.2-1-0.4-1.5-0.4c-0.8,0-1.5,0.3-2.1,0.8c-0.6,0.5-0.9,1.3-1,2.3h6.1C96.7,178.3,96.6,177.7,96.3,177.3z"/>
	<path class="st0" d="M100.4,183.2c-0.6-0.5-1-1.1-1.1-1.9h1.2c0.1,0.5,0.3,0.9,0.7,1.2c0.4,0.3,1,0.5,1.7,0.5
		c0.6,0,1.1-0.1,1.4-0.4c0.3-0.3,0.5-0.6,0.5-1.1c0-0.3-0.1-0.5-0.3-0.7c-0.2-0.2-0.4-0.3-0.7-0.5c-0.3-0.1-0.7-0.2-1.2-0.4
		c-0.7-0.2-1.2-0.3-1.6-0.5c-0.4-0.2-0.7-0.4-1-0.8s-0.4-0.8-0.4-1.4c0-0.4,0.1-0.8,0.4-1.2c0.3-0.4,0.6-0.7,1.1-0.9
		c0.5-0.2,1-0.3,1.6-0.3c0.9,0,1.7,0.2,2.3,0.7s0.9,1.1,0.9,2h-1.1c0-0.5-0.2-0.9-0.6-1.2c-0.4-0.3-0.9-0.5-1.5-0.5
		c-0.6,0-1,0.1-1.4,0.4s-0.5,0.6-0.5,1c0,0.3,0.1,0.6,0.3,0.8c0.2,0.2,0.5,0.4,0.8,0.5c0.3,0.1,0.7,0.3,1.2,0.4
		c0.6,0.2,1.1,0.3,1.5,0.5c0.4,0.2,0.7,0.4,1,0.7c0.3,0.3,0.4,0.7,0.4,1.2c0,0.5-0.1,0.9-0.4,1.3s-0.6,0.7-1.1,0.9
		c-0.5,0.2-1,0.3-1.6,0.3C101.9,183.9,101.1,183.7,100.4,183.2z"/>
</g>
<g>
	<path class="st0" d="M89.3,242h-1.1l-6.2-9.4v9.4h-1.1v-11.2H82l6.2,9.4v-9.4h1.1V242z"/>
	<path class="st0" d="M93.5,241.6c-0.7-0.4-1.2-0.9-1.6-1.6c-0.4-0.7-0.6-1.5-0.6-2.4c0-0.9,0.2-1.7,0.6-2.4
		c0.4-0.7,0.9-1.2,1.6-1.6c0.7-0.4,1.4-0.6,2.2-0.6c0.8,0,1.6,0.2,2.2,0.6c0.7,0.4,1.2,0.9,1.6,1.6c0.4,0.7,0.6,1.5,0.6,2.4
		c0,0.9-0.2,1.7-0.6,2.4c-0.4,0.7-0.9,1.2-1.6,1.6s-1.4,0.6-2.2,0.6C94.9,242.1,94.1,241.9,93.5,241.6z M97.3,240.8
		c0.5-0.3,0.9-0.7,1.2-1.2s0.5-1.2,0.5-1.9c0-0.8-0.1-1.4-0.4-1.9c-0.3-0.5-0.7-0.9-1.2-1.2c-0.5-0.3-1-0.4-1.6-0.4
		s-1.1,0.1-1.6,0.4c-0.5,0.3-0.9,0.7-1.2,1.2c-0.3,0.5-0.4,1.2-0.4,1.9c0,0.8,0.1,1.4,0.4,1.9c0.3,0.5,0.7,0.9,1.2,1.2
		c0.5,0.3,1,0.4,1.6,0.4C96.3,241.2,96.8,241,97.3,240.8z"/>
</g>
<g>
	<g>
		<path class="st1" d="M12.3,171.7c-0.4-0.3-1-0.5-1.7-0.5c-1.1,0-2,0.4-2.5,1.3c-0.6,0.9-0.8,2.3-0.9,4.3c0.4-0.6,0.9-1.1,1.6-1.4
			c0.7-0.3,1.5-0.5,2.3-0.5c0.9,0,1.8,0.2,2.5,0.6c0.7,0.4,1.3,1,1.7,1.8c0.4,0.8,0.6,1.7,0.6,2.7c0,1-0.2,1.9-0.6,2.7
			c-0.4,0.8-1,1.4-1.7,1.8c-0.8,0.4-1.7,0.7-2.8,0.7c-1.5,0-2.6-0.3-3.4-1s-1.4-1.6-1.7-2.7s-0.5-2.6-0.5-4.4c0-5.2,1.8-7.8,5.5-7.8
			c1.4,0,2.5,0.4,3.3,1.1s1.3,1.7,1.4,2.8h-2.2C13,172.5,12.7,172,12.3,171.7z M8.4,177.6c-0.6,0.5-0.9,1.3-0.9,2.2
			c0,1,0.3,1.8,0.8,2.3c0.6,0.6,1.3,0.9,2.3,0.9c0.9,0,1.6-0.3,2.1-0.8c0.5-0.6,0.8-1.3,0.8-2.2c0-1-0.2-1.7-0.8-2.3
			c-0.5-0.6-1.2-0.9-2.2-0.9C9.7,176.8,9,177.1,8.4,177.6z"/>
		<path class="st1" d="M18.2,171.8v-2.2h4.4V185h-2.4v-13.3H18.2z"/>
		<path class="st1" d="M26.1,184.7c-0.3-0.3-0.4-0.7-0.4-1.1s0.1-0.8,0.4-1.1c0.3-0.3,0.7-0.4,1.1-0.4c0.4,0,0.8,0.1,1.1,0.4
			c0.3,0.3,0.4,0.7,0.4,1.1s-0.1,0.8-0.4,1.1c-0.3,0.3-0.7,0.4-1.1,0.4C26.8,185.2,26.4,185,26.1,184.7z"/>
		<path class="st1" d="M41,171.6h-7.1v4.2c0.3-0.4,0.7-0.7,1.3-1c0.6-0.3,1.2-0.4,1.9-0.4c1.2,0,2.2,0.3,2.9,0.8
			c0.7,0.5,1.3,1.2,1.6,1.9c0.3,0.8,0.5,1.6,0.5,2.5c0,1-0.2,2-0.6,2.8s-1,1.5-1.8,1.9s-1.8,0.7-2.9,0.7c-1.5,0-2.8-0.4-3.7-1.1
			s-1.5-1.8-1.7-3h2.4c0.2,0.7,0.5,1.2,1,1.6c0.5,0.4,1.2,0.6,2,0.6c1,0,1.8-0.3,2.3-0.9c0.5-0.6,0.8-1.4,0.8-2.4
			c0-1-0.3-1.8-0.8-2.3c-0.5-0.5-1.3-0.8-2.2-0.8c-0.7,0-1.3,0.2-1.8,0.5c-0.5,0.3-0.8,0.8-1,1.4h-2.3v-8.9H41V171.6z"/>
		<path class="st1" d="M45.1,170.9c0.6-0.6,1.4-0.9,2.3-0.9c0.9,0,1.7,0.3,2.3,0.9s0.9,1.4,0.9,2.4c0,1-0.3,1.8-0.9,2.4
			s-1.4,0.9-2.3,0.9c-0.9,0-1.7-0.3-2.3-0.9s-0.9-1.4-0.9-2.4C44.2,172.3,44.5,171.5,45.1,170.9z M46.1,173.3c0,1.2,0.4,1.9,1.3,1.9
			c0.4,0,0.8-0.2,1-0.5c0.2-0.3,0.3-0.8,0.3-1.4c0-1.2-0.4-1.8-1.3-1.8C46.5,171.5,46.1,172.1,46.1,173.3z M57.1,170.3L48.7,185
			h-2.4l8.5-14.8H57.1z M53.7,179.6c0.6-0.6,1.4-0.9,2.3-0.9c0.9,0,1.7,0.3,2.3,0.9c0.6,0.6,0.9,1.4,0.9,2.4s-0.3,1.8-0.9,2.4
			c-0.6,0.6-1.4,0.9-2.3,0.9c-0.9,0-1.7-0.3-2.3-0.9s-0.9-1.4-0.9-2.4S53.1,180.1,53.7,179.6z M54.7,182c0,1.2,0.4,1.8,1.3,1.8
			c0.9,0,1.3-0.6,1.3-1.8s-0.4-1.8-1.3-1.8C55.1,180.1,54.7,180.8,54.7,182z"/>
	</g>
</g>
<g>
	<g>
		<path class="st1" d="M2.7,229.5c0.9-0.7,2.1-1.1,3.6-1.1c1,0,1.8,0.2,2.6,0.5c0.7,0.4,1.3,0.8,1.6,1.4c0.4,0.6,0.6,1.3,0.6,2.1
			c0,0.9-0.2,1.6-0.7,2.2c-0.5,0.6-1,1-1.7,1.3v0.1c0.8,0.3,1.5,0.7,2,1.4s0.7,1.5,0.7,2.6c0,0.8-0.2,1.6-0.6,2.2
			c-0.4,0.7-0.9,1.2-1.7,1.5c-0.8,0.4-1.6,0.6-2.7,0.6c-1.5,0-2.8-0.4-3.8-1.2s-1.5-1.9-1.6-3.4h2.3c0.1,0.8,0.3,1.4,0.9,1.8
			c0.5,0.5,1.2,0.7,2.1,0.7c0.9,0,1.5-0.2,2-0.7c0.5-0.5,0.7-1.1,0.7-1.8c0-1-0.3-1.7-0.9-2.1c-0.6-0.4-1.6-0.6-2.9-0.6H4.6v-2h0.6
			c1.1,0,2-0.2,2.6-0.6c0.6-0.4,0.9-0.9,0.9-1.7c0-0.7-0.2-1.2-0.7-1.6s-1.1-0.6-1.9-0.6c-0.8,0-1.4,0.2-1.8,0.6s-0.7,0.9-0.8,1.5
			H1.2C1.3,231.3,1.8,230.2,2.7,229.5z"/>
		<path class="st1" d="M14.3,232.7c0-0.8,0.2-1.5,0.6-2.1s1-1.1,1.7-1.5s1.7-0.6,2.8-0.6c1.1,0,2,0.2,2.8,0.6
			c0.8,0.4,1.3,0.9,1.7,1.5s0.6,1.3,0.6,2.1c0,0.8-0.2,1.5-0.6,2.1c-0.4,0.6-0.9,1.1-1.6,1.4c0.8,0.3,1.4,0.8,1.9,1.5
			c0.5,0.7,0.7,1.5,0.7,2.4c0,0.9-0.2,1.7-0.7,2.4c-0.5,0.7-1.1,1.3-2,1.6c-0.8,0.4-1.8,0.6-2.8,0.6s-2-0.2-2.8-0.6
			c-0.8-0.4-1.5-0.9-1.9-1.6s-0.7-1.5-0.7-2.4c0-0.9,0.2-1.7,0.7-2.4c0.5-0.7,1.1-1.1,1.9-1.4C15,235.4,14.3,234.3,14.3,232.7z
			 M17.1,237.9c-0.6,0.5-0.9,1.1-0.9,2c0,0.8,0.3,1.5,0.8,2s1.3,0.8,2.3,0.8c1,0,1.7-0.3,2.3-0.8c0.6-0.5,0.8-1.2,0.8-2
			c0-0.8-0.3-1.5-0.9-2c-0.6-0.5-1.3-0.7-2.3-0.7S17.7,237.4,17.1,237.9z M21.4,231.1c-0.5-0.4-1.2-0.6-2-0.6c-0.8,0-1.5,0.2-2,0.6
			c-0.5,0.4-0.7,1-0.7,1.8c0,0.7,0.3,1.3,0.8,1.7c0.5,0.4,1.2,0.7,2,0.7c0.8,0,1.5-0.2,2-0.7c0.5-0.5,0.8-1,0.8-1.7
			C22.1,232.2,21.9,231.6,21.4,231.1z"/>
		<path class="st1" d="M27.6,243.9c-0.3-0.3-0.4-0.7-0.4-1.1s0.1-0.8,0.4-1.1c0.3-0.3,0.7-0.4,1.1-0.4c0.4,0,0.8,0.1,1.1,0.4
			c0.3,0.3,0.4,0.7,0.4,1.1s-0.1,0.8-0.4,1.1c-0.3,0.3-0.7,0.4-1.1,0.4C28.3,244.4,27.9,244.2,27.6,243.9z"/>
		<path class="st1" d="M42.5,230.8h-7.1v4.2c0.3-0.4,0.7-0.7,1.3-1c0.6-0.3,1.2-0.4,1.9-0.4c1.2,0,2.2,0.3,2.9,0.8
			c0.7,0.5,1.3,1.2,1.6,1.9c0.3,0.8,0.5,1.6,0.5,2.5c0,1-0.2,2-0.6,2.8c-0.4,0.8-1,1.5-1.8,1.9s-1.8,0.7-2.9,0.7
			c-1.5,0-2.8-0.4-3.7-1.1s-1.5-1.8-1.7-3h2.4c0.2,0.7,0.5,1.2,1,1.6c0.5,0.4,1.2,0.6,2,0.6c1,0,1.8-0.3,2.3-0.9
			c0.5-0.6,0.8-1.4,0.8-2.4c0-1-0.3-1.8-0.8-2.3c-0.5-0.5-1.3-0.8-2.2-0.8c-0.7,0-1.3,0.2-1.8,0.5s-0.8,0.8-1,1.4h-2.3v-8.9h9.3
			V230.8z"/>
		<path class="st1" d="M46.6,230.1c0.6-0.6,1.4-0.9,2.3-0.9c0.9,0,1.7,0.3,2.3,0.9c0.6,0.6,0.9,1.4,0.9,2.4s-0.3,1.8-0.9,2.4
			s-1.4,0.9-2.3,0.9c-0.9,0-1.7-0.3-2.3-0.9c-0.6-0.6-0.9-1.4-0.9-2.4S46,230.7,46.6,230.1z M47.6,232.5c0,1.2,0.4,1.9,1.3,1.9
			c0.4,0,0.8-0.2,1-0.5c0.2-0.3,0.3-0.8,0.3-1.4c0-1.2-0.4-1.8-1.3-1.8C48,230.7,47.6,231.3,47.6,232.5z M58.6,229.5l-8.5,14.8h-2.4
			l8.5-14.8H58.6z M55.2,238.8c0.6-0.6,1.4-0.9,2.3-0.9c0.9,0,1.7,0.3,2.3,0.9c0.6,0.6,0.9,1.4,0.9,2.4s-0.3,1.8-0.9,2.4
			c-0.6,0.6-1.4,0.9-2.3,0.9c-0.9,0-1.7-0.3-2.3-0.9c-0.6-0.6-0.9-1.4-0.9-2.4S54.6,239.3,55.2,238.8z M56.2,241.2
			c0,1.2,0.4,1.8,1.3,1.8c0.9,0,1.3-0.6,1.3-1.8s-0.4-1.8-1.3-1.8C56.6,239.3,56.2,240,56.2,241.2z"/>
	</g>
</g>
</svg>
