<!-- Generator: Adobe Illustrator 25.0.0, SVG Export Plug-In  -->
<svg version="1.1" xmlns="http://www.w3.org/2000/svg" xmlns:xlink="http://www.w3.org/1999/xlink" x="0px" y="0px" width="417.4px"
	 height="47.1px" viewBox="0 0 417.4 47.1" style="overflow:visible;enable-background:new 0 0 417.4 47.1;" xml:space="preserve">
<style type="text/css">
	.st0{fill:#FFFFFF;}
</style>
<defs>
</defs>
<g>
	<path class="st0" d="M20.2,1.6l-4.3,14.6h-2.7l-3.1-11l-3.3,11l-2.7,0L0,1.6h2.5l3,11.9L8.8,1.6h2.7l3,11.8l3-11.8H20.2z"/>
	<path class="st0" d="M30.5,5c0.7,0.4,1.2,0.9,1.6,1.7c0.4,0.7,0.6,1.6,0.6,2.7v6.8h-2.4V9.7c0-1-0.3-1.8-0.8-2.4
		c-0.5-0.6-1.2-0.8-2.1-0.8c-0.9,0-1.6,0.3-2.1,0.8c-0.5,0.6-0.8,1.3-0.8,2.4v6.5h-2.4V0.6h2.4v5.3c0.4-0.5,0.9-0.9,1.5-1.1
		s1.3-0.4,2-0.4C29,4.4,29.8,4.6,30.5,5z"/>
	<path class="st0" d="M35.7,7.2c0.5-0.9,1.1-1.6,2-2.1c0.8-0.5,1.8-0.7,2.8-0.7c0.9,0,1.7,0.2,2.4,0.5c0.7,0.4,1.2,0.8,1.6,1.3V4.6
		h2.4v11.6h-2.4v-1.7c-0.4,0.5-1,1-1.7,1.4s-1.5,0.5-2.4,0.5c-1,0-1.9-0.3-2.7-0.8c-0.8-0.5-1.5-1.2-2-2.1c-0.5-0.9-0.7-2-0.7-3.1
		S35.2,8.1,35.7,7.2z M44,8.3c-0.3-0.6-0.8-1-1.3-1.3c-0.5-0.3-1.1-0.5-1.7-0.5c-0.6,0-1.2,0.2-1.7,0.5c-0.5,0.3-1,0.7-1.3,1.3
		c-0.3,0.6-0.5,1.3-0.5,2.1c0,0.8,0.2,1.5,0.5,2.1s0.8,1.1,1.3,1.4c0.5,0.3,1.1,0.5,1.7,0.5c0.6,0,1.2-0.2,1.7-0.5
		c0.5-0.3,1-0.8,1.3-1.4c0.3-0.6,0.5-1.3,0.5-2.1C44.5,9.6,44.3,8.9,44,8.3z"/>
	<path class="st0" d="M52.8,6.6V13c0,0.4,0.1,0.7,0.3,0.9c0.2,0.2,0.5,0.3,1,0.3h1.5v2h-1.9c-1.1,0-1.9-0.3-2.5-0.8
		c-0.6-0.5-0.9-1.3-0.9-2.5V6.6H49v-2h1.4V1.7h2.4v2.9h2.8v2H52.8z"/>
	<path class="st0" d="M65.4,15.6c-0.9-0.5-1.6-1.2-2.1-2.1c-0.5-0.9-0.8-1.9-0.8-3.1c0-1.2,0.3-2.2,0.8-3.1c0.5-0.9,1.2-1.6,2.1-2.1
		c0.9-0.5,1.9-0.7,3-0.7c1.1,0,2.1,0.2,3,0.7c0.9,0.5,1.6,1.2,2.1,2.1c0.5,0.9,0.8,2,0.8,3.1c0,1.2-0.3,2.2-0.8,3.1
		c-0.5,0.9-1.3,1.6-2.2,2.1c-0.9,0.5-1.9,0.7-3,0.7C67.2,16.4,66.2,16.1,65.4,15.6z M70,13.8c0.5-0.3,1-0.7,1.3-1.3
		c0.3-0.6,0.5-1.3,0.5-2.1c0-0.8-0.2-1.6-0.5-2.1c-0.3-0.6-0.7-1-1.3-1.3c-0.5-0.3-1.1-0.4-1.7-0.4c-0.6,0-1.2,0.1-1.7,0.4
		c-0.5,0.3-0.9,0.7-1.2,1.3C65.1,8.8,65,9.5,65,10.4c0,1.2,0.3,2.2,1,2.9c0.6,0.7,1.4,1,2.4,1C68.9,14.3,69.5,14.1,70,13.8z"/>
	<path class="st0" d="M80.8,4.9c0.7-0.4,1.5-0.5,2.4-0.5c1,0,1.9,0.2,2.8,0.7c0.8,0.5,1.5,1.2,2,2.1c0.5,0.9,0.7,1.9,0.7,3.1
		s-0.2,2.2-0.7,3.1c-0.5,0.9-1.1,1.6-2,2.1c-0.8,0.5-1.8,0.8-2.8,0.8c-0.9,0-1.7-0.2-2.4-0.5c-0.7-0.3-1.2-0.8-1.6-1.3v1.7h-2.4V0.6
		h2.4v5.7C79.5,5.8,80,5.3,80.8,4.9z M85.6,8.3c-0.3-0.6-0.8-1-1.3-1.3c-0.5-0.3-1.1-0.5-1.7-0.5c-0.6,0-1.2,0.2-1.7,0.5
		c-0.5,0.3-1,0.8-1.3,1.3c-0.3,0.6-0.5,1.3-0.5,2.1c0,0.8,0.2,1.5,0.5,2.1c0.3,0.6,0.8,1,1.3,1.4c0.5,0.3,1.1,0.5,1.7,0.5
		c0.6,0,1.2-0.2,1.7-0.5c0.5-0.3,1-0.8,1.3-1.4c0.3-0.6,0.5-1.3,0.5-2.1C86.1,9.5,86,8.8,85.6,8.3z"/>
	<path class="st0" d="M92.7,15.9c-0.7-0.3-1.3-0.8-1.7-1.3s-0.6-1.2-0.7-1.9h2.5c0,0.5,0.3,0.9,0.7,1.2c0.4,0.3,1,0.5,1.6,0.5
		c0.7,0,1.2-0.1,1.6-0.4c0.4-0.3,0.6-0.6,0.6-1c0-0.4-0.2-0.8-0.6-1s-1.1-0.4-2-0.7c-0.9-0.2-1.6-0.5-2.1-0.7c-0.5-0.2-1-0.6-1.4-1
		c-0.4-0.5-0.6-1.1-0.6-1.8c0-0.6,0.2-1.2,0.5-1.7s0.9-0.9,1.6-1.2c0.7-0.3,1.5-0.4,2.3-0.4c1.3,0,2.4,0.3,3.2,1
		c0.8,0.7,1.2,1.6,1.3,2.7H97c0-0.5-0.3-0.9-0.6-1.2c-0.4-0.3-0.9-0.5-1.5-0.5c-0.6,0-1.1,0.1-1.4,0.4c-0.3,0.2-0.5,0.6-0.5,0.9
		c0,0.3,0.1,0.6,0.3,0.8s0.5,0.4,0.8,0.5c0.3,0.1,0.8,0.3,1.4,0.5c0.8,0.2,1.5,0.5,2.1,0.7s1,0.6,1.4,1c0.4,0.4,0.6,1,0.6,1.8
		c0,0.7-0.2,1.2-0.5,1.8c-0.4,0.5-0.9,0.9-1.5,1.2s-1.4,0.4-2.3,0.4C94.2,16.4,93.4,16.2,92.7,15.9z"/>
	<path class="st0" d="M104.9,6.6V13c0,0.4,0.1,0.7,0.3,0.9c0.2,0.2,0.5,0.3,1,0.3h1.5v2h-1.9c-1.1,0-1.9-0.3-2.5-0.8
		c-0.6-0.5-0.9-1.3-0.9-2.5V6.6h-1.4v-2h1.4V1.7h2.4v2.9h2.8v2H104.9z"/>
	<path class="st0" d="M109.9,7.2c0.5-0.9,1.1-1.6,2-2.1c0.8-0.5,1.8-0.7,2.8-0.7c0.9,0,1.7,0.2,2.4,0.5c0.7,0.4,1.2,0.8,1.6,1.3V4.6
		h2.4v11.6h-2.4v-1.7c-0.4,0.5-1,1-1.7,1.4s-1.5,0.5-2.4,0.5c-1,0-1.9-0.3-2.7-0.8c-0.8-0.5-1.5-1.2-2-2.1c-0.5-0.9-0.7-2-0.7-3.1
		S109.4,8.1,109.9,7.2z M118.1,8.3c-0.3-0.6-0.8-1-1.3-1.3c-0.5-0.3-1.1-0.5-1.7-0.5c-0.6,0-1.2,0.2-1.7,0.5c-0.5,0.3-1,0.7-1.3,1.3
		c-0.3,0.6-0.5,1.3-0.5,2.1c0,0.8,0.2,1.5,0.5,2.1s0.8,1.1,1.3,1.4c0.5,0.3,1.1,0.5,1.7,0.5c0.6,0,1.2-0.2,1.7-0.5
		c0.5-0.3,1-0.8,1.3-1.4c0.3-0.6,0.5-1.3,0.5-2.1C118.6,9.6,118.5,8.9,118.1,8.3z"/>
	<path class="st0" d="M124.1,7.2c0.5-0.9,1.2-1.6,2-2.1c0.9-0.5,1.8-0.7,2.9-0.7c1.4,0,2.6,0.3,3.5,1c0.9,0.7,1.5,1.6,1.9,2.8h-2.6
		c-0.2-0.6-0.5-1-1-1.3c-0.5-0.3-1-0.5-1.7-0.5c-1,0-1.8,0.3-2.3,1s-0.9,1.7-0.9,2.9s0.3,2.2,0.9,2.9c0.6,0.7,1.4,1,2.3,1
		c1.4,0,2.3-0.6,2.8-1.8h2.6c-0.3,1.2-1,2.1-1.9,2.8c-0.9,0.7-2.1,1-3.4,1c-1.1,0-2.1-0.2-2.9-0.7c-0.9-0.5-1.5-1.2-2-2.1
		c-0.5-0.9-0.7-1.9-0.7-3.1S123.6,8.1,124.1,7.2z"/>
	<path class="st0" d="M139.2,0.6v15.5h-2.4V0.6H139.2z"/>
	<path class="st0" d="M152.9,11.3H144c0.1,0.9,0.4,1.7,1,2.2c0.6,0.6,1.4,0.8,2.3,0.8c1.3,0,2.2-0.5,2.7-1.6h2.6
		c-0.4,1.1-1,1.9-1.9,2.6c-0.9,0.7-2.1,1-3.4,1c-1.1,0-2.1-0.2-3-0.7c-0.9-0.5-1.6-1.2-2.1-2.1c-0.5-0.9-0.7-1.9-0.7-3.1
		s0.2-2.2,0.7-3.1c0.5-0.9,1.2-1.6,2-2.1c0.9-0.5,1.9-0.7,3-0.7c1.1,0,2.1,0.2,2.9,0.7c0.9,0.5,1.5,1.1,2,2s0.7,1.9,0.7,3
		C152.9,10.5,152.9,10.9,152.9,11.3z M150.4,9.3c0-0.9-0.3-1.6-0.9-2.1c-0.6-0.5-1.4-0.8-2.3-0.8c-0.8,0-1.5,0.3-2.1,0.8
		s-0.9,1.2-1,2.1H150.4z"/>
	<path class="st0" d="M157,15.9c-0.7-0.3-1.3-0.8-1.7-1.3s-0.6-1.2-0.7-1.9h2.5c0,0.5,0.3,0.9,0.7,1.2c0.4,0.3,1,0.5,1.6,0.5
		c0.7,0,1.2-0.1,1.6-0.4c0.4-0.3,0.6-0.6,0.6-1c0-0.4-0.2-0.8-0.6-1s-1.1-0.4-2-0.7c-0.9-0.2-1.6-0.5-2.1-0.7c-0.5-0.2-1-0.6-1.4-1
		c-0.4-0.5-0.6-1.1-0.6-1.8c0-0.6,0.2-1.2,0.5-1.7s0.9-0.9,1.6-1.2c0.7-0.3,1.5-0.4,2.3-0.4c1.3,0,2.4,0.3,3.2,1
		c0.8,0.7,1.2,1.6,1.3,2.7h-2.4c0-0.5-0.3-0.9-0.6-1.2c-0.4-0.3-0.9-0.5-1.5-0.5c-0.6,0-1.1,0.1-1.4,0.4c-0.3,0.2-0.5,0.6-0.5,0.9
		c0,0.3,0.1,0.6,0.3,0.8s0.5,0.4,0.8,0.5c0.3,0.1,0.8,0.3,1.4,0.5c0.8,0.2,1.5,0.5,2.1,0.7s1,0.6,1.4,1c0.4,0.4,0.6,1,0.6,1.8
		c0,0.7-0.2,1.2-0.5,1.8c-0.4,0.5-0.9,0.9-1.5,1.2s-1.4,0.4-2.3,0.4C158.6,16.4,157.8,16.2,157,15.9z"/>
	<path class="st0" d="M171.9,7.2c0.5-0.9,1.1-1.6,2-2.1c0.8-0.5,1.8-0.7,2.8-0.7c0.9,0,1.7,0.2,2.4,0.5c0.7,0.4,1.2,0.8,1.6,1.3V4.6
		h2.4v11.6h-2.4v-1.7c-0.4,0.5-1,1-1.7,1.4s-1.5,0.5-2.4,0.5c-1,0-1.9-0.3-2.7-0.8c-0.8-0.5-1.5-1.2-2-2.1c-0.5-0.9-0.7-2-0.7-3.1
		S171.4,8.1,171.9,7.2z M180.1,8.3c-0.3-0.6-0.8-1-1.3-1.3c-0.5-0.3-1.1-0.5-1.7-0.5c-0.6,0-1.2,0.2-1.7,0.5c-0.5,0.3-1,0.7-1.3,1.3
		c-0.3,0.6-0.5,1.3-0.5,2.1c0,0.8,0.2,1.5,0.5,2.1s0.8,1.1,1.3,1.4c0.5,0.3,1.1,0.5,1.7,0.5c0.6,0,1.2-0.2,1.7-0.5
		c0.5-0.3,1-0.8,1.3-1.4c0.3-0.6,0.5-1.3,0.5-2.1C180.6,9.6,180.5,8.9,180.1,8.3z"/>
	<path class="st0" d="M190,4.9c0.6-0.3,1.3-0.5,2.1-0.5v2.5h-0.6c-0.9,0-1.6,0.2-2.1,0.7c-0.5,0.5-0.7,1.3-0.7,2.5v6.1h-2.4V4.6h2.4
		v1.7C188.9,5.7,189.4,5.2,190,4.9z"/>
	<path class="st0" d="M204.8,11.3h-8.8c0.1,0.9,0.4,1.7,1,2.2c0.6,0.6,1.4,0.8,2.3,0.8c1.3,0,2.2-0.5,2.7-1.6h2.6
		c-0.4,1.1-1,1.9-1.9,2.6c-0.9,0.7-2.1,1-3.4,1c-1.1,0-2.1-0.2-3-0.7c-0.9-0.5-1.6-1.2-2.1-2.1c-0.5-0.9-0.7-1.9-0.7-3.1
		s0.2-2.2,0.7-3.1c0.5-0.9,1.2-1.6,2-2.1c0.9-0.5,1.9-0.7,3-0.7c1.1,0,2.1,0.2,2.9,0.7c0.9,0.5,1.5,1.1,2,2s0.7,1.9,0.7,3
		C204.9,10.5,204.8,10.9,204.8,11.3z M202.4,9.3c0-0.9-0.3-1.6-0.9-2.1c-0.6-0.5-1.4-0.8-2.3-0.8c-0.8,0-1.5,0.3-2.1,0.8
		s-0.9,1.2-1,2.1H202.4z"/>
	<path class="st0" d="M212.6,7.2c0.5-0.9,1.1-1.6,2-2.1c0.8-0.5,1.8-0.7,2.8-0.7c0.9,0,1.7,0.2,2.4,0.5c0.7,0.4,1.2,0.8,1.6,1.3V4.6
		h2.4v11.6h-2.4v-1.7c-0.4,0.5-1,1-1.7,1.4s-1.5,0.5-2.4,0.5c-1,0-1.9-0.3-2.7-0.8c-0.8-0.5-1.5-1.2-2-2.1c-0.5-0.9-0.7-2-0.7-3.1
		S212.1,8.1,212.6,7.2z M220.9,8.3c-0.3-0.6-0.8-1-1.3-1.3c-0.5-0.3-1.1-0.5-1.7-0.5c-0.6,0-1.2,0.2-1.7,0.5c-0.5,0.3-1,0.7-1.3,1.3
		c-0.3,0.6-0.5,1.3-0.5,2.1c0,0.8,0.2,1.5,0.5,2.1s0.8,1.1,1.3,1.4c0.5,0.3,1.1,0.5,1.7,0.5c0.6,0,1.2-0.2,1.7-0.5
		c0.5-0.3,1-0.8,1.3-1.4c0.3-0.6,0.5-1.3,0.5-2.1C221.4,9.6,221.2,8.9,220.9,8.3z"/>
	<path class="st0" d="M228.7,15.9c-0.7-0.3-1.3-0.8-1.7-1.3s-0.6-1.2-0.7-1.9h2.5c0,0.5,0.3,0.9,0.7,1.2c0.4,0.3,1,0.5,1.6,0.5
		c0.7,0,1.2-0.1,1.6-0.4c0.4-0.3,0.6-0.6,0.6-1c0-0.4-0.2-0.8-0.6-1s-1.1-0.4-2-0.7c-0.9-0.2-1.6-0.5-2.1-0.7c-0.5-0.2-1-0.6-1.4-1
		c-0.4-0.5-0.6-1.1-0.6-1.8c0-0.6,0.2-1.2,0.5-1.7s0.9-0.9,1.6-1.2c0.7-0.3,1.5-0.4,2.3-0.4c1.3,0,2.4,0.3,3.2,1
		c0.8,0.7,1.2,1.6,1.3,2.7H233c0-0.5-0.3-0.9-0.6-1.2c-0.4-0.3-0.9-0.5-1.5-0.5c-0.6,0-1.1,0.1-1.4,0.4c-0.3,0.2-0.5,0.6-0.5,0.9
		c0,0.3,0.1,0.6,0.3,0.8s0.5,0.4,0.8,0.5c0.3,0.1,0.8,0.3,1.4,0.5c0.8,0.2,1.5,0.5,2.1,0.7s1,0.6,1.4,1c0.4,0.4,0.6,1,0.6,1.8
		c0,0.7-0.2,1.2-0.5,1.8c-0.4,0.5-0.9,0.9-1.5,1.2s-1.4,0.4-2.3,0.4C230.2,16.4,229.4,16.2,228.7,15.9z"/>
	<path class="st0" d="M239.9,15.9c-0.7-0.3-1.3-0.8-1.7-1.3s-0.6-1.2-0.7-1.9h2.5c0,0.5,0.3,0.9,0.7,1.2c0.4,0.3,1,0.5,1.6,0.5
		c0.7,0,1.2-0.1,1.6-0.4c0.4-0.3,0.6-0.6,0.6-1c0-0.4-0.2-0.8-0.6-1s-1.1-0.4-2-0.7c-0.9-0.2-1.6-0.5-2.1-0.7c-0.5-0.2-1-0.6-1.4-1
		c-0.4-0.5-0.6-1.1-0.6-1.8c0-0.6,0.2-1.2,0.5-1.7s0.9-0.9,1.6-1.2c0.7-0.3,1.5-0.4,2.3-0.4c1.3,0,2.4,0.3,3.2,1
		c0.8,0.7,1.2,1.6,1.3,2.7h-2.4c0-0.5-0.3-0.9-0.6-1.2c-0.4-0.3-0.9-0.5-1.5-0.5c-0.6,0-1.1,0.1-1.4,0.4c-0.3,0.2-0.5,0.6-0.5,0.9
		c0,0.3,0.1,0.6,0.3,0.8s0.5,0.4,0.8,0.5c0.3,0.1,0.8,0.3,1.4,0.5c0.8,0.2,1.5,0.5,2.1,0.7s1,0.6,1.4,1c0.4,0.4,0.6,1,0.6,1.8
		c0,0.7-0.2,1.2-0.5,1.8c-0.4,0.5-0.9,0.9-1.5,1.2s-1.4,0.4-2.3,0.4C241.4,16.4,240.6,16.2,239.9,15.9z"/>
	<path class="st0" d="M251.4,15.6c-0.9-0.5-1.6-1.2-2.1-2.1c-0.5-0.9-0.8-1.9-0.8-3.1c0-1.2,0.3-2.2,0.8-3.1
		c0.5-0.9,1.2-1.6,2.1-2.1c0.9-0.5,1.9-0.7,3-0.7c1.1,0,2.1,0.2,3,0.7c0.9,0.5,1.6,1.2,2.1,2.1c0.5,0.9,0.8,2,0.8,3.1
		c0,1.2-0.3,2.2-0.8,3.1c-0.5,0.9-1.3,1.6-2.2,2.1c-0.9,0.5-1.9,0.7-3,0.7C253.3,16.4,252.3,16.1,251.4,15.6z M256.1,13.8
		c0.5-0.3,1-0.7,1.3-1.3c0.3-0.6,0.5-1.3,0.5-2.1c0-0.8-0.2-1.6-0.5-2.1c-0.3-0.6-0.7-1-1.3-1.3c-0.5-0.3-1.1-0.4-1.7-0.4
		c-0.6,0-1.2,0.1-1.7,0.4c-0.5,0.3-0.9,0.7-1.2,1.3c-0.3,0.6-0.5,1.3-0.5,2.1c0,1.2,0.3,2.2,1,2.9c0.6,0.7,1.4,1,2.4,1
		C255,14.3,255.6,14.1,256.1,13.8z"/>
	<path class="st0" d="M262.7,7.2c0.5-0.9,1.2-1.6,2-2.1c0.9-0.5,1.8-0.7,2.9-0.7c1.4,0,2.6,0.3,3.5,1c0.9,0.7,1.5,1.6,1.9,2.8h-2.6
		c-0.2-0.6-0.5-1-1-1.3c-0.5-0.3-1-0.5-1.7-0.5c-1,0-1.8,0.3-2.3,1s-0.9,1.7-0.9,2.9s0.3,2.2,0.9,2.9c0.6,0.7,1.4,1,2.3,1
		c1.4,0,2.3-0.6,2.8-1.8h2.6c-0.3,1.2-1,2.1-1.9,2.8c-0.9,0.7-2.1,1-3.4,1c-1.1,0-2.1-0.2-2.9-0.7c-0.9-0.5-1.5-1.2-2-2.1
		c-0.5-0.9-0.7-1.9-0.7-3.1S262.2,8.1,262.7,7.2z"/>
	<path class="st0" d="M275.5,2.6C275.2,2.3,275,2,275,1.5c0-0.4,0.1-0.8,0.4-1.1s0.7-0.4,1.1-0.4c0.4,0,0.8,0.1,1.1,0.4
		s0.4,0.7,0.4,1.1c0,0.4-0.1,0.8-0.4,1.1s-0.7,0.4-1.1,0.4C276.1,3.1,275.8,2.9,275.5,2.6z M277.7,4.6v11.6h-2.4V4.6H277.7z"/>
	<path class="st0" d="M280.8,7.2c0.5-0.9,1.1-1.6,2-2.1c0.8-0.5,1.8-0.7,2.8-0.7c0.9,0,1.7,0.2,2.4,0.5c0.7,0.4,1.2,0.8,1.6,1.3V4.6
		h2.4v11.6h-2.4v-1.7c-0.4,0.5-1,1-1.7,1.4s-1.5,0.5-2.4,0.5c-1,0-1.9-0.3-2.7-0.8c-0.8-0.5-1.5-1.2-2-2.1c-0.5-0.9-0.7-2-0.7-3.1
		S280.3,8.1,280.8,7.2z M289.1,8.3c-0.3-0.6-0.8-1-1.3-1.3c-0.5-0.3-1.1-0.5-1.7-0.5c-0.6,0-1.2,0.2-1.7,0.5c-0.5,0.3-1,0.7-1.3,1.3
		c-0.3,0.6-0.5,1.3-0.5,2.1c0,0.8,0.2,1.5,0.5,2.1s0.8,1.1,1.3,1.4c0.5,0.3,1.1,0.5,1.7,0.5c0.6,0,1.2-0.2,1.7-0.5
		c0.5-0.3,1-0.8,1.3-1.4c0.3-0.6,0.5-1.3,0.5-2.1C289.6,9.6,289.4,8.9,289.1,8.3z"/>
	<path class="st0" d="M297.9,6.6V13c0,0.4,0.1,0.7,0.3,0.9c0.2,0.2,0.5,0.3,1,0.3h1.5v2h-1.9c-1.1,0-1.9-0.3-2.5-0.8
		c-0.6-0.5-0.9-1.3-0.9-2.5V6.6h-1.4v-2h1.4V1.7h2.4v2.9h2.8v2H297.9z"/>
	<path class="st0" d="M313.5,11.3h-8.8c0.1,0.9,0.4,1.7,1,2.2c0.6,0.6,1.4,0.8,2.3,0.8c1.3,0,2.2-0.5,2.7-1.6h2.6
		c-0.4,1.1-1,1.9-1.9,2.6c-0.9,0.7-2.1,1-3.4,1c-1.1,0-2.1-0.2-3-0.7c-0.9-0.5-1.6-1.2-2.1-2.1c-0.5-0.9-0.7-1.9-0.7-3.1
		s0.2-2.2,0.7-3.1c0.5-0.9,1.2-1.6,2-2.1c0.9-0.5,1.9-0.7,3-0.7c1.1,0,2.1,0.2,2.9,0.7c0.9,0.5,1.5,1.1,2,2s0.7,1.9,0.7,3
		C313.5,10.5,313.5,10.9,313.5,11.3z M311,9.3c0-0.9-0.3-1.6-0.9-2.1c-0.6-0.5-1.4-0.8-2.3-0.8c-0.8,0-1.5,0.3-2.1,0.8
		s-0.9,1.2-1,2.1H311z"/>
	<path class="st0" d="M315.8,7.2c0.5-0.9,1.1-1.6,2-2.1c0.8-0.5,1.8-0.7,2.8-0.7c0.8,0,1.5,0.2,2.2,0.5c0.7,0.3,1.3,0.8,1.8,1.3V0.6
		h2.4v15.5h-2.4v-1.7c-0.4,0.6-0.9,1-1.6,1.4c-0.7,0.4-1.5,0.5-2.4,0.5c-1,0-1.9-0.3-2.8-0.8c-0.8-0.5-1.5-1.2-2-2.1
		c-0.5-0.9-0.7-2-0.7-3.1S315.3,8.1,315.8,7.2z M324.1,8.3c-0.3-0.6-0.8-1-1.3-1.3c-0.5-0.3-1.1-0.5-1.7-0.5c-0.6,0-1.2,0.2-1.7,0.5
		c-0.5,0.3-1,0.7-1.3,1.3c-0.3,0.6-0.5,1.3-0.5,2.1c0,0.8,0.2,1.5,0.5,2.1s0.8,1.1,1.3,1.4c0.5,0.3,1.1,0.5,1.7,0.5
		c0.6,0,1.2-0.2,1.7-0.5c0.5-0.3,1-0.8,1.3-1.4c0.3-0.6,0.5-1.3,0.5-2.1C324.6,9.6,324.4,8.9,324.1,8.3z"/>
	<path class="st0" d="M351.1,4.6l-3.6,11.6H345l-2.3-8.5l-2.3,8.5h-2.5l-3.6-11.6h2.4l2.4,9.3l2.5-9.3h2.5l2.4,9.3l2.4-9.3H351.1z"
		/>
	<path class="st0" d="M353,2.6c-0.3-0.3-0.4-0.7-0.4-1.1c0-0.4,0.1-0.8,0.4-1.1s0.7-0.4,1.1-0.4c0.4,0,0.8,0.1,1.1,0.4
		s0.4,0.7,0.4,1.1c0,0.4-0.1,0.8-0.4,1.1s-0.7,0.4-1.1,0.4C353.7,3.1,353.3,2.9,353,2.6z M355.3,4.6v11.6h-2.4V4.6H355.3z"/>
	<path class="st0" d="M361.3,6.6V13c0,0.4,0.1,0.7,0.3,0.9c0.2,0.2,0.5,0.3,1,0.3h1.5v2h-1.9c-1.1,0-1.9-0.3-2.5-0.8
		c-0.6-0.5-0.9-1.3-0.9-2.5V6.6h-1.4v-2h1.4V1.7h2.4v2.9h2.8v2H361.3z"/>
	<path class="st0" d="M374.6,5c0.7,0.4,1.2,0.9,1.6,1.7c0.4,0.7,0.6,1.6,0.6,2.7v6.8h-2.4V9.7c0-1-0.3-1.8-0.8-2.4
		c-0.5-0.6-1.2-0.8-2.1-0.8c-0.9,0-1.6,0.3-2.1,0.8c-0.5,0.6-0.8,1.3-0.8,2.4v6.5h-2.4V0.6h2.4v5.3c0.4-0.5,0.9-0.9,1.5-1.1
		s1.3-0.4,2-0.4C373.1,4.4,373.9,4.6,374.6,5z"/>
	<path class="st0" d="M388.2,6.6V13c0,0.4,0.1,0.7,0.3,0.9c0.2,0.2,0.5,0.3,1,0.3h1.5v2h-1.9c-1.1,0-1.9-0.3-2.5-0.8
		c-0.6-0.5-0.9-1.3-0.9-2.5V6.6h-1.4v-2h1.4V1.7h2.4v2.9h2.8v2H388.2z"/>
	<path class="st0" d="M401.5,5c0.7,0.4,1.2,0.9,1.6,1.7c0.4,0.7,0.6,1.6,0.6,2.7v6.8h-2.4V9.7c0-1-0.3-1.8-0.8-2.4
		c-0.5-0.6-1.2-0.8-2.1-0.8c-0.9,0-1.6,0.3-2.1,0.8c-0.5,0.6-0.8,1.3-0.8,2.4v6.5h-2.4V0.6h2.4v5.3c0.4-0.5,0.9-0.9,1.5-1.1
		s1.3-0.4,2-0.4C400,4.4,400.8,4.6,401.5,5z"/>
	<path class="st0" d="M417.3,11.3h-8.8c0.1,0.9,0.4,1.7,1,2.2c0.6,0.6,1.4,0.8,2.3,0.8c1.3,0,2.2-0.5,2.7-1.6h2.6
		c-0.4,1.1-1,1.9-1.9,2.6c-0.9,0.7-2.1,1-3.4,1c-1.1,0-2.1-0.2-3-0.7c-0.9-0.5-1.6-1.2-2.1-2.1c-0.5-0.9-0.7-1.9-0.7-3.1
		s0.2-2.2,0.7-3.1c0.5-0.9,1.2-1.6,2-2.1c0.9-0.5,1.9-0.7,3-0.7c1.1,0,2.1,0.2,2.9,0.7c0.9,0.5,1.5,1.1,2,2s0.7,1.9,0.7,3
		C417.4,10.5,417.4,10.9,417.3,11.3z M414.9,9.3c0-0.9-0.3-1.6-0.9-2.1c-0.6-0.5-1.4-0.8-2.3-0.8c-0.8,0-1.5,0.3-2.1,0.8
		s-0.9,1.2-1,2.1H414.9z"/>
	<path class="st0" d="M30.4,32.4c0.5-0.9,1.1-1.6,2-2.1c0.8-0.5,1.8-0.7,2.8-0.7c0.8,0,1.5,0.2,2.2,0.5c0.7,0.3,1.3,0.8,1.8,1.3
		v-5.6h2.4v15.5h-2.4v-1.7c-0.4,0.6-0.9,1-1.6,1.4c-0.7,0.4-1.5,0.5-2.4,0.5c-1,0-1.9-0.3-2.8-0.8c-0.8-0.5-1.5-1.2-2-2.1
		c-0.5-0.9-0.7-2-0.7-3.1S29.9,33.3,30.4,32.4z M38.6,33.5c-0.3-0.6-0.8-1-1.3-1.3c-0.5-0.3-1.1-0.5-1.7-0.5c-0.6,0-1.2,0.2-1.7,0.5
		c-0.5,0.3-1,0.7-1.3,1.3c-0.3,0.6-0.5,1.3-0.5,2.1c0,0.8,0.2,1.5,0.5,2.1s0.8,1.1,1.3,1.4c0.5,0.3,1.1,0.5,1.7,0.5
		c0.6,0,1.2-0.2,1.7-0.5c0.5-0.3,1-0.8,1.3-1.4c0.3-0.6,0.5-1.3,0.5-2.1C39.1,34.8,38.9,34.1,38.6,33.5z"/>
	<path class="st0" d="M44.8,27.8c-0.3-0.3-0.4-0.7-0.4-1.1c0-0.4,0.1-0.8,0.4-1.1s0.7-0.4,1.1-0.4c0.4,0,0.8,0.1,1.1,0.4
		s0.4,0.7,0.4,1.1c0,0.4-0.1,0.8-0.4,1.1s-0.7,0.4-1.1,0.4C45.5,28.3,45.1,28.1,44.8,27.8z M47.1,29.8v11.6h-2.4V29.8H47.1z"/>
	<path class="st0" d="M57.3,30.1c0.7,0.4,1.2,0.8,1.6,1.3v-1.7h2.4v11.8c0,1.1-0.2,2-0.7,2.8c-0.4,0.8-1.1,1.5-1.9,2
		c-0.8,0.5-1.9,0.7-3,0.7c-1.6,0-2.9-0.4-3.9-1.1c-1-0.7-1.6-1.7-1.8-3h2.4c0.2,0.6,0.6,1.1,1.2,1.5c0.6,0.4,1.3,0.6,2.1,0.6
		c1,0,1.7-0.3,2.3-0.9s0.9-1.4,0.9-2.6v-1.9c-0.4,0.5-1,1-1.6,1.4c-0.7,0.4-1.5,0.6-2.4,0.6c-1,0-1.9-0.3-2.8-0.8
		c-0.8-0.5-1.5-1.2-2-2.1c-0.5-0.9-0.7-2-0.7-3.1s0.2-2.2,0.7-3.1c0.5-0.9,1.1-1.6,2-2.1c0.8-0.5,1.8-0.7,2.8-0.7
		C55.8,29.6,56.6,29.8,57.3,30.1z M58.4,33.5c-0.3-0.6-0.8-1-1.3-1.3c-0.5-0.3-1.1-0.5-1.7-0.5c-0.6,0-1.2,0.2-1.7,0.5
		c-0.5,0.3-1,0.7-1.3,1.3c-0.3,0.6-0.5,1.3-0.5,2.1c0,0.8,0.2,1.5,0.5,2.1s0.8,1.1,1.3,1.4c0.5,0.3,1.1,0.5,1.7,0.5
		c0.6,0,1.2-0.2,1.7-0.5c0.5-0.3,1-0.8,1.3-1.4c0.3-0.6,0.5-1.3,0.5-2.1C58.9,34.8,58.7,34.1,58.4,33.5z"/>
	<path class="st0" d="M64.6,27.8c-0.3-0.3-0.4-0.7-0.4-1.1c0-0.4,0.1-0.8,0.4-1.1s0.7-0.4,1.1-0.4c0.4,0,0.8,0.1,1.1,0.4
		s0.4,0.7,0.4,1.1c0,0.4-0.1,0.8-0.4,1.1s-0.7,0.4-1.1,0.4C65.2,28.3,64.9,28.1,64.6,27.8z M66.8,29.8v11.6h-2.4V29.8H66.8z"/>
	<path class="st0" d="M72.8,31.8v6.4c0,0.4,0.1,0.7,0.3,0.9c0.2,0.2,0.5,0.3,1,0.3h1.5v2h-1.9c-1.1,0-1.9-0.3-2.5-0.8
		c-0.6-0.5-0.9-1.3-0.9-2.5v-6.4H69v-2h1.4v-2.9h2.4v2.9h2.8v2H72.8z"/>
	<path class="st0" d="M77.7,32.4c0.5-0.9,1.1-1.6,2-2.1c0.8-0.5,1.8-0.7,2.8-0.7c0.9,0,1.7,0.2,2.4,0.5c0.7,0.4,1.2,0.8,1.6,1.3
		v-1.7h2.4v11.6h-2.4v-1.7c-0.4,0.5-1,1-1.7,1.4s-1.5,0.5-2.4,0.5c-1,0-1.9-0.3-2.7-0.8c-0.8-0.5-1.5-1.2-2-2.1
		c-0.5-0.9-0.7-2-0.7-3.1S77.2,33.3,77.7,32.4z M86,33.5c-0.3-0.6-0.8-1-1.3-1.3c-0.5-0.3-1.1-0.5-1.7-0.5c-0.6,0-1.2,0.2-1.7,0.5
		c-0.5,0.3-1,0.7-1.3,1.3c-0.3,0.6-0.5,1.3-0.5,2.1c0,0.8,0.2,1.5,0.5,2.1s0.8,1.1,1.3,1.4c0.5,0.3,1.1,0.5,1.7,0.5
		c0.6,0,1.2-0.2,1.7-0.5c0.5-0.3,1-0.8,1.3-1.4c0.3-0.6,0.5-1.3,0.5-2.1C86.5,34.8,86.3,34.1,86,33.5z"/>
	<path class="st0" d="M94.4,25.8v15.5H92V25.8H94.4z"/>
	<path class="st0" d="M104.8,41.1c-0.7-0.3-1.3-0.8-1.7-1.3s-0.6-1.2-0.7-1.9h2.5c0,0.5,0.3,0.9,0.7,1.2c0.4,0.3,1,0.5,1.6,0.5
		c0.7,0,1.2-0.1,1.6-0.4c0.4-0.3,0.6-0.6,0.6-1c0-0.4-0.2-0.8-0.6-1s-1.1-0.4-2-0.7c-0.9-0.2-1.6-0.5-2.1-0.7c-0.5-0.2-1-0.6-1.4-1
		c-0.4-0.5-0.6-1.1-0.6-1.8c0-0.6,0.2-1.2,0.5-1.7s0.9-0.9,1.6-1.2c0.7-0.3,1.5-0.4,2.3-0.4c1.3,0,2.4,0.3,3.2,1
		c0.8,0.7,1.2,1.6,1.3,2.7h-2.4c0-0.5-0.3-0.9-0.6-1.2c-0.4-0.3-0.9-0.5-1.5-0.5c-0.6,0-1.1,0.1-1.4,0.4c-0.3,0.2-0.5,0.6-0.5,0.9
		c0,0.3,0.1,0.6,0.3,0.8s0.5,0.4,0.8,0.5c0.3,0.1,0.8,0.3,1.4,0.5c0.8,0.2,1.5,0.5,2.1,0.7s1,0.6,1.4,1c0.4,0.4,0.6,1,0.6,1.8
		c0,0.7-0.2,1.2-0.5,1.8c-0.4,0.5-0.9,0.9-1.5,1.2s-1.4,0.4-2.3,0.4C106.3,41.6,105.5,41.4,104.8,41.1z"/>
	<path class="st0" d="M116.3,40.8c-0.9-0.5-1.6-1.2-2.1-2.1c-0.5-0.9-0.8-1.9-0.8-3.1c0-1.2,0.3-2.2,0.8-3.1
		c0.5-0.9,1.2-1.6,2.1-2.1c0.9-0.5,1.9-0.7,3-0.7c1.1,0,2.1,0.2,3,0.7c0.9,0.5,1.6,1.2,2.1,2.1c0.5,0.9,0.8,2,0.8,3.1
		c0,1.2-0.3,2.2-0.8,3.1c-0.5,0.9-1.3,1.6-2.2,2.1c-0.9,0.5-1.9,0.7-3,0.7C118.2,41.6,117.2,41.3,116.3,40.8z M121,39
		c0.5-0.3,1-0.7,1.3-1.3c0.3-0.6,0.5-1.3,0.5-2.1c0-0.8-0.2-1.6-0.5-2.1c-0.3-0.6-0.7-1-1.3-1.3c-0.5-0.3-1.1-0.4-1.7-0.4
		c-0.6,0-1.2,0.1-1.7,0.4c-0.5,0.3-0.9,0.7-1.2,1.3c-0.3,0.6-0.5,1.3-0.5,2.1c0,1.2,0.3,2.2,1,2.9c0.6,0.7,1.4,1,2.4,1
		C119.9,39.5,120.5,39.3,121,39z"/>
	<path class="st0" d="M130.1,25.8v15.5h-2.4V25.8H130.1z"/>
	<path class="st0" d="M143.7,29.8v11.6h-2.4V40c-0.4,0.5-0.9,0.9-1.5,1.1c-0.6,0.3-1.3,0.4-1.9,0.4c-0.9,0-1.7-0.2-2.4-0.6
		c-0.7-0.4-1.3-0.9-1.7-1.7c-0.4-0.7-0.6-1.6-0.6-2.7v-6.8h2.4v6.4c0,1,0.3,1.8,0.8,2.4c0.5,0.6,1.2,0.8,2.1,0.8
		c0.9,0,1.6-0.3,2.1-0.8c0.5-0.6,0.8-1.3,0.8-2.4v-6.4H143.7z"/>
	<path class="st0" d="M149.6,31.8v6.4c0,0.4,0.1,0.7,0.3,0.9c0.2,0.2,0.5,0.3,1,0.3h1.5v2h-1.9c-1.1,0-1.9-0.3-2.5-0.8
		c-0.6-0.5-0.9-1.3-0.9-2.5v-6.4h-1.4v-2h1.4v-2.9h2.4v2.9h2.8v2H149.6z"/>
	<path class="st0" d="M154.8,27.8c-0.3-0.3-0.4-0.7-0.4-1.1c0-0.4,0.1-0.8,0.4-1.1s0.7-0.4,1.1-0.4c0.4,0,0.8,0.1,1.1,0.4
		s0.4,0.7,0.4,1.1c0,0.4-0.1,0.8-0.4,1.1s-0.7,0.4-1.1,0.4C155.4,28.3,155.1,28.1,154.8,27.8z M157,29.8v11.6h-2.4V29.8H157z"/>
	<path class="st0" d="M162.2,40.8c-0.9-0.5-1.6-1.2-2.1-2.1c-0.5-0.9-0.8-1.9-0.8-3.1c0-1.2,0.3-2.2,0.8-3.1
		c0.5-0.9,1.2-1.6,2.1-2.1c0.9-0.5,1.9-0.7,3-0.7c1.1,0,2.1,0.2,3,0.7c0.9,0.5,1.6,1.2,2.1,2.1c0.5,0.9,0.8,2,0.8,3.1
		c0,1.2-0.3,2.2-0.8,3.1c-0.5,0.9-1.3,1.6-2.2,2.1c-0.9,0.5-1.9,0.7-3,0.7C164.1,41.6,163.1,41.3,162.2,40.8z M166.9,39
		c0.5-0.3,1-0.7,1.3-1.3c0.3-0.6,0.5-1.3,0.5-2.1c0-0.8-0.2-1.6-0.5-2.1c-0.3-0.6-0.7-1-1.3-1.3c-0.5-0.3-1.1-0.4-1.7-0.4
		c-0.6,0-1.2,0.1-1.7,0.4c-0.5,0.3-0.9,0.7-1.2,1.3c-0.3,0.6-0.5,1.3-0.5,2.1c0,1.2,0.3,2.2,1,2.9c0.6,0.7,1.4,1,2.4,1
		C165.8,39.5,166.4,39.3,166.9,39z"/>
	<path class="st0" d="M181.9,30.2c0.7,0.4,1.3,0.9,1.7,1.7c0.4,0.7,0.6,1.6,0.6,2.7v6.8h-2.4v-6.5c0-1-0.3-1.8-0.8-2.4
		c-0.5-0.6-1.2-0.8-2.1-0.8c-0.9,0-1.6,0.3-2.1,0.8c-0.5,0.6-0.8,1.3-0.8,2.4v6.5h-2.4V29.8h2.4v1.3c0.4-0.5,0.9-0.8,1.5-1.1
		c0.6-0.3,1.3-0.4,1.9-0.4C180.3,29.6,181.1,29.8,181.9,30.2z"/>
	<path class="st0" d="M189,41.1c-0.7-0.3-1.3-0.8-1.7-1.3s-0.6-1.2-0.7-1.9h2.5c0,0.5,0.3,0.9,0.7,1.2c0.4,0.3,1,0.5,1.6,0.5
		c0.7,0,1.2-0.1,1.6-0.4c0.4-0.3,0.6-0.6,0.6-1c0-0.4-0.2-0.8-0.6-1s-1.1-0.4-2-0.7c-0.9-0.2-1.6-0.5-2.1-0.7c-0.5-0.2-1-0.6-1.4-1
		c-0.4-0.5-0.6-1.1-0.6-1.8c0-0.6,0.2-1.2,0.5-1.7s0.9-0.9,1.6-1.2c0.7-0.3,1.5-0.4,2.3-0.4c1.3,0,2.4,0.3,3.2,1
		c0.8,0.7,1.2,1.6,1.3,2.7h-2.4c0-0.5-0.3-0.9-0.6-1.2c-0.4-0.3-0.9-0.5-1.5-0.5c-0.6,0-1.1,0.1-1.4,0.4c-0.3,0.2-0.5,0.6-0.5,0.9
		c0,0.3,0.1,0.6,0.3,0.8s0.5,0.4,0.8,0.5c0.3,0.1,0.8,0.3,1.4,0.5c0.8,0.2,1.5,0.5,2.1,0.7s1,0.6,1.4,1c0.4,0.4,0.6,1,0.6,1.8
		c0,0.7-0.2,1.2-0.5,1.8c-0.4,0.5-0.9,0.9-1.5,1.2s-1.4,0.4-2.3,0.4C190.5,41.6,189.7,41.4,189,41.1z"/>
	<path class="st0" d="M214.3,29.8l-7.1,17h-2.5l2.4-5.6l-4.6-11.4h2.7l3.3,8.8l3.4-8.8H214.3z"/>
	<path class="st0" d="M218.2,40.8c-0.9-0.5-1.6-1.2-2.1-2.1c-0.5-0.9-0.8-1.9-0.8-3.1c0-1.2,0.3-2.2,0.8-3.1
		c0.5-0.9,1.2-1.6,2.1-2.1c0.9-0.5,1.9-0.7,3-0.7c1.1,0,2.1,0.2,3,0.7c0.9,0.5,1.6,1.2,2.1,2.1c0.5,0.9,0.8,2,0.8,3.1
		c0,1.2-0.3,2.2-0.8,3.1c-0.5,0.9-1.3,1.6-2.2,2.1c-0.9,0.5-1.9,0.7-3,0.7C220,41.6,219,41.3,218.2,40.8z M222.9,39
		c0.5-0.3,1-0.7,1.3-1.3c0.3-0.6,0.5-1.3,0.5-2.1c0-0.8-0.2-1.6-0.5-2.1c-0.3-0.6-0.7-1-1.3-1.3c-0.5-0.3-1.1-0.4-1.7-0.4
		c-0.6,0-1.2,0.1-1.7,0.4c-0.5,0.3-0.9,0.7-1.2,1.3c-0.3,0.6-0.5,1.3-0.5,2.1c0,1.2,0.3,2.2,1,2.9c0.6,0.7,1.4,1,2.4,1
		C221.7,39.5,222.3,39.3,222.9,39z"/>
	<path class="st0" d="M240,29.8v11.6h-2.4V40c-0.4,0.5-0.9,0.9-1.5,1.1c-0.6,0.3-1.3,0.4-1.9,0.4c-0.9,0-1.7-0.2-2.4-0.6
		c-0.7-0.4-1.3-0.9-1.7-1.7c-0.4-0.7-0.6-1.6-0.6-2.7v-6.8h2.4v6.4c0,1,0.3,1.8,0.8,2.4c0.5,0.6,1.2,0.8,2.1,0.8
		c0.9,0,1.6-0.3,2.1-0.8c0.5-0.6,0.8-1.3,0.8-2.4v-6.4H240z"/>
	<path class="st0" d="M256.9,30.2c0.7,0.4,1.2,0.9,1.6,1.7c0.4,0.7,0.6,1.6,0.6,2.7v6.8h-2.4v-6.5c0-1-0.3-1.8-0.8-2.4
		c-0.5-0.6-1.2-0.8-2.1-0.8c-0.9,0-1.6,0.3-2.1,0.8c-0.5,0.6-0.8,1.3-0.8,2.4v6.5h-2.4V25.8h2.4v5.3c0.4-0.5,0.9-0.9,1.5-1.1
		s1.3-0.4,2-0.4C255.5,29.6,256.2,29.8,256.9,30.2z"/>
	<path class="st0" d="M262.2,32.4c0.5-0.9,1.1-1.6,2-2.1c0.8-0.5,1.8-0.7,2.8-0.7c0.9,0,1.7,0.2,2.4,0.5c0.7,0.4,1.2,0.8,1.6,1.3
		v-1.7h2.4v11.6h-2.4v-1.7c-0.4,0.5-1,1-1.7,1.4s-1.5,0.5-2.4,0.5c-1,0-1.9-0.3-2.7-0.8c-0.8-0.5-1.5-1.2-2-2.1
		c-0.5-0.9-0.7-2-0.7-3.1S261.7,33.3,262.2,32.4z M270.4,33.5c-0.3-0.6-0.8-1-1.3-1.3c-0.5-0.3-1.1-0.5-1.7-0.5
		c-0.6,0-1.2,0.2-1.7,0.5c-0.5,0.3-1,0.7-1.3,1.3c-0.3,0.6-0.5,1.3-0.5,2.1c0,0.8,0.2,1.5,0.5,2.1s0.8,1.1,1.3,1.4
		c0.5,0.3,1.1,0.5,1.7,0.5c0.6,0,1.2-0.2,1.7-0.5c0.5-0.3,1-0.8,1.3-1.4c0.3-0.6,0.5-1.3,0.5-2.1C270.9,34.8,270.7,34.1,270.4,33.5z
		"/>
	<path class="st0" d="M280.9,39.2l3.3-9.4h2.5l-4.4,11.6h-2.9l-4.4-11.6h2.6L280.9,39.2z"/>
	<path class="st0" d="M299.1,36.5h-8.8c0.1,0.9,0.4,1.7,1,2.2c0.6,0.6,1.4,0.8,2.3,0.8c1.3,0,2.2-0.5,2.7-1.6h2.6
		c-0.4,1.1-1,1.9-1.9,2.6c-0.9,0.7-2.1,1-3.4,1c-1.1,0-2.1-0.2-3-0.7c-0.9-0.5-1.6-1.2-2.1-2.1c-0.5-0.9-0.7-1.9-0.7-3.1
		s0.2-2.2,0.7-3.1c0.5-0.9,1.2-1.6,2-2.1c0.9-0.5,1.9-0.7,3-0.7c1.1,0,2.1,0.2,2.9,0.7c0.9,0.5,1.5,1.1,2,2s0.7,1.9,0.7,3
		C299.2,35.7,299.1,36.1,299.1,36.5z M296.7,34.5c0-0.9-0.3-1.6-0.9-2.1c-0.6-0.5-1.4-0.8-2.3-0.8c-0.8,0-1.5,0.3-2.1,0.8
		s-0.9,1.2-1,2.1H296.7z"/>
	<path class="st0" d="M306.9,32.4c0.5-0.9,1.1-1.6,2-2.1c0.8-0.5,1.8-0.7,2.8-0.7c0.9,0,1.7,0.2,2.4,0.5c0.7,0.4,1.2,0.8,1.6,1.3
		v-1.7h2.4v11.6h-2.4v-1.7c-0.4,0.5-1,1-1.7,1.4s-1.5,0.5-2.4,0.5c-1,0-1.9-0.3-2.7-0.8c-0.8-0.5-1.5-1.2-2-2.1
		c-0.5-0.9-0.7-2-0.7-3.1S306.4,33.3,306.9,32.4z M315.2,33.5c-0.3-0.6-0.8-1-1.3-1.3c-0.5-0.3-1.1-0.5-1.7-0.5
		c-0.6,0-1.2,0.2-1.7,0.5c-0.5,0.3-1,0.7-1.3,1.3c-0.3,0.6-0.5,1.3-0.5,2.1c0,0.8,0.2,1.5,0.5,2.1s0.8,1.1,1.3,1.4
		c0.5,0.3,1.1,0.5,1.7,0.5c0.6,0,1.2-0.2,1.7-0.5c0.5-0.3,1-0.8,1.3-1.4c0.3-0.6,0.5-1.3,0.5-2.1C315.6,34.8,315.5,34.1,315.2,33.5z
		"/>
	<path class="st0" d="M321.1,32.4c0.5-0.9,1.2-1.6,2-2.1c0.9-0.5,1.8-0.7,2.9-0.7c1.4,0,2.6,0.3,3.5,1c0.9,0.7,1.5,1.6,1.9,2.8h-2.6
		c-0.2-0.6-0.5-1-1-1.3c-0.5-0.3-1-0.5-1.7-0.5c-1,0-1.8,0.3-2.3,1s-0.9,1.7-0.9,2.9s0.3,2.2,0.9,2.9c0.6,0.7,1.4,1,2.3,1
		c1.4,0,2.3-0.6,2.8-1.8h2.6c-0.3,1.2-1,2.1-1.9,2.8c-0.9,0.7-2.1,1-3.4,1c-1.1,0-2.1-0.2-2.9-0.7c-0.9-0.5-1.5-1.2-2-2.1
		c-0.5-0.9-0.7-1.9-0.7-3.1S320.7,33.3,321.1,32.4z"/>
	<path class="st0" d="M333.7,32.4c0.5-0.9,1.2-1.6,2-2.1c0.9-0.5,1.8-0.7,2.9-0.7c1.4,0,2.6,0.3,3.5,1c0.9,0.7,1.5,1.6,1.9,2.8h-2.6
		c-0.2-0.6-0.5-1-1-1.3c-0.5-0.3-1-0.5-1.7-0.5c-1,0-1.8,0.3-2.3,1s-0.9,1.7-0.9,2.9s0.3,2.2,0.9,2.9c0.6,0.7,1.4,1,2.3,1
		c1.4,0,2.3-0.6,2.8-1.8h2.6c-0.3,1.2-1,2.1-1.9,2.8c-0.9,0.7-2.1,1-3.4,1c-1.1,0-2.1-0.2-2.9-0.7c-0.9-0.5-1.5-1.2-2-2.1
		c-0.5-0.9-0.7-1.9-0.7-3.1S333.3,33.3,333.7,32.4z"/>
	<path class="st0" d="M356.9,36.5h-8.8c0.1,0.9,0.4,1.7,1,2.2c0.6,0.6,1.4,0.8,2.3,0.8c1.3,0,2.2-0.5,2.7-1.6h2.6
		c-0.4,1.1-1,1.9-1.9,2.6c-0.9,0.7-2.1,1-3.4,1c-1.1,0-2.1-0.2-3-0.7c-0.9-0.5-1.6-1.2-2.1-2.1c-0.5-0.9-0.7-1.9-0.7-3.1
		s0.2-2.2,0.7-3.1c0.5-0.9,1.2-1.6,2-2.1c0.9-0.5,1.9-0.7,3-0.7c1.1,0,2.1,0.2,2.9,0.7c0.9,0.5,1.5,1.1,2,2s0.7,1.9,0.7,3
		C357,35.7,357,36.1,356.9,36.5z M354.5,34.5c0-0.9-0.3-1.6-0.9-2.1c-0.6-0.5-1.4-0.8-2.3-0.8c-0.8,0-1.5,0.3-2.1,0.8
		s-0.9,1.2-1,2.1H354.5z"/>
	<path class="st0" d="M361.1,41.1c-0.7-0.3-1.3-0.8-1.7-1.3s-0.6-1.2-0.7-1.9h2.5c0,0.5,0.3,0.9,0.7,1.2c0.4,0.3,1,0.5,1.6,0.5
		c0.7,0,1.2-0.1,1.6-0.4c0.4-0.3,0.6-0.6,0.6-1c0-0.4-0.2-0.8-0.6-1s-1.1-0.4-2-0.7c-0.9-0.2-1.6-0.5-2.1-0.7c-0.5-0.2-1-0.6-1.4-1
		c-0.4-0.5-0.6-1.1-0.6-1.8c0-0.6,0.2-1.2,0.5-1.7s0.9-0.9,1.6-1.2c0.7-0.3,1.5-0.4,2.3-0.4c1.3,0,2.4,0.3,3.2,1
		c0.8,0.7,1.2,1.6,1.3,2.7h-2.4c0-0.5-0.3-0.9-0.6-1.2c-0.4-0.3-0.9-0.5-1.5-0.5c-0.6,0-1.1,0.1-1.4,0.4c-0.3,0.2-0.5,0.6-0.5,0.9
		c0,0.3,0.1,0.6,0.3,0.8s0.5,0.4,0.8,0.5c0.3,0.1,0.8,0.3,1.4,0.5c0.8,0.2,1.5,0.5,2.1,0.7s1,0.6,1.4,1c0.4,0.4,0.6,1,0.6,1.8
		c0,0.7-0.2,1.2-0.5,1.8c-0.4,0.5-0.9,0.9-1.5,1.2s-1.4,0.4-2.3,0.4C362.7,41.6,361.8,41.4,361.1,41.1z"/>
	<path class="st0" d="M372.3,41.1c-0.7-0.3-1.3-0.8-1.7-1.3s-0.6-1.2-0.7-1.9h2.5c0,0.5,0.3,0.9,0.7,1.2c0.4,0.3,1,0.5,1.6,0.5
		c0.7,0,1.2-0.1,1.6-0.4c0.4-0.3,0.6-0.6,0.6-1c0-0.4-0.2-0.8-0.6-1s-1.1-0.4-2-0.7c-0.9-0.2-1.6-0.5-2.1-0.7c-0.5-0.2-1-0.6-1.4-1
		c-0.4-0.5-0.6-1.1-0.6-1.8c0-0.6,0.2-1.2,0.5-1.7s0.9-0.9,1.6-1.2c0.7-0.3,1.5-0.4,2.3-0.4c1.3,0,2.4,0.3,3.2,1
		c0.8,0.7,1.2,1.6,1.3,2.7h-2.4c0-0.5-0.3-0.9-0.6-1.2c-0.4-0.3-0.9-0.5-1.5-0.5c-0.6,0-1.1,0.1-1.4,0.4c-0.3,0.2-0.5,0.6-0.5,0.9
		c0,0.3,0.1,0.6,0.3,0.8s0.5,0.4,0.8,0.5c0.3,0.1,0.8,0.3,1.4,0.5c0.8,0.2,1.5,0.5,2.1,0.7s1,0.6,1.4,1c0.4,0.4,0.6,1,0.6,1.8
		c0,0.7-0.2,1.2-0.5,1.8c-0.4,0.5-0.9,0.9-1.5,1.2s-1.4,0.4-2.3,0.4C373.9,41.6,373.1,41.4,372.3,41.1z"/>
	<path class="st0" d="M390.1,31.8v6.4c0,0.4,0.1,0.7,0.3,0.9c0.2,0.2,0.5,0.3,1,0.3h1.5v2H391c-1.1,0-1.9-0.3-2.5-0.8
		c-0.6-0.5-0.9-1.3-0.9-2.5v-6.4h-1.4v-2h1.4v-2.9h2.4v2.9h2.8v2H390.1z"/>
	<path class="st0" d="M397.1,40.8c-0.9-0.5-1.6-1.2-2.1-2.1c-0.5-0.9-0.8-1.9-0.8-3.1c0-1.2,0.3-2.2,0.8-3.1
		c0.5-0.9,1.2-1.6,2.1-2.1c0.9-0.5,1.9-0.7,3-0.7c1.1,0,2.1,0.2,3,0.7c0.9,0.5,1.6,1.2,2.1,2.1c0.5,0.9,0.8,2,0.8,3.1
		c0,1.2-0.3,2.2-0.8,3.1c-0.5,0.9-1.3,1.6-2.2,2.1c-0.9,0.5-1.9,0.7-3,0.7C399,41.6,398,41.3,397.1,40.8z M401.8,39
		c0.5-0.3,1-0.7,1.3-1.3c0.3-0.6,0.5-1.3,0.5-2.1c0-0.8-0.2-1.6-0.5-2.1c-0.3-0.6-0.7-1-1.3-1.3c-0.5-0.3-1.1-0.4-1.7-0.4
		c-0.6,0-1.2,0.1-1.7,0.4c-0.5,0.3-0.9,0.7-1.2,1.3c-0.3,0.6-0.5,1.3-0.5,2.1c0,1.2,0.3,2.2,1,2.9c0.6,0.7,1.4,1,2.4,1
		C400.7,39.5,401.3,39.3,401.8,39z"/>
	<path class="st0" d="M415.8,27.7c0.9,0.8,1.3,1.9,1.3,3.2c0,1.4-0.4,2.5-1.3,3.2c-0.9,0.7-2.1,1.1-3.6,1.1l-0.1,1.7H410l-0.1-3.3
		h0.7c1.4,0,2.4-0.2,3.1-0.5c0.7-0.4,1.1-1.1,1.1-2.1c0-0.7-0.2-1.3-0.6-1.7c-0.4-0.4-1-0.6-1.8-0.6c-0.8,0-1.4,0.2-1.8,0.6
		c-0.4,0.4-0.7,1-0.7,1.7h-2.2c0-0.8,0.2-1.6,0.6-2.2c0.4-0.7,0.9-1.2,1.6-1.5c0.7-0.4,1.5-0.5,2.5-0.5
		C413.8,26.6,415,27,415.8,27.7z M410,41.1c-0.3-0.3-0.4-0.7-0.4-1.1c0-0.4,0.1-0.8,0.4-1.1s0.7-0.4,1.1-0.4c0.4,0,0.8,0.1,1.1,0.4
		c0.3,0.3,0.4,0.7,0.4,1.1c0,0.4-0.1,0.8-0.4,1.1c-0.3,0.3-0.7,0.4-1.1,0.4C410.6,41.5,410.3,41.4,410,41.1z"/>
</g>
</svg>
