<!-- Generator: Adobe Illustrator 25.0.0, SVG Export Plug-In  -->
<svg version="1.1" xmlns="http://www.w3.org/2000/svg" xmlns:xlink="http://www.w3.org/1999/xlink" x="0px" y="0px" width="165.3px"
	 height="240.2px" viewBox="0 0 165.3 240.2" style="overflow:visible;enable-background:new 0 0 165.3 240.2;"
	 xml:space="preserve">
<style type="text/css">
	.st0{opacity:0.7;fill:#FFFFFF;}
	.st1{opacity:0.7;fill:#FFFFFF;stroke:#FFFFFF;stroke-width:0.5;stroke-miterlimit:10;}
	.st2{fill:#FFFFFF;}
	.st3{opacity:0.7;fill-rule:evenodd;clip-rule:evenodd;fill:#FFFFFF;}
	.st4{fill:none;stroke:#61C3FF;stroke-width:1.75;stroke-linecap:round;stroke-linejoin:round;stroke-miterlimit:10;}
</style>
<defs>
</defs>
<path class="st0" d="M11.9,59.1C5.6,59,0.4,64,0.3,70.3c-0.1,6.3,4.9,11.5,11.2,11.6C17.7,82,22.9,77,23.1,70.7
	C23.2,64.4,18.1,59.2,11.9,59.1z M6.6,67.1c0-0.4,0.2-0.8,0.4-1c0.5-0.5,1.5-0.5,2,0c0.3,0.3,0.4,0.6,0.4,1s-0.2,0.8-0.4,1
	c-0.2,0.3-0.6,0.4-1,0.4s-0.8-0.2-1-0.4C6.7,67.8,6.6,67.5,6.6,67.1z M15.8,75c-1.2,1.1-2.7,1.7-4.2,1.6c-1.5,0-3-0.6-4.1-1.8
	c-0.4-0.4-0.4-1,0-1.3c0.4-0.4,1-0.4,1.3,0c1.5,1.6,4.1,1.6,5.7,0.1c0.4-0.4,1-0.4,1.3,0C16.1,74,16.1,74.7,15.8,75z M16.4,68.3
	c-0.3,0.3-0.6,0.4-1,0.4c-0.4,0-0.8-0.2-1-0.4c-0.3-0.3-0.4-0.6-0.4-1s0.2-0.8,0.4-1c0.5-0.5,1.5-0.5,2,0c0.3,0.3,0.4,0.6,0.4,1
	C16.8,67.6,16.7,68,16.4,68.3z"/>
<path class="st1" d="M11.7,164.6c-6.3,0-11.4,5.1-11.4,11.4c0,6.3,5.1,11.4,11.4,11.4s11.4-5.1,11.4-11.4
	C23.1,169.7,17.9,164.6,11.7,164.6z M21.4,176c0,2.4-0.9,4.5-2.3,6.2L5.4,168.6c1.7-1.4,3.9-2.3,6.2-2.3
	C17,166.3,21.4,170.7,21.4,176z M1.9,176c0-2.4,0.9-4.5,2.3-6.2l13.7,13.7c-1.7,1.4-3.9,2.3-6.2,2.3C6.3,185.7,1.9,181.4,1.9,176z"
	/>
<path class="st0" d="M11.7,217.4c-6.3,0-11.4,5.1-11.4,11.4s5.1,11.4,11.4,11.4s11.4-5.1,11.4-11.4S17.9,217.4,11.7,217.4z
	 M6.6,230.5c-0.9,0-1.7-0.8-1.7-1.7c0-0.9,0.8-1.7,1.7-1.7s1.7,0.8,1.7,1.7C8.3,229.7,7.5,230.5,6.6,230.5z M11.7,230.5
	c-0.9,0-1.7-0.8-1.7-1.7c0-0.9,0.8-1.7,1.7-1.7c0.9,0,1.7,0.8,1.7,1.7C13.3,229.7,12.6,230.5,11.7,230.5z M16.7,230.5
	c-0.9,0-1.7-0.8-1.7-1.7c0-0.9,0.8-1.7,1.7-1.7c0.9,0,1.7,0.8,1.7,1.7C18.4,229.7,17.6,230.5,16.7,230.5z"/>
<path class="st0" d="M11.9,6.3L11.9,6.3l-0.2,0c-6.3-0.1-11.4,5-11.5,11.2C0.1,23.8,5.1,29,11.4,29.1l0.1,0l0.1,0
	c6.2,0.1,11.4-4.9,11.5-11.2C23.2,11.7,18.2,6.5,11.9,6.3z M11.4,25.5c-0.8,0-1.4-0.7-1.4-1.4c0-0.8,0.7-1.4,1.4-1.4
	c0.8,0,1.4,0.7,1.4,1.4C12.9,24.9,12.2,25.6,11.4,25.5z M16.3,15.8c-0.3,0.5-1.1,1.2-2.2,2.1c-0.6,0.5-0.9,0.8-1.1,1.1
	c-0.1,0.3-0.2,0.8-0.2,1.6c0,0.7-0.6,1.2-1.3,1.2c-0.7,0-1.2-0.6-1.2-1.3c0-0.4,0-0.6,0-0.6c0-0.8,0.2-1.4,0.4-2
	c0.3-0.5,0.8-1.1,1.6-1.7c0.8-0.6,1.3-1,1.4-1.2c0.2-0.3,0.4-0.7,0.4-1c0-0.5-0.2-1-0.6-1.4c-0.4-0.4-1-0.6-1.7-0.6
	c-0.7,0-1.3,0.2-1.7,0.6c-0.5,0.4-0.8,1-1,1.8C9,15,8.5,15.4,7.9,15.4c-0.7,0-1.2-0.6-1.2-1.3c0-0.1,0-0.1,0-0.2
	c0.1-1.2,0.6-2.1,1.5-2.9c0.9-0.8,2.1-1.2,3.6-1.1c1.6,0,2.8,0.5,3.7,1.3c0.9,0.8,1.4,1.8,1.3,2.9C16.8,14.7,16.6,15.3,16.3,15.8z"
	/>
<g>
	<path class="st2" d="M50.1,1.6c0.9,0.4,1.6,1.1,2,1.9c0.5,0.8,0.7,1.8,0.7,3c0,1.2-0.2,2.1-0.7,3c-0.5,0.8-1.1,1.5-2,1.9
		c-0.9,0.4-1.9,0.7-3.2,0.7h-3.3V0.9h3.3C48.1,0.9,49.2,1.2,50.1,1.6z M50.5,10c0.8-0.8,1.2-2,1.2-3.4c0-1.5-0.4-2.6-1.2-3.4
		c-0.8-0.8-2-1.2-3.6-1.2h-2.2v9.3h2.2C48.5,11.2,49.6,10.8,50.5,10z"/>
	<path class="st2" d="M54.9,1.5c-0.2-0.2-0.2-0.4-0.2-0.6c0-0.2,0.1-0.4,0.2-0.6s0.4-0.2,0.6-0.2c0.2,0,0.4,0.1,0.6,0.2
		s0.2,0.3,0.2,0.6c0,0.2-0.1,0.4-0.2,0.6s-0.4,0.2-0.6,0.2C55.2,1.7,55,1.6,54.9,1.5z M56,3.4v8.7h-1.1V3.4H56z"/>
	<path class="st2" d="M62,4.3h-2v7.8h-1.1V4.3h-1.2V3.4h1.2V2.8c0-0.9,0.2-1.6,0.7-2.1C60,0.2,60.8,0,61.9,0v1
		c-0.7,0-1.2,0.1-1.5,0.4S60,2.1,60,2.8v0.6h2V4.3z"/>
	<path class="st2" d="M67.2,4.3h-2v7.8H64V4.3h-1.2V3.4H64V2.8c0-0.9,0.2-1.6,0.7-2.1C65.2,0.2,66,0,67.1,0v1
		c-0.7,0-1.2,0.1-1.5,0.4s-0.4,0.7-0.4,1.4v0.6h2V4.3z"/>
	<path class="st2" d="M68.9,1.5c-0.2-0.2-0.2-0.4-0.2-0.6c0-0.2,0.1-0.4,0.2-0.6s0.4-0.2,0.6-0.2c0.2,0,0.4,0.1,0.6,0.2
		s0.2,0.3,0.2,0.6c0,0.2-0.1,0.4-0.2,0.6s-0.4,0.2-0.6,0.2C69.3,1.7,69.1,1.6,68.9,1.5z M70.1,3.4v8.7h-1.1V3.4H70.1z"/>
	<path class="st2" d="M72.6,5.4c0.4-0.7,0.9-1.2,1.5-1.6c0.6-0.4,1.4-0.6,2.2-0.6c1.1,0,2,0.3,2.7,0.8c0.7,0.5,1.1,1.3,1.4,2.2h-1.2
		c-0.1-0.6-0.5-1.1-1-1.5c-0.5-0.4-1.1-0.5-1.8-0.5c-0.6,0-1.1,0.1-1.6,0.4s-0.8,0.7-1.1,1.2c-0.3,0.5-0.4,1.2-0.4,1.9
		s0.1,1.4,0.4,2c0.3,0.5,0.6,0.9,1.1,1.2s1,0.4,1.6,0.4c0.7,0,1.4-0.2,1.8-0.5c0.5-0.4,0.8-0.9,1-1.5h1.2c-0.2,0.9-0.7,1.6-1.4,2.2
		s-1.6,0.8-2.7,0.8c-0.8,0-1.6-0.2-2.2-0.6c-0.6-0.4-1.1-0.9-1.5-1.6c-0.4-0.7-0.5-1.5-0.5-2.4C72.1,6.8,72.3,6,72.6,5.4z"/>
	<path class="st2" d="M90,3.4v8.7h-1.1v-1.5c-0.3,0.5-0.7,1-1.2,1.2s-1.1,0.4-1.8,0.4c-1,0-1.9-0.3-2.6-1c-0.7-0.6-1-1.6-1-2.8V3.4
		h1.1v5c0,0.9,0.2,1.7,0.7,2.2s1.1,0.8,1.9,0.8c0.8,0,1.5-0.3,2-0.8c0.5-0.5,0.8-1.3,0.8-2.4V3.4H90z"/>
	<path class="st2" d="M93.7,0.3v11.8h-1.1V0.3H93.7z"/>
	<path class="st2" d="M97.7,4.3v5.4c0,0.5,0.1,0.9,0.3,1.1c0.2,0.2,0.6,0.3,1.1,0.3h1v1h-1.2c-0.8,0-1.4-0.2-1.8-0.6
		c-0.4-0.4-0.6-1-0.6-1.8V4.3h-1.2V3.4h1.2V1.2h1.1v2.2h2.4v0.9H97.7z"/>
	<path class="st2" d="M107.7,4.3v5.4c0,0.5,0.1,0.9,0.3,1.1c0.2,0.2,0.6,0.3,1.1,0.3h1v1h-1.2c-0.8,0-1.4-0.2-1.8-0.6
		c-0.4-0.4-0.6-1-0.6-1.8V4.3h-1.2V3.4h1.2V1.2h1.1v2.2h2.4v0.9H107.7z"/>
	<path class="st2" d="M113.6,11.7c-0.7-0.4-1.2-0.9-1.6-1.6c-0.4-0.7-0.6-1.5-0.6-2.4c0-0.9,0.2-1.7,0.6-2.4
		c0.4-0.7,0.9-1.2,1.6-1.6s1.4-0.6,2.2-0.6s1.6,0.2,2.2,0.6c0.7,0.4,1.2,0.9,1.6,1.6c0.4,0.7,0.6,1.5,0.6,2.4c0,0.9-0.2,1.7-0.6,2.4
		s-0.9,1.2-1.6,1.6c-0.7,0.4-1.4,0.6-2.2,0.6S114.3,12.1,113.6,11.7z M117.4,10.9c0.5-0.3,0.9-0.7,1.2-1.2c0.3-0.5,0.5-1.2,0.5-1.9
		s-0.1-1.4-0.4-1.9c-0.3-0.5-0.7-0.9-1.2-1.2c-0.5-0.3-1-0.4-1.6-0.4s-1.1,0.1-1.6,0.4c-0.5,0.3-0.9,0.7-1.2,1.2
		c-0.3,0.5-0.4,1.2-0.4,1.9s0.1,1.4,0.4,1.9c0.3,0.5,0.7,0.9,1.2,1.2c0.5,0.3,1,0.4,1.6,0.4C116.4,11.3,116.9,11.1,117.4,10.9z"/>
	<path class="st2" d="M51.2,22.6v8.7H50v-1.5c-0.3,0.5-0.7,1-1.2,1.2s-1.1,0.4-1.8,0.4c-1,0-1.9-0.3-2.6-1c-0.7-0.6-1-1.6-1-2.8
		v-5.1h1.1v5c0,0.9,0.2,1.7,0.7,2.2s1.1,0.8,1.9,0.8c0.8,0,1.5-0.3,2-0.8c0.5-0.5,0.8-1.3,0.8-2.4v-4.8H51.2z"/>
	<path class="st2" d="M54.3,30.7c-0.6-0.5-1-1.1-1.1-1.9h1.2c0.1,0.5,0.3,0.9,0.7,1.2c0.4,0.3,1,0.5,1.7,0.5c0.6,0,1.1-0.1,1.4-0.4
		s0.5-0.6,0.5-1.1c0-0.3-0.1-0.5-0.3-0.7c-0.2-0.2-0.4-0.3-0.7-0.5c-0.3-0.1-0.7-0.2-1.2-0.4c-0.7-0.2-1.2-0.3-1.6-0.5
		c-0.4-0.2-0.7-0.4-1-0.8c-0.3-0.3-0.4-0.8-0.4-1.4c0-0.4,0.1-0.8,0.4-1.2c0.3-0.4,0.6-0.7,1.1-0.9c0.5-0.2,1-0.3,1.6-0.3
		c0.9,0,1.7,0.2,2.3,0.7s0.9,1.1,0.9,2h-1.1c0-0.5-0.2-0.9-0.6-1.2c-0.4-0.3-0.9-0.5-1.5-0.5c-0.6,0-1,0.1-1.4,0.4
		c-0.4,0.3-0.5,0.6-0.5,1c0,0.3,0.1,0.6,0.3,0.8s0.5,0.4,0.8,0.5c0.3,0.1,0.7,0.3,1.2,0.4c0.6,0.2,1.1,0.3,1.5,0.5
		c0.4,0.2,0.7,0.4,1,0.7c0.3,0.3,0.4,0.7,0.4,1.2c0,0.5-0.1,0.9-0.4,1.3s-0.6,0.7-1.1,0.9c-0.5,0.2-1,0.3-1.6,0.3
		C55.7,31.4,54.9,31.2,54.3,30.7z"/>
	<path class="st2" d="M69.7,27.4h-7.2c0,0.7,0.2,1.2,0.5,1.7c0.3,0.5,0.7,0.8,1.1,1.1c0.5,0.2,1,0.4,1.5,0.4c0.7,0,1.3-0.2,1.8-0.5
		c0.5-0.4,0.8-0.8,1-1.4h1.2c-0.2,0.9-0.7,1.5-1.4,2.1c-0.7,0.5-1.6,0.8-2.6,0.8c-0.8,0-1.6-0.2-2.2-0.6c-0.7-0.4-1.2-0.9-1.5-1.6
		c-0.4-0.7-0.6-1.5-0.6-2.4c0-0.9,0.2-1.7,0.5-2.4c0.4-0.7,0.9-1.2,1.5-1.6c0.7-0.4,1.4-0.5,2.2-0.5s1.6,0.2,2.2,0.5
		s1.1,0.9,1.4,1.5s0.5,1.3,0.5,2C69.8,26.9,69.8,27.2,69.7,27.4z M68.3,24.8c-0.3-0.5-0.6-0.8-1.1-1c-0.5-0.2-1-0.4-1.5-0.4
		c-0.8,0-1.5,0.3-2.1,0.8c-0.6,0.5-0.9,1.3-1,2.3h6.1C68.7,25.8,68.5,25.3,68.3,24.8z"/>
	<path class="st2" d="M76.8,16.3L72.4,34h-1.1l4.4-17.7H76.8z"/>
	<path class="st2" d="M85.5,23.4c0.7,0.6,1,1.6,1,2.8v5.1h-1.1v-5c0-0.9-0.2-1.7-0.7-2.2s-1.1-0.8-1.9-0.8c-0.8,0-1.5,0.3-2,0.8
		c-0.5,0.5-0.8,1.3-0.8,2.4v4.8h-1.1v-8.7H80v1.5c0.3-0.5,0.7-0.9,1.2-1.2c0.5-0.3,1.1-0.4,1.8-0.4C84,22.4,84.9,22.7,85.5,23.4z"/>
	<path class="st2" d="M89,24.6c0.4-0.7,0.9-1.2,1.5-1.6s1.4-0.6,2.2-0.6c0.8,0,1.5,0.2,2.2,0.6c0.6,0.4,1,0.9,1.3,1.5v-1.9h1.1v8.7
		h-1.1v-1.9c-0.3,0.6-0.7,1.1-1.3,1.5c-0.6,0.4-1.3,0.6-2.2,0.6c-0.8,0-1.5-0.2-2.1-0.6c-0.6-0.4-1.1-0.9-1.5-1.6
		c-0.4-0.7-0.5-1.5-0.5-2.4S88.7,25.2,89,24.6z M95.7,25.1c-0.3-0.5-0.7-0.9-1.2-1.2s-1-0.4-1.6-0.4c-0.6,0-1.2,0.1-1.7,0.4
		c-0.5,0.3-0.9,0.7-1.2,1.2c-0.3,0.5-0.4,1.2-0.4,1.9c0,0.7,0.1,1.3,0.4,1.9c0.3,0.5,0.7,0.9,1.2,1.2c0.5,0.3,1,0.4,1.7,0.4
		c0.6,0,1.1-0.1,1.6-0.4c0.5-0.3,0.9-0.7,1.2-1.2c0.3-0.5,0.4-1.2,0.4-1.9C96.1,26.2,96,25.6,95.7,25.1z"/>
	<path class="st2" d="M102.9,30.2l2.9-7.6h1.2l-3.5,8.7h-1.3l-3.5-8.7h1.2L102.9,30.2z"/>
	<path class="st2" d="M108.5,20.7c-0.2-0.2-0.2-0.4-0.2-0.6c0-0.2,0.1-0.4,0.2-0.6s0.4-0.2,0.6-0.2c0.2,0,0.4,0.1,0.6,0.2
		s0.2,0.3,0.2,0.6c0,0.2-0.1,0.4-0.2,0.6s-0.4,0.2-0.6,0.2C108.9,20.9,108.7,20.8,108.5,20.7z M109.7,22.6v8.7h-1.1v-8.7H109.7z"/>
	<path class="st2" d="M118,23c0.6,0.4,1,0.9,1.3,1.5v-1.9h1.1v9c0,0.8-0.2,1.5-0.5,2.1s-0.8,1.1-1.4,1.4c-0.6,0.3-1.3,0.5-2.1,0.5
		c-1.1,0-2.1-0.3-2.8-0.8c-0.7-0.5-1.2-1.3-1.4-2.2h1.1c0.2,0.6,0.6,1.1,1.1,1.5c0.5,0.4,1.2,0.5,2,0.5c0.6,0,1.1-0.1,1.5-0.4
		c0.4-0.2,0.8-0.6,1.1-1.1c0.3-0.5,0.4-1,0.4-1.7v-2.2c-0.3,0.6-0.7,1.1-1.3,1.5c-0.6,0.4-1.3,0.6-2.1,0.6c-0.8,0-1.5-0.2-2.2-0.6
		c-0.6-0.4-1.1-0.9-1.5-1.6c-0.4-0.7-0.5-1.5-0.5-2.4s0.2-1.7,0.5-2.4c0.4-0.7,0.9-1.2,1.5-1.6s1.4-0.6,2.2-0.6
		C116.7,22.4,117.4,22.6,118,23z M118.9,25.1c-0.3-0.5-0.7-0.9-1.2-1.2s-1-0.4-1.6-0.4c-0.6,0-1.2,0.1-1.7,0.4
		c-0.5,0.3-0.9,0.7-1.2,1.2c-0.3,0.5-0.4,1.2-0.4,1.9c0,0.7,0.1,1.3,0.4,1.9c0.3,0.5,0.7,0.9,1.2,1.2c0.5,0.3,1,0.4,1.7,0.4
		c0.6,0,1.1-0.1,1.6-0.4c0.5-0.3,0.9-0.7,1.2-1.2c0.3-0.5,0.4-1.2,0.4-1.9C119.3,26.2,119.2,25.6,118.9,25.1z"/>
	<path class="st2" d="M123.1,24.6c0.4-0.7,0.9-1.2,1.5-1.6s1.4-0.6,2.2-0.6c0.8,0,1.5,0.2,2.2,0.6c0.6,0.4,1,0.9,1.3,1.5v-1.9h1.1
		v8.7h-1.1v-1.9c-0.3,0.6-0.7,1.1-1.3,1.5c-0.6,0.4-1.3,0.6-2.2,0.6c-0.8,0-1.5-0.2-2.1-0.6c-0.6-0.4-1.1-0.9-1.5-1.6
		c-0.4-0.7-0.5-1.5-0.5-2.4S122.7,25.2,123.1,24.6z M129.7,25.1c-0.3-0.5-0.7-0.9-1.2-1.2s-1-0.4-1.6-0.4c-0.6,0-1.2,0.1-1.7,0.4
		c-0.5,0.3-0.9,0.7-1.2,1.2c-0.3,0.5-0.4,1.2-0.4,1.9c0,0.7,0.1,1.3,0.4,1.9c0.3,0.5,0.7,0.9,1.2,1.2c0.5,0.3,1,0.4,1.7,0.4
		c0.6,0,1.1-0.1,1.6-0.4c0.5-0.3,0.9-0.7,1.2-1.2c0.3-0.5,0.4-1.2,0.4-1.9C130.1,26.2,130,25.6,129.7,25.1z"/>
	<path class="st2" d="M135.3,23.5v5.4c0,0.5,0.1,0.9,0.3,1.1c0.2,0.2,0.6,0.3,1.1,0.3h1v1h-1.2c-0.8,0-1.4-0.2-1.8-0.6
		c-0.4-0.4-0.6-1-0.6-1.8v-5.4h-1.2v-0.9h1.2v-2.2h1.1v2.2h2.4v0.9H135.3z"/>
	<path class="st2" d="M147.4,27.4h-7.2c0,0.7,0.2,1.2,0.5,1.7c0.3,0.5,0.7,0.8,1.1,1.1c0.5,0.2,1,0.4,1.5,0.4c0.7,0,1.3-0.2,1.8-0.5
		c0.5-0.4,0.8-0.8,1-1.4h1.2c-0.2,0.9-0.7,1.5-1.4,2.1c-0.7,0.5-1.6,0.8-2.6,0.8c-0.8,0-1.6-0.2-2.2-0.6c-0.7-0.4-1.2-0.9-1.5-1.6
		c-0.4-0.7-0.6-1.5-0.6-2.4c0-0.9,0.2-1.7,0.5-2.4c0.4-0.7,0.9-1.2,1.5-1.6s1.4-0.5,2.2-0.5s1.6,0.2,2.2,0.5s1.1,0.9,1.4,1.5
		s0.5,1.3,0.5,2C147.4,26.9,147.4,27.2,147.4,27.4z M145.9,24.8c-0.3-0.5-0.6-0.8-1.1-1c-0.5-0.2-1-0.4-1.5-0.4
		c-0.8,0-1.5,0.3-2.1,0.8c-0.6,0.5-0.9,1.3-1,2.3h6.1C146.3,25.8,146.2,25.3,145.9,24.8z"/>
</g>
<g>
	<path class="st2" d="M44.7,171.3h4v0.9h-5.1V161h1.1V171.3z"/>
	<path class="st2" d="M50.3,165.5c0.4-0.7,0.9-1.2,1.5-1.6s1.4-0.6,2.2-0.6c0.8,0,1.5,0.2,2.2,0.6c0.6,0.4,1,0.9,1.3,1.5v-1.9h1.1
		v8.7h-1.1v-1.9c-0.3,0.6-0.7,1.1-1.3,1.5c-0.6,0.4-1.3,0.6-2.2,0.6c-0.8,0-1.5-0.2-2.1-0.6c-0.6-0.4-1.1-0.9-1.5-1.6
		c-0.4-0.7-0.5-1.5-0.5-2.4S50,166.2,50.3,165.5z M57,166c-0.3-0.5-0.7-0.9-1.2-1.2s-1-0.4-1.6-0.4c-0.6,0-1.2,0.1-1.7,0.4
		c-0.5,0.3-0.9,0.7-1.2,1.2c-0.3,0.5-0.4,1.2-0.4,1.9c0,0.7,0.1,1.3,0.4,1.9c0.3,0.5,0.7,0.9,1.2,1.2c0.5,0.3,1,0.4,1.7,0.4
		c0.6,0,1.1-0.1,1.6-0.4c0.5-0.3,0.9-0.7,1.2-1.2c0.3-0.5,0.4-1.2,0.4-1.9C57.4,167.2,57.3,166.5,57,166z"/>
	<path class="st2" d="M61.2,165.5c0.4-0.7,0.9-1.2,1.5-1.6c0.6-0.4,1.4-0.6,2.2-0.6c1.1,0,2,0.3,2.7,0.8c0.7,0.5,1.1,1.3,1.4,2.2
		h-1.2c-0.1-0.6-0.5-1.1-1-1.5c-0.5-0.4-1.1-0.5-1.8-0.5c-0.6,0-1.1,0.1-1.6,0.4s-0.8,0.7-1.1,1.2c-0.3,0.5-0.4,1.2-0.4,1.9
		s0.1,1.4,0.4,2c0.3,0.5,0.6,0.9,1.1,1.2s1,0.4,1.6,0.4c0.7,0,1.4-0.2,1.8-0.5c0.5-0.4,0.8-0.9,1-1.5h1.2c-0.2,0.9-0.7,1.6-1.4,2.2
		s-1.6,0.8-2.7,0.8c-0.8,0-1.6-0.2-2.2-0.6c-0.6-0.4-1.1-0.9-1.5-1.6c-0.4-0.7-0.5-1.5-0.5-2.4C60.6,166.9,60.8,166.2,61.2,165.5z"
		/>
	<path class="st2" d="M75.7,172.2l-3.6-3.9v3.9h-1.1v-11.8h1.1v7l3.5-3.9h1.6l-4.1,4.4l4.2,4.4H75.7z"/>
	<path class="st2" d="M84.6,171.8c-0.7-0.4-1.2-0.9-1.6-1.6c-0.4-0.7-0.6-1.5-0.6-2.4c0-0.9,0.2-1.7,0.6-2.4
		c0.4-0.7,0.9-1.2,1.6-1.6s1.4-0.6,2.2-0.6s1.6,0.2,2.2,0.6c0.7,0.4,1.2,0.9,1.6,1.6c0.4,0.7,0.6,1.5,0.6,2.4c0,0.9-0.2,1.7-0.6,2.4
		s-0.9,1.2-1.6,1.6c-0.7,0.4-1.4,0.6-2.2,0.6S85.3,172.2,84.6,171.8z M88.4,171c0.5-0.3,0.9-0.7,1.2-1.2c0.3-0.5,0.5-1.2,0.5-1.9
		s-0.1-1.4-0.4-1.9c-0.3-0.5-0.7-0.9-1.2-1.2c-0.5-0.3-1-0.4-1.6-0.4s-1.1,0.1-1.6,0.4c-0.5,0.3-0.9,0.7-1.2,1.2
		c-0.3,0.5-0.4,1.2-0.4,1.9s0.1,1.4,0.4,1.9c0.3,0.5,0.7,0.9,1.2,1.2c0.5,0.3,1,0.4,1.6,0.4C87.4,171.4,87.9,171.2,88.4,171z"/>
	<path class="st2" d="M96.7,164.4h-2v7.8h-1.1v-7.8h-1.2v-0.9h1.2v-0.6c0-0.9,0.2-1.6,0.7-2.1c0.5-0.4,1.3-0.7,2.4-0.7v1
		c-0.7,0-1.2,0.1-1.5,0.4s-0.4,0.7-0.4,1.4v0.6h2V164.4z"/>
	<path class="st2" d="M115.8,164.3c0.6,0.6,1,1.6,1,2.8v5.1h-1.1v-5c0-0.9-0.2-1.7-0.7-2.2c-0.5-0.5-1.1-0.8-1.9-0.8
		c-0.8,0-1.5,0.3-2,0.8c-0.5,0.5-0.7,1.3-0.7,2.4v4.7h-1.1v-5c0-0.9-0.2-1.7-0.7-2.2c-0.5-0.5-1.1-0.8-1.9-0.8c-0.8,0-1.5,0.3-2,0.8
		c-0.5,0.5-0.7,1.3-0.7,2.4v4.7h-1.1v-8.7h1.1v1.5c0.3-0.5,0.7-1,1.2-1.2c0.5-0.3,1.1-0.4,1.7-0.4c0.8,0,1.4,0.2,2,0.5
		c0.6,0.4,1,0.9,1.2,1.6c0.2-0.7,0.6-1.2,1.2-1.6c0.6-0.4,1.2-0.6,1.9-0.6C114.3,163.3,115.1,163.6,115.8,164.3z"/>
	<path class="st2" d="M127.1,168.3h-7.2c0,0.7,0.2,1.2,0.5,1.7c0.3,0.5,0.7,0.8,1.1,1.1c0.5,0.2,1,0.4,1.5,0.4
		c0.7,0,1.3-0.2,1.8-0.5c0.5-0.4,0.8-0.8,1-1.4h1.2c-0.2,0.9-0.7,1.5-1.4,2.1c-0.7,0.5-1.6,0.8-2.6,0.8c-0.8,0-1.6-0.2-2.2-0.6
		c-0.7-0.4-1.2-0.9-1.5-1.6c-0.4-0.7-0.6-1.5-0.6-2.4c0-0.9,0.2-1.7,0.5-2.4c0.4-0.7,0.9-1.2,1.5-1.6s1.4-0.5,2.2-0.5
		s1.6,0.2,2.2,0.5s1.1,0.9,1.4,1.5s0.5,1.3,0.5,2C127.1,167.8,127.1,168.1,127.1,168.3z M125.6,165.7c-0.3-0.5-0.6-0.8-1.1-1
		c-0.5-0.2-1-0.4-1.5-0.4c-0.8,0-1.5,0.3-2.1,0.8c-0.6,0.5-0.9,1.3-1,2.3h6.1C126,166.7,125.9,166.2,125.6,165.7z"/>
	<path class="st2" d="M129.2,165.5c0.4-0.7,0.9-1.2,1.5-1.6s1.4-0.6,2.2-0.6c0.8,0,1.5,0.2,2.1,0.6c0.6,0.4,1.1,0.9,1.4,1.5v-5h1.1
		v11.8h-1.1v-2c-0.3,0.6-0.7,1.1-1.3,1.5c-0.6,0.4-1.3,0.6-2.1,0.6c-0.8,0-1.5-0.2-2.2-0.6c-0.6-0.4-1.1-0.9-1.5-1.6
		c-0.4-0.7-0.5-1.5-0.5-2.4S128.8,166.2,129.2,165.5z M135.8,166c-0.3-0.5-0.7-0.9-1.2-1.2s-1-0.4-1.6-0.4c-0.6,0-1.2,0.1-1.7,0.4
		c-0.5,0.3-0.9,0.7-1.2,1.2c-0.3,0.5-0.4,1.2-0.4,1.9c0,0.7,0.1,1.3,0.4,1.9c0.3,0.5,0.7,0.9,1.2,1.2c0.5,0.3,1,0.4,1.7,0.4
		c0.6,0,1.1-0.1,1.6-0.4c0.5-0.3,0.9-0.7,1.2-1.2c0.3-0.5,0.4-1.2,0.4-1.9C136.3,167.2,136.1,166.5,135.8,166z"/>
	<path class="st2" d="M139.9,161.6c-0.2-0.2-0.2-0.4-0.2-0.6c0-0.2,0.1-0.4,0.2-0.6s0.4-0.2,0.6-0.2c0.2,0,0.4,0.1,0.6,0.2
		s0.2,0.3,0.2,0.6c0,0.2-0.1,0.4-0.2,0.6s-0.4,0.2-0.6,0.2C140.3,161.8,140.1,161.8,139.9,161.6z M141.1,163.5v8.7H140v-8.7H141.1z"
		/>
	<path class="st2" d="M143.7,165.5c0.4-0.7,0.9-1.2,1.5-1.6c0.6-0.4,1.4-0.6,2.2-0.6c1.1,0,2,0.3,2.7,0.8c0.7,0.5,1.1,1.3,1.4,2.2
		h-1.2c-0.1-0.6-0.5-1.1-1-1.5c-0.5-0.4-1.1-0.5-1.8-0.5c-0.6,0-1.1,0.1-1.6,0.4s-0.8,0.7-1.1,1.2c-0.3,0.5-0.4,1.2-0.4,1.9
		s0.1,1.4,0.4,2c0.3,0.5,0.6,0.9,1.1,1.2s1,0.4,1.6,0.4c0.7,0,1.4-0.2,1.8-0.5c0.5-0.4,0.8-0.9,1-1.5h1.2c-0.2,0.9-0.7,1.6-1.4,2.2
		s-1.6,0.8-2.7,0.8c-0.8,0-1.6-0.2-2.2-0.6c-0.6-0.4-1.1-0.9-1.5-1.6c-0.4-0.7-0.5-1.5-0.5-2.4C143.1,166.9,143.3,166.2,143.7,165.5
		z"/>
	<path class="st2" d="M153.5,165.5c0.4-0.7,0.9-1.2,1.5-1.6s1.4-0.6,2.2-0.6c0.8,0,1.5,0.2,2.2,0.6c0.6,0.4,1,0.9,1.3,1.5v-1.9h1.1
		v8.7h-1.1v-1.9c-0.3,0.6-0.7,1.1-1.3,1.5c-0.6,0.4-1.3,0.6-2.2,0.6c-0.8,0-1.5-0.2-2.1-0.6c-0.6-0.4-1.1-0.9-1.5-1.6
		c-0.4-0.7-0.5-1.5-0.5-2.4S153.1,166.2,153.5,165.5z M160.1,166c-0.3-0.5-0.7-0.9-1.2-1.2s-1-0.4-1.6-0.4c-0.6,0-1.2,0.1-1.7,0.4
		c-0.5,0.3-0.9,0.7-1.2,1.2c-0.3,0.5-0.4,1.2-0.4,1.9c0,0.7,0.1,1.3,0.4,1.9c0.3,0.5,0.7,0.9,1.2,1.2c0.5,0.3,1,0.4,1.7,0.4
		c0.6,0,1.1-0.1,1.6-0.4c0.5-0.3,0.9-0.7,1.2-1.2c0.3-0.5,0.4-1.2,0.4-1.9C160.5,167.2,160.4,166.5,160.1,166z"/>
	<path class="st2" d="M165.3,160.4v11.8h-1.1v-11.8H165.3z"/>
	<path class="st2" d="M43.6,180.8c-0.2-0.2-0.2-0.4-0.2-0.6c0-0.2,0.1-0.4,0.2-0.6s0.4-0.2,0.6-0.2c0.2,0,0.4,0.1,0.6,0.2
		s0.2,0.3,0.2,0.6c0,0.2-0.1,0.4-0.2,0.6s-0.4,0.2-0.6,0.2C43.9,181,43.7,181,43.6,180.8z M44.7,182.7v8.7h-1.1v-8.7H44.7z"/>
	<path class="st2" d="M53.9,183.5c0.7,0.6,1,1.6,1,2.8v5.1h-1.1v-5c0-0.9-0.2-1.7-0.7-2.2s-1.1-0.8-1.9-0.8c-0.8,0-1.5,0.3-2,0.8
		c-0.5,0.5-0.8,1.3-0.8,2.4v4.8h-1.1v-8.7h1.1v1.5c0.3-0.5,0.7-0.9,1.2-1.2c0.5-0.3,1.1-0.4,1.8-0.4
		C52.4,182.5,53.2,182.9,53.9,183.5z"/>
	<path class="st2" d="M60.8,183.6h-2v7.8h-1.1v-7.8h-1.2v-0.9h1.2v-0.6c0-0.9,0.2-1.6,0.7-2.1c0.5-0.4,1.3-0.7,2.4-0.7v1
		c-0.7,0-1.2,0.1-1.5,0.4s-0.4,0.7-0.4,1.4v0.6h2V183.6z"/>
	<path class="st2" d="M64.2,191c-0.7-0.4-1.2-0.9-1.6-1.6c-0.4-0.7-0.6-1.5-0.6-2.4c0-0.9,0.2-1.7,0.6-2.4c0.4-0.7,0.9-1.2,1.6-1.6
		c0.7-0.4,1.4-0.6,2.2-0.6s1.6,0.2,2.2,0.6c0.7,0.4,1.2,0.9,1.6,1.6c0.4,0.7,0.6,1.5,0.6,2.4c0,0.9-0.2,1.7-0.6,2.4
		s-0.9,1.2-1.6,1.6c-0.7,0.4-1.4,0.6-2.2,0.6S64.8,191.4,64.2,191z M68,190.2c0.5-0.3,0.9-0.7,1.2-1.2c0.3-0.5,0.5-1.2,0.5-1.9
		s-0.1-1.4-0.4-1.9c-0.3-0.5-0.7-0.9-1.2-1.2c-0.5-0.3-1-0.4-1.6-0.4s-1.1,0.1-1.6,0.4c-0.5,0.3-0.9,0.7-1.2,1.2
		c-0.3,0.5-0.4,1.2-0.4,1.9s0.1,1.4,0.4,1.9c0.3,0.5,0.7,0.9,1.2,1.2c0.5,0.3,1,0.4,1.6,0.4C67,190.6,67.5,190.4,68,190.2z"/>
	<path class="st2" d="M75.1,183c0.5-0.3,1.1-0.4,1.9-0.4v1.2h-0.3c-0.8,0-1.5,0.2-2,0.7c-0.5,0.4-0.7,1.2-0.7,2.2v4.9h-1.1v-8.7H74
		v1.6C74.2,183.7,74.6,183.3,75.1,183z"/>
	<path class="st2" d="M91.5,183.5c0.6,0.6,1,1.6,1,2.8v5.1h-1.1v-5c0-0.9-0.2-1.7-0.7-2.2c-0.5-0.5-1.1-0.8-1.9-0.8
		c-0.8,0-1.5,0.3-2,0.8c-0.5,0.5-0.7,1.3-0.7,2.4v4.7H85v-5c0-0.9-0.2-1.7-0.7-2.2c-0.5-0.5-1.1-0.8-1.9-0.8c-0.8,0-1.5,0.3-2,0.8
		c-0.5,0.5-0.7,1.3-0.7,2.4v4.7h-1.1v-8.7h1.1v1.5c0.3-0.5,0.7-1,1.2-1.2c0.5-0.3,1.1-0.4,1.7-0.4c0.8,0,1.4,0.2,2,0.5
		c0.6,0.4,1,0.9,1.2,1.6c0.2-0.7,0.6-1.2,1.2-1.6c0.6-0.4,1.2-0.6,1.9-0.6C90.1,182.5,90.9,182.9,91.5,183.5z"/>
	<path class="st2" d="M95,184.7c0.4-0.7,0.9-1.2,1.5-1.6s1.4-0.6,2.2-0.6c0.8,0,1.5,0.2,2.2,0.6c0.6,0.4,1,0.9,1.3,1.5v-1.9h1.1v8.7
		h-1.1v-1.9c-0.3,0.6-0.7,1.1-1.3,1.5c-0.6,0.4-1.3,0.6-2.2,0.6c-0.8,0-1.5-0.2-2.1-0.6c-0.6-0.4-1.1-0.9-1.5-1.6
		c-0.4-0.7-0.5-1.5-0.5-2.4S94.7,185.4,95,184.7z M101.7,185.2c-0.3-0.5-0.7-0.9-1.2-1.2s-1-0.4-1.6-0.4c-0.6,0-1.2,0.1-1.7,0.4
		c-0.5,0.3-0.9,0.7-1.2,1.2c-0.3,0.5-0.4,1.2-0.4,1.9c0,0.7,0.1,1.3,0.4,1.9c0.3,0.5,0.7,0.9,1.2,1.2c0.5,0.3,1,0.4,1.7,0.4
		c0.6,0,1.1-0.1,1.6-0.4c0.5-0.3,0.9-0.7,1.2-1.2c0.3-0.5,0.4-1.2,0.4-1.9C102.1,186.4,102,185.7,101.7,185.2z"/>
	<path class="st2" d="M107.3,183.6v5.4c0,0.5,0.1,0.9,0.3,1.1c0.2,0.2,0.6,0.3,1.1,0.3h1v1h-1.2c-0.8,0-1.4-0.2-1.8-0.6
		c-0.4-0.4-0.6-1-0.6-1.8v-5.4h-1.2v-0.9h1.2v-2.2h1.1v2.2h2.4v0.9H107.3z"/>
	<path class="st2" d="M111.5,180.8c-0.2-0.2-0.2-0.4-0.2-0.6c0-0.2,0.1-0.4,0.2-0.6s0.4-0.2,0.6-0.2c0.2,0,0.4,0.1,0.6,0.2
		s0.2,0.3,0.2,0.6c0,0.2-0.1,0.4-0.2,0.6s-0.4,0.2-0.6,0.2C111.8,181,111.6,181,111.5,180.8z M112.6,182.7v8.7h-1.1v-8.7H112.6z"/>
	<path class="st2" d="M116.8,191c-0.7-0.4-1.2-0.9-1.6-1.6c-0.4-0.7-0.6-1.5-0.6-2.4c0-0.9,0.2-1.7,0.6-2.4c0.4-0.7,0.9-1.2,1.6-1.6
		s1.4-0.6,2.2-0.6s1.6,0.2,2.2,0.6c0.7,0.4,1.2,0.9,1.6,1.6c0.4,0.7,0.6,1.5,0.6,2.4c0,0.9-0.2,1.7-0.6,2.4s-0.9,1.2-1.6,1.6
		c-0.7,0.4-1.4,0.6-2.2,0.6S117.4,191.4,116.8,191z M120.6,190.2c0.5-0.3,0.9-0.7,1.2-1.2c0.3-0.5,0.5-1.2,0.5-1.9s-0.1-1.4-0.4-1.9
		c-0.3-0.5-0.7-0.9-1.2-1.2c-0.5-0.3-1-0.4-1.6-0.4s-1.1,0.1-1.6,0.4c-0.5,0.3-0.9,0.7-1.2,1.2c-0.3,0.5-0.4,1.2-0.4,1.9
		s0.1,1.4,0.4,1.9c0.3,0.5,0.7,0.9,1.2,1.2c0.5,0.3,1,0.4,1.6,0.4C119.6,190.6,120.1,190.4,120.6,190.2z"/>
	<path class="st2" d="M132.1,183.5c0.7,0.6,1,1.6,1,2.8v5.1H132v-5c0-0.9-0.2-1.7-0.7-2.2s-1.1-0.8-1.9-0.8c-0.8,0-1.5,0.3-2,0.8
		c-0.5,0.5-0.8,1.3-0.8,2.4v4.8h-1.1v-8.7h1.1v1.5c0.3-0.5,0.7-0.9,1.2-1.2c0.5-0.3,1.1-0.4,1.8-0.4
		C130.6,182.5,131.4,182.9,132.1,183.5z"/>
</g>
<g>
	<path class="st2" d="M52,75.7h-1.1l-6.2-9.4v9.4h-1.1V64.5h1.1l6.2,9.4v-9.4H52V75.7z"/>
	<path class="st2" d="M56.2,75.2c-0.7-0.4-1.2-0.9-1.6-1.6c-0.4-0.7-0.6-1.5-0.6-2.4c0-0.9,0.2-1.7,0.6-2.4c0.4-0.7,0.9-1.2,1.6-1.6
		s1.4-0.6,2.2-0.6s1.6,0.2,2.2,0.6c0.7,0.4,1.2,0.9,1.6,1.6c0.4,0.7,0.6,1.5,0.6,2.4c0,0.9-0.2,1.7-0.6,2.4s-0.9,1.2-1.6,1.6
		c-0.7,0.4-1.4,0.6-2.2,0.6S56.8,75.6,56.2,75.2z M60,74.4c0.5-0.3,0.9-0.7,1.2-1.2c0.3-0.5,0.5-1.2,0.5-1.9s-0.1-1.4-0.4-1.9
		c-0.3-0.5-0.7-0.9-1.2-1.2c-0.5-0.3-1-0.4-1.6-0.4s-1.1,0.1-1.6,0.4c-0.5,0.3-0.9,0.7-1.2,1.2c-0.3,0.5-0.4,1.2-0.4,1.9
		s0.1,1.4,0.4,1.9c0.3,0.5,0.7,0.9,1.2,1.2c0.5,0.3,1,0.4,1.6,0.4C59,74.8,59.5,74.7,60,74.4z"/>
	<path class="st2" d="M70.8,75.2c-0.7-0.4-1.2-0.9-1.6-1.6c-0.4-0.7-0.6-1.5-0.6-2.4c0-0.9,0.2-1.7,0.6-2.4c0.4-0.7,0.9-1.2,1.6-1.6
		s1.4-0.6,2.2-0.6s1.6,0.2,2.2,0.6c0.7,0.4,1.2,0.9,1.6,1.6c0.4,0.7,0.6,1.5,0.6,2.4c0,0.9-0.2,1.7-0.6,2.4s-0.9,1.2-1.6,1.6
		c-0.7,0.4-1.4,0.6-2.2,0.6S71.5,75.6,70.8,75.2z M74.6,74.4c0.5-0.3,0.9-0.7,1.2-1.2c0.3-0.5,0.5-1.2,0.5-1.9s-0.1-1.4-0.4-1.9
		c-0.3-0.5-0.7-0.9-1.2-1.2c-0.5-0.3-1-0.4-1.6-0.4s-1.1,0.1-1.6,0.4c-0.5,0.3-0.9,0.7-1.2,1.2c-0.3,0.5-0.4,1.2-0.4,1.9
		s0.1,1.4,0.4,1.9c0.3,0.5,0.7,0.9,1.2,1.2c0.5,0.3,1,0.4,1.6,0.4C73.6,74.8,74.2,74.7,74.6,74.4z"/>
	<path class="st2" d="M81.9,67.4c0.6-0.4,1.3-0.6,2.1-0.6c0.8,0,1.5,0.2,2.1,0.6c0.6,0.4,1.1,0.9,1.5,1.6c0.4,0.7,0.5,1.5,0.5,2.4
		S88,73,87.7,73.6c-0.4,0.7-0.9,1.2-1.5,1.6c-0.6,0.4-1.3,0.6-2.1,0.6c-0.8,0-1.5-0.2-2.2-0.6c-0.6-0.4-1-0.9-1.3-1.5v1.9h-1.1V63.8
		h1.1v5C80.9,68.2,81.3,67.8,81.9,67.4z M86.7,69.4c-0.3-0.5-0.7-0.9-1.2-1.2c-0.5-0.3-1-0.4-1.7-0.4c-0.6,0-1.1,0.1-1.6,0.4
		s-0.9,0.7-1.2,1.2c-0.3,0.5-0.4,1.2-0.4,1.9c0,0.7,0.1,1.3,0.4,1.9c0.3,0.5,0.7,0.9,1.2,1.2c0.5,0.3,1,0.4,1.6,0.4
		c0.6,0,1.2-0.1,1.7-0.4s0.9-0.7,1.2-1.2c0.3-0.5,0.4-1.2,0.4-1.9C87.1,70.5,87,69.9,86.7,69.4z"/>
	<path class="st2" d="M90.8,75.1c-0.6-0.5-1-1.1-1.1-1.9h1.2c0.1,0.5,0.3,0.9,0.7,1.2c0.4,0.3,1,0.5,1.7,0.5c0.6,0,1.1-0.1,1.4-0.4
		s0.5-0.6,0.5-1.1c0-0.3-0.1-0.5-0.3-0.7c-0.2-0.2-0.4-0.3-0.7-0.5c-0.3-0.1-0.7-0.2-1.2-0.4c-0.7-0.2-1.2-0.3-1.6-0.5
		c-0.4-0.2-0.7-0.4-1-0.8c-0.3-0.3-0.4-0.8-0.4-1.4c0-0.4,0.1-0.8,0.4-1.2c0.3-0.4,0.6-0.7,1.1-0.9c0.5-0.2,1-0.3,1.6-0.3
		c0.9,0,1.7,0.2,2.3,0.7s0.9,1.1,0.9,2h-1.1c0-0.5-0.2-0.9-0.6-1.2c-0.4-0.3-0.9-0.5-1.5-0.5c-0.6,0-1,0.1-1.4,0.4
		c-0.4,0.3-0.5,0.6-0.5,1c0,0.3,0.1,0.6,0.3,0.8s0.5,0.4,0.8,0.5c0.3,0.1,0.7,0.3,1.2,0.4c0.6,0.2,1.1,0.3,1.5,0.5
		c0.4,0.2,0.7,0.4,1,0.7c0.3,0.3,0.4,0.7,0.4,1.2c0,0.5-0.1,0.9-0.4,1.3s-0.6,0.7-1.1,0.9c-0.5,0.2-1,0.3-1.6,0.3
		C92.3,75.8,91.5,75.6,90.8,75.1z"/>
	<path class="st2" d="M99.9,67.9v5.4c0,0.5,0.1,0.9,0.3,1.1c0.2,0.2,0.6,0.3,1.1,0.3h1v1h-1.2c-0.8,0-1.4-0.2-1.8-0.6
		c-0.4-0.4-0.6-1-0.6-1.8v-5.4h-1.2v-0.9h1.2v-2.2h1.1v2.2h2.4v0.9H99.9z"/>
	<path class="st2" d="M104.2,68.9c0.4-0.7,0.9-1.2,1.5-1.6s1.4-0.6,2.2-0.6c0.8,0,1.5,0.2,2.2,0.6c0.6,0.4,1,0.9,1.3,1.5v-1.9h1.1
		v8.7h-1.1v-1.9c-0.3,0.6-0.7,1.1-1.3,1.5c-0.6,0.4-1.3,0.6-2.2,0.6c-0.8,0-1.5-0.2-2.1-0.6c-0.6-0.4-1.1-0.9-1.5-1.6
		c-0.4-0.7-0.5-1.5-0.5-2.4S103.8,69.6,104.2,68.9z M110.8,69.4c-0.3-0.5-0.7-0.9-1.2-1.2s-1-0.4-1.6-0.4c-0.6,0-1.2,0.1-1.7,0.4
		c-0.5,0.3-0.9,0.7-1.2,1.2c-0.3,0.5-0.4,1.2-0.4,1.9c0,0.7,0.1,1.3,0.4,1.9c0.3,0.5,0.7,0.9,1.2,1.2c0.5,0.3,1,0.4,1.7,0.4
		c0.6,0,1.1-0.1,1.6-0.4c0.5-0.3,0.9-0.7,1.2-1.2c0.3-0.5,0.4-1.2,0.4-1.9C111.3,70.6,111.1,70,110.8,69.4z"/>
	<path class="st2" d="M115,68.9c0.4-0.7,0.9-1.2,1.5-1.6c0.6-0.4,1.4-0.6,2.2-0.6c1.1,0,2,0.3,2.7,0.8c0.7,0.5,1.1,1.3,1.4,2.2h-1.2
		c-0.1-0.6-0.5-1.1-1-1.5c-0.5-0.4-1.1-0.5-1.8-0.5c-0.6,0-1.1,0.1-1.6,0.4s-0.8,0.7-1.1,1.2c-0.3,0.5-0.4,1.2-0.4,1.9
		s0.1,1.4,0.4,2c0.3,0.5,0.6,0.9,1.1,1.2s1,0.4,1.6,0.4c0.7,0,1.4-0.2,1.8-0.5c0.5-0.4,0.8-0.9,1-1.5h1.2c-0.2,0.9-0.7,1.6-1.4,2.2
		s-1.6,0.8-2.7,0.8c-0.8,0-1.6-0.2-2.2-0.6c-0.6-0.4-1.1-0.9-1.5-1.6c-0.4-0.7-0.5-1.5-0.5-2.4C114.4,70.4,114.6,69.6,115,68.9z"/>
	<path class="st2" d="M125.9,63.8v11.8h-1.1V63.8H125.9z"/>
	<path class="st2" d="M136.3,71.7H129c0,0.7,0.2,1.2,0.5,1.7c0.3,0.5,0.7,0.8,1.1,1.1c0.5,0.2,1,0.4,1.5,0.4c0.7,0,1.3-0.2,1.8-0.5
		c0.5-0.4,0.8-0.8,1-1.4h1.2c-0.2,0.9-0.7,1.5-1.4,2.1c-0.7,0.5-1.6,0.8-2.6,0.8c-0.8,0-1.6-0.2-2.2-0.6c-0.7-0.4-1.2-0.9-1.5-1.6
		c-0.4-0.7-0.6-1.5-0.6-2.4c0-0.9,0.2-1.7,0.5-2.4c0.4-0.7,0.9-1.2,1.5-1.6s1.4-0.5,2.2-0.5s1.6,0.2,2.2,0.5s1.1,0.9,1.4,1.5
		s0.5,1.3,0.5,2C136.3,71.2,136.3,71.5,136.3,71.7z M134.8,69.1c-0.3-0.5-0.6-0.8-1.1-1c-0.5-0.2-1-0.4-1.5-0.4
		c-0.8,0-1.5,0.3-2.1,0.8c-0.6,0.5-0.9,1.3-1,2.3h6.1C135.2,70.2,135.1,69.6,134.8,69.1z"/>
	<path class="st2" d="M138.9,75.1c-0.6-0.5-1-1.1-1.1-1.9h1.2c0.1,0.5,0.3,0.9,0.7,1.2c0.4,0.3,1,0.5,1.7,0.5c0.6,0,1.1-0.1,1.4-0.4
		s0.5-0.6,0.5-1.1c0-0.3-0.1-0.5-0.3-0.7c-0.2-0.2-0.4-0.3-0.7-0.5c-0.3-0.1-0.7-0.2-1.2-0.4c-0.7-0.2-1.2-0.3-1.6-0.5
		c-0.4-0.2-0.7-0.4-1-0.8c-0.3-0.3-0.4-0.8-0.4-1.4c0-0.4,0.1-0.8,0.4-1.2c0.3-0.4,0.6-0.7,1.1-0.9c0.5-0.2,1-0.3,1.6-0.3
		c0.9,0,1.7,0.2,2.3,0.7s0.9,1.1,0.9,2h-1.1c0-0.5-0.2-0.9-0.6-1.2c-0.4-0.3-0.9-0.5-1.5-0.5c-0.6,0-1,0.1-1.4,0.4
		c-0.4,0.3-0.5,0.6-0.5,1c0,0.3,0.1,0.6,0.3,0.8s0.5,0.4,0.8,0.5c0.3,0.1,0.7,0.3,1.2,0.4c0.6,0.2,1.1,0.3,1.5,0.5
		c0.4,0.2,0.7,0.4,1,0.7c0.3,0.3,0.4,0.7,0.4,1.2c0,0.5-0.1,0.9-0.4,1.3s-0.6,0.7-1.1,0.9c-0.5,0.2-1,0.3-1.6,0.3
		C140.4,75.8,139.6,75.6,138.9,75.1z"/>
</g>
<g>
	<path class="st2" d="M44.7,118.1v11.2h-1.1v-11.2H44.7z"/>
	<path class="st2" d="M53.9,121.4c0.7,0.6,1,1.6,1,2.8v5.1h-1.1v-5c0-0.9-0.2-1.7-0.7-2.2s-1.1-0.8-1.9-0.8c-0.8,0-1.5,0.3-2,0.8
		c-0.5,0.5-0.8,1.3-0.8,2.4v4.8h-1.1v-8.7h1.1v1.5c0.3-0.5,0.7-0.9,1.2-1.2c0.5-0.3,1.1-0.4,1.8-0.4
		C52.4,120.4,53.2,120.7,53.9,121.4z"/>
	<path class="st2" d="M65.3,125.4H58c0,0.7,0.2,1.2,0.5,1.7c0.3,0.5,0.7,0.8,1.1,1.1c0.5,0.2,1,0.4,1.5,0.4c0.7,0,1.3-0.2,1.8-0.5
		c0.5-0.4,0.8-0.8,1-1.4h1.2c-0.2,0.9-0.7,1.5-1.4,2.1c-0.7,0.5-1.6,0.8-2.6,0.8c-0.8,0-1.6-0.2-2.2-0.6c-0.7-0.4-1.2-0.9-1.5-1.6
		c-0.4-0.7-0.6-1.5-0.6-2.4c0-0.9,0.2-1.7,0.5-2.4c0.4-0.7,0.9-1.2,1.5-1.6s1.4-0.5,2.2-0.5s1.6,0.2,2.2,0.5s1.1,0.9,1.4,1.5
		s0.5,1.3,0.5,2C65.3,124.9,65.3,125.2,65.3,125.4z M63.8,122.8c-0.3-0.5-0.6-0.8-1.1-1c-0.5-0.2-1-0.4-1.5-0.4
		c-0.8,0-1.5,0.3-2.1,0.8c-0.6,0.5-0.9,1.3-1,2.3h6.1C64.2,123.8,64,123.2,63.8,122.8z"/>
	<path class="st2" d="M70.8,121.5h-2v7.8h-1.1v-7.8h-1.2v-0.9h1.2v-0.6c0-0.9,0.2-1.6,0.7-2.1c0.5-0.4,1.3-0.7,2.4-0.7v1
		c-0.7,0-1.2,0.1-1.5,0.4s-0.4,0.7-0.4,1.4v0.6h2V121.5z"/>
	<path class="st2" d="M76,121.5h-2v7.8h-1.1v-7.8h-1.2v-0.9h1.2v-0.6c0-0.9,0.2-1.6,0.7-2.1c0.5-0.4,1.3-0.7,2.4-0.7v1
		c-0.7,0-1.2,0.1-1.5,0.4s-0.4,0.7-0.4,1.4v0.6h2V121.5z"/>
	<path class="st2" d="M77.7,118.7c-0.2-0.2-0.2-0.4-0.2-0.6c0-0.2,0.1-0.4,0.2-0.6s0.4-0.2,0.6-0.2c0.2,0,0.4,0.1,0.6,0.2
		s0.2,0.3,0.2,0.6c0,0.2-0.1,0.4-0.2,0.6s-0.4,0.2-0.6,0.2C78.1,118.9,77.9,118.8,77.7,118.7z M78.9,120.6v8.7h-1.1v-8.7H78.9z"/>
	<path class="st2" d="M81.4,122.5c0.4-0.7,0.9-1.2,1.5-1.6c0.6-0.4,1.4-0.6,2.2-0.6c1.1,0,2,0.3,2.7,0.8c0.7,0.5,1.1,1.3,1.4,2.2
		h-1.2c-0.1-0.6-0.5-1.1-1-1.5c-0.5-0.4-1.1-0.5-1.8-0.5c-0.6,0-1.1,0.1-1.6,0.4s-0.8,0.7-1.1,1.2c-0.3,0.5-0.4,1.2-0.4,1.9
		s0.1,1.4,0.4,2c0.3,0.5,0.6,0.9,1.1,1.2s1,0.4,1.6,0.4c0.7,0,1.4-0.2,1.8-0.5c0.5-0.4,0.8-0.9,1-1.5h1.2c-0.2,0.9-0.7,1.6-1.4,2.2
		s-1.6,0.8-2.7,0.8c-0.8,0-1.6-0.2-2.2-0.6c-0.6-0.4-1.1-0.9-1.5-1.6c-0.4-0.7-0.5-1.5-0.5-2.4C80.9,124,81.1,123.2,81.4,122.5z"/>
	<path class="st2" d="M91.2,118.7c-0.2-0.2-0.2-0.4-0.2-0.6c0-0.2,0.1-0.4,0.2-0.6s0.4-0.2,0.6-0.2c0.2,0,0.4,0.1,0.6,0.2
		s0.2,0.3,0.2,0.6c0,0.2-0.1,0.4-0.2,0.6s-0.4,0.2-0.6,0.2C91.5,118.9,91.3,118.8,91.2,118.7z M92.3,120.6v8.7h-1.1v-8.7H92.3z"/>
	<path class="st2" d="M102.7,125.4h-7.2c0,0.7,0.2,1.2,0.5,1.7c0.3,0.5,0.7,0.8,1.1,1.1c0.5,0.2,1,0.4,1.5,0.4
		c0.7,0,1.3-0.2,1.8-0.5c0.5-0.4,0.8-0.8,1-1.4h1.2c-0.2,0.9-0.7,1.5-1.4,2.1c-0.7,0.5-1.6,0.8-2.6,0.8c-0.8,0-1.6-0.2-2.2-0.6
		c-0.7-0.4-1.2-0.9-1.5-1.6c-0.4-0.7-0.6-1.5-0.6-2.4c0-0.9,0.2-1.7,0.5-2.4c0.4-0.7,0.9-1.2,1.5-1.6s1.4-0.5,2.2-0.5
		s1.6,0.2,2.2,0.5s1.1,0.9,1.4,1.5s0.5,1.3,0.5,2C102.8,124.9,102.8,125.2,102.7,125.4z M101.2,122.8c-0.3-0.5-0.6-0.8-1.1-1
		c-0.5-0.2-1-0.4-1.5-0.4c-0.8,0-1.5,0.3-2.1,0.8c-0.6,0.5-0.9,1.3-1,2.3h6.1C101.6,123.8,101.5,123.2,101.2,122.8z"/>
	<path class="st2" d="M111.5,121.4c0.7,0.6,1,1.6,1,2.8v5.1h-1.1v-5c0-0.9-0.2-1.7-0.7-2.2s-1.1-0.8-1.9-0.8c-0.8,0-1.5,0.3-2,0.8
		c-0.5,0.5-0.8,1.3-0.8,2.4v4.8h-1.1v-8.7h1.1v1.5c0.3-0.5,0.7-0.9,1.2-1.2c0.5-0.3,1.1-0.4,1.8-0.4
		C110,120.4,110.8,120.7,111.5,121.4z"/>
	<path class="st2" d="M116.4,121.5v5.4c0,0.5,0.1,0.9,0.3,1.1c0.2,0.2,0.6,0.3,1.1,0.3h1v1h-1.2c-0.8,0-1.4-0.2-1.8-0.6
		c-0.4-0.4-0.6-1-0.6-1.8v-5.4h-1.2v-0.9h1.2v-2.2h1.1v2.2h2.4v0.9H116.4z"/>
</g>
<g>
	<path class="st2" d="M49.1,235.9c-0.8-0.5-1.5-1.2-2-2c-0.5-0.9-0.7-1.9-0.7-3s0.2-2.1,0.7-3c0.5-0.9,1.2-1.5,2-2s1.8-0.7,2.8-0.7
		c1,0,2,0.2,2.8,0.7c0.8,0.5,1.5,1.2,2,2c0.5,0.9,0.7,1.9,0.7,3s-0.2,2.1-0.7,3c-0.5,0.9-1.1,1.5-2,2c-0.8,0.5-1.8,0.7-2.8,0.7
		C50.9,236.7,50,236.4,49.1,235.9z M54.2,235.1c0.7-0.4,1.2-0.9,1.6-1.7c0.4-0.7,0.6-1.6,0.6-2.5c0-0.9-0.2-1.8-0.6-2.5
		c-0.4-0.7-0.9-1.3-1.6-1.6c-0.7-0.4-1.4-0.6-2.2-0.6s-1.6,0.2-2.2,0.6c-0.7,0.4-1.2,0.9-1.6,1.6c-0.4,0.7-0.6,1.5-0.6,2.5
		c0,0.9,0.2,1.8,0.6,2.5c0.4,0.7,0.9,1.3,1.6,1.7c0.7,0.4,1.4,0.6,2.2,0.6S53.5,235.5,54.2,235.1z"/>
	<path class="st2" d="M61,228.8v5.4c0,0.5,0.1,0.9,0.3,1.1c0.2,0.2,0.6,0.3,1.1,0.3h1v1h-1.2c-0.8,0-1.4-0.2-1.8-0.6
		c-0.4-0.4-0.6-1-0.6-1.8v-5.4h-1.2v-0.9h1.2v-2.2H61v2.2h2.4v0.9H61z"/>
	<path class="st2" d="M71.2,228.1c0.5,0.3,0.9,0.7,1.2,1.3c0.3,0.6,0.5,1.3,0.5,2.1v5.1h-1.1v-5c0-0.9-0.2-1.7-0.7-2.2
		s-1.1-0.8-1.9-0.8c-0.8,0-1.5,0.3-2,0.8c-0.5,0.5-0.8,1.3-0.8,2.4v4.8h-1.1v-11.8h1.1v4.6c0.3-0.5,0.7-0.9,1.2-1.2
		c0.5-0.3,1.1-0.4,1.8-0.4C70.1,227.7,70.7,227.8,71.2,228.1z"/>
	<path class="st2" d="M83.2,232.6H76c0,0.7,0.2,1.2,0.5,1.7c0.3,0.5,0.7,0.8,1.1,1.1c0.5,0.2,1,0.4,1.5,0.4c0.7,0,1.3-0.2,1.8-0.5
		c0.5-0.4,0.8-0.8,1-1.4h1.2c-0.2,0.9-0.7,1.5-1.4,2.1c-0.7,0.5-1.6,0.8-2.6,0.8c-0.8,0-1.6-0.2-2.2-0.6c-0.7-0.4-1.2-0.9-1.5-1.6
		c-0.4-0.7-0.6-1.5-0.6-2.4c0-0.9,0.2-1.7,0.5-2.4c0.4-0.7,0.9-1.2,1.5-1.6s1.4-0.5,2.2-0.5s1.6,0.2,2.2,0.5
		c0.6,0.4,1.1,0.9,1.4,1.5s0.5,1.3,0.5,2C83.3,232.1,83.3,232.4,83.2,232.6z M81.7,230c-0.3-0.5-0.6-0.8-1.1-1
		c-0.5-0.2-1-0.4-1.5-0.4c-0.8,0-1.5,0.3-2.1,0.8c-0.6,0.5-0.9,1.3-1,2.3h6.1C82.1,231,82,230.5,81.7,230z"/>
	<path class="st2" d="M87.6,228.1c0.5-0.3,1.1-0.4,1.9-0.4v1.2h-0.3c-0.8,0-1.5,0.2-2,0.7s-0.7,1.2-0.7,2.2v4.9h-1.1v-8.7h1.1v1.6
		C86.7,228.8,87.1,228.4,87.6,228.1z"/>
</g>
<g>
	<path class="st3" d="M11.7,111.9L11.7,111.9h-0.2c-6.3,0-11.3,5.2-11.3,11.4c0,6.3,5.1,11.4,11.3,11.4h0.1h0.1
		c6.2,0,11.3-5.1,11.3-11.4C23.1,117,18,111.9,11.7,111.9z"/>
	<path class="st4" d="M17.3,124.1H9.8v-5.2"/>
</g>
</svg>
