<!-- Generator: Adobe Illustrator 25.0.0, SVG Export Plug-In  -->
<svg version="1.1" xmlns="http://www.w3.org/2000/svg" xmlns:xlink="http://www.w3.org/1999/xlink" x="0px" y="0px" width="135.9px"
	 height="135.4px" viewBox="0 0 135.9 135.4" style="overflow:visible;enable-background:new 0 0 135.9 135.4;"
	 xml:space="preserve">
<style type="text/css">
	.st0{opacity:0.7;}
	.st1{clip-path:url(#SVGID_2_);fill:#FFFFFF;}
	.st2{clip-path:url(#SVGID_4_);fill:#FFFFFF;}
</style>
<defs>
</defs>
<g class="st0">
	<defs>
		<polygon id="SVGID_1_" class="st0" points="62.6,0 62.5,72.9 135.9,63.9 135.9,36.5 109.2,2.1 		"/>
	</defs>
	<clipPath id="SVGID_2_">
		<use xlink:href="#SVGID_1_"  style="overflow:visible;"/>
	</clipPath>
	<path class="st1" d="M84.1,131.6c32.4-11.9,49-47.9,37.1-80.3c-11.9-32.4-47.9-49-80.3-37.1s-49,47.9-37.1,80.3
		C15.8,126.9,51.7,143.5,84.1,131.6z M47.9,33c22.1-8.1,46.5,3.2,54.7,25.2c8.1,22.1-3.2,46.5-25.2,54.7s-46.5-3.2-54.7-25.2
		C14.5,65.7,25.8,41.2,47.9,33z"/>
</g>
</svg>
