<!-- Generator: Adobe Illustrator 25.0.0, SVG Export Plug-In  -->
<svg version="1.1" xmlns="http://www.w3.org/2000/svg" xmlns:xlink="http://www.w3.org/1999/xlink" x="0px" y="0px" width="75.4px"
	 height="28.9px" viewBox="0 0 75.4 28.9" style="overflow:visible;enable-background:new 0 0 75.4 28.9;" xml:space="preserve">
<style type="text/css">
	.st0{fill:#0078FF;}
</style>
<defs>
</defs>
<g>
	<path class="st0" d="M6.9,0.1v8.1H5.6V4.7H1.8v3.5H0.5V0.1h1.3v3.5h3.8V0.1H6.9z"/>
	<path class="st0" d="M10.3,7.7C9.7,7.4,9.2,6.9,8.8,6.3C8.4,5.6,8.2,4.9,8.2,4.1S8.4,2.6,8.8,2c0.4-0.6,0.9-1.1,1.5-1.5
		C10.9,0.2,11.6,0,12.4,0c0.8,0,1.5,0.2,2.1,0.5C15.1,0.9,15.6,1.4,16,2c0.4,0.6,0.5,1.3,0.5,2.1S16.3,5.6,16,6.3
		c-0.4,0.6-0.9,1.1-1.5,1.5c-0.6,0.4-1.3,0.5-2.1,0.5C11.6,8.3,10.9,8.1,10.3,7.7z M13.8,6.8c0.4-0.2,0.7-0.6,1-1
		c0.2-0.5,0.4-1,0.4-1.6S15,3,14.8,2.6c-0.2-0.5-0.6-0.8-1-1s-0.9-0.4-1.4-0.4c-0.5,0-1,0.1-1.4,0.4c-0.4,0.2-0.7,0.6-1,1
		C9.7,3,9.6,3.5,9.6,4.1S9.7,5.3,10,5.7c0.2,0.5,0.6,0.8,1,1c0.4,0.2,0.9,0.4,1.4,0.4C12.9,7.1,13.4,7,13.8,6.8z"/>
	<path class="st0" d="M19.1,0.1v5.2c0,0.6,0.2,1.1,0.5,1.4c0.3,0.3,0.8,0.5,1.3,0.5c0.6,0,1-0.2,1.4-0.5s0.5-0.8,0.5-1.4V0.1h1.3
		v5.1c0,0.7-0.1,1.2-0.4,1.7c-0.3,0.5-0.7,0.8-1.2,1c-0.5,0.2-1,0.3-1.6,0.3s-1.1-0.1-1.6-0.3c-0.5-0.2-0.9-0.6-1.1-1
		s-0.4-1-0.4-1.7V0.1H19.1z"/>
	<path class="st0" d="M27,8c-0.4-0.2-0.8-0.5-1-0.8c-0.2-0.3-0.4-0.8-0.4-1.2h1.4c0,0.3,0.2,0.6,0.4,0.9c0.2,0.2,0.6,0.3,1,0.3
		c0.5,0,0.8-0.1,1.1-0.3C29.8,6.6,30,6.3,30,6c0-0.3-0.1-0.5-0.2-0.7S29.4,5,29.1,4.9c-0.2-0.1-0.6-0.2-1-0.3
		c-0.5-0.1-1-0.3-1.3-0.4S26.2,3.8,26,3.5c-0.2-0.3-0.3-0.7-0.3-1.2c0-0.5,0.1-0.9,0.3-1.2c0.2-0.3,0.6-0.6,1-0.8
		C27.4,0.1,27.9,0,28.4,0c0.8,0,1.4,0.2,1.9,0.6c0.5,0.4,0.8,0.9,0.8,1.6h-1.5c0-0.3-0.2-0.5-0.4-0.8c-0.3-0.2-0.6-0.3-1-0.3
		c-0.4,0-0.7,0.1-0.9,0.3C27.1,1.6,27,1.9,27,2.3c0,0.2,0.1,0.5,0.2,0.6s0.3,0.3,0.6,0.4c0.2,0.1,0.6,0.2,1,0.3
		c0.5,0.1,1,0.3,1.3,0.4c0.3,0.1,0.6,0.4,0.9,0.7c0.2,0.3,0.4,0.7,0.4,1.2c0,0.4-0.1,0.8-0.3,1.2c-0.2,0.4-0.5,0.7-1,0.9
		c-0.4,0.2-0.9,0.3-1.5,0.3C28,8.3,27.5,8.2,27,8z"/>
	<path class="st0" d="M38.1,0.1v1.1h-2.2v7h-1.3v-7h-2.2V0.1H38.1z"/>
	<path class="st0" d="M41,7.7c-0.6-0.4-1.1-0.8-1.5-1.5C39.2,5.6,39,4.9,39,4.1s0.2-1.5,0.6-2.1c0.4-0.6,0.9-1.1,1.5-1.5
		C41.7,0.2,42.4,0,43.1,0c0.8,0,1.5,0.2,2.1,0.5c0.6,0.4,1.1,0.8,1.5,1.5c0.4,0.6,0.5,1.3,0.5,2.1s-0.2,1.5-0.5,2.1
		c-0.4,0.6-0.9,1.1-1.5,1.5c-0.6,0.4-1.3,0.5-2.1,0.5C42.4,8.3,41.7,8.1,41,7.7z M44.6,6.8c0.4-0.2,0.7-0.6,1-1
		c0.2-0.5,0.4-1,0.4-1.6S45.8,3,45.5,2.6c-0.2-0.5-0.6-0.8-1-1s-0.9-0.4-1.4-0.4c-0.5,0-1,0.1-1.4,0.4c-0.4,0.2-0.7,0.6-1,1
		c-0.2,0.5-0.4,1-0.4,1.6s0.1,1.1,0.4,1.6c0.2,0.5,0.6,0.8,1,1c0.4,0.2,0.9,0.4,1.4,0.4C43.7,7.1,44.1,7,44.6,6.8z"/>
	<path class="st0" d="M55.2,8.2h-1.3l-4-6v6h-1.3V0.1h1.3l4,6v-6h1.3V8.2z"/>
	<path class="st0" d="M58.4,6.6L57,9.8h-0.9L57,6.6H58.4z"/>
	<path class="st0" d="M67.8,0.1v1.1h-2.2v7h-1.3v-7h-2.2V0.1H67.8z"/>
	<path class="st0" d="M72.9,4.2l2.5,4h-1.5l-1.8-2.9l-1.7,2.9h-1.5l2.5-4l-2.5-4.1h1.5l1.8,3l1.7-3h1.5L72.9,4.2z"/>
	<path class="st0" d="M0.2,15.3C0.1,15.2,0,15.1,0,14.9s0.1-0.3,0.2-0.4c0.1-0.1,0.2-0.2,0.4-0.2c0.2,0,0.3,0.1,0.4,0.2
		c0.1,0.1,0.2,0.2,0.2,0.4S1.1,15.2,1,15.3c-0.1,0.1-0.2,0.2-0.4,0.2C0.4,15.5,0.3,15.4,0.2,15.3z"/>
	<path class="st0" d="M6.9,17.5l-1.2-2.2H5v2.2H4.1v-5.4H6c0.4,0,0.8,0.1,1.1,0.2c0.3,0.1,0.5,0.3,0.6,0.6c0.1,0.2,0.2,0.5,0.2,0.8
		c0,0.4-0.1,0.7-0.3,1S7,15.2,6.6,15.3l1.3,2.2H6.9z M5,14.6h1c0.3,0,0.6-0.1,0.7-0.2C6.9,14.2,7,14,7,13.7s-0.1-0.5-0.2-0.7
		c-0.2-0.2-0.4-0.2-0.8-0.2H5V14.6z"/>
	<path class="st0" d="M12.9,15.7H9.6c0,0.3,0.2,0.6,0.4,0.8s0.5,0.3,0.8,0.3c0.5,0,0.8-0.2,1-0.6h1c-0.1,0.4-0.4,0.7-0.7,1
		s-0.8,0.4-1.3,0.4c-0.4,0-0.8-0.1-1.1-0.3c-0.3-0.2-0.6-0.4-0.8-0.8c-0.2-0.3-0.3-0.7-0.3-1.2s0.1-0.8,0.3-1.2
		c0.2-0.3,0.4-0.6,0.8-0.8c0.3-0.2,0.7-0.3,1.1-0.3c0.4,0,0.8,0.1,1.1,0.3s0.6,0.4,0.7,0.7s0.3,0.7,0.3,1.1
		C12.9,15.4,12.9,15.6,12.9,15.7z M12,15c0-0.3-0.1-0.6-0.3-0.8c-0.2-0.2-0.5-0.3-0.8-0.3c-0.3,0-0.6,0.1-0.8,0.3
		c-0.2,0.2-0.3,0.5-0.4,0.8H12z"/>
	<path class="st0" d="M16.4,13.4c0.3,0.1,0.5,0.3,0.6,0.5v-0.6h0.9v4.3c0,0.4-0.1,0.7-0.2,1.1c-0.2,0.3-0.4,0.5-0.7,0.7
		c-0.3,0.2-0.7,0.3-1.1,0.3c-0.6,0-1.1-0.1-1.4-0.4s-0.6-0.6-0.7-1.1h0.9c0.1,0.2,0.2,0.4,0.4,0.5c0.2,0.1,0.5,0.2,0.8,0.2
		c0.4,0,0.6-0.1,0.9-0.3S17,18,17,17.6v-0.7c-0.2,0.2-0.4,0.4-0.6,0.5s-0.5,0.2-0.9,0.2c-0.4,0-0.7-0.1-1-0.3
		c-0.3-0.2-0.6-0.5-0.7-0.8s-0.3-0.7-0.3-1.2s0.1-0.8,0.3-1.1s0.4-0.6,0.7-0.8s0.6-0.3,1-0.3C15.8,13.2,16.1,13.2,16.4,13.4z
		 M16.8,14.6c-0.1-0.2-0.3-0.4-0.5-0.5c-0.2-0.1-0.4-0.2-0.6-0.2s-0.4,0.1-0.6,0.2c-0.2,0.1-0.4,0.3-0.5,0.5
		c-0.1,0.2-0.2,0.5-0.2,0.8s0.1,0.6,0.2,0.8c0.1,0.2,0.3,0.4,0.5,0.5s0.4,0.2,0.6,0.2c0.2,0,0.4-0.1,0.6-0.2
		c0.2-0.1,0.4-0.3,0.5-0.5c0.1-0.2,0.2-0.5,0.2-0.8S16.9,14.8,16.8,14.6z"/>
	<path class="st0" d="M19.1,12.5c-0.1-0.1-0.2-0.2-0.2-0.4c0-0.2,0.1-0.3,0.2-0.4c0.1-0.1,0.2-0.2,0.4-0.2c0.2,0,0.3,0.1,0.4,0.2
		s0.2,0.2,0.2,0.4c0,0.2-0.1,0.3-0.2,0.4c-0.1,0.1-0.2,0.2-0.4,0.2C19.3,12.7,19.2,12.6,19.1,12.5z M19.9,13.2v4.3H19v-4.3H19.9z"/>
	<path class="st0" d="M21.7,17.4c-0.3-0.1-0.5-0.3-0.6-0.5c-0.2-0.2-0.2-0.4-0.2-0.7h0.9c0,0.2,0.1,0.3,0.3,0.5
		c0.2,0.1,0.4,0.2,0.6,0.2c0.2,0,0.4,0,0.6-0.1c0.1-0.1,0.2-0.2,0.2-0.4c0-0.2-0.1-0.3-0.2-0.4c-0.2-0.1-0.4-0.2-0.7-0.3
		c-0.3-0.1-0.6-0.2-0.8-0.3s-0.4-0.2-0.5-0.4s-0.2-0.4-0.2-0.7c0-0.2,0.1-0.4,0.2-0.6c0.1-0.2,0.3-0.3,0.6-0.4s0.5-0.2,0.9-0.2
		c0.5,0,0.9,0.1,1.2,0.4c0.3,0.2,0.5,0.6,0.5,1h-0.9c0-0.2-0.1-0.3-0.2-0.5c-0.1-0.1-0.3-0.2-0.6-0.2c-0.2,0-0.4,0-0.5,0.1
		s-0.2,0.2-0.2,0.3c0,0.1,0,0.2,0.1,0.3c0.1,0.1,0.2,0.1,0.3,0.2s0.3,0.1,0.5,0.2c0.3,0.1,0.6,0.2,0.8,0.3c0.2,0.1,0.4,0.2,0.5,0.4
		c0.1,0.2,0.2,0.4,0.2,0.7c0,0.2-0.1,0.5-0.2,0.7c-0.1,0.2-0.3,0.3-0.6,0.5c-0.2,0.1-0.5,0.2-0.9,0.2C22.3,17.6,22,17.5,21.7,17.4z"
		/>
	<path class="st0" d="M26.3,14v2.4c0,0.2,0,0.3,0.1,0.3c0.1,0.1,0.2,0.1,0.4,0.1h0.5v0.7h-0.7c-0.4,0-0.7-0.1-0.9-0.3
		s-0.3-0.5-0.3-0.9V14h-0.5v-0.7h0.5v-1.1h0.9v1.1h1V14H26.3z"/>
	<path class="st0" d="M32,15.7h-3.3c0,0.3,0.2,0.6,0.4,0.8s0.5,0.3,0.8,0.3c0.5,0,0.8-0.2,1-0.6h1c-0.1,0.4-0.4,0.7-0.7,1
		s-0.8,0.4-1.3,0.4c-0.4,0-0.8-0.1-1.1-0.3c-0.3-0.2-0.6-0.4-0.8-0.8c-0.2-0.3-0.3-0.7-0.3-1.2s0.1-0.8,0.3-1.2
		c0.2-0.3,0.4-0.6,0.8-0.8c0.3-0.2,0.7-0.3,1.1-0.3c0.4,0,0.8,0.1,1.1,0.3s0.6,0.4,0.7,0.7s0.3,0.7,0.3,1.1C32,15.4,32,15.6,32,15.7
		z M31.1,15c0-0.3-0.1-0.6-0.3-0.8c-0.2-0.2-0.5-0.3-0.8-0.3c-0.3,0-0.6,0.1-0.8,0.3c-0.2,0.2-0.3,0.5-0.4,0.8H31.1z"/>
	<path class="st0" d="M34.3,13.3c0.2-0.1,0.5-0.2,0.8-0.2v0.9h-0.2c-0.3,0-0.6,0.1-0.8,0.3s-0.3,0.5-0.3,0.9v2.3h-0.9v-4.3h0.9v0.6
		C33.9,13.6,34.1,13.5,34.3,13.3z"/>
	<path class="st0" d="M39.8,15.7h-3.3c0,0.3,0.2,0.6,0.4,0.8s0.5,0.3,0.8,0.3c0.5,0,0.8-0.2,1-0.6h1c-0.1,0.4-0.4,0.7-0.7,1
		s-0.8,0.4-1.3,0.4c-0.4,0-0.8-0.1-1.1-0.3c-0.3-0.2-0.6-0.4-0.8-0.8c-0.2-0.3-0.3-0.7-0.3-1.2s0.1-0.8,0.3-1.2
		c0.2-0.3,0.4-0.6,0.8-0.8c0.3-0.2,0.7-0.3,1.1-0.3c0.4,0,0.8,0.1,1.1,0.3s0.6,0.4,0.7,0.7s0.3,0.7,0.3,1.1
		C39.8,15.4,39.8,15.6,39.8,15.7z M38.9,15c0-0.3-0.1-0.6-0.3-0.8c-0.2-0.2-0.5-0.3-0.8-0.3c-0.3,0-0.6,0.1-0.8,0.3
		c-0.2,0.2-0.3,0.5-0.4,0.8H38.9z"/>
	<path class="st0" d="M40.7,14.2c0.2-0.3,0.4-0.6,0.7-0.8s0.7-0.3,1-0.3c0.3,0,0.6,0.1,0.8,0.2c0.3,0.1,0.5,0.3,0.6,0.5v-2.1h0.9
		v5.7h-0.9v-0.6c-0.1,0.2-0.3,0.4-0.6,0.5s-0.5,0.2-0.9,0.2c-0.4,0-0.7-0.1-1-0.3c-0.3-0.2-0.6-0.5-0.7-0.8s-0.3-0.7-0.3-1.2
		S40.5,14.5,40.7,14.2z M43.7,14.6c-0.1-0.2-0.3-0.4-0.5-0.5c-0.2-0.1-0.4-0.2-0.6-0.2S42.1,14,42,14.1c-0.2,0.1-0.4,0.3-0.5,0.5
		c-0.1,0.2-0.2,0.5-0.2,0.8s0.1,0.6,0.2,0.8c0.1,0.2,0.3,0.4,0.5,0.5s0.4,0.2,0.6,0.2c0.2,0,0.4-0.1,0.6-0.2
		c0.2-0.1,0.4-0.3,0.5-0.5c0.1-0.2,0.2-0.5,0.2-0.8S43.8,14.8,43.7,14.6z"/>
	<path class="st0" d="M52.4,17.5h-0.9l-2.7-4v4H48v-5.4h0.9l2.7,4v-4h0.9V17.5z"/>
	<path class="st0" d="M57.4,13.2v4.3h-0.9V17c-0.1,0.2-0.3,0.3-0.5,0.4c-0.2,0.1-0.5,0.2-0.7,0.2c-0.3,0-0.6-0.1-0.9-0.2
		s-0.5-0.3-0.6-0.6c-0.2-0.3-0.2-0.6-0.2-1v-2.5h0.9v2.4c0,0.4,0.1,0.7,0.3,0.9s0.5,0.3,0.8,0.3s0.6-0.1,0.8-0.3
		c0.2-0.2,0.3-0.5,0.3-0.9v-2.4H57.4z"/>
	<path class="st0" d="M60,13.3c0.2-0.1,0.5-0.2,0.8-0.2v0.9h-0.2c-0.3,0-0.6,0.1-0.8,0.3s-0.3,0.5-0.3,0.9v2.3h-0.9v-4.3h0.9v0.6
		C59.6,13.6,59.8,13.5,60,13.3z"/>
	<path class="st0" d="M62.2,17.4c-0.3-0.1-0.5-0.3-0.6-0.5c-0.2-0.2-0.2-0.4-0.2-0.7h0.9c0,0.2,0.1,0.3,0.3,0.5
		c0.2,0.1,0.4,0.2,0.6,0.2c0.2,0,0.4,0,0.6-0.1c0.1-0.1,0.2-0.2,0.2-0.4c0-0.2-0.1-0.3-0.2-0.4c-0.2-0.1-0.4-0.2-0.7-0.3
		c-0.3-0.1-0.6-0.2-0.8-0.3s-0.4-0.2-0.5-0.4s-0.2-0.4-0.2-0.7c0-0.2,0.1-0.4,0.2-0.6c0.1-0.2,0.3-0.3,0.6-0.4s0.5-0.2,0.9-0.2
		c0.5,0,0.9,0.1,1.2,0.4c0.3,0.2,0.5,0.6,0.5,1h-0.9c0-0.2-0.1-0.3-0.2-0.5c-0.1-0.1-0.3-0.2-0.6-0.2c-0.2,0-0.4,0-0.5,0.1
		s-0.2,0.2-0.2,0.3c0,0.1,0,0.2,0.1,0.3c0.1,0.1,0.2,0.1,0.3,0.2S63,15,63.3,15c0.3,0.1,0.6,0.2,0.8,0.3c0.2,0.1,0.4,0.2,0.5,0.4
		c0.1,0.2,0.2,0.4,0.2,0.7c0,0.2-0.1,0.5-0.2,0.7c-0.1,0.2-0.3,0.3-0.6,0.5c-0.2,0.1-0.5,0.2-0.9,0.2C62.8,17.6,62.5,17.5,62.2,17.4
		z"/>
	<path class="st0" d="M69.6,15.7h-3.3c0,0.3,0.2,0.6,0.4,0.8s0.5,0.3,0.8,0.3c0.5,0,0.8-0.2,1-0.6h1c-0.1,0.4-0.4,0.7-0.7,1
		s-0.8,0.4-1.3,0.4c-0.4,0-0.8-0.1-1.1-0.3c-0.3-0.2-0.6-0.4-0.8-0.8c-0.2-0.3-0.3-0.7-0.3-1.2s0.1-0.8,0.3-1.2
		c0.2-0.3,0.4-0.6,0.8-0.8c0.3-0.2,0.7-0.3,1.1-0.3c0.4,0,0.8,0.1,1.1,0.3s0.6,0.4,0.7,0.7s0.3,0.7,0.3,1.1
		C69.6,15.4,69.6,15.6,69.6,15.7z M68.7,15c0-0.3-0.1-0.6-0.3-0.8c-0.2-0.2-0.5-0.3-0.8-0.3c-0.3,0-0.6,0.1-0.8,0.3
		c-0.2,0.2-0.3,0.5-0.4,0.8H68.7z"/>
	<path class="st0" d="M0.2,24.6C0.1,24.5,0,24.4,0,24.2s0.1-0.3,0.2-0.4c0.1-0.1,0.2-0.2,0.4-0.2c0.2,0,0.3,0.1,0.4,0.2
		c0.1,0.1,0.2,0.2,0.2,0.4S1.1,24.5,1,24.6c-0.1,0.1-0.2,0.2-0.4,0.2C0.4,24.8,0.3,24.7,0.2,24.6z"/>
	<path class="st0" d="M8,23c-0.1-0.3-0.3-0.5-0.6-0.6c-0.2-0.1-0.5-0.2-0.9-0.2c-0.4,0-0.7,0.1-1,0.2c-0.3,0.2-0.5,0.4-0.7,0.7
		s-0.2,0.6-0.2,1c0,0.4,0.1,0.7,0.2,1c0.2,0.3,0.4,0.5,0.7,0.7s0.6,0.2,1,0.2c0.5,0,0.9-0.1,1.2-0.4s0.5-0.6,0.6-1.1h-2v-0.7h3v0.7
		C9.2,25,9,25.4,8.8,25.7c-0.2,0.4-0.6,0.6-0.9,0.8c-0.4,0.2-0.8,0.3-1.3,0.3c-0.5,0-1-0.1-1.4-0.4s-0.8-0.6-1-1
		c-0.2-0.4-0.4-0.9-0.4-1.4c0-0.5,0.1-1,0.4-1.4c0.2-0.4,0.6-0.7,1-1c0.4-0.2,0.9-0.4,1.4-0.4c0.6,0,1.1,0.1,1.5,0.4
		c0.4,0.3,0.8,0.7,1,1.2H8z"/>
	<path class="st0" d="M13.9,22.5l-2.6,6.3h-0.9l0.9-2.1l-1.7-4.2h1l1.2,3.3l1.2-3.3H13.9z"/>
	<path class="st0" d="M17.7,22.7c0.3,0.1,0.5,0.3,0.6,0.6c0.1,0.3,0.2,0.6,0.2,1v2.5h-0.9v-2.4c0-0.4-0.1-0.7-0.3-0.9
		c-0.2-0.2-0.5-0.3-0.8-0.3s-0.6,0.1-0.8,0.3c-0.2,0.2-0.3,0.5-0.3,0.9v2.4h-0.9v-4.3h0.9V23c0.1-0.2,0.3-0.3,0.6-0.4
		c0.2-0.1,0.5-0.1,0.7-0.1C17.1,22.5,17.4,22.5,17.7,22.7z"/>
	<path class="st0" d="M23.5,25h-3.3c0,0.3,0.2,0.6,0.4,0.8s0.5,0.3,0.8,0.3c0.5,0,0.8-0.2,1-0.6h1c-0.1,0.4-0.4,0.7-0.7,1
		s-0.8,0.4-1.3,0.4c-0.4,0-0.8-0.1-1.1-0.3c-0.3-0.2-0.6-0.4-0.8-0.8c-0.2-0.3-0.3-0.7-0.3-1.2s0.1-0.8,0.3-1.2
		c0.2-0.3,0.4-0.6,0.8-0.8c0.3-0.2,0.7-0.3,1.1-0.3c0.4,0,0.8,0.1,1.1,0.3s0.6,0.4,0.7,0.7s0.3,0.7,0.3,1.1
		C23.6,24.7,23.5,24.9,23.5,25z M22.6,24.3c0-0.3-0.1-0.6-0.3-0.8c-0.2-0.2-0.5-0.3-0.8-0.3c-0.3,0-0.6,0.1-0.8,0.3
		c-0.2,0.2-0.3,0.5-0.4,0.8H22.6z"/>
	<path class="st0" d="M24.4,23.5c0.2-0.3,0.4-0.6,0.7-0.8c0.3-0.2,0.7-0.3,1.1-0.3c0.5,0,0.9,0.1,1.3,0.4c0.3,0.2,0.6,0.6,0.7,1.1
		h-1c-0.1-0.2-0.2-0.4-0.4-0.5c-0.2-0.1-0.4-0.2-0.6-0.2c-0.4,0-0.7,0.1-0.9,0.4c-0.2,0.3-0.3,0.6-0.3,1.1c0,0.5,0.1,0.8,0.3,1.1
		c0.2,0.3,0.5,0.4,0.9,0.4c0.5,0,0.9-0.2,1-0.7h1c-0.1,0.4-0.4,0.8-0.7,1c-0.3,0.3-0.8,0.4-1.3,0.4c-0.4,0-0.8-0.1-1.1-0.3
		c-0.3-0.2-0.6-0.4-0.7-0.8c-0.2-0.3-0.3-0.7-0.3-1.2S24.2,23.9,24.4,23.5z"/>
	<path class="st0" d="M29.8,26.6c-0.3-0.2-0.6-0.4-0.8-0.8c-0.2-0.3-0.3-0.7-0.3-1.2c0-0.4,0.1-0.8,0.3-1.2c0.2-0.3,0.5-0.6,0.8-0.8
		c0.3-0.2,0.7-0.3,1.1-0.3c0.4,0,0.8,0.1,1.1,0.3c0.3,0.2,0.6,0.4,0.8,0.8c0.2,0.3,0.3,0.7,0.3,1.2s-0.1,0.8-0.3,1.2
		c-0.2,0.3-0.5,0.6-0.8,0.8c-0.3,0.2-0.7,0.3-1.1,0.3C30.5,26.9,30.2,26.8,29.8,26.6z M31.6,26c0.2-0.1,0.4-0.3,0.5-0.5
		c0.1-0.2,0.2-0.5,0.2-0.8s-0.1-0.6-0.2-0.8s-0.3-0.4-0.5-0.5c-0.2-0.1-0.4-0.2-0.6-0.2s-0.4,0.1-0.6,0.2c-0.2,0.1-0.3,0.3-0.5,0.5
		c-0.1,0.2-0.2,0.5-0.2,0.8c0,0.5,0.1,0.8,0.4,1.1c0.2,0.3,0.5,0.4,0.9,0.4C31.2,26.1,31.4,26.1,31.6,26z"/>
	<path class="st0" d="M34.9,21.1v5.7H34v-5.7H34.9z"/>
	<path class="st0" d="M36.8,26.6c-0.3-0.2-0.6-0.4-0.8-0.8c-0.2-0.3-0.3-0.7-0.3-1.2c0-0.4,0.1-0.8,0.3-1.2c0.2-0.3,0.5-0.6,0.8-0.8
		c0.3-0.2,0.7-0.3,1.1-0.3c0.4,0,0.8,0.1,1.1,0.3c0.3,0.2,0.6,0.4,0.8,0.8c0.2,0.3,0.3,0.7,0.3,1.2s-0.1,0.8-0.3,1.2
		c-0.2,0.3-0.5,0.6-0.8,0.8c-0.3,0.2-0.7,0.3-1.1,0.3C37.5,26.9,37.2,26.8,36.8,26.6z M38.6,26c0.2-0.1,0.4-0.3,0.5-0.5
		c0.1-0.2,0.2-0.5,0.2-0.8s-0.1-0.6-0.2-0.8s-0.3-0.4-0.5-0.5c-0.2-0.1-0.4-0.2-0.6-0.2s-0.4,0.1-0.6,0.2c-0.2,0.1-0.3,0.3-0.5,0.5
		c-0.1,0.2-0.2,0.5-0.2,0.8c0,0.5,0.1,0.8,0.4,1.1c0.2,0.3,0.5,0.4,0.9,0.4C38.2,26.1,38.4,26.1,38.6,26z"/>
	<path class="st0" d="M43.6,22.7c0.3,0.1,0.5,0.3,0.6,0.5v-0.6h0.9v4.3c0,0.4-0.1,0.7-0.2,1.1c-0.2,0.3-0.4,0.5-0.7,0.7
		c-0.3,0.2-0.7,0.3-1.1,0.3c-0.6,0-1.1-0.1-1.4-0.4S41,27.9,41,27.4h0.9c0.1,0.2,0.2,0.4,0.4,0.5c0.2,0.1,0.5,0.2,0.8,0.2
		c0.4,0,0.6-0.1,0.9-0.3s0.3-0.5,0.3-0.9v-0.7c-0.2,0.2-0.4,0.4-0.6,0.5s-0.5,0.2-0.9,0.2c-0.4,0-0.7-0.1-1-0.3
		c-0.3-0.2-0.6-0.5-0.7-0.8s-0.3-0.7-0.3-1.2s0.1-0.8,0.3-1.1s0.4-0.6,0.7-0.8s0.6-0.3,1-0.3C43.1,22.5,43.4,22.5,43.6,22.7z
		 M44.1,23.9c-0.1-0.2-0.3-0.4-0.5-0.5c-0.2-0.1-0.4-0.2-0.6-0.2s-0.4,0.1-0.6,0.2c-0.2,0.1-0.4,0.3-0.5,0.5
		c-0.1,0.2-0.2,0.5-0.2,0.8s0.1,0.6,0.2,0.8c0.1,0.2,0.3,0.4,0.5,0.5s0.4,0.2,0.6,0.2c0.2,0,0.4-0.1,0.6-0.2
		c0.2-0.1,0.4-0.3,0.5-0.5c0.1-0.2,0.2-0.5,0.2-0.8S44.2,24.1,44.1,23.9z"/>
	<path class="st0" d="M46.3,21.8c-0.1-0.1-0.2-0.2-0.2-0.4c0-0.2,0.1-0.3,0.2-0.4c0.1-0.1,0.2-0.2,0.4-0.2c0.2,0,0.3,0.1,0.4,0.2
		s0.2,0.2,0.2,0.4c0,0.2-0.1,0.3-0.2,0.4C47,21.9,46.9,22,46.7,22C46.6,22,46.5,21.9,46.3,21.8z M47.2,22.5v4.3h-0.9v-4.3H47.2z"/>
	<path class="st0" d="M49,26.7c-0.3-0.1-0.5-0.3-0.6-0.5c-0.2-0.2-0.2-0.4-0.2-0.7H49c0,0.2,0.1,0.3,0.3,0.5
		c0.2,0.1,0.4,0.2,0.6,0.2c0.2,0,0.4,0,0.6-0.1c0.1-0.1,0.2-0.2,0.2-0.4c0-0.2-0.1-0.3-0.2-0.4c-0.2-0.1-0.4-0.2-0.7-0.3
		c-0.3-0.1-0.6-0.2-0.8-0.3s-0.4-0.2-0.5-0.4s-0.2-0.4-0.2-0.7c0-0.2,0.1-0.4,0.2-0.6c0.1-0.2,0.3-0.3,0.6-0.4s0.5-0.2,0.9-0.2
		c0.5,0,0.9,0.1,1.2,0.4c0.3,0.2,0.5,0.6,0.5,1h-0.9c0-0.2-0.1-0.3-0.2-0.5c-0.1-0.1-0.3-0.2-0.6-0.2c-0.2,0-0.4,0-0.5,0.1
		s-0.2,0.2-0.2,0.3c0,0.1,0,0.2,0.1,0.3c0.1,0.1,0.2,0.1,0.3,0.2s0.3,0.1,0.5,0.2c0.3,0.1,0.6,0.2,0.8,0.3c0.2,0.1,0.4,0.2,0.5,0.4
		c0.1,0.2,0.2,0.4,0.2,0.7c0,0.2-0.1,0.5-0.2,0.7c-0.1,0.2-0.3,0.3-0.6,0.5c-0.2,0.1-0.5,0.2-0.9,0.2C49.6,26.9,49.3,26.8,49,26.7z"
		/>
	<path class="st0" d="M53.5,23.3v2.4c0,0.2,0,0.3,0.1,0.3c0.1,0.1,0.2,0.1,0.4,0.1h0.5v0.7h-0.7c-0.4,0-0.7-0.1-0.9-0.3
		s-0.3-0.5-0.3-0.9v-2.4h-0.5v-0.7h0.5v-1.1h0.9v1.1h1v0.7H53.5z"/>
</g>
</svg>
