<!-- Generator: Adobe Illustrator 25.0.0, SVG Export Plug-In  -->
<svg version="1.1" xmlns="http://www.w3.org/2000/svg" xmlns:xlink="http://www.w3.org/1999/xlink" x="0px" y="0px" width="54.1px"
	 height="293.9px" viewBox="0 0 54.1 293.9" style="overflow:visible;enable-background:new 0 0 54.1 293.9;" xml:space="preserve">
<style type="text/css">
	.st0{fill:#FFFFFF;}
</style>
<defs>
</defs>
<g>
	<path class="st0" d="M0,2.7V0.3h4.8v16.9H2.2V2.7H0z"/>
	<path class="st0" d="M9.8,2.3C10.7,0.8,12.3,0,14.5,0s3.8,0.8,4.7,2.3c0.9,1.5,1.4,3.6,1.4,6.3c0,2.7-0.5,4.8-1.4,6.3
		c-0.9,1.5-2.5,2.3-4.7,2.3s-3.8-0.8-4.7-2.3s-1.4-3.6-1.4-6.3C8.4,5.8,8.9,3.8,9.8,2.3z M17.6,5.3c-0.2-0.9-0.5-1.6-1-2.1
		c-0.5-0.5-1.2-0.8-2.2-0.8c-1,0-1.7,0.3-2.2,0.8c-0.5,0.5-0.8,1.3-1,2.1S11,7.3,11,8.5c0,1.3,0.1,2.4,0.2,3.3s0.5,1.6,1,2.1
		c0.5,0.5,1.2,0.8,2.2,0.8c1,0,1.7-0.3,2.2-0.8c0.5-0.5,0.8-1.2,1-2.1c0.2-0.9,0.2-2,0.2-3.3C17.9,7.3,17.8,6.2,17.6,5.3z"/>
	<path class="st0" d="M24.6,2.3C25.5,0.8,27.1,0,29.3,0s3.8,0.8,4.7,2.3c0.9,1.5,1.4,3.6,1.4,6.3c0,2.7-0.5,4.8-1.4,6.3
		c-0.9,1.5-2.5,2.3-4.7,2.3s-3.8-0.8-4.7-2.3s-1.4-3.6-1.4-6.3C23.3,5.8,23.7,3.8,24.6,2.3z M32.5,5.3c-0.2-0.9-0.5-1.6-1-2.1
		c-0.5-0.5-1.2-0.8-2.2-0.8c-1,0-1.7,0.3-2.2,0.8c-0.5,0.5-0.8,1.3-1,2.1s-0.2,1.9-0.2,3.2c0,1.3,0.1,2.4,0.2,3.3s0.5,1.6,1,2.1
		c0.5,0.5,1.2,0.8,2.2,0.8c1,0,1.7-0.3,2.2-0.8c0.5-0.5,0.8-1.2,1-2.1c0.2-0.9,0.2-2,0.2-3.3C32.7,7.3,32.6,6.2,32.5,5.3z"/>
	<path class="st0" d="M38.7,1.7c0.7-0.6,1.5-1,2.5-1c1,0,1.9,0.3,2.5,1c0.7,0.6,1,1.5,1,2.6c0,1.1-0.3,2-1,2.7c-0.7,0.6-1.5,1-2.5,1
		c-1,0-1.9-0.3-2.5-1c-0.7-0.6-1-1.5-1-2.7C37.7,3.2,38,2.4,38.7,1.7z M39.8,4.4c0,1.4,0.5,2,1.5,2c0.5,0,0.8-0.2,1.1-0.5
		c0.3-0.3,0.4-0.8,0.4-1.5c0-1.3-0.5-2-1.5-2C40.2,2.4,39.8,3,39.8,4.4z M51.8,1.1l-9.2,16.1H40l9.2-16.1H51.8z M48.1,11.2
		c0.7-0.6,1.5-1,2.5-1c1,0,1.9,0.3,2.5,1c0.7,0.6,1,1.5,1,2.6c0,1.1-0.3,2-1,2.7c-0.7,0.6-1.5,1-2.5,1c-1,0-1.9-0.3-2.5-1
		c-0.7-0.6-1-1.5-1-2.7C47.1,12.7,47.4,11.8,48.1,11.2z M49.2,13.8c0,1.3,0.5,2,1.5,2c1,0,1.5-0.7,1.5-2s-0.5-2-1.5-2
		C49.6,11.8,49.2,12.5,49.2,13.8z"/>
</g>
<g>
	<path class="st0" d="M12.1,135.4H4.3v4.6c0.3-0.4,0.8-0.8,1.4-1.1c0.6-0.3,1.3-0.4,2-0.4c1.3,0,2.3,0.3,3.2,0.8
		c0.8,0.6,1.4,1.3,1.7,2.1c0.3,0.8,0.5,1.7,0.5,2.7c0,1.1-0.2,2.2-0.7,3s-1.1,1.6-2,2.1c-0.9,0.5-1.9,0.8-3.2,0.8
		c-1.7,0-3-0.4-4-1.2c-1-0.8-1.6-1.9-1.8-3.3h2.6c0.2,0.7,0.5,1.3,1.1,1.7c0.6,0.4,1.3,0.6,2.2,0.6c1.1,0,1.9-0.3,2.5-1
		c0.5-0.7,0.8-1.5,0.8-2.6c0-1.1-0.3-2-0.8-2.6c-0.6-0.6-1.4-0.9-2.5-0.9c-0.8,0-1.4,0.2-1.9,0.6c-0.5,0.4-0.9,0.9-1.1,1.5H1.9v-9.7
		h10.2V135.4z"/>
	<path class="st0" d="M17.3,135.1c0.9-1.5,2.5-2.3,4.7-2.3s3.8,0.8,4.7,2.3c0.9,1.5,1.4,3.6,1.4,6.3c0,2.7-0.5,4.8-1.4,6.3
		S24.2,150,22,150s-3.8-0.8-4.7-2.3s-1.4-3.6-1.4-6.3C16,138.7,16.4,136.6,17.3,135.1z M25.2,138.2c-0.2-0.9-0.5-1.6-1-2.1
		c-0.5-0.5-1.2-0.8-2.2-0.8s-1.7,0.3-2.2,0.8c-0.5,0.5-0.8,1.3-1,2.1c-0.2,0.9-0.2,1.9-0.2,3.2c0,1.3,0.1,2.4,0.2,3.3s0.5,1.6,1,2.1
		c0.5,0.5,1.2,0.8,2.2,0.8s1.7-0.3,2.2-0.8c0.5-0.5,0.8-1.2,1-2.1s0.2-2,0.2-3.3C25.4,140.1,25.3,139.1,25.2,138.2z"/>
	<path class="st0" d="M31.4,134.6c0.7-0.6,1.5-1,2.5-1s1.9,0.3,2.5,1c0.7,0.6,1,1.5,1,2.6c0,1.1-0.3,2-1,2.7c-0.7,0.6-1.5,1-2.5,1
		s-1.9-0.3-2.5-1c-0.7-0.6-1-1.5-1-2.7C30.4,136.1,30.7,135.2,31.4,134.6z M32.4,137.2c0,1.4,0.5,2,1.5,2c0.5,0,0.8-0.2,1.1-0.5
		c0.3-0.3,0.4-0.8,0.4-1.5c0-1.3-0.5-2-1.5-2C32.9,135.2,32.4,135.9,32.4,137.2z M44.5,133.9L35.3,150h-2.6l9.2-16.1H44.5z
		 M40.8,144c0.7-0.6,1.5-1,2.5-1c1,0,1.9,0.3,2.5,1c0.7,0.6,1,1.5,1,2.6c0,1.1-0.3,2-1,2.7c-0.7,0.6-1.5,1-2.5,1c-1,0-1.9-0.3-2.5-1
		c-0.7-0.6-1-1.5-1-2.7C39.8,145.6,40.1,144.7,40.8,144z M41.8,146.7c0,1.3,0.5,2,1.5,2c1,0,1.5-0.7,1.5-2s-0.5-2-1.5-2
		C42.3,144.7,41.8,145.3,41.8,146.7z"/>
</g>
<g>
	<path class="st0" d="M12,278.6c0.9-1.5,2.5-2.3,4.7-2.3s3.8,0.8,4.7,2.3s1.4,3.6,1.4,6.3c0,2.7-0.5,4.8-1.4,6.3
		c-0.9,1.5-2.5,2.3-4.7,2.3s-3.8-0.8-4.7-2.3c-0.9-1.5-1.4-3.6-1.4-6.3C10.6,282.2,11.1,280.1,12,278.6z M19.8,281.7
		c-0.2-0.9-0.5-1.6-1-2.1c-0.5-0.5-1.2-0.8-2.2-0.8s-1.7,0.3-2.2,0.8c-0.5,0.5-0.8,1.3-1,2.1s-0.2,1.9-0.2,3.2
		c0,1.3,0.1,2.4,0.2,3.3c0.2,0.9,0.5,1.6,1,2.1c0.5,0.5,1.2,0.8,2.2,0.8s1.7-0.3,2.2-0.8s0.8-1.2,1-2.1c0.2-0.9,0.2-2,0.2-3.3
		C20.1,283.6,20,282.6,19.8,281.7z"/>
	<path class="st0" d="M26,278.1c0.7-0.6,1.5-1,2.5-1s1.9,0.3,2.5,1c0.7,0.6,1,1.5,1,2.6c0,1.1-0.3,2-1,2.7c-0.7,0.6-1.5,1-2.5,1
		s-1.9-0.3-2.5-1c-0.7-0.6-1-1.5-1-2.7C25,279.6,25.4,278.7,26,278.1z M27.1,280.8c0,1.4,0.5,2,1.5,2c0.5,0,0.8-0.2,1.1-0.5
		c0.3-0.3,0.4-0.8,0.4-1.5c0-1.3-0.5-2-1.5-2C27.6,278.7,27.1,279.4,27.1,280.8z M39.2,277.4l-9.2,16.1h-2.6l9.2-16.1H39.2z
		 M35.4,287.6c0.7-0.6,1.5-1,2.5-1c1,0,1.9,0.3,2.5,1c0.7,0.6,1,1.5,1,2.7s-0.3,2-1,2.7c-0.7,0.6-1.5,1-2.5,1c-1,0-1.9-0.3-2.5-1
		c-0.7-0.6-1-1.5-1-2.7S34.8,288.2,35.4,287.6z M36.5,290.2c0,1.3,0.5,2,1.5,2c1,0,1.5-0.7,1.5-2c0-1.3-0.5-2-1.5-2
		C37,288.2,36.5,288.9,36.5,290.2z"/>
</g>
</svg>
