<!-- Generator: Adobe Illustrator 25.0.0, SVG Export Plug-In  -->
<svg version="1.1" xmlns="http://www.w3.org/2000/svg" xmlns:xlink="http://www.w3.org/1999/xlink" x="0px" y="0px" width="185.5px"
	 height="147px" viewBox="0 0 185.5 147" style="overflow:visible;enable-background:new 0 0 185.5 147;" xml:space="preserve">
<style type="text/css">
	.st0{fill:#FF645C;}
</style>
<defs>
</defs>
<g>
	<path class="st0" d="M0,91.2v-1.8L7.2,79h3v10.1h2v2.1h-2v3.3H7.8v-3.3H0z M7.9,81.5l-5.1,7.6h5.1V81.5z"/>
	<path class="st0" d="M13.9,81.1v-2.2h4.5v15.7h-2.5V81.1H13.9z"/>
	<path class="st0" d="M22.2,80.2c0.6-0.6,1.4-0.9,2.4-0.9s1.7,0.3,2.4,0.9s0.9,1.4,0.9,2.5s-0.3,1.9-0.9,2.5
		c-0.6,0.6-1.4,0.9-2.4,0.9s-1.7-0.3-2.4-0.9c-0.6-0.6-0.9-1.4-0.9-2.5S21.6,80.7,22.2,80.2z M23.2,82.6c0,1.3,0.5,1.9,1.4,1.9
		c0.4,0,0.8-0.2,1-0.5c0.2-0.3,0.4-0.8,0.4-1.4c0-1.2-0.5-1.9-1.4-1.9C23.7,80.7,23.2,81.4,23.2,82.6z M34.4,79.5l-8.6,14.9h-2.4
		L32,79.5H34.4z M31,88.9c0.6-0.6,1.4-0.9,2.4-0.9c0.9,0,1.7,0.3,2.3,0.9c0.6,0.6,0.9,1.4,0.9,2.5c0,1-0.3,1.9-0.9,2.5
		c-0.6,0.6-1.4,0.9-2.3,0.9c-1,0-1.7-0.3-2.4-0.9c-0.6-0.6-0.9-1.4-0.9-2.5C30.1,90.4,30.4,89.5,31,88.9z M32,91.4
		c0,1.2,0.5,1.9,1.4,1.9c0.9,0,1.4-0.6,1.4-1.9c0-1.2-0.5-1.9-1.4-1.9C32.4,89.5,32,90.2,32,91.4z"/>
</g>
<g>
	<path class="st0" d="M59.9,2.5c-0.4-0.3-1-0.5-1.7-0.5c-1.1,0-2,0.4-2.5,1.3c-0.6,0.9-0.9,2.3-0.9,4.3c0.4-0.6,0.9-1.1,1.6-1.5
		s1.5-0.5,2.3-0.5c0.9,0,1.8,0.2,2.5,0.6c0.7,0.4,1.3,1,1.7,1.8c0.4,0.8,0.6,1.7,0.6,2.8c0,1-0.2,1.9-0.6,2.7
		c-0.4,0.8-1,1.4-1.8,1.9c-0.8,0.5-1.7,0.7-2.8,0.7c-1.5,0-2.6-0.3-3.5-1c-0.8-0.7-1.4-1.6-1.8-2.8c-0.3-1.2-0.5-2.7-0.5-4.4
		c0-5.2,1.8-7.9,5.5-7.9c1.4,0,2.6,0.4,3.4,1.2S62.9,2.9,63,4h-2.3C60.6,3.4,60.3,2.9,59.9,2.5z M56,8.5c-0.6,0.5-0.9,1.3-0.9,2.3
		s0.3,1.8,0.8,2.4c0.6,0.6,1.4,0.9,2.4,0.9c0.9,0,1.6-0.3,2.1-0.8c0.5-0.6,0.8-1.3,0.8-2.2c0-1-0.3-1.8-0.8-2.3s-1.3-0.9-2.2-0.9
		C57.3,7.7,56.6,8,56,8.5z"/>
	<path class="st0" d="M66.7,1.7c0.6-0.6,1.4-0.9,2.4-0.9s1.7,0.3,2.4,0.9s0.9,1.4,0.9,2.5S72,6,71.4,6.6C70.8,7.2,70,7.5,69,7.5
		s-1.7-0.3-2.4-0.9c-0.6-0.6-0.9-1.4-0.9-2.5S66.1,2.3,66.7,1.7z M67.7,4.2c0,1.3,0.5,1.9,1.4,1.9c0.4,0,0.8-0.2,1-0.5
		c0.2-0.3,0.4-0.8,0.4-1.4c0-1.2-0.5-1.9-1.4-1.9C68.1,2.3,67.7,2.9,67.7,4.2z M78.9,1.1L70.3,16h-2.4l8.6-14.9H78.9z M75.4,10.5
		c0.6-0.6,1.4-0.9,2.4-0.9c0.9,0,1.7,0.3,2.3,0.9c0.6,0.6,0.9,1.4,0.9,2.5c0,1-0.3,1.9-0.9,2.5c-0.6,0.6-1.4,0.9-2.3,0.9
		c-1,0-1.7-0.3-2.4-0.9c-0.6-0.6-0.9-1.4-0.9-2.5C74.5,11.9,74.8,11.1,75.4,10.5z M76.4,12.9c0,1.2,0.5,1.9,1.4,1.9
		c0.9,0,1.4-0.6,1.4-1.9c0-1.2-0.5-1.9-1.4-1.9C76.9,11.1,76.4,11.7,76.4,12.9z"/>
</g>
<g>
	<path class="st0" d="M97.4,144.1c0.5,0.4,1.1,0.6,1.9,0.6c1,0,1.8-0.4,2.2-1.2s0.7-2.2,0.7-4.1c-0.3,0.5-0.8,0.9-1.4,1.1
		c-0.6,0.3-1.3,0.4-2,0.4c-0.9,0-1.8-0.2-2.5-0.6c-0.8-0.4-1.4-0.9-1.8-1.7c-0.4-0.8-0.7-1.7-0.7-2.7c0-1.6,0.5-2.8,1.4-3.8
		c0.9-0.9,2.2-1.4,3.8-1.4c1.9,0,3.3,0.6,4.2,1.9c0.8,1.3,1.2,3.3,1.2,6c0,1.8-0.2,3.4-0.5,4.5c-0.3,1.2-0.8,2.1-1.6,2.7
		c-0.8,0.6-1.8,0.9-3.2,0.9c-1.5,0-2.7-0.4-3.5-1.2c-0.8-0.8-1.3-1.8-1.4-3h2.3C96.6,143.1,97,143.7,97.4,144.1z M101.3,138
		c0.5-0.5,0.7-1.2,0.7-2.1c0-1-0.3-1.8-0.8-2.3s-1.2-0.8-2.1-0.8c-0.9,0-1.6,0.3-2.1,0.8s-0.8,1.3-0.8,2.2c0,0.9,0.3,1.6,0.8,2.2
		c0.5,0.6,1.3,0.8,2.3,0.8C100.1,138.8,100.8,138.5,101.3,138z"/>
	<path class="st0" d="M107.6,132.3c0.6-0.6,1.4-0.9,2.4-0.9s1.7,0.3,2.4,0.9s0.9,1.4,0.9,2.5s-0.3,1.9-0.9,2.5
		c-0.6,0.6-1.4,0.9-2.4,0.9s-1.7-0.3-2.4-0.9c-0.6-0.6-0.9-1.4-0.9-2.5S107,132.9,107.6,132.3z M108.6,134.8c0,1.3,0.5,1.9,1.4,1.9
		c0.4,0,0.8-0.2,1-0.5c0.2-0.3,0.4-0.8,0.4-1.4c0-1.2-0.5-1.9-1.4-1.9C109.1,132.9,108.6,133.6,108.6,134.8z M119.8,131.7l-8.6,14.9
		h-2.4l8.6-14.9H119.8z M116.4,141.1c0.6-0.6,1.4-0.9,2.4-0.9c0.9,0,1.7,0.3,2.3,0.9c0.6,0.6,0.9,1.4,0.9,2.5c0,1-0.3,1.9-0.9,2.5
		c-0.6,0.6-1.4,0.9-2.3,0.9c-1,0-1.7-0.3-2.4-0.9c-0.6-0.6-0.9-1.4-0.9-2.5C115.4,142.5,115.8,141.7,116.4,141.1z M117.3,143.6
		c0,1.2,0.5,1.9,1.4,1.9c0.9,0,1.4-0.6,1.4-1.9c0-1.2-0.5-1.9-1.4-1.9C117.8,141.7,117.3,142.3,117.3,143.6z"/>
</g>
<g>
	<path class="st0" d="M142.5,42.2v-1.8l7.2-10.4h3v10.1h2v2.1h-2v3.3h-2.4v-3.3H142.5z M150.4,32.5l-5.1,7.6h5.1V32.5z"/>
	<path class="st0" d="M156.4,42.2v-1.8l7.2-10.4h3v10.1h2v2.1h-2v3.3h-2.4v-3.3H156.4z M164.3,32.5l-5.1,7.6h5.1V32.5z"/>
	<path class="st0" d="M171.1,31.1c0.6-0.6,1.4-0.9,2.4-0.9s1.7,0.3,2.4,0.9s0.9,1.4,0.9,2.5s-0.3,1.9-0.9,2.5
		c-0.6,0.6-1.4,0.9-2.4,0.9s-1.7-0.3-2.4-0.9c-0.6-0.6-0.9-1.4-0.9-2.5S170.5,31.7,171.1,31.1z M172.1,33.6c0,1.3,0.5,1.9,1.4,1.9
		c0.4,0,0.8-0.2,1-0.5c0.2-0.3,0.4-0.8,0.4-1.4c0-1.2-0.5-1.9-1.4-1.9C172.6,31.7,172.1,32.3,172.1,33.6z M183.3,30.5l-8.6,14.9
		h-2.4l8.6-14.9H183.3z M179.9,39.9c0.6-0.6,1.4-0.9,2.4-0.9c0.9,0,1.7,0.3,2.3,0.9c0.6,0.6,0.9,1.4,0.9,2.5c0,1-0.3,1.9-0.9,2.5
		c-0.6,0.6-1.4,0.9-2.3,0.9c-1,0-1.7-0.3-2.4-0.9c-0.6-0.6-0.9-1.4-0.9-2.5C179,41.3,179.3,40.5,179.9,39.9z M180.8,42.4
		c0,1.2,0.5,1.9,1.4,1.9c0.9,0,1.4-0.6,1.4-1.9c0-1.2-0.5-1.9-1.4-1.9C181.3,40.5,180.8,41.1,180.8,42.4z"/>
</g>
</svg>
