<!-- Generator: Adobe Illustrator 25.0.0, SVG Export Plug-In  -->
<svg version="1.1" xmlns="http://www.w3.org/2000/svg" xmlns:xlink="http://www.w3.org/1999/xlink" x="0px" y="0px" width="466.2px"
	 height="21.7px" viewBox="0 0 466.2 21.7" style="overflow:visible;enable-background:new 0 0 466.2 21.7;" xml:space="preserve">
<style type="text/css">
	.st0{fill:#FFFFFF;}
</style>
<defs>
</defs>
<g>
	<path class="st0" d="M11.7,1.6v14.6H9.3V9.8H2.4v6.4H0V1.6h2.4v6.3h6.9V1.6H11.7z"/>
	<path class="st0" d="M16.9,15.6c-0.9-0.5-1.6-1.2-2.1-2.1c-0.5-0.9-0.8-1.9-0.8-3.1c0-1.2,0.3-2.2,0.8-3.1c0.5-0.9,1.2-1.6,2.1-2.1
		c0.9-0.5,1.9-0.7,3-0.7c1.1,0,2.1,0.2,3,0.7c0.9,0.5,1.6,1.2,2.1,2.1c0.5,0.9,0.8,2,0.8,3.1c0,1.2-0.3,2.2-0.8,3.1
		s-1.3,1.6-2.2,2.1c-0.9,0.5-1.9,0.7-3,0.7C18.7,16.4,17.7,16.1,16.9,15.6z M21.6,13.8c0.5-0.3,1-0.7,1.3-1.3s0.5-1.3,0.5-2.1
		c0-0.8-0.2-1.6-0.5-2.1c-0.3-0.6-0.7-1-1.3-1.3s-1.1-0.4-1.7-0.4c-0.6,0-1.2,0.1-1.7,0.4c-0.5,0.3-0.9,0.7-1.2,1.3
		c-0.3,0.6-0.5,1.3-0.5,2.1c0,1.2,0.3,2.2,1,2.9c0.6,0.7,1.4,1,2.4,1C20.4,14.3,21,14.1,21.6,13.8z"/>
	<path class="st0" d="M43.7,4.6l-3.6,11.6h-2.5l-2.3-8.5L33,16.2h-2.5L26.8,4.6h2.4l2.4,9.3l2.5-9.3h2.5l2.4,9.3l2.4-9.3H43.7z"/>
	<path class="st0" d="M67.4,5c0.7,0.4,1.3,0.9,1.7,1.7c0.4,0.7,0.6,1.6,0.6,2.7v6.8h-2.4V9.7c0-1-0.3-1.8-0.8-2.4
		c-0.5-0.6-1.2-0.8-2.1-0.8c-0.9,0-1.6,0.3-2.1,0.8c-0.5,0.6-0.8,1.3-0.8,2.4v6.5h-2.4V9.7c0-1-0.3-1.8-0.8-2.4s-1.2-0.8-2.1-0.8
		c-0.9,0-1.6,0.3-2.1,0.8c-0.5,0.6-0.8,1.3-0.8,2.4v6.5H51V4.6h2.4v1.3c0.4-0.5,0.9-0.8,1.5-1.1c0.6-0.3,1.2-0.4,1.9-0.4
		c0.9,0,1.8,0.2,2.5,0.6C60,5.4,60.6,6,61,6.7C61.3,6,61.9,5.4,62.6,5c0.7-0.4,1.5-0.6,2.4-0.6C65.9,4.4,66.7,4.6,67.4,5z"/>
	<path class="st0" d="M72.7,7.2c0.5-0.9,1.1-1.6,2-2.1s1.8-0.7,2.8-0.7c0.9,0,1.7,0.2,2.4,0.5c0.7,0.4,1.2,0.8,1.6,1.3V4.6h2.4v11.6
		h-2.4v-1.7c-0.4,0.5-1,1-1.7,1.4c-0.7,0.4-1.5,0.5-2.4,0.5c-1,0-1.9-0.3-2.7-0.8c-0.8-0.5-1.5-1.2-2-2.1c-0.5-0.9-0.7-2-0.7-3.1
		S72.2,8.1,72.7,7.2z M81,8.3c-0.3-0.6-0.8-1-1.3-1.3c-0.5-0.3-1.1-0.5-1.7-0.5c-0.6,0-1.2,0.2-1.7,0.5s-1,0.7-1.3,1.3
		c-0.3,0.6-0.5,1.3-0.5,2.1c0,0.8,0.2,1.5,0.5,2.1c0.3,0.6,0.8,1.1,1.3,1.4c0.5,0.3,1.1,0.5,1.7,0.5c0.6,0,1.2-0.2,1.7-0.5
		c0.5-0.3,1-0.8,1.3-1.4c0.3-0.6,0.5-1.3,0.5-2.1C81.5,9.6,81.3,8.9,81,8.3z"/>
	<path class="st0" d="M95.3,5C96,5.4,96.6,5.9,97,6.7c0.4,0.7,0.6,1.6,0.6,2.7v6.8h-2.4V9.7c0-1-0.3-1.8-0.8-2.4s-1.2-0.8-2.1-0.8
		c-0.9,0-1.6,0.3-2.1,0.8c-0.5,0.6-0.8,1.3-0.8,2.4v6.5H87V4.6h2.4v1.3c0.4-0.5,0.9-0.8,1.5-1.1c0.6-0.3,1.3-0.4,1.9-0.4
		C93.8,4.4,94.6,4.6,95.3,5z"/>
	<path class="st0" d="M111.1,4.6l-7.1,17h-2.5l2.4-5.6L99.3,4.6h2.7l3.3,8.8l3.4-8.8H111.1z"/>
	<path class="st0" d="M128.8,4.6l-7.1,17h-2.5l2.4-5.6L117,4.6h2.7l3.3,8.8l3.4-8.8H128.8z"/>
	<path class="st0" d="M141.1,11.3h-8.8c0.1,0.9,0.4,1.7,1,2.2c0.6,0.6,1.4,0.8,2.3,0.8c1.3,0,2.2-0.5,2.7-1.6h2.6
		c-0.4,1.1-1,1.9-1.9,2.6c-0.9,0.7-2.1,1-3.4,1c-1.1,0-2.1-0.2-3-0.7s-1.6-1.2-2.1-2.1c-0.5-0.9-0.7-1.9-0.7-3.1
		c0-1.2,0.2-2.2,0.7-3.1c0.5-0.9,1.2-1.6,2-2.1c0.9-0.5,1.9-0.7,3-0.7c1.1,0,2.1,0.2,2.9,0.7c0.9,0.5,1.5,1.1,2,2
		c0.5,0.9,0.7,1.9,0.7,3C141.2,10.5,141.2,10.9,141.1,11.3z M138.7,9.3c0-0.9-0.3-1.6-0.9-2.1c-0.6-0.5-1.4-0.8-2.3-0.8
		c-0.8,0-1.5,0.3-2.1,0.8c-0.6,0.5-0.9,1.2-1,2.1H138.7z"/>
	<path class="st0" d="M143.5,7.2c0.5-0.9,1.1-1.6,2-2.1s1.8-0.7,2.8-0.7c0.9,0,1.7,0.2,2.4,0.5c0.7,0.4,1.2,0.8,1.6,1.3V4.6h2.4
		v11.6h-2.4v-1.7c-0.4,0.5-1,1-1.7,1.4c-0.7,0.4-1.5,0.5-2.4,0.5c-1,0-1.9-0.3-2.7-0.8c-0.8-0.5-1.5-1.2-2-2.1
		c-0.5-0.9-0.7-2-0.7-3.1S143,8.1,143.5,7.2z M151.7,8.3c-0.3-0.6-0.8-1-1.3-1.3c-0.5-0.3-1.1-0.5-1.7-0.5c-0.6,0-1.2,0.2-1.7,0.5
		s-1,0.7-1.3,1.3c-0.3,0.6-0.5,1.3-0.5,2.1c0,0.8,0.2,1.5,0.5,2.1c0.3,0.6,0.8,1.1,1.3,1.4c0.5,0.3,1.1,0.5,1.7,0.5
		c0.6,0,1.2-0.2,1.7-0.5c0.5-0.3,1-0.8,1.3-1.4c0.3-0.6,0.5-1.3,0.5-2.1C152.2,9.6,152,8.9,151.7,8.3z"/>
	<path class="st0" d="M161.6,4.9c0.6-0.3,1.3-0.5,2.1-0.5v2.5H163c-0.9,0-1.6,0.2-2.1,0.7c-0.5,0.5-0.7,1.3-0.7,2.5v6.1h-2.4V4.6
		h2.4v1.7C160.5,5.7,161,5.2,161.6,4.9z"/>
	<path class="st0" d="M167.6,15.9c-0.7-0.3-1.3-0.8-1.7-1.3c-0.4-0.6-0.6-1.2-0.7-1.9h2.5c0,0.5,0.3,0.9,0.7,1.2
		c0.4,0.3,1,0.5,1.6,0.5c0.7,0,1.2-0.1,1.6-0.4c0.4-0.3,0.6-0.6,0.6-1c0-0.4-0.2-0.8-0.6-1s-1.1-0.4-2-0.7c-0.9-0.2-1.6-0.5-2.1-0.7
		c-0.5-0.2-1-0.6-1.4-1c-0.4-0.5-0.6-1.1-0.6-1.8c0-0.6,0.2-1.2,0.5-1.7c0.4-0.5,0.9-0.9,1.6-1.2c0.7-0.3,1.5-0.4,2.3-0.4
		c1.3,0,2.4,0.3,3.2,1c0.8,0.7,1.2,1.6,1.3,2.7h-2.4c0-0.5-0.3-0.9-0.6-1.2s-0.9-0.5-1.5-0.5c-0.6,0-1.1,0.1-1.4,0.4
		c-0.3,0.2-0.5,0.6-0.5,0.9c0,0.3,0.1,0.6,0.3,0.8s0.5,0.4,0.8,0.5c0.3,0.1,0.8,0.3,1.4,0.5c0.8,0.2,1.5,0.5,2.1,0.7
		c0.5,0.2,1,0.6,1.4,1c0.4,0.4,0.6,1,0.6,1.8c0,0.7-0.2,1.2-0.5,1.8c-0.4,0.5-0.9,0.9-1.5,1.2s-1.4,0.4-2.3,0.4
		C169.1,16.4,168.3,16.2,167.6,15.9z"/>
	<path class="st0" d="M190.9,5c0.7,0.4,1.2,0.9,1.6,1.7c0.4,0.7,0.6,1.6,0.6,2.7v6.8h-2.4V9.7c0-1-0.3-1.8-0.8-2.4s-1.2-0.8-2.1-0.8
		c-0.9,0-1.6,0.3-2.1,0.8c-0.5,0.6-0.8,1.3-0.8,2.4v6.5h-2.4V0.6h2.4v5.3c0.4-0.5,0.9-0.9,1.5-1.1c0.6-0.3,1.3-0.4,2-0.4
		C189.4,4.4,190.2,4.6,190.9,5z"/>
	<path class="st0" d="M196.1,7.2c0.5-0.9,1.1-1.6,2-2.1s1.8-0.7,2.8-0.7c0.9,0,1.7,0.2,2.4,0.5c0.7,0.4,1.2,0.8,1.6,1.3V4.6h2.4
		v11.6h-2.4v-1.7c-0.4,0.5-1,1-1.7,1.4c-0.7,0.4-1.5,0.5-2.4,0.5c-1,0-1.9-0.3-2.7-0.8c-0.8-0.5-1.5-1.2-2-2.1
		c-0.5-0.9-0.7-2-0.7-3.1S195.6,8.1,196.1,7.2z M204.3,8.3c-0.3-0.6-0.8-1-1.3-1.3c-0.5-0.3-1.1-0.5-1.7-0.5c-0.6,0-1.2,0.2-1.7,0.5
		s-1,0.7-1.3,1.3c-0.3,0.6-0.5,1.3-0.5,2.1c0,0.8,0.2,1.5,0.5,2.1c0.3,0.6,0.8,1.1,1.3,1.4c0.5,0.3,1.1,0.5,1.7,0.5
		c0.6,0,1.2-0.2,1.7-0.5c0.5-0.3,1-0.8,1.3-1.4c0.3-0.6,0.5-1.3,0.5-2.1C204.8,9.6,204.6,8.9,204.3,8.3z"/>
	<path class="st0" d="M214.8,14l3.3-9.4h2.5l-4.4,11.6h-2.9L209,4.6h2.6L214.8,14z"/>
	<path class="st0" d="M233,11.3h-8.8c0.1,0.9,0.4,1.7,1,2.2c0.6,0.6,1.4,0.8,2.3,0.8c1.3,0,2.2-0.5,2.7-1.6h2.6
		c-0.4,1.1-1,1.9-1.9,2.6c-0.9,0.7-2.1,1-3.4,1c-1.1,0-2.1-0.2-3-0.7s-1.6-1.2-2.1-2.1c-0.5-0.9-0.7-1.9-0.7-3.1
		c0-1.2,0.2-2.2,0.7-3.1c0.5-0.9,1.2-1.6,2-2.1c0.9-0.5,1.9-0.7,3-0.7c1.1,0,2.1,0.2,2.9,0.7c0.9,0.5,1.5,1.1,2,2
		c0.5,0.9,0.7,1.9,0.7,3C233.1,10.5,233,10.9,233,11.3z M230.6,9.3c0-0.9-0.3-1.6-0.9-2.1c-0.6-0.5-1.4-0.8-2.3-0.8
		c-0.8,0-1.5,0.3-2.1,0.8c-0.6,0.5-0.9,1.2-1,2.1H230.6z"/>
	<path class="st0" d="M251.3,4.6l-7.1,17h-2.5l2.4-5.6l-4.6-11.4h2.7l3.3,8.8l3.4-8.8H251.3z"/>
	<path class="st0" d="M255.2,15.6c-0.9-0.5-1.6-1.2-2.1-2.1c-0.5-0.9-0.8-1.9-0.8-3.1c0-1.2,0.3-2.2,0.8-3.1
		c0.5-0.9,1.2-1.6,2.1-2.1c0.9-0.5,1.9-0.7,3-0.7c1.1,0,2.1,0.2,3,0.7c0.9,0.5,1.6,1.2,2.1,2.1c0.5,0.9,0.8,2,0.8,3.1
		c0,1.2-0.3,2.2-0.8,3.1s-1.3,1.6-2.2,2.1c-0.9,0.5-1.9,0.7-3,0.7C257,16.4,256,16.1,255.2,15.6z M259.9,13.8c0.5-0.3,1-0.7,1.3-1.3
		s0.5-1.3,0.5-2.1c0-0.8-0.2-1.6-0.5-2.1c-0.3-0.6-0.7-1-1.3-1.3s-1.1-0.4-1.7-0.4c-0.6,0-1.2,0.1-1.7,0.4c-0.5,0.3-0.9,0.7-1.2,1.3
		c-0.3,0.6-0.5,1.3-0.5,2.1c0,1.2,0.3,2.2,1,2.9c0.6,0.7,1.4,1,2.4,1C258.7,14.3,259.3,14.1,259.9,13.8z"/>
	<path class="st0" d="M277,4.6v11.6h-2.4v-1.4c-0.4,0.5-0.9,0.9-1.5,1.1c-0.6,0.3-1.3,0.4-1.9,0.4c-0.9,0-1.7-0.2-2.4-0.6
		c-0.7-0.4-1.3-0.9-1.7-1.7c-0.4-0.7-0.6-1.6-0.6-2.7V4.6h2.4V11c0,1,0.3,1.8,0.8,2.4c0.5,0.6,1.2,0.8,2.1,0.8
		c0.9,0,1.6-0.3,2.1-0.8c0.5-0.6,0.8-1.3,0.8-2.4V4.6H277z"/>
	<path class="st0" d="M289.7,4.9c0.7-0.4,1.5-0.5,2.4-0.5c1,0,1.9,0.2,2.8,0.7c0.8,0.5,1.5,1.2,2,2.1c0.5,0.9,0.7,1.9,0.7,3.1
		s-0.2,2.2-0.7,3.1c-0.5,0.9-1.1,1.6-2,2.1c-0.8,0.5-1.8,0.8-2.8,0.8c-0.9,0-1.7-0.2-2.4-0.5c-0.7-0.3-1.2-0.8-1.6-1.3v1.7h-2.4V0.6
		h2.4v5.7C288.4,5.8,289,5.3,289.7,4.9z M294.5,8.3c-0.3-0.6-0.8-1-1.3-1.3c-0.5-0.3-1.1-0.5-1.7-0.5c-0.6,0-1.2,0.2-1.7,0.5
		c-0.5,0.3-1,0.8-1.3,1.3c-0.3,0.6-0.5,1.3-0.5,2.1c0,0.8,0.2,1.5,0.5,2.1c0.3,0.6,0.8,1,1.3,1.4c0.5,0.3,1.1,0.5,1.7,0.5
		c0.6,0,1.2-0.2,1.7-0.5c0.5-0.3,1-0.8,1.3-1.4c0.3-0.6,0.5-1.3,0.5-2.1C295,9.5,294.9,8.8,294.5,8.3z"/>
	<path class="st0" d="M310.4,11.3h-8.8c0.1,0.9,0.4,1.7,1,2.2c0.6,0.6,1.4,0.8,2.3,0.8c1.3,0,2.2-0.5,2.7-1.6h2.6
		c-0.4,1.1-1,1.9-1.9,2.6c-0.9,0.7-2.1,1-3.4,1c-1.1,0-2.1-0.2-3-0.7s-1.6-1.2-2.1-2.1c-0.5-0.9-0.7-1.9-0.7-3.1
		c0-1.2,0.2-2.2,0.7-3.1c0.5-0.9,1.2-1.6,2-2.1c0.9-0.5,1.9-0.7,3-0.7c1.1,0,2.1,0.2,2.9,0.7c0.9,0.5,1.5,1.1,2,2
		c0.5,0.9,0.7,1.9,0.7,3C310.4,10.5,310.4,10.9,310.4,11.3z M307.9,9.3c0-0.9-0.3-1.6-0.9-2.1c-0.6-0.5-1.4-0.8-2.3-0.8
		c-0.8,0-1.5,0.3-2.1,0.8c-0.6,0.5-0.9,1.2-1,2.1H307.9z"/>
	<path class="st0" d="M323.3,11.3h-8.8c0.1,0.9,0.4,1.7,1,2.2c0.6,0.6,1.4,0.8,2.3,0.8c1.3,0,2.2-0.5,2.7-1.6h2.6
		c-0.4,1.1-1,1.9-1.9,2.6c-0.9,0.7-2.1,1-3.4,1c-1.1,0-2.1-0.2-3-0.7s-1.6-1.2-2.1-2.1c-0.5-0.9-0.7-1.9-0.7-3.1
		c0-1.2,0.2-2.2,0.7-3.1c0.5-0.9,1.2-1.6,2-2.1c0.9-0.5,1.9-0.7,3-0.7c1.1,0,2.1,0.2,2.9,0.7c0.9,0.5,1.5,1.1,2,2
		c0.5,0.9,0.7,1.9,0.7,3C323.4,10.5,323.4,10.9,323.3,11.3z M320.9,9.3c0-0.9-0.3-1.6-0.9-2.1c-0.6-0.5-1.4-0.8-2.3-0.8
		c-0.8,0-1.5,0.3-2.1,0.8c-0.6,0.5-0.9,1.2-1,2.1H320.9z"/>
	<path class="st0" d="M334,5c0.7,0.4,1.3,0.9,1.7,1.7c0.4,0.7,0.6,1.6,0.6,2.7v6.8H334V9.7c0-1-0.3-1.8-0.8-2.4s-1.2-0.8-2.1-0.8
		c-0.9,0-1.6,0.3-2.1,0.8c-0.5,0.6-0.8,1.3-0.8,2.4v6.5h-2.4V4.6h2.4v1.3c0.4-0.5,0.9-0.8,1.5-1.1c0.6-0.3,1.3-0.4,1.9-0.4
		C332.5,4.4,333.3,4.6,334,5z"/>
	<path class="st0" d="M345,2.6c-0.3-0.3-0.4-0.7-0.4-1.1c0-0.4,0.1-0.8,0.4-1.1s0.7-0.4,1.1-0.4c0.4,0,0.8,0.1,1.1,0.4
		s0.4,0.7,0.4,1.1c0,0.4-0.1,0.8-0.4,1.1s-0.7,0.4-1.1,0.4C345.6,3.1,345.3,2.9,345,2.6z M347.2,4.6v11.6h-2.4V4.6H347.2z"/>
	<path class="st0" d="M358.7,5c0.7,0.4,1.3,0.9,1.7,1.7c0.4,0.7,0.6,1.6,0.6,2.7v6.8h-2.4V9.7c0-1-0.3-1.8-0.8-2.4s-1.2-0.8-2.1-0.8
		c-0.9,0-1.6,0.3-2.1,0.8c-0.5,0.6-0.8,1.3-0.8,2.4v6.5h-2.4V4.6h2.4v1.3c0.4-0.5,0.9-0.8,1.5-1.1c0.6-0.3,1.3-0.4,1.9-0.4
		C357.1,4.4,357.9,4.6,358.7,5z"/>
	<path class="st0" d="M373.5,5c0.7-0.4,1.5-0.5,2.4-0.5c1,0,1.9,0.2,2.8,0.7s1.5,1.2,2,2.1c0.5,0.9,0.7,1.9,0.7,3.1
		s-0.2,2.2-0.7,3.1c-0.5,0.9-1.1,1.6-2,2.1c-0.8,0.5-1.8,0.8-2.8,0.8c-0.9,0-1.7-0.2-2.4-0.5c-0.7-0.4-1.2-0.8-1.7-1.3v7.2h-2.4V4.6
		h2.4v1.7C372.3,5.8,372.8,5.3,373.5,5z M378.4,8.3c-0.3-0.6-0.8-1-1.3-1.3c-0.5-0.3-1.1-0.5-1.7-0.5c-0.6,0-1.2,0.2-1.7,0.5
		c-0.5,0.3-1,0.8-1.3,1.3c-0.3,0.6-0.5,1.3-0.5,2.1c0,0.8,0.2,1.5,0.5,2.1c0.3,0.6,0.8,1,1.3,1.4c0.5,0.3,1.1,0.5,1.7,0.5
		c0.6,0,1.2-0.2,1.7-0.5c0.5-0.3,1-0.8,1.3-1.4c0.3-0.6,0.5-1.3,0.5-2.1C378.9,9.5,378.7,8.8,378.4,8.3z"/>
	<path class="st0" d="M387.5,4.9c0.6-0.3,1.3-0.5,2.1-0.5v2.5H389c-0.9,0-1.6,0.2-2.1,0.7c-0.5,0.5-0.7,1.3-0.7,2.5v6.1h-2.4V4.6
		h2.4v1.7C386.5,5.7,386.9,5.2,387.5,4.9z"/>
	<path class="st0" d="M391.7,7.2c0.5-0.9,1.1-1.6,2-2.1s1.8-0.7,2.8-0.7c0.9,0,1.7,0.2,2.4,0.5c0.7,0.4,1.2,0.8,1.6,1.3V4.6h2.4
		v11.6h-2.4v-1.7c-0.4,0.5-1,1-1.7,1.4c-0.7,0.4-1.5,0.5-2.4,0.5c-1,0-1.9-0.3-2.7-0.8c-0.8-0.5-1.5-1.2-2-2.1
		c-0.5-0.9-0.7-2-0.7-3.1S391.2,8.1,391.7,7.2z M400,8.3c-0.3-0.6-0.8-1-1.3-1.3c-0.5-0.3-1.1-0.5-1.7-0.5c-0.6,0-1.2,0.2-1.7,0.5
		s-1,0.7-1.3,1.3c-0.3,0.6-0.5,1.3-0.5,2.1c0,0.8,0.2,1.5,0.5,2.1c0.3,0.6,0.8,1.1,1.3,1.4c0.5,0.3,1.1,0.5,1.7,0.5
		c0.6,0,1.2-0.2,1.7-0.5c0.5-0.3,1-0.8,1.3-1.4c0.3-0.6,0.5-1.3,0.5-2.1C400.4,9.6,400.3,8.9,400,8.3z"/>
	<path class="st0" d="M405.9,7.2c0.5-0.9,1.2-1.6,2-2.1c0.9-0.5,1.8-0.7,2.9-0.7c1.4,0,2.6,0.3,3.5,1c0.9,0.7,1.5,1.6,1.9,2.8h-2.6
		c-0.2-0.6-0.5-1-1-1.3c-0.5-0.3-1-0.5-1.7-0.5c-1,0-1.8,0.3-2.3,1c-0.6,0.7-0.9,1.7-0.9,2.9s0.3,2.2,0.9,2.9s1.4,1,2.3,1
		c1.4,0,2.3-0.6,2.8-1.8h2.6c-0.3,1.2-1,2.1-1.9,2.8c-0.9,0.7-2.1,1-3.4,1c-1.1,0-2.1-0.2-2.9-0.7s-1.5-1.2-2-2.1
		c-0.5-0.9-0.7-1.9-0.7-3.1C405.2,9.2,405.5,8.1,405.9,7.2z"/>
	<path class="st0" d="M421.4,6.6V13c0,0.4,0.1,0.7,0.3,0.9c0.2,0.2,0.5,0.3,1,0.3h1.5v2h-1.9c-1.1,0-1.9-0.3-2.5-0.8
		c-0.6-0.5-0.9-1.3-0.9-2.5V6.6h-1.4v-2h1.4V1.7h2.4v2.9h2.8v2H421.4z"/>
	<path class="st0" d="M426.5,2.6c-0.3-0.3-0.4-0.7-0.4-1.1c0-0.4,0.1-0.8,0.4-1.1s0.7-0.4,1.1-0.4c0.4,0,0.8,0.1,1.1,0.4
		s0.4,0.7,0.4,1.1c0,0.4-0.1,0.8-0.4,1.1s-0.7,0.4-1.1,0.4C427.2,3.1,426.8,2.9,426.5,2.6z M428.8,4.6v11.6h-2.4V4.6H428.8z"/>
	<path class="st0" d="M431.9,7.2c0.5-0.9,1.2-1.6,2-2.1c0.9-0.5,1.8-0.7,2.9-0.7c1.4,0,2.6,0.3,3.5,1c0.9,0.7,1.5,1.6,1.9,2.8h-2.6
		c-0.2-0.6-0.5-1-1-1.3c-0.5-0.3-1-0.5-1.7-0.5c-1,0-1.8,0.3-2.3,1c-0.6,0.7-0.9,1.7-0.9,2.9s0.3,2.2,0.9,2.9s1.4,1,2.3,1
		c1.4,0,2.3-0.6,2.8-1.8h2.6c-0.3,1.2-1,2.1-1.9,2.8c-0.9,0.7-2.1,1-3.4,1c-1.1,0-2.1-0.2-2.9-0.7s-1.5-1.2-2-2.1
		c-0.5-0.9-0.7-1.9-0.7-3.1C431.2,9.2,431.4,8.1,431.9,7.2z"/>
	<path class="st0" d="M455.1,11.3h-8.8c0.1,0.9,0.4,1.7,1,2.2c0.6,0.6,1.4,0.8,2.3,0.8c1.3,0,2.2-0.5,2.7-1.6h2.6
		c-0.4,1.1-1,1.9-1.9,2.6c-0.9,0.7-2.1,1-3.4,1c-1.1,0-2.1-0.2-3-0.7s-1.6-1.2-2.1-2.1c-0.5-0.9-0.7-1.9-0.7-3.1
		c0-1.2,0.2-2.2,0.7-3.1c0.5-0.9,1.2-1.6,2-2.1c0.9-0.5,1.9-0.7,3-0.7c1.1,0,2.1,0.2,2.9,0.7c0.9,0.5,1.5,1.1,2,2
		c0.5,0.9,0.7,1.9,0.7,3C455.2,10.5,455.1,10.9,455.1,11.3z M452.7,9.3c0-0.9-0.3-1.6-0.9-2.1c-0.6-0.5-1.4-0.8-2.3-0.8
		c-0.8,0-1.5,0.3-2.1,0.8c-0.6,0.5-0.9,1.2-1,2.1H452.7z"/>
	<path class="st0" d="M464.9,2.5c0.9,0.8,1.3,1.9,1.3,3.2c0,1.4-0.4,2.5-1.3,3.2c-0.9,0.7-2.1,1.1-3.6,1.1l-0.1,1.7h-2.1L459,8.4
		h0.7c1.4,0,2.4-0.2,3.1-0.5s1.1-1.1,1.1-2.1c0-0.7-0.2-1.3-0.6-1.7c-0.4-0.4-1-0.6-1.8-0.6c-0.8,0-1.4,0.2-1.8,0.6
		c-0.4,0.4-0.7,1-0.7,1.7h-2.2c0-0.8,0.2-1.6,0.6-2.2c0.4-0.7,0.9-1.2,1.6-1.5c0.7-0.4,1.5-0.5,2.5-0.5C462.9,1.4,464,1.8,464.9,2.5
		z M459,15.9c-0.3-0.3-0.4-0.7-0.4-1.1c0-0.4,0.1-0.8,0.4-1.1s0.7-0.4,1.1-0.4c0.4,0,0.8,0.1,1.1,0.4c0.3,0.3,0.4,0.7,0.4,1.1
		c0,0.4-0.1,0.8-0.4,1.1c-0.3,0.3-0.7,0.4-1.1,0.4C459.7,16.3,459.3,16.2,459,15.9z"/>
</g>
</svg>
