<!-- Generator: Adobe Illustrator 25.0.0, SVG Export Plug-In  -->
<svg version="1.1" xmlns="http://www.w3.org/2000/svg" xmlns:xlink="http://www.w3.org/1999/xlink" x="0px" y="0px" width="104.7px"
	 height="47.5px" viewBox="0 0 104.7 47.5" style="overflow:visible;enable-background:new 0 0 104.7 47.5;" xml:space="preserve">
<style type="text/css">
	.st0{fill:#0078FF;}
</style>
<defs>
</defs>
<g>
	<path class="st0" d="M1.7,8c-0.4-0.2-0.8-0.5-1-0.8C0.4,6.8,0.3,6.4,0.3,6h1.4c0,0.3,0.2,0.6,0.4,0.9c0.2,0.2,0.6,0.3,1,0.3
		C3.6,7.2,4,7,4.2,6.8C4.5,6.6,4.6,6.3,4.6,6c0-0.3-0.1-0.5-0.2-0.7S4,5,3.8,4.9c-0.2-0.1-0.6-0.2-1-0.3c-0.5-0.1-1-0.3-1.3-0.4
		S0.9,3.8,0.6,3.5C0.4,3.2,0.3,2.8,0.3,2.3c0-0.5,0.1-0.9,0.3-1.2c0.2-0.3,0.6-0.6,1-0.8C2,0.1,2.5,0,3.1,0C3.9,0,4.5,0.2,5,0.6
		C5.5,1,5.8,1.5,5.8,2.2H4.4c0-0.3-0.2-0.5-0.4-0.8c-0.3-0.2-0.6-0.3-1-0.3C2.6,1.1,2.2,1.2,2,1.4C1.8,1.6,1.6,1.9,1.6,2.3
		c0,0.2,0.1,0.5,0.2,0.6s0.3,0.3,0.6,0.4c0.2,0.1,0.6,0.2,1,0.3c0.5,0.1,1,0.3,1.3,0.4C5,4.1,5.3,4.4,5.6,4.7C5.8,5,5.9,5.4,5.9,5.9
		c0,0.4-0.1,0.8-0.3,1.2c-0.2,0.4-0.5,0.7-1,0.9C4.2,8.2,3.7,8.3,3.1,8.3C2.6,8.3,2.1,8.2,1.7,8z"/>
	<path class="st0" d="M12.4,6.5H9L8.4,8.2H7l2.9-8.1h1.5l2.9,8.1H13L12.4,6.5z M12,5.5l-1.3-3.8L9.4,5.5H12z"/>
	<path class="st0" d="M16.9,7.1h2.7v1.1h-4.1V0.1h1.3V7.1z"/>
	<path class="st0" d="M26,0.1v1.1h-2.2v7h-1.3v-7h-2.2V0.1H26z"/>
	<path class="st0" d="M31.7,7.1h2.7v1.1h-4.1V0.1h1.3V7.1z"/>
	<path class="st0" d="M40.4,6.5H37l-0.6,1.7h-1.4L38,0.1h1.5l2.9,8.1H41L40.4,6.5z M40,5.5l-1.3-3.8l-1.3,3.8H40z"/>
	<path class="st0" d="M48.1,8.2L45,4.6v3.6h-1.3V0.1H45v3.7l3.1-3.7h1.7l-3.5,4.1l3.6,4H48.1z"/>
	<path class="st0" d="M52.3,1.2v2.4h2.8v1.1h-2.8v2.5h3.1v1.1H51V0.1h4.5v1.1H52.3z"/>
	<path class="st0" d="M60.3,2c0.4-0.6,0.9-1.1,1.5-1.5C62.4,0.2,63.1,0,63.8,0c0.9,0,1.6,0.2,2.3,0.6c0.7,0.4,1.2,1,1.5,1.8H66
		c-0.2-0.4-0.5-0.7-0.9-1c-0.4-0.2-0.8-0.3-1.3-0.3c-0.5,0-1,0.1-1.4,0.4c-0.4,0.2-0.7,0.6-1,1c-0.2,0.5-0.4,1-0.4,1.6
		s0.1,1.1,0.4,1.6c0.2,0.5,0.6,0.8,1,1c0.4,0.2,0.9,0.4,1.4,0.4c0.5,0,0.9-0.1,1.3-0.3c0.4-0.2,0.7-0.5,0.9-1h1.6
		c-0.3,0.8-0.8,1.4-1.5,1.8c-0.7,0.4-1.4,0.6-2.3,0.6c-0.8,0-1.5-0.2-2.1-0.5c-0.6-0.4-1.1-0.8-1.5-1.5c-0.4-0.6-0.6-1.3-0.6-2.1
		S59.9,2.6,60.3,2z"/>
	<path class="st0" d="M70.5,0.1v8.1h-1.3V0.1H70.5z"/>
	<path class="st0" d="M77.4,0.1v1.1h-2.2v7H74v-7h-2.2V0.1H77.4z"/>
	<path class="st0" d="M84.8,0.1l-2.7,5.2v2.9h-1.3V5.3l-2.7-5.2h1.5l1.9,4l1.9-4H84.8z"/>
	<path class="st0" d="M87.3,6.6l-1.4,3.2H85l0.8-3.2H87.3z"/>
	<path class="st0" d="M92.8,0.1v5.2c0,0.6,0.2,1.1,0.5,1.4C93.6,7,94,7.1,94.6,7.1c0.6,0,1-0.2,1.4-0.5s0.5-0.8,0.5-1.4V0.1h1.3v5.1
		c0,0.7-0.1,1.2-0.4,1.7c-0.3,0.5-0.7,0.8-1.2,1c-0.5,0.2-1,0.3-1.6,0.3S93.5,8.2,93,7.9c-0.5-0.2-0.9-0.6-1.1-1s-0.4-1-0.4-1.7V0.1
		H92.8z"/>
	<path class="st0" d="M104.7,0.1v1.1h-2.2v7h-1.3v-7h-2.2V0.1H104.7z"/>
	<path class="st0" d="M0.2,15.3C0.1,15.2,0,15.1,0,14.9s0.1-0.3,0.2-0.4c0.1-0.1,0.2-0.2,0.4-0.2c0.2,0,0.3,0.1,0.4,0.2
		c0.1,0.1,0.2,0.2,0.2,0.4S1.1,15.2,1,15.3c-0.1,0.1-0.2,0.2-0.4,0.2C0.4,15.5,0.3,15.4,0.2,15.3z"/>
	<path class="st0" d="M7.7,14.5c-0.1,0.2-0.3,0.4-0.6,0.6c-0.3,0.2-0.6,0.2-1.1,0.2H5v2.2H4.1v-5.4H6c0.4,0,0.8,0.1,1.1,0.2
		c0.3,0.1,0.5,0.3,0.6,0.6c0.1,0.2,0.2,0.5,0.2,0.8C7.9,14,7.8,14.3,7.7,14.5z M6.7,14.4C6.9,14.2,7,14,7,13.7c0-0.6-0.3-0.9-1-0.9
		H5v1.8h1C6.3,14.6,6.5,14.5,6.7,14.4z"/>
	<path class="st0" d="M11.8,13.4c0.3,0.1,0.5,0.3,0.6,0.6s0.2,0.6,0.2,1v2.5h-0.9v-2.4c0-0.4-0.1-0.7-0.3-0.9
		c-0.2-0.2-0.5-0.3-0.8-0.3s-0.6,0.1-0.8,0.3c-0.2,0.2-0.3,0.5-0.3,0.9v2.4H8.7v-5.7h0.9v2c0.1-0.2,0.3-0.3,0.6-0.4s0.5-0.1,0.8-0.1
		C11.2,13.2,11.5,13.2,11.8,13.4z"/>
	<path class="st0" d="M13.7,14.2c0.2-0.3,0.4-0.6,0.7-0.8s0.6-0.3,1-0.3c0.3,0,0.6,0.1,0.9,0.2c0.3,0.1,0.5,0.3,0.6,0.5v-0.6h0.9
		v4.3h-0.9v-0.6c-0.2,0.2-0.4,0.4-0.6,0.5s-0.6,0.2-0.9,0.2c-0.4,0-0.7-0.1-1-0.3c-0.3-0.2-0.5-0.5-0.7-0.8s-0.3-0.7-0.3-1.2
		S13.5,14.5,13.7,14.2z M16.8,14.6c-0.1-0.2-0.3-0.4-0.5-0.5c-0.2-0.1-0.4-0.2-0.6-0.2S15.2,14,15,14.1c-0.2,0.1-0.4,0.3-0.5,0.5
		c-0.1,0.2-0.2,0.5-0.2,0.8s0.1,0.6,0.2,0.8c0.1,0.2,0.3,0.4,0.5,0.5s0.4,0.2,0.6,0.2c0.2,0,0.4-0.1,0.6-0.2
		c0.2-0.1,0.4-0.3,0.5-0.5c0.1-0.2,0.2-0.5,0.2-0.8S16.9,14.8,16.8,14.6z"/>
	<path class="st0" d="M20.4,13.3c0.2-0.1,0.5-0.2,0.8-0.2v0.9h-0.2c-0.3,0-0.6,0.1-0.8,0.3s-0.3,0.5-0.3,0.9v2.3H19v-4.3h0.9v0.6
		C20,13.6,20.2,13.5,20.4,13.3z"/>
	<path class="st0" d="M28.1,13.4c0.3,0.1,0.5,0.3,0.6,0.6c0.2,0.3,0.2,0.6,0.2,1v2.5H28v-2.4c0-0.4-0.1-0.7-0.3-0.9
		c-0.2-0.2-0.5-0.3-0.8-0.3s-0.6,0.1-0.8,0.3c-0.2,0.2-0.3,0.5-0.3,0.9v2.4H25v-2.4c0-0.4-0.1-0.7-0.3-0.9c-0.2-0.2-0.5-0.3-0.8-0.3
		s-0.6,0.1-0.8,0.3c-0.2,0.2-0.3,0.5-0.3,0.9v2.4H22v-4.3h0.9v0.5c0.1-0.2,0.3-0.3,0.6-0.4s0.5-0.1,0.7-0.1c0.3,0,0.6,0.1,0.9,0.2
		c0.3,0.1,0.5,0.4,0.6,0.6c0.1-0.3,0.3-0.5,0.6-0.6c0.3-0.2,0.6-0.2,0.9-0.2C27.5,13.2,27.8,13.2,28.1,13.4z"/>
	<path class="st0" d="M30,14.2c0.2-0.3,0.4-0.6,0.7-0.8s0.6-0.3,1-0.3c0.3,0,0.6,0.1,0.9,0.2c0.3,0.1,0.5,0.3,0.6,0.5v-0.6h0.9v4.3
		h-0.9v-0.6c-0.2,0.2-0.4,0.4-0.6,0.5s-0.6,0.2-0.9,0.2c-0.4,0-0.7-0.1-1-0.3c-0.3-0.2-0.5-0.5-0.7-0.8s-0.3-0.7-0.3-1.2
		S29.8,14.5,30,14.2z M33.1,14.6c-0.1-0.2-0.3-0.4-0.5-0.5c-0.2-0.1-0.4-0.2-0.6-0.2s-0.4,0.1-0.6,0.2c-0.2,0.1-0.4,0.3-0.5,0.5
		c-0.1,0.2-0.2,0.5-0.2,0.8s0.1,0.6,0.2,0.8c0.1,0.2,0.3,0.4,0.5,0.5s0.4,0.2,0.6,0.2c0.2,0,0.4-0.1,0.6-0.2
		c0.2-0.1,0.4-0.3,0.5-0.5c0.1-0.2,0.2-0.5,0.2-0.8S33.2,14.8,33.1,14.6z"/>
	<path class="st0" d="M35.3,14.2c0.2-0.3,0.4-0.6,0.7-0.8c0.3-0.2,0.7-0.3,1.1-0.3c0.5,0,0.9,0.1,1.3,0.4c0.3,0.2,0.6,0.6,0.7,1.1
		h-1c-0.1-0.2-0.2-0.4-0.4-0.5c-0.2-0.1-0.4-0.2-0.6-0.2c-0.4,0-0.7,0.1-0.9,0.4c-0.2,0.3-0.3,0.6-0.3,1.1c0,0.5,0.1,0.8,0.3,1.1
		c0.2,0.3,0.5,0.4,0.9,0.4c0.5,0,0.9-0.2,1-0.7h1c-0.1,0.4-0.4,0.8-0.7,1c-0.3,0.3-0.8,0.4-1.3,0.4c-0.4,0-0.8-0.1-1.1-0.3
		c-0.3-0.2-0.6-0.4-0.7-0.8c-0.2-0.3-0.3-0.7-0.3-1.2S35.1,14.5,35.3,14.2z"/>
	<path class="st0" d="M40,12.5c-0.1-0.1-0.2-0.2-0.2-0.4c0-0.2,0.1-0.3,0.2-0.4c0.1-0.1,0.2-0.2,0.4-0.2c0.2,0,0.3,0.1,0.4,0.2
		s0.2,0.2,0.2,0.4c0,0.2-0.1,0.3-0.2,0.4c-0.1,0.1-0.2,0.2-0.4,0.2C40.3,12.7,40.1,12.6,40,12.5z M40.8,13.2v4.3H40v-4.3H40.8z"/>
	<path class="st0" d="M42.7,17.4c-0.3-0.1-0.5-0.3-0.6-0.5c-0.2-0.2-0.2-0.4-0.2-0.7h0.9c0,0.2,0.1,0.3,0.3,0.5
		c0.2,0.1,0.4,0.2,0.6,0.2c0.2,0,0.4,0,0.6-0.1c0.1-0.1,0.2-0.2,0.2-0.4c0-0.2-0.1-0.3-0.2-0.4c-0.2-0.1-0.4-0.2-0.7-0.3
		c-0.3-0.1-0.6-0.2-0.8-0.3s-0.4-0.2-0.5-0.4s-0.2-0.4-0.2-0.7c0-0.2,0.1-0.4,0.2-0.6c0.1-0.2,0.3-0.3,0.6-0.4s0.5-0.2,0.9-0.2
		c0.5,0,0.9,0.1,1.2,0.4c0.3,0.2,0.5,0.6,0.5,1h-0.9c0-0.2-0.1-0.3-0.2-0.5c-0.1-0.1-0.3-0.2-0.6-0.2c-0.2,0-0.4,0-0.5,0.1
		s-0.2,0.2-0.2,0.3c0,0.1,0,0.2,0.1,0.3c0.1,0.1,0.2,0.1,0.3,0.2s0.3,0.1,0.5,0.2c0.3,0.1,0.6,0.2,0.8,0.3c0.2,0.1,0.4,0.2,0.5,0.4
		c0.1,0.2,0.2,0.4,0.2,0.7c0,0.2-0.1,0.5-0.2,0.7c-0.1,0.2-0.3,0.3-0.6,0.5c-0.2,0.1-0.5,0.2-0.9,0.2C43.2,17.6,42.9,17.5,42.7,17.4
		z"/>
	<path class="st0" d="M47.2,14v2.4c0,0.2,0,0.3,0.1,0.3c0.1,0.1,0.2,0.1,0.4,0.1h0.5v0.7h-0.7c-0.4,0-0.7-0.1-0.9-0.3
		s-0.3-0.5-0.3-0.9V14h-0.5v-0.7h0.5v-1.1h0.9v1.1h1V14H47.2z"/>
	<path class="st0" d="M0.2,24.6C0.1,24.5,0,24.4,0,24.2s0.1-0.3,0.2-0.4c0.1-0.1,0.2-0.2,0.4-0.2c0.2,0,0.3,0.1,0.4,0.2
		c0.1,0.1,0.2,0.2,0.2,0.4S1.1,24.5,1,24.6c-0.1,0.1-0.2,0.2-0.4,0.2C0.4,24.8,0.3,24.7,0.2,24.6z"/>
	<path class="st0" d="M8.5,26.8H7.6l-2.7-4v4H4.1v-5.4H5l2.7,4v-4h0.9V26.8z"/>
	<path class="st0" d="M13.6,25h-3.3c0,0.3,0.2,0.6,0.4,0.8s0.5,0.3,0.8,0.3c0.5,0,0.8-0.2,1-0.6h1c-0.1,0.4-0.4,0.7-0.7,1
		s-0.8,0.4-1.3,0.4c-0.4,0-0.8-0.1-1.1-0.3c-0.3-0.2-0.6-0.4-0.8-0.8c-0.2-0.3-0.3-0.7-0.3-1.2s0.1-0.8,0.3-1.2
		c0.2-0.3,0.4-0.6,0.8-0.8c0.3-0.2,0.7-0.3,1.1-0.3c0.4,0,0.8,0.1,1.1,0.3s0.6,0.4,0.7,0.7s0.3,0.7,0.3,1.1
		C13.6,24.7,13.6,24.9,13.6,25z M12.7,24.3c0-0.3-0.1-0.6-0.3-0.8c-0.2-0.2-0.5-0.3-0.8-0.3c-0.3,0-0.6,0.1-0.8,0.3
		c-0.2,0.2-0.3,0.5-0.4,0.8H12.7z"/>
	<path class="st0" d="M17.1,22.7c0.3,0.1,0.5,0.3,0.6,0.5v-0.6h0.9v4.3c0,0.4-0.1,0.7-0.2,1.1c-0.2,0.3-0.4,0.5-0.7,0.7
		c-0.3,0.2-0.7,0.3-1.1,0.3c-0.6,0-1.1-0.1-1.4-0.4s-0.6-0.6-0.7-1.1h0.9c0.1,0.2,0.2,0.4,0.4,0.5c0.2,0.1,0.5,0.2,0.8,0.2
		c0.4,0,0.6-0.1,0.9-0.3s0.3-0.5,0.3-0.9v-0.7c-0.2,0.2-0.4,0.4-0.6,0.5s-0.5,0.2-0.9,0.2c-0.4,0-0.7-0.1-1-0.3
		c-0.3-0.2-0.6-0.5-0.7-0.8s-0.3-0.7-0.3-1.2s0.1-0.8,0.3-1.1s0.4-0.6,0.7-0.8s0.6-0.3,1-0.3C16.5,22.5,16.8,22.5,17.1,22.7z
		 M17.5,23.9c-0.1-0.2-0.3-0.4-0.5-0.5c-0.2-0.1-0.4-0.2-0.6-0.2s-0.4,0.1-0.6,0.2c-0.2,0.1-0.4,0.3-0.5,0.5
		c-0.1,0.2-0.2,0.5-0.2,0.8s0.1,0.6,0.2,0.8c0.1,0.2,0.3,0.4,0.5,0.5s0.4,0.2,0.6,0.2c0.2,0,0.4-0.1,0.6-0.2
		c0.2-0.1,0.4-0.3,0.5-0.5c0.1-0.2,0.2-0.5,0.2-0.8S17.6,24.1,17.5,23.9z"/>
	<path class="st0" d="M19.8,21.8c-0.1-0.1-0.2-0.2-0.2-0.4c0-0.2,0.1-0.3,0.2-0.4c0.1-0.1,0.2-0.2,0.4-0.2c0.2,0,0.3,0.1,0.4,0.2
		s0.2,0.2,0.2,0.4c0,0.2-0.1,0.3-0.2,0.4c-0.1,0.1-0.2,0.2-0.4,0.2C20,22,19.9,21.9,19.8,21.8z M20.6,22.5v4.3h-0.9v-4.3H20.6z"/>
	<path class="st0" d="M22.4,26.7c-0.3-0.1-0.5-0.3-0.6-0.5c-0.2-0.2-0.2-0.4-0.2-0.7h0.9c0,0.2,0.1,0.3,0.3,0.5
		c0.2,0.1,0.4,0.2,0.6,0.2c0.2,0,0.4,0,0.6-0.1c0.1-0.1,0.2-0.2,0.2-0.4c0-0.2-0.1-0.3-0.2-0.4c-0.2-0.1-0.4-0.2-0.7-0.3
		c-0.3-0.1-0.6-0.2-0.8-0.3s-0.4-0.2-0.5-0.4s-0.2-0.4-0.2-0.7c0-0.2,0.1-0.4,0.2-0.6c0.1-0.2,0.3-0.3,0.6-0.4s0.5-0.2,0.9-0.2
		c0.5,0,0.9,0.1,1.2,0.4c0.3,0.2,0.5,0.6,0.5,1H24c0-0.2-0.1-0.3-0.2-0.5c-0.1-0.1-0.3-0.2-0.6-0.2c-0.2,0-0.4,0-0.5,0.1
		s-0.2,0.2-0.2,0.3c0,0.1,0,0.2,0.1,0.3c0.1,0.1,0.2,0.1,0.3,0.2s0.3,0.1,0.5,0.2c0.3,0.1,0.6,0.2,0.8,0.3c0.2,0.1,0.4,0.2,0.5,0.4
		c0.1,0.2,0.2,0.4,0.2,0.7c0,0.2-0.1,0.5-0.2,0.7c-0.1,0.2-0.3,0.3-0.6,0.5c-0.2,0.1-0.5,0.2-0.9,0.2C23,26.9,22.7,26.8,22.4,26.7z"
		/>
	<path class="st0" d="M27,23.3v2.4c0,0.2,0,0.3,0.1,0.3c0.1,0.1,0.2,0.1,0.4,0.1H28v0.7h-0.7c-0.4,0-0.7-0.1-0.9-0.3
		s-0.3-0.5-0.3-0.9v-2.4h-0.5v-0.7h0.5v-1.1H27v1.1h1v0.7H27z"/>
	<path class="st0" d="M32.7,25h-3.3c0,0.3,0.2,0.6,0.4,0.8s0.5,0.3,0.8,0.3c0.5,0,0.8-0.2,1-0.6h1c-0.1,0.4-0.4,0.7-0.7,1
		s-0.8,0.4-1.3,0.4c-0.4,0-0.8-0.1-1.1-0.3c-0.3-0.2-0.6-0.4-0.8-0.8c-0.2-0.3-0.3-0.7-0.3-1.2s0.1-0.8,0.3-1.2
		c0.2-0.3,0.4-0.6,0.8-0.8c0.3-0.2,0.7-0.3,1.1-0.3c0.4,0,0.8,0.1,1.1,0.3s0.6,0.4,0.7,0.7s0.3,0.7,0.3,1.1
		C32.7,24.7,32.7,24.9,32.7,25z M31.8,24.3c0-0.3-0.1-0.6-0.3-0.8c-0.2-0.2-0.5-0.3-0.8-0.3c-0.3,0-0.6,0.1-0.8,0.3
		c-0.2,0.2-0.3,0.5-0.4,0.8H31.8z"/>
	<path class="st0" d="M35,22.7c0.2-0.1,0.5-0.2,0.8-0.2v0.9h-0.2c-0.3,0-0.6,0.1-0.8,0.3s-0.3,0.5-0.3,0.9v2.3h-0.9v-4.3h0.9v0.6
		C34.6,22.9,34.8,22.8,35,22.7z"/>
	<path class="st0" d="M40.5,25h-3.3c0,0.3,0.2,0.6,0.4,0.8s0.5,0.3,0.8,0.3c0.5,0,0.8-0.2,1-0.6h1c-0.1,0.4-0.4,0.7-0.7,1
		s-0.8,0.4-1.3,0.4c-0.4,0-0.8-0.1-1.1-0.3c-0.3-0.2-0.6-0.4-0.8-0.8c-0.2-0.3-0.3-0.7-0.3-1.2s0.1-0.8,0.3-1.2
		c0.2-0.3,0.4-0.6,0.8-0.8c0.3-0.2,0.7-0.3,1.1-0.3c0.4,0,0.8,0.1,1.1,0.3s0.6,0.4,0.7,0.7s0.3,0.7,0.3,1.1
		C40.5,24.7,40.5,24.9,40.5,25z M39.6,24.3c0-0.3-0.1-0.6-0.3-0.8c-0.2-0.2-0.5-0.3-0.8-0.3c-0.3,0-0.6,0.1-0.8,0.3
		c-0.2,0.2-0.3,0.5-0.4,0.8H39.6z"/>
	<path class="st0" d="M41.3,23.5c0.2-0.3,0.4-0.6,0.7-0.8s0.7-0.3,1-0.3c0.3,0,0.6,0.1,0.8,0.2c0.3,0.1,0.5,0.3,0.6,0.5v-2.1h0.9
		v5.7h-0.9v-0.6c-0.1,0.2-0.3,0.4-0.6,0.5s-0.5,0.2-0.9,0.2c-0.4,0-0.7-0.1-1-0.3c-0.3-0.2-0.6-0.5-0.7-0.8s-0.3-0.7-0.3-1.2
		S41.2,23.9,41.3,23.5z M44.4,23.9c-0.1-0.2-0.3-0.4-0.5-0.5c-0.2-0.1-0.4-0.2-0.6-0.2s-0.4,0.1-0.6,0.2c-0.2,0.1-0.4,0.3-0.5,0.5
		C42,24.1,42,24.4,42,24.7s0.1,0.6,0.2,0.8c0.1,0.2,0.3,0.4,0.5,0.5s0.4,0.2,0.6,0.2c0.2,0,0.4-0.1,0.6-0.2c0.2-0.1,0.4-0.3,0.5-0.5
		c0.1-0.2,0.2-0.5,0.2-0.8S44.5,24.1,44.4,23.9z"/>
	<path class="st0" d="M53.1,26.8h-0.9l-2.7-4v4h-0.9v-5.4h0.9l2.7,4v-4h0.9V26.8z"/>
	<path class="st0" d="M58.1,22.5v4.3h-0.9v-0.5c-0.1,0.2-0.3,0.3-0.5,0.4c-0.2,0.1-0.5,0.2-0.7,0.2c-0.3,0-0.6-0.1-0.9-0.2
		s-0.5-0.3-0.6-0.6c-0.2-0.3-0.2-0.6-0.2-1v-2.5h0.9v2.4c0,0.4,0.1,0.7,0.3,0.9s0.5,0.3,0.8,0.3s0.6-0.1,0.8-0.3
		c0.2-0.2,0.3-0.5,0.3-0.9v-2.4H58.1z"/>
	<path class="st0" d="M60.7,22.7c0.2-0.1,0.5-0.2,0.8-0.2v0.9h-0.2c-0.3,0-0.6,0.1-0.8,0.3s-0.3,0.5-0.3,0.9v2.3h-0.9v-4.3h0.9v0.6
		C60.3,22.9,60.5,22.8,60.7,22.7z"/>
	<path class="st0" d="M62.9,26.7c-0.3-0.1-0.5-0.3-0.6-0.5C62.1,26,62,25.8,62,25.5h0.9c0,0.2,0.1,0.3,0.3,0.5
		c0.2,0.1,0.4,0.2,0.6,0.2c0.2,0,0.4,0,0.6-0.1c0.1-0.1,0.2-0.2,0.2-0.4c0-0.2-0.1-0.3-0.2-0.4c-0.2-0.1-0.4-0.2-0.7-0.3
		c-0.3-0.1-0.6-0.2-0.8-0.3s-0.4-0.2-0.5-0.4s-0.2-0.4-0.2-0.7c0-0.2,0.1-0.4,0.2-0.6c0.1-0.2,0.3-0.3,0.6-0.4s0.5-0.2,0.9-0.2
		c0.5,0,0.9,0.1,1.2,0.4c0.3,0.2,0.5,0.6,0.5,1h-0.9c0-0.2-0.1-0.3-0.2-0.5c-0.1-0.1-0.3-0.2-0.6-0.2c-0.2,0-0.4,0-0.5,0.1
		S63,23.6,63,23.7c0,0.1,0,0.2,0.1,0.3c0.1,0.1,0.2,0.1,0.3,0.2s0.3,0.1,0.5,0.2c0.3,0.1,0.6,0.2,0.8,0.3c0.2,0.1,0.4,0.2,0.5,0.4
		c0.1,0.2,0.2,0.4,0.2,0.7c0,0.2-0.1,0.5-0.2,0.7c-0.1,0.2-0.3,0.3-0.6,0.5c-0.2,0.1-0.5,0.2-0.9,0.2C63.5,26.9,63.2,26.8,62.9,26.7
		z"/>
	<path class="st0" d="M70.3,25H67c0,0.3,0.2,0.6,0.4,0.8s0.5,0.3,0.8,0.3c0.5,0,0.8-0.2,1-0.6h1c-0.1,0.4-0.4,0.7-0.7,1
		s-0.8,0.4-1.3,0.4c-0.4,0-0.8-0.1-1.1-0.3c-0.3-0.2-0.6-0.4-0.8-0.8c-0.2-0.3-0.3-0.7-0.3-1.2s0.1-0.8,0.3-1.2
		c0.2-0.3,0.4-0.6,0.8-0.8c0.3-0.2,0.7-0.3,1.1-0.3c0.4,0,0.8,0.1,1.1,0.3s0.6,0.4,0.7,0.7s0.3,0.7,0.3,1.1
		C70.3,24.7,70.3,24.9,70.3,25z M69.4,24.3c0-0.3-0.1-0.6-0.3-0.8c-0.2-0.2-0.5-0.3-0.8-0.3c-0.3,0-0.6,0.1-0.8,0.3
		c-0.2,0.2-0.3,0.5-0.4,0.8H69.4z"/>
	<path class="st0" d="M76.5,23.6v0.7h-3.2v-0.7H76.5z"/>
	<path class="st0" d="M80.1,25.6c0.5-0.4,0.9-0.8,1.2-1.1c0.3-0.3,0.5-0.6,0.7-0.9c0.2-0.3,0.3-0.6,0.3-0.9c0-0.3-0.1-0.6-0.2-0.7
		s-0.4-0.3-0.7-0.3c-0.3,0-0.5,0.1-0.7,0.3c-0.2,0.2-0.3,0.5-0.3,0.8h-0.9c0-0.6,0.2-1,0.5-1.4c0.3-0.3,0.8-0.5,1.3-0.5
		c0.6,0,1,0.2,1.3,0.5c0.3,0.3,0.5,0.7,0.5,1.2c0,0.4-0.1,0.7-0.3,1.1c-0.2,0.3-0.4,0.7-0.7,0.9c-0.3,0.3-0.6,0.6-1,0.9L80.9,26h2.5
		v0.7h-3.8v-0.6L80.1,25.6z"/>
	<path class="st0" d="M0.2,33.9C0.1,33.8,0,33.7,0,33.5s0.1-0.3,0.2-0.4C0.3,33,0.4,33,0.6,33C0.7,33,0.9,33,1,33.1
		c0.1,0.1,0.2,0.2,0.2,0.4S1.1,33.8,1,33.9c-0.1,0.1-0.2,0.2-0.4,0.2C0.4,34.1,0.3,34,0.2,33.9z"/>
	<path class="st0" d="M6.9,36.1L5.6,34H5v2.2H4.1v-5.4H6c0.4,0,0.8,0.1,1.1,0.2c0.3,0.1,0.5,0.3,0.6,0.6c0.1,0.2,0.2,0.5,0.2,0.8
		c0,0.4-0.1,0.7-0.3,1S7,33.8,6.6,33.9l1.3,2.2H6.9z M5,33.3h1c0.3,0,0.6-0.1,0.7-0.2C6.9,32.9,7,32.6,7,32.4s-0.1-0.5-0.2-0.7
		c-0.2-0.2-0.4-0.2-0.8-0.2H5V33.3z"/>
	<path class="st0" d="M12.9,34.3H9.6c0,0.3,0.2,0.6,0.4,0.8s0.5,0.3,0.8,0.3c0.5,0,0.8-0.2,1-0.6h1c-0.1,0.4-0.4,0.7-0.7,1
		s-0.8,0.4-1.3,0.4c-0.4,0-0.8-0.1-1.1-0.3c-0.3-0.2-0.6-0.4-0.8-0.8c-0.2-0.3-0.3-0.7-0.3-1.2s0.1-0.8,0.3-1.2
		c0.2-0.3,0.4-0.6,0.8-0.8c0.3-0.2,0.7-0.3,1.1-0.3c0.4,0,0.8,0.1,1.1,0.3s0.6,0.4,0.7,0.7s0.3,0.7,0.3,1.1
		C12.9,34,12.9,34.2,12.9,34.3z M12,33.6c0-0.3-0.1-0.6-0.3-0.8c-0.2-0.2-0.5-0.3-0.8-0.3c-0.3,0-0.6,0.1-0.8,0.3
		c-0.2,0.2-0.3,0.5-0.4,0.8H12z"/>
	<path class="st0" d="M16.4,32c0.3,0.1,0.5,0.3,0.6,0.5v-0.6h0.9v4.3c0,0.4-0.1,0.7-0.2,1.1c-0.2,0.3-0.4,0.5-0.7,0.7
		c-0.3,0.2-0.7,0.3-1.1,0.3c-0.6,0-1.1-0.1-1.4-0.4s-0.6-0.6-0.7-1.1h0.9c0.1,0.2,0.2,0.4,0.4,0.5c0.2,0.1,0.5,0.2,0.8,0.2
		c0.4,0,0.6-0.1,0.9-0.3s0.3-0.5,0.3-0.9v-0.7c-0.2,0.2-0.4,0.4-0.6,0.5s-0.5,0.2-0.9,0.2c-0.4,0-0.7-0.1-1-0.3
		c-0.3-0.2-0.6-0.5-0.7-0.8s-0.3-0.7-0.3-1.2s0.1-0.8,0.3-1.1s0.4-0.6,0.7-0.8s0.6-0.3,1-0.3C15.8,31.8,16.1,31.9,16.4,32z
		 M16.8,33.2c-0.1-0.2-0.3-0.4-0.5-0.5c-0.2-0.1-0.4-0.2-0.6-0.2s-0.4,0.1-0.6,0.2c-0.2,0.1-0.4,0.3-0.5,0.5
		c-0.1,0.2-0.2,0.5-0.2,0.8s0.1,0.6,0.2,0.8c0.1,0.2,0.3,0.4,0.5,0.5s0.4,0.2,0.6,0.2c0.2,0,0.4-0.1,0.6-0.2
		c0.2-0.1,0.4-0.3,0.5-0.5c0.1-0.2,0.2-0.5,0.2-0.8S16.9,33.4,16.8,33.2z"/>
	<path class="st0" d="M19.1,31.1c-0.1-0.1-0.2-0.2-0.2-0.4c0-0.2,0.1-0.3,0.2-0.4c0.1-0.1,0.2-0.2,0.4-0.2c0.2,0,0.3,0.1,0.4,0.2
		s0.2,0.2,0.2,0.4c0,0.2-0.1,0.3-0.2,0.4c-0.1,0.1-0.2,0.2-0.4,0.2C19.3,31.3,19.2,31.2,19.1,31.1z M19.9,31.9v4.3H19v-4.3H19.9z"/>
	<path class="st0" d="M21.7,36c-0.3-0.1-0.5-0.3-0.6-0.5c-0.2-0.2-0.2-0.4-0.2-0.7h0.9c0,0.2,0.1,0.3,0.3,0.5
		c0.2,0.1,0.4,0.2,0.6,0.2c0.2,0,0.4,0,0.6-0.1c0.1-0.1,0.2-0.2,0.2-0.4c0-0.2-0.1-0.3-0.2-0.4c-0.2-0.1-0.4-0.2-0.7-0.3
		c-0.3-0.1-0.6-0.2-0.8-0.3s-0.4-0.2-0.5-0.4s-0.2-0.4-0.2-0.7c0-0.2,0.1-0.4,0.2-0.6c0.1-0.2,0.3-0.3,0.6-0.4s0.5-0.2,0.9-0.2
		c0.5,0,0.9,0.1,1.2,0.4c0.3,0.2,0.5,0.6,0.5,1h-0.9c0-0.2-0.1-0.3-0.2-0.5c-0.1-0.1-0.3-0.2-0.6-0.2c-0.2,0-0.4,0-0.5,0.1
		s-0.2,0.2-0.2,0.3c0,0.1,0,0.2,0.1,0.3c0.1,0.1,0.2,0.1,0.3,0.2s0.3,0.1,0.5,0.2c0.3,0.1,0.6,0.2,0.8,0.3c0.2,0.1,0.4,0.2,0.5,0.4
		c0.1,0.2,0.2,0.4,0.2,0.7c0,0.2-0.1,0.5-0.2,0.7c-0.1,0.2-0.3,0.3-0.6,0.5c-0.2,0.1-0.5,0.2-0.9,0.2C22.3,36.2,22,36.1,21.7,36z"/>
	<path class="st0" d="M26.3,32.6v2.4c0,0.2,0,0.3,0.1,0.3c0.1,0.1,0.2,0.1,0.4,0.1h0.5v0.7h-0.7c-0.4,0-0.7-0.1-0.9-0.3
		s-0.3-0.5-0.3-0.9v-2.4h-0.5v-0.7h0.5v-1.1h0.9v1.1h1v0.7H26.3z"/>
	<path class="st0" d="M32,34.3h-3.3c0,0.3,0.2,0.6,0.4,0.8s0.5,0.3,0.8,0.3c0.5,0,0.8-0.2,1-0.6h1c-0.1,0.4-0.4,0.7-0.7,1
		s-0.8,0.4-1.3,0.4c-0.4,0-0.8-0.1-1.1-0.3c-0.3-0.2-0.6-0.4-0.8-0.8c-0.2-0.3-0.3-0.7-0.3-1.2s0.1-0.8,0.3-1.2
		c0.2-0.3,0.4-0.6,0.8-0.8c0.3-0.2,0.7-0.3,1.1-0.3c0.4,0,0.8,0.1,1.1,0.3s0.6,0.4,0.7,0.7s0.3,0.7,0.3,1.1C32,34,32,34.2,32,34.3z
		 M31.1,33.6c0-0.3-0.1-0.6-0.3-0.8c-0.2-0.2-0.5-0.3-0.8-0.3c-0.3,0-0.6,0.1-0.8,0.3c-0.2,0.2-0.3,0.5-0.4,0.8H31.1z"/>
	<path class="st0" d="M34.3,32c0.2-0.1,0.5-0.2,0.8-0.2v0.9h-0.2c-0.3,0-0.6,0.1-0.8,0.3s-0.3,0.5-0.3,0.9v2.3h-0.9v-4.3h0.9v0.6
		C33.9,32.3,34.1,32.1,34.3,32z"/>
	<path class="st0" d="M39.8,34.3h-3.3c0,0.3,0.2,0.6,0.4,0.8s0.5,0.3,0.8,0.3c0.5,0,0.8-0.2,1-0.6h1c-0.1,0.4-0.4,0.7-0.7,1
		s-0.8,0.4-1.3,0.4c-0.4,0-0.8-0.1-1.1-0.3c-0.3-0.2-0.6-0.4-0.8-0.8c-0.2-0.3-0.3-0.7-0.3-1.2s0.1-0.8,0.3-1.2
		c0.2-0.3,0.4-0.6,0.8-0.8c0.3-0.2,0.7-0.3,1.1-0.3c0.4,0,0.8,0.1,1.1,0.3s0.6,0.4,0.7,0.7s0.3,0.7,0.3,1.1
		C39.8,34,39.8,34.2,39.8,34.3z M38.9,33.6c0-0.3-0.1-0.6-0.3-0.8c-0.2-0.2-0.5-0.3-0.8-0.3c-0.3,0-0.6,0.1-0.8,0.3
		c-0.2,0.2-0.3,0.5-0.4,0.8H38.9z"/>
	<path class="st0" d="M40.7,32.8c0.2-0.3,0.4-0.6,0.7-0.8s0.7-0.3,1-0.3c0.3,0,0.6,0.1,0.8,0.2c0.3,0.1,0.5,0.3,0.6,0.5v-2.1h0.9
		v5.7h-0.9v-0.6c-0.1,0.2-0.3,0.4-0.6,0.5s-0.5,0.2-0.9,0.2c-0.4,0-0.7-0.1-1-0.3c-0.3-0.2-0.6-0.5-0.7-0.8s-0.3-0.7-0.3-1.2
		S40.5,33.2,40.7,32.8z M43.7,33.2c-0.1-0.2-0.3-0.4-0.5-0.5c-0.2-0.1-0.4-0.2-0.6-0.2s-0.4,0.1-0.6,0.2c-0.2,0.1-0.4,0.3-0.5,0.5
		c-0.1,0.2-0.2,0.5-0.2,0.8s0.1,0.6,0.2,0.8c0.1,0.2,0.3,0.4,0.5,0.5s0.4,0.2,0.6,0.2c0.2,0,0.4-0.1,0.6-0.2
		c0.2-0.1,0.4-0.3,0.5-0.5c0.1-0.2,0.2-0.5,0.2-0.8S43.8,33.4,43.7,33.2z"/>
	<path class="st0" d="M51.2,31.1c0.4,0.2,0.8,0.5,1,0.9c0.2,0.4,0.4,0.9,0.4,1.4c0,0.5-0.1,1-0.4,1.4c-0.2,0.4-0.6,0.7-1,0.9
		c-0.4,0.2-0.9,0.3-1.5,0.3H48v-5.4h1.8C50.3,30.7,50.8,30.8,51.2,31.1z M51.2,34.9c0.3-0.3,0.5-0.8,0.5-1.4c0-0.6-0.2-1.1-0.5-1.5
		c-0.3-0.4-0.8-0.5-1.5-0.5h-0.9v4h0.9C50.4,35.4,50.8,35.2,51.2,34.9z"/>
	<path class="st0" d="M53.5,31.1c-0.1-0.1-0.2-0.2-0.2-0.4c0-0.2,0.1-0.3,0.2-0.4c0.1-0.1,0.2-0.2,0.4-0.2c0.2,0,0.3,0.1,0.4,0.2
		s0.2,0.2,0.2,0.4c0,0.2-0.1,0.3-0.2,0.4c-0.1,0.1-0.2,0.2-0.4,0.2C53.8,31.3,53.6,31.2,53.5,31.1z M54.3,31.9v4.3h-0.9v-4.3H54.3z"
		/>
	<path class="st0" d="M59.4,34.3h-3.3c0,0.3,0.2,0.6,0.4,0.8s0.5,0.3,0.8,0.3c0.5,0,0.8-0.2,1-0.6h1c-0.1,0.4-0.4,0.7-0.7,1
		s-0.8,0.4-1.3,0.4c-0.4,0-0.8-0.1-1.1-0.3c-0.3-0.2-0.6-0.4-0.8-0.8c-0.2-0.3-0.3-0.7-0.3-1.2s0.1-0.8,0.3-1.2
		c0.2-0.3,0.4-0.6,0.8-0.8c0.3-0.2,0.7-0.3,1.1-0.3c0.4,0,0.8,0.1,1.1,0.3s0.6,0.4,0.7,0.7s0.3,0.7,0.3,1.1
		C59.4,34,59.4,34.2,59.4,34.3z M58.5,33.6c0-0.3-0.1-0.6-0.3-0.8c-0.2-0.2-0.5-0.3-0.8-0.3c-0.3,0-0.6,0.1-0.8,0.3
		c-0.2,0.2-0.3,0.5-0.4,0.8H58.5z"/>
	<path class="st0" d="M61.3,32.6v2.4c0,0.2,0,0.3,0.1,0.3c0.1,0.1,0.2,0.1,0.4,0.1h0.5v0.7h-0.7c-0.4,0-0.7-0.1-0.9-0.3
		s-0.3-0.5-0.3-0.9v-2.4h-0.5v-0.7h0.5v-1.1h0.9v1.1h1v0.7H61.3z"/>
	<path class="st0" d="M63.2,31.1c-0.1-0.1-0.2-0.2-0.2-0.4c0-0.2,0.1-0.3,0.2-0.4c0.1-0.1,0.2-0.2,0.4-0.2c0.2,0,0.3,0.1,0.4,0.2
		s0.2,0.2,0.2,0.4c0,0.2-0.1,0.3-0.2,0.4c-0.1,0.1-0.2,0.2-0.4,0.2C63.5,31.3,63.3,31.2,63.2,31.1z M64.1,31.9v4.3h-0.9v-4.3H64.1z"
		/>
	<path class="st0" d="M66.3,32.6v2.4c0,0.2,0,0.3,0.1,0.3c0.1,0.1,0.2,0.1,0.4,0.1h0.5v0.7h-0.7c-0.4,0-0.7-0.1-0.9-0.3
		s-0.3-0.5-0.3-0.9v-2.4h-0.5v-0.7h0.5v-1.1h0.9v1.1h1v0.7H66.3z"/>
	<path class="st0" d="M68.2,31.1C68.1,31,68,30.9,68,30.7c0-0.2,0.1-0.3,0.2-0.4c0.1-0.1,0.2-0.2,0.4-0.2c0.2,0,0.3,0.1,0.4,0.2
		s0.2,0.2,0.2,0.4c0,0.2-0.1,0.3-0.2,0.4c-0.1,0.1-0.2,0.2-0.4,0.2C68.4,31.3,68.3,31.2,68.2,31.1z M69,31.9v4.3h-0.9v-4.3H69z"/>
	<path class="st0" d="M70.1,32.8c0.2-0.3,0.4-0.6,0.7-0.8s0.6-0.3,1-0.3c0.3,0,0.6,0.1,0.9,0.2c0.3,0.1,0.5,0.3,0.6,0.5v-0.6h0.9
		v4.3h-0.9v-0.6c-0.2,0.2-0.4,0.4-0.6,0.5s-0.6,0.2-0.9,0.2c-0.4,0-0.7-0.1-1-0.3c-0.3-0.2-0.5-0.5-0.7-0.8s-0.3-0.7-0.3-1.2
		S70,33.2,70.1,32.8z M73.2,33.2c-0.1-0.2-0.3-0.4-0.5-0.5c-0.2-0.1-0.4-0.2-0.6-0.2s-0.4,0.1-0.6,0.2c-0.2,0.1-0.4,0.3-0.5,0.5
		c-0.1,0.2-0.2,0.5-0.2,0.8s0.1,0.6,0.2,0.8c0.1,0.2,0.3,0.4,0.5,0.5s0.4,0.2,0.6,0.2c0.2,0,0.4-0.1,0.6-0.2
		c0.2-0.1,0.4-0.3,0.5-0.5c0.1-0.2,0.2-0.5,0.2-0.8S73.3,33.4,73.2,33.2z"/>
	<path class="st0" d="M78.5,32c0.3,0.1,0.5,0.3,0.6,0.6c0.1,0.3,0.2,0.6,0.2,1v2.5h-0.9v-2.4c0-0.4-0.1-0.7-0.3-0.9
		c-0.2-0.2-0.5-0.3-0.8-0.3s-0.6,0.1-0.8,0.3c-0.2,0.2-0.3,0.5-0.3,0.9v2.4h-0.9v-4.3h0.9v0.5c0.1-0.2,0.3-0.3,0.6-0.4
		c0.2-0.1,0.5-0.1,0.7-0.1C77.9,31.8,78.2,31.9,78.5,32z"/>
	<path class="st0" d="M85.8,33v0.7h-3.2V33H85.8z"/>
	<path class="st0" d="M89.4,34.9c0.5-0.4,0.9-0.8,1.2-1.1c0.3-0.3,0.5-0.6,0.7-0.9c0.2-0.3,0.3-0.6,0.3-0.9c0-0.3-0.1-0.6-0.2-0.7
		s-0.4-0.3-0.7-0.3c-0.3,0-0.5,0.1-0.7,0.3c-0.2,0.2-0.3,0.5-0.3,0.8h-0.9c0-0.6,0.2-1,0.5-1.4c0.3-0.3,0.8-0.5,1.3-0.5
		c0.6,0,1,0.2,1.3,0.5c0.3,0.3,0.5,0.7,0.5,1.2c0,0.4-0.1,0.7-0.3,1.1c-0.2,0.3-0.4,0.7-0.7,0.9c-0.3,0.3-0.6,0.6-1,0.9l-0.3,0.3
		h2.5v0.7h-3.8v-0.6L89.4,34.9z"/>
	<path class="st0" d="M0.2,43.2C0.1,43.1,0,43,0,42.8s0.1-0.3,0.2-0.4c0.1-0.1,0.2-0.2,0.4-0.2c0.2,0,0.3,0.1,0.4,0.2
		c0.1,0.1,0.2,0.2,0.2,0.4S1.1,43.1,1,43.2c-0.1,0.1-0.2,0.2-0.4,0.2C0.4,43.4,0.3,43.4,0.2,43.2z"/>
	<path class="st0" d="M7.7,42.4C7.5,42.7,7.3,42.9,7,43c-0.3,0.2-0.6,0.2-1.1,0.2H5v2.2H4.1v-5.4H6c0.4,0,0.8,0.1,1.1,0.2
		c0.3,0.1,0.5,0.3,0.6,0.6c0.1,0.2,0.2,0.5,0.2,0.8C7.9,41.9,7.8,42.2,7.7,42.4z M6.7,42.3C6.9,42.2,7,41.9,7,41.7
		c0-0.6-0.3-0.9-1-0.9H5v1.8h1C6.3,42.5,6.5,42.5,6.7,42.3z"/>
	<path class="st0" d="M11.8,41.3c0.3,0.1,0.5,0.3,0.6,0.6s0.2,0.6,0.2,1v2.5h-0.9v-2.4c0-0.4-0.1-0.7-0.3-0.9
		c-0.2-0.2-0.5-0.3-0.8-0.3s-0.6,0.1-0.8,0.3c-0.2,0.2-0.3,0.5-0.3,0.9v2.4H8.7v-5.7h0.9v2c0.1-0.2,0.3-0.3,0.6-0.4s0.5-0.1,0.8-0.1
		C11.2,41.1,11.5,41.2,11.8,41.3z"/>
	<path class="st0" d="M17.6,41.2L15,47.5h-0.9l0.9-2.1l-1.7-4.2h1l1.2,3.3l1.2-3.3H17.6z"/>
	<path class="st0" d="M18.9,45.3c-0.3-0.1-0.5-0.3-0.6-0.5c-0.2-0.2-0.2-0.4-0.2-0.7h0.9c0,0.2,0.1,0.3,0.3,0.5
		c0.2,0.1,0.4,0.2,0.6,0.2c0.2,0,0.4,0,0.6-0.1c0.1-0.1,0.2-0.2,0.2-0.4c0-0.2-0.1-0.3-0.2-0.4c-0.2-0.1-0.4-0.2-0.7-0.3
		c-0.3-0.1-0.6-0.2-0.8-0.3s-0.4-0.2-0.5-0.4s-0.2-0.4-0.2-0.7c0-0.2,0.1-0.4,0.2-0.6c0.1-0.2,0.3-0.3,0.6-0.4s0.5-0.2,0.9-0.2
		c0.5,0,0.9,0.1,1.2,0.4c0.3,0.2,0.5,0.6,0.5,1h-0.9c0-0.2-0.1-0.3-0.2-0.5c-0.1-0.1-0.3-0.2-0.6-0.2c-0.2,0-0.4,0-0.5,0.1
		S19,42.2,19,42.3c0,0.1,0,0.2,0.1,0.3c0.1,0.1,0.2,0.1,0.3,0.2s0.3,0.1,0.5,0.2c0.3,0.1,0.6,0.2,0.8,0.3c0.2,0.1,0.4,0.2,0.5,0.4
		c0.1,0.2,0.2,0.4,0.2,0.7c0,0.2-0.1,0.5-0.2,0.7c-0.1,0.2-0.3,0.3-0.6,0.5c-0.2,0.1-0.5,0.2-0.9,0.2C19.5,45.5,19.2,45.5,18.9,45.3
		z"/>
	<path class="st0" d="M22.5,40.4c-0.1-0.1-0.2-0.2-0.2-0.4c0-0.2,0.1-0.3,0.2-0.4c0.1-0.1,0.2-0.2,0.4-0.2c0.2,0,0.3,0.1,0.4,0.2
		s0.2,0.2,0.2,0.4c0,0.2-0.1,0.3-0.2,0.4c-0.1,0.1-0.2,0.2-0.4,0.2C22.7,40.6,22.6,40.5,22.5,40.4z M23.3,41.2v4.3h-0.9v-4.3H23.3z"
		/>
	<path class="st0" d="M24.4,42.1c0.2-0.3,0.4-0.6,0.7-0.8c0.3-0.2,0.7-0.3,1.1-0.3c0.5,0,0.9,0.1,1.3,0.4c0.3,0.2,0.6,0.6,0.7,1.1
		h-1c-0.1-0.2-0.2-0.4-0.4-0.5c-0.2-0.1-0.4-0.2-0.6-0.2c-0.4,0-0.7,0.1-0.9,0.4c-0.2,0.3-0.3,0.6-0.3,1.1c0,0.5,0.1,0.8,0.3,1.1
		c0.2,0.3,0.5,0.4,0.9,0.4c0.5,0,0.9-0.2,1-0.7h1c-0.1,0.4-0.4,0.8-0.7,1c-0.3,0.3-0.8,0.4-1.3,0.4c-0.4,0-0.8-0.1-1.1-0.3
		c-0.3-0.2-0.6-0.4-0.7-0.8c-0.2-0.3-0.3-0.7-0.3-1.2S24.2,42.5,24.4,42.1z"/>
	<path class="st0" d="M29.2,40.4C29,40.3,29,40.2,29,40c0-0.2,0.1-0.3,0.2-0.4c0.1-0.1,0.2-0.2,0.4-0.2c0.2,0,0.3,0.1,0.4,0.2
		s0.2,0.2,0.2,0.4c0,0.2-0.1,0.3-0.2,0.4c-0.1,0.1-0.2,0.2-0.4,0.2C29.4,40.6,29.3,40.5,29.2,40.4z M30,41.2v4.3h-0.9v-4.3H30z"/>
	<path class="st0" d="M31.1,42.1c0.2-0.3,0.4-0.6,0.7-0.8s0.6-0.3,1-0.3c0.3,0,0.6,0.1,0.9,0.2c0.3,0.1,0.5,0.3,0.6,0.5v-0.6h0.9
		v4.3h-0.9v-0.6c-0.2,0.2-0.4,0.4-0.6,0.5s-0.6,0.2-0.9,0.2c-0.4,0-0.7-0.1-1-0.3c-0.3-0.2-0.5-0.5-0.7-0.8s-0.3-0.7-0.3-1.2
		S31,42.5,31.1,42.1z M34.2,42.5c-0.1-0.2-0.3-0.4-0.5-0.5c-0.2-0.1-0.4-0.2-0.6-0.2s-0.4,0.1-0.6,0.2c-0.2,0.1-0.4,0.3-0.5,0.5
		c-0.1,0.2-0.2,0.5-0.2,0.8s0.1,0.6,0.2,0.8c0.1,0.2,0.3,0.4,0.5,0.5s0.4,0.2,0.6,0.2c0.2,0,0.4-0.1,0.6-0.2
		c0.2-0.1,0.4-0.3,0.5-0.5c0.1-0.2,0.2-0.5,0.2-0.8S34.3,42.8,34.2,42.5z"/>
	<path class="st0" d="M39.5,41.3c0.3,0.1,0.5,0.3,0.6,0.6c0.1,0.3,0.2,0.6,0.2,1v2.5h-0.9v-2.4c0-0.4-0.1-0.7-0.3-0.9
		c-0.2-0.2-0.5-0.3-0.8-0.3s-0.6,0.1-0.8,0.3c-0.2,0.2-0.3,0.5-0.3,0.9v2.4h-0.9v-4.3h0.9v0.5c0.1-0.2,0.3-0.3,0.6-0.4
		c0.2-0.1,0.5-0.1,0.7-0.1C38.9,41.1,39.2,41.2,39.5,41.3z"/>
</g>
</svg>
